<?xml version="1.0" encoding="us-ascii" standalone="no"?><svg xmlns="http://www.w3.org/2000/svg" xmlns:xlink="http://www.w3.org/1999/xlink" contentStyleType="text/css" height="1328px" preserveAspectRatio="none" style="width:1806px;height:1328px;background:#FFFFFF;" version="1.1" viewBox="0 0 1806 1328" width="1806px" zoomAndPan="magnify"><defs/><g><!--cluster fungorium--><g id="cluster_fungorium"><path d="M8.5,6 L81.5,6 A3.75,3.75 0 0 1 84,8.5 L91,29.6094 L1796.5,29.6094 A2.5,2.5 0 0 1 1799,32.1094 L1799,1318.5 A2.5,2.5 0 0 1 1796.5,1321 L8.5,1321 A2.5,2.5 0 0 1 6,1318.5 L6,8.5 A2.5,2.5 0 0 1 8.5,6 " fill="none" style="stroke:#000000;stroke-width:1.5;"/><line style="stroke:#000000;stroke-width:1.5;" x1="6" x2="91" y1="29.6094" y2="29.6094"/><text fill="#000000" font-family="sans-serif" font-size="14" font-weight="bold" lengthAdjust="spacing" textLength="72" x="10" y="22.5332">fungorium</text></g><!--class IOnTurn--><g id="elem_IOnTurn"><rect codeLine="6" fill="#F1F1F1" height="65.6094" id="IOnTurn" rx="2.5" ry="2.5" style="stroke:#181818;stroke-width:0.5;" width="106" x="1161" y="68"/><ellipse cx="1185.45" cy="84" fill="#B4A7E5" rx="11" ry="11" style="stroke:#181818;stroke-width:1.0;"/><path d="M1186.4031,80.6406 L1186.4031,87.2969 L1188.1219,87.2969 Q1188.7313,87.2969 1188.9969,87.5313 Q1189.2625,87.7656 1189.2625,88.1563 Q1189.2625,88.5313 1188.9969,88.7656 Q1188.7313,89 1188.1219,89 L1182.9813,89 Q1182.3719,89 1182.1063,88.7656 Q1181.8406,88.5313 1181.8406,88.1406 Q1181.8406,87.7656 1182.1063,87.5313 Q1182.3719,87.2969 1182.9813,87.2969 L1184.7,87.2969 L1184.7,80.6406 L1182.9813,80.6406 Q1182.3719,80.6406 1182.1063,80.4063 Q1181.8406,80.1719 1181.8406,79.7813 Q1181.8406,79.4063 1182.1063,79.1719 Q1182.3719,78.9375 1182.9813,78.9375 L1188.1219,78.9375 Q1188.7313,78.9375 1188.9969,79.1719 Q1189.2625,79.4063 1189.2625,79.7813 Q1189.2625,80.1719 1188.9969,80.4063 Q1188.7313,80.6406 1188.1219,80.6406 L1186.4031,80.6406 Z " fill="#000000"/><text fill="#000000" font-family="sans-serif" font-size="14" font-style="italic" lengthAdjust="spacing" textLength="53" x="1201.55" y="89.7285">IOnTurn</text><line style="stroke:#181818;stroke-width:0.5;" x1="1162" x2="1266" y1="100" y2="100"/><line style="stroke:#181818;stroke-width:0.5;" x1="1162" x2="1266" y1="108" y2="108"/><text fill="#000000" font-family="sans-serif" font-size="14" lengthAdjust="spacing" textLength="94" x="1167" y="126.5332">onTurn() : void</text></g><!--class Player--><g id="elem_Player"><rect codeLine="2" fill="#F1F1F1" height="83.2188" id="Player" rx="2.5" ry="2.5" style="stroke:#181818;stroke-width:0.5;" width="103" x="1378.5" y="238.5"/><ellipse cx="1407.45" cy="254.5" fill="#A9DCDF" rx="11" ry="11" style="stroke:#181818;stroke-width:1.0;"/><path d="M1409.6375,256.2656 L1405.4969,256.2656 L1405.075,257.2969 L1405.4969,257.2969 Q1406.1063,257.2969 1406.3719,257.5313 Q1406.6375,257.7656 1406.6375,258.1563 Q1406.6375,258.5313 1406.3719,258.7656 Q1406.1063,259 1405.4969,259 L1403.2,259 Q1402.5906,259 1402.3406,258.7656 Q1402.075,258.5313 1402.075,258.1406 Q1402.075,257.7656 1402.3563,257.5313 Q1402.6219,257.2813 1403.2469,257.2969 L1405.9188,250.6406 L1404.8094,250.6406 Q1404.2,250.6406 1403.9344,250.4063 Q1403.6688,250.1719 1403.6688,249.7813 Q1403.6688,249.4063 1403.9344,249.1719 Q1404.2,248.9375 1404.8094,248.9375 L1408.4813,248.9375 L1411.8719,257.2969 Q1412.4656,257.2969 1412.6531,257.4375 Q1413.0438,257.7031 1413.0438,258.1563 Q1413.0438,258.5313 1412.7781,258.7656 Q1412.5281,259 1411.9188,259 L1409.6219,259 Q1409.0125,259 1408.7469,258.7656 Q1408.4813,258.5313 1408.4813,258.1406 Q1408.4813,257.7656 1408.7469,257.5313 Q1409.0125,257.2969 1409.6219,257.2969 L1410.0438,257.2969 L1409.6375,256.2656 Z M1408.9188,254.5625 L1407.5594,251.1875 L1406.1844,254.5625 L1408.9188,254.5625 Z " fill="#000000"/><text fill="#000000" font-family="sans-serif" font-size="14" font-style="italic" lengthAdjust="spacing" textLength="40" x="1424.55" y="260.2285">Player</text><line style="stroke:#181818;stroke-width:0.5;" x1="1379.5" x2="1480.5" y1="270.5" y2="270.5"/><text fill="#000000" font-family="sans-serif" font-size="14" lengthAdjust="spacing" textLength="91" x="1384.5" y="289.0332">score : Integer</text><text fill="#000000" font-family="sans-serif" font-size="14" lengthAdjust="spacing" textLength="67" x="1384.5" y="306.6426">id : Integer</text><line style="stroke:#181818;stroke-width:0.5;" x1="1379.5" x2="1480.5" y1="313.7188" y2="313.7188"/></g><!--class Mushroomer--><g id="elem_Mushroomer"><rect codeLine="11" fill="#F1F1F1" height="136.0469" id="Mushroomer" rx="2.5" ry="2.5" style="stroke:#181818;stroke-width:0.5;" width="293" x="1425.5" y="435"/><ellipse cx="1528.25" cy="451" fill="#ADD1B2" rx="11" ry="11" style="stroke:#181818;stroke-width:1.0;"/><path d="M1531.0156,446.875 Q1531.1719,446.6563 1531.3594,446.5469 Q1531.5469,446.4375 1531.7656,446.4375 Q1532.1406,446.4375 1532.375,446.7031 Q1532.6094,446.9531 1532.6094,447.5625 L1532.6094,449.0156 Q1532.6094,449.625 1532.375,449.8906 Q1532.1406,450.1563 1531.7656,450.1563 Q1531.4219,450.1563 1531.2188,449.9531 Q1531.0156,449.7656 1530.9063,449.25 Q1530.8594,448.8906 1530.6719,448.7031 Q1530.3438,448.3281 1529.7344,448.1094 Q1529.125,447.8906 1528.5,447.8906 Q1527.7344,447.8906 1527.0938,448.2188 Q1526.4688,448.5469 1525.9688,449.2969 Q1525.4844,450.0469 1525.4844,451.0781 L1525.4844,452.1719 Q1525.4844,453.4063 1526.375,454.2344 Q1527.2656,455.0469 1528.8594,455.0469 Q1529.7969,455.0469 1530.4531,454.7969 Q1530.8438,454.6406 1531.2656,454.2031 Q1531.5313,453.9375 1531.6719,453.8594 Q1531.8281,453.7813 1532.0313,453.7813 Q1532.3594,453.7813 1532.6094,454.0469 Q1532.875,454.2969 1532.875,454.6406 Q1532.875,454.9844 1532.5313,455.3906 Q1532.0313,455.9688 1531.2344,456.2969 Q1530.1563,456.75 1528.8594,456.75 Q1527.3438,456.75 1526.1406,456.125 Q1525.1563,455.625 1524.4688,454.5625 Q1523.7813,453.4844 1523.7813,452.2031 L1523.7813,451.0469 Q1523.7813,449.7188 1524.3906,448.5781 Q1525.0156,447.4219 1526.1094,446.8125 Q1527.2031,446.1875 1528.4375,446.1875 Q1529.1719,446.1875 1529.8125,446.3594 Q1530.4688,446.5156 1531.0156,446.875 Z " fill="#000000"/><text fill="#000000" font-family="sans-serif" font-size="14" lengthAdjust="spacing" textLength="79" x="1548.75" y="456.7285">Mushroomer</text><line style="stroke:#181818;stroke-width:0.5;" x1="1426.5" x2="1717.5" y1="467" y2="467"/><text fill="#000000" font-family="sans-serif" font-size="14" lengthAdjust="spacing" textLength="253" x="1431.5" y="485.5332">mushroomStems : List&lt;MushroomStem&gt;</text><text fill="#000000" font-family="sans-serif" font-size="14" lengthAdjust="spacing" textLength="281" x="1431.5" y="503.1426">mushroomThreads : List&lt;MushroomThread&gt;</text><line style="stroke:#181818;stroke-width:0.5;" x1="1426.5" x2="1717.5" y1="510.2188" y2="510.2188"/><text fill="#000000" font-family="sans-serif" font-size="14" lengthAdjust="spacing" textLength="179" x="1431.5" y="528.752">getColonies() : List&lt;Colony&gt;</text><text fill="#000000" font-family="sans-serif" font-size="14" lengthAdjust="spacing" textLength="155" x="1431.5" y="546.3613">plantStem(Tecton) : void</text><text fill="#000000" font-family="sans-serif" font-size="14" lengthAdjust="spacing" textLength="210" x="1431.5" y="563.9707">throwSpore(Tecton, Spore) : void</text></g><!--class MushroomStem--><g id="elem_MushroomStem"><rect codeLine="5" fill="#F1F1F1" height="171.2656" id="MushroomStem" rx="2.5" ry="2.5" style="stroke:#181818;stroke-width:0.5;" width="222" x="1252" y="990"/><ellipse cx="1309.75" cy="1006" fill="#ADD1B2" rx="11" ry="11" style="stroke:#181818;stroke-width:1.0;"/><path d="M1312.5156,1001.875 Q1312.6719,1001.6563 1312.8594,1001.5469 Q1313.0469,1001.4375 1313.2656,1001.4375 Q1313.6406,1001.4375 1313.875,1001.7031 Q1314.1094,1001.9531 1314.1094,1002.5625 L1314.1094,1004.0156 Q1314.1094,1004.625 1313.875,1004.8906 Q1313.6406,1005.1563 1313.2656,1005.1563 Q1312.9219,1005.1563 1312.7188,1004.9531 Q1312.5156,1004.7656 1312.4063,1004.25 Q1312.3594,1003.8906 1312.1719,1003.7031 Q1311.8438,1003.3281 1311.2344,1003.1094 Q1310.625,1002.8906 1310,1002.8906 Q1309.2344,1002.8906 1308.5938,1003.2188 Q1307.9688,1003.5469 1307.4688,1004.2969 Q1306.9844,1005.0469 1306.9844,1006.0781 L1306.9844,1007.1719 Q1306.9844,1008.4063 1307.875,1009.2344 Q1308.7656,1010.0469 1310.3594,1010.0469 Q1311.2969,1010.0469 1311.9531,1009.7969 Q1312.3438,1009.6406 1312.7656,1009.2031 Q1313.0313,1008.9375 1313.1719,1008.8594 Q1313.3281,1008.7813 1313.5313,1008.7813 Q1313.8594,1008.7813 1314.1094,1009.0469 Q1314.375,1009.2969 1314.375,1009.6406 Q1314.375,1009.9844 1314.0313,1010.3906 Q1313.5313,1010.9688 1312.7344,1011.2969 Q1311.6563,1011.75 1310.3594,1011.75 Q1308.8438,1011.75 1307.6406,1011.125 Q1306.6563,1010.625 1305.9688,1009.5625 Q1305.2813,1008.4844 1305.2813,1007.2031 L1305.2813,1006.0469 Q1305.2813,1004.7188 1305.8906,1003.5781 Q1306.5156,1002.4219 1307.6094,1001.8125 Q1308.7031,1001.1875 1309.9375,1001.1875 Q1310.6719,1001.1875 1311.3125,1001.3594 Q1311.9688,1001.5156 1312.5156,1001.875 Z " fill="#000000"/><text fill="#000000" font-family="sans-serif" font-size="14" lengthAdjust="spacing" textLength="98" x="1330.25" y="1011.7285">MushroomStem</text><line style="stroke:#181818;stroke-width:0.5;" x1="1253" x2="1473" y1="1022" y2="1022"/><text fill="#000000" font-family="sans-serif" font-size="14" lengthAdjust="spacing" text-decoration="underline" textLength="165" x="1258" y="1040.5332">maxSporeThrows : Integer</text><text fill="#000000" font-family="sans-serif" font-size="14" lengthAdjust="spacing" textLength="139" x="1258" y="1058.1426">thrownSpores: Integer</text><text fill="#000000" font-family="sans-serif" font-size="14" lengthAdjust="spacing" textLength="96" x="1258" y="1075.752">energy: Integer</text><text fill="#000000" font-family="sans-serif" font-size="14" lengthAdjust="spacing" textLength="81" x="1258" y="1093.3613">level: Integer</text><line style="stroke:#181818;stroke-width:0.5;" x1="1253" x2="1473" y1="1100.4375" y2="1100.4375"/><text fill="#000000" font-family="sans-serif" font-size="14" lengthAdjust="spacing" textLength="210" x="1258" y="1118.9707">throwSpore(Spore, Tecton) : void</text><text fill="#000000" font-family="sans-serif" font-size="14" lengthAdjust="spacing" textLength="113" x="1258" y="1136.5801">isDead(): boolean</text><text fill="#000000" font-family="sans-serif" font-size="14" lengthAdjust="spacing" textLength="130" x="1258" y="1154.1895">getColony() : Colony</text></g><!--class MushroomThread--><g id="elem_MushroomThread"><rect codeLine="3" fill="#F1F1F1" height="65.6094" id="MushroomThread" rx="2.5" ry="2.5" style="stroke:#181818;stroke-width:0.5;" width="273" x="1509.5" y="1042.5"/><ellipse cx="1585.75" cy="1058.5" fill="#ADD1B2" rx="11" ry="11" style="stroke:#181818;stroke-width:1.0;"/><path d="M1588.5156,1054.375 Q1588.6719,1054.1563 1588.8594,1054.0469 Q1589.0469,1053.9375 1589.2656,1053.9375 Q1589.6406,1053.9375 1589.875,1054.2031 Q1590.1094,1054.4531 1590.1094,1055.0625 L1590.1094,1056.5156 Q1590.1094,1057.125 1589.875,1057.3906 Q1589.6406,1057.6563 1589.2656,1057.6563 Q1588.9219,1057.6563 1588.7188,1057.4531 Q1588.5156,1057.2656 1588.4063,1056.75 Q1588.3594,1056.3906 1588.1719,1056.2031 Q1587.8438,1055.8281 1587.2344,1055.6094 Q1586.625,1055.3906 1586,1055.3906 Q1585.2344,1055.3906 1584.5938,1055.7188 Q1583.9688,1056.0469 1583.4688,1056.7969 Q1582.9844,1057.5469 1582.9844,1058.5781 L1582.9844,1059.6719 Q1582.9844,1060.9063 1583.875,1061.7344 Q1584.7656,1062.5469 1586.3594,1062.5469 Q1587.2969,1062.5469 1587.9531,1062.2969 Q1588.3438,1062.1406 1588.7656,1061.7031 Q1589.0313,1061.4375 1589.1719,1061.3594 Q1589.3281,1061.2813 1589.5313,1061.2813 Q1589.8594,1061.2813 1590.1094,1061.5469 Q1590.375,1061.7969 1590.375,1062.1406 Q1590.375,1062.4844 1590.0313,1062.8906 Q1589.5313,1063.4688 1588.7344,1063.7969 Q1587.6563,1064.25 1586.3594,1064.25 Q1584.8438,1064.25 1583.6406,1063.625 Q1582.6563,1063.125 1581.9688,1062.0625 Q1581.2813,1060.9844 1581.2813,1059.7031 L1581.2813,1058.5469 Q1581.2813,1057.2188 1581.8906,1056.0781 Q1582.5156,1054.9219 1583.6094,1054.3125 Q1584.7031,1053.6875 1585.9375,1053.6875 Q1586.6719,1053.6875 1587.3125,1053.8594 Q1587.9688,1054.0156 1588.5156,1054.375 Z " fill="#000000"/><text fill="#000000" font-family="sans-serif" font-size="14" lengthAdjust="spacing" textLength="112" x="1606.25" y="1064.2285">MushroomThread</text><line style="stroke:#181818;stroke-width:0.5;" x1="1510.5" x2="1781.5" y1="1074.5" y2="1074.5"/><line style="stroke:#181818;stroke-width:0.5;" x1="1510.5" x2="1781.5" y1="1082.5" y2="1082.5"/><text fill="#000000" font-family="sans-serif" font-size="14" lengthAdjust="spacing" textLength="261" x="1515.5" y="1101.0332">getConnected() : List&lt;MushroomThread&gt;</text></g><!--class Colony--><g id="elem_Colony"><rect codeLine="5" fill="#F1F1F1" height="83.2188" id="Colony" rx="2.5" ry="2.5" style="stroke:#181818;stroke-width:0.5;" width="293" x="1452.5" y="828.5"/><ellipse cx="1572.75" cy="844.5" fill="#ADD1B2" rx="11" ry="11" style="stroke:#181818;stroke-width:1.0;"/><path d="M1575.5156,840.375 Q1575.6719,840.1563 1575.8594,840.0469 Q1576.0469,839.9375 1576.2656,839.9375 Q1576.6406,839.9375 1576.875,840.2031 Q1577.1094,840.4531 1577.1094,841.0625 L1577.1094,842.5156 Q1577.1094,843.125 1576.875,843.3906 Q1576.6406,843.6563 1576.2656,843.6563 Q1575.9219,843.6563 1575.7188,843.4531 Q1575.5156,843.2656 1575.4063,842.75 Q1575.3594,842.3906 1575.1719,842.2031 Q1574.8438,841.8281 1574.2344,841.6094 Q1573.625,841.3906 1573,841.3906 Q1572.2344,841.3906 1571.5938,841.7188 Q1570.9688,842.0469 1570.4688,842.7969 Q1569.9844,843.5469 1569.9844,844.5781 L1569.9844,845.6719 Q1569.9844,846.9063 1570.875,847.7344 Q1571.7656,848.5469 1573.3594,848.5469 Q1574.2969,848.5469 1574.9531,848.2969 Q1575.3438,848.1406 1575.7656,847.7031 Q1576.0313,847.4375 1576.1719,847.3594 Q1576.3281,847.2813 1576.5313,847.2813 Q1576.8594,847.2813 1577.1094,847.5469 Q1577.375,847.7969 1577.375,848.1406 Q1577.375,848.4844 1577.0313,848.8906 Q1576.5313,849.4688 1575.7344,849.7969 Q1574.6563,850.25 1573.3594,850.25 Q1571.8438,850.25 1570.6406,849.625 Q1569.6563,849.125 1568.9688,848.0625 Q1568.2813,846.9844 1568.2813,845.7031 L1568.2813,844.5469 Q1568.2813,843.2188 1568.8906,842.0781 Q1569.5156,840.9219 1570.6094,840.3125 Q1571.7031,839.6875 1572.9375,839.6875 Q1573.6719,839.6875 1574.3125,839.8594 Q1574.9688,840.0156 1575.5156,840.375 Z " fill="#000000"/><text fill="#000000" font-family="sans-serif" font-size="14" lengthAdjust="spacing" textLength="44" x="1593.25" y="850.2285">Colony</text><line style="stroke:#181818;stroke-width:0.5;" x1="1453.5" x2="1744.5" y1="860.5" y2="860.5"/><text fill="#000000" font-family="sans-serif" font-size="14" lengthAdjust="spacing" textLength="253" x="1458.5" y="879.0332">mushroomStems : List&lt;MushroomStem&gt;</text><text fill="#000000" font-family="sans-serif" font-size="14" lengthAdjust="spacing" textLength="281" x="1458.5" y="896.6426">mushroomThreads : List&lt;MushroomThread&gt;</text><line style="stroke:#181818;stroke-width:0.5;" x1="1453.5" x2="1744.5" y1="903.7188" y2="903.7188"/></g><!--class Insecter--><g id="elem_Insecter"><rect codeLine="21" fill="#F1F1F1" height="118.4375" id="Insecter" rx="2.5" ry="2.5" style="stroke:#181818;stroke-width:0.5;" width="237" x="1310.5" y="42"/><ellipse cx="1399.75" cy="58" fill="#ADD1B2" rx="11" ry="11" style="stroke:#181818;stroke-width:1.0;"/><path d="M1402.5156,53.875 Q1402.6719,53.6563 1402.8594,53.5469 Q1403.0469,53.4375 1403.2656,53.4375 Q1403.6406,53.4375 1403.875,53.7031 Q1404.1094,53.9531 1404.1094,54.5625 L1404.1094,56.0156 Q1404.1094,56.625 1403.875,56.8906 Q1403.6406,57.1563 1403.2656,57.1563 Q1402.9219,57.1563 1402.7188,56.9531 Q1402.5156,56.7656 1402.4063,56.25 Q1402.3594,55.8906 1402.1719,55.7031 Q1401.8438,55.3281 1401.2344,55.1094 Q1400.625,54.8906 1400,54.8906 Q1399.2344,54.8906 1398.5938,55.2188 Q1397.9688,55.5469 1397.4688,56.2969 Q1396.9844,57.0469 1396.9844,58.0781 L1396.9844,59.1719 Q1396.9844,60.4063 1397.875,61.2344 Q1398.7656,62.0469 1400.3594,62.0469 Q1401.2969,62.0469 1401.9531,61.7969 Q1402.3438,61.6406 1402.7656,61.2031 Q1403.0313,60.9375 1403.1719,60.8594 Q1403.3281,60.7813 1403.5313,60.7813 Q1403.8594,60.7813 1404.1094,61.0469 Q1404.375,61.2969 1404.375,61.6406 Q1404.375,61.9844 1404.0313,62.3906 Q1403.5313,62.9688 1402.7344,63.2969 Q1401.6563,63.75 1400.3594,63.75 Q1398.8438,63.75 1397.6406,63.125 Q1396.6563,62.625 1395.9688,61.5625 Q1395.2813,60.4844 1395.2813,59.2031 L1395.2813,58.0469 Q1395.2813,56.7188 1395.8906,55.5781 Q1396.5156,54.4219 1397.6094,53.8125 Q1398.7031,53.1875 1399.9375,53.1875 Q1400.6719,53.1875 1401.3125,53.3594 Q1401.9688,53.5156 1402.5156,53.875 Z " fill="#000000"/><text fill="#000000" font-family="sans-serif" font-size="14" lengthAdjust="spacing" textLength="50" x="1420.25" y="63.7285">Insecter</text><line style="stroke:#181818;stroke-width:0.5;" x1="1311.5" x2="1546.5" y1="74" y2="74"/><text fill="#000000" font-family="sans-serif" font-size="14" lengthAdjust="spacing" textLength="86" x="1316.5" y="92.5332">insect : Insect</text><line style="stroke:#181818;stroke-width:0.5;" x1="1311.5" x2="1546.5" y1="99.6094" y2="99.6094"/><text fill="#000000" font-family="sans-serif" font-size="14" lengthAdjust="spacing" textLength="106" x="1316.5" y="118.1426">eat(Spore) : void</text><text fill="#000000" font-family="sans-serif" font-size="14" lengthAdjust="spacing" textLength="163" x="1316.5" y="135.752">moveInsect(Tecton) : void</text><text fill="#000000" font-family="sans-serif" font-size="14" lengthAdjust="spacing" textLength="225" x="1316.5" y="153.3613">cutThread(MushroomThread) : void</text></g><!--class Insect--><g id="elem_Insect"><rect codeLine="4" fill="#F1F1F1" height="118.4375" id="Insect" rx="2.5" ry="2.5" style="stroke:#181818;stroke-width:0.5;" width="191" x="1151.5" y="811"/><ellipse cx="1224.25" cy="827" fill="#ADD1B2" rx="11" ry="11" style="stroke:#181818;stroke-width:1.0;"/><path d="M1227.0156,822.875 Q1227.1719,822.6563 1227.3594,822.5469 Q1227.5469,822.4375 1227.7656,822.4375 Q1228.1406,822.4375 1228.375,822.7031 Q1228.6094,822.9531 1228.6094,823.5625 L1228.6094,825.0156 Q1228.6094,825.625 1228.375,825.8906 Q1228.1406,826.1563 1227.7656,826.1563 Q1227.4219,826.1563 1227.2188,825.9531 Q1227.0156,825.7656 1226.9063,825.25 Q1226.8594,824.8906 1226.6719,824.7031 Q1226.3438,824.3281 1225.7344,824.1094 Q1225.125,823.8906 1224.5,823.8906 Q1223.7344,823.8906 1223.0938,824.2188 Q1222.4688,824.5469 1221.9688,825.2969 Q1221.4844,826.0469 1221.4844,827.0781 L1221.4844,828.1719 Q1221.4844,829.4063 1222.375,830.2344 Q1223.2656,831.0469 1224.8594,831.0469 Q1225.7969,831.0469 1226.4531,830.7969 Q1226.8438,830.6406 1227.2656,830.2031 Q1227.5313,829.9375 1227.6719,829.8594 Q1227.8281,829.7813 1228.0313,829.7813 Q1228.3594,829.7813 1228.6094,830.0469 Q1228.875,830.2969 1228.875,830.6406 Q1228.875,830.9844 1228.5313,831.3906 Q1228.0313,831.9688 1227.2344,832.2969 Q1226.1563,832.75 1224.8594,832.75 Q1223.3438,832.75 1222.1406,832.125 Q1221.1563,831.625 1220.4688,830.5625 Q1219.7813,829.4844 1219.7813,828.2031 L1219.7813,827.0469 Q1219.7813,825.7188 1220.3906,824.5781 Q1221.0156,823.4219 1222.1094,822.8125 Q1223.2031,822.1875 1224.4375,822.1875 Q1225.1719,822.1875 1225.8125,822.3594 Q1226.4688,822.5156 1227.0156,822.875 Z " fill="#000000"/><text fill="#000000" font-family="sans-serif" font-size="14" lengthAdjust="spacing" textLength="37" x="1244.75" y="832.7285">Insect</text><line style="stroke:#181818;stroke-width:0.5;" x1="1152.5" x2="1341.5" y1="843" y2="843"/><text fill="#000000" font-family="sans-serif" font-size="14" lengthAdjust="spacing" textLength="128" x="1157.5" y="861.5332">effects : List&lt;Effect&gt;</text><line style="stroke:#181818;stroke-width:0.5;" x1="1152.5" x2="1341.5" y1="868.6094" y2="868.6094"/><text fill="#000000" font-family="sans-serif" font-size="14" lengthAdjust="spacing" textLength="106" x="1157.5" y="887.1426">eat(Spore) : void</text><text fill="#000000" font-family="sans-serif" font-size="14" lengthAdjust="spacing" textLength="126" x="1157.5" y="904.752">move(Tecton) : void</text><text fill="#000000" font-family="sans-serif" font-size="14" lengthAdjust="spacing" textLength="179" x="1157.5" y="922.3613">cut(MushroomThread) : void</text></g><!--class Map--><g id="elem_Map"><rect codeLine="4" fill="#F1F1F1" height="118.4375" id="Map" rx="2.5" ry="2.5" style="stroke:#181818;stroke-width:0.5;" width="198" x="974" y="221"/><ellipse cx="1055.25" cy="237" fill="#ADD1B2" rx="11" ry="11" style="stroke:#181818;stroke-width:1.0;"/><path d="M1058.0156,232.875 Q1058.1719,232.6563 1058.3594,232.5469 Q1058.5469,232.4375 1058.7656,232.4375 Q1059.1406,232.4375 1059.375,232.7031 Q1059.6094,232.9531 1059.6094,233.5625 L1059.6094,235.0156 Q1059.6094,235.625 1059.375,235.8906 Q1059.1406,236.1563 1058.7656,236.1563 Q1058.4219,236.1563 1058.2188,235.9531 Q1058.0156,235.7656 1057.9063,235.25 Q1057.8594,234.8906 1057.6719,234.7031 Q1057.3438,234.3281 1056.7344,234.1094 Q1056.125,233.8906 1055.5,233.8906 Q1054.7344,233.8906 1054.0938,234.2188 Q1053.4688,234.5469 1052.9688,235.2969 Q1052.4844,236.0469 1052.4844,237.0781 L1052.4844,238.1719 Q1052.4844,239.4063 1053.375,240.2344 Q1054.2656,241.0469 1055.8594,241.0469 Q1056.7969,241.0469 1057.4531,240.7969 Q1057.8438,240.6406 1058.2656,240.2031 Q1058.5313,239.9375 1058.6719,239.8594 Q1058.8281,239.7813 1059.0313,239.7813 Q1059.3594,239.7813 1059.6094,240.0469 Q1059.875,240.2969 1059.875,240.6406 Q1059.875,240.9844 1059.5313,241.3906 Q1059.0313,241.9688 1058.2344,242.2969 Q1057.1563,242.75 1055.8594,242.75 Q1054.3438,242.75 1053.1406,242.125 Q1052.1563,241.625 1051.4688,240.5625 Q1050.7813,239.4844 1050.7813,238.2031 L1050.7813,237.0469 Q1050.7813,235.7188 1051.3906,234.5781 Q1052.0156,233.4219 1053.1094,232.8125 Q1054.2031,232.1875 1055.4375,232.1875 Q1056.1719,232.1875 1056.8125,232.3594 Q1057.4688,232.5156 1058.0156,232.875 Z " fill="#000000"/><text fill="#000000" font-family="sans-serif" font-size="14" lengthAdjust="spacing" textLength="27" x="1075.75" y="242.7285">Map</text><line style="stroke:#181818;stroke-width:0.5;" x1="975" x2="1171" y1="253" y2="253"/><text fill="#000000" font-family="sans-serif" font-size="14" lengthAdjust="spacing" textLength="140" x="980" y="271.5332">tectons : List&lt;Tecton&gt;</text><line style="stroke:#181818;stroke-width:0.5;" x1="975" x2="1171" y1="278.6094" y2="278.6094"/><text fill="#000000" font-family="sans-serif" font-size="14" lengthAdjust="spacing" textLength="105" x="980" y="297.1426">generate() : void</text><text fill="#000000" font-family="sans-serif" font-size="14" lengthAdjust="spacing" textLength="161" x="980" y="314.752">splitTecton(Tecton) : void</text><text fill="#000000" font-family="sans-serif" font-size="14" lengthAdjust="spacing" textLength="186" x="980" y="332.3613">getRandomTection() : Tecton</text></g><!--class IOnRound--><g id="elem_IOnRound"><rect codeLine="10" fill="#F1F1F1" height="65.6094" id="IOnRound" rx="2.5" ry="2.5" style="stroke:#181818;stroke-width:0.5;" width="118" x="879" y="68"/><ellipse cx="903.45" cy="84" fill="#B4A7E5" rx="11" ry="11" style="stroke:#181818;stroke-width:1.0;"/><path d="M904.4031,80.6406 L904.4031,87.2969 L906.1219,87.2969 Q906.7313,87.2969 906.9969,87.5313 Q907.2625,87.7656 907.2625,88.1563 Q907.2625,88.5313 906.9969,88.7656 Q906.7313,89 906.1219,89 L900.9813,89 Q900.3719,89 900.1063,88.7656 Q899.8406,88.5313 899.8406,88.1406 Q899.8406,87.7656 900.1063,87.5313 Q900.3719,87.2969 900.9813,87.2969 L902.7,87.2969 L902.7,80.6406 L900.9813,80.6406 Q900.3719,80.6406 900.1063,80.4063 Q899.8406,80.1719 899.8406,79.7813 Q899.8406,79.4063 900.1063,79.1719 Q900.3719,78.9375 900.9813,78.9375 L906.1219,78.9375 Q906.7313,78.9375 906.9969,79.1719 Q907.2625,79.4063 907.2625,79.7813 Q907.2625,80.1719 906.9969,80.4063 Q906.7313,80.6406 906.1219,80.6406 L904.4031,80.6406 Z " fill="#000000"/><text fill="#000000" font-family="sans-serif" font-size="14" font-style="italic" lengthAdjust="spacing" textLength="65" x="919.55" y="89.7285">IOnRound</text><line style="stroke:#181818;stroke-width:0.5;" x1="880" x2="996" y1="100" y2="100"/><line style="stroke:#181818;stroke-width:0.5;" x1="880" x2="996" y1="108" y2="108"/><text fill="#000000" font-family="sans-serif" font-size="14" lengthAdjust="spacing" textLength="106" x="885" y="126.5332">onRound() : void</text></g><!--class Tecton--><g id="elem_Tecton"><rect codeLine="5" fill="#F1F1F1" height="206.4844" id="Tecton" rx="2.5" ry="2.5" style="stroke:#181818;stroke-width:0.5;" width="193" x="974.5" y="400"/><ellipse cx="1044.75" cy="416" fill="#ADD1B2" rx="11" ry="11" style="stroke:#181818;stroke-width:1.0;"/><path d="M1047.5156,411.875 Q1047.6719,411.6563 1047.8594,411.5469 Q1048.0469,411.4375 1048.2656,411.4375 Q1048.6406,411.4375 1048.875,411.7031 Q1049.1094,411.9531 1049.1094,412.5625 L1049.1094,414.0156 Q1049.1094,414.625 1048.875,414.8906 Q1048.6406,415.1563 1048.2656,415.1563 Q1047.9219,415.1563 1047.7188,414.9531 Q1047.5156,414.7656 1047.4063,414.25 Q1047.3594,413.8906 1047.1719,413.7031 Q1046.8438,413.3281 1046.2344,413.1094 Q1045.625,412.8906 1045,412.8906 Q1044.2344,412.8906 1043.5938,413.2188 Q1042.9688,413.5469 1042.4688,414.2969 Q1041.9844,415.0469 1041.9844,416.0781 L1041.9844,417.1719 Q1041.9844,418.4063 1042.875,419.2344 Q1043.7656,420.0469 1045.3594,420.0469 Q1046.2969,420.0469 1046.9531,419.7969 Q1047.3438,419.6406 1047.7656,419.2031 Q1048.0313,418.9375 1048.1719,418.8594 Q1048.3281,418.7813 1048.5313,418.7813 Q1048.8594,418.7813 1049.1094,419.0469 Q1049.375,419.2969 1049.375,419.6406 Q1049.375,419.9844 1049.0313,420.3906 Q1048.5313,420.9688 1047.7344,421.2969 Q1046.6563,421.75 1045.3594,421.75 Q1043.8438,421.75 1042.6406,421.125 Q1041.6563,420.625 1040.9688,419.5625 Q1040.2813,418.4844 1040.2813,417.2031 L1040.2813,416.0469 Q1040.2813,414.7188 1040.8906,413.5781 Q1041.5156,412.4219 1042.6094,411.8125 Q1043.7031,411.1875 1044.9375,411.1875 Q1045.6719,411.1875 1046.3125,411.3594 Q1046.9688,411.5156 1047.5156,411.875 Z " fill="#000000"/><text fill="#000000" font-family="sans-serif" font-size="14" lengthAdjust="spacing" textLength="44" x="1065.25" y="421.7285">Tecton</text><line style="stroke:#181818;stroke-width:0.5;" x1="975.5" x2="1166.5" y1="432" y2="432"/><text fill="#000000" font-family="sans-serif" font-size="14" lengthAdjust="spacing" text-decoration="underline" textLength="134" x="980.5" y="450.5332">maxThreads : Integer</text><text fill="#000000" font-family="sans-serif" font-size="14" lengthAdjust="spacing" text-decoration="underline" textLength="116" x="980.5" y="468.1426">maxStems: Integer</text><text fill="#000000" font-family="sans-serif" font-size="14" lengthAdjust="spacing" textLength="150" x="980.5" y="485.752">minNeighbours : Integer</text><text fill="#000000" font-family="sans-serif" font-size="14" lengthAdjust="spacing" textLength="153" x="980.5" y="503.3613">maxNeighbours : Integer</text><text fill="#000000" font-family="sans-serif" font-size="14" lengthAdjust="spacing" textLength="165" x="980.5" y="520.9707">neighbours : List&lt;Tecton&gt;</text><text fill="#000000" font-family="sans-serif" font-size="14" lengthAdjust="spacing" textLength="130" x="980.5" y="538.5801">entities : List&lt;Entity&gt;</text><line style="stroke:#181818;stroke-width:0.5;" x1="975.5" x2="1166.5" y1="545.6563" y2="545.6563"/><text fill="#000000" font-family="sans-serif" font-size="14" lengthAdjust="spacing" textLength="181" x="980.5" y="564.1895">addNeighbour(Tecton) : void</text><text fill="#000000" font-family="sans-serif" font-size="14" lengthAdjust="spacing" textLength="142" x="980.5" y="581.7988">addEntity(Entity) : void</text><text fill="#000000" font-family="sans-serif" font-size="14" lengthAdjust="spacing" textLength="165" x="980.5" y="599.4082">removeEntity(Entity) : void</text></g><!--class Entity--><g id="elem_Entity"><rect codeLine="1" fill="#F1F1F1" height="83.2188" id="Entity" rx="2.5" ry="2.5" style="stroke:#181818;stroke-width:0.5;" width="103" x="1202.5" y="667"/><ellipse cx="1233.7" cy="683" fill="#A9DCDF" rx="11" ry="11" style="stroke:#181818;stroke-width:1.0;"/><path d="M1235.8875,684.7656 L1231.7469,684.7656 L1231.325,685.7969 L1231.7469,685.7969 Q1232.3563,685.7969 1232.6219,686.0313 Q1232.8875,686.2656 1232.8875,686.6563 Q1232.8875,687.0313 1232.6219,687.2656 Q1232.3563,687.5 1231.7469,687.5 L1229.45,687.5 Q1228.8406,687.5 1228.5906,687.2656 Q1228.325,687.0313 1228.325,686.6406 Q1228.325,686.2656 1228.6063,686.0313 Q1228.8719,685.7813 1229.4969,685.7969 L1232.1688,679.1406 L1231.0594,679.1406 Q1230.45,679.1406 1230.1844,678.9063 Q1229.9188,678.6719 1229.9188,678.2813 Q1229.9188,677.9063 1230.1844,677.6719 Q1230.45,677.4375 1231.0594,677.4375 L1234.7313,677.4375 L1238.1219,685.7969 Q1238.7156,685.7969 1238.9031,685.9375 Q1239.2938,686.2031 1239.2938,686.6563 Q1239.2938,687.0313 1239.0281,687.2656 Q1238.7781,687.5 1238.1688,687.5 L1235.8719,687.5 Q1235.2625,687.5 1234.9969,687.2656 Q1234.7313,687.0313 1234.7313,686.6406 Q1234.7313,686.2656 1234.9969,686.0313 Q1235.2625,685.7969 1235.8719,685.7969 L1236.2938,685.7969 L1235.8875,684.7656 Z M1235.1688,683.0625 L1233.8094,679.6875 L1232.4344,683.0625 L1235.1688,683.0625 Z " fill="#000000"/><text fill="#000000" font-family="sans-serif" font-size="14" font-style="italic" lengthAdjust="spacing" textLength="35" x="1251.3" y="688.7285">Entity</text><line style="stroke:#181818;stroke-width:0.5;" x1="1203.5" x2="1304.5" y1="699" y2="699"/><text fill="#000000" font-family="sans-serif" font-size="14" lengthAdjust="spacing" textLength="90" x="1208.5" y="717.5332">owner : Player</text><text fill="#000000" font-family="sans-serif" font-size="14" lengthAdjust="spacing" textLength="91" x="1208.5" y="735.1426">tecton: Tecton</text><line style="stroke:#181818;stroke-width:0.5;" x1="1203.5" x2="1304.5" y1="742.2188" y2="742.2188"/></g><!--class SingleThreadedTecton--><g id="elem_SingleThreadedTecton"><rect codeLine="24" fill="#F1F1F1" height="65.6094" id="SingleThreadedTecton" rx="2.5" ry="2.5" style="stroke:#181818;stroke-width:0.5;" width="177" x="570.5" y="675.5"/><ellipse cx="585.5" cy="691.5" fill="#ADD1B2" rx="11" ry="11" style="stroke:#181818;stroke-width:1.0;"/><path d="M588.2656,687.375 Q588.4219,687.1563 588.6094,687.0469 Q588.7969,686.9375 589.0156,686.9375 Q589.3906,686.9375 589.625,687.2031 Q589.8594,687.4531 589.8594,688.0625 L589.8594,689.5156 Q589.8594,690.125 589.625,690.3906 Q589.3906,690.6563 589.0156,690.6563 Q588.6719,690.6563 588.4688,690.4531 Q588.2656,690.2656 588.1563,689.75 Q588.1094,689.3906 587.9219,689.2031 Q587.5938,688.8281 586.9844,688.6094 Q586.375,688.3906 585.75,688.3906 Q584.9844,688.3906 584.3438,688.7188 Q583.7188,689.0469 583.2188,689.7969 Q582.7344,690.5469 582.7344,691.5781 L582.7344,692.6719 Q582.7344,693.9063 583.625,694.7344 Q584.5156,695.5469 586.1094,695.5469 Q587.0469,695.5469 587.7031,695.2969 Q588.0938,695.1406 588.5156,694.7031 Q588.7813,694.4375 588.9219,694.3594 Q589.0781,694.2813 589.2813,694.2813 Q589.6094,694.2813 589.8594,694.5469 Q590.125,694.7969 590.125,695.1406 Q590.125,695.4844 589.7813,695.8906 Q589.2813,696.4688 588.4844,696.7969 Q587.4063,697.25 586.1094,697.25 Q584.5938,697.25 583.3906,696.625 Q582.4063,696.125 581.7188,695.0625 Q581.0313,693.9844 581.0313,692.7031 L581.0313,691.5469 Q581.0313,690.2188 581.6406,689.0781 Q582.2656,687.9219 583.3594,687.3125 Q584.4531,686.6875 585.6875,686.6875 Q586.4219,686.6875 587.0625,686.8594 Q587.7188,687.0156 588.2656,687.375 Z " fill="#000000"/><text fill="#000000" font-family="sans-serif" font-size="14" lengthAdjust="spacing" textLength="145" x="599.5" y="697.2285">SingleThreadedTecton</text><line style="stroke:#181818;stroke-width:0.5;" x1="571.5" x2="746.5" y1="707.5" y2="707.5"/><text fill="#000000" font-family="sans-serif" font-size="14" lengthAdjust="spacing" text-decoration="underline" textLength="158" x="576.5" y="726.0332">maxThreads = 1 : Integer</text><line style="stroke:#181818;stroke-width:0.5;" x1="571.5" x2="746.5" y1="733.1094" y2="733.1094"/></g><!--class StemlessTecton--><g id="elem_StemlessTecton"><rect codeLine="31" fill="#F1F1F1" height="65.6094" id="StemlessTecton" rx="2.5" ry="2.5" style="stroke:#181818;stroke-width:0.5;" width="156" x="783" y="675.5"/><ellipse cx="808.35" cy="691.5" fill="#ADD1B2" rx="11" ry="11" style="stroke:#181818;stroke-width:1.0;"/><path d="M811.1156,687.375 Q811.2719,687.1563 811.4594,687.0469 Q811.6469,686.9375 811.8656,686.9375 Q812.2406,686.9375 812.475,687.2031 Q812.7094,687.4531 812.7094,688.0625 L812.7094,689.5156 Q812.7094,690.125 812.475,690.3906 Q812.2406,690.6563 811.8656,690.6563 Q811.5219,690.6563 811.3188,690.4531 Q811.1156,690.2656 811.0063,689.75 Q810.9594,689.3906 810.7719,689.2031 Q810.4438,688.8281 809.8344,688.6094 Q809.225,688.3906 808.6,688.3906 Q807.8344,688.3906 807.1938,688.7188 Q806.5688,689.0469 806.0688,689.7969 Q805.5844,690.5469 805.5844,691.5781 L805.5844,692.6719 Q805.5844,693.9063 806.475,694.7344 Q807.3656,695.5469 808.9594,695.5469 Q809.8969,695.5469 810.5531,695.2969 Q810.9438,695.1406 811.3656,694.7031 Q811.6313,694.4375 811.7719,694.3594 Q811.9281,694.2813 812.1313,694.2813 Q812.4594,694.2813 812.7094,694.5469 Q812.975,694.7969 812.975,695.1406 Q812.975,695.4844 812.6313,695.8906 Q812.1313,696.4688 811.3344,696.7969 Q810.2563,697.25 808.9594,697.25 Q807.4438,697.25 806.2406,696.625 Q805.2563,696.125 804.5688,695.0625 Q803.8813,693.9844 803.8813,692.7031 L803.8813,691.5469 Q803.8813,690.2188 804.4906,689.0781 Q805.1156,687.9219 806.2094,687.3125 Q807.3031,686.6875 808.5375,686.6875 Q809.2719,686.6875 809.9125,686.8594 Q810.5688,687.0156 811.1156,687.375 Z " fill="#000000"/><text fill="#000000" font-family="sans-serif" font-size="14" lengthAdjust="spacing" textLength="101" x="824.65" y="697.2285">StemlessTecton</text><line style="stroke:#181818;stroke-width:0.5;" x1="784" x2="938" y1="707.5" y2="707.5"/><text fill="#000000" font-family="sans-serif" font-size="14" lengthAdjust="spacing" text-decoration="underline" textLength="144" x="789" y="726.0332">maxStems = 0 : Integer</text><line style="stroke:#181818;stroke-width:0.5;" x1="784" x2="938" y1="733.1094" y2="733.1094"/></g><!--class ThreadConsumingTecton--><g id="elem_ThreadConsumingTecton"><rect codeLine="38" fill="#F1F1F1" height="48" id="ThreadConsumingTecton" rx="2.5" ry="2.5" style="stroke:#181818;stroke-width:0.5;" width="193" x="974.5" y="684.5"/><ellipse cx="989.5" cy="700.5" fill="#ADD1B2" rx="11" ry="11" style="stroke:#181818;stroke-width:1.0;"/><path d="M992.2656,696.375 Q992.4219,696.1563 992.6094,696.0469 Q992.7969,695.9375 993.0156,695.9375 Q993.3906,695.9375 993.625,696.2031 Q993.8594,696.4531 993.8594,697.0625 L993.8594,698.5156 Q993.8594,699.125 993.625,699.3906 Q993.3906,699.6563 993.0156,699.6563 Q992.6719,699.6563 992.4688,699.4531 Q992.2656,699.2656 992.1563,698.75 Q992.1094,698.3906 991.9219,698.2031 Q991.5938,697.8281 990.9844,697.6094 Q990.375,697.3906 989.75,697.3906 Q988.9844,697.3906 988.3438,697.7188 Q987.7188,698.0469 987.2188,698.7969 Q986.7344,699.5469 986.7344,700.5781 L986.7344,701.6719 Q986.7344,702.9063 987.625,703.7344 Q988.5156,704.5469 990.1094,704.5469 Q991.0469,704.5469 991.7031,704.2969 Q992.0938,704.1406 992.5156,703.7031 Q992.7813,703.4375 992.9219,703.3594 Q993.0781,703.2813 993.2813,703.2813 Q993.6094,703.2813 993.8594,703.5469 Q994.125,703.7969 994.125,704.1406 Q994.125,704.4844 993.7813,704.8906 Q993.2813,705.4688 992.4844,705.7969 Q991.4063,706.25 990.1094,706.25 Q988.5938,706.25 987.3906,705.625 Q986.4063,705.125 985.7188,704.0625 Q985.0313,702.9844 985.0313,701.7031 L985.0313,700.5469 Q985.0313,699.2188 985.6406,698.0781 Q986.2656,696.9219 987.3594,696.3125 Q988.4531,695.6875 989.6875,695.6875 Q990.4219,695.6875 991.0625,695.8594 Q991.7188,696.0156 992.2656,696.375 Z " fill="#000000"/><text fill="#000000" font-family="sans-serif" font-size="14" lengthAdjust="spacing" textLength="161" x="1003.5" y="706.2285">ThreadConsumingTecton</text><line style="stroke:#181818;stroke-width:0.5;" x1="975.5" x2="1166.5" y1="716.5" y2="716.5"/><line style="stroke:#181818;stroke-width:0.5;" x1="975.5" x2="1166.5" y1="724.5" y2="724.5"/></g><!--class Spore--><g id="elem_Spore"><rect codeLine="5" fill="#F1F1F1" height="83.2188" id="Spore" rx="2.5" ry="2.5" style="stroke:#181818;stroke-width:0.5;" width="119" x="630.5" y="828.5"/><ellipse cx="667.55" cy="844.5" fill="#A9DCDF" rx="11" ry="11" style="stroke:#181818;stroke-width:1.0;"/><path d="M669.7375,846.2656 L665.5969,846.2656 L665.175,847.2969 L665.5969,847.2969 Q666.2063,847.2969 666.4719,847.5313 Q666.7375,847.7656 666.7375,848.1563 Q666.7375,848.5313 666.4719,848.7656 Q666.2063,849 665.5969,849 L663.3,849 Q662.6906,849 662.4406,848.7656 Q662.175,848.5313 662.175,848.1406 Q662.175,847.7656 662.4563,847.5313 Q662.7219,847.2813 663.3469,847.2969 L666.0188,840.6406 L664.9094,840.6406 Q664.3,840.6406 664.0344,840.4063 Q663.7688,840.1719 663.7688,839.7813 Q663.7688,839.4063 664.0344,839.1719 Q664.3,838.9375 664.9094,838.9375 L668.5813,838.9375 L671.9719,847.2969 Q672.5656,847.2969 672.7531,847.4375 Q673.1438,847.7031 673.1438,848.1563 Q673.1438,848.5313 672.8781,848.7656 Q672.6281,849 672.0188,849 L669.7219,849 Q669.1125,849 668.8469,848.7656 Q668.5813,848.5313 668.5813,848.1406 Q668.5813,847.7656 668.8469,847.5313 Q669.1125,847.2969 669.7219,847.2969 L670.1438,847.2969 L669.7375,846.2656 Z M669.0188,844.5625 L667.6594,841.1875 L666.2844,844.5625 L669.0188,844.5625 Z " fill="#000000"/><text fill="#000000" font-family="sans-serif" font-size="14" font-style="italic" lengthAdjust="spacing" textLength="38" x="686.45" y="850.2285">Spore</text><line style="stroke:#181818;stroke-width:0.5;" x1="631.5" x2="748.5" y1="860.5" y2="860.5"/><text fill="#000000" font-family="sans-serif" font-size="14" lengthAdjust="spacing" textLength="107" x="636.5" y="879.0332">nutrition : Integer</text><text fill="#000000" font-family="sans-serif" font-size="14" lengthAdjust="spacing" text-decoration="underline" textLength="83" x="636.5" y="896.6426">effect : Effect</text><line style="stroke:#181818;stroke-width:0.5;" x1="631.5" x2="748.5" y1="903.7188" y2="903.7188"/></g><!--class Effect--><g id="elem_Effect"><rect codeLine="2" fill="#F1F1F1" height="83.2188" id="Effect" rx="2.5" ry="2.5" style="stroke:#181818;stroke-width:0.5;" width="187" x="258.5" y="1222"/><ellipse cx="329.75" cy="1238" fill="#A9DCDF" rx="11" ry="11" style="stroke:#181818;stroke-width:1.0;"/><path d="M331.9375,1239.7656 L327.7969,1239.7656 L327.375,1240.7969 L327.7969,1240.7969 Q328.4063,1240.7969 328.6719,1241.0313 Q328.9375,1241.2656 328.9375,1241.6563 Q328.9375,1242.0313 328.6719,1242.2656 Q328.4063,1242.5 327.7969,1242.5 L325.5,1242.5 Q324.8906,1242.5 324.6406,1242.2656 Q324.375,1242.0313 324.375,1241.6406 Q324.375,1241.2656 324.6563,1241.0313 Q324.9219,1240.7813 325.5469,1240.7969 L328.2188,1234.1406 L327.1094,1234.1406 Q326.5,1234.1406 326.2344,1233.9063 Q325.9688,1233.6719 325.9688,1233.2813 Q325.9688,1232.9063 326.2344,1232.6719 Q326.5,1232.4375 327.1094,1232.4375 L330.7813,1232.4375 L334.1719,1240.7969 Q334.7656,1240.7969 334.9531,1240.9375 Q335.3438,1241.2031 335.3438,1241.6563 Q335.3438,1242.0313 335.0781,1242.2656 Q334.8281,1242.5 334.2188,1242.5 L331.9219,1242.5 Q331.3125,1242.5 331.0469,1242.2656 Q330.7813,1242.0313 330.7813,1241.6406 Q330.7813,1241.2656 331.0469,1241.0313 Q331.3125,1240.7969 331.9219,1240.7969 L332.3438,1240.7969 L331.9375,1239.7656 Z M331.2188,1238.0625 L329.8594,1234.6875 L328.4844,1238.0625 L331.2188,1238.0625 Z " fill="#000000"/><text fill="#000000" font-family="sans-serif" font-size="14" font-style="italic" lengthAdjust="spacing" textLength="36" x="350.25" y="1243.7285">Effect</text><line style="stroke:#181818;stroke-width:0.5;" x1="259.5" x2="444.5" y1="1254" y2="1254"/><text fill="#000000" font-family="sans-serif" font-size="14" lengthAdjust="spacing" text-decoration="underline" textLength="108" x="264.5" y="1272.5332">duration : Integer</text><text fill="#000000" font-family="sans-serif" font-size="14" lengthAdjust="spacing" textLength="175" x="264.5" y="1290.1426">durationRemaining : Integer</text><line style="stroke:#181818;stroke-width:0.5;" x1="259.5" x2="444.5" y1="1297.2188" y2="1297.2188"/></g><!--class SlowingSpore--><g id="elem_SlowingSpore"><rect codeLine="11" fill="#F1F1F1" height="48" id="SlowingSpore" rx="2.5" ry="2.5" style="stroke:#181818;stroke-width:0.5;" width="118" x="726" y="1051.5"/><ellipse cx="741" cy="1067.5" fill="#ADD1B2" rx="11" ry="11" style="stroke:#181818;stroke-width:1.0;"/><path d="M743.7656,1063.375 Q743.9219,1063.1563 744.1094,1063.0469 Q744.2969,1062.9375 744.5156,1062.9375 Q744.8906,1062.9375 745.125,1063.2031 Q745.3594,1063.4531 745.3594,1064.0625 L745.3594,1065.5156 Q745.3594,1066.125 745.125,1066.3906 Q744.8906,1066.6563 744.5156,1066.6563 Q744.1719,1066.6563 743.9688,1066.4531 Q743.7656,1066.2656 743.6563,1065.75 Q743.6094,1065.3906 743.4219,1065.2031 Q743.0938,1064.8281 742.4844,1064.6094 Q741.875,1064.3906 741.25,1064.3906 Q740.4844,1064.3906 739.8438,1064.7188 Q739.2188,1065.0469 738.7188,1065.7969 Q738.2344,1066.5469 738.2344,1067.5781 L738.2344,1068.6719 Q738.2344,1069.9063 739.125,1070.7344 Q740.0156,1071.5469 741.6094,1071.5469 Q742.5469,1071.5469 743.2031,1071.2969 Q743.5938,1071.1406 744.0156,1070.7031 Q744.2813,1070.4375 744.4219,1070.3594 Q744.5781,1070.2813 744.7813,1070.2813 Q745.1094,1070.2813 745.3594,1070.5469 Q745.625,1070.7969 745.625,1071.1406 Q745.625,1071.4844 745.2813,1071.8906 Q744.7813,1072.4688 743.9844,1072.7969 Q742.9063,1073.25 741.6094,1073.25 Q740.0938,1073.25 738.8906,1072.625 Q737.9063,1072.125 737.2188,1071.0625 Q736.5313,1069.9844 736.5313,1068.7031 L736.5313,1067.5469 Q736.5313,1066.2188 737.1406,1065.0781 Q737.7656,1063.9219 738.8594,1063.3125 Q739.9531,1062.6875 741.1875,1062.6875 Q741.9219,1062.6875 742.5625,1062.8594 Q743.2188,1063.0156 743.7656,1063.375 Z " fill="#000000"/><text fill="#000000" font-family="sans-serif" font-size="14" lengthAdjust="spacing" textLength="86" x="755" y="1073.2285">SlowingSpore</text><line style="stroke:#181818;stroke-width:0.5;" x1="727" x2="843" y1="1083.5" y2="1083.5"/><line style="stroke:#181818;stroke-width:0.5;" x1="727" x2="843" y1="1091.5" y2="1091.5"/></g><!--class SpeedingSpore--><g id="elem_SpeedingSpore"><rect codeLine="15" fill="#F1F1F1" height="48" id="SpeedingSpore" rx="2.5" ry="2.5" style="stroke:#181818;stroke-width:0.5;" width="130" x="879" y="1051.5"/><ellipse cx="894" cy="1067.5" fill="#ADD1B2" rx="11" ry="11" style="stroke:#181818;stroke-width:1.0;"/><path d="M896.7656,1063.375 Q896.9219,1063.1563 897.1094,1063.0469 Q897.2969,1062.9375 897.5156,1062.9375 Q897.8906,1062.9375 898.125,1063.2031 Q898.3594,1063.4531 898.3594,1064.0625 L898.3594,1065.5156 Q898.3594,1066.125 898.125,1066.3906 Q897.8906,1066.6563 897.5156,1066.6563 Q897.1719,1066.6563 896.9688,1066.4531 Q896.7656,1066.2656 896.6563,1065.75 Q896.6094,1065.3906 896.4219,1065.2031 Q896.0938,1064.8281 895.4844,1064.6094 Q894.875,1064.3906 894.25,1064.3906 Q893.4844,1064.3906 892.8438,1064.7188 Q892.2188,1065.0469 891.7188,1065.7969 Q891.2344,1066.5469 891.2344,1067.5781 L891.2344,1068.6719 Q891.2344,1069.9063 892.125,1070.7344 Q893.0156,1071.5469 894.6094,1071.5469 Q895.5469,1071.5469 896.2031,1071.2969 Q896.5938,1071.1406 897.0156,1070.7031 Q897.2813,1070.4375 897.4219,1070.3594 Q897.5781,1070.2813 897.7813,1070.2813 Q898.1094,1070.2813 898.3594,1070.5469 Q898.625,1070.7969 898.625,1071.1406 Q898.625,1071.4844 898.2813,1071.8906 Q897.7813,1072.4688 896.9844,1072.7969 Q895.9063,1073.25 894.6094,1073.25 Q893.0938,1073.25 891.8906,1072.625 Q890.9063,1072.125 890.2188,1071.0625 Q889.5313,1069.9844 889.5313,1068.7031 L889.5313,1067.5469 Q889.5313,1066.2188 890.1406,1065.0781 Q890.7656,1063.9219 891.8594,1063.3125 Q892.9531,1062.6875 894.1875,1062.6875 Q894.9219,1062.6875 895.5625,1062.8594 Q896.2188,1063.0156 896.7656,1063.375 Z " fill="#000000"/><text fill="#000000" font-family="sans-serif" font-size="14" lengthAdjust="spacing" textLength="98" x="908" y="1073.2285">SpeedingSpore</text><line style="stroke:#181818;stroke-width:0.5;" x1="880" x2="1008" y1="1083.5" y2="1083.5"/><line style="stroke:#181818;stroke-width:0.5;" x1="880" x2="1008" y1="1091.5" y2="1091.5"/></g><!--class ParalysingSpore--><g id="elem_ParalysingSpore"><rect codeLine="19" fill="#F1F1F1" height="48" id="ParalysingSpore" rx="2.5" ry="2.5" style="stroke:#181818;stroke-width:0.5;" width="136" x="1044" y="1051.5"/><ellipse cx="1059" cy="1067.5" fill="#ADD1B2" rx="11" ry="11" style="stroke:#181818;stroke-width:1.0;"/><path d="M1061.7656,1063.375 Q1061.9219,1063.1563 1062.1094,1063.0469 Q1062.2969,1062.9375 1062.5156,1062.9375 Q1062.8906,1062.9375 1063.125,1063.2031 Q1063.3594,1063.4531 1063.3594,1064.0625 L1063.3594,1065.5156 Q1063.3594,1066.125 1063.125,1066.3906 Q1062.8906,1066.6563 1062.5156,1066.6563 Q1062.1719,1066.6563 1061.9688,1066.4531 Q1061.7656,1066.2656 1061.6563,1065.75 Q1061.6094,1065.3906 1061.4219,1065.2031 Q1061.0938,1064.8281 1060.4844,1064.6094 Q1059.875,1064.3906 1059.25,1064.3906 Q1058.4844,1064.3906 1057.8438,1064.7188 Q1057.2188,1065.0469 1056.7188,1065.7969 Q1056.2344,1066.5469 1056.2344,1067.5781 L1056.2344,1068.6719 Q1056.2344,1069.9063 1057.125,1070.7344 Q1058.0156,1071.5469 1059.6094,1071.5469 Q1060.5469,1071.5469 1061.2031,1071.2969 Q1061.5938,1071.1406 1062.0156,1070.7031 Q1062.2813,1070.4375 1062.4219,1070.3594 Q1062.5781,1070.2813 1062.7813,1070.2813 Q1063.1094,1070.2813 1063.3594,1070.5469 Q1063.625,1070.7969 1063.625,1071.1406 Q1063.625,1071.4844 1063.2813,1071.8906 Q1062.7813,1072.4688 1061.9844,1072.7969 Q1060.9063,1073.25 1059.6094,1073.25 Q1058.0938,1073.25 1056.8906,1072.625 Q1055.9063,1072.125 1055.2188,1071.0625 Q1054.5313,1069.9844 1054.5313,1068.7031 L1054.5313,1067.5469 Q1054.5313,1066.2188 1055.1406,1065.0781 Q1055.7656,1063.9219 1056.8594,1063.3125 Q1057.9531,1062.6875 1059.1875,1062.6875 Q1059.9219,1062.6875 1060.5625,1062.8594 Q1061.2188,1063.0156 1061.7656,1063.375 Z " fill="#000000"/><text fill="#000000" font-family="sans-serif" font-size="14" lengthAdjust="spacing" textLength="104" x="1073" y="1073.2285">ParalysingSpore</text><line style="stroke:#181818;stroke-width:0.5;" x1="1045" x2="1179" y1="1083.5" y2="1083.5"/><line style="stroke:#181818;stroke-width:0.5;" x1="1045" x2="1179" y1="1091.5" y2="1091.5"/></g><!--class ClawParalysingSpore--><g id="elem_ClawParalysingSpore"><rect codeLine="23" fill="#F1F1F1" height="48" id="ClawParalysingSpore" rx="2.5" ry="2.5" style="stroke:#181818;stroke-width:0.5;" width="166" x="488" y="1051.5"/><ellipse cx="503" cy="1067.5" fill="#ADD1B2" rx="11" ry="11" style="stroke:#181818;stroke-width:1.0;"/><path d="M505.7656,1063.375 Q505.9219,1063.1563 506.1094,1063.0469 Q506.2969,1062.9375 506.5156,1062.9375 Q506.8906,1062.9375 507.125,1063.2031 Q507.3594,1063.4531 507.3594,1064.0625 L507.3594,1065.5156 Q507.3594,1066.125 507.125,1066.3906 Q506.8906,1066.6563 506.5156,1066.6563 Q506.1719,1066.6563 505.9688,1066.4531 Q505.7656,1066.2656 505.6563,1065.75 Q505.6094,1065.3906 505.4219,1065.2031 Q505.0938,1064.8281 504.4844,1064.6094 Q503.875,1064.3906 503.25,1064.3906 Q502.4844,1064.3906 501.8438,1064.7188 Q501.2188,1065.0469 500.7188,1065.7969 Q500.2344,1066.5469 500.2344,1067.5781 L500.2344,1068.6719 Q500.2344,1069.9063 501.125,1070.7344 Q502.0156,1071.5469 503.6094,1071.5469 Q504.5469,1071.5469 505.2031,1071.2969 Q505.5938,1071.1406 506.0156,1070.7031 Q506.2813,1070.4375 506.4219,1070.3594 Q506.5781,1070.2813 506.7813,1070.2813 Q507.1094,1070.2813 507.3594,1070.5469 Q507.625,1070.7969 507.625,1071.1406 Q507.625,1071.4844 507.2813,1071.8906 Q506.7813,1072.4688 505.9844,1072.7969 Q504.9063,1073.25 503.6094,1073.25 Q502.0938,1073.25 500.8906,1072.625 Q499.9063,1072.125 499.2188,1071.0625 Q498.5313,1069.9844 498.5313,1068.7031 L498.5313,1067.5469 Q498.5313,1066.2188 499.1406,1065.0781 Q499.7656,1063.9219 500.8594,1063.3125 Q501.9531,1062.6875 503.1875,1062.6875 Q503.9219,1062.6875 504.5625,1062.8594 Q505.2188,1063.0156 505.7656,1063.375 Z " fill="#000000"/><text fill="#000000" font-family="sans-serif" font-size="14" lengthAdjust="spacing" textLength="134" x="517" y="1073.2285">ClawParalysingSpore</text><line style="stroke:#181818;stroke-width:0.5;" x1="489" x2="653" y1="1083.5" y2="1083.5"/><line style="stroke:#181818;stroke-width:0.5;" x1="489" x2="653" y1="1091.5" y2="1091.5"/></g><!--class Slow--><g id="elem_Slow"><rect codeLine="8" fill="#F1F1F1" height="48" id="Slow" rx="2.5" ry="2.5" style="stroke:#181818;stroke-width:0.5;" width="61" x="391.5" y="1051.5"/><ellipse cx="406.5" cy="1067.5" fill="#ADD1B2" rx="11" ry="11" style="stroke:#181818;stroke-width:1.0;"/><path d="M409.2656,1063.375 Q409.4219,1063.1563 409.6094,1063.0469 Q409.7969,1062.9375 410.0156,1062.9375 Q410.3906,1062.9375 410.625,1063.2031 Q410.8594,1063.4531 410.8594,1064.0625 L410.8594,1065.5156 Q410.8594,1066.125 410.625,1066.3906 Q410.3906,1066.6563 410.0156,1066.6563 Q409.6719,1066.6563 409.4688,1066.4531 Q409.2656,1066.2656 409.1563,1065.75 Q409.1094,1065.3906 408.9219,1065.2031 Q408.5938,1064.8281 407.9844,1064.6094 Q407.375,1064.3906 406.75,1064.3906 Q405.9844,1064.3906 405.3438,1064.7188 Q404.7188,1065.0469 404.2188,1065.7969 Q403.7344,1066.5469 403.7344,1067.5781 L403.7344,1068.6719 Q403.7344,1069.9063 404.625,1070.7344 Q405.5156,1071.5469 407.1094,1071.5469 Q408.0469,1071.5469 408.7031,1071.2969 Q409.0938,1071.1406 409.5156,1070.7031 Q409.7813,1070.4375 409.9219,1070.3594 Q410.0781,1070.2813 410.2813,1070.2813 Q410.6094,1070.2813 410.8594,1070.5469 Q411.125,1070.7969 411.125,1071.1406 Q411.125,1071.4844 410.7813,1071.8906 Q410.2813,1072.4688 409.4844,1072.7969 Q408.4063,1073.25 407.1094,1073.25 Q405.5938,1073.25 404.3906,1072.625 Q403.4063,1072.125 402.7188,1071.0625 Q402.0313,1069.9844 402.0313,1068.7031 L402.0313,1067.5469 Q402.0313,1066.2188 402.6406,1065.0781 Q403.2656,1063.9219 404.3594,1063.3125 Q405.4531,1062.6875 406.6875,1062.6875 Q407.4219,1062.6875 408.0625,1062.8594 Q408.7188,1063.0156 409.2656,1063.375 Z " fill="#000000"/><text fill="#000000" font-family="sans-serif" font-size="14" lengthAdjust="spacing" textLength="29" x="420.5" y="1073.2285">Slow</text><line style="stroke:#181818;stroke-width:0.5;" x1="392.5" x2="451.5" y1="1083.5" y2="1083.5"/><line style="stroke:#181818;stroke-width:0.5;" x1="392.5" x2="451.5" y1="1091.5" y2="1091.5"/></g><!--class Fast--><g id="elem_Fast"><rect codeLine="12" fill="#F1F1F1" height="48" id="Fast" rx="2.5" ry="2.5" style="stroke:#181818;stroke-width:0.5;" width="60" x="296" y="1051.5"/><ellipse cx="311" cy="1067.5" fill="#ADD1B2" rx="11" ry="11" style="stroke:#181818;stroke-width:1.0;"/><path d="M313.7656,1063.375 Q313.9219,1063.1563 314.1094,1063.0469 Q314.2969,1062.9375 314.5156,1062.9375 Q314.8906,1062.9375 315.125,1063.2031 Q315.3594,1063.4531 315.3594,1064.0625 L315.3594,1065.5156 Q315.3594,1066.125 315.125,1066.3906 Q314.8906,1066.6563 314.5156,1066.6563 Q314.1719,1066.6563 313.9688,1066.4531 Q313.7656,1066.2656 313.6563,1065.75 Q313.6094,1065.3906 313.4219,1065.2031 Q313.0938,1064.8281 312.4844,1064.6094 Q311.875,1064.3906 311.25,1064.3906 Q310.4844,1064.3906 309.8438,1064.7188 Q309.2188,1065.0469 308.7188,1065.7969 Q308.2344,1066.5469 308.2344,1067.5781 L308.2344,1068.6719 Q308.2344,1069.9063 309.125,1070.7344 Q310.0156,1071.5469 311.6094,1071.5469 Q312.5469,1071.5469 313.2031,1071.2969 Q313.5938,1071.1406 314.0156,1070.7031 Q314.2813,1070.4375 314.4219,1070.3594 Q314.5781,1070.2813 314.7813,1070.2813 Q315.1094,1070.2813 315.3594,1070.5469 Q315.625,1070.7969 315.625,1071.1406 Q315.625,1071.4844 315.2813,1071.8906 Q314.7813,1072.4688 313.9844,1072.7969 Q312.9063,1073.25 311.6094,1073.25 Q310.0938,1073.25 308.8906,1072.625 Q307.9063,1072.125 307.2188,1071.0625 Q306.5313,1069.9844 306.5313,1068.7031 L306.5313,1067.5469 Q306.5313,1066.2188 307.1406,1065.0781 Q307.7656,1063.9219 308.8594,1063.3125 Q309.9531,1062.6875 311.1875,1062.6875 Q311.9219,1062.6875 312.5625,1062.8594 Q313.2188,1063.0156 313.7656,1063.375 Z " fill="#000000"/><text fill="#000000" font-family="sans-serif" font-size="14" lengthAdjust="spacing" textLength="28" x="325" y="1073.2285">Fast</text><line style="stroke:#181818;stroke-width:0.5;" x1="297" x2="355" y1="1083.5" y2="1083.5"/><line style="stroke:#181818;stroke-width:0.5;" x1="297" x2="355" y1="1091.5" y2="1091.5"/></g><!--class Paralyse--><g id="elem_Paralyse"><rect codeLine="16" fill="#F1F1F1" height="48" id="Paralyse" rx="2.5" ry="2.5" style="stroke:#181818;stroke-width:0.5;" width="87" x="173.5" y="1051.5"/><ellipse cx="188.5" cy="1067.5" fill="#ADD1B2" rx="11" ry="11" style="stroke:#181818;stroke-width:1.0;"/><path d="M191.2656,1063.375 Q191.4219,1063.1563 191.6094,1063.0469 Q191.7969,1062.9375 192.0156,1062.9375 Q192.3906,1062.9375 192.625,1063.2031 Q192.8594,1063.4531 192.8594,1064.0625 L192.8594,1065.5156 Q192.8594,1066.125 192.625,1066.3906 Q192.3906,1066.6563 192.0156,1066.6563 Q191.6719,1066.6563 191.4688,1066.4531 Q191.2656,1066.2656 191.1563,1065.75 Q191.1094,1065.3906 190.9219,1065.2031 Q190.5938,1064.8281 189.9844,1064.6094 Q189.375,1064.3906 188.75,1064.3906 Q187.9844,1064.3906 187.3438,1064.7188 Q186.7188,1065.0469 186.2188,1065.7969 Q185.7344,1066.5469 185.7344,1067.5781 L185.7344,1068.6719 Q185.7344,1069.9063 186.625,1070.7344 Q187.5156,1071.5469 189.1094,1071.5469 Q190.0469,1071.5469 190.7031,1071.2969 Q191.0938,1071.1406 191.5156,1070.7031 Q191.7813,1070.4375 191.9219,1070.3594 Q192.0781,1070.2813 192.2813,1070.2813 Q192.6094,1070.2813 192.8594,1070.5469 Q193.125,1070.7969 193.125,1071.1406 Q193.125,1071.4844 192.7813,1071.8906 Q192.2813,1072.4688 191.4844,1072.7969 Q190.4063,1073.25 189.1094,1073.25 Q187.5938,1073.25 186.3906,1072.625 Q185.4063,1072.125 184.7188,1071.0625 Q184.0313,1069.9844 184.0313,1068.7031 L184.0313,1067.5469 Q184.0313,1066.2188 184.6406,1065.0781 Q185.2656,1063.9219 186.3594,1063.3125 Q187.4531,1062.6875 188.6875,1062.6875 Q189.4219,1062.6875 190.0625,1062.8594 Q190.7188,1063.0156 191.2656,1063.375 Z " fill="#000000"/><text fill="#000000" font-family="sans-serif" font-size="14" lengthAdjust="spacing" textLength="55" x="202.5" y="1073.2285">Paralyse</text><line style="stroke:#181818;stroke-width:0.5;" x1="174.5" x2="259.5" y1="1083.5" y2="1083.5"/><line style="stroke:#181818;stroke-width:0.5;" x1="174.5" x2="259.5" y1="1091.5" y2="1091.5"/></g><!--class ClawParalyze--><g id="elem_ClawParalyze"><rect fill="#F1F1F1" height="48" id="ClawParalyze" rx="2.5" ry="2.5" style="stroke:#181818;stroke-width:0.5;" width="116" x="22" y="1051.5"/><ellipse cx="37" cy="1067.5" fill="#ADD1B2" rx="11" ry="11" style="stroke:#181818;stroke-width:1.0;"/><path d="M39.7656,1063.375 Q39.9219,1063.1563 40.1094,1063.0469 Q40.2969,1062.9375 40.5156,1062.9375 Q40.8906,1062.9375 41.125,1063.2031 Q41.3594,1063.4531 41.3594,1064.0625 L41.3594,1065.5156 Q41.3594,1066.125 41.125,1066.3906 Q40.8906,1066.6563 40.5156,1066.6563 Q40.1719,1066.6563 39.9688,1066.4531 Q39.7656,1066.2656 39.6563,1065.75 Q39.6094,1065.3906 39.4219,1065.2031 Q39.0938,1064.8281 38.4844,1064.6094 Q37.875,1064.3906 37.25,1064.3906 Q36.4844,1064.3906 35.8438,1064.7188 Q35.2188,1065.0469 34.7188,1065.7969 Q34.2344,1066.5469 34.2344,1067.5781 L34.2344,1068.6719 Q34.2344,1069.9063 35.125,1070.7344 Q36.0156,1071.5469 37.6094,1071.5469 Q38.5469,1071.5469 39.2031,1071.2969 Q39.5938,1071.1406 40.0156,1070.7031 Q40.2813,1070.4375 40.4219,1070.3594 Q40.5781,1070.2813 40.7813,1070.2813 Q41.1094,1070.2813 41.3594,1070.5469 Q41.625,1070.7969 41.625,1071.1406 Q41.625,1071.4844 41.2813,1071.8906 Q40.7813,1072.4688 39.9844,1072.7969 Q38.9063,1073.25 37.6094,1073.25 Q36.0938,1073.25 34.8906,1072.625 Q33.9063,1072.125 33.2188,1071.0625 Q32.5313,1069.9844 32.5313,1068.7031 L32.5313,1067.5469 Q32.5313,1066.2188 33.1406,1065.0781 Q33.7656,1063.9219 34.8594,1063.3125 Q35.9531,1062.6875 37.1875,1062.6875 Q37.9219,1062.6875 38.5625,1062.8594 Q39.2188,1063.0156 39.7656,1063.375 Z " fill="#000000"/><text fill="#000000" font-family="sans-serif" font-size="14" lengthAdjust="spacing" textLength="84" x="51" y="1073.2285">ClawParalyze</text><line style="stroke:#181818;stroke-width:0.5;" x1="23" x2="137" y1="1083.5" y2="1083.5"/><line style="stroke:#181818;stroke-width:0.5;" x1="23" x2="137" y1="1091.5" y2="1091.5"/></g><!--class ClawParalyse--><g id="elem_ClawParalyse"><rect codeLine="20" fill="#F1F1F1" height="48" id="ClawParalyse" rx="2.5" ry="2.5" style="stroke:#181818;stroke-width:0.5;" width="117" x="375.5" y="77"/><ellipse cx="390.5" cy="93" fill="#ADD1B2" rx="11" ry="11" style="stroke:#181818;stroke-width:1.0;"/><path d="M393.2656,88.875 Q393.4219,88.6563 393.6094,88.5469 Q393.7969,88.4375 394.0156,88.4375 Q394.3906,88.4375 394.625,88.7031 Q394.8594,88.9531 394.8594,89.5625 L394.8594,91.0156 Q394.8594,91.625 394.625,91.8906 Q394.3906,92.1563 394.0156,92.1563 Q393.6719,92.1563 393.4688,91.9531 Q393.2656,91.7656 393.1563,91.25 Q393.1094,90.8906 392.9219,90.7031 Q392.5938,90.3281 391.9844,90.1094 Q391.375,89.8906 390.75,89.8906 Q389.9844,89.8906 389.3438,90.2188 Q388.7188,90.5469 388.2188,91.2969 Q387.7344,92.0469 387.7344,93.0781 L387.7344,94.1719 Q387.7344,95.4063 388.625,96.2344 Q389.5156,97.0469 391.1094,97.0469 Q392.0469,97.0469 392.7031,96.7969 Q393.0938,96.6406 393.5156,96.2031 Q393.7813,95.9375 393.9219,95.8594 Q394.0781,95.7813 394.2813,95.7813 Q394.6094,95.7813 394.8594,96.0469 Q395.125,96.2969 395.125,96.6406 Q395.125,96.9844 394.7813,97.3906 Q394.2813,97.9688 393.4844,98.2969 Q392.4063,98.75 391.1094,98.75 Q389.5938,98.75 388.3906,98.125 Q387.4063,97.625 386.7188,96.5625 Q386.0313,95.4844 386.0313,94.2031 L386.0313,93.0469 Q386.0313,91.7188 386.6406,90.5781 Q387.2656,89.4219 388.3594,88.8125 Q389.4531,88.1875 390.6875,88.1875 Q391.4219,88.1875 392.0625,88.3594 Q392.7188,88.5156 393.2656,88.875 Z " fill="#000000"/><text fill="#000000" font-family="sans-serif" font-size="14" lengthAdjust="spacing" textLength="85" x="404.5" y="98.7285">ClawParalyse</text><line style="stroke:#181818;stroke-width:0.5;" x1="376.5" x2="491.5" y1="109" y2="109"/><line style="stroke:#181818;stroke-width:0.5;" x1="376.5" x2="491.5" y1="117" y2="117"/></g><!--reverse link IOnTurn to Player--><g id="link_IOnTurn_Player"><path codeLine="1" d="M1267.042,145.4595 C1302.782,174.7495 1341.88,206.79 1380.54,238.47 " fill="none" id="IOnTurn-backto-Player" style="stroke:#181818;stroke-width:1.0;stroke-dasharray:7.0,7.0;"/><polygon fill="none" points="1253.12,134.05,1263.2389,150.1002,1270.8452,140.8188,1253.12,134.05" style="stroke:#181818;stroke-width:1.0;"/></g><!--reverse link Player to Mushroomer--><g id="link_Player_Mushroomer"><path codeLine="7" d="M1465.7693,336.674 C1486.1093,368.334 1505.08,397.85 1528.84,434.82 " fill="none" id="Player-backto-Mushroomer" style="stroke:#181818;stroke-width:1.0;"/><polygon fill="none" points="1456.04,321.53,1460.7213,339.9171,1470.8173,333.4309,1456.04,321.53" style="stroke:#181818;stroke-width:1.0;"/></g><!--reverse link Mushroomer to MushroomStem--><g id="link_Mushroomer_MushroomStem"><path codeLine="8" d="M1533.249,581.855 C1503.439,643.255 1465.25,726.36 1435,811 C1414.01,869.72 1395.59,937.65 1382.63,989.82 " fill="none" id="Mushroomer-backto-MushroomStem" style="stroke:#181818;stroke-width:1.0;"/><polygon fill="none" points="1538.49,571.06,1532.2712,574.7105,1533.249,581.855,1539.4678,578.2045,1538.49,571.06" style="stroke:#181818;stroke-width:1.0;"/><text fill="#000000" font-family="sans-serif" font-size="13" lengthAdjust="spacing" textLength="20" x="1363.4576" y="979.2682">1..*</text></g><!--reverse link Mushroomer to MushroomThread--><g id="link_Mushroomer_MushroomThread"><path codeLine="9" d="M1636.7724,580.597 C1683.0124,639.467 1737.05,720.16 1763,811 C1777.41,861.43 1780.42,879.53 1763,929 C1747.17,973.94 1710.94,1015.25 1682.96,1042.27 " fill="none" id="Mushroomer-backto-MushroomThread" style="stroke:#181818;stroke-width:1.0;"/><polygon fill="none" points="1629.36,571.16,1629.9205,578.3493,1636.7724,580.597,1636.2118,573.4077,1629.36,571.16" style="stroke:#181818;stroke-width:1.0;"/><text fill="#000000" font-family="sans-serif" font-size="13" lengthAdjust="spacing" textLength="20" x="1668.2678" y="1031.721">0..*</text></g><!--link Mushroomer to Colony--><g id="link_Mushroomer_Colony"><path codeLine="10" d="M1576.98,571.37 C1582.55,646.66 1591.39,766.13 1595.99,828.33 " fill="none" id="Mushroomer-Colony" style="stroke:#181818;stroke-width:1.0;"/><text fill="#000000" font-family="sans-serif" font-size="13" lengthAdjust="spacing" textLength="20" x="1573.8352" y="817.6095">1..*</text></g><!--link Insecter to Player--><g id="link_Insecter_Player"><path codeLine="19" d="M1429.33,160.45 C1429.47,185.92 1429.5386,197.1703 1429.6686,220.2403 " fill="none" id="Insecter-to-Player" style="stroke:#181818;stroke-width:1.0;"/><polygon fill="none" points="1429.77,238.24,1435.6685,220.2065,1423.6687,220.2741,1429.77,238.24" style="stroke:#181818;stroke-width:1.0;"/></g><!--reverse link Insecter to Insect--><g id="link_Insecter_Insect"><path codeLine="20" d="M1377.2414,170.4809 C1356.1014,203.4409 1342,236.37 1342,279 C1342,279 1342,279 1342,709.5 C1342,746.57 1322.83,782.52 1301.71,810.87 " fill="none" id="Insecter-backto-Insect" style="stroke:#181818;stroke-width:1.0;"/><polygon fill="none" points="1383.72,160.38,1377.1138,163.2709,1377.2414,170.4809,1383.8477,167.59,1383.72,160.38" style="stroke:#181818;stroke-width:1.0;"/></g><!--reverse link IOnTurn to Map--><g id="link_IOnTurn_Map"><path codeLine="1" d="M1177.2533,148.1278 C1158.0433,172.2378 1142.42,191.86 1119.44,220.7 " fill="none" id="IOnTurn-backto-Map" style="stroke:#181818;stroke-width:1.0;stroke-dasharray:7.0,7.0;"/><polygon fill="none" points="1188.47,134.05,1172.5607,144.3889,1181.9459,151.8667,1188.47,134.05" style="stroke:#181818;stroke-width:1.0;"/></g><!--reverse link IOnRound to Map--><g id="link_IOnRound_Map"><path codeLine="2" d="M973.3665,148.3619 C991.7565,172.4719 1006.54,191.86 1028.53,220.7 " fill="none" id="IOnRound-backto-Map" style="stroke:#181818;stroke-width:1.0;stroke-dasharray:7.0,7.0;"/><polygon fill="none" points="962.45,134.05,968.5958,152.0007,978.1371,144.7231,962.45,134.05" style="stroke:#181818;stroke-width:1.0;"/></g><!--reverse link Map to Tecton--><g id="link_Map_Tecton"><path codeLine="3" d="M1072.3672,351.0696 C1072.2072,369.7396 1072.11,379.01 1071.92,399.88 " fill="none" id="Map-backto-Tecton" style="stroke:#181818;stroke-width:1.0;"/><polygon fill="#181818" points="1072.47,339.07,1068.4187,345.0355,1072.3672,351.0696,1076.4184,345.1041,1072.47,339.07" style="stroke:#181818;stroke-width:1.0;"/><text fill="#000000" font-family="sans-serif" font-size="13" lengthAdjust="spacing" textLength="7" x="1064.9788" y="360.734">1</text><text fill="#000000" font-family="sans-serif" font-size="13" lengthAdjust="spacing" textLength="20" x="1051.2532" y="389.2099">0..*</text></g><!--reverse link IOnTurn to Tecton--><g id="link_IOnTurn_Tecton"><path codeLine="1" d="M1216.6175,152.258 C1218.3275,199.038 1216.55,269.68 1190,339 C1181.98,359.94 1170.53,380.6 1157.87,399.81 " fill="none" id="IOnTurn-backto-Tecton" style="stroke:#181818;stroke-width:1.0;stroke-dasharray:7.0,7.0;"/><polygon fill="none" points="1215.96,134.27,1210.6215,152.4772,1222.6135,152.0388,1215.96,134.27" style="stroke:#181818;stroke-width:1.0;"/></g><!--reverse link IOnRound to Tecton--><g id="link_IOnRound_Tecton"><path codeLine="2" d="M934.3276,152.1304 C931.6476,198.7804 931.93,269.28 957,339 C964.48,359.8 975.34,380.38 987.43,399.56 " fill="none" id="IOnRound-backto-Tecton" style="stroke:#181818;stroke-width:1.0;stroke-dasharray:7.0,7.0;"/><polygon fill="none" points="935.36,134.16,928.3375,151.7862,940.3177,152.4745,935.36,134.16" style="stroke:#181818;stroke-width:1.0;"/></g><!--link Tecton to Tecton--><g id="link_Tecton_Tecton"><path codeLine="3" d="M1167.62,479.08 C1187.89,481.56 1202.5,489.53 1202.5,503 C1202.5,516.47 1187.89,524.44 1167.62,526.92 " fill="none" id="Tecton-Tecton" style="stroke:#181818;stroke-width:1.0;"/><text fill="#000000" font-family="sans-serif" font-size="13" lengthAdjust="spacing" textLength="56" x="1208.5" y="508.4951">neighbour</text><text fill="#000000" font-family="sans-serif" font-size="13" lengthAdjust="spacing" textLength="29" x="1175.4331" y="474.3261">2..12</text></g><!--reverse link Tecton to Entity--><g id="link_Tecton_Entity"><path codeLine="4" d="M1170.7935,614.9732 C1190.2335,636.5932 1201.63,649.27 1217.53,666.95 " fill="none" id="Tecton-backto-Entity" style="stroke:#181818;stroke-width:1.0;"/><polygon fill="#181818" points="1162.77,606.05,1163.8073,613.1861,1170.7935,614.9732,1169.7561,607.8371,1162.77,606.05" style="stroke:#181818;stroke-width:1.0;"/><text fill="#000000" font-family="sans-serif" font-size="13" lengthAdjust="spacing" textLength="20" x="1189.8334" y="656.2494">0..*</text></g><!--reverse link Tecton to SingleThreadedTecton--><g id="link_Tecton_SingleThreadedTecton"><path codeLine="23" d="M958.2612,559.6811 C881.0812,597.8011 791.18,642.21 723.86,675.46 " fill="none" id="Tecton-backto-SingleThreadedTecton" style="stroke:#181818;stroke-width:1.0;"/><polygon fill="none" points="974.4,551.71,955.6041,554.3015,960.9182,565.0607,974.4,551.71" style="stroke:#181818;stroke-width:1.0;"/></g><!--reverse link Tecton to StemlessTecton--><g id="link_Tecton_StemlessTecton"><path codeLine="30" d="M961.3728,610.2355 C932.7328,637.9855 916.2,654.01 894.5,675.04 " fill="none" id="Tecton-backto-StemlessTecton" style="stroke:#181818;stroke-width:1.0;"/><polygon fill="none" points="974.3,597.71,957.1976,605.9264,965.548,614.5445,974.3,597.71" style="stroke:#181818;stroke-width:1.0;"/></g><!--reverse link Tecton to ThreadConsumingTecton--><g id="link_Tecton_ThreadConsumingTecton"><path codeLine="37" d="M1071,624.05 C1071,653.4 1071,664.72 1071,684.24 " fill="none" id="Tecton-backto-ThreadConsumingTecton" style="stroke:#181818;stroke-width:1.0;"/><polygon fill="none" points="1071,606.05,1065,624.05,1077,624.05,1071,606.05" style="stroke:#181818;stroke-width:1.0;"/></g><!--reverse link Entity to Spore--><g id="link_Entity_Spore"><path codeLine="2" d="M1186.4557,750.1579 C1180.6857,753.1279 1190.8,747.66 1185,750 C1164.61,758.22 876.81,825.57 749.66,855.15 " fill="none" id="Entity-backto-Spore" style="stroke:#181818;stroke-width:1.0;"/><polygon fill="none" points="1202.46,741.92,1183.7098,744.8231,1189.2017,755.4927,1202.46,741.92" style="stroke:#181818;stroke-width:1.0;"/></g><!--link Spore to Effect--><g id="link_Spore_Effect"><path codeLine="3" d="M692.92,911.63 C697.13,982.15 701.45,1123.27 672,1161 C618.74,1229.22 519.59,1252.45 445.72,1259.93 " fill="none" id="Spore-Effect" style="stroke:#181818;stroke-width:1.0;"/></g><!--reverse link Spore to SlowingSpore--><g id="link_Spore_SlowingSpore"><path codeLine="10" d="M716.6122,928.0012 C736.1522,969.8712 758.31,1017.33 774.17,1051.3 " fill="none" id="Spore-backto-SlowingSpore" style="stroke:#181818;stroke-width:1.0;"/><polygon fill="none" points="709,911.69,711.1751,930.5386,722.0492,925.4638,709,911.69" style="stroke:#181818;stroke-width:1.0;"/></g><!--reverse link Spore to SpeedingSpore--><g id="link_Spore_SpeedingSpore"><path codeLine="14" d="M725.3467,926.1854 C737.6467,943.2954 743.35,947.49 762,960 C800.53,985.86 822.34,965.91 862,990 C888.21,1005.92 911.85,1032.2 926.95,1051.22 " fill="none" id="Spore-backto-SpeedingSpore" style="stroke:#181818;stroke-width:1.0;"/><polygon fill="none" points="714.84,911.57,720.4749,929.6876,730.2185,922.6832,714.84,911.57" style="stroke:#181818;stroke-width:1.0;"/></g><!--reverse link Spore to ParalysingSpore--><g id="link_Spore_ParalysingSpore"><path codeLine="18" d="M731.0794,925.5119 C746.1994,943.3219 754.52,948.92 777,960 C877.37,1009.49 926.28,941.23 1027,990 C1055.65,1003.87 1080.42,1031.35 1095.71,1051.21 " fill="none" id="Spore-backto-ParalysingSpore" style="stroke:#181818;stroke-width:1.0;"/><polygon fill="none" points="719.43,911.79,726.5054,929.3951,735.6534,921.6288,719.43,911.79" style="stroke:#181818;stroke-width:1.0;"/></g><!--reverse link Spore to ClawParalysingSpore--><g id="link_Spore_ClawParalysingSpore"><path codeLine="22" d="M657.1149,927.229 C632.6349,969.099 604.43,1017.33 584.57,1051.3 " fill="none" id="Spore-backto-ClawParalysingSpore" style="stroke:#181818;stroke-width:1.0;"/><polygon fill="none" points="666.2,911.69,651.9352,924.2006,662.2945,930.2574,666.2,911.69" style="stroke:#181818;stroke-width:1.0;"/></g><!--reverse link Entity to MushroomThread--><g id="link_Entity_MushroomThread"><path codeLine="2" d="M1187.3314,748.4611 C1161.7114,765.8311 1148.18,780.43 1134,811 C1111.93,858.57 1100.17,888.92 1134,929 C1238.1,1052.34 1339.58,936.89 1492,990 C1529.15,1002.95 1567.96,1024.3 1597.33,1042.3 " fill="none" id="Entity-backto-MushroomThread" style="stroke:#181818;stroke-width:1.0;"/><polygon fill="none" points="1202.23,738.36,1183.9644,743.4948,1190.6984,753.4273,1202.23,738.36" style="stroke:#181818;stroke-width:1.0;"/></g><!--reverse link IOnTurn to MushroomStem--><g id="link_IOnTurn_MushroomStem"><path codeLine="2" d="M1239.6633,150.0152 C1282.0233,231.3652 1379,437.57 1379,636 C1379,636 1379,636 1379,871 C1379,910.16 1376.02,953.43 1372.63,989.96 " fill="none" id="IOnTurn-backto-MushroomStem" style="stroke:#181818;stroke-width:1.0;stroke-dasharray:7.0,7.0;"/><polygon fill="none" points="1231.35,134.05,1234.3416,152.7863,1244.9851,147.2441,1231.35,134.05" style="stroke:#181818;stroke-width:1.0;"/></g><!--reverse link IOnRound to MushroomStem--><g id="link_IOnRound_MushroomStem"><path codeLine="3" d="M860.8281,102.5003 C748.6181,105.8703 534,130.25 534,279 C534,279 534,279 534,637 C534,687.93 519.04,712.05 553,750 C618.94,823.71 673.62,778.42 767,811 C962.84,879.32 1009.76,902.88 1198,990 C1215.52,998.11 1233.9,1007.06 1251.76,1016.01 " fill="none" id="IOnRound-backto-MushroomStem" style="stroke:#181818;stroke-width:1.0;stroke-dasharray:7.0,7.0;"/><polygon fill="none" points="878.82,101.96,860.648,96.5031,861.0082,108.4976,878.82,101.96" style="stroke:#181818;stroke-width:1.0;"/></g><!--reverse link Entity to MushroomStem--><g id="link_Entity_MushroomStem"><path codeLine="4" d="M1186.3342,749.811 C1180.6242,752.931 1190.64,747.3 1185,750 C1151.13,766.23 1127.33,749.09 1106,780 C1068.39,834.51 1072.65,871.79 1106,929 C1114.76,944.03 1186.5,984.04 1251.96,1018.3 " fill="none" id="Entity-backto-MushroomStem" style="stroke:#181818;stroke-width:1.0;"/><polygon fill="none" points="1202.13,741.18,1183.4572,744.5457,1189.2112,755.0762,1202.13,741.18" style="stroke:#181818;stroke-width:1.0;"/></g><!--reverse link Entity to Insect--><g id="link_Entity_Insect"><path codeLine="2" d="M1251.4309,768.1427 C1250.6209,786.6027 1250.43,790.79 1249.55,810.96 " fill="none" id="Entity-backto-Insect" style="stroke:#181818;stroke-width:1.0;"/><polygon fill="none" points="1252.22,750.16,1245.4367,767.8797,1257.4252,768.4057,1252.22,750.16" style="stroke:#181818;stroke-width:1.0;"/></g><!--reverse link Insect to Effect--><g id="link_Insect_Effect"><path codeLine="3" d="M1239.558,941.2358 C1230.618,1021.2758 1214.56,1145.21 1198,1161 C1144.26,1212.22 654.57,1245.53 445.7,1257.52 " fill="none" id="Insect-backto-Effect" style="stroke:#181818;stroke-width:1.0;"/><polygon fill="#181818" points="1240.89,929.31,1236.2487,934.8289,1239.558,941.2358,1244.1993,935.7169,1240.89,929.31" style="stroke:#181818;stroke-width:1.0;"/></g><!--reverse link Colony to MushroomStem--><g id="link_Colony_MushroomStem"><path codeLine="3" d="M1542.7229,919.5274 C1516.7629,941.9174 1492.63,962.72 1461.32,989.72 " fill="none" id="Colony-backto-MushroomStem" style="stroke:#181818;stroke-width:1.0;"/><polygon fill="none" points="1551.81,911.69,1544.654,912.5797,1542.7229,919.5274,1549.8789,918.6377,1551.81,911.69" style="stroke:#181818;stroke-width:1.0;"/><text fill="#000000" font-family="sans-serif" font-size="13" lengthAdjust="spacing" textLength="20" x="1448.91" y="979.1596">1..*</text></g><!--reverse link Colony to MushroomThread--><g id="link_Colony_MushroomThread"><path codeLine="4" d="M1611.1014,923.382 C1619.9714,961.772 1630.38,1006.88 1638.55,1042.24 " fill="none" id="Colony-backto-MushroomThread" style="stroke:#181818;stroke-width:1.0;"/><polygon fill="none" points="1608.4,911.69,1605.8534,918.4365,1611.1014,923.382,1613.648,916.6355,1608.4,911.69" style="stroke:#181818;stroke-width:1.0;"/><text fill="#000000" font-family="sans-serif" font-size="13" lengthAdjust="spacing" textLength="20" x="1615.1145" y="1031.6851">0..*</text></g><!--link Slow to Effect--><g id="link_Slow_Effect"><path codeLine="7" d="M413.28,1099.68 C401.8,1130.16 387.799,1167.3731 373.719,1204.7931 " fill="none" id="Slow-to-Effect" style="stroke:#181818;stroke-width:1.0;"/><polygon fill="none" points="367.38,1221.64,379.3346,1206.9061,368.1033,1202.6801,367.38,1221.64" style="stroke:#181818;stroke-width:1.0;"/></g><!--link Fast to Effect--><g id="link_Fast_Effect"><path codeLine="11" d="M329.24,1099.68 C333.5,1130.16 338.5685,1166.3933 343.7985,1203.8133 " fill="none" id="Fast-to-Effect" style="stroke:#181818;stroke-width:1.0;"/><polygon fill="none" points="346.29,1221.64,349.7407,1202.9828,337.8562,1204.6438,346.29,1221.64" style="stroke:#181818;stroke-width:1.0;"/></g><!--link Paralyse to Effect--><g id="link_Paralyse_Effect"><path codeLine="15" d="M233.82,1099.68 C255.95,1130.16 284.6168,1169.6527 311.7768,1207.0727 " fill="none" id="Paralyse-to-Effect" style="stroke:#181818;stroke-width:1.0;"/><polygon fill="none" points="322.35,1221.64,316.6326,1203.5483,306.921,1210.5971,322.35,1221.64" style="stroke:#181818;stroke-width:1.0;"/></g><!--link ClawParalyze to Effect--><g id="link_ClawParalyze_Effect"><path codeLine="19" d="M97.12,1099.76 C111.4,1118.03 133.05,1143.26 156,1161 C186.92,1184.9 208.1596,1197.9428 241.9596,1214.5228 " fill="none" id="ClawParalyze-to-Effect" style="stroke:#181818;stroke-width:1.0;"/><polygon fill="none" points="258.12,1222.45,244.602,1209.136,239.3172,1219.9096,258.12,1222.45" style="stroke:#181818;stroke-width:1.0;"/></g><!--SRC=[VSxD3SCm20NWUwTm5-WowGB8mObLyoCCXoZgxisfKYLKZdmFz1Jg2pOiBNWJwq7dhLnpxrn7h5Xqm87sqA3n2mIQR1sh2oU0xDsF1AQAOVO_vcuYzDmDOVqJM1mfuSxpwf90bI6SDS7MlXVl3m00]--></g></svg>