<?xml version="1.0" encoding="us-ascii" standalone="no"?><svg xmlns="http://www.w3.org/2000/svg" xmlns:xlink="http://www.w3.org/1999/xlink" contentStyleType="text/css" height="1167px" preserveAspectRatio="none" style="width:1488px;height:1167px;background:#FFFFFF;" version="1.1" viewBox="0 0 1488 1167" width="1488px" zoomAndPan="magnify"><defs/><g><!--cluster fungorium--><g id="cluster_fungorium"><path d="M8.5,6 L81.5,6 A3.75,3.75 0 0 1 84,8.5 L91,29.6094 L1478.5,29.6094 A2.5,2.5 0 0 1 1481,32.1094 L1481,1157.5 A2.5,2.5 0 0 1 1478.5,1160 L8.5,1160 A2.5,2.5 0 0 1 6,1157.5 L6,8.5 A2.5,2.5 0 0 1 8.5,6 " fill="none" style="stroke:#000000;stroke-width:1.5;"/><line style="stroke:#000000;stroke-width:1.5;" x1="6" x2="91" y1="29.6094" y2="29.6094"/><text fill="#000000" font-family="sans-serif" font-size="14" font-weight="bold" lengthAdjust="spacing" textLength="72" x="10" y="22.5332">fungorium</text></g><!--class IOnTurn--><g id="elem_IOnTurn"><rect codeLine="6" fill="#F1F1F1" height="65.6094" id="IOnTurn" rx="2.5" ry="2.5" style="stroke:#181818;stroke-width:0.5;" width="106" x="1097" y="68"/><ellipse cx="1121.45" cy="84" fill="#B4A7E5" rx="11" ry="11" style="stroke:#181818;stroke-width:1.0;"/><path d="M1122.4031,80.6406 L1122.4031,87.2969 L1124.1219,87.2969 Q1124.7313,87.2969 1124.9969,87.5313 Q1125.2625,87.7656 1125.2625,88.1563 Q1125.2625,88.5313 1124.9969,88.7656 Q1124.7313,89 1124.1219,89 L1118.9813,89 Q1118.3719,89 1118.1063,88.7656 Q1117.8406,88.5313 1117.8406,88.1406 Q1117.8406,87.7656 1118.1063,87.5313 Q1118.3719,87.2969 1118.9813,87.2969 L1120.7,87.2969 L1120.7,80.6406 L1118.9813,80.6406 Q1118.3719,80.6406 1118.1063,80.4063 Q1117.8406,80.1719 1117.8406,79.7813 Q1117.8406,79.4063 1118.1063,79.1719 Q1118.3719,78.9375 1118.9813,78.9375 L1124.1219,78.9375 Q1124.7313,78.9375 1124.9969,79.1719 Q1125.2625,79.4063 1125.2625,79.7813 Q1125.2625,80.1719 1124.9969,80.4063 Q1124.7313,80.6406 1124.1219,80.6406 L1122.4031,80.6406 Z " fill="#000000"/><text fill="#000000" font-family="sans-serif" font-size="14" font-style="italic" lengthAdjust="spacing" textLength="53" x="1137.55" y="89.7285">IOnTurn</text><line style="stroke:#181818;stroke-width:0.5;" x1="1098" x2="1202" y1="100" y2="100"/><line style="stroke:#181818;stroke-width:0.5;" x1="1098" x2="1202" y1="108" y2="108"/><text fill="#000000" font-family="sans-serif" font-size="14" lengthAdjust="spacing" textLength="94" x="1103" y="126.5332">onTurn() : void</text></g><!--class Player--><g id="elem_Player"><rect codeLine="2" fill="#F1F1F1" height="83.2188" id="Player" rx="2.5" ry="2.5" style="stroke:#181818;stroke-width:0.5;" width="103" x="1098.5" y="230"/><ellipse cx="1127.45" cy="246" fill="#A9DCDF" rx="11" ry="11" style="stroke:#181818;stroke-width:1.0;"/><path d="M1129.6375,247.7656 L1125.4969,247.7656 L1125.075,248.7969 L1125.4969,248.7969 Q1126.1063,248.7969 1126.3719,249.0313 Q1126.6375,249.2656 1126.6375,249.6563 Q1126.6375,250.0313 1126.3719,250.2656 Q1126.1063,250.5 1125.4969,250.5 L1123.2,250.5 Q1122.5906,250.5 1122.3406,250.2656 Q1122.075,250.0313 1122.075,249.6406 Q1122.075,249.2656 1122.3563,249.0313 Q1122.6219,248.7813 1123.2469,248.7969 L1125.9188,242.1406 L1124.8094,242.1406 Q1124.2,242.1406 1123.9344,241.9063 Q1123.6688,241.6719 1123.6688,241.2813 Q1123.6688,240.9063 1123.9344,240.6719 Q1124.2,240.4375 1124.8094,240.4375 L1128.4813,240.4375 L1131.8719,248.7969 Q1132.4656,248.7969 1132.6531,248.9375 Q1133.0438,249.2031 1133.0438,249.6563 Q1133.0438,250.0313 1132.7781,250.2656 Q1132.5281,250.5 1131.9188,250.5 L1129.6219,250.5 Q1129.0125,250.5 1128.7469,250.2656 Q1128.4813,250.0313 1128.4813,249.6406 Q1128.4813,249.2656 1128.7469,249.0313 Q1129.0125,248.7969 1129.6219,248.7969 L1130.0438,248.7969 L1129.6375,247.7656 Z M1128.9188,246.0625 L1127.5594,242.6875 L1126.1844,246.0625 L1128.9188,246.0625 Z " fill="#000000"/><text fill="#000000" font-family="sans-serif" font-size="14" font-style="italic" lengthAdjust="spacing" textLength="40" x="1144.55" y="251.7285">Player</text><line style="stroke:#181818;stroke-width:0.5;" x1="1099.5" x2="1200.5" y1="262" y2="262"/><text fill="#000000" font-family="sans-serif" font-size="14" lengthAdjust="spacing" textLength="91" x="1104.5" y="280.5332">score : Integer</text><text fill="#000000" font-family="sans-serif" font-size="14" lengthAdjust="spacing" textLength="67" x="1104.5" y="298.1426">id : Integer</text><line style="stroke:#181818;stroke-width:0.5;" x1="1099.5" x2="1200.5" y1="305.2188" y2="305.2188"/></g><!--class Mushroomer--><g id="elem_Mushroomer"><rect codeLine="11" fill="#F1F1F1" height="136.0469" id="Mushroomer" rx="2.5" ry="2.5" style="stroke:#181818;stroke-width:0.5;" width="293" x="1097.5" y="418"/><ellipse cx="1200.25" cy="434" fill="#ADD1B2" rx="11" ry="11" style="stroke:#181818;stroke-width:1.0;"/><path d="M1203.0156,429.875 Q1203.1719,429.6563 1203.3594,429.5469 Q1203.5469,429.4375 1203.7656,429.4375 Q1204.1406,429.4375 1204.375,429.7031 Q1204.6094,429.9531 1204.6094,430.5625 L1204.6094,432.0156 Q1204.6094,432.625 1204.375,432.8906 Q1204.1406,433.1563 1203.7656,433.1563 Q1203.4219,433.1563 1203.2188,432.9531 Q1203.0156,432.7656 1202.9063,432.25 Q1202.8594,431.8906 1202.6719,431.7031 Q1202.3438,431.3281 1201.7344,431.1094 Q1201.125,430.8906 1200.5,430.8906 Q1199.7344,430.8906 1199.0938,431.2188 Q1198.4688,431.5469 1197.9688,432.2969 Q1197.4844,433.0469 1197.4844,434.0781 L1197.4844,435.1719 Q1197.4844,436.4063 1198.375,437.2344 Q1199.2656,438.0469 1200.8594,438.0469 Q1201.7969,438.0469 1202.4531,437.7969 Q1202.8438,437.6406 1203.2656,437.2031 Q1203.5313,436.9375 1203.6719,436.8594 Q1203.8281,436.7813 1204.0313,436.7813 Q1204.3594,436.7813 1204.6094,437.0469 Q1204.875,437.2969 1204.875,437.6406 Q1204.875,437.9844 1204.5313,438.3906 Q1204.0313,438.9688 1203.2344,439.2969 Q1202.1563,439.75 1200.8594,439.75 Q1199.3438,439.75 1198.1406,439.125 Q1197.1563,438.625 1196.4688,437.5625 Q1195.7813,436.4844 1195.7813,435.2031 L1195.7813,434.0469 Q1195.7813,432.7188 1196.3906,431.5781 Q1197.0156,430.4219 1198.1094,429.8125 Q1199.2031,429.1875 1200.4375,429.1875 Q1201.1719,429.1875 1201.8125,429.3594 Q1202.4688,429.5156 1203.0156,429.875 Z " fill="#000000"/><text fill="#000000" font-family="sans-serif" font-size="14" lengthAdjust="spacing" textLength="79" x="1220.75" y="439.7285">Mushroomer</text><line style="stroke:#181818;stroke-width:0.5;" x1="1098.5" x2="1389.5" y1="450" y2="450"/><text fill="#000000" font-family="sans-serif" font-size="14" lengthAdjust="spacing" textLength="253" x="1103.5" y="468.5332">mushroomStems : List&lt;MushroomStem&gt;</text><text fill="#000000" font-family="sans-serif" font-size="14" lengthAdjust="spacing" textLength="281" x="1103.5" y="486.1426">mushroomThreads : List&lt;MushroomThread&gt;</text><line style="stroke:#181818;stroke-width:0.5;" x1="1098.5" x2="1389.5" y1="493.2188" y2="493.2188"/><text fill="#000000" font-family="sans-serif" font-size="14" lengthAdjust="spacing" textLength="179" x="1103.5" y="511.752">getColonies() : List&lt;Colony&gt;</text><text fill="#000000" font-family="sans-serif" font-size="14" lengthAdjust="spacing" textLength="155" x="1103.5" y="529.3613">plantStem(Tecton) : void</text><text fill="#000000" font-family="sans-serif" font-size="14" lengthAdjust="spacing" textLength="210" x="1103.5" y="546.9707">throwSpore(Tecton, Spore) : void</text></g><!--class MushroomStem--><g id="elem_MushroomStem"><rect codeLine="5" fill="#F1F1F1" height="171.2656" id="MushroomStem" rx="2.5" ry="2.5" style="stroke:#181818;stroke-width:0.5;" width="222" x="1243" y="973"/><ellipse cx="1300.75" cy="989" fill="#ADD1B2" rx="11" ry="11" style="stroke:#181818;stroke-width:1.0;"/><path d="M1303.5156,984.875 Q1303.6719,984.6563 1303.8594,984.5469 Q1304.0469,984.4375 1304.2656,984.4375 Q1304.6406,984.4375 1304.875,984.7031 Q1305.1094,984.9531 1305.1094,985.5625 L1305.1094,987.0156 Q1305.1094,987.625 1304.875,987.8906 Q1304.6406,988.1563 1304.2656,988.1563 Q1303.9219,988.1563 1303.7188,987.9531 Q1303.5156,987.7656 1303.4063,987.25 Q1303.3594,986.8906 1303.1719,986.7031 Q1302.8438,986.3281 1302.2344,986.1094 Q1301.625,985.8906 1301,985.8906 Q1300.2344,985.8906 1299.5938,986.2188 Q1298.9688,986.5469 1298.4688,987.2969 Q1297.9844,988.0469 1297.9844,989.0781 L1297.9844,990.1719 Q1297.9844,991.4063 1298.875,992.2344 Q1299.7656,993.0469 1301.3594,993.0469 Q1302.2969,993.0469 1302.9531,992.7969 Q1303.3438,992.6406 1303.7656,992.2031 Q1304.0313,991.9375 1304.1719,991.8594 Q1304.3281,991.7813 1304.5313,991.7813 Q1304.8594,991.7813 1305.1094,992.0469 Q1305.375,992.2969 1305.375,992.6406 Q1305.375,992.9844 1305.0313,993.3906 Q1304.5313,993.9688 1303.7344,994.2969 Q1302.6563,994.75 1301.3594,994.75 Q1299.8438,994.75 1298.6406,994.125 Q1297.6563,993.625 1296.9688,992.5625 Q1296.2813,991.4844 1296.2813,990.2031 L1296.2813,989.0469 Q1296.2813,987.7188 1296.8906,986.5781 Q1297.5156,985.4219 1298.6094,984.8125 Q1299.7031,984.1875 1300.9375,984.1875 Q1301.6719,984.1875 1302.3125,984.3594 Q1302.9688,984.5156 1303.5156,984.875 Z " fill="#000000"/><text fill="#000000" font-family="sans-serif" font-size="14" lengthAdjust="spacing" textLength="98" x="1321.25" y="994.7285">MushroomStem</text><line style="stroke:#181818;stroke-width:0.5;" x1="1244" x2="1464" y1="1005" y2="1005"/><text fill="#000000" font-family="sans-serif" font-size="14" lengthAdjust="spacing" text-decoration="underline" textLength="165" x="1249" y="1023.5332">maxSporeThrows : Integer</text><text fill="#000000" font-family="sans-serif" font-size="14" lengthAdjust="spacing" textLength="139" x="1249" y="1041.1426">thrownSpores: Integer</text><text fill="#000000" font-family="sans-serif" font-size="14" lengthAdjust="spacing" textLength="96" x="1249" y="1058.752">energy: Integer</text><text fill="#000000" font-family="sans-serif" font-size="14" lengthAdjust="spacing" textLength="81" x="1249" y="1076.3613">level: Integer</text><line style="stroke:#181818;stroke-width:0.5;" x1="1244" x2="1464" y1="1083.4375" y2="1083.4375"/><text fill="#000000" font-family="sans-serif" font-size="14" lengthAdjust="spacing" textLength="210" x="1249" y="1101.9707">throwSpore(Spore, Tecton) : void</text><text fill="#000000" font-family="sans-serif" font-size="14" lengthAdjust="spacing" textLength="113" x="1249" y="1119.5801">isDead(): boolean</text><text fill="#000000" font-family="sans-serif" font-size="14" lengthAdjust="spacing" textLength="130" x="1249" y="1137.1895">getColony() : Colony</text></g><!--class MushroomThread--><g id="elem_MushroomThread"><rect codeLine="3" fill="#F1F1F1" height="65.6094" id="MushroomThread" rx="2.5" ry="2.5" style="stroke:#181818;stroke-width:0.5;" width="273" x="934.5" y="1025.5"/><ellipse cx="1010.75" cy="1041.5" fill="#ADD1B2" rx="11" ry="11" style="stroke:#181818;stroke-width:1.0;"/><path d="M1013.5156,1037.375 Q1013.6719,1037.1563 1013.8594,1037.0469 Q1014.0469,1036.9375 1014.2656,1036.9375 Q1014.6406,1036.9375 1014.875,1037.2031 Q1015.1094,1037.4531 1015.1094,1038.0625 L1015.1094,1039.5156 Q1015.1094,1040.125 1014.875,1040.3906 Q1014.6406,1040.6563 1014.2656,1040.6563 Q1013.9219,1040.6563 1013.7188,1040.4531 Q1013.5156,1040.2656 1013.4063,1039.75 Q1013.3594,1039.3906 1013.1719,1039.2031 Q1012.8438,1038.8281 1012.2344,1038.6094 Q1011.625,1038.3906 1011,1038.3906 Q1010.2344,1038.3906 1009.5938,1038.7188 Q1008.9688,1039.0469 1008.4688,1039.7969 Q1007.9844,1040.5469 1007.9844,1041.5781 L1007.9844,1042.6719 Q1007.9844,1043.9063 1008.875,1044.7344 Q1009.7656,1045.5469 1011.3594,1045.5469 Q1012.2969,1045.5469 1012.9531,1045.2969 Q1013.3438,1045.1406 1013.7656,1044.7031 Q1014.0313,1044.4375 1014.1719,1044.3594 Q1014.3281,1044.2813 1014.5313,1044.2813 Q1014.8594,1044.2813 1015.1094,1044.5469 Q1015.375,1044.7969 1015.375,1045.1406 Q1015.375,1045.4844 1015.0313,1045.8906 Q1014.5313,1046.4688 1013.7344,1046.7969 Q1012.6563,1047.25 1011.3594,1047.25 Q1009.8438,1047.25 1008.6406,1046.625 Q1007.6563,1046.125 1006.9688,1045.0625 Q1006.2813,1043.9844 1006.2813,1042.7031 L1006.2813,1041.5469 Q1006.2813,1040.2188 1006.8906,1039.0781 Q1007.5156,1037.9219 1008.6094,1037.3125 Q1009.7031,1036.6875 1010.9375,1036.6875 Q1011.6719,1036.6875 1012.3125,1036.8594 Q1012.9688,1037.0156 1013.5156,1037.375 Z " fill="#000000"/><text fill="#000000" font-family="sans-serif" font-size="14" lengthAdjust="spacing" textLength="112" x="1031.25" y="1047.2285">MushroomThread</text><line style="stroke:#181818;stroke-width:0.5;" x1="935.5" x2="1206.5" y1="1057.5" y2="1057.5"/><line style="stroke:#181818;stroke-width:0.5;" x1="935.5" x2="1206.5" y1="1065.5" y2="1065.5"/><text fill="#000000" font-family="sans-serif" font-size="14" lengthAdjust="spacing" textLength="261" x="940.5" y="1084.0332">getConnected() : List&lt;MushroomThread&gt;</text></g><!--class Colony--><g id="elem_Colony"><rect codeLine="5" fill="#F1F1F1" height="83.2188" id="Colony" rx="2.5" ry="2.5" style="stroke:#181818;stroke-width:0.5;" width="293" x="1097.5" y="811.5"/><ellipse cx="1217.75" cy="827.5" fill="#ADD1B2" rx="11" ry="11" style="stroke:#181818;stroke-width:1.0;"/><path d="M1220.5156,823.375 Q1220.6719,823.1563 1220.8594,823.0469 Q1221.0469,822.9375 1221.2656,822.9375 Q1221.6406,822.9375 1221.875,823.2031 Q1222.1094,823.4531 1222.1094,824.0625 L1222.1094,825.5156 Q1222.1094,826.125 1221.875,826.3906 Q1221.6406,826.6563 1221.2656,826.6563 Q1220.9219,826.6563 1220.7188,826.4531 Q1220.5156,826.2656 1220.4063,825.75 Q1220.3594,825.3906 1220.1719,825.2031 Q1219.8438,824.8281 1219.2344,824.6094 Q1218.625,824.3906 1218,824.3906 Q1217.2344,824.3906 1216.5938,824.7188 Q1215.9688,825.0469 1215.4688,825.7969 Q1214.9844,826.5469 1214.9844,827.5781 L1214.9844,828.6719 Q1214.9844,829.9063 1215.875,830.7344 Q1216.7656,831.5469 1218.3594,831.5469 Q1219.2969,831.5469 1219.9531,831.2969 Q1220.3438,831.1406 1220.7656,830.7031 Q1221.0313,830.4375 1221.1719,830.3594 Q1221.3281,830.2813 1221.5313,830.2813 Q1221.8594,830.2813 1222.1094,830.5469 Q1222.375,830.7969 1222.375,831.1406 Q1222.375,831.4844 1222.0313,831.8906 Q1221.5313,832.4688 1220.7344,832.7969 Q1219.6563,833.25 1218.3594,833.25 Q1216.8438,833.25 1215.6406,832.625 Q1214.6563,832.125 1213.9688,831.0625 Q1213.2813,829.9844 1213.2813,828.7031 L1213.2813,827.5469 Q1213.2813,826.2188 1213.8906,825.0781 Q1214.5156,823.9219 1215.6094,823.3125 Q1216.7031,822.6875 1217.9375,822.6875 Q1218.6719,822.6875 1219.3125,822.8594 Q1219.9688,823.0156 1220.5156,823.375 Z " fill="#000000"/><text fill="#000000" font-family="sans-serif" font-size="14" lengthAdjust="spacing" textLength="44" x="1238.25" y="833.2285">Colony</text><line style="stroke:#181818;stroke-width:0.5;" x1="1098.5" x2="1389.5" y1="843.5" y2="843.5"/><text fill="#000000" font-family="sans-serif" font-size="14" lengthAdjust="spacing" textLength="253" x="1103.5" y="862.0332">mushroomStems : List&lt;MushroomStem&gt;</text><text fill="#000000" font-family="sans-serif" font-size="14" lengthAdjust="spacing" textLength="281" x="1103.5" y="879.6426">mushroomThreads : List&lt;MushroomThread&gt;</text><line style="stroke:#181818;stroke-width:0.5;" x1="1098.5" x2="1389.5" y1="886.7188" y2="886.7188"/></g><!--class Insecter--><g id="elem_Insecter"><rect codeLine="21" fill="#F1F1F1" height="118.4375" id="Insecter" rx="2.5" ry="2.5" style="stroke:#181818;stroke-width:0.5;" width="237" x="824.5" y="42"/><ellipse cx="913.75" cy="58" fill="#ADD1B2" rx="11" ry="11" style="stroke:#181818;stroke-width:1.0;"/><path d="M916.5156,53.875 Q916.6719,53.6563 916.8594,53.5469 Q917.0469,53.4375 917.2656,53.4375 Q917.6406,53.4375 917.875,53.7031 Q918.1094,53.9531 918.1094,54.5625 L918.1094,56.0156 Q918.1094,56.625 917.875,56.8906 Q917.6406,57.1563 917.2656,57.1563 Q916.9219,57.1563 916.7188,56.9531 Q916.5156,56.7656 916.4063,56.25 Q916.3594,55.8906 916.1719,55.7031 Q915.8438,55.3281 915.2344,55.1094 Q914.625,54.8906 914,54.8906 Q913.2344,54.8906 912.5938,55.2188 Q911.9688,55.5469 911.4688,56.2969 Q910.9844,57.0469 910.9844,58.0781 L910.9844,59.1719 Q910.9844,60.4063 911.875,61.2344 Q912.7656,62.0469 914.3594,62.0469 Q915.2969,62.0469 915.9531,61.7969 Q916.3438,61.6406 916.7656,61.2031 Q917.0313,60.9375 917.1719,60.8594 Q917.3281,60.7813 917.5313,60.7813 Q917.8594,60.7813 918.1094,61.0469 Q918.375,61.2969 918.375,61.6406 Q918.375,61.9844 918.0313,62.3906 Q917.5313,62.9688 916.7344,63.2969 Q915.6563,63.75 914.3594,63.75 Q912.8438,63.75 911.6406,63.125 Q910.6563,62.625 909.9688,61.5625 Q909.2813,60.4844 909.2813,59.2031 L909.2813,58.0469 Q909.2813,56.7188 909.8906,55.5781 Q910.5156,54.4219 911.6094,53.8125 Q912.7031,53.1875 913.9375,53.1875 Q914.6719,53.1875 915.3125,53.3594 Q915.9688,53.5156 916.5156,53.875 Z " fill="#000000"/><text fill="#000000" font-family="sans-serif" font-size="14" lengthAdjust="spacing" textLength="50" x="934.25" y="63.7285">Insecter</text><line style="stroke:#181818;stroke-width:0.5;" x1="825.5" x2="1060.5" y1="74" y2="74"/><text fill="#000000" font-family="sans-serif" font-size="14" lengthAdjust="spacing" textLength="86" x="830.5" y="92.5332">insect : Insect</text><line style="stroke:#181818;stroke-width:0.5;" x1="825.5" x2="1060.5" y1="99.6094" y2="99.6094"/><text fill="#000000" font-family="sans-serif" font-size="14" lengthAdjust="spacing" textLength="106" x="830.5" y="118.1426">eat(Spore) : void</text><text fill="#000000" font-family="sans-serif" font-size="14" lengthAdjust="spacing" textLength="163" x="830.5" y="135.752">moveInsect(Tecton) : void</text><text fill="#000000" font-family="sans-serif" font-size="14" lengthAdjust="spacing" textLength="225" x="830.5" y="153.3613">cutThread(MushroomThread) : void</text></g><!--class Insect--><g id="elem_Insect"><rect codeLine="4" fill="#F1F1F1" height="118.4375" id="Insect" rx="2.5" ry="2.5" style="stroke:#181818;stroke-width:0.5;" width="191" x="486.5" y="794"/><ellipse cx="559.25" cy="810" fill="#ADD1B2" rx="11" ry="11" style="stroke:#181818;stroke-width:1.0;"/><path d="M562.0156,805.875 Q562.1719,805.6563 562.3594,805.5469 Q562.5469,805.4375 562.7656,805.4375 Q563.1406,805.4375 563.375,805.7031 Q563.6094,805.9531 563.6094,806.5625 L563.6094,808.0156 Q563.6094,808.625 563.375,808.8906 Q563.1406,809.1563 562.7656,809.1563 Q562.4219,809.1563 562.2188,808.9531 Q562.0156,808.7656 561.9063,808.25 Q561.8594,807.8906 561.6719,807.7031 Q561.3438,807.3281 560.7344,807.1094 Q560.125,806.8906 559.5,806.8906 Q558.7344,806.8906 558.0938,807.2188 Q557.4688,807.5469 556.9688,808.2969 Q556.4844,809.0469 556.4844,810.0781 L556.4844,811.1719 Q556.4844,812.4063 557.375,813.2344 Q558.2656,814.0469 559.8594,814.0469 Q560.7969,814.0469 561.4531,813.7969 Q561.8438,813.6406 562.2656,813.2031 Q562.5313,812.9375 562.6719,812.8594 Q562.8281,812.7813 563.0313,812.7813 Q563.3594,812.7813 563.6094,813.0469 Q563.875,813.2969 563.875,813.6406 Q563.875,813.9844 563.5313,814.3906 Q563.0313,814.9688 562.2344,815.2969 Q561.1563,815.75 559.8594,815.75 Q558.3438,815.75 557.1406,815.125 Q556.1563,814.625 555.4688,813.5625 Q554.7813,812.4844 554.7813,811.2031 L554.7813,810.0469 Q554.7813,808.7188 555.3906,807.5781 Q556.0156,806.4219 557.1094,805.8125 Q558.2031,805.1875 559.4375,805.1875 Q560.1719,805.1875 560.8125,805.3594 Q561.4688,805.5156 562.0156,805.875 Z " fill="#000000"/><text fill="#000000" font-family="sans-serif" font-size="14" lengthAdjust="spacing" textLength="37" x="579.75" y="815.7285">Insect</text><line style="stroke:#181818;stroke-width:0.5;" x1="487.5" x2="676.5" y1="826" y2="826"/><text fill="#000000" font-family="sans-serif" font-size="14" lengthAdjust="spacing" textLength="128" x="492.5" y="844.5332">effects : List&lt;Effect&gt;</text><line style="stroke:#181818;stroke-width:0.5;" x1="487.5" x2="676.5" y1="851.6094" y2="851.6094"/><text fill="#000000" font-family="sans-serif" font-size="14" lengthAdjust="spacing" textLength="106" x="492.5" y="870.1426">eat(Spore) : void</text><text fill="#000000" font-family="sans-serif" font-size="14" lengthAdjust="spacing" textLength="126" x="492.5" y="887.752">move(Tecton) : void</text><text fill="#000000" font-family="sans-serif" font-size="14" lengthAdjust="spacing" textLength="179" x="492.5" y="905.3613">cut(MushroomThread) : void</text></g><!--class Map--><g id="elem_Map"><rect codeLine="4" fill="#F1F1F1" height="100.8281" id="Map" rx="2.5" ry="2.5" style="stroke:#181818;stroke-width:0.5;" width="173" x="652.5" y="221"/><ellipse cx="721.25" cy="237" fill="#ADD1B2" rx="11" ry="11" style="stroke:#181818;stroke-width:1.0;"/><path d="M724.0156,232.875 Q724.1719,232.6563 724.3594,232.5469 Q724.5469,232.4375 724.7656,232.4375 Q725.1406,232.4375 725.375,232.7031 Q725.6094,232.9531 725.6094,233.5625 L725.6094,235.0156 Q725.6094,235.625 725.375,235.8906 Q725.1406,236.1563 724.7656,236.1563 Q724.4219,236.1563 724.2188,235.9531 Q724.0156,235.7656 723.9063,235.25 Q723.8594,234.8906 723.6719,234.7031 Q723.3438,234.3281 722.7344,234.1094 Q722.125,233.8906 721.5,233.8906 Q720.7344,233.8906 720.0938,234.2188 Q719.4688,234.5469 718.9688,235.2969 Q718.4844,236.0469 718.4844,237.0781 L718.4844,238.1719 Q718.4844,239.4063 719.375,240.2344 Q720.2656,241.0469 721.8594,241.0469 Q722.7969,241.0469 723.4531,240.7969 Q723.8438,240.6406 724.2656,240.2031 Q724.5313,239.9375 724.6719,239.8594 Q724.8281,239.7813 725.0313,239.7813 Q725.3594,239.7813 725.6094,240.0469 Q725.875,240.2969 725.875,240.6406 Q725.875,240.9844 725.5313,241.3906 Q725.0313,241.9688 724.2344,242.2969 Q723.1563,242.75 721.8594,242.75 Q720.3438,242.75 719.1406,242.125 Q718.1563,241.625 717.4688,240.5625 Q716.7813,239.4844 716.7813,238.2031 L716.7813,237.0469 Q716.7813,235.7188 717.3906,234.5781 Q718.0156,233.4219 719.1094,232.8125 Q720.2031,232.1875 721.4375,232.1875 Q722.1719,232.1875 722.8125,232.3594 Q723.4688,232.5156 724.0156,232.875 Z " fill="#000000"/><text fill="#000000" font-family="sans-serif" font-size="14" lengthAdjust="spacing" textLength="27" x="741.75" y="242.7285">Map</text><line style="stroke:#181818;stroke-width:0.5;" x1="653.5" x2="824.5" y1="253" y2="253"/><text fill="#000000" font-family="sans-serif" font-size="14" lengthAdjust="spacing" textLength="140" x="658.5" y="271.5332">tectons : List&lt;Tecton&gt;</text><line style="stroke:#181818;stroke-width:0.5;" x1="653.5" x2="824.5" y1="278.6094" y2="278.6094"/><text fill="#000000" font-family="sans-serif" font-size="14" lengthAdjust="spacing" textLength="105" x="658.5" y="297.1426">generate() : void</text><text fill="#000000" font-family="sans-serif" font-size="14" lengthAdjust="spacing" textLength="161" x="658.5" y="314.752">splitTecton(Tecton) : void</text></g><!--class IOnRound--><g id="elem_IOnRound"><rect codeLine="10" fill="#F1F1F1" height="65.6094" id="IOnRound" rx="2.5" ry="2.5" style="stroke:#181818;stroke-width:0.5;" width="118" x="671" y="68"/><ellipse cx="695.45" cy="84" fill="#B4A7E5" rx="11" ry="11" style="stroke:#181818;stroke-width:1.0;"/><path d="M696.4031,80.6406 L696.4031,87.2969 L698.1219,87.2969 Q698.7313,87.2969 698.9969,87.5313 Q699.2625,87.7656 699.2625,88.1563 Q699.2625,88.5313 698.9969,88.7656 Q698.7313,89 698.1219,89 L692.9813,89 Q692.3719,89 692.1063,88.7656 Q691.8406,88.5313 691.8406,88.1406 Q691.8406,87.7656 692.1063,87.5313 Q692.3719,87.2969 692.9813,87.2969 L694.7,87.2969 L694.7,80.6406 L692.9813,80.6406 Q692.3719,80.6406 692.1063,80.4063 Q691.8406,80.1719 691.8406,79.7813 Q691.8406,79.4063 692.1063,79.1719 Q692.3719,78.9375 692.9813,78.9375 L698.1219,78.9375 Q698.7313,78.9375 698.9969,79.1719 Q699.2625,79.4063 699.2625,79.7813 Q699.2625,80.1719 698.9969,80.4063 Q698.7313,80.6406 698.1219,80.6406 L696.4031,80.6406 Z " fill="#000000"/><text fill="#000000" font-family="sans-serif" font-size="14" font-style="italic" lengthAdjust="spacing" textLength="65" x="711.55" y="89.7285">IOnRound</text><line style="stroke:#181818;stroke-width:0.5;" x1="672" x2="788" y1="100" y2="100"/><line style="stroke:#181818;stroke-width:0.5;" x1="672" x2="788" y1="108" y2="108"/><text fill="#000000" font-family="sans-serif" font-size="14" lengthAdjust="spacing" textLength="106" x="677" y="126.5332">onRound() : void</text></g><!--class Tecton--><g id="elem_Tecton"><rect codeLine="5" fill="#F1F1F1" height="206.4844" id="Tecton" rx="2.5" ry="2.5" style="stroke:#181818;stroke-width:0.5;" width="193" x="642.5" y="383"/><ellipse cx="712.75" cy="399" fill="#ADD1B2" rx="11" ry="11" style="stroke:#181818;stroke-width:1.0;"/><path d="M715.5156,394.875 Q715.6719,394.6563 715.8594,394.5469 Q716.0469,394.4375 716.2656,394.4375 Q716.6406,394.4375 716.875,394.7031 Q717.1094,394.9531 717.1094,395.5625 L717.1094,397.0156 Q717.1094,397.625 716.875,397.8906 Q716.6406,398.1563 716.2656,398.1563 Q715.9219,398.1563 715.7188,397.9531 Q715.5156,397.7656 715.4063,397.25 Q715.3594,396.8906 715.1719,396.7031 Q714.8438,396.3281 714.2344,396.1094 Q713.625,395.8906 713,395.8906 Q712.2344,395.8906 711.5938,396.2188 Q710.9688,396.5469 710.4688,397.2969 Q709.9844,398.0469 709.9844,399.0781 L709.9844,400.1719 Q709.9844,401.4063 710.875,402.2344 Q711.7656,403.0469 713.3594,403.0469 Q714.2969,403.0469 714.9531,402.7969 Q715.3438,402.6406 715.7656,402.2031 Q716.0313,401.9375 716.1719,401.8594 Q716.3281,401.7813 716.5313,401.7813 Q716.8594,401.7813 717.1094,402.0469 Q717.375,402.2969 717.375,402.6406 Q717.375,402.9844 717.0313,403.3906 Q716.5313,403.9688 715.7344,404.2969 Q714.6563,404.75 713.3594,404.75 Q711.8438,404.75 710.6406,404.125 Q709.6563,403.625 708.9688,402.5625 Q708.2813,401.4844 708.2813,400.2031 L708.2813,399.0469 Q708.2813,397.7188 708.8906,396.5781 Q709.5156,395.4219 710.6094,394.8125 Q711.7031,394.1875 712.9375,394.1875 Q713.6719,394.1875 714.3125,394.3594 Q714.9688,394.5156 715.5156,394.875 Z " fill="#000000"/><text fill="#000000" font-family="sans-serif" font-size="14" lengthAdjust="spacing" textLength="44" x="733.25" y="404.7285">Tecton</text><line style="stroke:#181818;stroke-width:0.5;" x1="643.5" x2="834.5" y1="415" y2="415"/><text fill="#000000" font-family="sans-serif" font-size="14" lengthAdjust="spacing" text-decoration="underline" textLength="134" x="648.5" y="433.5332">maxThreads : Integer</text><text fill="#000000" font-family="sans-serif" font-size="14" lengthAdjust="spacing" text-decoration="underline" textLength="116" x="648.5" y="451.1426">maxStems: Integer</text><text fill="#000000" font-family="sans-serif" font-size="14" lengthAdjust="spacing" textLength="150" x="648.5" y="468.752">minNeighbours : Integer</text><text fill="#000000" font-family="sans-serif" font-size="14" lengthAdjust="spacing" textLength="153" x="648.5" y="486.3613">maxNeighbours : Integer</text><text fill="#000000" font-family="sans-serif" font-size="14" lengthAdjust="spacing" textLength="165" x="648.5" y="503.9707">neighbours : List&lt;Tecton&gt;</text><text fill="#000000" font-family="sans-serif" font-size="14" lengthAdjust="spacing" textLength="130" x="648.5" y="521.5801">entities : List&lt;Entity&gt;</text><line style="stroke:#181818;stroke-width:0.5;" x1="643.5" x2="834.5" y1="528.6563" y2="528.6563"/><text fill="#000000" font-family="sans-serif" font-size="14" lengthAdjust="spacing" textLength="181" x="648.5" y="547.1895">addNeighbour(Tecton) : void</text><text fill="#000000" font-family="sans-serif" font-size="14" lengthAdjust="spacing" textLength="142" x="648.5" y="564.7988">addEntity(Entity) : void</text><text fill="#000000" font-family="sans-serif" font-size="14" lengthAdjust="spacing" textLength="165" x="648.5" y="582.4082">removeEntity(Entity) : void</text></g><!--class Entity--><g id="elem_Entity"><rect codeLine="1" fill="#F1F1F1" height="83.2188" id="Entity" rx="2.5" ry="2.5" style="stroke:#181818;stroke-width:0.5;" width="103" x="290.5" y="650"/><ellipse cx="321.7" cy="666" fill="#A9DCDF" rx="11" ry="11" style="stroke:#181818;stroke-width:1.0;"/><path d="M323.8875,667.7656 L319.7469,667.7656 L319.325,668.7969 L319.7469,668.7969 Q320.3563,668.7969 320.6219,669.0313 Q320.8875,669.2656 320.8875,669.6563 Q320.8875,670.0313 320.6219,670.2656 Q320.3563,670.5 319.7469,670.5 L317.45,670.5 Q316.8406,670.5 316.5906,670.2656 Q316.325,670.0313 316.325,669.6406 Q316.325,669.2656 316.6063,669.0313 Q316.8719,668.7813 317.4969,668.7969 L320.1688,662.1406 L319.0594,662.1406 Q318.45,662.1406 318.1844,661.9063 Q317.9188,661.6719 317.9188,661.2813 Q317.9188,660.9063 318.1844,660.6719 Q318.45,660.4375 319.0594,660.4375 L322.7313,660.4375 L326.1219,668.7969 Q326.7156,668.7969 326.9031,668.9375 Q327.2938,669.2031 327.2938,669.6563 Q327.2938,670.0313 327.0281,670.2656 Q326.7781,670.5 326.1688,670.5 L323.8719,670.5 Q323.2625,670.5 322.9969,670.2656 Q322.7313,670.0313 322.7313,669.6406 Q322.7313,669.2656 322.9969,669.0313 Q323.2625,668.7969 323.8719,668.7969 L324.2938,668.7969 L323.8875,667.7656 Z M323.1688,666.0625 L321.8094,662.6875 L320.4344,666.0625 L323.1688,666.0625 Z " fill="#000000"/><text fill="#000000" font-family="sans-serif" font-size="14" font-style="italic" lengthAdjust="spacing" textLength="35" x="339.3" y="671.7285">Entity</text><line style="stroke:#181818;stroke-width:0.5;" x1="291.5" x2="392.5" y1="682" y2="682"/><text fill="#000000" font-family="sans-serif" font-size="14" lengthAdjust="spacing" textLength="90" x="296.5" y="700.5332">owner : Player</text><text fill="#000000" font-family="sans-serif" font-size="14" lengthAdjust="spacing" textLength="91" x="296.5" y="718.1426">tecton: Tecton</text><line style="stroke:#181818;stroke-width:0.5;" x1="291.5" x2="392.5" y1="725.2188" y2="725.2188"/></g><!--class SingleThreadedTecton--><g id="elem_SingleThreadedTecton"><rect codeLine="24" fill="#F1F1F1" height="65.6094" id="SingleThreadedTecton" rx="2.5" ry="2.5" style="stroke:#181818;stroke-width:0.5;" width="177" x="656.5" y="658.5"/><ellipse cx="671.5" cy="674.5" fill="#ADD1B2" rx="11" ry="11" style="stroke:#181818;stroke-width:1.0;"/><path d="M674.2656,670.375 Q674.4219,670.1563 674.6094,670.0469 Q674.7969,669.9375 675.0156,669.9375 Q675.3906,669.9375 675.625,670.2031 Q675.8594,670.4531 675.8594,671.0625 L675.8594,672.5156 Q675.8594,673.125 675.625,673.3906 Q675.3906,673.6563 675.0156,673.6563 Q674.6719,673.6563 674.4688,673.4531 Q674.2656,673.2656 674.1563,672.75 Q674.1094,672.3906 673.9219,672.2031 Q673.5938,671.8281 672.9844,671.6094 Q672.375,671.3906 671.75,671.3906 Q670.9844,671.3906 670.3438,671.7188 Q669.7188,672.0469 669.2188,672.7969 Q668.7344,673.5469 668.7344,674.5781 L668.7344,675.6719 Q668.7344,676.9063 669.625,677.7344 Q670.5156,678.5469 672.1094,678.5469 Q673.0469,678.5469 673.7031,678.2969 Q674.0938,678.1406 674.5156,677.7031 Q674.7813,677.4375 674.9219,677.3594 Q675.0781,677.2813 675.2813,677.2813 Q675.6094,677.2813 675.8594,677.5469 Q676.125,677.7969 676.125,678.1406 Q676.125,678.4844 675.7813,678.8906 Q675.2813,679.4688 674.4844,679.7969 Q673.4063,680.25 672.1094,680.25 Q670.5938,680.25 669.3906,679.625 Q668.4063,679.125 667.7188,678.0625 Q667.0313,676.9844 667.0313,675.7031 L667.0313,674.5469 Q667.0313,673.2188 667.6406,672.0781 Q668.2656,670.9219 669.3594,670.3125 Q670.4531,669.6875 671.6875,669.6875 Q672.4219,669.6875 673.0625,669.8594 Q673.7188,670.0156 674.2656,670.375 Z " fill="#000000"/><text fill="#000000" font-family="sans-serif" font-size="14" lengthAdjust="spacing" textLength="145" x="685.5" y="680.2285">SingleThreadedTecton</text><line style="stroke:#181818;stroke-width:0.5;" x1="657.5" x2="832.5" y1="690.5" y2="690.5"/><text fill="#000000" font-family="sans-serif" font-size="14" lengthAdjust="spacing" text-decoration="underline" textLength="158" x="662.5" y="709.0332">maxThreads = 1 : Integer</text><line style="stroke:#181818;stroke-width:0.5;" x1="657.5" x2="832.5" y1="716.1094" y2="716.1094"/></g><!--class StemlessTecton--><g id="elem_StemlessTecton"><rect codeLine="31" fill="#F1F1F1" height="65.6094" id="StemlessTecton" rx="2.5" ry="2.5" style="stroke:#181818;stroke-width:0.5;" width="156" x="869" y="658.5"/><ellipse cx="894.35" cy="674.5" fill="#ADD1B2" rx="11" ry="11" style="stroke:#181818;stroke-width:1.0;"/><path d="M897.1156,670.375 Q897.2719,670.1563 897.4594,670.0469 Q897.6469,669.9375 897.8656,669.9375 Q898.2406,669.9375 898.475,670.2031 Q898.7094,670.4531 898.7094,671.0625 L898.7094,672.5156 Q898.7094,673.125 898.475,673.3906 Q898.2406,673.6563 897.8656,673.6563 Q897.5219,673.6563 897.3188,673.4531 Q897.1156,673.2656 897.0063,672.75 Q896.9594,672.3906 896.7719,672.2031 Q896.4438,671.8281 895.8344,671.6094 Q895.225,671.3906 894.6,671.3906 Q893.8344,671.3906 893.1938,671.7188 Q892.5688,672.0469 892.0688,672.7969 Q891.5844,673.5469 891.5844,674.5781 L891.5844,675.6719 Q891.5844,676.9063 892.475,677.7344 Q893.3656,678.5469 894.9594,678.5469 Q895.8969,678.5469 896.5531,678.2969 Q896.9438,678.1406 897.3656,677.7031 Q897.6313,677.4375 897.7719,677.3594 Q897.9281,677.2813 898.1313,677.2813 Q898.4594,677.2813 898.7094,677.5469 Q898.975,677.7969 898.975,678.1406 Q898.975,678.4844 898.6313,678.8906 Q898.1313,679.4688 897.3344,679.7969 Q896.2563,680.25 894.9594,680.25 Q893.4438,680.25 892.2406,679.625 Q891.2563,679.125 890.5688,678.0625 Q889.8813,676.9844 889.8813,675.7031 L889.8813,674.5469 Q889.8813,673.2188 890.4906,672.0781 Q891.1156,670.9219 892.2094,670.3125 Q893.3031,669.6875 894.5375,669.6875 Q895.2719,669.6875 895.9125,669.8594 Q896.5688,670.0156 897.1156,670.375 Z " fill="#000000"/><text fill="#000000" font-family="sans-serif" font-size="14" lengthAdjust="spacing" textLength="101" x="910.65" y="680.2285">StemlessTecton</text><line style="stroke:#181818;stroke-width:0.5;" x1="870" x2="1024" y1="690.5" y2="690.5"/><text fill="#000000" font-family="sans-serif" font-size="14" lengthAdjust="spacing" text-decoration="underline" textLength="144" x="875" y="709.0332">maxStems = 0 : Integer</text><line style="stroke:#181818;stroke-width:0.5;" x1="870" x2="1024" y1="716.1094" y2="716.1094"/></g><!--class ThreadConsumingTecton--><g id="elem_ThreadConsumingTecton"><rect codeLine="38" fill="#F1F1F1" height="48" id="ThreadConsumingTecton" rx="2.5" ry="2.5" style="stroke:#181818;stroke-width:0.5;" width="193" x="428.5" y="667.5"/><ellipse cx="443.5" cy="683.5" fill="#ADD1B2" rx="11" ry="11" style="stroke:#181818;stroke-width:1.0;"/><path d="M446.2656,679.375 Q446.4219,679.1563 446.6094,679.0469 Q446.7969,678.9375 447.0156,678.9375 Q447.3906,678.9375 447.625,679.2031 Q447.8594,679.4531 447.8594,680.0625 L447.8594,681.5156 Q447.8594,682.125 447.625,682.3906 Q447.3906,682.6563 447.0156,682.6563 Q446.6719,682.6563 446.4688,682.4531 Q446.2656,682.2656 446.1563,681.75 Q446.1094,681.3906 445.9219,681.2031 Q445.5938,680.8281 444.9844,680.6094 Q444.375,680.3906 443.75,680.3906 Q442.9844,680.3906 442.3438,680.7188 Q441.7188,681.0469 441.2188,681.7969 Q440.7344,682.5469 440.7344,683.5781 L440.7344,684.6719 Q440.7344,685.9063 441.625,686.7344 Q442.5156,687.5469 444.1094,687.5469 Q445.0469,687.5469 445.7031,687.2969 Q446.0938,687.1406 446.5156,686.7031 Q446.7813,686.4375 446.9219,686.3594 Q447.0781,686.2813 447.2813,686.2813 Q447.6094,686.2813 447.8594,686.5469 Q448.125,686.7969 448.125,687.1406 Q448.125,687.4844 447.7813,687.8906 Q447.2813,688.4688 446.4844,688.7969 Q445.4063,689.25 444.1094,689.25 Q442.5938,689.25 441.3906,688.625 Q440.4063,688.125 439.7188,687.0625 Q439.0313,685.9844 439.0313,684.7031 L439.0313,683.5469 Q439.0313,682.2188 439.6406,681.0781 Q440.2656,679.9219 441.3594,679.3125 Q442.4531,678.6875 443.6875,678.6875 Q444.4219,678.6875 445.0625,678.8594 Q445.7188,679.0156 446.2656,679.375 Z " fill="#000000"/><text fill="#000000" font-family="sans-serif" font-size="14" lengthAdjust="spacing" textLength="161" x="457.5" y="689.2285">ThreadConsumingTecton</text><line style="stroke:#181818;stroke-width:0.5;" x1="429.5" x2="620.5" y1="699.5" y2="699.5"/><line style="stroke:#181818;stroke-width:0.5;" x1="429.5" x2="620.5" y1="707.5" y2="707.5"/></g><!--class Spore--><g id="elem_Spore"><rect codeLine="5" fill="#F1F1F1" height="83.2188" id="Spore" rx="2.5" ry="2.5" style="stroke:#181818;stroke-width:0.5;" width="119" x="712.5" y="811.5"/><ellipse cx="749.55" cy="827.5" fill="#A9DCDF" rx="11" ry="11" style="stroke:#181818;stroke-width:1.0;"/><path d="M751.7375,829.2656 L747.5969,829.2656 L747.175,830.2969 L747.5969,830.2969 Q748.2063,830.2969 748.4719,830.5313 Q748.7375,830.7656 748.7375,831.1563 Q748.7375,831.5313 748.4719,831.7656 Q748.2063,832 747.5969,832 L745.3,832 Q744.6906,832 744.4406,831.7656 Q744.175,831.5313 744.175,831.1406 Q744.175,830.7656 744.4563,830.5313 Q744.7219,830.2813 745.3469,830.2969 L748.0188,823.6406 L746.9094,823.6406 Q746.3,823.6406 746.0344,823.4063 Q745.7688,823.1719 745.7688,822.7813 Q745.7688,822.4063 746.0344,822.1719 Q746.3,821.9375 746.9094,821.9375 L750.5813,821.9375 L753.9719,830.2969 Q754.5656,830.2969 754.7531,830.4375 Q755.1438,830.7031 755.1438,831.1563 Q755.1438,831.5313 754.8781,831.7656 Q754.6281,832 754.0188,832 L751.7219,832 Q751.1125,832 750.8469,831.7656 Q750.5813,831.5313 750.5813,831.1406 Q750.5813,830.7656 750.8469,830.5313 Q751.1125,830.2969 751.7219,830.2969 L752.1438,830.2969 L751.7375,829.2656 Z M751.0188,827.5625 L749.6594,824.1875 L748.2844,827.5625 L751.0188,827.5625 Z " fill="#000000"/><text fill="#000000" font-family="sans-serif" font-size="14" font-style="italic" lengthAdjust="spacing" textLength="38" x="768.45" y="833.2285">Spore</text><line style="stroke:#181818;stroke-width:0.5;" x1="713.5" x2="830.5" y1="843.5" y2="843.5"/><text fill="#000000" font-family="sans-serif" font-size="14" lengthAdjust="spacing" textLength="107" x="718.5" y="862.0332">nutrition : Integer</text><text fill="#000000" font-family="sans-serif" font-size="14" lengthAdjust="spacing" text-decoration="underline" textLength="83" x="718.5" y="879.6426">effect : Effect</text><line style="stroke:#181818;stroke-width:0.5;" x1="713.5" x2="830.5" y1="886.7188" y2="886.7188"/></g><!--class Effect--><g id="elem_Effect"><rect codeLine="2" fill="#F1F1F1" height="83.2188" id="Effect" rx="2.5" ry="2.5" style="stroke:#181818;stroke-width:0.5;" width="187" x="22.5" y="1017"/><ellipse cx="93.75" cy="1033" fill="#A9DCDF" rx="11" ry="11" style="stroke:#181818;stroke-width:1.0;"/><path d="M95.9375,1034.7656 L91.7969,1034.7656 L91.375,1035.7969 L91.7969,1035.7969 Q92.4063,1035.7969 92.6719,1036.0313 Q92.9375,1036.2656 92.9375,1036.6563 Q92.9375,1037.0313 92.6719,1037.2656 Q92.4063,1037.5 91.7969,1037.5 L89.5,1037.5 Q88.8906,1037.5 88.6406,1037.2656 Q88.375,1037.0313 88.375,1036.6406 Q88.375,1036.2656 88.6563,1036.0313 Q88.9219,1035.7813 89.5469,1035.7969 L92.2188,1029.1406 L91.1094,1029.1406 Q90.5,1029.1406 90.2344,1028.9063 Q89.9688,1028.6719 89.9688,1028.2813 Q89.9688,1027.9063 90.2344,1027.6719 Q90.5,1027.4375 91.1094,1027.4375 L94.7813,1027.4375 L98.1719,1035.7969 Q98.7656,1035.7969 98.9531,1035.9375 Q99.3438,1036.2031 99.3438,1036.6563 Q99.3438,1037.0313 99.0781,1037.2656 Q98.8281,1037.5 98.2188,1037.5 L95.9219,1037.5 Q95.3125,1037.5 95.0469,1037.2656 Q94.7813,1037.0313 94.7813,1036.6406 Q94.7813,1036.2656 95.0469,1036.0313 Q95.3125,1035.7969 95.9219,1035.7969 L96.3438,1035.7969 L95.9375,1034.7656 Z M95.2188,1033.0625 L93.8594,1029.6875 L92.4844,1033.0625 L95.2188,1033.0625 Z " fill="#000000"/><text fill="#000000" font-family="sans-serif" font-size="14" font-style="italic" lengthAdjust="spacing" textLength="36" x="114.25" y="1038.7285">Effect</text><line style="stroke:#181818;stroke-width:0.5;" x1="23.5" x2="208.5" y1="1049" y2="1049"/><text fill="#000000" font-family="sans-serif" font-size="14" lengthAdjust="spacing" text-decoration="underline" textLength="108" x="28.5" y="1067.5332">duration : Integer</text><text fill="#000000" font-family="sans-serif" font-size="14" lengthAdjust="spacing" textLength="175" x="28.5" y="1085.1426">durationRemaining : Integer</text><line style="stroke:#181818;stroke-width:0.5;" x1="23.5" x2="208.5" y1="1092.2188" y2="1092.2188"/></g><!--class SlowingSpore--><g id="elem_SlowingSpore"><rect codeLine="11" fill="#F1F1F1" height="48" id="SlowingSpore" rx="2.5" ry="2.5" style="stroke:#181818;stroke-width:0.5;" width="118" x="781" y="1034.5"/><ellipse cx="796" cy="1050.5" fill="#ADD1B2" rx="11" ry="11" style="stroke:#181818;stroke-width:1.0;"/><path d="M798.7656,1046.375 Q798.9219,1046.1563 799.1094,1046.0469 Q799.2969,1045.9375 799.5156,1045.9375 Q799.8906,1045.9375 800.125,1046.2031 Q800.3594,1046.4531 800.3594,1047.0625 L800.3594,1048.5156 Q800.3594,1049.125 800.125,1049.3906 Q799.8906,1049.6563 799.5156,1049.6563 Q799.1719,1049.6563 798.9688,1049.4531 Q798.7656,1049.2656 798.6563,1048.75 Q798.6094,1048.3906 798.4219,1048.2031 Q798.0938,1047.8281 797.4844,1047.6094 Q796.875,1047.3906 796.25,1047.3906 Q795.4844,1047.3906 794.8438,1047.7188 Q794.2188,1048.0469 793.7188,1048.7969 Q793.2344,1049.5469 793.2344,1050.5781 L793.2344,1051.6719 Q793.2344,1052.9063 794.125,1053.7344 Q795.0156,1054.5469 796.6094,1054.5469 Q797.5469,1054.5469 798.2031,1054.2969 Q798.5938,1054.1406 799.0156,1053.7031 Q799.2813,1053.4375 799.4219,1053.3594 Q799.5781,1053.2813 799.7813,1053.2813 Q800.1094,1053.2813 800.3594,1053.5469 Q800.625,1053.7969 800.625,1054.1406 Q800.625,1054.4844 800.2813,1054.8906 Q799.7813,1055.4688 798.9844,1055.7969 Q797.9063,1056.25 796.6094,1056.25 Q795.0938,1056.25 793.8906,1055.625 Q792.9063,1055.125 792.2188,1054.0625 Q791.5313,1052.9844 791.5313,1051.7031 L791.5313,1050.5469 Q791.5313,1049.2188 792.1406,1048.0781 Q792.7656,1046.9219 793.8594,1046.3125 Q794.9531,1045.6875 796.1875,1045.6875 Q796.9219,1045.6875 797.5625,1045.8594 Q798.2188,1046.0156 798.7656,1046.375 Z " fill="#000000"/><text fill="#000000" font-family="sans-serif" font-size="14" lengthAdjust="spacing" textLength="86" x="810" y="1056.2285">SlowingSpore</text><line style="stroke:#181818;stroke-width:0.5;" x1="782" x2="898" y1="1066.5" y2="1066.5"/><line style="stroke:#181818;stroke-width:0.5;" x1="782" x2="898" y1="1074.5" y2="1074.5"/></g><!--class SpeedingSpore--><g id="elem_SpeedingSpore"><rect codeLine="15" fill="#F1F1F1" height="48" id="SpeedingSpore" rx="2.5" ry="2.5" style="stroke:#181818;stroke-width:0.5;" width="130" x="245" y="1034.5"/><ellipse cx="260" cy="1050.5" fill="#ADD1B2" rx="11" ry="11" style="stroke:#181818;stroke-width:1.0;"/><path d="M262.7656,1046.375 Q262.9219,1046.1563 263.1094,1046.0469 Q263.2969,1045.9375 263.5156,1045.9375 Q263.8906,1045.9375 264.125,1046.2031 Q264.3594,1046.4531 264.3594,1047.0625 L264.3594,1048.5156 Q264.3594,1049.125 264.125,1049.3906 Q263.8906,1049.6563 263.5156,1049.6563 Q263.1719,1049.6563 262.9688,1049.4531 Q262.7656,1049.2656 262.6563,1048.75 Q262.6094,1048.3906 262.4219,1048.2031 Q262.0938,1047.8281 261.4844,1047.6094 Q260.875,1047.3906 260.25,1047.3906 Q259.4844,1047.3906 258.8438,1047.7188 Q258.2188,1048.0469 257.7188,1048.7969 Q257.2344,1049.5469 257.2344,1050.5781 L257.2344,1051.6719 Q257.2344,1052.9063 258.125,1053.7344 Q259.0156,1054.5469 260.6094,1054.5469 Q261.5469,1054.5469 262.2031,1054.2969 Q262.5938,1054.1406 263.0156,1053.7031 Q263.2813,1053.4375 263.4219,1053.3594 Q263.5781,1053.2813 263.7813,1053.2813 Q264.1094,1053.2813 264.3594,1053.5469 Q264.625,1053.7969 264.625,1054.1406 Q264.625,1054.4844 264.2813,1054.8906 Q263.7813,1055.4688 262.9844,1055.7969 Q261.9063,1056.25 260.6094,1056.25 Q259.0938,1056.25 257.8906,1055.625 Q256.9063,1055.125 256.2188,1054.0625 Q255.5313,1052.9844 255.5313,1051.7031 L255.5313,1050.5469 Q255.5313,1049.2188 256.1406,1048.0781 Q256.7656,1046.9219 257.8594,1046.3125 Q258.9531,1045.6875 260.1875,1045.6875 Q260.9219,1045.6875 261.5625,1045.8594 Q262.2188,1046.0156 262.7656,1046.375 Z " fill="#000000"/><text fill="#000000" font-family="sans-serif" font-size="14" lengthAdjust="spacing" textLength="98" x="274" y="1056.2285">SpeedingSpore</text><line style="stroke:#181818;stroke-width:0.5;" x1="246" x2="374" y1="1066.5" y2="1066.5"/><line style="stroke:#181818;stroke-width:0.5;" x1="246" x2="374" y1="1074.5" y2="1074.5"/></g><!--class ParalyzingSpore--><g id="elem_ParalyzingSpore"><rect codeLine="19" fill="#F1F1F1" height="48" id="ParalyzingSpore" rx="2.5" ry="2.5" style="stroke:#181818;stroke-width:0.5;" width="135" x="410.5" y="1034.5"/><ellipse cx="425.5" cy="1050.5" fill="#ADD1B2" rx="11" ry="11" style="stroke:#181818;stroke-width:1.0;"/><path d="M428.2656,1046.375 Q428.4219,1046.1563 428.6094,1046.0469 Q428.7969,1045.9375 429.0156,1045.9375 Q429.3906,1045.9375 429.625,1046.2031 Q429.8594,1046.4531 429.8594,1047.0625 L429.8594,1048.5156 Q429.8594,1049.125 429.625,1049.3906 Q429.3906,1049.6563 429.0156,1049.6563 Q428.6719,1049.6563 428.4688,1049.4531 Q428.2656,1049.2656 428.1563,1048.75 Q428.1094,1048.3906 427.9219,1048.2031 Q427.5938,1047.8281 426.9844,1047.6094 Q426.375,1047.3906 425.75,1047.3906 Q424.9844,1047.3906 424.3438,1047.7188 Q423.7188,1048.0469 423.2188,1048.7969 Q422.7344,1049.5469 422.7344,1050.5781 L422.7344,1051.6719 Q422.7344,1052.9063 423.625,1053.7344 Q424.5156,1054.5469 426.1094,1054.5469 Q427.0469,1054.5469 427.7031,1054.2969 Q428.0938,1054.1406 428.5156,1053.7031 Q428.7813,1053.4375 428.9219,1053.3594 Q429.0781,1053.2813 429.2813,1053.2813 Q429.6094,1053.2813 429.8594,1053.5469 Q430.125,1053.7969 430.125,1054.1406 Q430.125,1054.4844 429.7813,1054.8906 Q429.2813,1055.4688 428.4844,1055.7969 Q427.4063,1056.25 426.1094,1056.25 Q424.5938,1056.25 423.3906,1055.625 Q422.4063,1055.125 421.7188,1054.0625 Q421.0313,1052.9844 421.0313,1051.7031 L421.0313,1050.5469 Q421.0313,1049.2188 421.6406,1048.0781 Q422.2656,1046.9219 423.3594,1046.3125 Q424.4531,1045.6875 425.6875,1045.6875 Q426.4219,1045.6875 427.0625,1045.8594 Q427.7188,1046.0156 428.2656,1046.375 Z " fill="#000000"/><text fill="#000000" font-family="sans-serif" font-size="14" lengthAdjust="spacing" textLength="103" x="439.5" y="1056.2285">ParalyzingSpore</text><line style="stroke:#181818;stroke-width:0.5;" x1="411.5" x2="544.5" y1="1066.5" y2="1066.5"/><line style="stroke:#181818;stroke-width:0.5;" x1="411.5" x2="544.5" y1="1074.5" y2="1074.5"/></g><!--class ClawParalyzingSpore--><g id="elem_ClawParalyzingSpore"><rect codeLine="23" fill="#F1F1F1" height="48" id="ClawParalyzingSpore" rx="2.5" ry="2.5" style="stroke:#181818;stroke-width:0.5;" width="165" x="580.5" y="1034.5"/><ellipse cx="595.5" cy="1050.5" fill="#ADD1B2" rx="11" ry="11" style="stroke:#181818;stroke-width:1.0;"/><path d="M598.2656,1046.375 Q598.4219,1046.1563 598.6094,1046.0469 Q598.7969,1045.9375 599.0156,1045.9375 Q599.3906,1045.9375 599.625,1046.2031 Q599.8594,1046.4531 599.8594,1047.0625 L599.8594,1048.5156 Q599.8594,1049.125 599.625,1049.3906 Q599.3906,1049.6563 599.0156,1049.6563 Q598.6719,1049.6563 598.4688,1049.4531 Q598.2656,1049.2656 598.1563,1048.75 Q598.1094,1048.3906 597.9219,1048.2031 Q597.5938,1047.8281 596.9844,1047.6094 Q596.375,1047.3906 595.75,1047.3906 Q594.9844,1047.3906 594.3438,1047.7188 Q593.7188,1048.0469 593.2188,1048.7969 Q592.7344,1049.5469 592.7344,1050.5781 L592.7344,1051.6719 Q592.7344,1052.9063 593.625,1053.7344 Q594.5156,1054.5469 596.1094,1054.5469 Q597.0469,1054.5469 597.7031,1054.2969 Q598.0938,1054.1406 598.5156,1053.7031 Q598.7813,1053.4375 598.9219,1053.3594 Q599.0781,1053.2813 599.2813,1053.2813 Q599.6094,1053.2813 599.8594,1053.5469 Q600.125,1053.7969 600.125,1054.1406 Q600.125,1054.4844 599.7813,1054.8906 Q599.2813,1055.4688 598.4844,1055.7969 Q597.4063,1056.25 596.1094,1056.25 Q594.5938,1056.25 593.3906,1055.625 Q592.4063,1055.125 591.7188,1054.0625 Q591.0313,1052.9844 591.0313,1051.7031 L591.0313,1050.5469 Q591.0313,1049.2188 591.6406,1048.0781 Q592.2656,1046.9219 593.3594,1046.3125 Q594.4531,1045.6875 595.6875,1045.6875 Q596.4219,1045.6875 597.0625,1045.8594 Q597.7188,1046.0156 598.2656,1046.375 Z " fill="#000000"/><text fill="#000000" font-family="sans-serif" font-size="14" lengthAdjust="spacing" textLength="133" x="609.5" y="1056.2285">ClawParalyzingSpore</text><line style="stroke:#181818;stroke-width:0.5;" x1="581.5" x2="744.5" y1="1066.5" y2="1066.5"/><line style="stroke:#181818;stroke-width:0.5;" x1="581.5" x2="744.5" y1="1074.5" y2="1074.5"/></g><!--class Slow--><g id="elem_Slow"><rect codeLine="8" fill="#F1F1F1" height="48" id="Slow" rx="2.5" ry="2.5" style="stroke:#181818;stroke-width:0.5;" width="61" x="117.5" y="829"/><ellipse cx="132.5" cy="845" fill="#ADD1B2" rx="11" ry="11" style="stroke:#181818;stroke-width:1.0;"/><path d="M135.2656,840.875 Q135.4219,840.6563 135.6094,840.5469 Q135.7969,840.4375 136.0156,840.4375 Q136.3906,840.4375 136.625,840.7031 Q136.8594,840.9531 136.8594,841.5625 L136.8594,843.0156 Q136.8594,843.625 136.625,843.8906 Q136.3906,844.1563 136.0156,844.1563 Q135.6719,844.1563 135.4688,843.9531 Q135.2656,843.7656 135.1563,843.25 Q135.1094,842.8906 134.9219,842.7031 Q134.5938,842.3281 133.9844,842.1094 Q133.375,841.8906 132.75,841.8906 Q131.9844,841.8906 131.3438,842.2188 Q130.7188,842.5469 130.2188,843.2969 Q129.7344,844.0469 129.7344,845.0781 L129.7344,846.1719 Q129.7344,847.4063 130.625,848.2344 Q131.5156,849.0469 133.1094,849.0469 Q134.0469,849.0469 134.7031,848.7969 Q135.0938,848.6406 135.5156,848.2031 Q135.7813,847.9375 135.9219,847.8594 Q136.0781,847.7813 136.2813,847.7813 Q136.6094,847.7813 136.8594,848.0469 Q137.125,848.2969 137.125,848.6406 Q137.125,848.9844 136.7813,849.3906 Q136.2813,849.9688 135.4844,850.2969 Q134.4063,850.75 133.1094,850.75 Q131.5938,850.75 130.3906,850.125 Q129.4063,849.625 128.7188,848.5625 Q128.0313,847.4844 128.0313,846.2031 L128.0313,845.0469 Q128.0313,843.7188 128.6406,842.5781 Q129.2656,841.4219 130.3594,840.8125 Q131.4531,840.1875 132.6875,840.1875 Q133.4219,840.1875 134.0625,840.3594 Q134.7188,840.5156 135.2656,840.875 Z " fill="#000000"/><text fill="#000000" font-family="sans-serif" font-size="14" lengthAdjust="spacing" textLength="29" x="146.5" y="850.7285">Slow</text><line style="stroke:#181818;stroke-width:0.5;" x1="118.5" x2="177.5" y1="861" y2="861"/><line style="stroke:#181818;stroke-width:0.5;" x1="118.5" x2="177.5" y1="869" y2="869"/></g><!--class Fast--><g id="elem_Fast"><rect codeLine="12" fill="#F1F1F1" height="48" id="Fast" rx="2.5" ry="2.5" style="stroke:#181818;stroke-width:0.5;" width="60" x="22" y="829"/><ellipse cx="37" cy="845" fill="#ADD1B2" rx="11" ry="11" style="stroke:#181818;stroke-width:1.0;"/><path d="M39.7656,840.875 Q39.9219,840.6563 40.1094,840.5469 Q40.2969,840.4375 40.5156,840.4375 Q40.8906,840.4375 41.125,840.7031 Q41.3594,840.9531 41.3594,841.5625 L41.3594,843.0156 Q41.3594,843.625 41.125,843.8906 Q40.8906,844.1563 40.5156,844.1563 Q40.1719,844.1563 39.9688,843.9531 Q39.7656,843.7656 39.6563,843.25 Q39.6094,842.8906 39.4219,842.7031 Q39.0938,842.3281 38.4844,842.1094 Q37.875,841.8906 37.25,841.8906 Q36.4844,841.8906 35.8438,842.2188 Q35.2188,842.5469 34.7188,843.2969 Q34.2344,844.0469 34.2344,845.0781 L34.2344,846.1719 Q34.2344,847.4063 35.125,848.2344 Q36.0156,849.0469 37.6094,849.0469 Q38.5469,849.0469 39.2031,848.7969 Q39.5938,848.6406 40.0156,848.2031 Q40.2813,847.9375 40.4219,847.8594 Q40.5781,847.7813 40.7813,847.7813 Q41.1094,847.7813 41.3594,848.0469 Q41.625,848.2969 41.625,848.6406 Q41.625,848.9844 41.2813,849.3906 Q40.7813,849.9688 39.9844,850.2969 Q38.9063,850.75 37.6094,850.75 Q36.0938,850.75 34.8906,850.125 Q33.9063,849.625 33.2188,848.5625 Q32.5313,847.4844 32.5313,846.2031 L32.5313,845.0469 Q32.5313,843.7188 33.1406,842.5781 Q33.7656,841.4219 34.8594,840.8125 Q35.9531,840.1875 37.1875,840.1875 Q37.9219,840.1875 38.5625,840.3594 Q39.2188,840.5156 39.7656,840.875 Z " fill="#000000"/><text fill="#000000" font-family="sans-serif" font-size="14" lengthAdjust="spacing" textLength="28" x="51" y="850.7285">Fast</text><line style="stroke:#181818;stroke-width:0.5;" x1="23" x2="81" y1="861" y2="861"/><line style="stroke:#181818;stroke-width:0.5;" x1="23" x2="81" y1="869" y2="869"/></g><!--class Paralyze--><g id="elem_Paralyze"><rect codeLine="16" fill="#F1F1F1" height="48" id="Paralyze" rx="2.5" ry="2.5" style="stroke:#181818;stroke-width:0.5;" width="86" x="365" y="829"/><ellipse cx="380" cy="845" fill="#ADD1B2" rx="11" ry="11" style="stroke:#181818;stroke-width:1.0;"/><path d="M382.7656,840.875 Q382.9219,840.6563 383.1094,840.5469 Q383.2969,840.4375 383.5156,840.4375 Q383.8906,840.4375 384.125,840.7031 Q384.3594,840.9531 384.3594,841.5625 L384.3594,843.0156 Q384.3594,843.625 384.125,843.8906 Q383.8906,844.1563 383.5156,844.1563 Q383.1719,844.1563 382.9688,843.9531 Q382.7656,843.7656 382.6563,843.25 Q382.6094,842.8906 382.4219,842.7031 Q382.0938,842.3281 381.4844,842.1094 Q380.875,841.8906 380.25,841.8906 Q379.4844,841.8906 378.8438,842.2188 Q378.2188,842.5469 377.7188,843.2969 Q377.2344,844.0469 377.2344,845.0781 L377.2344,846.1719 Q377.2344,847.4063 378.125,848.2344 Q379.0156,849.0469 380.6094,849.0469 Q381.5469,849.0469 382.2031,848.7969 Q382.5938,848.6406 383.0156,848.2031 Q383.2813,847.9375 383.4219,847.8594 Q383.5781,847.7813 383.7813,847.7813 Q384.1094,847.7813 384.3594,848.0469 Q384.625,848.2969 384.625,848.6406 Q384.625,848.9844 384.2813,849.3906 Q383.7813,849.9688 382.9844,850.2969 Q381.9063,850.75 380.6094,850.75 Q379.0938,850.75 377.8906,850.125 Q376.9063,849.625 376.2188,848.5625 Q375.5313,847.4844 375.5313,846.2031 L375.5313,845.0469 Q375.5313,843.7188 376.1406,842.5781 Q376.7656,841.4219 377.8594,840.8125 Q378.9531,840.1875 380.1875,840.1875 Q380.9219,840.1875 381.5625,840.3594 Q382.2188,840.5156 382.7656,840.875 Z " fill="#000000"/><text fill="#000000" font-family="sans-serif" font-size="14" lengthAdjust="spacing" textLength="54" x="394" y="850.7285">Paralyze</text><line style="stroke:#181818;stroke-width:0.5;" x1="366" x2="450" y1="861" y2="861"/><line style="stroke:#181818;stroke-width:0.5;" x1="366" x2="450" y1="869" y2="869"/></g><!--class ClawParalyze--><g id="elem_ClawParalyze"><rect codeLine="20" fill="#F1F1F1" height="48" id="ClawParalyze" rx="2.5" ry="2.5" style="stroke:#181818;stroke-width:0.5;" width="116" x="214" y="829"/><ellipse cx="229" cy="845" fill="#ADD1B2" rx="11" ry="11" style="stroke:#181818;stroke-width:1.0;"/><path d="M231.7656,840.875 Q231.9219,840.6563 232.1094,840.5469 Q232.2969,840.4375 232.5156,840.4375 Q232.8906,840.4375 233.125,840.7031 Q233.3594,840.9531 233.3594,841.5625 L233.3594,843.0156 Q233.3594,843.625 233.125,843.8906 Q232.8906,844.1563 232.5156,844.1563 Q232.1719,844.1563 231.9688,843.9531 Q231.7656,843.7656 231.6563,843.25 Q231.6094,842.8906 231.4219,842.7031 Q231.0938,842.3281 230.4844,842.1094 Q229.875,841.8906 229.25,841.8906 Q228.4844,841.8906 227.8438,842.2188 Q227.2188,842.5469 226.7188,843.2969 Q226.2344,844.0469 226.2344,845.0781 L226.2344,846.1719 Q226.2344,847.4063 227.125,848.2344 Q228.0156,849.0469 229.6094,849.0469 Q230.5469,849.0469 231.2031,848.7969 Q231.5938,848.6406 232.0156,848.2031 Q232.2813,847.9375 232.4219,847.8594 Q232.5781,847.7813 232.7813,847.7813 Q233.1094,847.7813 233.3594,848.0469 Q233.625,848.2969 233.625,848.6406 Q233.625,848.9844 233.2813,849.3906 Q232.7813,849.9688 231.9844,850.2969 Q230.9063,850.75 229.6094,850.75 Q228.0938,850.75 226.8906,850.125 Q225.9063,849.625 225.2188,848.5625 Q224.5313,847.4844 224.5313,846.2031 L224.5313,845.0469 Q224.5313,843.7188 225.1406,842.5781 Q225.7656,841.4219 226.8594,840.8125 Q227.9531,840.1875 229.1875,840.1875 Q229.9219,840.1875 230.5625,840.3594 Q231.2188,840.5156 231.7656,840.875 Z " fill="#000000"/><text fill="#000000" font-family="sans-serif" font-size="14" lengthAdjust="spacing" textLength="84" x="243" y="850.7285">ClawParalyze</text><line style="stroke:#181818;stroke-width:0.5;" x1="215" x2="329" y1="861" y2="861"/><line style="stroke:#181818;stroke-width:0.5;" x1="215" x2="329" y1="869" y2="869"/></g><!--reverse link IOnTurn to Player--><g id="link_IOnTurn_Player"><path codeLine="1" d="M1150,152.09 C1150,179.3 1150,200.49 1150,229.88 " fill="none" id="IOnTurn-backto-Player" style="stroke:#181818;stroke-width:1.0;stroke-dasharray:7.0,7.0;"/><polygon fill="none" points="1150,134.09,1144,152.09,1156,152.09,1150,134.09" style="stroke:#181818;stroke-width:1.0;"/></g><!--reverse link Player to Mushroomer--><g id="link_Player_Mushroomer"><path codeLine="7" d="M1175.2905,329.6819 C1188.3505,359.2119 1199.03,383.35 1214.21,417.67 " fill="none" id="Player-backto-Mushroomer" style="stroke:#181818;stroke-width:1.0;"/><polygon fill="none" points="1168.01,313.22,1169.8032,332.1087,1180.7778,327.2551,1168.01,313.22" style="stroke:#181818;stroke-width:1.0;"/></g><!--reverse link Mushroomer to MushroomStem--><g id="link_Mushroomer_MushroomStem"><path codeLine="8" d="M1299.028,563.9869 C1338.908,623.6569 1385.73,705.05 1408,794 C1420.74,844.87 1417.27,860.38 1408,912 C1404.38,932.16 1398.15,953.17 1391.18,972.75 " fill="none" id="Mushroomer-backto-MushroomStem" style="stroke:#181818;stroke-width:1.0;"/><polygon fill="none" points="1292.36,554.01,1292.3684,561.2211,1299.028,563.9869,1299.0196,556.7758,1292.36,554.01" style="stroke:#181818;stroke-width:1.0;"/><text fill="#000000" font-family="sans-serif" font-size="13" lengthAdjust="spacing" textLength="20" x="1373.5158" y="962.1922">1..*</text></g><!--reverse link Mushroomer to MushroomThread--><g id="link_Mushroomer_MushroomThread"><path codeLine="9" d="M1189.7882,564.2308 C1150.3982,624.0208 1103.79,705.44 1080,794 C1058.27,874.9 1063.01,974.79 1067.48,1025.18 " fill="none" id="Mushroomer-backto-MushroomThread" style="stroke:#181818;stroke-width:1.0;"/><polygon fill="none" points="1196.39,554.21,1189.7488,557.0198,1189.7882,564.2308,1196.4294,561.421,1196.39,554.21" style="stroke:#181818;stroke-width:1.0;"/><text fill="#000000" font-family="sans-serif" font-size="13" lengthAdjust="spacing" textLength="20" x="1044.8183" y="1014.6133">0..*</text></g><!--link Mushroomer to Colony--><g id="link_Mushroomer_Colony"><path codeLine="10" d="M1244,554.37 C1244,629.66 1244,749.13 1244,811.33 " fill="none" id="Mushroomer-Colony" style="stroke:#181818;stroke-width:1.0;"/><text fill="#000000" font-family="sans-serif" font-size="13" lengthAdjust="spacing" textLength="20" x="1222.3438" y="800.6095">1..*</text></g><!--link Insecter to Player--><g id="link_Insecter_Player"><path codeLine="19" d="M1014.53,160.22 C1042.69,183.15 1060.3994,197.5676 1086.0294,218.4276 " fill="none" id="Insecter-to-Player" style="stroke:#181818;stroke-width:1.0;"/><polygon fill="none" points="1099.99,229.79,1089.8169,213.7741,1082.242,223.0812,1099.99,229.79" style="stroke:#181818;stroke-width:1.0;"/></g><!--reverse link Insecter to Insect--><g id="link_Insecter_Insect"><path codeLine="20" d="M813.0003,157.6866 C807.2203,160.0166 812.62,157.81 807,160 C731.44,189.48 701.7,174.84 635,221 C429.85,362.97 358.65,415.69 273,650 C260.34,684.65 251.13,703.29 273,733 C327.08,806.47 384.55,759.49 469,794 C474.72,796.34 480.53,798.85 486.36,801.49 " fill="none" id="Insecter-backto-Insect" style="stroke:#181818;stroke-width:1.0;"/><polygon fill="none" points="824.13,153.2,817.0696,151.7334,813.0003,157.6866,820.0607,159.1532,824.13,153.2" style="stroke:#181818;stroke-width:1.0;"/></g><!--reverse link IOnTurn to Map--><g id="link_IOnTurn_Map"><path codeLine="1" d="M1101.912,145.7933 C1090.812,155.0433 1091.85,152.98 1079,160 C998.1,204.16 896.65,234.27 825.71,251.77 " fill="none" id="IOnTurn-backto-Map" style="stroke:#181818;stroke-width:1.0;stroke-dasharray:7.0,7.0;"/><polygon fill="none" points="1115.74,134.27,1098.0709,141.184,1105.7531,150.4026,1115.74,134.27" style="stroke:#181818;stroke-width:1.0;"/></g><!--reverse link IOnRound to Map--><g id="link_IOnRound_Map"><path codeLine="2" d="M732.6695,152.0644 C733.9795,176.6044 734.86,192.9 736.35,220.96 " fill="none" id="IOnRound-backto-Map" style="stroke:#181818;stroke-width:1.0;stroke-dasharray:7.0,7.0;"/><polygon fill="none" points="731.71,134.09,726.678,152.3842,738.661,151.7446,731.71,134.09" style="stroke:#181818;stroke-width:1.0;"/></g><!--reverse link Map to Tecton--><g id="link_Map_Tecton"><path codeLine="3" d="M739,334.05 C739,352.33 739,361.76 739,382.98 " fill="none" id="Map-backto-Tecton" style="stroke:#181818;stroke-width:1.0;"/><polygon fill="#181818" points="739,322.05,735,328.05,739,334.05,743,328.05,739,322.05" style="stroke:#181818;stroke-width:1.0;"/><text fill="#000000" font-family="sans-serif" font-size="13" lengthAdjust="spacing" textLength="7" x="731.5297" y="343.4479">1</text><text fill="#000000" font-family="sans-serif" font-size="13" lengthAdjust="spacing" textLength="20" x="718.2344" y="371.9701">0..*</text></g><!--reverse link IOnTurn to Tecton--><g id="link_IOnTurn_Tecton"><path codeLine="1" d="M1102.1414,146.5914 C1041.0814,203.4914 925.55,311.16 835.76,394.83 " fill="none" id="IOnTurn-backto-Tecton" style="stroke:#181818;stroke-width:1.0;stroke-dasharray:7.0,7.0;"/><polygon fill="none" points="1115.31,134.32,1098.0509,142.2019,1106.2319,150.981,1115.31,134.32" style="stroke:#181818;stroke-width:1.0;"/></g><!--reverse link IOnRound to Tecton--><g id="link_IOnRound_Tecton"><path codeLine="2" d="M681.6567,146.862 C659.9267,168.882 646.8,187.32 635,221 C620.16,263.37 622.42,278.91 635,322 C641.07,342.78 650.68,363.44 661.66,382.72 " fill="none" id="IOnRound-backto-Tecton" style="stroke:#181818;stroke-width:1.0;stroke-dasharray:7.0,7.0;"/><polygon fill="none" points="694.3,134.05,677.3861,142.6476,685.9274,151.0764,694.3,134.05" style="stroke:#181818;stroke-width:1.0;"/></g><!--reverse link Tecton to Tecton--><g id="link_Tecton_Tecton"><path codeLine="3" d="M847.5312,463.5373 C867.8012,466.0173 870.5,472.53 870.5,486 C870.5,499.47 855.89,507.44 835.62,509.92 " fill="none" id="Tecton-backto-Tecton" style="stroke:#181818;stroke-width:1.0;"/><polygon fill="none" points="835.62,462.08,841.0898,466.7791,847.5312,463.5373,842.0614,458.8383,835.62,462.08" style="stroke:#181818;stroke-width:1.0;"/><text fill="#000000" font-family="sans-serif" font-size="13" lengthAdjust="spacing" textLength="56" x="876.5" y="491.4951">neighbour</text></g><!--reverse link Tecton to Entity--><g id="link_Tecton_Entity"><path codeLine="4" d="M631.4914,538.0829 C565.6814,569.8229 487.76,608.47 411,650 C405.38,653.04 399.55,656.3 393.77,659.59 " fill="none" id="Tecton-backto-Entity" style="stroke:#181818;stroke-width:1.0;"/><polygon fill="#181818" points="642.3,532.87,635.1581,531.8736,631.4914,538.0829,638.6334,539.0793,642.3,532.87" style="stroke:#181818;stroke-width:1.0;"/><text fill="#000000" font-family="sans-serif" font-size="13" lengthAdjust="spacing" textLength="20" x="401.6843" y="651.9802">0..*</text></g><!--reverse link Tecton to SingleThreadedTecton--><g id="link_Tecton_SingleThreadedTecton"><path codeLine="23" d="M742.5386,607.0422 C743.2786,632.2322 743.49,639.4 744.05,658.37 " fill="none" id="Tecton-backto-SingleThreadedTecton" style="stroke:#181818;stroke-width:1.0;"/><polygon fill="none" points="742.01,589.05,736.5411,607.2184,748.536,606.8661,742.01,589.05" style="stroke:#181818;stroke-width:1.0;"/></g><!--reverse link Tecton to StemlessTecton--><g id="link_Tecton_StemlessTecton"><path codeLine="30" d="M848.5562,594.1881 C876.7762,621.7981 892.85,637.53 914.15,658.36 " fill="none" id="Tecton-backto-StemlessTecton" style="stroke:#181818;stroke-width:1.0;"/><polygon fill="none" points="835.69,581.6,844.3602,598.4768,852.7523,589.8994,835.69,581.6" style="stroke:#181818;stroke-width:1.0;"/></g><!--reverse link Tecton to ThreadConsumingTecton--><g id="link_Tecton_ThreadConsumingTecton"><path codeLine="37" d="M629.2851,591.3329 C594.9451,623.9829 572.22,645.59 549.34,667.35 " fill="none" id="Tecton-backto-ThreadConsumingTecton" style="stroke:#181818;stroke-width:1.0;"/><polygon fill="none" points="642.33,578.93,625.1508,586.9846,633.4194,595.6812,642.33,578.93" style="stroke:#181818;stroke-width:1.0;"/></g><!--reverse link Entity to Spore--><g id="link_Entity_Spore"><path codeLine="2" d="M409.9241,733.4005 C415.5841,736.2705 405.3,730.78 411,733 C531.31,779.83 577.58,740.35 695,794 C705.2,798.66 715.33,804.85 724.74,811.46 " fill="none" id="Entity-backto-Spore" style="stroke:#181818;stroke-width:1.0;"/><polygon fill="none" points="393.87,725.26,407.2106,738.7518,412.6375,728.0491,393.87,725.26" style="stroke:#181818;stroke-width:1.0;"/></g><!--reverse link Spore to Effect--><g id="link_Spore_Effect"><path codeLine="3" d="M716.0497,901.5222 C706.3797,908.2922 705.69,907.63 695,912 C598.11,951.57 324.88,933.39 228,973 C202.86,983.28 178.37,1000.63 158.74,1016.95 " fill="none" id="Spore-backto-Effect" style="stroke:#181818;stroke-width:1.0;"/><polygon fill="none" points="725.88,894.64,718.6708,894.8043,716.0497,901.5222,723.2589,901.3579,725.88,894.64" style="stroke:#181818;stroke-width:1.0;"/></g><!--reverse link Spore to SlowingSpore--><g id="link_Spore_SlowingSpore"><path codeLine="10" d="M791.3043,911.7622 C805.2943,953.6322 820.9,1000.33 832.25,1034.3 " fill="none" id="Spore-backto-SlowingSpore" style="stroke:#181818;stroke-width:1.0;"/><polygon fill="none" points="785.6,894.69,785.6136,913.6637,796.9951,909.8608,785.6,894.69" style="stroke:#181818;stroke-width:1.0;"/></g><!--reverse link Spore to SpeedingSpore--><g id="link_Spore_SpeedingSpore"><path codeLine="14" d="M710.0534,904.976 C700.6434,911.576 705.23,907.4 695,912 C570.1,968.14 513.38,907.73 393,973 C365.52,987.9 341.41,1014.89 326.36,1034.37 " fill="none" id="Spore-backto-SpeedingSpore" style="stroke:#181818;stroke-width:1.0;"/><polygon fill="none" points="724.79,894.64,706.6081,900.0638,713.4987,909.8882,724.79,894.64" style="stroke:#181818;stroke-width:1.0;"/></g><!--reverse link Spore to ParalyzingSpore--><g id="link_Spore_ParalyzingSpore"><path codeLine="18" d="M706.6617,905.0726 C698.1017,911.2226 703.76,906.76 695,912 C639.54,945.19 616.06,936.1 563,973 C537.72,990.58 513.26,1016.08 497.12,1034.46 " fill="none" id="Spore-backto-ParalyzingSpore" style="stroke:#181818;stroke-width:1.0;"/><polygon fill="none" points="721.28,894.57,703.1608,900.1999,710.1626,909.9454,721.28,894.57" style="stroke:#181818;stroke-width:1.0;"/></g><!--reverse link Spore to ClawParalyzingSpore--><g id="link_Spore_ClawParalyzingSpore"><path codeLine="22" d="M741.7031,910.5583 C719.2831,952.4283 693.62,1000.33 675.43,1034.3 " fill="none" id="Spore-backto-ClawParalyzingSpore" style="stroke:#181818;stroke-width:1.0;"/><polygon fill="none" points="750.2,894.69,736.4136,907.726,746.9925,913.3906,750.2,894.69" style="stroke:#181818;stroke-width:1.0;"/></g><!--reverse link Entity to MushroomThread--><g id="link_Entity_MushroomThread"><path codeLine="2" d="M409.8717,733.6146 C415.5617,736.4046 405.23,730.99 411,733 C596.65,797.54 676.94,698.99 849,794 C862.04,801.2 989.27,956.82 1045.03,1025.46 " fill="none" id="Entity-backto-MushroomThread" style="stroke:#181818;stroke-width:1.0;"/><polygon fill="none" points="393.71,725.69,407.2302,739.0019,412.5132,728.2274,393.71,725.69" style="stroke:#181818;stroke-width:1.0;"/></g><!--reverse link IOnTurn to MushroomStem--><g id="link_IOnTurn_MushroomStem"><path codeLine="2" d="M1221.1384,108.7322 C1310.7184,119.6222 1464,153.57 1464,270.5 C1464,270.5 1464,270.5 1464,854 C1464,896.17 1445.49,937.98 1423.66,972.63 " fill="none" id="IOnTurn-backto-MushroomStem" style="stroke:#181818;stroke-width:1.0;stroke-dasharray:7.0,7.0;"/><polygon fill="none" points="1203.27,106.56,1220.4144,114.6884,1221.8625,102.7761,1203.27,106.56" style="stroke:#181818;stroke-width:1.0;"/></g><!--reverse link IOnRound to MushroomStem--><g id="link_IOnRound_MushroomStem"><path codeLine="3" d="M786.9668,144.9209 C876.3668,212.2709 1061,351.44 1061,352 C1061,352 1061,352 1061,854 C1061,881.13 1061.62,892.05 1080,912 C1127.38,963.41 1163.28,940.15 1225,973 C1230.91,976.14 1236.89,979.48 1242.88,982.94 " fill="none" id="IOnRound-backto-MushroomStem" style="stroke:#181818;stroke-width:1.0;stroke-dasharray:7.0,7.0;"/><polygon fill="none" points="772.59,134.09,783.3565,149.7131,790.5771,140.1286,772.59,134.09" style="stroke:#181818;stroke-width:1.0;"/></g><!--reverse link Entity to MushroomStem--><g id="link_Entity_MushroomStem"><path codeLine="4" d="M409.8567,733.7568 C415.5767,736.4668 405.17,731.16 411,733 C571.32,783.49 622.2,735.37 788,763 C842.76,772.12 861.06,766.01 909,794 C988.27,840.27 970.96,899.9 1052,943 C1120.9,979.64 1152.41,944.36 1225,973 C1230.98,975.36 1236.97,978.02 1242.92,980.9 " fill="none" id="Entity-backto-MushroomStem" style="stroke:#181818;stroke-width:1.0;"/><polygon fill="none" points="393.59,726.05,407.2878,739.179,412.4256,728.3345,393.59,726.05" style="stroke:#181818;stroke-width:1.0;"/></g><!--reverse link Entity to Insect--><g id="link_Entity_Insect"><path codeLine="2" d="M408.7702,736.8746 C438.1202,756.3846 460.64,771.34 494.43,793.8 " fill="none" id="Entity-backto-Insect" style="stroke:#181818;stroke-width:1.0;"/><polygon fill="none" points="393.78,726.91,405.4487,741.8713,412.0918,731.8778,393.78,726.91" style="stroke:#181818;stroke-width:1.0;"/></g><!--reverse link Insect to Effect--><g id="link_Insect_Effect"><path codeLine="3" d="M475.1752,909.7816 C469.4152,912.2716 474.67,909.86 469,912 C365.64,951.03 327.63,925.23 228,973 C204.28,984.37 180.64,1001.19 161.23,1016.83 " fill="none" id="Insect-backto-Effect" style="stroke:#181818;stroke-width:1.0;"/><polygon fill="#181818" points="486.19,905.02,479.0954,903.7292,475.1752,909.7816,482.2698,911.0724,486.19,905.02" style="stroke:#181818;stroke-width:1.0;"/></g><!--reverse link Colony to MushroomStem--><g id="link_Colony_MushroomStem"><path codeLine="3" d="M1271.7052,905.247 C1283.8052,927.637 1293.58,945.72 1308.17,972.72 " fill="none" id="Colony-backto-MushroomStem" style="stroke:#181818;stroke-width:1.0;"/><polygon fill="none" points="1266,894.69,1265.3336,901.8702,1271.7052,905.247,1272.3716,898.0668,1266,894.69" style="stroke:#181818;stroke-width:1.0;"/><text fill="#000000" font-family="sans-serif" font-size="13" lengthAdjust="spacing" textLength="20" x="1283.3721" y="962.1596">1..*</text></g><!--reverse link Colony to MushroomThread--><g id="link_Colony_MushroomThread"><path codeLine="4" d="M1201.637,903.8323 C1168.997,942.2223 1128.48,989.88 1098.43,1025.24 " fill="none" id="Colony-backto-MushroomThread" style="stroke:#181818;stroke-width:1.0;"/><polygon fill="none" points="1209.41,894.69,1202.4761,896.6702,1201.637,903.8323,1208.5709,901.8521,1209.41,894.69" style="stroke:#181818;stroke-width:1.0;"/><text fill="#000000" font-family="sans-serif" font-size="13" lengthAdjust="spacing" textLength="20" x="1081.8615" y="1014.6851">0..*</text></g><!--link Slow to Effect--><g id="link_Slow_Effect"><path codeLine="7" d="M144.33,877.34 C138.98,911.38 131.7584,957.3289 125.1784,999.1389 " fill="none" id="Slow-to-Effect" style="stroke:#181818;stroke-width:1.0;"/><polygon fill="none" points="122.38,1016.92,131.1054,1000.0716,119.2513,998.2061,122.38,1016.92" style="stroke:#181818;stroke-width:1.0;"/></g><!--link Fast to Effect--><g id="link_Fast_Effect"><path codeLine="11" d="M59.34,877.34 C70.05,911.38 84.6895,957.9393 97.8395,999.7493 " fill="none" id="Fast-to-Effect" style="stroke:#181818;stroke-width:1.0;"/><polygon fill="none" points="103.24,1016.92,103.5631,997.9491,92.1159,1001.5494,103.24,1016.92" style="stroke:#181818;stroke-width:1.0;"/></g><!--link Paralyze to Effect--><g id="link_Paralyze_Effect"><path codeLine="15" d="M387.18,877.17 C376.22,888.53 362.16,901.91 348,912 C299.28,946.73 278.74,941.3 228,973 C206.93,986.16 199.1241,991.2581 180.2041,1005.8481 " fill="none" id="Paralyze-to-Effect" style="stroke:#181818;stroke-width:1.0;"/><polygon fill="none" points="165.95,1016.84,183.868,1010.5995,176.5401,1001.0967,165.95,1016.84" style="stroke:#181818;stroke-width:1.0;"/></g><!--link ClawParalyze to Effect--><g id="link_ClawParalyze_Effect"><path codeLine="19" d="M254.1,877.34 C228.01,911.38 190.1108,960.8244 158.0608,1002.6344 " fill="none" id="ClawParalyze-to-Effect" style="stroke:#181818;stroke-width:1.0;"/><polygon fill="none" points="147.11,1016.92,162.8227,1006.2846,153.299,998.9841,147.11,1016.92" style="stroke:#181818;stroke-width:1.0;"/></g><!--SRC=[VSxD3SCm20NWUwTm5-WowGB8mObLyoCCXoZgxisfKYLKZdmFz1Jg2pOiBNWJwq7dhLnpxrn7h5Xqm87sqA3n2mIQR1sh2oU0xDsF1AQAOVO_vcuYzDmDOVqJM1mfuSxpwf90bI6SDS7MlXVl3m00]--></g></svg>