<?xml version="1.0" encoding="us-ascii" standalone="no"?><svg xmlns="http://www.w3.org/2000/svg" xmlns:xlink="http://www.w3.org/1999/xlink" contentStyleType="text/css" height="1167px" preserveAspectRatio="none" style="width:1459px;height:1167px;background:#FFFFFF;" version="1.1" viewBox="0 0 1459 1167" width="1459px" zoomAndPan="magnify"><defs/><g><!--cluster fungorium--><g id="cluster_fungorium"><path d="M8.5,6 L81.5,6 A3.75,3.75 0 0 1 84,8.5 L91,29.6094 L1449.5,29.6094 A2.5,2.5 0 0 1 1452,32.1094 L1452,1157.5 A2.5,2.5 0 0 1 1449.5,1160 L8.5,1160 A2.5,2.5 0 0 1 6,1157.5 L6,8.5 A2.5,2.5 0 0 1 8.5,6 " fill="none" style="stroke:#000000;stroke-width:1.5;"/><line style="stroke:#000000;stroke-width:1.5;" x1="6" x2="91" y1="29.6094" y2="29.6094"/><text fill="#000000" font-family="sans-serif" font-size="14" font-weight="bold" lengthAdjust="spacing" textLength="72" x="10" y="22.5332">fungorium</text></g><!--class IOnTurn--><g id="elem_IOnTurn"><rect codeLine="6" fill="#F1F1F1" height="65.6094" id="IOnTurn" rx="2.5" ry="2.5" style="stroke:#181818;stroke-width:0.5;" width="106" x="1015" y="68"/><ellipse cx="1039.45" cy="84" fill="#B4A7E5" rx="11" ry="11" style="stroke:#181818;stroke-width:1.0;"/><path d="M1040.4031,80.6406 L1040.4031,87.2969 L1042.1219,87.2969 Q1042.7313,87.2969 1042.9969,87.5313 Q1043.2625,87.7656 1043.2625,88.1563 Q1043.2625,88.5313 1042.9969,88.7656 Q1042.7313,89 1042.1219,89 L1036.9813,89 Q1036.3719,89 1036.1063,88.7656 Q1035.8406,88.5313 1035.8406,88.1406 Q1035.8406,87.7656 1036.1063,87.5313 Q1036.3719,87.2969 1036.9813,87.2969 L1038.7,87.2969 L1038.7,80.6406 L1036.9813,80.6406 Q1036.3719,80.6406 1036.1063,80.4063 Q1035.8406,80.1719 1035.8406,79.7813 Q1035.8406,79.4063 1036.1063,79.1719 Q1036.3719,78.9375 1036.9813,78.9375 L1042.1219,78.9375 Q1042.7313,78.9375 1042.9969,79.1719 Q1043.2625,79.4063 1043.2625,79.7813 Q1043.2625,80.1719 1042.9969,80.4063 Q1042.7313,80.6406 1042.1219,80.6406 L1040.4031,80.6406 Z " fill="#000000"/><text fill="#000000" font-family="sans-serif" font-size="14" font-style="italic" lengthAdjust="spacing" textLength="53" x="1055.55" y="89.7285">IOnTurn</text><line style="stroke:#181818;stroke-width:0.5;" x1="1016" x2="1120" y1="100" y2="100"/><line style="stroke:#181818;stroke-width:0.5;" x1="1016" x2="1120" y1="108" y2="108"/><text fill="#000000" font-family="sans-serif" font-size="14" lengthAdjust="spacing" textLength="94" x="1021" y="126.5332">onTurn() : void</text></g><!--class Player--><g id="elem_Player"><rect codeLine="2" fill="#F1F1F1" height="83.2188" id="Player" rx="2.5" ry="2.5" style="stroke:#181818;stroke-width:0.5;" width="103" x="1142.5" y="230"/><ellipse cx="1171.45" cy="246" fill="#A9DCDF" rx="11" ry="11" style="stroke:#181818;stroke-width:1.0;"/><path d="M1173.6375,247.7656 L1169.4969,247.7656 L1169.075,248.7969 L1169.4969,248.7969 Q1170.1063,248.7969 1170.3719,249.0313 Q1170.6375,249.2656 1170.6375,249.6563 Q1170.6375,250.0313 1170.3719,250.2656 Q1170.1063,250.5 1169.4969,250.5 L1167.2,250.5 Q1166.5906,250.5 1166.3406,250.2656 Q1166.075,250.0313 1166.075,249.6406 Q1166.075,249.2656 1166.3563,249.0313 Q1166.6219,248.7813 1167.2469,248.7969 L1169.9188,242.1406 L1168.8094,242.1406 Q1168.2,242.1406 1167.9344,241.9063 Q1167.6688,241.6719 1167.6688,241.2813 Q1167.6688,240.9063 1167.9344,240.6719 Q1168.2,240.4375 1168.8094,240.4375 L1172.4813,240.4375 L1175.8719,248.7969 Q1176.4656,248.7969 1176.6531,248.9375 Q1177.0438,249.2031 1177.0438,249.6563 Q1177.0438,250.0313 1176.7781,250.2656 Q1176.5281,250.5 1175.9188,250.5 L1173.6219,250.5 Q1173.0125,250.5 1172.7469,250.2656 Q1172.4813,250.0313 1172.4813,249.6406 Q1172.4813,249.2656 1172.7469,249.0313 Q1173.0125,248.7969 1173.6219,248.7969 L1174.0438,248.7969 L1173.6375,247.7656 Z M1172.9188,246.0625 L1171.5594,242.6875 L1170.1844,246.0625 L1172.9188,246.0625 Z " fill="#000000"/><text fill="#000000" font-family="sans-serif" font-size="14" font-style="italic" lengthAdjust="spacing" textLength="40" x="1188.55" y="251.7285">Player</text><line style="stroke:#181818;stroke-width:0.5;" x1="1143.5" x2="1244.5" y1="262" y2="262"/><text fill="#000000" font-family="sans-serif" font-size="14" lengthAdjust="spacing" textLength="91" x="1148.5" y="280.5332">score : Integer</text><text fill="#000000" font-family="sans-serif" font-size="14" lengthAdjust="spacing" textLength="67" x="1148.5" y="298.1426">id : Integer</text><line style="stroke:#181818;stroke-width:0.5;" x1="1143.5" x2="1244.5" y1="305.2188" y2="305.2188"/></g><!--class Mushroomer--><g id="elem_Mushroomer"><rect codeLine="11" fill="#F1F1F1" height="136.0469" id="Mushroomer" rx="2.5" ry="2.5" style="stroke:#181818;stroke-width:0.5;" width="293" x="1142.5" y="418"/><ellipse cx="1245.25" cy="434" fill="#ADD1B2" rx="11" ry="11" style="stroke:#181818;stroke-width:1.0;"/><path d="M1248.0156,429.875 Q1248.1719,429.6563 1248.3594,429.5469 Q1248.5469,429.4375 1248.7656,429.4375 Q1249.1406,429.4375 1249.375,429.7031 Q1249.6094,429.9531 1249.6094,430.5625 L1249.6094,432.0156 Q1249.6094,432.625 1249.375,432.8906 Q1249.1406,433.1563 1248.7656,433.1563 Q1248.4219,433.1563 1248.2188,432.9531 Q1248.0156,432.7656 1247.9063,432.25 Q1247.8594,431.8906 1247.6719,431.7031 Q1247.3438,431.3281 1246.7344,431.1094 Q1246.125,430.8906 1245.5,430.8906 Q1244.7344,430.8906 1244.0938,431.2188 Q1243.4688,431.5469 1242.9688,432.2969 Q1242.4844,433.0469 1242.4844,434.0781 L1242.4844,435.1719 Q1242.4844,436.4063 1243.375,437.2344 Q1244.2656,438.0469 1245.8594,438.0469 Q1246.7969,438.0469 1247.4531,437.7969 Q1247.8438,437.6406 1248.2656,437.2031 Q1248.5313,436.9375 1248.6719,436.8594 Q1248.8281,436.7813 1249.0313,436.7813 Q1249.3594,436.7813 1249.6094,437.0469 Q1249.875,437.2969 1249.875,437.6406 Q1249.875,437.9844 1249.5313,438.3906 Q1249.0313,438.9688 1248.2344,439.2969 Q1247.1563,439.75 1245.8594,439.75 Q1244.3438,439.75 1243.1406,439.125 Q1242.1563,438.625 1241.4688,437.5625 Q1240.7813,436.4844 1240.7813,435.2031 L1240.7813,434.0469 Q1240.7813,432.7188 1241.3906,431.5781 Q1242.0156,430.4219 1243.1094,429.8125 Q1244.2031,429.1875 1245.4375,429.1875 Q1246.1719,429.1875 1246.8125,429.3594 Q1247.4688,429.5156 1248.0156,429.875 Z " fill="#000000"/><text fill="#000000" font-family="sans-serif" font-size="14" lengthAdjust="spacing" textLength="79" x="1265.75" y="439.7285">Mushroomer</text><line style="stroke:#181818;stroke-width:0.5;" x1="1143.5" x2="1434.5" y1="450" y2="450"/><text fill="#000000" font-family="sans-serif" font-size="14" lengthAdjust="spacing" textLength="253" x="1148.5" y="468.5332">mushroomStems : List&lt;MushroomStem&gt;</text><text fill="#000000" font-family="sans-serif" font-size="14" lengthAdjust="spacing" textLength="281" x="1148.5" y="486.1426">mushroomThreads : List&lt;MushroomThread&gt;</text><line style="stroke:#181818;stroke-width:0.5;" x1="1143.5" x2="1434.5" y1="493.2188" y2="493.2188"/><text fill="#000000" font-family="sans-serif" font-size="14" lengthAdjust="spacing" textLength="149" x="1148.5" y="511.752">getColonies() : Colony[]</text><text fill="#000000" font-family="sans-serif" font-size="14" lengthAdjust="spacing" textLength="155" x="1148.5" y="529.3613">plantStem(Tecton) : void</text><text fill="#000000" font-family="sans-serif" font-size="14" lengthAdjust="spacing" textLength="210" x="1148.5" y="546.9707">throwSpore(Tecton, Spore) : void</text></g><!--class MushroomStem--><g id="elem_MushroomStem"><rect codeLine="5" fill="#F1F1F1" height="171.2656" id="MushroomStem" rx="2.5" ry="2.5" style="stroke:#181818;stroke-width:0.5;" width="222" x="935" y="973"/><ellipse cx="992.75" cy="989" fill="#ADD1B2" rx="11" ry="11" style="stroke:#181818;stroke-width:1.0;"/><path d="M995.5156,984.875 Q995.6719,984.6563 995.8594,984.5469 Q996.0469,984.4375 996.2656,984.4375 Q996.6406,984.4375 996.875,984.7031 Q997.1094,984.9531 997.1094,985.5625 L997.1094,987.0156 Q997.1094,987.625 996.875,987.8906 Q996.6406,988.1563 996.2656,988.1563 Q995.9219,988.1563 995.7188,987.9531 Q995.5156,987.7656 995.4063,987.25 Q995.3594,986.8906 995.1719,986.7031 Q994.8438,986.3281 994.2344,986.1094 Q993.625,985.8906 993,985.8906 Q992.2344,985.8906 991.5938,986.2188 Q990.9688,986.5469 990.4688,987.2969 Q989.9844,988.0469 989.9844,989.0781 L989.9844,990.1719 Q989.9844,991.4063 990.875,992.2344 Q991.7656,993.0469 993.3594,993.0469 Q994.2969,993.0469 994.9531,992.7969 Q995.3438,992.6406 995.7656,992.2031 Q996.0313,991.9375 996.1719,991.8594 Q996.3281,991.7813 996.5313,991.7813 Q996.8594,991.7813 997.1094,992.0469 Q997.375,992.2969 997.375,992.6406 Q997.375,992.9844 997.0313,993.3906 Q996.5313,993.9688 995.7344,994.2969 Q994.6563,994.75 993.3594,994.75 Q991.8438,994.75 990.6406,994.125 Q989.6563,993.625 988.9688,992.5625 Q988.2813,991.4844 988.2813,990.2031 L988.2813,989.0469 Q988.2813,987.7188 988.8906,986.5781 Q989.5156,985.4219 990.6094,984.8125 Q991.7031,984.1875 992.9375,984.1875 Q993.6719,984.1875 994.3125,984.3594 Q994.9688,984.5156 995.5156,984.875 Z " fill="#000000"/><text fill="#000000" font-family="sans-serif" font-size="14" lengthAdjust="spacing" textLength="98" x="1013.25" y="994.7285">MushroomStem</text><line style="stroke:#181818;stroke-width:0.5;" x1="936" x2="1156" y1="1005" y2="1005"/><text fill="#000000" font-family="sans-serif" font-size="14" lengthAdjust="spacing" text-decoration="underline" textLength="165" x="941" y="1023.5332">maxSporeThrows : Integer</text><text fill="#000000" font-family="sans-serif" font-size="14" lengthAdjust="spacing" textLength="139" x="941" y="1041.1426">thrownSpores: Integer</text><text fill="#000000" font-family="sans-serif" font-size="14" lengthAdjust="spacing" textLength="96" x="941" y="1058.752">energy: Integer</text><text fill="#000000" font-family="sans-serif" font-size="14" lengthAdjust="spacing" textLength="81" x="941" y="1076.3613">level: Integer</text><line style="stroke:#181818;stroke-width:0.5;" x1="936" x2="1156" y1="1083.4375" y2="1083.4375"/><text fill="#000000" font-family="sans-serif" font-size="14" lengthAdjust="spacing" textLength="210" x="941" y="1101.9707">throwSpore(Spore, Tecton) : void</text><text fill="#000000" font-family="sans-serif" font-size="14" lengthAdjust="spacing" textLength="113" x="941" y="1119.5801">isDead(): boolean</text><text fill="#000000" font-family="sans-serif" font-size="14" lengthAdjust="spacing" textLength="130" x="941" y="1137.1895">getColony() : Colony</text></g><!--class MushroomThread--><g id="elem_MushroomThread"><rect codeLine="3" fill="#F1F1F1" height="65.6094" id="MushroomThread" rx="2.5" ry="2.5" style="stroke:#181818;stroke-width:0.5;" width="243" x="1192.5" y="1025.5"/><ellipse cx="1253.75" cy="1041.5" fill="#ADD1B2" rx="11" ry="11" style="stroke:#181818;stroke-width:1.0;"/><path d="M1256.5156,1037.375 Q1256.6719,1037.1563 1256.8594,1037.0469 Q1257.0469,1036.9375 1257.2656,1036.9375 Q1257.6406,1036.9375 1257.875,1037.2031 Q1258.1094,1037.4531 1258.1094,1038.0625 L1258.1094,1039.5156 Q1258.1094,1040.125 1257.875,1040.3906 Q1257.6406,1040.6563 1257.2656,1040.6563 Q1256.9219,1040.6563 1256.7188,1040.4531 Q1256.5156,1040.2656 1256.4063,1039.75 Q1256.3594,1039.3906 1256.1719,1039.2031 Q1255.8438,1038.8281 1255.2344,1038.6094 Q1254.625,1038.3906 1254,1038.3906 Q1253.2344,1038.3906 1252.5938,1038.7188 Q1251.9688,1039.0469 1251.4688,1039.7969 Q1250.9844,1040.5469 1250.9844,1041.5781 L1250.9844,1042.6719 Q1250.9844,1043.9063 1251.875,1044.7344 Q1252.7656,1045.5469 1254.3594,1045.5469 Q1255.2969,1045.5469 1255.9531,1045.2969 Q1256.3438,1045.1406 1256.7656,1044.7031 Q1257.0313,1044.4375 1257.1719,1044.3594 Q1257.3281,1044.2813 1257.5313,1044.2813 Q1257.8594,1044.2813 1258.1094,1044.5469 Q1258.375,1044.7969 1258.375,1045.1406 Q1258.375,1045.4844 1258.0313,1045.8906 Q1257.5313,1046.4688 1256.7344,1046.7969 Q1255.6563,1047.25 1254.3594,1047.25 Q1252.8438,1047.25 1251.6406,1046.625 Q1250.6563,1046.125 1249.9688,1045.0625 Q1249.2813,1043.9844 1249.2813,1042.7031 L1249.2813,1041.5469 Q1249.2813,1040.2188 1249.8906,1039.0781 Q1250.5156,1037.9219 1251.6094,1037.3125 Q1252.7031,1036.6875 1253.9375,1036.6875 Q1254.6719,1036.6875 1255.3125,1036.8594 Q1255.9688,1037.0156 1256.5156,1037.375 Z " fill="#000000"/><text fill="#000000" font-family="sans-serif" font-size="14" lengthAdjust="spacing" textLength="112" x="1274.25" y="1047.2285">MushroomThread</text><line style="stroke:#181818;stroke-width:0.5;" x1="1193.5" x2="1434.5" y1="1057.5" y2="1057.5"/><line style="stroke:#181818;stroke-width:0.5;" x1="1193.5" x2="1434.5" y1="1065.5" y2="1065.5"/><text fill="#000000" font-family="sans-serif" font-size="14" lengthAdjust="spacing" textLength="231" x="1198.5" y="1084.0332">getConnected() : MushroomThread[]</text></g><!--class Colony--><g id="elem_Colony"><rect codeLine="5" fill="#F1F1F1" height="83.2188" id="Colony" rx="2.5" ry="2.5" style="stroke:#181818;stroke-width:0.5;" width="263" x="1135.5" y="811.5"/><ellipse cx="1240.75" cy="827.5" fill="#ADD1B2" rx="11" ry="11" style="stroke:#181818;stroke-width:1.0;"/><path d="M1243.5156,823.375 Q1243.6719,823.1563 1243.8594,823.0469 Q1244.0469,822.9375 1244.2656,822.9375 Q1244.6406,822.9375 1244.875,823.2031 Q1245.1094,823.4531 1245.1094,824.0625 L1245.1094,825.5156 Q1245.1094,826.125 1244.875,826.3906 Q1244.6406,826.6563 1244.2656,826.6563 Q1243.9219,826.6563 1243.7188,826.4531 Q1243.5156,826.2656 1243.4063,825.75 Q1243.3594,825.3906 1243.1719,825.2031 Q1242.8438,824.8281 1242.2344,824.6094 Q1241.625,824.3906 1241,824.3906 Q1240.2344,824.3906 1239.5938,824.7188 Q1238.9688,825.0469 1238.4688,825.7969 Q1237.9844,826.5469 1237.9844,827.5781 L1237.9844,828.6719 Q1237.9844,829.9063 1238.875,830.7344 Q1239.7656,831.5469 1241.3594,831.5469 Q1242.2969,831.5469 1242.9531,831.2969 Q1243.3438,831.1406 1243.7656,830.7031 Q1244.0313,830.4375 1244.1719,830.3594 Q1244.3281,830.2813 1244.5313,830.2813 Q1244.8594,830.2813 1245.1094,830.5469 Q1245.375,830.7969 1245.375,831.1406 Q1245.375,831.4844 1245.0313,831.8906 Q1244.5313,832.4688 1243.7344,832.7969 Q1242.6563,833.25 1241.3594,833.25 Q1239.8438,833.25 1238.6406,832.625 Q1237.6563,832.125 1236.9688,831.0625 Q1236.2813,829.9844 1236.2813,828.7031 L1236.2813,827.5469 Q1236.2813,826.2188 1236.8906,825.0781 Q1237.5156,823.9219 1238.6094,823.3125 Q1239.7031,822.6875 1240.9375,822.6875 Q1241.6719,822.6875 1242.3125,822.8594 Q1242.9688,823.0156 1243.5156,823.375 Z " fill="#000000"/><text fill="#000000" font-family="sans-serif" font-size="14" lengthAdjust="spacing" textLength="44" x="1261.25" y="833.2285">Colony</text><line style="stroke:#181818;stroke-width:0.5;" x1="1136.5" x2="1397.5" y1="843.5" y2="843.5"/><text fill="#000000" font-family="sans-serif" font-size="14" lengthAdjust="spacing" textLength="223" x="1141.5" y="862.0332">mushroomStems : MushroomStem[]</text><text fill="#000000" font-family="sans-serif" font-size="14" lengthAdjust="spacing" textLength="251" x="1141.5" y="879.6426">mushroomThreads : MushroomThread[]</text><line style="stroke:#181818;stroke-width:0.5;" x1="1136.5" x2="1397.5" y1="886.7188" y2="886.7188"/></g><!--class Insecter--><g id="elem_Insecter"><rect codeLine="21" fill="#F1F1F1" height="118.4375" id="Insecter" rx="2.5" ry="2.5" style="stroke:#181818;stroke-width:0.5;" width="237" x="603.5" y="42"/><ellipse cx="692.75" cy="58" fill="#ADD1B2" rx="11" ry="11" style="stroke:#181818;stroke-width:1.0;"/><path d="M695.5156,53.875 Q695.6719,53.6563 695.8594,53.5469 Q696.0469,53.4375 696.2656,53.4375 Q696.6406,53.4375 696.875,53.7031 Q697.1094,53.9531 697.1094,54.5625 L697.1094,56.0156 Q697.1094,56.625 696.875,56.8906 Q696.6406,57.1563 696.2656,57.1563 Q695.9219,57.1563 695.7188,56.9531 Q695.5156,56.7656 695.4063,56.25 Q695.3594,55.8906 695.1719,55.7031 Q694.8438,55.3281 694.2344,55.1094 Q693.625,54.8906 693,54.8906 Q692.2344,54.8906 691.5938,55.2188 Q690.9688,55.5469 690.4688,56.2969 Q689.9844,57.0469 689.9844,58.0781 L689.9844,59.1719 Q689.9844,60.4063 690.875,61.2344 Q691.7656,62.0469 693.3594,62.0469 Q694.2969,62.0469 694.9531,61.7969 Q695.3438,61.6406 695.7656,61.2031 Q696.0313,60.9375 696.1719,60.8594 Q696.3281,60.7813 696.5313,60.7813 Q696.8594,60.7813 697.1094,61.0469 Q697.375,61.2969 697.375,61.6406 Q697.375,61.9844 697.0313,62.3906 Q696.5313,62.9688 695.7344,63.2969 Q694.6563,63.75 693.3594,63.75 Q691.8438,63.75 690.6406,63.125 Q689.6563,62.625 688.9688,61.5625 Q688.2813,60.4844 688.2813,59.2031 L688.2813,58.0469 Q688.2813,56.7188 688.8906,55.5781 Q689.5156,54.4219 690.6094,53.8125 Q691.7031,53.1875 692.9375,53.1875 Q693.6719,53.1875 694.3125,53.3594 Q694.9688,53.5156 695.5156,53.875 Z " fill="#000000"/><text fill="#000000" font-family="sans-serif" font-size="14" lengthAdjust="spacing" textLength="50" x="713.25" y="63.7285">Insecter</text><line style="stroke:#181818;stroke-width:0.5;" x1="604.5" x2="839.5" y1="74" y2="74"/><text fill="#000000" font-family="sans-serif" font-size="14" lengthAdjust="spacing" textLength="86" x="609.5" y="92.5332">insect : Insect</text><line style="stroke:#181818;stroke-width:0.5;" x1="604.5" x2="839.5" y1="99.6094" y2="99.6094"/><text fill="#000000" font-family="sans-serif" font-size="14" lengthAdjust="spacing" textLength="106" x="609.5" y="118.1426">eat(Spore) : void</text><text fill="#000000" font-family="sans-serif" font-size="14" lengthAdjust="spacing" textLength="163" x="609.5" y="135.752">moveInsect(Tecton) : void</text><text fill="#000000" font-family="sans-serif" font-size="14" lengthAdjust="spacing" textLength="225" x="609.5" y="153.3613">cutThread(MushroomThread) : void</text></g><!--class Insect--><g id="elem_Insect"><rect codeLine="4" fill="#F1F1F1" height="118.4375" id="Insect" rx="2.5" ry="2.5" style="stroke:#181818;stroke-width:0.5;" width="191" x="488.5" y="794"/><ellipse cx="561.25" cy="810" fill="#ADD1B2" rx="11" ry="11" style="stroke:#181818;stroke-width:1.0;"/><path d="M564.0156,805.875 Q564.1719,805.6563 564.3594,805.5469 Q564.5469,805.4375 564.7656,805.4375 Q565.1406,805.4375 565.375,805.7031 Q565.6094,805.9531 565.6094,806.5625 L565.6094,808.0156 Q565.6094,808.625 565.375,808.8906 Q565.1406,809.1563 564.7656,809.1563 Q564.4219,809.1563 564.2188,808.9531 Q564.0156,808.7656 563.9063,808.25 Q563.8594,807.8906 563.6719,807.7031 Q563.3438,807.3281 562.7344,807.1094 Q562.125,806.8906 561.5,806.8906 Q560.7344,806.8906 560.0938,807.2188 Q559.4688,807.5469 558.9688,808.2969 Q558.4844,809.0469 558.4844,810.0781 L558.4844,811.1719 Q558.4844,812.4063 559.375,813.2344 Q560.2656,814.0469 561.8594,814.0469 Q562.7969,814.0469 563.4531,813.7969 Q563.8438,813.6406 564.2656,813.2031 Q564.5313,812.9375 564.6719,812.8594 Q564.8281,812.7813 565.0313,812.7813 Q565.3594,812.7813 565.6094,813.0469 Q565.875,813.2969 565.875,813.6406 Q565.875,813.9844 565.5313,814.3906 Q565.0313,814.9688 564.2344,815.2969 Q563.1563,815.75 561.8594,815.75 Q560.3438,815.75 559.1406,815.125 Q558.1563,814.625 557.4688,813.5625 Q556.7813,812.4844 556.7813,811.2031 L556.7813,810.0469 Q556.7813,808.7188 557.3906,807.5781 Q558.0156,806.4219 559.1094,805.8125 Q560.2031,805.1875 561.4375,805.1875 Q562.1719,805.1875 562.8125,805.3594 Q563.4688,805.5156 564.0156,805.875 Z " fill="#000000"/><text fill="#000000" font-family="sans-serif" font-size="14" lengthAdjust="spacing" textLength="37" x="581.75" y="815.7285">Insect</text><line style="stroke:#181818;stroke-width:0.5;" x1="489.5" x2="678.5" y1="826" y2="826"/><text fill="#000000" font-family="sans-serif" font-size="14" lengthAdjust="spacing" textLength="128" x="494.5" y="844.5332">effects : List&lt;Effect&gt;</text><line style="stroke:#181818;stroke-width:0.5;" x1="489.5" x2="678.5" y1="851.6094" y2="851.6094"/><text fill="#000000" font-family="sans-serif" font-size="14" lengthAdjust="spacing" textLength="106" x="494.5" y="870.1426">eat(Spore) : void</text><text fill="#000000" font-family="sans-serif" font-size="14" lengthAdjust="spacing" textLength="126" x="494.5" y="887.752">move(Tecton) : void</text><text fill="#000000" font-family="sans-serif" font-size="14" lengthAdjust="spacing" textLength="179" x="494.5" y="905.3613">cut(MushroomThread) : void</text></g><!--class Map--><g id="elem_Map"><rect codeLine="4" fill="#F1F1F1" height="100.8281" id="Map" rx="2.5" ry="2.5" style="stroke:#181818;stroke-width:0.5;" width="173" x="684.5" y="221"/><ellipse cx="753.25" cy="237" fill="#ADD1B2" rx="11" ry="11" style="stroke:#181818;stroke-width:1.0;"/><path d="M756.0156,232.875 Q756.1719,232.6563 756.3594,232.5469 Q756.5469,232.4375 756.7656,232.4375 Q757.1406,232.4375 757.375,232.7031 Q757.6094,232.9531 757.6094,233.5625 L757.6094,235.0156 Q757.6094,235.625 757.375,235.8906 Q757.1406,236.1563 756.7656,236.1563 Q756.4219,236.1563 756.2188,235.9531 Q756.0156,235.7656 755.9063,235.25 Q755.8594,234.8906 755.6719,234.7031 Q755.3438,234.3281 754.7344,234.1094 Q754.125,233.8906 753.5,233.8906 Q752.7344,233.8906 752.0938,234.2188 Q751.4688,234.5469 750.9688,235.2969 Q750.4844,236.0469 750.4844,237.0781 L750.4844,238.1719 Q750.4844,239.4063 751.375,240.2344 Q752.2656,241.0469 753.8594,241.0469 Q754.7969,241.0469 755.4531,240.7969 Q755.8438,240.6406 756.2656,240.2031 Q756.5313,239.9375 756.6719,239.8594 Q756.8281,239.7813 757.0313,239.7813 Q757.3594,239.7813 757.6094,240.0469 Q757.875,240.2969 757.875,240.6406 Q757.875,240.9844 757.5313,241.3906 Q757.0313,241.9688 756.2344,242.2969 Q755.1563,242.75 753.8594,242.75 Q752.3438,242.75 751.1406,242.125 Q750.1563,241.625 749.4688,240.5625 Q748.7813,239.4844 748.7813,238.2031 L748.7813,237.0469 Q748.7813,235.7188 749.3906,234.5781 Q750.0156,233.4219 751.1094,232.8125 Q752.2031,232.1875 753.4375,232.1875 Q754.1719,232.1875 754.8125,232.3594 Q755.4688,232.5156 756.0156,232.875 Z " fill="#000000"/><text fill="#000000" font-family="sans-serif" font-size="14" lengthAdjust="spacing" textLength="27" x="773.75" y="242.7285">Map</text><line style="stroke:#181818;stroke-width:0.5;" x1="685.5" x2="856.5" y1="253" y2="253"/><text fill="#000000" font-family="sans-serif" font-size="14" lengthAdjust="spacing" textLength="140" x="690.5" y="271.5332">tectons : List&lt;Tecton&gt;</text><line style="stroke:#181818;stroke-width:0.5;" x1="685.5" x2="856.5" y1="278.6094" y2="278.6094"/><text fill="#000000" font-family="sans-serif" font-size="14" lengthAdjust="spacing" textLength="105" x="690.5" y="297.1426">generate() : void</text><text fill="#000000" font-family="sans-serif" font-size="14" lengthAdjust="spacing" textLength="161" x="690.5" y="314.752">splitTecton(Tecton) : void</text></g><!--class IOnRound--><g id="elem_IOnRound"><rect codeLine="10" fill="#F1F1F1" height="65.6094" id="IOnRound" rx="2.5" ry="2.5" style="stroke:#181818;stroke-width:0.5;" width="118" x="348" y="68"/><ellipse cx="372.45" cy="84" fill="#B4A7E5" rx="11" ry="11" style="stroke:#181818;stroke-width:1.0;"/><path d="M373.4031,80.6406 L373.4031,87.2969 L375.1219,87.2969 Q375.7313,87.2969 375.9969,87.5313 Q376.2625,87.7656 376.2625,88.1563 Q376.2625,88.5313 375.9969,88.7656 Q375.7313,89 375.1219,89 L369.9813,89 Q369.3719,89 369.1063,88.7656 Q368.8406,88.5313 368.8406,88.1406 Q368.8406,87.7656 369.1063,87.5313 Q369.3719,87.2969 369.9813,87.2969 L371.7,87.2969 L371.7,80.6406 L369.9813,80.6406 Q369.3719,80.6406 369.1063,80.4063 Q368.8406,80.1719 368.8406,79.7813 Q368.8406,79.4063 369.1063,79.1719 Q369.3719,78.9375 369.9813,78.9375 L375.1219,78.9375 Q375.7313,78.9375 375.9969,79.1719 Q376.2625,79.4063 376.2625,79.7813 Q376.2625,80.1719 375.9969,80.4063 Q375.7313,80.6406 375.1219,80.6406 L373.4031,80.6406 Z " fill="#000000"/><text fill="#000000" font-family="sans-serif" font-size="14" font-style="italic" lengthAdjust="spacing" textLength="65" x="388.55" y="89.7285">IOnRound</text><line style="stroke:#181818;stroke-width:0.5;" x1="349" x2="465" y1="100" y2="100"/><line style="stroke:#181818;stroke-width:0.5;" x1="349" x2="465" y1="108" y2="108"/><text fill="#000000" font-family="sans-serif" font-size="14" lengthAdjust="spacing" textLength="106" x="354" y="126.5332">onRound() : void</text></g><!--class Tecton--><g id="elem_Tecton"><rect codeLine="5" fill="#F1F1F1" height="206.4844" id="Tecton" rx="2.5" ry="2.5" style="stroke:#181818;stroke-width:0.5;" width="193" x="674.5" y="383"/><ellipse cx="744.75" cy="399" fill="#ADD1B2" rx="11" ry="11" style="stroke:#181818;stroke-width:1.0;"/><path d="M747.5156,394.875 Q747.6719,394.6563 747.8594,394.5469 Q748.0469,394.4375 748.2656,394.4375 Q748.6406,394.4375 748.875,394.7031 Q749.1094,394.9531 749.1094,395.5625 L749.1094,397.0156 Q749.1094,397.625 748.875,397.8906 Q748.6406,398.1563 748.2656,398.1563 Q747.9219,398.1563 747.7188,397.9531 Q747.5156,397.7656 747.4063,397.25 Q747.3594,396.8906 747.1719,396.7031 Q746.8438,396.3281 746.2344,396.1094 Q745.625,395.8906 745,395.8906 Q744.2344,395.8906 743.5938,396.2188 Q742.9688,396.5469 742.4688,397.2969 Q741.9844,398.0469 741.9844,399.0781 L741.9844,400.1719 Q741.9844,401.4063 742.875,402.2344 Q743.7656,403.0469 745.3594,403.0469 Q746.2969,403.0469 746.9531,402.7969 Q747.3438,402.6406 747.7656,402.2031 Q748.0313,401.9375 748.1719,401.8594 Q748.3281,401.7813 748.5313,401.7813 Q748.8594,401.7813 749.1094,402.0469 Q749.375,402.2969 749.375,402.6406 Q749.375,402.9844 749.0313,403.3906 Q748.5313,403.9688 747.7344,404.2969 Q746.6563,404.75 745.3594,404.75 Q743.8438,404.75 742.6406,404.125 Q741.6563,403.625 740.9688,402.5625 Q740.2813,401.4844 740.2813,400.2031 L740.2813,399.0469 Q740.2813,397.7188 740.8906,396.5781 Q741.5156,395.4219 742.6094,394.8125 Q743.7031,394.1875 744.9375,394.1875 Q745.6719,394.1875 746.3125,394.3594 Q746.9688,394.5156 747.5156,394.875 Z " fill="#000000"/><text fill="#000000" font-family="sans-serif" font-size="14" lengthAdjust="spacing" textLength="44" x="765.25" y="404.7285">Tecton</text><line style="stroke:#181818;stroke-width:0.5;" x1="675.5" x2="866.5" y1="415" y2="415"/><text fill="#000000" font-family="sans-serif" font-size="14" lengthAdjust="spacing" text-decoration="underline" textLength="134" x="680.5" y="433.5332">maxThreads : Integer</text><text fill="#000000" font-family="sans-serif" font-size="14" lengthAdjust="spacing" text-decoration="underline" textLength="116" x="680.5" y="451.1426">maxStems: Integer</text><text fill="#000000" font-family="sans-serif" font-size="14" lengthAdjust="spacing" textLength="150" x="680.5" y="468.752">minNeighbours : Integer</text><text fill="#000000" font-family="sans-serif" font-size="14" lengthAdjust="spacing" textLength="153" x="680.5" y="486.3613">maxNeighbours : Integer</text><text fill="#000000" font-family="sans-serif" font-size="14" lengthAdjust="spacing" textLength="127" x="680.5" y="503.9707">neighbours : Tecton</text><text fill="#000000" font-family="sans-serif" font-size="14" lengthAdjust="spacing" textLength="130" x="680.5" y="521.5801">entities : List&lt;Entity&gt;</text><line style="stroke:#181818;stroke-width:0.5;" x1="675.5" x2="866.5" y1="528.6563" y2="528.6563"/><text fill="#000000" font-family="sans-serif" font-size="14" lengthAdjust="spacing" textLength="181" x="680.5" y="547.1895">addNeighbour(Tecton) : void</text><text fill="#000000" font-family="sans-serif" font-size="14" lengthAdjust="spacing" textLength="142" x="680.5" y="564.7988">addEntity(Entity) : void</text><text fill="#000000" font-family="sans-serif" font-size="14" lengthAdjust="spacing" textLength="165" x="680.5" y="582.4082">removeEntity(Entity) : void</text></g><!--class Entity--><g id="elem_Entity"><rect codeLine="1" fill="#F1F1F1" height="83.2188" id="Entity" rx="2.5" ry="2.5" style="stroke:#181818;stroke-width:0.5;" width="103" x="443.5" y="650"/><ellipse cx="474.7" cy="666" fill="#A9DCDF" rx="11" ry="11" style="stroke:#181818;stroke-width:1.0;"/><path d="M476.8875,667.7656 L472.7469,667.7656 L472.325,668.7969 L472.7469,668.7969 Q473.3563,668.7969 473.6219,669.0313 Q473.8875,669.2656 473.8875,669.6563 Q473.8875,670.0313 473.6219,670.2656 Q473.3563,670.5 472.7469,670.5 L470.45,670.5 Q469.8406,670.5 469.5906,670.2656 Q469.325,670.0313 469.325,669.6406 Q469.325,669.2656 469.6063,669.0313 Q469.8719,668.7813 470.4969,668.7969 L473.1688,662.1406 L472.0594,662.1406 Q471.45,662.1406 471.1844,661.9063 Q470.9188,661.6719 470.9188,661.2813 Q470.9188,660.9063 471.1844,660.6719 Q471.45,660.4375 472.0594,660.4375 L475.7313,660.4375 L479.1219,668.7969 Q479.7156,668.7969 479.9031,668.9375 Q480.2938,669.2031 480.2938,669.6563 Q480.2938,670.0313 480.0281,670.2656 Q479.7781,670.5 479.1688,670.5 L476.8719,670.5 Q476.2625,670.5 475.9969,670.2656 Q475.7313,670.0313 475.7313,669.6406 Q475.7313,669.2656 475.9969,669.0313 Q476.2625,668.7969 476.8719,668.7969 L477.2938,668.7969 L476.8875,667.7656 Z M476.1688,666.0625 L474.8094,662.6875 L473.4344,666.0625 L476.1688,666.0625 Z " fill="#000000"/><text fill="#000000" font-family="sans-serif" font-size="14" font-style="italic" lengthAdjust="spacing" textLength="35" x="492.3" y="671.7285">Entity</text><line style="stroke:#181818;stroke-width:0.5;" x1="444.5" x2="545.5" y1="682" y2="682"/><text fill="#000000" font-family="sans-serif" font-size="14" lengthAdjust="spacing" textLength="90" x="449.5" y="700.5332">owner : Player</text><text fill="#000000" font-family="sans-serif" font-size="14" lengthAdjust="spacing" textLength="91" x="449.5" y="718.1426">tecton: Tecton</text><line style="stroke:#181818;stroke-width:0.5;" x1="444.5" x2="545.5" y1="725.2188" y2="725.2188"/></g><!--class SingleThreadedTecton--><g id="elem_SingleThreadedTecton"><rect codeLine="24" fill="#F1F1F1" height="65.6094" id="SingleThreadedTecton" rx="2.5" ry="2.5" style="stroke:#181818;stroke-width:0.5;" width="177" x="581.5" y="658.5"/><ellipse cx="596.5" cy="674.5" fill="#ADD1B2" rx="11" ry="11" style="stroke:#181818;stroke-width:1.0;"/><path d="M599.2656,670.375 Q599.4219,670.1563 599.6094,670.0469 Q599.7969,669.9375 600.0156,669.9375 Q600.3906,669.9375 600.625,670.2031 Q600.8594,670.4531 600.8594,671.0625 L600.8594,672.5156 Q600.8594,673.125 600.625,673.3906 Q600.3906,673.6563 600.0156,673.6563 Q599.6719,673.6563 599.4688,673.4531 Q599.2656,673.2656 599.1563,672.75 Q599.1094,672.3906 598.9219,672.2031 Q598.5938,671.8281 597.9844,671.6094 Q597.375,671.3906 596.75,671.3906 Q595.9844,671.3906 595.3438,671.7188 Q594.7188,672.0469 594.2188,672.7969 Q593.7344,673.5469 593.7344,674.5781 L593.7344,675.6719 Q593.7344,676.9063 594.625,677.7344 Q595.5156,678.5469 597.1094,678.5469 Q598.0469,678.5469 598.7031,678.2969 Q599.0938,678.1406 599.5156,677.7031 Q599.7813,677.4375 599.9219,677.3594 Q600.0781,677.2813 600.2813,677.2813 Q600.6094,677.2813 600.8594,677.5469 Q601.125,677.7969 601.125,678.1406 Q601.125,678.4844 600.7813,678.8906 Q600.2813,679.4688 599.4844,679.7969 Q598.4063,680.25 597.1094,680.25 Q595.5938,680.25 594.3906,679.625 Q593.4063,679.125 592.7188,678.0625 Q592.0313,676.9844 592.0313,675.7031 L592.0313,674.5469 Q592.0313,673.2188 592.6406,672.0781 Q593.2656,670.9219 594.3594,670.3125 Q595.4531,669.6875 596.6875,669.6875 Q597.4219,669.6875 598.0625,669.8594 Q598.7188,670.0156 599.2656,670.375 Z " fill="#000000"/><text fill="#000000" font-family="sans-serif" font-size="14" lengthAdjust="spacing" textLength="145" x="610.5" y="680.2285">SingleThreadedTecton</text><line style="stroke:#181818;stroke-width:0.5;" x1="582.5" x2="757.5" y1="690.5" y2="690.5"/><text fill="#000000" font-family="sans-serif" font-size="14" lengthAdjust="spacing" text-decoration="underline" textLength="158" x="587.5" y="709.0332">maxThreads = 1 : Integer</text><line style="stroke:#181818;stroke-width:0.5;" x1="582.5" x2="757.5" y1="716.1094" y2="716.1094"/></g><!--class StemlessTecton--><g id="elem_StemlessTecton"><rect codeLine="31" fill="#F1F1F1" height="65.6094" id="StemlessTecton" rx="2.5" ry="2.5" style="stroke:#181818;stroke-width:0.5;" width="156" x="794" y="658.5"/><ellipse cx="819.35" cy="674.5" fill="#ADD1B2" rx="11" ry="11" style="stroke:#181818;stroke-width:1.0;"/><path d="M822.1156,670.375 Q822.2719,670.1563 822.4594,670.0469 Q822.6469,669.9375 822.8656,669.9375 Q823.2406,669.9375 823.475,670.2031 Q823.7094,670.4531 823.7094,671.0625 L823.7094,672.5156 Q823.7094,673.125 823.475,673.3906 Q823.2406,673.6563 822.8656,673.6563 Q822.5219,673.6563 822.3188,673.4531 Q822.1156,673.2656 822.0063,672.75 Q821.9594,672.3906 821.7719,672.2031 Q821.4438,671.8281 820.8344,671.6094 Q820.225,671.3906 819.6,671.3906 Q818.8344,671.3906 818.1938,671.7188 Q817.5688,672.0469 817.0688,672.7969 Q816.5844,673.5469 816.5844,674.5781 L816.5844,675.6719 Q816.5844,676.9063 817.475,677.7344 Q818.3656,678.5469 819.9594,678.5469 Q820.8969,678.5469 821.5531,678.2969 Q821.9438,678.1406 822.3656,677.7031 Q822.6313,677.4375 822.7719,677.3594 Q822.9281,677.2813 823.1313,677.2813 Q823.4594,677.2813 823.7094,677.5469 Q823.975,677.7969 823.975,678.1406 Q823.975,678.4844 823.6313,678.8906 Q823.1313,679.4688 822.3344,679.7969 Q821.2563,680.25 819.9594,680.25 Q818.4438,680.25 817.2406,679.625 Q816.2563,679.125 815.5688,678.0625 Q814.8813,676.9844 814.8813,675.7031 L814.8813,674.5469 Q814.8813,673.2188 815.4906,672.0781 Q816.1156,670.9219 817.2094,670.3125 Q818.3031,669.6875 819.5375,669.6875 Q820.2719,669.6875 820.9125,669.8594 Q821.5688,670.0156 822.1156,670.375 Z " fill="#000000"/><text fill="#000000" font-family="sans-serif" font-size="14" lengthAdjust="spacing" textLength="101" x="835.65" y="680.2285">StemlessTecton</text><line style="stroke:#181818;stroke-width:0.5;" x1="795" x2="949" y1="690.5" y2="690.5"/><text fill="#000000" font-family="sans-serif" font-size="14" lengthAdjust="spacing" text-decoration="underline" textLength="144" x="800" y="709.0332">maxStems = 0 : Integer</text><line style="stroke:#181818;stroke-width:0.5;" x1="795" x2="949" y1="716.1094" y2="716.1094"/></g><!--class ThreadConsumingTecton--><g id="elem_ThreadConsumingTecton"><rect codeLine="38" fill="#F1F1F1" height="48" id="ThreadConsumingTecton" rx="2.5" ry="2.5" style="stroke:#181818;stroke-width:0.5;" width="193" x="985.5" y="667.5"/><ellipse cx="1000.5" cy="683.5" fill="#ADD1B2" rx="11" ry="11" style="stroke:#181818;stroke-width:1.0;"/><path d="M1003.2656,679.375 Q1003.4219,679.1563 1003.6094,679.0469 Q1003.7969,678.9375 1004.0156,678.9375 Q1004.3906,678.9375 1004.625,679.2031 Q1004.8594,679.4531 1004.8594,680.0625 L1004.8594,681.5156 Q1004.8594,682.125 1004.625,682.3906 Q1004.3906,682.6563 1004.0156,682.6563 Q1003.6719,682.6563 1003.4688,682.4531 Q1003.2656,682.2656 1003.1563,681.75 Q1003.1094,681.3906 1002.9219,681.2031 Q1002.5938,680.8281 1001.9844,680.6094 Q1001.375,680.3906 1000.75,680.3906 Q999.9844,680.3906 999.3438,680.7188 Q998.7188,681.0469 998.2188,681.7969 Q997.7344,682.5469 997.7344,683.5781 L997.7344,684.6719 Q997.7344,685.9063 998.625,686.7344 Q999.5156,687.5469 1001.1094,687.5469 Q1002.0469,687.5469 1002.7031,687.2969 Q1003.0938,687.1406 1003.5156,686.7031 Q1003.7813,686.4375 1003.9219,686.3594 Q1004.0781,686.2813 1004.2813,686.2813 Q1004.6094,686.2813 1004.8594,686.5469 Q1005.125,686.7969 1005.125,687.1406 Q1005.125,687.4844 1004.7813,687.8906 Q1004.2813,688.4688 1003.4844,688.7969 Q1002.4063,689.25 1001.1094,689.25 Q999.5938,689.25 998.3906,688.625 Q997.4063,688.125 996.7188,687.0625 Q996.0313,685.9844 996.0313,684.7031 L996.0313,683.5469 Q996.0313,682.2188 996.6406,681.0781 Q997.2656,679.9219 998.3594,679.3125 Q999.4531,678.6875 1000.6875,678.6875 Q1001.4219,678.6875 1002.0625,678.8594 Q1002.7188,679.0156 1003.2656,679.375 Z " fill="#000000"/><text fill="#000000" font-family="sans-serif" font-size="14" lengthAdjust="spacing" textLength="161" x="1014.5" y="689.2285">ThreadConsumingTecton</text><line style="stroke:#181818;stroke-width:0.5;" x1="986.5" x2="1177.5" y1="699.5" y2="699.5"/><line style="stroke:#181818;stroke-width:0.5;" x1="986.5" x2="1177.5" y1="707.5" y2="707.5"/></g><!--class Spore--><g id="elem_Spore"><rect codeLine="5" fill="#F1F1F1" height="83.2188" id="Spore" rx="2.5" ry="2.5" style="stroke:#181818;stroke-width:0.5;" width="119" x="714.5" y="811.5"/><ellipse cx="751.55" cy="827.5" fill="#A9DCDF" rx="11" ry="11" style="stroke:#181818;stroke-width:1.0;"/><path d="M753.7375,829.2656 L749.5969,829.2656 L749.175,830.2969 L749.5969,830.2969 Q750.2063,830.2969 750.4719,830.5313 Q750.7375,830.7656 750.7375,831.1563 Q750.7375,831.5313 750.4719,831.7656 Q750.2063,832 749.5969,832 L747.3,832 Q746.6906,832 746.4406,831.7656 Q746.175,831.5313 746.175,831.1406 Q746.175,830.7656 746.4563,830.5313 Q746.7219,830.2813 747.3469,830.2969 L750.0188,823.6406 L748.9094,823.6406 Q748.3,823.6406 748.0344,823.4063 Q747.7688,823.1719 747.7688,822.7813 Q747.7688,822.4063 748.0344,822.1719 Q748.3,821.9375 748.9094,821.9375 L752.5813,821.9375 L755.9719,830.2969 Q756.5656,830.2969 756.7531,830.4375 Q757.1438,830.7031 757.1438,831.1563 Q757.1438,831.5313 756.8781,831.7656 Q756.6281,832 756.0188,832 L753.7219,832 Q753.1125,832 752.8469,831.7656 Q752.5813,831.5313 752.5813,831.1406 Q752.5813,830.7656 752.8469,830.5313 Q753.1125,830.2969 753.7219,830.2969 L754.1438,830.2969 L753.7375,829.2656 Z M753.0188,827.5625 L751.6594,824.1875 L750.2844,827.5625 L753.0188,827.5625 Z " fill="#000000"/><text fill="#000000" font-family="sans-serif" font-size="14" font-style="italic" lengthAdjust="spacing" textLength="38" x="770.45" y="833.2285">Spore</text><line style="stroke:#181818;stroke-width:0.5;" x1="715.5" x2="832.5" y1="843.5" y2="843.5"/><text fill="#000000" font-family="sans-serif" font-size="14" lengthAdjust="spacing" textLength="107" x="720.5" y="862.0332">nutrition : Integer</text><text fill="#000000" font-family="sans-serif" font-size="14" lengthAdjust="spacing" text-decoration="underline" textLength="83" x="720.5" y="879.6426">effect : Effect</text><line style="stroke:#181818;stroke-width:0.5;" x1="715.5" x2="832.5" y1="886.7188" y2="886.7188"/></g><!--class Effect--><g id="elem_Effect"><rect codeLine="2" fill="#F1F1F1" height="83.2188" id="Effect" rx="2.5" ry="2.5" style="stroke:#181818;stroke-width:0.5;" width="187" x="22.5" y="1017"/><ellipse cx="93.75" cy="1033" fill="#A9DCDF" rx="11" ry="11" style="stroke:#181818;stroke-width:1.0;"/><path d="M95.9375,1034.7656 L91.7969,1034.7656 L91.375,1035.7969 L91.7969,1035.7969 Q92.4063,1035.7969 92.6719,1036.0313 Q92.9375,1036.2656 92.9375,1036.6563 Q92.9375,1037.0313 92.6719,1037.2656 Q92.4063,1037.5 91.7969,1037.5 L89.5,1037.5 Q88.8906,1037.5 88.6406,1037.2656 Q88.375,1037.0313 88.375,1036.6406 Q88.375,1036.2656 88.6563,1036.0313 Q88.9219,1035.7813 89.5469,1035.7969 L92.2188,1029.1406 L91.1094,1029.1406 Q90.5,1029.1406 90.2344,1028.9063 Q89.9688,1028.6719 89.9688,1028.2813 Q89.9688,1027.9063 90.2344,1027.6719 Q90.5,1027.4375 91.1094,1027.4375 L94.7813,1027.4375 L98.1719,1035.7969 Q98.7656,1035.7969 98.9531,1035.9375 Q99.3438,1036.2031 99.3438,1036.6563 Q99.3438,1037.0313 99.0781,1037.2656 Q98.8281,1037.5 98.2188,1037.5 L95.9219,1037.5 Q95.3125,1037.5 95.0469,1037.2656 Q94.7813,1037.0313 94.7813,1036.6406 Q94.7813,1036.2656 95.0469,1036.0313 Q95.3125,1035.7969 95.9219,1035.7969 L96.3438,1035.7969 L95.9375,1034.7656 Z M95.2188,1033.0625 L93.8594,1029.6875 L92.4844,1033.0625 L95.2188,1033.0625 Z " fill="#000000"/><text fill="#000000" font-family="sans-serif" font-size="14" font-style="italic" lengthAdjust="spacing" textLength="36" x="114.25" y="1038.7285">Effect</text><line style="stroke:#181818;stroke-width:0.5;" x1="23.5" x2="208.5" y1="1049" y2="1049"/><text fill="#000000" font-family="sans-serif" font-size="14" lengthAdjust="spacing" text-decoration="underline" textLength="108" x="28.5" y="1067.5332">duration : Integer</text><text fill="#000000" font-family="sans-serif" font-size="14" lengthAdjust="spacing" textLength="175" x="28.5" y="1085.1426">durationRemaining : Integer</text><line style="stroke:#181818;stroke-width:0.5;" x1="23.5" x2="208.5" y1="1092.2188" y2="1092.2188"/></g><!--class SlowingSpore--><g id="elem_SlowingSpore"><rect codeLine="11" fill="#F1F1F1" height="48" id="SlowingSpore" rx="2.5" ry="2.5" style="stroke:#181818;stroke-width:0.5;" width="118" x="617" y="1034.5"/><ellipse cx="632" cy="1050.5" fill="#ADD1B2" rx="11" ry="11" style="stroke:#181818;stroke-width:1.0;"/><path d="M634.7656,1046.375 Q634.9219,1046.1563 635.1094,1046.0469 Q635.2969,1045.9375 635.5156,1045.9375 Q635.8906,1045.9375 636.125,1046.2031 Q636.3594,1046.4531 636.3594,1047.0625 L636.3594,1048.5156 Q636.3594,1049.125 636.125,1049.3906 Q635.8906,1049.6563 635.5156,1049.6563 Q635.1719,1049.6563 634.9688,1049.4531 Q634.7656,1049.2656 634.6563,1048.75 Q634.6094,1048.3906 634.4219,1048.2031 Q634.0938,1047.8281 633.4844,1047.6094 Q632.875,1047.3906 632.25,1047.3906 Q631.4844,1047.3906 630.8438,1047.7188 Q630.2188,1048.0469 629.7188,1048.7969 Q629.2344,1049.5469 629.2344,1050.5781 L629.2344,1051.6719 Q629.2344,1052.9063 630.125,1053.7344 Q631.0156,1054.5469 632.6094,1054.5469 Q633.5469,1054.5469 634.2031,1054.2969 Q634.5938,1054.1406 635.0156,1053.7031 Q635.2813,1053.4375 635.4219,1053.3594 Q635.5781,1053.2813 635.7813,1053.2813 Q636.1094,1053.2813 636.3594,1053.5469 Q636.625,1053.7969 636.625,1054.1406 Q636.625,1054.4844 636.2813,1054.8906 Q635.7813,1055.4688 634.9844,1055.7969 Q633.9063,1056.25 632.6094,1056.25 Q631.0938,1056.25 629.8906,1055.625 Q628.9063,1055.125 628.2188,1054.0625 Q627.5313,1052.9844 627.5313,1051.7031 L627.5313,1050.5469 Q627.5313,1049.2188 628.1406,1048.0781 Q628.7656,1046.9219 629.8594,1046.3125 Q630.9531,1045.6875 632.1875,1045.6875 Q632.9219,1045.6875 633.5625,1045.8594 Q634.2188,1046.0156 634.7656,1046.375 Z " fill="#000000"/><text fill="#000000" font-family="sans-serif" font-size="14" lengthAdjust="spacing" textLength="86" x="646" y="1056.2285">SlowingSpore</text><line style="stroke:#181818;stroke-width:0.5;" x1="618" x2="734" y1="1066.5" y2="1066.5"/><line style="stroke:#181818;stroke-width:0.5;" x1="618" x2="734" y1="1074.5" y2="1074.5"/></g><!--class SpeedingSpore--><g id="elem_SpeedingSpore"><rect codeLine="15" fill="#F1F1F1" height="48" id="SpeedingSpore" rx="2.5" ry="2.5" style="stroke:#181818;stroke-width:0.5;" width="130" x="770" y="1034.5"/><ellipse cx="785" cy="1050.5" fill="#ADD1B2" rx="11" ry="11" style="stroke:#181818;stroke-width:1.0;"/><path d="M787.7656,1046.375 Q787.9219,1046.1563 788.1094,1046.0469 Q788.2969,1045.9375 788.5156,1045.9375 Q788.8906,1045.9375 789.125,1046.2031 Q789.3594,1046.4531 789.3594,1047.0625 L789.3594,1048.5156 Q789.3594,1049.125 789.125,1049.3906 Q788.8906,1049.6563 788.5156,1049.6563 Q788.1719,1049.6563 787.9688,1049.4531 Q787.7656,1049.2656 787.6563,1048.75 Q787.6094,1048.3906 787.4219,1048.2031 Q787.0938,1047.8281 786.4844,1047.6094 Q785.875,1047.3906 785.25,1047.3906 Q784.4844,1047.3906 783.8438,1047.7188 Q783.2188,1048.0469 782.7188,1048.7969 Q782.2344,1049.5469 782.2344,1050.5781 L782.2344,1051.6719 Q782.2344,1052.9063 783.125,1053.7344 Q784.0156,1054.5469 785.6094,1054.5469 Q786.5469,1054.5469 787.2031,1054.2969 Q787.5938,1054.1406 788.0156,1053.7031 Q788.2813,1053.4375 788.4219,1053.3594 Q788.5781,1053.2813 788.7813,1053.2813 Q789.1094,1053.2813 789.3594,1053.5469 Q789.625,1053.7969 789.625,1054.1406 Q789.625,1054.4844 789.2813,1054.8906 Q788.7813,1055.4688 787.9844,1055.7969 Q786.9063,1056.25 785.6094,1056.25 Q784.0938,1056.25 782.8906,1055.625 Q781.9063,1055.125 781.2188,1054.0625 Q780.5313,1052.9844 780.5313,1051.7031 L780.5313,1050.5469 Q780.5313,1049.2188 781.1406,1048.0781 Q781.7656,1046.9219 782.8594,1046.3125 Q783.9531,1045.6875 785.1875,1045.6875 Q785.9219,1045.6875 786.5625,1045.8594 Q787.2188,1046.0156 787.7656,1046.375 Z " fill="#000000"/><text fill="#000000" font-family="sans-serif" font-size="14" lengthAdjust="spacing" textLength="98" x="799" y="1056.2285">SpeedingSpore</text><line style="stroke:#181818;stroke-width:0.5;" x1="771" x2="899" y1="1066.5" y2="1066.5"/><line style="stroke:#181818;stroke-width:0.5;" x1="771" x2="899" y1="1074.5" y2="1074.5"/></g><!--class ParalysingSpore--><g id="elem_ParalysingSpore"><rect codeLine="19" fill="#F1F1F1" height="48" id="ParalysingSpore" rx="2.5" ry="2.5" style="stroke:#181818;stroke-width:0.5;" width="136" x="245" y="1034.5"/><ellipse cx="260" cy="1050.5" fill="#ADD1B2" rx="11" ry="11" style="stroke:#181818;stroke-width:1.0;"/><path d="M262.7656,1046.375 Q262.9219,1046.1563 263.1094,1046.0469 Q263.2969,1045.9375 263.5156,1045.9375 Q263.8906,1045.9375 264.125,1046.2031 Q264.3594,1046.4531 264.3594,1047.0625 L264.3594,1048.5156 Q264.3594,1049.125 264.125,1049.3906 Q263.8906,1049.6563 263.5156,1049.6563 Q263.1719,1049.6563 262.9688,1049.4531 Q262.7656,1049.2656 262.6563,1048.75 Q262.6094,1048.3906 262.4219,1048.2031 Q262.0938,1047.8281 261.4844,1047.6094 Q260.875,1047.3906 260.25,1047.3906 Q259.4844,1047.3906 258.8438,1047.7188 Q258.2188,1048.0469 257.7188,1048.7969 Q257.2344,1049.5469 257.2344,1050.5781 L257.2344,1051.6719 Q257.2344,1052.9063 258.125,1053.7344 Q259.0156,1054.5469 260.6094,1054.5469 Q261.5469,1054.5469 262.2031,1054.2969 Q262.5938,1054.1406 263.0156,1053.7031 Q263.2813,1053.4375 263.4219,1053.3594 Q263.5781,1053.2813 263.7813,1053.2813 Q264.1094,1053.2813 264.3594,1053.5469 Q264.625,1053.7969 264.625,1054.1406 Q264.625,1054.4844 264.2813,1054.8906 Q263.7813,1055.4688 262.9844,1055.7969 Q261.9063,1056.25 260.6094,1056.25 Q259.0938,1056.25 257.8906,1055.625 Q256.9063,1055.125 256.2188,1054.0625 Q255.5313,1052.9844 255.5313,1051.7031 L255.5313,1050.5469 Q255.5313,1049.2188 256.1406,1048.0781 Q256.7656,1046.9219 257.8594,1046.3125 Q258.9531,1045.6875 260.1875,1045.6875 Q260.9219,1045.6875 261.5625,1045.8594 Q262.2188,1046.0156 262.7656,1046.375 Z " fill="#000000"/><text fill="#000000" font-family="sans-serif" font-size="14" lengthAdjust="spacing" textLength="104" x="274" y="1056.2285">ParalysingSpore</text><line style="stroke:#181818;stroke-width:0.5;" x1="246" x2="380" y1="1066.5" y2="1066.5"/><line style="stroke:#181818;stroke-width:0.5;" x1="246" x2="380" y1="1074.5" y2="1074.5"/></g><!--class ClawParalysingSpore--><g id="elem_ClawParalysingSpore"><rect codeLine="23" fill="#F1F1F1" height="48" id="ClawParalysingSpore" rx="2.5" ry="2.5" style="stroke:#181818;stroke-width:0.5;" width="166" x="416" y="1034.5"/><ellipse cx="431" cy="1050.5" fill="#ADD1B2" rx="11" ry="11" style="stroke:#181818;stroke-width:1.0;"/><path d="M433.7656,1046.375 Q433.9219,1046.1563 434.1094,1046.0469 Q434.2969,1045.9375 434.5156,1045.9375 Q434.8906,1045.9375 435.125,1046.2031 Q435.3594,1046.4531 435.3594,1047.0625 L435.3594,1048.5156 Q435.3594,1049.125 435.125,1049.3906 Q434.8906,1049.6563 434.5156,1049.6563 Q434.1719,1049.6563 433.9688,1049.4531 Q433.7656,1049.2656 433.6563,1048.75 Q433.6094,1048.3906 433.4219,1048.2031 Q433.0938,1047.8281 432.4844,1047.6094 Q431.875,1047.3906 431.25,1047.3906 Q430.4844,1047.3906 429.8438,1047.7188 Q429.2188,1048.0469 428.7188,1048.7969 Q428.2344,1049.5469 428.2344,1050.5781 L428.2344,1051.6719 Q428.2344,1052.9063 429.125,1053.7344 Q430.0156,1054.5469 431.6094,1054.5469 Q432.5469,1054.5469 433.2031,1054.2969 Q433.5938,1054.1406 434.0156,1053.7031 Q434.2813,1053.4375 434.4219,1053.3594 Q434.5781,1053.2813 434.7813,1053.2813 Q435.1094,1053.2813 435.3594,1053.5469 Q435.625,1053.7969 435.625,1054.1406 Q435.625,1054.4844 435.2813,1054.8906 Q434.7813,1055.4688 433.9844,1055.7969 Q432.9063,1056.25 431.6094,1056.25 Q430.0938,1056.25 428.8906,1055.625 Q427.9063,1055.125 427.2188,1054.0625 Q426.5313,1052.9844 426.5313,1051.7031 L426.5313,1050.5469 Q426.5313,1049.2188 427.1406,1048.0781 Q427.7656,1046.9219 428.8594,1046.3125 Q429.9531,1045.6875 431.1875,1045.6875 Q431.9219,1045.6875 432.5625,1045.8594 Q433.2188,1046.0156 433.7656,1046.375 Z " fill="#000000"/><text fill="#000000" font-family="sans-serif" font-size="14" lengthAdjust="spacing" textLength="134" x="445" y="1056.2285">ClawParalysingSpore</text><line style="stroke:#181818;stroke-width:0.5;" x1="417" x2="581" y1="1066.5" y2="1066.5"/><line style="stroke:#181818;stroke-width:0.5;" x1="417" x2="581" y1="1074.5" y2="1074.5"/></g><!--class Slow--><g id="elem_Slow"><rect codeLine="8" fill="#F1F1F1" height="48" id="Slow" rx="2.5" ry="2.5" style="stroke:#181818;stroke-width:0.5;" width="61" x="22.5" y="829"/><ellipse cx="37.5" cy="845" fill="#ADD1B2" rx="11" ry="11" style="stroke:#181818;stroke-width:1.0;"/><path d="M40.2656,840.875 Q40.4219,840.6563 40.6094,840.5469 Q40.7969,840.4375 41.0156,840.4375 Q41.3906,840.4375 41.625,840.7031 Q41.8594,840.9531 41.8594,841.5625 L41.8594,843.0156 Q41.8594,843.625 41.625,843.8906 Q41.3906,844.1563 41.0156,844.1563 Q40.6719,844.1563 40.4688,843.9531 Q40.2656,843.7656 40.1563,843.25 Q40.1094,842.8906 39.9219,842.7031 Q39.5938,842.3281 38.9844,842.1094 Q38.375,841.8906 37.75,841.8906 Q36.9844,841.8906 36.3438,842.2188 Q35.7188,842.5469 35.2188,843.2969 Q34.7344,844.0469 34.7344,845.0781 L34.7344,846.1719 Q34.7344,847.4063 35.625,848.2344 Q36.5156,849.0469 38.1094,849.0469 Q39.0469,849.0469 39.7031,848.7969 Q40.0938,848.6406 40.5156,848.2031 Q40.7813,847.9375 40.9219,847.8594 Q41.0781,847.7813 41.2813,847.7813 Q41.6094,847.7813 41.8594,848.0469 Q42.125,848.2969 42.125,848.6406 Q42.125,848.9844 41.7813,849.3906 Q41.2813,849.9688 40.4844,850.2969 Q39.4063,850.75 38.1094,850.75 Q36.5938,850.75 35.3906,850.125 Q34.4063,849.625 33.7188,848.5625 Q33.0313,847.4844 33.0313,846.2031 L33.0313,845.0469 Q33.0313,843.7188 33.6406,842.5781 Q34.2656,841.4219 35.3594,840.8125 Q36.4531,840.1875 37.6875,840.1875 Q38.4219,840.1875 39.0625,840.3594 Q39.7188,840.5156 40.2656,840.875 Z " fill="#000000"/><text fill="#000000" font-family="sans-serif" font-size="14" lengthAdjust="spacing" textLength="29" x="51.5" y="850.7285">Slow</text><line style="stroke:#181818;stroke-width:0.5;" x1="23.5" x2="82.5" y1="861" y2="861"/><line style="stroke:#181818;stroke-width:0.5;" x1="23.5" x2="82.5" y1="869" y2="869"/></g><!--class Fast--><g id="elem_Fast"><rect codeLine="12" fill="#F1F1F1" height="48" id="Fast" rx="2.5" ry="2.5" style="stroke:#181818;stroke-width:0.5;" width="60" x="393" y="829"/><ellipse cx="408" cy="845" fill="#ADD1B2" rx="11" ry="11" style="stroke:#181818;stroke-width:1.0;"/><path d="M410.7656,840.875 Q410.9219,840.6563 411.1094,840.5469 Q411.2969,840.4375 411.5156,840.4375 Q411.8906,840.4375 412.125,840.7031 Q412.3594,840.9531 412.3594,841.5625 L412.3594,843.0156 Q412.3594,843.625 412.125,843.8906 Q411.8906,844.1563 411.5156,844.1563 Q411.1719,844.1563 410.9688,843.9531 Q410.7656,843.7656 410.6563,843.25 Q410.6094,842.8906 410.4219,842.7031 Q410.0938,842.3281 409.4844,842.1094 Q408.875,841.8906 408.25,841.8906 Q407.4844,841.8906 406.8438,842.2188 Q406.2188,842.5469 405.7188,843.2969 Q405.2344,844.0469 405.2344,845.0781 L405.2344,846.1719 Q405.2344,847.4063 406.125,848.2344 Q407.0156,849.0469 408.6094,849.0469 Q409.5469,849.0469 410.2031,848.7969 Q410.5938,848.6406 411.0156,848.2031 Q411.2813,847.9375 411.4219,847.8594 Q411.5781,847.7813 411.7813,847.7813 Q412.1094,847.7813 412.3594,848.0469 Q412.625,848.2969 412.625,848.6406 Q412.625,848.9844 412.2813,849.3906 Q411.7813,849.9688 410.9844,850.2969 Q409.9063,850.75 408.6094,850.75 Q407.0938,850.75 405.8906,850.125 Q404.9063,849.625 404.2188,848.5625 Q403.5313,847.4844 403.5313,846.2031 L403.5313,845.0469 Q403.5313,843.7188 404.1406,842.5781 Q404.7656,841.4219 405.8594,840.8125 Q406.9531,840.1875 408.1875,840.1875 Q408.9219,840.1875 409.5625,840.3594 Q410.2188,840.5156 410.7656,840.875 Z " fill="#000000"/><text fill="#000000" font-family="sans-serif" font-size="14" lengthAdjust="spacing" textLength="28" x="422" y="850.7285">Fast</text><line style="stroke:#181818;stroke-width:0.5;" x1="394" x2="452" y1="861" y2="861"/><line style="stroke:#181818;stroke-width:0.5;" x1="394" x2="452" y1="869" y2="869"/></g><!--class Paralyse--><g id="elem_Paralyse"><rect codeLine="16" fill="#F1F1F1" height="48" id="Paralyse" rx="2.5" ry="2.5" style="stroke:#181818;stroke-width:0.5;" width="87" x="270.5" y="829"/><ellipse cx="285.5" cy="845" fill="#ADD1B2" rx="11" ry="11" style="stroke:#181818;stroke-width:1.0;"/><path d="M288.2656,840.875 Q288.4219,840.6563 288.6094,840.5469 Q288.7969,840.4375 289.0156,840.4375 Q289.3906,840.4375 289.625,840.7031 Q289.8594,840.9531 289.8594,841.5625 L289.8594,843.0156 Q289.8594,843.625 289.625,843.8906 Q289.3906,844.1563 289.0156,844.1563 Q288.6719,844.1563 288.4688,843.9531 Q288.2656,843.7656 288.1563,843.25 Q288.1094,842.8906 287.9219,842.7031 Q287.5938,842.3281 286.9844,842.1094 Q286.375,841.8906 285.75,841.8906 Q284.9844,841.8906 284.3438,842.2188 Q283.7188,842.5469 283.2188,843.2969 Q282.7344,844.0469 282.7344,845.0781 L282.7344,846.1719 Q282.7344,847.4063 283.625,848.2344 Q284.5156,849.0469 286.1094,849.0469 Q287.0469,849.0469 287.7031,848.7969 Q288.0938,848.6406 288.5156,848.2031 Q288.7813,847.9375 288.9219,847.8594 Q289.0781,847.7813 289.2813,847.7813 Q289.6094,847.7813 289.8594,848.0469 Q290.125,848.2969 290.125,848.6406 Q290.125,848.9844 289.7813,849.3906 Q289.2813,849.9688 288.4844,850.2969 Q287.4063,850.75 286.1094,850.75 Q284.5938,850.75 283.3906,850.125 Q282.4063,849.625 281.7188,848.5625 Q281.0313,847.4844 281.0313,846.2031 L281.0313,845.0469 Q281.0313,843.7188 281.6406,842.5781 Q282.2656,841.4219 283.3594,840.8125 Q284.4531,840.1875 285.6875,840.1875 Q286.4219,840.1875 287.0625,840.3594 Q287.7188,840.5156 288.2656,840.875 Z " fill="#000000"/><text fill="#000000" font-family="sans-serif" font-size="14" lengthAdjust="spacing" textLength="55" x="299.5" y="850.7285">Paralyse</text><line style="stroke:#181818;stroke-width:0.5;" x1="271.5" x2="356.5" y1="861" y2="861"/><line style="stroke:#181818;stroke-width:0.5;" x1="271.5" x2="356.5" y1="869" y2="869"/></g><!--class ClawParalyze--><g id="elem_ClawParalyze"><rect fill="#F1F1F1" height="48" id="ClawParalyze" rx="2.5" ry="2.5" style="stroke:#181818;stroke-width:0.5;" width="116" x="119" y="829"/><ellipse cx="134" cy="845" fill="#ADD1B2" rx="11" ry="11" style="stroke:#181818;stroke-width:1.0;"/><path d="M136.7656,840.875 Q136.9219,840.6563 137.1094,840.5469 Q137.2969,840.4375 137.5156,840.4375 Q137.8906,840.4375 138.125,840.7031 Q138.3594,840.9531 138.3594,841.5625 L138.3594,843.0156 Q138.3594,843.625 138.125,843.8906 Q137.8906,844.1563 137.5156,844.1563 Q137.1719,844.1563 136.9688,843.9531 Q136.7656,843.7656 136.6563,843.25 Q136.6094,842.8906 136.4219,842.7031 Q136.0938,842.3281 135.4844,842.1094 Q134.875,841.8906 134.25,841.8906 Q133.4844,841.8906 132.8438,842.2188 Q132.2188,842.5469 131.7188,843.2969 Q131.2344,844.0469 131.2344,845.0781 L131.2344,846.1719 Q131.2344,847.4063 132.125,848.2344 Q133.0156,849.0469 134.6094,849.0469 Q135.5469,849.0469 136.2031,848.7969 Q136.5938,848.6406 137.0156,848.2031 Q137.2813,847.9375 137.4219,847.8594 Q137.5781,847.7813 137.7813,847.7813 Q138.1094,847.7813 138.3594,848.0469 Q138.625,848.2969 138.625,848.6406 Q138.625,848.9844 138.2813,849.3906 Q137.7813,849.9688 136.9844,850.2969 Q135.9063,850.75 134.6094,850.75 Q133.0938,850.75 131.8906,850.125 Q130.9063,849.625 130.2188,848.5625 Q129.5313,847.4844 129.5313,846.2031 L129.5313,845.0469 Q129.5313,843.7188 130.1406,842.5781 Q130.7656,841.4219 131.8594,840.8125 Q132.9531,840.1875 134.1875,840.1875 Q134.9219,840.1875 135.5625,840.3594 Q136.2188,840.5156 136.7656,840.875 Z " fill="#000000"/><text fill="#000000" font-family="sans-serif" font-size="14" lengthAdjust="spacing" textLength="84" x="148" y="850.7285">ClawParalyze</text><line style="stroke:#181818;stroke-width:0.5;" x1="120" x2="234" y1="861" y2="861"/><line style="stroke:#181818;stroke-width:0.5;" x1="120" x2="234" y1="869" y2="869"/></g><!--class ClawParalyse--><g id="elem_ClawParalyse"><rect codeLine="20" fill="#F1F1F1" height="48" id="ClawParalyse" rx="2.5" ry="2.5" style="stroke:#181818;stroke-width:0.5;" width="117" x="109.5" y="77"/><ellipse cx="124.5" cy="93" fill="#ADD1B2" rx="11" ry="11" style="stroke:#181818;stroke-width:1.0;"/><path d="M127.2656,88.875 Q127.4219,88.6563 127.6094,88.5469 Q127.7969,88.4375 128.0156,88.4375 Q128.3906,88.4375 128.625,88.7031 Q128.8594,88.9531 128.8594,89.5625 L128.8594,91.0156 Q128.8594,91.625 128.625,91.8906 Q128.3906,92.1563 128.0156,92.1563 Q127.6719,92.1563 127.4688,91.9531 Q127.2656,91.7656 127.1563,91.25 Q127.1094,90.8906 126.9219,90.7031 Q126.5938,90.3281 125.9844,90.1094 Q125.375,89.8906 124.75,89.8906 Q123.9844,89.8906 123.3438,90.2188 Q122.7188,90.5469 122.2188,91.2969 Q121.7344,92.0469 121.7344,93.0781 L121.7344,94.1719 Q121.7344,95.4063 122.625,96.2344 Q123.5156,97.0469 125.1094,97.0469 Q126.0469,97.0469 126.7031,96.7969 Q127.0938,96.6406 127.5156,96.2031 Q127.7813,95.9375 127.9219,95.8594 Q128.0781,95.7813 128.2813,95.7813 Q128.6094,95.7813 128.8594,96.0469 Q129.125,96.2969 129.125,96.6406 Q129.125,96.9844 128.7813,97.3906 Q128.2813,97.9688 127.4844,98.2969 Q126.4063,98.75 125.1094,98.75 Q123.5938,98.75 122.3906,98.125 Q121.4063,97.625 120.7188,96.5625 Q120.0313,95.4844 120.0313,94.2031 L120.0313,93.0469 Q120.0313,91.7188 120.6406,90.5781 Q121.2656,89.4219 122.3594,88.8125 Q123.4531,88.1875 124.6875,88.1875 Q125.4219,88.1875 126.0625,88.3594 Q126.7188,88.5156 127.2656,88.875 Z " fill="#000000"/><text fill="#000000" font-family="sans-serif" font-size="14" lengthAdjust="spacing" textLength="85" x="138.5" y="98.7285">ClawParalyse</text><line style="stroke:#181818;stroke-width:0.5;" x1="110.5" x2="225.5" y1="109" y2="109"/><line style="stroke:#181818;stroke-width:0.5;" x1="110.5" x2="225.5" y1="117" y2="117"/></g><!--reverse link IOnTurn to Player--><g id="link_IOnTurn_Player"><path codeLine="1" d="M1102.7805,148.5046 C1123.1305,175.7146 1141.65,200.49 1163.63,229.88 " fill="none" id="IOnTurn-backto-Player" style="stroke:#181818;stroke-width:1.0;stroke-dasharray:7.0,7.0;"/><polygon fill="none" points="1092,134.09,1097.9756,152.0981,1107.5854,144.9111,1092,134.09" style="stroke:#181818;stroke-width:1.0;"/></g><!--reverse link Player to Mushroomer--><g id="link_Player_Mushroomer"><path codeLine="7" d="M1219.5456,329.653 C1232.7456,359.183 1243.56,383.35 1258.9,417.67 " fill="none" id="Player-backto-Mushroomer" style="stroke:#181818;stroke-width:1.0;"/><polygon fill="none" points="1212.2,313.22,1214.0679,332.1015,1225.0232,327.2044,1212.2,313.22" style="stroke:#181818;stroke-width:1.0;"/></g><!--reverse link Mushroomer to MushroomStem--><g id="link_Mushroomer_MushroomStem"><path codeLine="8" d="M1271.1174,565.8173 C1257.1974,618.1873 1235.57,679.21 1196,733 C1169.92,768.45 1142.37,757.36 1118,794 C1082.41,847.51 1064.33,918.19 1055.19,972.88 " fill="none" id="Mushroomer-backto-MushroomStem" style="stroke:#181818;stroke-width:1.0;"/><polygon fill="none" points="1274.2,554.22,1268.7929,558.9911,1271.1174,565.8173,1276.5245,561.0462,1274.2,554.22" style="stroke:#181818;stroke-width:1.0;"/><text fill="#000000" font-family="sans-serif" font-size="13" lengthAdjust="spacing" textLength="20" x="1035.1179" y="962.0409">1..*</text></g><!--reverse link Mushroomer to MushroomThread--><g id="link_Mushroomer_MushroomThread"><path codeLine="9" d="M1331.2464,564.7526 C1362.2664,625.3726 1398.8,707.44 1416,794 C1426.22,845.44 1431.78,861.99 1416,912 C1402.17,955.83 1369.88,997.93 1345.31,1025.47 " fill="none" id="Mushroomer-backto-MushroomThread" style="stroke:#181818;stroke-width:1.0;"/><polygon fill="none" points="1325.78,554.07,1324.9523,561.2334,1331.2464,564.7526,1332.0741,557.5892,1325.78,554.07" style="stroke:#181818;stroke-width:1.0;"/><text fill="#000000" font-family="sans-serif" font-size="13" lengthAdjust="spacing" textLength="20" x="1329.7052" y="1014.5792">0..*</text></g><!--link Mushroomer to Colony--><g id="link_Mushroomer_Colony"><path codeLine="10" d="M1284.94,554.37 C1280.4,629.66 1273.2,749.13 1269.45,811.33 " fill="none" id="Mushroomer-Colony" style="stroke:#181818;stroke-width:1.0;"/><text fill="#000000" font-family="sans-serif" font-size="13" lengthAdjust="spacing" textLength="20" x="1248.1995" y="800.6095">1..*</text></g><!--link Insecter to Player--><g id="link_Insecter_Player"><path codeLine="19" d="M840.8,144.41 C937.88,179.07 1053.4772,220.3401 1125.4372,246.0201 " fill="none" id="Insecter-to-Player" style="stroke:#181818;stroke-width:1.0;"/><polygon fill="none" points="1142.39,252.07,1127.4538,240.3692,1123.4205,251.6711,1142.39,252.07" style="stroke:#181818;stroke-width:1.0;"/></g><!--reverse link Insecter to Insect--><g id="link_Insecter_Insect"><path codeLine="20" d="M670.5753,170.02 C600.7153,265.94 475.03,456.06 426,650 C416.96,685.76 409.54,699.99 426,733 C439.79,760.66 463.42,783.58 488.25,801.67 " fill="none" id="Insecter-backto-Insect" style="stroke:#181818;stroke-width:1.0;"/><polygon fill="none" points="677.64,160.32,670.8743,162.8151,670.5753,170.02,677.341,167.5249,677.64,160.32" style="stroke:#181818;stroke-width:1.0;"/></g><!--reverse link IOnTurn to Map--><g id="link_IOnTurn_Map"><path codeLine="1" d="M999.2452,141.0041 C955.6152,165.7641 908.58,192.44 857.69,221.32 " fill="none" id="IOnTurn-backto-Map" style="stroke:#181818;stroke-width:1.0;stroke-dasharray:7.0,7.0;"/><polygon fill="none" points="1014.9,132.12,996.2838,135.7858,1002.2066,146.2224,1014.9,132.12" style="stroke:#181818;stroke-width:1.0;"/></g><!--reverse link IOnRound to Map--><g id="link_IOnRound_Map"><path codeLine="2" d="M482.6249,137.0111 C541.7549,164.3811 616.89,199.16 684.19,230.31 " fill="none" id="IOnRound-backto-Map" style="stroke:#181818;stroke-width:1.0;stroke-dasharray:7.0,7.0;"/><polygon fill="none" points="466.29,129.45,480.1046,142.4561,485.1453,131.5661,466.29,129.45" style="stroke:#181818;stroke-width:1.0;"/></g><!--reverse link Map to Tecton--><g id="link_Map_Tecton"><path codeLine="3" d="M771,334.05 C771,352.33 771,361.76 771,382.98 " fill="none" id="Map-backto-Tecton" style="stroke:#181818;stroke-width:1.0;"/><polygon fill="#181818" points="771,322.05,767,328.05,771,334.05,775,328.05,771,322.05" style="stroke:#181818;stroke-width:1.0;"/><text fill="#000000" font-family="sans-serif" font-size="13" lengthAdjust="spacing" textLength="7" x="763.5297" y="343.4479">1</text><text fill="#000000" font-family="sans-serif" font-size="13" lengthAdjust="spacing" textLength="20" x="750.2344" y="371.9701">0..*</text></g><!--reverse link IOnTurn to Tecton--><g id="link_IOnTurn_Tecton"><path codeLine="1" d="M1031.9013,148.5456 C989.8813,202.7456 914.54,299.89 850.36,382.66 " fill="none" id="IOnTurn-backto-Tecton" style="stroke:#181818;stroke-width:1.0;stroke-dasharray:7.0,7.0;"/><polygon fill="none" points="1042.93,134.32,1027.1594,144.8693,1036.6431,152.2218,1042.93,134.32" style="stroke:#181818;stroke-width:1.0;"/></g><!--reverse link IOnRound to Tecton--><g id="link_IOnRound_Tecton"><path codeLine="2" d="M450.1193,147.3682 C501.7093,201.6582 595.43,300.26 674.13,383.08 " fill="none" id="IOnRound-backto-Tecton" style="stroke:#181818;stroke-width:1.0;stroke-dasharray:7.0,7.0;"/><polygon fill="none" points="437.72,134.32,445.7699,151.5014,454.4687,143.2351,437.72,134.32" style="stroke:#181818;stroke-width:1.0;"/></g><!--link Tecton to Tecton--><g id="link_Tecton_Tecton"><path codeLine="3" d="M867.62,462.08 C887.89,464.56 902.5,472.53 902.5,486 C902.5,499.47 887.89,507.44 867.62,509.92 " fill="none" id="Tecton-Tecton" style="stroke:#181818;stroke-width:1.0;"/><text fill="#000000" font-family="sans-serif" font-size="13" lengthAdjust="spacing" textLength="56" x="908.5" y="491.4951">neighbour</text><text fill="#000000" font-family="sans-serif" font-size="13" lengthAdjust="spacing" textLength="29" x="875.4331" y="457.3261">2..12</text></g><!--reverse link Tecton to Entity--><g id="link_Tecton_Entity"><path codeLine="4" d="M664.8116,565.2915 C621.7516,597.0415 582.41,626.05 546.5,652.53 " fill="none" id="Tecton-backto-Entity" style="stroke:#181818;stroke-width:1.0;"/><polygon fill="#181818" points="674.47,558.17,667.267,558.5113,664.8116,565.2915,672.0147,564.9502,674.47,558.17" style="stroke:#181818;stroke-width:1.0;"/><text fill="#000000" font-family="sans-serif" font-size="13" lengthAdjust="spacing" textLength="20" x="554.3797" y="644.0156">0..*</text></g><!--reverse link Tecton to SingleThreadedTecton--><g id="link_Tecton_SingleThreadedTecton"><path codeLine="23" d="M712.3488,605.1739 C699.8488,630.3639 695.36,639.4 685.95,658.37 " fill="none" id="Tecton-backto-SingleThreadedTecton" style="stroke:#181818;stroke-width:1.0;"/><polygon fill="none" points="720.35,589.05,706.9742,602.5069,717.7235,607.841,720.35,589.05" style="stroke:#181818;stroke-width:1.0;"/></g><!--reverse link Tecton to StemlessTecton--><g id="link_Tecton_StemlessTecton"><path codeLine="30" d="M829.6512,605.1739 C842.1512,630.3639 846.64,639.4 856.05,658.37 " fill="none" id="Tecton-backto-StemlessTecton" style="stroke:#181818;stroke-width:1.0;"/><polygon fill="none" points="821.65,589.05,824.2765,607.841,835.0258,602.5069,821.65,589.05" style="stroke:#181818;stroke-width:1.0;"/></g><!--reverse link Tecton to ThreadConsumingTecton--><g id="link_Tecton_ThreadConsumingTecton"><path codeLine="37" d="M882.7613,560.1268 C943.5613,599.9168 1003.37,639.05 1046.6,667.34 " fill="none" id="Tecton-backto-ThreadConsumingTecton" style="stroke:#181818;stroke-width:1.0;"/><polygon fill="none" points="867.7,550.27,879.4758,565.1472,886.0469,555.1063,867.7,550.27" style="stroke:#181818;stroke-width:1.0;"/></g><!--reverse link Entity to Spore--><g id="link_Entity_Spore"><path codeLine="2" d="M562.3712,732.4096 C568.1712,735.6696 558.33,730.05 564,733 C621.67,763.05 641.15,760.69 697,794 C705.77,799.23 714.73,805.26 723.29,811.41 " fill="none" id="Entity-backto-Spore" style="stroke:#181818;stroke-width:1.0;"/><polygon fill="none" points="546.68,723.59,559.4314,737.64,565.3111,727.1791,546.68,723.59" style="stroke:#181818;stroke-width:1.0;"/></g><!--reverse link Spore to Effect--><g id="link_Spore_Effect"><path codeLine="3" d="M718.0449,901.5254 C708.3749,908.2854 707.69,907.64 697,912 C599.69,951.71 325.29,933.25 228,973 C202.86,983.27 178.37,1000.63 158.74,1016.94 " fill="none" id="Spore-backto-Effect" style="stroke:#181818;stroke-width:1.0;"/><polygon fill="none" points="727.88,894.65,720.6707,894.8093,718.0449,901.5254,725.2543,901.3661,727.88,894.65" style="stroke:#181818;stroke-width:1.0;"/></g><!--reverse link Spore to SlowingSpore--><g id="link_Spore_SlowingSpore"><path codeLine="10" d="M746.5912,910.908 C726.4312,952.778 703.53,1000.33 687.17,1034.3 " fill="none" id="Spore-backto-SlowingSpore" style="stroke:#181818;stroke-width:1.0;"/><polygon fill="none" points="754.4,894.69,741.1852,908.305,751.9972,913.5109,754.4,894.69" style="stroke:#181818;stroke-width:1.0;"/></g><!--reverse link Spore to SpeedingSpore--><g id="link_Spore_SpeedingSpore"><path codeLine="14" d="M791.3681,911.9321 C803.9181,953.8021 817.86,1000.33 828.04,1034.3 " fill="none" id="Spore-backto-SpeedingSpore" style="stroke:#181818;stroke-width:1.0;"/><polygon fill="none" points="786.2,894.69,785.6207,913.6548,797.1155,910.2094,786.2,894.69" style="stroke:#181818;stroke-width:1.0;"/></g><!--reverse link Spore to ParalysingSpore--><g id="link_Spore_ParalysingSpore"><path codeLine="18" d="M712.0434,904.956 C702.6334,911.556 707.22,907.39 697,912 C573.77,967.59 518.33,909.46 399,973 C370.92,987.95 345.86,1014.94 330.14,1034.4 " fill="none" id="Spore-backto-ParalysingSpore" style="stroke:#181818;stroke-width:1.0;"/><polygon fill="none" points="726.78,894.62,708.5981,900.0438,715.4887,909.8682,726.78,894.62" style="stroke:#181818;stroke-width:1.0;"/></g><!--reverse link Spore to ClawParalysingSpore--><g id="link_Spore_ClawParalysingSpore"><path codeLine="22" d="M706.9266,905.218 C698.8366,911.188 704.99,906.49 697,912 C655.07,940.9 641.18,943.04 600,973 C573.38,992.37 544.75,1016.68 524.79,1034.25 " fill="none" id="Spore-backto-ClawParalysingSpore" style="stroke:#181818;stroke-width:1.0;"/><polygon fill="none" points="721.41,894.53,703.364,900.3902,710.4893,910.0457,721.41,894.53" style="stroke:#181818;stroke-width:1.0;"/></g><!--reverse link Entity to MushroomThread--><g id="link_Entity_MushroomThread"><path codeLine="2" d="M562.8607,733.6846 C568.5607,736.4446 558.2,731.07 564,733 C724.18,786.43 786.4,721.71 939,794 C974.55,810.84 1178.94,958.89 1270.11,1025.4 " fill="none" id="Entity-backto-MushroomThread" style="stroke:#181818;stroke-width:1.0;"/><polygon fill="none" points="546.66,725.84,560.2459,739.0848,565.4756,728.2843,546.66,725.84" style="stroke:#181818;stroke-width:1.0;"/></g><!--reverse link IOnTurn to MushroomStem--><g id="link_IOnTurn_MushroomStem"><path codeLine="2" d="M1062.2724,152.147 C1053.9424,233.767 1043.16,435.11 1125,589 C1144.53,625.73 1178.64,612.19 1196,650 C1211.39,683.52 1212.16,699.84 1196,733 C1176.72,772.56 1142.37,757.36 1118,794 C1082.41,847.51 1064.33,918.19 1055.19,972.88 " fill="none" id="IOnTurn-backto-MushroomStem" style="stroke:#181818;stroke-width:1.0;stroke-dasharray:7.0,7.0;"/><polygon fill="none" points="1064.1,134.24,1056.3034,151.5378,1068.2414,152.7562,1064.1,134.24" style="stroke:#181818;stroke-width:1.0;"/></g><!--reverse link IOnRound to MushroomStem--><g id="link_IOnRound_MushroomStem"><path codeLine="3" d="M390.055,151.2846 C379.185,184.8546 370,222.13 370,270.5 C370,270.5 370,270.5 370,620 C370,676.05 380.6,700.13 426,733 C503.29,788.95 781.6,728.52 851,794 C889.93,830.73 847.8,865.91 875,912 C890.36,938.02 912.09,961.61 934.92,981.88 " fill="none" id="IOnRound-backto-MushroomStem" style="stroke:#181818;stroke-width:1.0;stroke-dasharray:7.0,7.0;"/><polygon fill="none" points="395.6,134.16,384.3468,149.4363,395.7632,153.133,395.6,134.16" style="stroke:#181818;stroke-width:1.0;"/></g><!--reverse link Entity to MushroomStem--><g id="link_Entity_MushroomStem"><path codeLine="4" d="M562.9026,733.4639 C568.5726,736.3139 558.28,730.84 564,733 C697.41,783.37 761.19,713.65 879,794 C942.42,837.26 986.81,913.4 1013.8,972.75 " fill="none" id="Entity-backto-MushroomStem" style="stroke:#181818;stroke-width:1.0;"/><polygon fill="none" points="546.82,725.38,560.208,738.8247,565.5973,728.103,546.82,725.38" style="stroke:#181818;stroke-width:1.0;"/></g><!--reverse link Entity to Insect--><g id="link_Entity_Insect"><path codeLine="2" d="M526.4605,748.8787 C536.7605,767.3387 540.36,773.79 551.61,793.96 " fill="none" id="Entity-backto-Insect" style="stroke:#181818;stroke-width:1.0;"/><polygon fill="none" points="517.69,733.16,521.2209,751.8022,531.7001,745.9552,517.69,733.16" style="stroke:#181818;stroke-width:1.0;"/></g><!--reverse link Insect to Effect--><g id="link_Insect_Effect"><path codeLine="3" d="M477.1852,909.7916 C471.4252,912.2816 476.68,909.86 471,912 C418.9,931.62 278.23,948.98 228,973 C204.27,984.35 180.63,1001.16 161.22,1016.81 " fill="none" id="Insect-backto-Effect" style="stroke:#181818;stroke-width:1.0;"/><polygon fill="#181818" points="488.2,905.03,481.1054,903.7392,477.1852,909.7916,484.2798,911.0824,488.2,905.03" style="stroke:#181818;stroke-width:1.0;"/></g><!--reverse link Colony to MushroomStem--><g id="link_Colony_MushroomStem"><path codeLine="3" d="M1213.9833,902.8196 C1189.6733,925.2096 1167.39,945.72 1138.07,972.72 " fill="none" id="Colony-backto-MushroomStem" style="stroke:#181818;stroke-width:1.0;"/><polygon fill="none" points="1222.81,894.69,1215.6868,895.8125,1213.9833,902.8196,1221.1065,901.697,1222.81,894.69" style="stroke:#181818;stroke-width:1.0;"/><text fill="#000000" font-family="sans-serif" font-size="13" lengthAdjust="spacing" textLength="20" x="1125.1229" y="962.1596">1..*</text></g><!--reverse link Colony to MushroomThread--><g id="link_Colony_MushroomThread"><path codeLine="4" d="M1279.1014,906.382 C1287.9714,944.772 1298.38,989.88 1306.55,1025.24 " fill="none" id="Colony-backto-MushroomThread" style="stroke:#181818;stroke-width:1.0;"/><polygon fill="none" points="1276.4,894.69,1273.8534,901.4365,1279.1014,906.382,1281.648,899.6355,1276.4,894.69" style="stroke:#181818;stroke-width:1.0;"/><text fill="#000000" font-family="sans-serif" font-size="13" lengthAdjust="spacing" textLength="20" x="1283.1145" y="1014.6851">0..*</text></g><!--link Slow to Effect--><g id="link_Slow_Effect"><path codeLine="7" d="M60.23,877.34 C70.76,911.38 85.1644,957.9159 98.1144,999.7259 " fill="none" id="Slow-to-Effect" style="stroke:#181818;stroke-width:1.0;"/><polygon fill="none" points="103.44,1016.92,103.8458,997.9507,92.383,1001.5011,103.44,1016.92" style="stroke:#181818;stroke-width:1.0;"/></g><!--link Fast to Effect--><g id="link_Fast_Effect"><path codeLine="11" d="M407.85,877.25 C399.33,888.91 387.82,902.52 375,912 C318.11,954.04 289.39,937.86 228,973 C206.01,985.58 197.5915,990.8047 178.4915,1005.7347 " fill="none" id="Fast-to-Effect" style="stroke:#181818;stroke-width:1.0;"/><polygon fill="none" points="164.31,1016.82,182.1866,1010.4618,174.7964,1001.0075,164.31,1016.82" style="stroke:#181818;stroke-width:1.0;"/></g><!--link Paralyse to Effect--><g id="link_Paralyse_Effect"><path codeLine="15" d="M291.29,877.34 C258.17,911.38 208.7124,962.2089 168.0324,1004.0189 " fill="none" id="Paralyse-to-Effect" style="stroke:#181818;stroke-width:1.0;"/><polygon fill="none" points="155.48,1016.92,172.3327,1008.2031,163.732,999.8348,155.48,1016.92" style="stroke:#181818;stroke-width:1.0;"/></g><!--link ClawParalyze to Effect--><g id="link_ClawParalyze_Effect"><path codeLine="19" d="M170,877.34 C159.8,911.38 145.8711,957.8688 133.3311,999.6788 " fill="none" id="ClawParalyze-to-Effect" style="stroke:#181818;stroke-width:1.0;"/><polygon fill="none" points="128.16,1016.92,139.0782,1001.4025,127.5841,997.9551,128.16,1016.92" style="stroke:#181818;stroke-width:1.0;"/></g><!--SRC=[VSxD3SCm20NWUwTm5-WowGB8mObLyoCCXoZgxisfKYLKZdmFz1Jg2pOiBNWJwq7dhLnpxrn7h5Xqm87sqA3n2mIQR1sh2oU0xDsF1AQAOVO_vcuYzDmDOVqJM1mfuSxpwf90bI6SDS7MlXVl3m00]--></g></svg>