<?xml version="1.0" encoding="us-ascii" standalone="no"?><svg xmlns="http://www.w3.org/2000/svg" xmlns:xlink="http://www.w3.org/1999/xlink" contentStyleType="text/css" height="1700px" preserveAspectRatio="none" style="width:2546px;height:1700px;background:#FFFFFF;" version="1.1" viewBox="0 0 2546 1700" width="2546px" zoomAndPan="magnify"><defs/><g><!--cluster fungorium--><g id="cluster_fungorium"><path d="M8.5,6 L81.5,6 A3.75,3.75 0 0 1 84,8.5 L91,29.6094 L2536.5,29.6094 A2.5,2.5 0 0 1 2539,32.1094 L2539,1690.5 A2.5,2.5 0 0 1 2536.5,1693 L8.5,1693 A2.5,2.5 0 0 1 6,1690.5 L6,8.5 A2.5,2.5 0 0 1 8.5,6 " fill="none" style="stroke:#000000;stroke-width:1.5;"/><line style="stroke:#000000;stroke-width:1.5;" x1="6" x2="91" y1="29.6094" y2="29.6094"/><text fill="#000000" font-family="sans-serif" font-size="14" font-weight="bold" lengthAdjust="spacing" textLength="72" x="10" y="22.5332">fungorium</text></g><!--class IOnTurn--><g id="elem_IOnTurn"><rect codeLine="6" fill="#F1F1F1" height="65.6094" id="IOnTurn" rx="2.5" ry="2.5" style="stroke:#181818;stroke-width:0.5;" width="106" x="1616" y="77"/><ellipse cx="1640.45" cy="93" fill="#B4A7E5" rx="11" ry="11" style="stroke:#181818;stroke-width:1.0;"/><path d="M1641.4031,89.6406 L1641.4031,96.2969 L1643.1219,96.2969 Q1643.7313,96.2969 1643.9969,96.5313 Q1644.2625,96.7656 1644.2625,97.1563 Q1644.2625,97.5313 1643.9969,97.7656 Q1643.7313,98 1643.1219,98 L1637.9813,98 Q1637.3719,98 1637.1063,97.7656 Q1636.8406,97.5313 1636.8406,97.1406 Q1636.8406,96.7656 1637.1063,96.5313 Q1637.3719,96.2969 1637.9813,96.2969 L1639.7,96.2969 L1639.7,89.6406 L1637.9813,89.6406 Q1637.3719,89.6406 1637.1063,89.4063 Q1636.8406,89.1719 1636.8406,88.7813 Q1636.8406,88.4063 1637.1063,88.1719 Q1637.3719,87.9375 1637.9813,87.9375 L1643.1219,87.9375 Q1643.7313,87.9375 1643.9969,88.1719 Q1644.2625,88.4063 1644.2625,88.7813 Q1644.2625,89.1719 1643.9969,89.4063 Q1643.7313,89.6406 1643.1219,89.6406 L1641.4031,89.6406 Z " fill="#000000"/><text fill="#000000" font-family="sans-serif" font-size="14" font-style="italic" lengthAdjust="spacing" textLength="53" x="1656.55" y="98.7285">IOnTurn</text><line style="stroke:#181818;stroke-width:0.5;" x1="1617" x2="1721" y1="109" y2="109"/><line style="stroke:#181818;stroke-width:0.5;" x1="1617" x2="1721" y1="117" y2="117"/><text fill="#000000" font-family="sans-serif" font-size="14" lengthAdjust="spacing" textLength="94" x="1622" y="135.5332">onTurn() : void</text></g><!--class Player--><g id="elem_Player"><rect codeLine="2" fill="#F1F1F1" height="100.8281" id="Player" rx="2.5" ry="2.5" style="stroke:#181818;stroke-width:0.5;" width="164" x="1672" y="239"/><ellipse cx="1729.75" cy="255" fill="#A9DCDF" rx="11" ry="11" style="stroke:#181818;stroke-width:1.0;"/><path d="M1731.9375,256.7656 L1727.7969,256.7656 L1727.375,257.7969 L1727.7969,257.7969 Q1728.4063,257.7969 1728.6719,258.0313 Q1728.9375,258.2656 1728.9375,258.6563 Q1728.9375,259.0313 1728.6719,259.2656 Q1728.4063,259.5 1727.7969,259.5 L1725.5,259.5 Q1724.8906,259.5 1724.6406,259.2656 Q1724.375,259.0313 1724.375,258.6406 Q1724.375,258.2656 1724.6563,258.0313 Q1724.9219,257.7813 1725.5469,257.7969 L1728.2188,251.1406 L1727.1094,251.1406 Q1726.5,251.1406 1726.2344,250.9063 Q1725.9688,250.6719 1725.9688,250.2813 Q1725.9688,249.9063 1726.2344,249.6719 Q1726.5,249.4375 1727.1094,249.4375 L1730.7813,249.4375 L1734.1719,257.7969 Q1734.7656,257.7969 1734.9531,257.9375 Q1735.3438,258.2031 1735.3438,258.6563 Q1735.3438,259.0313 1735.0781,259.2656 Q1734.8281,259.5 1734.2188,259.5 L1731.9219,259.5 Q1731.3125,259.5 1731.0469,259.2656 Q1730.7813,259.0313 1730.7813,258.6406 Q1730.7813,258.2656 1731.0469,258.0313 Q1731.3125,257.7969 1731.9219,257.7969 L1732.3438,257.7969 L1731.9375,256.7656 Z M1731.2188,255.0625 L1729.8594,251.6875 L1728.4844,255.0625 L1731.2188,255.0625 Z " fill="#000000"/><text fill="#000000" font-family="sans-serif" font-size="14" font-style="italic" lengthAdjust="spacing" textLength="40" x="1750.25" y="260.7285">Player</text><line style="stroke:#181818;stroke-width:0.5;" x1="1673" x2="1835" y1="271" y2="271"/><text fill="#000000" font-family="sans-serif" font-size="14" lengthAdjust="spacing" textLength="91" x="1678" y="289.5332">score : Integer</text><text fill="#000000" font-family="sans-serif" font-size="14" lengthAdjust="spacing" textLength="67" x="1678" y="307.1426">id : Integer</text><line style="stroke:#181818;stroke-width:0.5;" x1="1673" x2="1835" y1="314.2188" y2="314.2188"/><text fill="#000000" font-family="sans-serif" font-size="14" lengthAdjust="spacing" textLength="152" x="1678" y="332.752">OnTurn() : abstract void</text></g><!--class Mushroomer--><g id="elem_Mushroomer"><rect codeLine="12" fill="#F1F1F1" height="153.6563" id="Mushroomer" rx="2.5" ry="2.5" style="stroke:#181818;stroke-width:0.5;" width="293" x="1923.5" y="401"/><ellipse cx="2026.25" cy="417" fill="#ADD1B2" rx="11" ry="11" style="stroke:#181818;stroke-width:1.0;"/><path d="M2029.0156,412.875 Q2029.1719,412.6563 2029.3594,412.5469 Q2029.5469,412.4375 2029.7656,412.4375 Q2030.1406,412.4375 2030.375,412.7031 Q2030.6094,412.9531 2030.6094,413.5625 L2030.6094,415.0156 Q2030.6094,415.625 2030.375,415.8906 Q2030.1406,416.1563 2029.7656,416.1563 Q2029.4219,416.1563 2029.2188,415.9531 Q2029.0156,415.7656 2028.9063,415.25 Q2028.8594,414.8906 2028.6719,414.7031 Q2028.3438,414.3281 2027.7344,414.1094 Q2027.125,413.8906 2026.5,413.8906 Q2025.7344,413.8906 2025.0938,414.2188 Q2024.4688,414.5469 2023.9688,415.2969 Q2023.4844,416.0469 2023.4844,417.0781 L2023.4844,418.1719 Q2023.4844,419.4063 2024.375,420.2344 Q2025.2656,421.0469 2026.8594,421.0469 Q2027.7969,421.0469 2028.4531,420.7969 Q2028.8438,420.6406 2029.2656,420.2031 Q2029.5313,419.9375 2029.6719,419.8594 Q2029.8281,419.7813 2030.0313,419.7813 Q2030.3594,419.7813 2030.6094,420.0469 Q2030.875,420.2969 2030.875,420.6406 Q2030.875,420.9844 2030.5313,421.3906 Q2030.0313,421.9688 2029.2344,422.2969 Q2028.1563,422.75 2026.8594,422.75 Q2025.3438,422.75 2024.1406,422.125 Q2023.1563,421.625 2022.4688,420.5625 Q2021.7813,419.4844 2021.7813,418.2031 L2021.7813,417.0469 Q2021.7813,415.7188 2022.3906,414.5781 Q2023.0156,413.4219 2024.1094,412.8125 Q2025.2031,412.1875 2026.4375,412.1875 Q2027.1719,412.1875 2027.8125,412.3594 Q2028.4688,412.5156 2029.0156,412.875 Z " fill="#000000"/><text fill="#000000" font-family="sans-serif" font-size="14" lengthAdjust="spacing" textLength="79" x="2046.75" y="422.7285">Mushroomer</text><line style="stroke:#181818;stroke-width:0.5;" x1="1924.5" x2="2215.5" y1="433" y2="433"/><text fill="#000000" font-family="sans-serif" font-size="14" lengthAdjust="spacing" textLength="253" x="1929.5" y="451.5332">mushroomStems : List&lt;MushroomStem&gt;</text><text fill="#000000" font-family="sans-serif" font-size="14" lengthAdjust="spacing" textLength="281" x="1929.5" y="469.1426">mushroomThreads : List&lt;MushroomThread&gt;</text><line style="stroke:#181818;stroke-width:0.5;" x1="1924.5" x2="2215.5" y1="476.2188" y2="476.2188"/><text fill="#000000" font-family="sans-serif" font-size="14" lengthAdjust="spacing" textLength="179" x="1929.5" y="494.752">getColonies() : List&lt;Colony&gt;</text><text fill="#000000" font-family="sans-serif" font-size="14" lengthAdjust="spacing" textLength="155" x="1929.5" y="512.3613">plantStem(Tecton) : void</text><text fill="#000000" font-family="sans-serif" font-size="14" lengthAdjust="spacing" textLength="210" x="1929.5" y="529.9707">throwSpore(Tecton, Spore) : void</text><text fill="#000000" font-family="sans-serif" font-size="14" lengthAdjust="spacing" textLength="97" x="1929.5" y="547.5801">OnTurn() : void</text></g><!--class MushroomStem--><g id="elem_MushroomStem"><rect codeLine="5" fill="#F1F1F1" height="153.6563" id="MushroomStem" rx="2.5" ry="2.5" style="stroke:#181818;stroke-width:0.5;" width="222" x="2301" y="1344"/><ellipse cx="2358.75" cy="1360" fill="#ADD1B2" rx="11" ry="11" style="stroke:#181818;stroke-width:1.0;"/><path d="M2361.5156,1355.875 Q2361.6719,1355.6563 2361.8594,1355.5469 Q2362.0469,1355.4375 2362.2656,1355.4375 Q2362.6406,1355.4375 2362.875,1355.7031 Q2363.1094,1355.9531 2363.1094,1356.5625 L2363.1094,1358.0156 Q2363.1094,1358.625 2362.875,1358.8906 Q2362.6406,1359.1563 2362.2656,1359.1563 Q2361.9219,1359.1563 2361.7188,1358.9531 Q2361.5156,1358.7656 2361.4063,1358.25 Q2361.3594,1357.8906 2361.1719,1357.7031 Q2360.8438,1357.3281 2360.2344,1357.1094 Q2359.625,1356.8906 2359,1356.8906 Q2358.2344,1356.8906 2357.5938,1357.2188 Q2356.9688,1357.5469 2356.4688,1358.2969 Q2355.9844,1359.0469 2355.9844,1360.0781 L2355.9844,1361.1719 Q2355.9844,1362.4063 2356.875,1363.2344 Q2357.7656,1364.0469 2359.3594,1364.0469 Q2360.2969,1364.0469 2360.9531,1363.7969 Q2361.3438,1363.6406 2361.7656,1363.2031 Q2362.0313,1362.9375 2362.1719,1362.8594 Q2362.3281,1362.7813 2362.5313,1362.7813 Q2362.8594,1362.7813 2363.1094,1363.0469 Q2363.375,1363.2969 2363.375,1363.6406 Q2363.375,1363.9844 2363.0313,1364.3906 Q2362.5313,1364.9688 2361.7344,1365.2969 Q2360.6563,1365.75 2359.3594,1365.75 Q2357.8438,1365.75 2356.6406,1365.125 Q2355.6563,1364.625 2354.9688,1363.5625 Q2354.2813,1362.4844 2354.2813,1361.2031 L2354.2813,1360.0469 Q2354.2813,1358.7188 2354.8906,1357.5781 Q2355.5156,1356.4219 2356.6094,1355.8125 Q2357.7031,1355.1875 2358.9375,1355.1875 Q2359.6719,1355.1875 2360.3125,1355.3594 Q2360.9688,1355.5156 2361.5156,1355.875 Z " fill="#000000"/><text fill="#000000" font-family="sans-serif" font-size="14" lengthAdjust="spacing" textLength="98" x="2379.25" y="1365.7285">MushroomStem</text><line style="stroke:#181818;stroke-width:0.5;" x1="2302" x2="2522" y1="1376" y2="1376"/><text fill="#000000" font-family="sans-serif" font-size="14" lengthAdjust="spacing" text-decoration="underline" textLength="165" x="2307" y="1394.5332">maxSporeThrows : Integer</text><text fill="#000000" font-family="sans-serif" font-size="14" lengthAdjust="spacing" textLength="139" x="2307" y="1412.1426">thrownSpores: Integer</text><text fill="#000000" font-family="sans-serif" font-size="14" lengthAdjust="spacing" textLength="96" x="2307" y="1429.752">energy: Integer</text><text fill="#000000" font-family="sans-serif" font-size="14" lengthAdjust="spacing" textLength="81" x="2307" y="1447.3613">level: Integer</text><line style="stroke:#181818;stroke-width:0.5;" x1="2302" x2="2522" y1="1454.4375" y2="1454.4375"/><text fill="#000000" font-family="sans-serif" font-size="14" lengthAdjust="spacing" textLength="210" x="2307" y="1472.9707">throwSpore(Spore, Tecton) : void</text><text fill="#000000" font-family="sans-serif" font-size="14" lengthAdjust="spacing" textLength="93" x="2307" y="1490.5801">OnTurn(): void</text></g><!--class MushroomThread--><g id="elem_MushroomThread"><rect codeLine="3" fill="#F1F1F1" height="65.6094" id="MushroomThread" rx="2.5" ry="2.5" style="stroke:#181818;stroke-width:0.5;" width="273" x="1992.5" y="1388"/><ellipse cx="2068.75" cy="1404" fill="#ADD1B2" rx="11" ry="11" style="stroke:#181818;stroke-width:1.0;"/><path d="M2071.5156,1399.875 Q2071.6719,1399.6563 2071.8594,1399.5469 Q2072.0469,1399.4375 2072.2656,1399.4375 Q2072.6406,1399.4375 2072.875,1399.7031 Q2073.1094,1399.9531 2073.1094,1400.5625 L2073.1094,1402.0156 Q2073.1094,1402.625 2072.875,1402.8906 Q2072.6406,1403.1563 2072.2656,1403.1563 Q2071.9219,1403.1563 2071.7188,1402.9531 Q2071.5156,1402.7656 2071.4063,1402.25 Q2071.3594,1401.8906 2071.1719,1401.7031 Q2070.8438,1401.3281 2070.2344,1401.1094 Q2069.625,1400.8906 2069,1400.8906 Q2068.2344,1400.8906 2067.5938,1401.2188 Q2066.9688,1401.5469 2066.4688,1402.2969 Q2065.9844,1403.0469 2065.9844,1404.0781 L2065.9844,1405.1719 Q2065.9844,1406.4063 2066.875,1407.2344 Q2067.7656,1408.0469 2069.3594,1408.0469 Q2070.2969,1408.0469 2070.9531,1407.7969 Q2071.3438,1407.6406 2071.7656,1407.2031 Q2072.0313,1406.9375 2072.1719,1406.8594 Q2072.3281,1406.7813 2072.5313,1406.7813 Q2072.8594,1406.7813 2073.1094,1407.0469 Q2073.375,1407.2969 2073.375,1407.6406 Q2073.375,1407.9844 2073.0313,1408.3906 Q2072.5313,1408.9688 2071.7344,1409.2969 Q2070.6563,1409.75 2069.3594,1409.75 Q2067.8438,1409.75 2066.6406,1409.125 Q2065.6563,1408.625 2064.9688,1407.5625 Q2064.2813,1406.4844 2064.2813,1405.2031 L2064.2813,1404.0469 Q2064.2813,1402.7188 2064.8906,1401.5781 Q2065.5156,1400.4219 2066.6094,1399.8125 Q2067.7031,1399.1875 2068.9375,1399.1875 Q2069.6719,1399.1875 2070.3125,1399.3594 Q2070.9688,1399.5156 2071.5156,1399.875 Z " fill="#000000"/><text fill="#000000" font-family="sans-serif" font-size="14" lengthAdjust="spacing" textLength="112" x="2089.25" y="1409.7285">MushroomThread</text><line style="stroke:#181818;stroke-width:0.5;" x1="1993.5" x2="2264.5" y1="1420" y2="1420"/><line style="stroke:#181818;stroke-width:0.5;" x1="1993.5" x2="2264.5" y1="1428" y2="1428"/><text fill="#000000" font-family="sans-serif" font-size="14" lengthAdjust="spacing" textLength="261" x="1998.5" y="1446.5332">getConnected() : List&lt;MushroomThread&gt;</text></g><!--class Colony--><g id="elem_Colony"><rect codeLine="5" fill="#F1F1F1" height="118.4375" id="Colony" rx="2.5" ry="2.5" style="stroke:#181818;stroke-width:0.5;" width="293" x="2051.5" y="980"/><ellipse cx="2171.75" cy="996" fill="#ADD1B2" rx="11" ry="11" style="stroke:#181818;stroke-width:1.0;"/><path d="M2174.5156,991.875 Q2174.6719,991.6563 2174.8594,991.5469 Q2175.0469,991.4375 2175.2656,991.4375 Q2175.6406,991.4375 2175.875,991.7031 Q2176.1094,991.9531 2176.1094,992.5625 L2176.1094,994.0156 Q2176.1094,994.625 2175.875,994.8906 Q2175.6406,995.1563 2175.2656,995.1563 Q2174.9219,995.1563 2174.7188,994.9531 Q2174.5156,994.7656 2174.4063,994.25 Q2174.3594,993.8906 2174.1719,993.7031 Q2173.8438,993.3281 2173.2344,993.1094 Q2172.625,992.8906 2172,992.8906 Q2171.2344,992.8906 2170.5938,993.2188 Q2169.9688,993.5469 2169.4688,994.2969 Q2168.9844,995.0469 2168.9844,996.0781 L2168.9844,997.1719 Q2168.9844,998.4063 2169.875,999.2344 Q2170.7656,1000.0469 2172.3594,1000.0469 Q2173.2969,1000.0469 2173.9531,999.7969 Q2174.3438,999.6406 2174.7656,999.2031 Q2175.0313,998.9375 2175.1719,998.8594 Q2175.3281,998.7813 2175.5313,998.7813 Q2175.8594,998.7813 2176.1094,999.0469 Q2176.375,999.2969 2176.375,999.6406 Q2176.375,999.9844 2176.0313,1000.3906 Q2175.5313,1000.9688 2174.7344,1001.2969 Q2173.6563,1001.75 2172.3594,1001.75 Q2170.8438,1001.75 2169.6406,1001.125 Q2168.6563,1000.625 2167.9688,999.5625 Q2167.2813,998.4844 2167.2813,997.2031 L2167.2813,996.0469 Q2167.2813,994.7188 2167.8906,993.5781 Q2168.5156,992.4219 2169.6094,991.8125 Q2170.7031,991.1875 2171.9375,991.1875 Q2172.6719,991.1875 2173.3125,991.3594 Q2173.9688,991.5156 2174.5156,991.875 Z " fill="#000000"/><text fill="#000000" font-family="sans-serif" font-size="14" lengthAdjust="spacing" textLength="44" x="2192.25" y="1001.7285">Colony</text><line style="stroke:#181818;stroke-width:0.5;" x1="2052.5" x2="2343.5" y1="1012" y2="1012"/><text fill="#000000" font-family="sans-serif" font-size="14" lengthAdjust="spacing" textLength="253" x="2057.5" y="1030.5332">mushroomStems : List&lt;MushroomStem&gt;</text><text fill="#000000" font-family="sans-serif" font-size="14" lengthAdjust="spacing" textLength="281" x="2057.5" y="1048.1426">mushroomThreads : List&lt;MushroomThread&gt;</text><line style="stroke:#181818;stroke-width:0.5;" x1="2052.5" x2="2343.5" y1="1055.2188" y2="1055.2188"/><text fill="#000000" font-family="sans-serif" font-size="14" lengthAdjust="spacing" textLength="97" x="2057.5" y="1073.752">Destroy() : void</text><text fill="#000000" font-family="sans-serif" font-size="14" lengthAdjust="spacing" textLength="156" x="2057.5" y="1091.3613">getStemCount() : Integer</text></g><!--class Insecter--><g id="elem_Insecter"><rect codeLine="23" fill="#F1F1F1" height="136.0469" id="Insecter" rx="2.5" ry="2.5" style="stroke:#181818;stroke-width:0.5;" width="237" x="1157.5" y="42"/><ellipse cx="1246.75" cy="58" fill="#ADD1B2" rx="11" ry="11" style="stroke:#181818;stroke-width:1.0;"/><path d="M1249.5156,53.875 Q1249.6719,53.6563 1249.8594,53.5469 Q1250.0469,53.4375 1250.2656,53.4375 Q1250.6406,53.4375 1250.875,53.7031 Q1251.1094,53.9531 1251.1094,54.5625 L1251.1094,56.0156 Q1251.1094,56.625 1250.875,56.8906 Q1250.6406,57.1563 1250.2656,57.1563 Q1249.9219,57.1563 1249.7188,56.9531 Q1249.5156,56.7656 1249.4063,56.25 Q1249.3594,55.8906 1249.1719,55.7031 Q1248.8438,55.3281 1248.2344,55.1094 Q1247.625,54.8906 1247,54.8906 Q1246.2344,54.8906 1245.5938,55.2188 Q1244.9688,55.5469 1244.4688,56.2969 Q1243.9844,57.0469 1243.9844,58.0781 L1243.9844,59.1719 Q1243.9844,60.4063 1244.875,61.2344 Q1245.7656,62.0469 1247.3594,62.0469 Q1248.2969,62.0469 1248.9531,61.7969 Q1249.3438,61.6406 1249.7656,61.2031 Q1250.0313,60.9375 1250.1719,60.8594 Q1250.3281,60.7813 1250.5313,60.7813 Q1250.8594,60.7813 1251.1094,61.0469 Q1251.375,61.2969 1251.375,61.6406 Q1251.375,61.9844 1251.0313,62.3906 Q1250.5313,62.9688 1249.7344,63.2969 Q1248.6563,63.75 1247.3594,63.75 Q1245.8438,63.75 1244.6406,63.125 Q1243.6563,62.625 1242.9688,61.5625 Q1242.2813,60.4844 1242.2813,59.2031 L1242.2813,58.0469 Q1242.2813,56.7188 1242.8906,55.5781 Q1243.5156,54.4219 1244.6094,53.8125 Q1245.7031,53.1875 1246.9375,53.1875 Q1247.6719,53.1875 1248.3125,53.3594 Q1248.9688,53.5156 1249.5156,53.875 Z " fill="#000000"/><text fill="#000000" font-family="sans-serif" font-size="14" lengthAdjust="spacing" textLength="50" x="1267.25" y="63.7285">Insecter</text><line style="stroke:#181818;stroke-width:0.5;" x1="1158.5" x2="1393.5" y1="74" y2="74"/><text fill="#000000" font-family="sans-serif" font-size="14" lengthAdjust="spacing" textLength="86" x="1163.5" y="92.5332">insect : Insect</text><line style="stroke:#181818;stroke-width:0.5;" x1="1158.5" x2="1393.5" y1="99.6094" y2="99.6094"/><text fill="#000000" font-family="sans-serif" font-size="14" lengthAdjust="spacing" textLength="106" x="1163.5" y="118.1426">eat(Spore) : void</text><text fill="#000000" font-family="sans-serif" font-size="14" lengthAdjust="spacing" textLength="163" x="1163.5" y="135.752">moveInsect(Tecton) : void</text><text fill="#000000" font-family="sans-serif" font-size="14" lengthAdjust="spacing" textLength="225" x="1163.5" y="153.3613">cutThread(MushroomThread) : void</text><text fill="#000000" font-family="sans-serif" font-size="14" lengthAdjust="spacing" textLength="97" x="1163.5" y="170.9707">OnTurn() : void</text></g><!--class Insect--><g id="elem_Insect"><rect codeLine="6" fill="#F1F1F1" height="136.0469" id="Insect" rx="2.5" ry="2.5" style="stroke:#181818;stroke-width:0.5;" width="191" x="918.5" y="1353"/><ellipse cx="991.25" cy="1369" fill="#ADD1B2" rx="11" ry="11" style="stroke:#181818;stroke-width:1.0;"/><path d="M994.0156,1364.875 Q994.1719,1364.6563 994.3594,1364.5469 Q994.5469,1364.4375 994.7656,1364.4375 Q995.1406,1364.4375 995.375,1364.7031 Q995.6094,1364.9531 995.6094,1365.5625 L995.6094,1367.0156 Q995.6094,1367.625 995.375,1367.8906 Q995.1406,1368.1563 994.7656,1368.1563 Q994.4219,1368.1563 994.2188,1367.9531 Q994.0156,1367.7656 993.9063,1367.25 Q993.8594,1366.8906 993.6719,1366.7031 Q993.3438,1366.3281 992.7344,1366.1094 Q992.125,1365.8906 991.5,1365.8906 Q990.7344,1365.8906 990.0938,1366.2188 Q989.4688,1366.5469 988.9688,1367.2969 Q988.4844,1368.0469 988.4844,1369.0781 L988.4844,1370.1719 Q988.4844,1371.4063 989.375,1372.2344 Q990.2656,1373.0469 991.8594,1373.0469 Q992.7969,1373.0469 993.4531,1372.7969 Q993.8438,1372.6406 994.2656,1372.2031 Q994.5313,1371.9375 994.6719,1371.8594 Q994.8281,1371.7813 995.0313,1371.7813 Q995.3594,1371.7813 995.6094,1372.0469 Q995.875,1372.2969 995.875,1372.6406 Q995.875,1372.9844 995.5313,1373.3906 Q995.0313,1373.9688 994.2344,1374.2969 Q993.1563,1374.75 991.8594,1374.75 Q990.3438,1374.75 989.1406,1374.125 Q988.1563,1373.625 987.4688,1372.5625 Q986.7813,1371.4844 986.7813,1370.2031 L986.7813,1369.0469 Q986.7813,1367.7188 987.3906,1366.5781 Q988.0156,1365.4219 989.1094,1364.8125 Q990.2031,1364.1875 991.4375,1364.1875 Q992.1719,1364.1875 992.8125,1364.3594 Q993.4688,1364.5156 994.0156,1364.875 Z " fill="#000000"/><text fill="#000000" font-family="sans-serif" font-size="14" lengthAdjust="spacing" textLength="37" x="1011.75" y="1374.7285">Insect</text><line style="stroke:#181818;stroke-width:0.5;" x1="919.5" x2="1108.5" y1="1385" y2="1385"/><text fill="#000000" font-family="sans-serif" font-size="14" lengthAdjust="spacing" textLength="128" x="924.5" y="1403.5332">effects : List&lt;Effect&gt;</text><line style="stroke:#181818;stroke-width:0.5;" x1="919.5" x2="1108.5" y1="1410.6094" y2="1410.6094"/><text fill="#000000" font-family="sans-serif" font-size="14" lengthAdjust="spacing" textLength="106" x="924.5" y="1429.1426">eat(Spore) : void</text><text fill="#000000" font-family="sans-serif" font-size="14" lengthAdjust="spacing" textLength="126" x="924.5" y="1446.752">move(Tecton) : void</text><text fill="#000000" font-family="sans-serif" font-size="14" lengthAdjust="spacing" textLength="179" x="924.5" y="1464.3613">cut(MushroomThread) : void</text><text fill="#000000" font-family="sans-serif" font-size="14" lengthAdjust="spacing" textLength="97" x="924.5" y="1481.9707">OnTurn() : void</text></g><!--class IOnRound--><g id="elem_IOnRound"><rect codeLine="10" fill="#F1F1F1" height="65.6094" id="IOnRound" rx="2.5" ry="2.5" style="stroke:#181818;stroke-width:0.5;" width="118" x="1450" y="445"/><ellipse cx="1474.45" cy="461" fill="#B4A7E5" rx="11" ry="11" style="stroke:#181818;stroke-width:1.0;"/><path d="M1475.4031,457.6406 L1475.4031,464.2969 L1477.1219,464.2969 Q1477.7313,464.2969 1477.9969,464.5313 Q1478.2625,464.7656 1478.2625,465.1563 Q1478.2625,465.5313 1477.9969,465.7656 Q1477.7313,466 1477.1219,466 L1471.9813,466 Q1471.3719,466 1471.1063,465.7656 Q1470.8406,465.5313 1470.8406,465.1406 Q1470.8406,464.7656 1471.1063,464.5313 Q1471.3719,464.2969 1471.9813,464.2969 L1473.7,464.2969 L1473.7,457.6406 L1471.9813,457.6406 Q1471.3719,457.6406 1471.1063,457.4063 Q1470.8406,457.1719 1470.8406,456.7813 Q1470.8406,456.4063 1471.1063,456.1719 Q1471.3719,455.9375 1471.9813,455.9375 L1477.1219,455.9375 Q1477.7313,455.9375 1477.9969,456.1719 Q1478.2625,456.4063 1478.2625,456.7813 Q1478.2625,457.1719 1477.9969,457.4063 Q1477.7313,457.6406 1477.1219,457.6406 L1475.4031,457.6406 Z " fill="#000000"/><text fill="#000000" font-family="sans-serif" font-size="14" font-style="italic" lengthAdjust="spacing" textLength="65" x="1490.55" y="466.7285">IOnRound</text><line style="stroke:#181818;stroke-width:0.5;" x1="1451" x2="1567" y1="477" y2="477"/><line style="stroke:#181818;stroke-width:0.5;" x1="1451" x2="1567" y1="485" y2="485"/><text fill="#000000" font-family="sans-serif" font-size="14" lengthAdjust="spacing" textLength="106" x="1456" y="503.5332">onRound() : void</text></g><!--class Map--><g id="elem_Map"><rect codeLine="4" fill="#F1F1F1" height="118.4375" id="Map" rx="2.5" ry="2.5" style="stroke:#181818;stroke-width:0.5;" width="173" x="1389.5" y="616"/><ellipse cx="1458.25" cy="632" fill="#ADD1B2" rx="11" ry="11" style="stroke:#181818;stroke-width:1.0;"/><path d="M1461.0156,627.875 Q1461.1719,627.6563 1461.3594,627.5469 Q1461.5469,627.4375 1461.7656,627.4375 Q1462.1406,627.4375 1462.375,627.7031 Q1462.6094,627.9531 1462.6094,628.5625 L1462.6094,630.0156 Q1462.6094,630.625 1462.375,630.8906 Q1462.1406,631.1563 1461.7656,631.1563 Q1461.4219,631.1563 1461.2188,630.9531 Q1461.0156,630.7656 1460.9063,630.25 Q1460.8594,629.8906 1460.6719,629.7031 Q1460.3438,629.3281 1459.7344,629.1094 Q1459.125,628.8906 1458.5,628.8906 Q1457.7344,628.8906 1457.0938,629.2188 Q1456.4688,629.5469 1455.9688,630.2969 Q1455.4844,631.0469 1455.4844,632.0781 L1455.4844,633.1719 Q1455.4844,634.4063 1456.375,635.2344 Q1457.2656,636.0469 1458.8594,636.0469 Q1459.7969,636.0469 1460.4531,635.7969 Q1460.8438,635.6406 1461.2656,635.2031 Q1461.5313,634.9375 1461.6719,634.8594 Q1461.8281,634.7813 1462.0313,634.7813 Q1462.3594,634.7813 1462.6094,635.0469 Q1462.875,635.2969 1462.875,635.6406 Q1462.875,635.9844 1462.5313,636.3906 Q1462.0313,636.9688 1461.2344,637.2969 Q1460.1563,637.75 1458.8594,637.75 Q1457.3438,637.75 1456.1406,637.125 Q1455.1563,636.625 1454.4688,635.5625 Q1453.7813,634.4844 1453.7813,633.2031 L1453.7813,632.0469 Q1453.7813,630.7188 1454.3906,629.5781 Q1455.0156,628.4219 1456.1094,627.8125 Q1457.2031,627.1875 1458.4375,627.1875 Q1459.1719,627.1875 1459.8125,627.3594 Q1460.4688,627.5156 1461.0156,627.875 Z " fill="#000000"/><text fill="#000000" font-family="sans-serif" font-size="14" lengthAdjust="spacing" textLength="27" x="1478.75" y="637.7285">Map</text><line style="stroke:#181818;stroke-width:0.5;" x1="1390.5" x2="1561.5" y1="648" y2="648"/><text fill="#000000" font-family="sans-serif" font-size="14" lengthAdjust="spacing" textLength="140" x="1395.5" y="666.5332">tectons : List&lt;Tecton&gt;</text><line style="stroke:#181818;stroke-width:0.5;" x1="1390.5" x2="1561.5" y1="673.6094" y2="673.6094"/><text fill="#000000" font-family="sans-serif" font-size="14" lengthAdjust="spacing" textLength="105" x="1395.5" y="692.1426">generate() : void</text><text fill="#000000" font-family="sans-serif" font-size="14" lengthAdjust="spacing" textLength="161" x="1395.5" y="709.752">splitTecton(Tecton) : void</text><text fill="#000000" font-family="sans-serif" font-size="14" lengthAdjust="spacing" textLength="109" x="1395.5" y="727.3613">OnRound() : void</text></g><!--class Tecton--><g id="elem_Tecton"><rect codeLine="5" fill="#F1F1F1" height="488.2344" id="Tecton" rx="2.5" ry="2.5" style="stroke:#181818;stroke-width:0.5;" width="310" x="1444" y="795"/><ellipse cx="1572.75" cy="811" fill="#ADD1B2" rx="11" ry="11" style="stroke:#181818;stroke-width:1.0;"/><path d="M1575.5156,806.875 Q1575.6719,806.6563 1575.8594,806.5469 Q1576.0469,806.4375 1576.2656,806.4375 Q1576.6406,806.4375 1576.875,806.7031 Q1577.1094,806.9531 1577.1094,807.5625 L1577.1094,809.0156 Q1577.1094,809.625 1576.875,809.8906 Q1576.6406,810.1563 1576.2656,810.1563 Q1575.9219,810.1563 1575.7188,809.9531 Q1575.5156,809.7656 1575.4063,809.25 Q1575.3594,808.8906 1575.1719,808.7031 Q1574.8438,808.3281 1574.2344,808.1094 Q1573.625,807.8906 1573,807.8906 Q1572.2344,807.8906 1571.5938,808.2188 Q1570.9688,808.5469 1570.4688,809.2969 Q1569.9844,810.0469 1569.9844,811.0781 L1569.9844,812.1719 Q1569.9844,813.4063 1570.875,814.2344 Q1571.7656,815.0469 1573.3594,815.0469 Q1574.2969,815.0469 1574.9531,814.7969 Q1575.3438,814.6406 1575.7656,814.2031 Q1576.0313,813.9375 1576.1719,813.8594 Q1576.3281,813.7813 1576.5313,813.7813 Q1576.8594,813.7813 1577.1094,814.0469 Q1577.375,814.2969 1577.375,814.6406 Q1577.375,814.9844 1577.0313,815.3906 Q1576.5313,815.9688 1575.7344,816.2969 Q1574.6563,816.75 1573.3594,816.75 Q1571.8438,816.75 1570.6406,816.125 Q1569.6563,815.625 1568.9688,814.5625 Q1568.2813,813.4844 1568.2813,812.2031 L1568.2813,811.0469 Q1568.2813,809.7188 1568.8906,808.5781 Q1569.5156,807.4219 1570.6094,806.8125 Q1571.7031,806.1875 1572.9375,806.1875 Q1573.6719,806.1875 1574.3125,806.3594 Q1574.9688,806.5156 1575.5156,806.875 Z " fill="#000000"/><text fill="#000000" font-family="sans-serif" font-size="14" lengthAdjust="spacing" textLength="44" x="1593.25" y="816.7285">Tecton</text><line style="stroke:#181818;stroke-width:0.5;" x1="1445" x2="1753" y1="827" y2="827"/><text fill="#000000" font-family="sans-serif" font-size="14" lengthAdjust="spacing" text-decoration="underline" textLength="134" x="1450" y="845.5332">maxThreads : Integer</text><text fill="#000000" font-family="sans-serif" font-size="14" lengthAdjust="spacing" textLength="4" x="1450" y="863.1426">&#160;</text><text fill="#000000" font-family="sans-serif" font-size="14" lengthAdjust="spacing" textLength="165" x="1450" y="880.752">neighbours : List&lt;Tecton&gt;</text><text fill="#000000" font-family="sans-serif" font-size="14" lengthAdjust="spacing" textLength="130" x="1450" y="898.3613">entities : List&lt;Entity&gt;</text><text fill="#000000" font-family="sans-serif" font-size="14" lengthAdjust="spacing" textLength="4" x="1450" y="915.9707">&#160;</text><text fill="#000000" font-family="sans-serif" font-size="14" lengthAdjust="spacing" textLength="140" x="1450" y="933.5801">stem : MushroomStem</text><text fill="#000000" font-family="sans-serif" font-size="14" lengthAdjust="spacing" textLength="210" x="1450" y="951.1895">threads : List&lt;MushroomThread&gt;</text><text fill="#000000" font-family="sans-serif" font-size="14" lengthAdjust="spacing" textLength="131" x="1450" y="968.7988">spores : List&lt;Spore&gt;</text><text fill="#000000" font-family="sans-serif" font-size="14" lengthAdjust="spacing" textLength="131" x="1450" y="986.4082">insects : List&lt;Insect&gt;</text><line style="stroke:#181818;stroke-width:0.5;" x1="1445" x2="1753" y1="993.4844" y2="993.4844"/><text fill="#000000" font-family="sans-serif" font-size="14" lengthAdjust="spacing" textLength="181" x="1450" y="1012.0176">addNeighbour(Tecton) : void</text><text fill="#000000" font-family="sans-serif" font-size="14" lengthAdjust="spacing" textLength="236" x="1450" y="1029.627">addStem(MushroomStem stem) : void</text><text fill="#000000" font-family="sans-serif" font-size="14" lengthAdjust="spacing" textLength="127" x="1450" y="1047.2363">removeStem() : void</text><text fill="#000000" font-family="sans-serif" font-size="14" lengthAdjust="spacing" textLength="4" x="1450" y="1064.8457">&#160;</text><text fill="#000000" font-family="sans-serif" font-size="14" lengthAdjust="spacing" textLength="275" x="1450" y="1082.4551">addThread(MushroomThread thread) : void</text><text fill="#000000" font-family="sans-serif" font-size="14" lengthAdjust="spacing" textLength="298" x="1450" y="1100.0645">removeThread(MushroomThread thread) : void</text><text fill="#000000" font-family="sans-serif" font-size="14" lengthAdjust="spacing" textLength="4" x="1450" y="1117.6738">&#160;</text><text fill="#000000" font-family="sans-serif" font-size="14" lengthAdjust="spacing" textLength="188" x="1450" y="1135.2832">addSpore(Spore spore) : void</text><text fill="#000000" font-family="sans-serif" font-size="14" lengthAdjust="spacing" textLength="211" x="1450" y="1152.8926">removeSpore(Spore spore) : void</text><text fill="#000000" font-family="sans-serif" font-size="14" lengthAdjust="spacing" textLength="4" x="1450" y="1170.502">&#160;</text><text fill="#000000" font-family="sans-serif" font-size="14" lengthAdjust="spacing" textLength="187" x="1450" y="1188.1113">addInsect(Insect insect) : void</text><text fill="#000000" font-family="sans-serif" font-size="14" lengthAdjust="spacing" textLength="210" x="1450" y="1205.7207">removeInsect(Insect insect) : void</text><text fill="#000000" font-family="sans-serif" font-size="14" lengthAdjust="spacing" textLength="4" x="1450" y="1223.3301">&#160;</text><text fill="#000000" font-family="sans-serif" font-size="14" lengthAdjust="spacing" textLength="91" x="1450" y="1240.9395">split() : Tecton</text><text fill="#000000" font-family="sans-serif" font-size="14" lengthAdjust="spacing" textLength="4" x="1450" y="1258.5488">&#160;</text><text fill="#000000" font-family="sans-serif" font-size="14" lengthAdjust="spacing" textLength="109" x="1450" y="1276.1582">OnRound() : void</text></g><!--class Spore--><g id="elem_Spore"><rect codeLine="5" fill="#F1F1F1" height="83.2188" id="Spore" rx="2.5" ry="2.5" style="stroke:#181818;stroke-width:0.5;" width="181" x="1776.5" y="1379.5"/><ellipse cx="1843.75" cy="1395.5" fill="#A9DCDF" rx="11" ry="11" style="stroke:#181818;stroke-width:1.0;"/><path d="M1845.9375,1397.2656 L1841.7969,1397.2656 L1841.375,1398.2969 L1841.7969,1398.2969 Q1842.4063,1398.2969 1842.6719,1398.5313 Q1842.9375,1398.7656 1842.9375,1399.1563 Q1842.9375,1399.5313 1842.6719,1399.7656 Q1842.4063,1400 1841.7969,1400 L1839.5,1400 Q1838.8906,1400 1838.6406,1399.7656 Q1838.375,1399.5313 1838.375,1399.1406 Q1838.375,1398.7656 1838.6563,1398.5313 Q1838.9219,1398.2813 1839.5469,1398.2969 L1842.2188,1391.6406 L1841.1094,1391.6406 Q1840.5,1391.6406 1840.2344,1391.4063 Q1839.9688,1391.1719 1839.9688,1390.7813 Q1839.9688,1390.4063 1840.2344,1390.1719 Q1840.5,1389.9375 1841.1094,1389.9375 L1844.7813,1389.9375 L1848.1719,1398.2969 Q1848.7656,1398.2969 1848.9531,1398.4375 Q1849.3438,1398.7031 1849.3438,1399.1563 Q1849.3438,1399.5313 1849.0781,1399.7656 Q1848.8281,1400 1848.2188,1400 L1845.9219,1400 Q1845.3125,1400 1845.0469,1399.7656 Q1844.7813,1399.5313 1844.7813,1399.1406 Q1844.7813,1398.7656 1845.0469,1398.5313 Q1845.3125,1398.2969 1845.9219,1398.2969 L1846.3438,1398.2969 L1845.9375,1397.2656 Z M1845.2188,1395.5625 L1843.8594,1392.1875 L1842.4844,1395.5625 L1845.2188,1395.5625 Z " fill="#000000"/><text fill="#000000" font-family="sans-serif" font-size="14" font-style="italic" lengthAdjust="spacing" textLength="38" x="1864.25" y="1401.2285">Spore</text><line style="stroke:#181818;stroke-width:0.5;" x1="1777.5" x2="1956.5" y1="1411.5" y2="1411.5"/><text fill="#000000" font-family="sans-serif" font-size="14" lengthAdjust="spacing" textLength="107" x="1782.5" y="1430.0332">nutrition : Integer</text><line style="stroke:#181818;stroke-width:0.5;" x1="1777.5" x2="1956.5" y1="1437.1094" y2="1437.1094"/><text fill="#000000" font-family="sans-serif" font-size="14" lengthAdjust="spacing" textLength="169" x="1782.5" y="1455.6426">getEffect() : abstract Effect</text></g><!--class SingleThreadedTecton--><g id="elem_SingleThreadedTecton"><rect codeLine="42" fill="#F1F1F1" height="65.6094" id="SingleThreadedTecton" rx="2.5" ry="2.5" style="stroke:#181818;stroke-width:0.5;" width="177" x="1564.5" y="1388"/><ellipse cx="1579.5" cy="1404" fill="#ADD1B2" rx="11" ry="11" style="stroke:#181818;stroke-width:1.0;"/><path d="M1582.2656,1399.875 Q1582.4219,1399.6563 1582.6094,1399.5469 Q1582.7969,1399.4375 1583.0156,1399.4375 Q1583.3906,1399.4375 1583.625,1399.7031 Q1583.8594,1399.9531 1583.8594,1400.5625 L1583.8594,1402.0156 Q1583.8594,1402.625 1583.625,1402.8906 Q1583.3906,1403.1563 1583.0156,1403.1563 Q1582.6719,1403.1563 1582.4688,1402.9531 Q1582.2656,1402.7656 1582.1563,1402.25 Q1582.1094,1401.8906 1581.9219,1401.7031 Q1581.5938,1401.3281 1580.9844,1401.1094 Q1580.375,1400.8906 1579.75,1400.8906 Q1578.9844,1400.8906 1578.3438,1401.2188 Q1577.7188,1401.5469 1577.2188,1402.2969 Q1576.7344,1403.0469 1576.7344,1404.0781 L1576.7344,1405.1719 Q1576.7344,1406.4063 1577.625,1407.2344 Q1578.5156,1408.0469 1580.1094,1408.0469 Q1581.0469,1408.0469 1581.7031,1407.7969 Q1582.0938,1407.6406 1582.5156,1407.2031 Q1582.7813,1406.9375 1582.9219,1406.8594 Q1583.0781,1406.7813 1583.2813,1406.7813 Q1583.6094,1406.7813 1583.8594,1407.0469 Q1584.125,1407.2969 1584.125,1407.6406 Q1584.125,1407.9844 1583.7813,1408.3906 Q1583.2813,1408.9688 1582.4844,1409.2969 Q1581.4063,1409.75 1580.1094,1409.75 Q1578.5938,1409.75 1577.3906,1409.125 Q1576.4063,1408.625 1575.7188,1407.5625 Q1575.0313,1406.4844 1575.0313,1405.2031 L1575.0313,1404.0469 Q1575.0313,1402.7188 1575.6406,1401.5781 Q1576.2656,1400.4219 1577.3594,1399.8125 Q1578.4531,1399.1875 1579.6875,1399.1875 Q1580.4219,1399.1875 1581.0625,1399.3594 Q1581.7188,1399.5156 1582.2656,1399.875 Z " fill="#000000"/><text fill="#000000" font-family="sans-serif" font-size="14" lengthAdjust="spacing" textLength="145" x="1593.5" y="1409.7285">SingleThreadedTecton</text><line style="stroke:#181818;stroke-width:0.5;" x1="1565.5" x2="1740.5" y1="1420" y2="1420"/><text fill="#000000" font-family="sans-serif" font-size="14" lengthAdjust="spacing" text-decoration="underline" textLength="158" x="1570.5" y="1438.5332">maxThreads = 1 : Integer</text><line style="stroke:#181818;stroke-width:0.5;" x1="1565.5" x2="1740.5" y1="1445.6094" y2="1445.6094"/></g><!--class StemlessTecton--><g id="elem_StemlessTecton"><rect codeLine="49" fill="#F1F1F1" height="65.6094" id="StemlessTecton" rx="2.5" ry="2.5" style="stroke:#181818;stroke-width:0.5;" width="156" x="1145" y="1388"/><ellipse cx="1170.35" cy="1404" fill="#ADD1B2" rx="11" ry="11" style="stroke:#181818;stroke-width:1.0;"/><path d="M1173.1156,1399.875 Q1173.2719,1399.6563 1173.4594,1399.5469 Q1173.6469,1399.4375 1173.8656,1399.4375 Q1174.2406,1399.4375 1174.475,1399.7031 Q1174.7094,1399.9531 1174.7094,1400.5625 L1174.7094,1402.0156 Q1174.7094,1402.625 1174.475,1402.8906 Q1174.2406,1403.1563 1173.8656,1403.1563 Q1173.5219,1403.1563 1173.3188,1402.9531 Q1173.1156,1402.7656 1173.0063,1402.25 Q1172.9594,1401.8906 1172.7719,1401.7031 Q1172.4438,1401.3281 1171.8344,1401.1094 Q1171.225,1400.8906 1170.6,1400.8906 Q1169.8344,1400.8906 1169.1938,1401.2188 Q1168.5688,1401.5469 1168.0688,1402.2969 Q1167.5844,1403.0469 1167.5844,1404.0781 L1167.5844,1405.1719 Q1167.5844,1406.4063 1168.475,1407.2344 Q1169.3656,1408.0469 1170.9594,1408.0469 Q1171.8969,1408.0469 1172.5531,1407.7969 Q1172.9438,1407.6406 1173.3656,1407.2031 Q1173.6313,1406.9375 1173.7719,1406.8594 Q1173.9281,1406.7813 1174.1313,1406.7813 Q1174.4594,1406.7813 1174.7094,1407.0469 Q1174.975,1407.2969 1174.975,1407.6406 Q1174.975,1407.9844 1174.6313,1408.3906 Q1174.1313,1408.9688 1173.3344,1409.2969 Q1172.2563,1409.75 1170.9594,1409.75 Q1169.4438,1409.75 1168.2406,1409.125 Q1167.2563,1408.625 1166.5688,1407.5625 Q1165.8813,1406.4844 1165.8813,1405.2031 L1165.8813,1404.0469 Q1165.8813,1402.7188 1166.4906,1401.5781 Q1167.1156,1400.4219 1168.2094,1399.8125 Q1169.3031,1399.1875 1170.5375,1399.1875 Q1171.2719,1399.1875 1171.9125,1399.3594 Q1172.5688,1399.5156 1173.1156,1399.875 Z " fill="#000000"/><text fill="#000000" font-family="sans-serif" font-size="14" lengthAdjust="spacing" textLength="101" x="1186.65" y="1409.7285">StemlessTecton</text><line style="stroke:#181818;stroke-width:0.5;" x1="1146" x2="1300" y1="1420" y2="1420"/><text fill="#000000" font-family="sans-serif" font-size="14" lengthAdjust="spacing" text-decoration="underline" textLength="144" x="1151" y="1438.5332">maxStems = 0 : Integer</text><line style="stroke:#181818;stroke-width:0.5;" x1="1146" x2="1300" y1="1445.6094" y2="1445.6094"/></g><!--class ThreadConsumingTecton--><g id="elem_ThreadConsumingTecton"><rect codeLine="56" fill="#F1F1F1" height="48" id="ThreadConsumingTecton" rx="2.5" ry="2.5" style="stroke:#181818;stroke-width:0.5;" width="193" x="1336.5" y="1397"/><ellipse cx="1351.5" cy="1413" fill="#ADD1B2" rx="11" ry="11" style="stroke:#181818;stroke-width:1.0;"/><path d="M1354.2656,1408.875 Q1354.4219,1408.6563 1354.6094,1408.5469 Q1354.7969,1408.4375 1355.0156,1408.4375 Q1355.3906,1408.4375 1355.625,1408.7031 Q1355.8594,1408.9531 1355.8594,1409.5625 L1355.8594,1411.0156 Q1355.8594,1411.625 1355.625,1411.8906 Q1355.3906,1412.1563 1355.0156,1412.1563 Q1354.6719,1412.1563 1354.4688,1411.9531 Q1354.2656,1411.7656 1354.1563,1411.25 Q1354.1094,1410.8906 1353.9219,1410.7031 Q1353.5938,1410.3281 1352.9844,1410.1094 Q1352.375,1409.8906 1351.75,1409.8906 Q1350.9844,1409.8906 1350.3438,1410.2188 Q1349.7188,1410.5469 1349.2188,1411.2969 Q1348.7344,1412.0469 1348.7344,1413.0781 L1348.7344,1414.1719 Q1348.7344,1415.4063 1349.625,1416.2344 Q1350.5156,1417.0469 1352.1094,1417.0469 Q1353.0469,1417.0469 1353.7031,1416.7969 Q1354.0938,1416.6406 1354.5156,1416.2031 Q1354.7813,1415.9375 1354.9219,1415.8594 Q1355.0781,1415.7813 1355.2813,1415.7813 Q1355.6094,1415.7813 1355.8594,1416.0469 Q1356.125,1416.2969 1356.125,1416.6406 Q1356.125,1416.9844 1355.7813,1417.3906 Q1355.2813,1417.9688 1354.4844,1418.2969 Q1353.4063,1418.75 1352.1094,1418.75 Q1350.5938,1418.75 1349.3906,1418.125 Q1348.4063,1417.625 1347.7188,1416.5625 Q1347.0313,1415.4844 1347.0313,1414.2031 L1347.0313,1413.0469 Q1347.0313,1411.7188 1347.6406,1410.5781 Q1348.2656,1409.4219 1349.3594,1408.8125 Q1350.4531,1408.1875 1351.6875,1408.1875 Q1352.4219,1408.1875 1353.0625,1408.3594 Q1353.7188,1408.5156 1354.2656,1408.875 Z " fill="#000000"/><text fill="#000000" font-family="sans-serif" font-size="14" lengthAdjust="spacing" textLength="161" x="1365.5" y="1418.7285">ThreadConsumingTecton</text><line style="stroke:#181818;stroke-width:0.5;" x1="1337.5" x2="1528.5" y1="1429" y2="1429"/><line style="stroke:#181818;stroke-width:0.5;" x1="1337.5" x2="1528.5" y1="1437" y2="1437"/></g><!--class Entity--><g id="elem_Entity"><rect codeLine="1" fill="#F1F1F1" height="83.2188" id="Entity" rx="2.5" ry="2.5" style="stroke:#181818;stroke-width:0.5;" width="103" x="1875.5" y="997.5"/><ellipse cx="1906.7" cy="1013.5" fill="#A9DCDF" rx="11" ry="11" style="stroke:#181818;stroke-width:1.0;"/><path d="M1908.8875,1015.2656 L1904.7469,1015.2656 L1904.325,1016.2969 L1904.7469,1016.2969 Q1905.3563,1016.2969 1905.6219,1016.5313 Q1905.8875,1016.7656 1905.8875,1017.1563 Q1905.8875,1017.5313 1905.6219,1017.7656 Q1905.3563,1018 1904.7469,1018 L1902.45,1018 Q1901.8406,1018 1901.5906,1017.7656 Q1901.325,1017.5313 1901.325,1017.1406 Q1901.325,1016.7656 1901.6063,1016.5313 Q1901.8719,1016.2813 1902.4969,1016.2969 L1905.1688,1009.6406 L1904.0594,1009.6406 Q1903.45,1009.6406 1903.1844,1009.4063 Q1902.9188,1009.1719 1902.9188,1008.7813 Q1902.9188,1008.4063 1903.1844,1008.1719 Q1903.45,1007.9375 1904.0594,1007.9375 L1907.7313,1007.9375 L1911.1219,1016.2969 Q1911.7156,1016.2969 1911.9031,1016.4375 Q1912.2938,1016.7031 1912.2938,1017.1563 Q1912.2938,1017.5313 1912.0281,1017.7656 Q1911.7781,1018 1911.1688,1018 L1908.8719,1018 Q1908.2625,1018 1907.9969,1017.7656 Q1907.7313,1017.5313 1907.7313,1017.1406 Q1907.7313,1016.7656 1907.9969,1016.5313 Q1908.2625,1016.2969 1908.8719,1016.2969 L1909.2938,1016.2969 L1908.8875,1015.2656 Z M1908.1688,1013.5625 L1906.8094,1010.1875 L1905.4344,1013.5625 L1908.1688,1013.5625 Z " fill="#000000"/><text fill="#000000" font-family="sans-serif" font-size="14" font-style="italic" lengthAdjust="spacing" textLength="35" x="1924.3" y="1019.2285">Entity</text><line style="stroke:#181818;stroke-width:0.5;" x1="1876.5" x2="1977.5" y1="1029.5" y2="1029.5"/><text fill="#000000" font-family="sans-serif" font-size="14" lengthAdjust="spacing" textLength="90" x="1881.5" y="1048.0332">owner : Player</text><text fill="#000000" font-family="sans-serif" font-size="14" lengthAdjust="spacing" textLength="91" x="1881.5" y="1065.6426">tecton: Tecton</text><line style="stroke:#181818;stroke-width:0.5;" x1="1876.5" x2="1977.5" y1="1072.7188" y2="1072.7188"/></g><!--class Effect--><g id="elem_Effect"><rect codeLine="2" fill="#F1F1F1" height="118.4375" id="Effect" rx="2.5" ry="2.5" style="stroke:#181818;stroke-width:0.5;" width="189" x="557.5" y="1559"/><ellipse cx="629.75" cy="1575" fill="#A9DCDF" rx="11" ry="11" style="stroke:#181818;stroke-width:1.0;"/><path d="M631.9375,1576.7656 L627.7969,1576.7656 L627.375,1577.7969 L627.7969,1577.7969 Q628.4063,1577.7969 628.6719,1578.0313 Q628.9375,1578.2656 628.9375,1578.6563 Q628.9375,1579.0313 628.6719,1579.2656 Q628.4063,1579.5 627.7969,1579.5 L625.5,1579.5 Q624.8906,1579.5 624.6406,1579.2656 Q624.375,1579.0313 624.375,1578.6406 Q624.375,1578.2656 624.6563,1578.0313 Q624.9219,1577.7813 625.5469,1577.7969 L628.2188,1571.1406 L627.1094,1571.1406 Q626.5,1571.1406 626.2344,1570.9063 Q625.9688,1570.6719 625.9688,1570.2813 Q625.9688,1569.9063 626.2344,1569.6719 Q626.5,1569.4375 627.1094,1569.4375 L630.7813,1569.4375 L634.1719,1577.7969 Q634.7656,1577.7969 634.9531,1577.9375 Q635.3438,1578.2031 635.3438,1578.6563 Q635.3438,1579.0313 635.0781,1579.2656 Q634.8281,1579.5 634.2188,1579.5 L631.9219,1579.5 Q631.3125,1579.5 631.0469,1579.2656 Q630.7813,1579.0313 630.7813,1578.6406 Q630.7813,1578.2656 631.0469,1578.0313 Q631.3125,1577.7969 631.9219,1577.7969 L632.3438,1577.7969 L631.9375,1576.7656 Z M631.2188,1575.0625 L629.8594,1571.6875 L628.4844,1575.0625 L631.2188,1575.0625 Z " fill="#000000"/><text fill="#000000" font-family="sans-serif" font-size="14" font-style="italic" lengthAdjust="spacing" textLength="36" x="650.25" y="1580.7285">Effect</text><line style="stroke:#181818;stroke-width:0.5;" x1="558.5" x2="745.5" y1="1591" y2="1591"/><text fill="#000000" font-family="sans-serif" font-size="14" lengthAdjust="spacing" text-decoration="underline" textLength="108" x="563.5" y="1609.5332">duration : Integer</text><text fill="#000000" font-family="sans-serif" font-size="14" lengthAdjust="spacing" textLength="175" x="563.5" y="1627.1426">durationRemaining : Integer</text><line style="stroke:#181818;stroke-width:0.5;" x1="558.5" x2="745.5" y1="1634.2188" y2="1634.2188"/><text fill="#000000" font-family="sans-serif" font-size="14" lengthAdjust="spacing" textLength="109" x="563.5" y="1652.752">doesStun() : bool</text><text fill="#000000" font-family="sans-serif" font-size="14" lengthAdjust="spacing" textLength="177" x="563.5" y="1670.3613">getSpeedModifier() : Integer</text></g><!--class SlowingSpore--><g id="elem_SlowingSpore"><rect codeLine="12" fill="#F1F1F1" height="65.6094" id="SlowingSpore" rx="2.5" ry="2.5" style="stroke:#181818;stroke-width:0.5;" width="126" x="1742" y="1585"/><ellipse cx="1760.6" cy="1601" fill="#ADD1B2" rx="11" ry="11" style="stroke:#181818;stroke-width:1.0;"/><path d="M1763.3656,1596.875 Q1763.5219,1596.6563 1763.7094,1596.5469 Q1763.8969,1596.4375 1764.1156,1596.4375 Q1764.4906,1596.4375 1764.725,1596.7031 Q1764.9594,1596.9531 1764.9594,1597.5625 L1764.9594,1599.0156 Q1764.9594,1599.625 1764.725,1599.8906 Q1764.4906,1600.1563 1764.1156,1600.1563 Q1763.7719,1600.1563 1763.5688,1599.9531 Q1763.3656,1599.7656 1763.2563,1599.25 Q1763.2094,1598.8906 1763.0219,1598.7031 Q1762.6938,1598.3281 1762.0844,1598.1094 Q1761.475,1597.8906 1760.85,1597.8906 Q1760.0844,1597.8906 1759.4438,1598.2188 Q1758.8188,1598.5469 1758.3188,1599.2969 Q1757.8344,1600.0469 1757.8344,1601.0781 L1757.8344,1602.1719 Q1757.8344,1603.4063 1758.725,1604.2344 Q1759.6156,1605.0469 1761.2094,1605.0469 Q1762.1469,1605.0469 1762.8031,1604.7969 Q1763.1938,1604.6406 1763.6156,1604.2031 Q1763.8813,1603.9375 1764.0219,1603.8594 Q1764.1781,1603.7813 1764.3813,1603.7813 Q1764.7094,1603.7813 1764.9594,1604.0469 Q1765.225,1604.2969 1765.225,1604.6406 Q1765.225,1604.9844 1764.8813,1605.3906 Q1764.3813,1605.9688 1763.5844,1606.2969 Q1762.5063,1606.75 1761.2094,1606.75 Q1759.6938,1606.75 1758.4906,1606.125 Q1757.5063,1605.625 1756.8188,1604.5625 Q1756.1313,1603.4844 1756.1313,1602.2031 L1756.1313,1601.0469 Q1756.1313,1599.7188 1756.7406,1598.5781 Q1757.3656,1597.4219 1758.4594,1596.8125 Q1759.5531,1596.1875 1760.7875,1596.1875 Q1761.5219,1596.1875 1762.1625,1596.3594 Q1762.8188,1596.5156 1763.3656,1596.875 Z " fill="#000000"/><text fill="#000000" font-family="sans-serif" font-size="14" lengthAdjust="spacing" textLength="86" x="1775.4" y="1606.7285">SlowingSpore</text><line style="stroke:#181818;stroke-width:0.5;" x1="1743" x2="1867" y1="1617" y2="1617"/><line style="stroke:#181818;stroke-width:0.5;" x1="1743" x2="1867" y1="1625" y2="1625"/><text fill="#000000" font-family="sans-serif" font-size="14" lengthAdjust="spacing" textLength="114" x="1748" y="1643.5332">getEffect() : Effect</text></g><!--class SpeedingSpore--><g id="elem_SpeedingSpore"><rect codeLine="17" fill="#F1F1F1" height="65.6094" id="SpeedingSpore" rx="2.5" ry="2.5" style="stroke:#181818;stroke-width:0.5;" width="130" x="1903" y="1585"/><ellipse cx="1918" cy="1601" fill="#ADD1B2" rx="11" ry="11" style="stroke:#181818;stroke-width:1.0;"/><path d="M1920.7656,1596.875 Q1920.9219,1596.6563 1921.1094,1596.5469 Q1921.2969,1596.4375 1921.5156,1596.4375 Q1921.8906,1596.4375 1922.125,1596.7031 Q1922.3594,1596.9531 1922.3594,1597.5625 L1922.3594,1599.0156 Q1922.3594,1599.625 1922.125,1599.8906 Q1921.8906,1600.1563 1921.5156,1600.1563 Q1921.1719,1600.1563 1920.9688,1599.9531 Q1920.7656,1599.7656 1920.6563,1599.25 Q1920.6094,1598.8906 1920.4219,1598.7031 Q1920.0938,1598.3281 1919.4844,1598.1094 Q1918.875,1597.8906 1918.25,1597.8906 Q1917.4844,1597.8906 1916.8438,1598.2188 Q1916.2188,1598.5469 1915.7188,1599.2969 Q1915.2344,1600.0469 1915.2344,1601.0781 L1915.2344,1602.1719 Q1915.2344,1603.4063 1916.125,1604.2344 Q1917.0156,1605.0469 1918.6094,1605.0469 Q1919.5469,1605.0469 1920.2031,1604.7969 Q1920.5938,1604.6406 1921.0156,1604.2031 Q1921.2813,1603.9375 1921.4219,1603.8594 Q1921.5781,1603.7813 1921.7813,1603.7813 Q1922.1094,1603.7813 1922.3594,1604.0469 Q1922.625,1604.2969 1922.625,1604.6406 Q1922.625,1604.9844 1922.2813,1605.3906 Q1921.7813,1605.9688 1920.9844,1606.2969 Q1919.9063,1606.75 1918.6094,1606.75 Q1917.0938,1606.75 1915.8906,1606.125 Q1914.9063,1605.625 1914.2188,1604.5625 Q1913.5313,1603.4844 1913.5313,1602.2031 L1913.5313,1601.0469 Q1913.5313,1599.7188 1914.1406,1598.5781 Q1914.7656,1597.4219 1915.8594,1596.8125 Q1916.9531,1596.1875 1918.1875,1596.1875 Q1918.9219,1596.1875 1919.5625,1596.3594 Q1920.2188,1596.5156 1920.7656,1596.875 Z " fill="#000000"/><text fill="#000000" font-family="sans-serif" font-size="14" lengthAdjust="spacing" textLength="98" x="1932" y="1606.7285">SpeedingSpore</text><line style="stroke:#181818;stroke-width:0.5;" x1="1904" x2="2032" y1="1617" y2="1617"/><line style="stroke:#181818;stroke-width:0.5;" x1="1904" x2="2032" y1="1625" y2="1625"/><text fill="#000000" font-family="sans-serif" font-size="14" lengthAdjust="spacing" textLength="114" x="1909" y="1643.5332">getEffect() : Effect</text></g><!--class ParalyzingSpore--><g id="elem_ParalyzingSpore"><rect codeLine="22" fill="#F1F1F1" height="65.6094" id="ParalyzingSpore" rx="2.5" ry="2.5" style="stroke:#181818;stroke-width:0.5;" width="135" x="2068.5" y="1585"/><ellipse cx="2083.5" cy="1601" fill="#ADD1B2" rx="11" ry="11" style="stroke:#181818;stroke-width:1.0;"/><path d="M2086.2656,1596.875 Q2086.4219,1596.6563 2086.6094,1596.5469 Q2086.7969,1596.4375 2087.0156,1596.4375 Q2087.3906,1596.4375 2087.625,1596.7031 Q2087.8594,1596.9531 2087.8594,1597.5625 L2087.8594,1599.0156 Q2087.8594,1599.625 2087.625,1599.8906 Q2087.3906,1600.1563 2087.0156,1600.1563 Q2086.6719,1600.1563 2086.4688,1599.9531 Q2086.2656,1599.7656 2086.1563,1599.25 Q2086.1094,1598.8906 2085.9219,1598.7031 Q2085.5938,1598.3281 2084.9844,1598.1094 Q2084.375,1597.8906 2083.75,1597.8906 Q2082.9844,1597.8906 2082.3438,1598.2188 Q2081.7188,1598.5469 2081.2188,1599.2969 Q2080.7344,1600.0469 2080.7344,1601.0781 L2080.7344,1602.1719 Q2080.7344,1603.4063 2081.625,1604.2344 Q2082.5156,1605.0469 2084.1094,1605.0469 Q2085.0469,1605.0469 2085.7031,1604.7969 Q2086.0938,1604.6406 2086.5156,1604.2031 Q2086.7813,1603.9375 2086.9219,1603.8594 Q2087.0781,1603.7813 2087.2813,1603.7813 Q2087.6094,1603.7813 2087.8594,1604.0469 Q2088.125,1604.2969 2088.125,1604.6406 Q2088.125,1604.9844 2087.7813,1605.3906 Q2087.2813,1605.9688 2086.4844,1606.2969 Q2085.4063,1606.75 2084.1094,1606.75 Q2082.5938,1606.75 2081.3906,1606.125 Q2080.4063,1605.625 2079.7188,1604.5625 Q2079.0313,1603.4844 2079.0313,1602.2031 L2079.0313,1601.0469 Q2079.0313,1599.7188 2079.6406,1598.5781 Q2080.2656,1597.4219 2081.3594,1596.8125 Q2082.4531,1596.1875 2083.6875,1596.1875 Q2084.4219,1596.1875 2085.0625,1596.3594 Q2085.7188,1596.5156 2086.2656,1596.875 Z " fill="#000000"/><text fill="#000000" font-family="sans-serif" font-size="14" lengthAdjust="spacing" textLength="103" x="2097.5" y="1606.7285">ParalyzingSpore</text><line style="stroke:#181818;stroke-width:0.5;" x1="2069.5" x2="2202.5" y1="1617" y2="1617"/><line style="stroke:#181818;stroke-width:0.5;" x1="2069.5" x2="2202.5" y1="1625" y2="1625"/><text fill="#000000" font-family="sans-serif" font-size="14" lengthAdjust="spacing" textLength="114" x="2074.5" y="1643.5332">getEffect() : Effect</text></g><!--class ClawParalyzingSpore--><g id="elem_ClawParalyzingSpore"><rect codeLine="27" fill="#F1F1F1" height="65.6094" id="ClawParalyzingSpore" rx="2.5" ry="2.5" style="stroke:#181818;stroke-width:0.5;" width="165" x="1541.5" y="1585"/><ellipse cx="1556.5" cy="1601" fill="#ADD1B2" rx="11" ry="11" style="stroke:#181818;stroke-width:1.0;"/><path d="M1559.2656,1596.875 Q1559.4219,1596.6563 1559.6094,1596.5469 Q1559.7969,1596.4375 1560.0156,1596.4375 Q1560.3906,1596.4375 1560.625,1596.7031 Q1560.8594,1596.9531 1560.8594,1597.5625 L1560.8594,1599.0156 Q1560.8594,1599.625 1560.625,1599.8906 Q1560.3906,1600.1563 1560.0156,1600.1563 Q1559.6719,1600.1563 1559.4688,1599.9531 Q1559.2656,1599.7656 1559.1563,1599.25 Q1559.1094,1598.8906 1558.9219,1598.7031 Q1558.5938,1598.3281 1557.9844,1598.1094 Q1557.375,1597.8906 1556.75,1597.8906 Q1555.9844,1597.8906 1555.3438,1598.2188 Q1554.7188,1598.5469 1554.2188,1599.2969 Q1553.7344,1600.0469 1553.7344,1601.0781 L1553.7344,1602.1719 Q1553.7344,1603.4063 1554.625,1604.2344 Q1555.5156,1605.0469 1557.1094,1605.0469 Q1558.0469,1605.0469 1558.7031,1604.7969 Q1559.0938,1604.6406 1559.5156,1604.2031 Q1559.7813,1603.9375 1559.9219,1603.8594 Q1560.0781,1603.7813 1560.2813,1603.7813 Q1560.6094,1603.7813 1560.8594,1604.0469 Q1561.125,1604.2969 1561.125,1604.6406 Q1561.125,1604.9844 1560.7813,1605.3906 Q1560.2813,1605.9688 1559.4844,1606.2969 Q1558.4063,1606.75 1557.1094,1606.75 Q1555.5938,1606.75 1554.3906,1606.125 Q1553.4063,1605.625 1552.7188,1604.5625 Q1552.0313,1603.4844 1552.0313,1602.2031 L1552.0313,1601.0469 Q1552.0313,1599.7188 1552.6406,1598.5781 Q1553.2656,1597.4219 1554.3594,1596.8125 Q1555.4531,1596.1875 1556.6875,1596.1875 Q1557.4219,1596.1875 1558.0625,1596.3594 Q1558.7188,1596.5156 1559.2656,1596.875 Z " fill="#000000"/><text fill="#000000" font-family="sans-serif" font-size="14" lengthAdjust="spacing" textLength="133" x="1570.5" y="1606.7285">ClawParalyzingSpore</text><line style="stroke:#181818;stroke-width:0.5;" x1="1542.5" x2="1705.5" y1="1617" y2="1617"/><line style="stroke:#181818;stroke-width:0.5;" x1="1542.5" x2="1705.5" y1="1625" y2="1625"/><text fill="#000000" font-family="sans-serif" font-size="14" lengthAdjust="spacing" textLength="114" x="1547.5" y="1643.5332">getEffect() : Effect</text></g><!--class Slow--><g id="elem_Slow"><rect codeLine="11" fill="#F1F1F1" height="83.2188" id="Slow" rx="2.5" ry="2.5" style="stroke:#181818;stroke-width:0.5;" width="189" x="694.5" y="1379.5"/><ellipse cx="770.25" cy="1395.5" fill="#ADD1B2" rx="11" ry="11" style="stroke:#181818;stroke-width:1.0;"/><path d="M773.0156,1391.375 Q773.1719,1391.1563 773.3594,1391.0469 Q773.5469,1390.9375 773.7656,1390.9375 Q774.1406,1390.9375 774.375,1391.2031 Q774.6094,1391.4531 774.6094,1392.0625 L774.6094,1393.5156 Q774.6094,1394.125 774.375,1394.3906 Q774.1406,1394.6563 773.7656,1394.6563 Q773.4219,1394.6563 773.2188,1394.4531 Q773.0156,1394.2656 772.9063,1393.75 Q772.8594,1393.3906 772.6719,1393.2031 Q772.3438,1392.8281 771.7344,1392.6094 Q771.125,1392.3906 770.5,1392.3906 Q769.7344,1392.3906 769.0938,1392.7188 Q768.4688,1393.0469 767.9688,1393.7969 Q767.4844,1394.5469 767.4844,1395.5781 L767.4844,1396.6719 Q767.4844,1397.9063 768.375,1398.7344 Q769.2656,1399.5469 770.8594,1399.5469 Q771.7969,1399.5469 772.4531,1399.2969 Q772.8438,1399.1406 773.2656,1398.7031 Q773.5313,1398.4375 773.6719,1398.3594 Q773.8281,1398.2813 774.0313,1398.2813 Q774.3594,1398.2813 774.6094,1398.5469 Q774.875,1398.7969 774.875,1399.1406 Q774.875,1399.4844 774.5313,1399.8906 Q774.0313,1400.4688 773.2344,1400.7969 Q772.1563,1401.25 770.8594,1401.25 Q769.3438,1401.25 768.1406,1400.625 Q767.1563,1400.125 766.4688,1399.0625 Q765.7813,1397.9844 765.7813,1396.7031 L765.7813,1395.5469 Q765.7813,1394.2188 766.3906,1393.0781 Q767.0156,1391.9219 768.1094,1391.3125 Q769.2031,1390.6875 770.4375,1390.6875 Q771.1719,1390.6875 771.8125,1390.8594 Q772.4688,1391.0156 773.0156,1391.375 Z " fill="#000000"/><text fill="#000000" font-family="sans-serif" font-size="14" lengthAdjust="spacing" textLength="29" x="790.75" y="1401.2285">Slow</text><line style="stroke:#181818;stroke-width:0.5;" x1="695.5" x2="882.5" y1="1411.5" y2="1411.5"/><line style="stroke:#181818;stroke-width:0.5;" x1="695.5" x2="882.5" y1="1419.5" y2="1419.5"/><text fill="#000000" font-family="sans-serif" font-size="14" lengthAdjust="spacing" textLength="109" x="700.5" y="1438.0332">doesStun() : bool</text><text fill="#000000" font-family="sans-serif" font-size="14" lengthAdjust="spacing" textLength="177" x="700.5" y="1455.6426">getSpeedModifier() : Integer</text></g><!--class Fast--><g id="elem_Fast"><rect codeLine="17" fill="#F1F1F1" height="83.2188" id="Fast" rx="2.5" ry="2.5" style="stroke:#181818;stroke-width:0.5;" width="189" x="470.5" y="1379.5"/><ellipse cx="546.75" cy="1395.5" fill="#ADD1B2" rx="11" ry="11" style="stroke:#181818;stroke-width:1.0;"/><path d="M549.5156,1391.375 Q549.6719,1391.1563 549.8594,1391.0469 Q550.0469,1390.9375 550.2656,1390.9375 Q550.6406,1390.9375 550.875,1391.2031 Q551.1094,1391.4531 551.1094,1392.0625 L551.1094,1393.5156 Q551.1094,1394.125 550.875,1394.3906 Q550.6406,1394.6563 550.2656,1394.6563 Q549.9219,1394.6563 549.7188,1394.4531 Q549.5156,1394.2656 549.4063,1393.75 Q549.3594,1393.3906 549.1719,1393.2031 Q548.8438,1392.8281 548.2344,1392.6094 Q547.625,1392.3906 547,1392.3906 Q546.2344,1392.3906 545.5938,1392.7188 Q544.9688,1393.0469 544.4688,1393.7969 Q543.9844,1394.5469 543.9844,1395.5781 L543.9844,1396.6719 Q543.9844,1397.9063 544.875,1398.7344 Q545.7656,1399.5469 547.3594,1399.5469 Q548.2969,1399.5469 548.9531,1399.2969 Q549.3438,1399.1406 549.7656,1398.7031 Q550.0313,1398.4375 550.1719,1398.3594 Q550.3281,1398.2813 550.5313,1398.2813 Q550.8594,1398.2813 551.1094,1398.5469 Q551.375,1398.7969 551.375,1399.1406 Q551.375,1399.4844 551.0313,1399.8906 Q550.5313,1400.4688 549.7344,1400.7969 Q548.6563,1401.25 547.3594,1401.25 Q545.8438,1401.25 544.6406,1400.625 Q543.6563,1400.125 542.9688,1399.0625 Q542.2813,1397.9844 542.2813,1396.7031 L542.2813,1395.5469 Q542.2813,1394.2188 542.8906,1393.0781 Q543.5156,1391.9219 544.6094,1391.3125 Q545.7031,1390.6875 546.9375,1390.6875 Q547.6719,1390.6875 548.3125,1390.8594 Q548.9688,1391.0156 549.5156,1391.375 Z " fill="#000000"/><text fill="#000000" font-family="sans-serif" font-size="14" lengthAdjust="spacing" textLength="28" x="567.25" y="1401.2285">Fast</text><line style="stroke:#181818;stroke-width:0.5;" x1="471.5" x2="658.5" y1="1411.5" y2="1411.5"/><line style="stroke:#181818;stroke-width:0.5;" x1="471.5" x2="658.5" y1="1419.5" y2="1419.5"/><text fill="#000000" font-family="sans-serif" font-size="14" lengthAdjust="spacing" textLength="109" x="476.5" y="1438.0332">doesStun() : bool</text><text fill="#000000" font-family="sans-serif" font-size="14" lengthAdjust="spacing" textLength="177" x="476.5" y="1455.6426">getSpeedModifier() : Integer</text></g><!--class Paralyze--><g id="elem_Paralyze"><rect codeLine="23" fill="#F1F1F1" height="83.2188" id="Paralyze" rx="2.5" ry="2.5" style="stroke:#181818;stroke-width:0.5;" width="189" x="246.5" y="1379.5"/><ellipse cx="309.75" cy="1395.5" fill="#ADD1B2" rx="11" ry="11" style="stroke:#181818;stroke-width:1.0;"/><path d="M312.5156,1391.375 Q312.6719,1391.1563 312.8594,1391.0469 Q313.0469,1390.9375 313.2656,1390.9375 Q313.6406,1390.9375 313.875,1391.2031 Q314.1094,1391.4531 314.1094,1392.0625 L314.1094,1393.5156 Q314.1094,1394.125 313.875,1394.3906 Q313.6406,1394.6563 313.2656,1394.6563 Q312.9219,1394.6563 312.7188,1394.4531 Q312.5156,1394.2656 312.4063,1393.75 Q312.3594,1393.3906 312.1719,1393.2031 Q311.8438,1392.8281 311.2344,1392.6094 Q310.625,1392.3906 310,1392.3906 Q309.2344,1392.3906 308.5938,1392.7188 Q307.9688,1393.0469 307.4688,1393.7969 Q306.9844,1394.5469 306.9844,1395.5781 L306.9844,1396.6719 Q306.9844,1397.9063 307.875,1398.7344 Q308.7656,1399.5469 310.3594,1399.5469 Q311.2969,1399.5469 311.9531,1399.2969 Q312.3438,1399.1406 312.7656,1398.7031 Q313.0313,1398.4375 313.1719,1398.3594 Q313.3281,1398.2813 313.5313,1398.2813 Q313.8594,1398.2813 314.1094,1398.5469 Q314.375,1398.7969 314.375,1399.1406 Q314.375,1399.4844 314.0313,1399.8906 Q313.5313,1400.4688 312.7344,1400.7969 Q311.6563,1401.25 310.3594,1401.25 Q308.8438,1401.25 307.6406,1400.625 Q306.6563,1400.125 305.9688,1399.0625 Q305.2813,1397.9844 305.2813,1396.7031 L305.2813,1395.5469 Q305.2813,1394.2188 305.8906,1393.0781 Q306.5156,1391.9219 307.6094,1391.3125 Q308.7031,1390.6875 309.9375,1390.6875 Q310.6719,1390.6875 311.3125,1390.8594 Q311.9688,1391.0156 312.5156,1391.375 Z " fill="#000000"/><text fill="#000000" font-family="sans-serif" font-size="14" lengthAdjust="spacing" textLength="54" x="330.25" y="1401.2285">Paralyze</text><line style="stroke:#181818;stroke-width:0.5;" x1="247.5" x2="434.5" y1="1411.5" y2="1411.5"/><line style="stroke:#181818;stroke-width:0.5;" x1="247.5" x2="434.5" y1="1419.5" y2="1419.5"/><text fill="#000000" font-family="sans-serif" font-size="14" lengthAdjust="spacing" textLength="109" x="252.5" y="1438.0332">doesStun() : bool</text><text fill="#000000" font-family="sans-serif" font-size="14" lengthAdjust="spacing" textLength="177" x="252.5" y="1455.6426">getSpeedModifier() : Integer</text></g><!--class ClawParalyze--><g id="elem_ClawParalyze"><rect codeLine="29" fill="#F1F1F1" height="83.2188" id="ClawParalyze" rx="2.5" ry="2.5" style="stroke:#181818;stroke-width:0.5;" width="189" x="22.5" y="1379.5"/><ellipse cx="70.75" cy="1395.5" fill="#ADD1B2" rx="11" ry="11" style="stroke:#181818;stroke-width:1.0;"/><path d="M73.5156,1391.375 Q73.6719,1391.1563 73.8594,1391.0469 Q74.0469,1390.9375 74.2656,1390.9375 Q74.6406,1390.9375 74.875,1391.2031 Q75.1094,1391.4531 75.1094,1392.0625 L75.1094,1393.5156 Q75.1094,1394.125 74.875,1394.3906 Q74.6406,1394.6563 74.2656,1394.6563 Q73.9219,1394.6563 73.7188,1394.4531 Q73.5156,1394.2656 73.4063,1393.75 Q73.3594,1393.3906 73.1719,1393.2031 Q72.8438,1392.8281 72.2344,1392.6094 Q71.625,1392.3906 71,1392.3906 Q70.2344,1392.3906 69.5938,1392.7188 Q68.9688,1393.0469 68.4688,1393.7969 Q67.9844,1394.5469 67.9844,1395.5781 L67.9844,1396.6719 Q67.9844,1397.9063 68.875,1398.7344 Q69.7656,1399.5469 71.3594,1399.5469 Q72.2969,1399.5469 72.9531,1399.2969 Q73.3438,1399.1406 73.7656,1398.7031 Q74.0313,1398.4375 74.1719,1398.3594 Q74.3281,1398.2813 74.5313,1398.2813 Q74.8594,1398.2813 75.1094,1398.5469 Q75.375,1398.7969 75.375,1399.1406 Q75.375,1399.4844 75.0313,1399.8906 Q74.5313,1400.4688 73.7344,1400.7969 Q72.6563,1401.25 71.3594,1401.25 Q69.8438,1401.25 68.6406,1400.625 Q67.6563,1400.125 66.9688,1399.0625 Q66.2813,1397.9844 66.2813,1396.7031 L66.2813,1395.5469 Q66.2813,1394.2188 66.8906,1393.0781 Q67.5156,1391.9219 68.6094,1391.3125 Q69.7031,1390.6875 70.9375,1390.6875 Q71.6719,1390.6875 72.3125,1390.8594 Q72.9688,1391.0156 73.5156,1391.375 Z " fill="#000000"/><text fill="#000000" font-family="sans-serif" font-size="14" lengthAdjust="spacing" textLength="84" x="91.25" y="1401.2285">ClawParalyze</text><line style="stroke:#181818;stroke-width:0.5;" x1="23.5" x2="210.5" y1="1411.5" y2="1411.5"/><line style="stroke:#181818;stroke-width:0.5;" x1="23.5" x2="210.5" y1="1419.5" y2="1419.5"/><text fill="#000000" font-family="sans-serif" font-size="14" lengthAdjust="spacing" textLength="109" x="28.5" y="1438.0332">doesStun() : bool</text><text fill="#000000" font-family="sans-serif" font-size="14" lengthAdjust="spacing" textLength="177" x="28.5" y="1455.6426">getSpeedModifier() : Integer</text></g><!--reverse link IOnTurn to Player--><g id="link_IOnTurn_Player"><path codeLine="1" d="M1692.1661,159.3737 C1704.9461,186.0537 1715.55,208.2 1730.21,238.83 " fill="none" id="IOnTurn-backto-Player" style="stroke:#181818;stroke-width:1.0;stroke-dasharray:7.0,7.0;"/><polygon fill="none" points="1684.39,143.14,1686.7549,161.9657,1697.5773,156.7816,1684.39,143.14" style="stroke:#181818;stroke-width:1.0;"/></g><!--reverse link Player to Mushroomer--><g id="link_Player_Mushroomer"><path codeLine="8" d="M1851.7007,348.1603 C1883.7007,367.0503 1905.64,380 1941.06,400.9 " fill="none" id="Player-backto-Mushroomer" style="stroke:#181818;stroke-width:1.0;"/><polygon fill="none" points="1836.2,339.01,1848.6506,353.3272,1854.7508,342.9934,1836.2,339.01" style="stroke:#181818;stroke-width:1.0;"/></g><!--reverse link Mushroomer to MushroomStem--><g id="link_Mushroomer_MushroomStem"><path codeLine="9" d="M2178.0581,563.0662 C2245.1381,620.9062 2319.89,698.87 2362,795 C2383.53,844.14 2401.55,1188.18 2408.7,1343.83 " fill="none" id="Mushroomer-backto-MushroomStem" style="stroke:#181818;stroke-width:1.0;"/><polygon fill="none" points="2168.97,555.23,2170.902,562.1775,2178.0581,563.0662,2176.1261,556.1188,2168.97,555.23" style="stroke:#181818;stroke-width:1.0;"/><text fill="#000000" font-family="sans-serif" font-size="13" lengthAdjust="spacing" textLength="20" x="2387.4323" y="1333.2405">1..*</text></g><!--reverse link Mushroomer to MushroomThread--><g id="link_Mushroomer_MushroomThread"><path codeLine="10" d="M2058.5205,567.0872 C2036.8105,740.6372 1992.03,1148.81 2034,1283 C2046.57,1323.19 2075.54,1361.95 2098.21,1387.93 " fill="none" id="Mushroomer-backto-MushroomThread" style="stroke:#181818;stroke-width:1.0;"/><polygon fill="none" points="2060.01,555.18,2055.2962,560.6371,2058.5205,567.0872,2063.2343,561.6301,2060.01,555.18" style="stroke:#181818;stroke-width:1.0;"/><text fill="#000000" font-family="sans-serif" font-size="13" lengthAdjust="spacing" textLength="20" x="2069.7971" y="1377.031">0..*</text></g><!--link Mushroomer to Colony--><g id="link_Mushroomer_Colony"><path codeLine="11" d="M2087.46,555.26 C2113.36,668.35 2161.37,878.05 2184.66,979.72 " fill="none" id="Mushroomer-Colony" style="stroke:#181818;stroke-width:1.0;"/><text fill="#000000" font-family="sans-serif" font-size="13" lengthAdjust="spacing" textLength="20" x="2161.8154" y="969.0101">1..*</text></g><!--link Insecter to Player--><g id="link_Insecter_Player"><path codeLine="21" d="M1394.77,155.1 C1481.04,187.14 1578.6854,223.4053 1654.9954,251.7353 " fill="none" id="Insecter-to-Player" style="stroke:#181818;stroke-width:1.0;"/><polygon fill="none" points="1671.87,258,1657.0836,246.1104,1652.9071,257.3602,1671.87,258" style="stroke:#181818;stroke-width:1.0;"/></g><!--reverse link Insecter to Insect--><g id="link_Insecter_Insect"><path codeLine="22" d="M1147.8864,183.3598 C1111.8564,212.0798 1091,242.43 1091,288.5 C1091,288.5 1091,288.5 1091,1040 C1091,1151.4 1058.82,1277.58 1036.07,1352.87 " fill="none" id="Insecter-backto-Insect" style="stroke:#181818;stroke-width:1.0;"/><polygon fill="none" points="1157.27,175.88,1150.0849,176.492,1147.8864,183.3598,1155.0715,182.7478,1157.27,175.88" style="stroke:#181818;stroke-width:1.0;"/></g><!--reverse link IOnRound to Map--><g id="link_IOnRound_Map"><path codeLine="2" d="M1500.5441,528.9472 C1495.7441,557.2872 1491.65,581.51 1485.86,615.73 " fill="none" id="IOnRound-backto-Map" style="stroke:#181818;stroke-width:1.0;stroke-dasharray:7.0,7.0;"/><polygon fill="none" points="1503.55,511.2,1494.6284,527.9453,1506.4599,529.9492,1503.55,511.2" style="stroke:#181818;stroke-width:1.0;"/></g><!--reverse link Map to Tecton--><g id="link_Map_Tecton"><path codeLine="3" d="M1499.6236,745.521 C1505.6736,763.311 1508.87,772.73 1516.41,794.94 " fill="none" id="Map-backto-Tecton" style="stroke:#181818;stroke-width:1.0;"/><polygon fill="#181818" points="1495.76,734.16,1493.9048,741.1284,1499.6236,745.521,1501.4788,738.5526,1495.76,734.16" style="stroke:#181818;stroke-width:1.0;"/><text fill="#000000" font-family="sans-serif" font-size="13" lengthAdjust="spacing" textLength="7" x="1490.7417" y="755.835">1</text><text fill="#000000" font-family="sans-serif" font-size="13" lengthAdjust="spacing" textLength="20" x="1493.3719" y="784.1663">0..*</text></g><!--reverse link IOnTurn to Tecton--><g id="link_IOnTurn_Tecton"><path codeLine="1" d="M1654.5811,160.4113 C1644.8411,195.7013 1636,236.94 1636,288.5 C1636,288.5 1636,288.5 1636,676 C1636,714.54 1633.9,755.26 1630.7,794.94 " fill="none" id="IOnTurn-backto-Tecton" style="stroke:#181818;stroke-width:1.0;stroke-dasharray:7.0,7.0;"/><polygon fill="none" points="1659.37,143.06,1648.7973,158.8149,1660.3648,162.0076,1659.37,143.06" style="stroke:#181818;stroke-width:1.0;"/></g><!--reverse link IOnRound to Tecton--><g id="link_IOnRound_Tecton"><path codeLine="2" d="M1540.3585,526.3635 C1557.2085,553.1335 1569.75,577.7 1580,616 C1595.22,672.85 1602.76,735.53 1605.95,794.79 " fill="none" id="IOnRound-backto-Tecton" style="stroke:#181818;stroke-width:1.0;stroke-dasharray:7.0,7.0;"/><polygon fill="none" points="1530.77,511.13,1535.2807,529.5597,1545.4364,523.1673,1530.77,511.13" style="stroke:#181818;stroke-width:1.0;"/></g><!--reverse link Tecton to Tecton--><g id="link_Tecton_Tecton"><path codeLine="3" d="M1765.3356,997.5261 C1786.3156,1005.1661 1789,1016.26 1789,1039 C1789,1061.74 1775.04,1076.94 1754.06,1084.58 " fill="none" id="Tecton-backto-Tecton" style="stroke:#181818;stroke-width:1.0;"/><polygon fill="none" points="1754.06,993.42,1758.3291,999.2316,1765.3356,997.5261,1761.0665,991.7145,1754.06,993.42" style="stroke:#181818;stroke-width:1.0;"/><text fill="#000000" font-family="sans-serif" font-size="13" lengthAdjust="spacing" textLength="56" x="1795" y="1044.4951">neighbour</text></g><!--reverse link Tecton to MushroomStem--><g id="link_Tecton_MushroomStem"><path codeLine="34" d="M1763.4028,1221.2123 C1795.2228,1248.2623 1821.18,1265.3 1858,1283 C2029.99,1365.67 2102.94,1280.82 2283,1344 C2288.89,1346.07 2294.8,1348.41 2300.69,1350.97 " fill="none" id="Tecton-backto-MushroomStem" style="stroke:#181818;stroke-width:1.0;"/><polygon fill="#181818" points="1754.26,1213.44,1756.2407,1220.3738,1763.4028,1221.2123,1761.4222,1214.2785,1754.26,1213.44" style="stroke:#181818;stroke-width:1.0;"/><text fill="#000000" font-family="sans-serif" font-size="13" lengthAdjust="spacing" textLength="22" x="2270.8545" y="1343.4886">0..1</text></g><!--reverse link Tecton to MushroomThread--><g id="link_Tecton_MushroomThread"><path codeLine="35" d="M1763.0459,1206.9637 C1795.8959,1236.7037 1822.52,1258.16 1858,1283 C1867.31,1289.52 1987.12,1349.46 2064.29,1387.86 " fill="none" id="Tecton-backto-MushroomThread" style="stroke:#181818;stroke-width:1.0;"/><polygon fill="#181818" points="1754.15,1198.91,1755.9134,1205.9022,1763.0459,1206.9637,1761.2825,1199.9716,1754.15,1198.91" style="stroke:#181818;stroke-width:1.0;"/><text fill="#000000" font-family="sans-serif" font-size="13" lengthAdjust="spacing" textLength="20" x="2028.8811" y="1376.9465">0..*</text></g><!--reverse link Tecton to Spore--><g id="link_Tecton_Spore"><path codeLine="37" d="M1761.037,1269.7559 C1793.337,1315.5459 1817.03,1349.15 1838.21,1379.18 " fill="none" id="Tecton-backto-Spore" style="stroke:#181818;stroke-width:1.0;"/><polygon fill="#181818" points="1754.12,1259.95,1754.3099,1267.1586,1761.037,1269.7559,1760.8471,1262.5473,1754.12,1259.95" style="stroke:#181818;stroke-width:1.0;"/><text fill="#000000" font-family="sans-serif" font-size="13" lengthAdjust="spacing" textLength="20" x="1812.0278" y="1368.7456">0..*</text></g><!--reverse link Tecton to Insect--><g id="link_Tecton_Insect"><path codeLine="38" d="M1434.3168,1172.8157 C1366.5468,1223.5957 1293.98,1272.66 1214,1314 C1178.04,1332.59 1164.24,1325.96 1128,1344 C1121.93,1347.02 1115.8,1350.31 1109.7,1353.77 " fill="none" id="Tecton-backto-Insect" style="stroke:#181818;stroke-width:1.0;"/><polygon fill="#181818" points="1443.92,1165.62,1436.7198,1166.0168,1434.3168,1172.8157,1441.5169,1172.4189,1443.92,1165.62" style="stroke:#181818;stroke-width:1.0;"/><text fill="#000000" font-family="sans-serif" font-size="13" lengthAdjust="spacing" textLength="20" x="1117.4623" y="1345.7516">0..*</text></g><!--reverse link Tecton to SingleThreadedTecton--><g id="link_Tecton_SingleThreadedTecton"><path codeLine="41" d="M1636.076,1300.9005 C1641.986,1342.4305 1644.82,1362.47 1648.42,1387.8 " fill="none" id="Tecton-backto-SingleThreadedTecton" style="stroke:#181818;stroke-width:1.0;"/><polygon fill="none" points="1633.54,1283.08,1630.1358,1301.7458,1642.0161,1300.0551,1633.54,1283.08" style="stroke:#181818;stroke-width:1.0;"/></g><!--reverse link Tecton to StemlessTecton--><g id="link_Tecton_StemlessTecton"><path codeLine="48" d="M1431.2397,1209.5452 C1360.8397,1280.6952 1296.75,1345.47 1254.8,1387.86 " fill="none" id="Tecton-backto-StemlessTecton" style="stroke:#181818;stroke-width:1.0;"/><polygon fill="none" points="1443.9,1196.75,1426.9746,1205.3251,1435.5048,1213.7653,1443.9,1196.75" style="stroke:#181818;stroke-width:1.0;"/></g><!--reverse link Tecton to ThreadConsumingTecton--><g id="link_Tecton_ThreadConsumingTecton"><path codeLine="55" d="M1485.6034,1299.5744 C1465.1734,1346.3344 1453.99,1371.94 1443.16,1396.75 " fill="none" id="Tecton-backto-ThreadConsumingTecton" style="stroke:#181818;stroke-width:1.0;"/><polygon fill="none" points="1492.81,1283.08,1480.1053,1297.1722,1491.1015,1301.9766,1492.81,1283.08" style="stroke:#181818;stroke-width:1.0;"/></g><!--reverse link Entity to Spore--><g id="link_Entity_Spore"><path codeLine="2" d="M1917.7733,1098.4498 C1906.2433,1171.4898 1884.95,1306.3 1873.42,1379.34 " fill="none" id="Entity-backto-Spore" style="stroke:#181818;stroke-width:1.0;"/><polygon fill="none" points="1920.58,1080.67,1911.8467,1097.5143,1923.6999,1099.3854,1920.58,1080.67" style="stroke:#181818;stroke-width:1.0;"/></g><!--reverse link Spore to Effect--><g id="link_Spore_Effect"><path codeLine="3" d="M1810.663,1469.8606 C1792.653,1483.3406 1780.78,1489.8 1759,1498 C1574.26,1567.57 979.63,1601.88 746.77,1612.91 " fill="none" id="Spore-backto-Effect" style="stroke:#181818;stroke-width:1.0;"/><polygon fill="none" points="1820.27,1462.67,1813.0696,1463.063,1810.663,1469.8606,1817.8634,1469.4676,1820.27,1462.67" style="stroke:#181818;stroke-width:1.0;"/></g><!--reverse link Spore to SlowingSpore--><g id="link_Spore_SlowingSpore"><path codeLine="11" d="M1848.5453,1480.0336 C1837.0053,1516.3236 1825.83,1551.49 1815.22,1584.87 " fill="none" id="Spore-backto-SlowingSpore" style="stroke:#181818;stroke-width:1.0;"/><polygon fill="none" points="1854,1462.88,1842.8274,1478.2153,1854.2631,1481.8518,1854,1462.88" style="stroke:#181818;stroke-width:1.0;"/></g><!--reverse link Spore to SpeedingSpore--><g id="link_Spore_SpeedingSpore"><path codeLine="16" d="M1896.4498,1478.8626 C1915.2498,1515.1526 1934.07,1551.49 1951.36,1584.87 " fill="none" id="Spore-backto-SpeedingSpore" style="stroke:#181818;stroke-width:1.0;"/><polygon fill="none" points="1888.17,1462.88,1891.1222,1481.6226,1901.7773,1476.1027,1888.17,1462.88" style="stroke:#181818;stroke-width:1.0;"/></g><!--reverse link Spore to ParalyzingSpore--><g id="link_Spore_ParalyzingSpore"><path codeLine="21" d="M1937.6339,1473.2042 C1987.6839,1509.4842 2045.42,1551.34 2091.56,1584.79 " fill="none" id="Spore-backto-ParalyzingSpore" style="stroke:#181818;stroke-width:1.0;"/><polygon fill="none" points="1923.06,1462.64,1934.1124,1478.0622,1941.1553,1468.3463,1923.06,1462.64" style="stroke:#181818;stroke-width:1.0;"/></g><!--reverse link Spore to ClawParalyzingSpore--><g id="link_Spore_ClawParalyzingSpore"><path codeLine="26" d="M1802.3213,1473.9057 C1757.1113,1510.1857 1705.83,1551.34 1664.14,1584.79 " fill="none" id="Spore-backto-ClawParalyzingSpore" style="stroke:#181818;stroke-width:1.0;"/><polygon fill="none" points="1816.36,1462.64,1798.5661,1469.2262,1806.0766,1478.5853,1816.36,1462.64" style="stroke:#181818;stroke-width:1.0;"/></g><!--reverse link Entity to MushroomThread--><g id="link_Entity_MushroomThread"><path codeLine="2" d="M1933.7522,1098.459 C1941.3322,1154.749 1958.57,1240.02 2006,1314 C2024.87,1343.43 2054.31,1369.22 2079.67,1387.99 " fill="none" id="Entity-backto-MushroomThread" style="stroke:#181818;stroke-width:1.0;"/><polygon fill="none" points="1931.35,1080.62,1927.8059,1099.2597,1939.6985,1097.6583,1931.35,1080.62" style="stroke:#181818;stroke-width:1.0;"/></g><!--reverse link IOnTurn to MushroomStem--><g id="link_IOnTurn_MushroomStem"><path codeLine="2" d="M1740.2614,112.7552 C1911.3714,118.0352 2418,145.34 2418,288.5 C2418,288.5 2418,288.5 2418,1040 C2418,1145.4 2415.66,1267.23 2413.91,1343.94 " fill="none" id="IOnTurn-backto-MushroomStem" style="stroke:#181818;stroke-width:1.0;stroke-dasharray:7.0,7.0;"/><polygon fill="none" points="1722.27,112.2,1740.0764,118.7523,1740.4465,106.758,1722.27,112.2" style="stroke:#181818;stroke-width:1.0;"/></g><!--reverse link Entity to MushroomStem--><g id="link_Entity_MushroomStem"><path codeLine="4" d="M1937.0601,1098.2685 C1947.9701,1152.6585 1971.67,1230.7 2034,1283 C2121.28,1356.24 2177.46,1301.07 2283,1344 C2288.9,1346.4 2294.85,1349.04 2300.79,1351.84 " fill="none" id="Entity-backto-MushroomStem" style="stroke:#181818;stroke-width:1.0;"/><polygon fill="none" points="1933.52,1080.62,1931.1773,1099.4485,1942.9429,1097.0884,1933.52,1080.62" style="stroke:#181818;stroke-width:1.0;"/></g><!--reverse link Entity to Insect--><g id="link_Entity_Insect"><path codeLine="2" d="M1928.3267,1098.5794 C1927.8867,1153.8394 1918.1,1233.53 1858,1283 C1732.32,1386.46 1281.7,1290.38 1128,1344 C1120.93,1346.47 1113.87,1349.48 1106.92,1352.86 " fill="none" id="Entity-backto-Insect" style="stroke:#181818;stroke-width:1.0;"/><polygon fill="none" points="1928.47,1080.58,1922.3269,1098.5317,1934.3265,1098.6272,1928.47,1080.58" style="stroke:#181818;stroke-width:1.0;"/></g><!--reverse link Insect to Effect--><g id="link_Insect_Effect"><path codeLine="3" d="M908.2045,1493.9238 C902.3545,1497.5038 906.75,1494.72 901,1498 C851.39,1526.34 793.97,1554.1 746.78,1575.67 " fill="none" id="Insect-backto-Effect" style="stroke:#181818;stroke-width:1.0;"/><polygon fill="#181818" points="918.44,1487.66,911.2343,1487.3801,908.2045,1493.9238,915.4102,1494.2037,918.44,1487.66" style="stroke:#181818;stroke-width:1.0;"/></g><!--reverse link IOnTurn to Insect--><g id="link_IOnTurn_Insect"><path codeLine="5" d="M1598.4343,130.3949 C1476.5643,164.4549 1205,244.94 1205,288.5 C1205,288.5 1205,288.5 1205,1040 C1205,1159.99 1128.04,1280.76 1071.82,1352.97 " fill="none" id="IOnTurn-backto-Insect" style="stroke:#181818;stroke-width:1.0;stroke-dasharray:7.0,7.0;"/><polygon fill="none" points="1615.77,125.55,1596.8193,124.6164,1600.0493,136.1735,1615.77,125.55" style="stroke:#181818;stroke-width:1.0;"/></g><!--reverse link Colony to MushroomStem--><g id="link_Colony_MushroomStem"><path codeLine="3" d="M2236.6189,1108.5857 C2273.6789,1174.3857 2328.3,1271.38 2369.11,1343.83 " fill="none" id="Colony-backto-MushroomStem" style="stroke:#181818;stroke-width:1.0;"/><polygon fill="none" points="2230.73,1098.13,2230.1892,1105.3208,2236.6189,1108.5857,2237.1597,1101.3949,2230.73,1098.13" style="stroke:#181818;stroke-width:1.0;"/><text fill="#000000" font-family="sans-serif" font-size="13" lengthAdjust="spacing" textLength="20" x="2344.0689" y="1333.2405">1..*</text></g><!--reverse link Colony to MushroomThread--><g id="link_Colony_MushroomThread"><path codeLine="4" d="M2185.305,1109.9367 C2170.575,1191.0167 2146.52,1323.52 2134.87,1387.69 " fill="none" id="Colony-backto-MushroomThread" style="stroke:#181818;stroke-width:1.0;"/><polygon fill="none" points="2187.45,1098.13,2182.4419,1103.3184,2185.305,1109.9367,2190.3131,1104.7484,2187.45,1098.13" style="stroke:#181818;stroke-width:1.0;"/><text fill="#000000" font-family="sans-serif" font-size="13" lengthAdjust="spacing" textLength="20" x="2114.0569" y="1377.1253">0..*</text></g><!--link Slow to Effect--><g id="link_Slow_Effect"><path codeLine="10" d="M760.28,1462.88 C740.74,1490.69 724.9469,1513.1711 703.2469,1544.0611 " fill="none" id="Slow-to-Effect" style="stroke:#181818;stroke-width:1.0;"/><polygon fill="none" points="692.9,1558.79,708.1566,1547.5101,698.3373,1540.6121,692.9,1558.79" style="stroke:#181818;stroke-width:1.0;"/></g><!--link Fast to Effect--><g id="link_Fast_Effect"><path codeLine="16" d="M583.24,1462.88 C595.64,1490.69 604.9168,1511.4615 618.6968,1542.3515 " fill="none" id="Fast-to-Effect" style="stroke:#181818;stroke-width:1.0;"/><polygon fill="none" points="626.03,1558.79,624.1763,1539.9071,613.2173,1544.7959,626.03,1558.79" style="stroke:#181818;stroke-width:1.0;"/></g><!--link Paralyze to Effect--><g id="link_Paralyze_Effect"><path codeLine="22" d="M399.58,1462.67 C416.67,1474.29 435.46,1486.82 453,1498 C486.69,1519.48 508.695,1532.9962 541.955,1552.7562 " fill="none" id="Paralyze-to-Effect" style="stroke:#181818;stroke-width:1.0;"/><polygon fill="none" points="557.43,1561.95,545.0196,1547.5979,538.8904,1557.9145,557.43,1561.95" style="stroke:#181818;stroke-width:1.0;"/></g><!--link ClawParalyze to Effect--><g id="link_ClawParalyze_Effect"><path codeLine="28" d="M169.31,1462.61 C187.46,1475.29 208.44,1488.44 229,1498 C336.57,1548.01 451.9093,1577.5042 539.7293,1595.8242 " fill="none" id="ClawParalyze-to-Effect" style="stroke:#181818;stroke-width:1.0;"/><polygon fill="none" points="557.35,1599.5,540.9546,1589.9506,538.504,1601.6977,557.35,1599.5" style="stroke:#181818;stroke-width:1.0;"/></g><!--SRC=[VSxD3SCm20NWUwTm5-WowGB8mObLyoCCXoZgxisfKYLKZdmFz1Jg2pOiBNWJwq7dhLnpxrn7h5Xqm87sqA3n2mIQR1sh2oU0xDsF1AQAOVO_vcuYzDmDOVqJM1mfuSxpwf90bI6SDS7MlXVl3m00]--></g></svg>