<?xml version="1.0" encoding="us-ascii" standalone="no"?><svg xmlns="http://www.w3.org/2000/svg" xmlns:xlink="http://www.w3.org/1999/xlink" contentStyleType="text/css" height="379px" preserveAspectRatio="none" style="width:379px;height:379px;background:#FFFFFF;" version="1.1" viewBox="0 0 379 379" width="379px" zoomAndPan="magnify"><defs/><g><text fill="#000000" font-family="sans-serif" font-size="14" font-weight="bold" lengthAdjust="spacing" textLength="246" x="65.75" y="29.5332">Mushroomer plants stem on tecton</text><rect fill="#FFFFFF" height="156.7578" style="stroke:#181818;stroke-width:1.0;" width="10" x="34" y="131.2188"/><rect fill="#FFFFFF" height="133.4063" style="stroke:#181818;stroke-width:1.0;" width="10" x="149" y="153.5703"/><rect fill="#FFFFFF" height="88.0547" style="stroke:#181818;stroke-width:1.0;" width="10" x="256.5" y="183.9219"/><rect fill="none" height="81.0547" style="stroke:#000000;stroke-width:1.5;" width="225" x="83.5" y="198.9219"/><line style="stroke:#181818;stroke-width:0.5;stroke-dasharray:5.0,5.0;" x1="39" x2="39" y1="121.2188" y2="296.9766"/><line style="stroke:#181818;stroke-width:0.5;stroke-dasharray:5.0,5.0;" x1="153.5" x2="153.5" y1="121.2188" y2="296.9766"/><line style="stroke:#181818;stroke-width:0.5;stroke-dasharray:5.0,5.0;" x1="261.5" x2="261.5" y1="121.2188" y2="296.9766"/><line style="stroke:#181818;stroke-width:0.5;stroke-dasharray:5.0,5.0;" x1="340.5" x2="340.5" y1="121.2188" y2="296.9766"/><text fill="#000000" font-family="sans-serif" font-size="14" lengthAdjust="spacing" textLength="62" x="5" y="118.1426">Controller</text><ellipse cx="39" cy="52.1094" fill="#E2E2F0" rx="8" ry="8" style="stroke:#181818;stroke-width:0.5;"/><path d="M39,60.1094 L39,87.1094 M26,68.1094 L52,68.1094 M39,87.1094 L26,102.1094 M39,87.1094 L52,102.1094 " fill="none" style="stroke:#181818;stroke-width:0.5;"/><text fill="#000000" font-family="sans-serif" font-size="14" lengthAdjust="spacing" textLength="62" x="5" y="310.5098">Controller</text><ellipse cx="39" cy="322.0859" fill="#E2E2F0" rx="8" ry="8" style="stroke:#181818;stroke-width:0.5;"/><path d="M39,330.0859 L39,357.0859 M26,338.0859 L52,338.0859 M39,357.0859 L26,372.0859 M39,357.0859 L52,372.0859 " fill="none" style="stroke:#181818;stroke-width:0.5;"/><rect fill="#E2E2F0" height="31.6094" rx="2.5" ry="2.5" style="stroke:#181818;stroke-width:0.5;" width="121" x="93.5" y="88.6094"/><text fill="#000000" font-family="sans-serif" font-size="14" lengthAdjust="spacing" textLength="107" x="100.5" y="110.1426">mr : Mushroomer</text><rect fill="#E2E2F0" height="31.6094" rx="2.5" ry="2.5" style="stroke:#181818;stroke-width:0.5;" width="121" x="93.5" y="295.9766"/><text fill="#000000" font-family="sans-serif" font-size="14" lengthAdjust="spacing" textLength="107" x="100.5" y="317.5098">mr : Mushroomer</text><rect fill="#E2E2F0" height="31.6094" rx="2.5" ry="2.5" style="stroke:#181818;stroke-width:0.5;" width="74" x="224.5" y="88.6094"/><text fill="#000000" font-family="sans-serif" font-size="14" lengthAdjust="spacing" textLength="60" x="231.5" y="110.1426">t : Tecton</text><rect fill="#E2E2F0" height="31.6094" rx="2.5" ry="2.5" style="stroke:#181818;stroke-width:0.5;" width="74" x="224.5" y="295.9766"/><text fill="#000000" font-family="sans-serif" font-size="14" lengthAdjust="spacing" textLength="60" x="231.5" y="317.5098">t : Tecton</text><rect fill="#E2E2F0" height="31.6094" rx="2.5" ry="2.5" style="stroke:#181818;stroke-width:0.5;" width="65" x="308.5" y="88.6094"/><text fill="#000000" font-family="sans-serif" font-size="14" lengthAdjust="spacing" textLength="51" x="315.5" y="110.1426">s : Stem</text><rect fill="#E2E2F0" height="31.6094" rx="2.5" ry="2.5" style="stroke:#181818;stroke-width:0.5;" width="65" x="308.5" y="295.9766"/><text fill="#000000" font-family="sans-serif" font-size="14" lengthAdjust="spacing" textLength="51" x="315.5" y="317.5098">s : Stem</text><rect fill="#FFFFFF" height="156.7578" style="stroke:#181818;stroke-width:1.0;" width="10" x="34" y="131.2188"/><rect fill="#FFFFFF" height="133.4063" style="stroke:#181818;stroke-width:1.0;" width="10" x="149" y="153.5703"/><rect fill="#FFFFFF" height="88.0547" style="stroke:#181818;stroke-width:1.0;" width="10" x="256.5" y="183.9219"/><polygon fill="#181818" points="137,149.5703,147,153.5703,137,157.5703,141,153.5703" style="stroke:#181818;stroke-width:1.0;"/><line style="stroke:#181818;stroke-width:1.0;" x1="44" x2="143" y1="153.5703" y2="153.5703"/><text fill="#000000" font-family="sans-serif" font-size="13" lengthAdjust="spacing" textLength="86" x="51" y="148.7139">plantStem(t, s)</text><polygon fill="#181818" points="244.5,179.9219,254.5,183.9219,244.5,187.9219,248.5,183.9219" style="stroke:#181818;stroke-width:1.0;"/><line style="stroke:#181818;stroke-width:1.0;" x1="159" x2="250.5" y1="183.9219" y2="183.9219"/><text fill="#000000" font-family="sans-serif" font-size="13" lengthAdjust="spacing" textLength="48" x="166" y="179.0654">add(t, s)</text><path d="M83.5,198.9219 L144.5,198.9219 L144.5,207.2734 L134.5,217.2734 L83.5,217.2734 L83.5,198.9219 " fill="#EEEEEE" style="stroke:#000000;stroke-width:1.5;"/><rect fill="none" height="81.0547" style="stroke:#000000;stroke-width:1.5;" width="225" x="83.5" y="198.9219"/><text fill="#000000" font-family="sans-serif" font-size="13" font-weight="bold" lengthAdjust="spacing" textLength="16" x="98.5" y="213.417">alt</text><text fill="#000000" font-family="sans-serif" font-size="11" font-weight="bold" lengthAdjust="spacing" textLength="43" x="159.5" y="212.3408">[empty]</text><polygon fill="#181818" points="170,235.625,160,239.625,170,243.625,166,239.625" style="stroke:#181818;stroke-width:1.0;"/><line style="stroke:#181818;stroke-width:1.0;stroke-dasharray:2.0,2.0;" x1="164" x2="255.5" y1="239.625" y2="239.625"/><text fill="#000000" font-family="sans-serif" font-size="13" lengthAdjust="spacing" textLength="22" x="176" y="234.7686">true</text><line style="stroke:#000000;stroke-width:1.0;stroke-dasharray:2.0,2.0;" x1="83.5" x2="308.5" y1="248.625" y2="248.625"/><polygon fill="#181818" points="170,267.9766,160,271.9766,170,275.9766,166,271.9766" style="stroke:#181818;stroke-width:1.0;"/><line style="stroke:#181818;stroke-width:1.0;stroke-dasharray:2.0,2.0;" x1="164" x2="260.5" y1="271.9766" y2="271.9766"/><text fill="#000000" font-family="sans-serif" font-size="13" lengthAdjust="spacing" textLength="27" x="176" y="267.1201">false</text><!--SRC=[NOwz3i8m38JtF8NL2IJw0WYnC7Tfym9MOqIa_CanIBmzRfQcJ8dklhkpU0a4qxk-EET832LWaWfLA49E8BHAJiQWFWoFd8Hp2CIc88jVVL4QXiXmxKe6m0hJV6H44TlQccsFRbLtqStcBMtFVr2edzo_CDwrNoFjsYrtaWlKynxJTQE4SbOnTEuViBeH12WM-MxaRHmRAlmcGw5IBpvn4nnrQKhEzCeq_m00]--></g></svg>