<?xml version="1.0" encoding="us-ascii" standalone="no"?><svg xmlns="http://www.w3.org/2000/svg" xmlns:xlink="http://www.w3.org/1999/xlink" contentStyleType="text/css" height="471px" preserveAspectRatio="none" style="width:617px;height:471px;background:#FFFFFF;" version="1.1" viewBox="0 0 617 471" width="617px" zoomAndPan="magnify"><defs/><g><text fill="#000000" font-family="sans-serif" font-size="14" font-weight="bold" lengthAdjust="spacing" textLength="115" x="252.5" y="29.5332">Player ends turn</text><rect fill="#FFFFFF" height="226.1094" style="stroke:#181818;stroke-width:1.0;" width="10" x="153" y="153.5703"/><rect fill="#FFFFFF" height="195.7578" style="stroke:#181818;stroke-width:1.0;" width="10" x="236" y="183.9219"/><rect fill="#FFFFFF" height="114.7031" style="stroke:#181818;stroke-width:1.0;" width="10" x="340" y="264.9766"/><rect fill="#FFFFFF" height="30" style="stroke:#181818;stroke-width:1.0;" width="10" x="467" y="320.6797"/><rect fill="none" height="173.7578" style="stroke:#000000;stroke-width:1.5;" width="418" x="193" y="198.9219"/><rect fill="none" height="141.4063" style="stroke:#000000;stroke-width:1.5;" width="398" x="203" y="224.2734"/><rect fill="none" height="78.7031" style="stroke:#000000;stroke-width:1.5;" width="289" x="302" y="279.9766"/><line style="stroke:#181818;stroke-width:0.5;stroke-dasharray:5.0,5.0;" x1="39" x2="39" y1="121.2188" y2="389.6797"/><line style="stroke:#181818;stroke-width:0.5;stroke-dasharray:5.0,5.0;" x1="158" x2="158" y1="121.2188" y2="389.6797"/><line style="stroke:#181818;stroke-width:0.5;stroke-dasharray:5.0,5.0;" x1="241" x2="241" y1="121.2188" y2="389.6797"/><line style="stroke:#181818;stroke-width:0.5;stroke-dasharray:5.0,5.0;" x1="345" x2="345" y1="121.2188" y2="389.6797"/><line style="stroke:#181818;stroke-width:0.5;stroke-dasharray:5.0,5.0;" x1="471.5" x2="471.5" y1="121.2188" y2="389.6797"/><text fill="#000000" font-family="sans-serif" font-size="14" lengthAdjust="spacing" textLength="62" x="5" y="118.1426">Controller</text><ellipse cx="39" cy="52.1094" fill="#E2E2F0" rx="8" ry="8" style="stroke:#181818;stroke-width:0.5;"/><path d="M39,60.1094 L39,87.1094 M26,68.1094 L52,68.1094 M39,87.1094 L26,102.1094 M39,87.1094 L52,102.1094 " fill="none" style="stroke:#181818;stroke-width:0.5;"/><text fill="#000000" font-family="sans-serif" font-size="14" lengthAdjust="spacing" textLength="62" x="5" y="403.2129">Controller</text><ellipse cx="39" cy="414.7891" fill="#E2E2F0" rx="8" ry="8" style="stroke:#181818;stroke-width:0.5;"/><path d="M39,422.7891 L39,449.7891 M26,430.7891 L52,430.7891 M39,449.7891 L26,464.7891 M39,449.7891 L52,464.7891 " fill="none" style="stroke:#181818;stroke-width:0.5;"/><rect fill="#E2E2F0" height="31.6094" rx="2.5" ry="2.5" style="stroke:#181818;stroke-width:0.5;" width="66" x="125" y="88.6094"/><text fill="#000000" font-family="sans-serif" font-size="14" lengthAdjust="spacing" textLength="52" x="132" y="110.1426">p:Player</text><rect fill="#E2E2F0" height="31.6094" rx="2.5" ry="2.5" style="stroke:#181818;stroke-width:0.5;" width="66" x="125" y="388.6797"/><text fill="#000000" font-family="sans-serif" font-size="14" lengthAdjust="spacing" textLength="52" x="132" y="410.2129">p:Player</text><rect fill="#E2E2F0" height="31.6094" rx="2.5" ry="2.5" style="stroke:#181818;stroke-width:0.5;" width="56" x="213" y="88.6094"/><text fill="#000000" font-family="sans-serif" font-size="14" lengthAdjust="spacing" textLength="42" x="220" y="110.1426">m:Map</text><rect fill="#E2E2F0" height="31.6094" rx="2.5" ry="2.5" style="stroke:#181818;stroke-width:0.5;" width="56" x="213" y="388.6797"/><text fill="#000000" font-family="sans-serif" font-size="14" lengthAdjust="spacing" textLength="42" x="220" y="410.2129">m:Map</text><rect fill="#E2E2F0" height="31.6094" rx="2.5" ry="2.5" style="stroke:#181818;stroke-width:0.5;" width="66" x="312" y="88.6094"/><text fill="#000000" font-family="sans-serif" font-size="14" lengthAdjust="spacing" textLength="52" x="319" y="110.1426">t:Tecton</text><rect fill="#E2E2F0" height="31.6094" rx="2.5" ry="2.5" style="stroke:#181818;stroke-width:0.5;" width="66" x="312" y="388.6797"/><text fill="#000000" font-family="sans-serif" font-size="14" lengthAdjust="spacing" textLength="52" x="319" y="410.2129">t:Tecton</text><rect fill="#E2E2F0" height="31.6094" rx="2.5" ry="2.5" style="stroke:#181818;stroke-width:0.5;" width="145" x="399.5" y="88.6094"/><text fill="#000000" font-family="sans-serif" font-size="14" lengthAdjust="spacing" textLength="131" x="406.5" y="110.1426">mt:MushroomThread</text><rect fill="#E2E2F0" height="31.6094" rx="2.5" ry="2.5" style="stroke:#181818;stroke-width:0.5;" width="145" x="399.5" y="388.6797"/><text fill="#000000" font-family="sans-serif" font-size="14" lengthAdjust="spacing" textLength="131" x="406.5" y="410.2129">mt:MushroomThread</text><rect fill="#FFFFFF" height="226.1094" style="stroke:#181818;stroke-width:1.0;" width="10" x="153" y="153.5703"/><rect fill="#FFFFFF" height="195.7578" style="stroke:#181818;stroke-width:1.0;" width="10" x="236" y="183.9219"/><rect fill="#FFFFFF" height="114.7031" style="stroke:#181818;stroke-width:1.0;" width="10" x="340" y="264.9766"/><rect fill="#FFFFFF" height="30" style="stroke:#181818;stroke-width:1.0;" width="10" x="467" y="320.6797"/><polygon fill="#181818" points="141,149.5703,151,153.5703,141,157.5703,145,153.5703" style="stroke:#181818;stroke-width:1.0;"/><line style="stroke:#181818;stroke-width:1.0;" x1="39" x2="147" y1="153.5703" y2="153.5703"/><text fill="#000000" font-family="sans-serif" font-size="13" lengthAdjust="spacing" textLength="95" x="46" y="148.7139">Player ends turn</text><polygon fill="#181818" points="224,179.9219,234,183.9219,224,187.9219,228,183.9219" style="stroke:#181818;stroke-width:1.0;"/><line style="stroke:#181818;stroke-width:1.0;" x1="163" x2="230" y1="183.9219" y2="183.9219"/><text fill="#000000" font-family="sans-serif" font-size="13" lengthAdjust="spacing" textLength="54" x="170" y="179.0654">endTurn()</text><path d="M193,198.9219 L266,198.9219 L266,207.2734 L256,217.2734 L193,217.2734 L193,198.9219 " fill="#EEEEEE" style="stroke:#000000;stroke-width:1.5;"/><rect fill="none" height="173.7578" style="stroke:#000000;stroke-width:1.5;" width="418" x="193" y="198.9219"/><text fill="#000000" font-family="sans-serif" font-size="13" font-weight="bold" lengthAdjust="spacing" textLength="28" x="208" y="213.417">loop</text><text fill="#000000" font-family="sans-serif" font-size="11" font-weight="bold" lengthAdjust="spacing" textLength="87" x="281" y="212.3408">[for(t : tectons)]</text><path d="M203,224.2734 L264,224.2734 L264,232.625 L254,242.625 L203,242.625 L203,224.2734 " fill="#EEEEEE" style="stroke:#000000;stroke-width:1.5;"/><rect fill="none" height="141.4063" style="stroke:#000000;stroke-width:1.5;" width="398" x="203" y="224.2734"/><text fill="#000000" font-family="sans-serif" font-size="13" font-weight="bold" lengthAdjust="spacing" textLength="16" x="218" y="238.7686">alt</text><text fill="#000000" font-family="sans-serif" font-size="11" font-weight="bold" lengthAdjust="spacing" textLength="51" x="279" y="237.6924">[random]</text><polygon fill="#181818" points="328,260.9766,338,264.9766,328,268.9766,332,264.9766" style="stroke:#181818;stroke-width:1.0;"/><line style="stroke:#181818;stroke-width:1.0;" x1="246" x2="334" y1="264.9766" y2="264.9766"/><text fill="#000000" font-family="sans-serif" font-size="13" lengthAdjust="spacing" textLength="75" x="253" y="260.1201">splitTecton(t)</text><path d="M302,279.9766 L375,279.9766 L375,288.3281 L365,298.3281 L302,298.3281 L302,279.9766 " fill="#EEEEEE" style="stroke:#000000;stroke-width:1.5;"/><rect fill="none" height="78.7031" style="stroke:#000000;stroke-width:1.5;" width="289" x="302" y="279.9766"/><text fill="#000000" font-family="sans-serif" font-size="13" font-weight="bold" lengthAdjust="spacing" textLength="28" x="317" y="294.4717">loop</text><text fill="#000000" font-family="sans-serif" font-size="11" font-weight="bold" lengthAdjust="spacing" textLength="196" x="390" y="293.3955">[for(mt : t.getMushroomThreads())]</text><polygon fill="#181818" points="455,316.6797,465,320.6797,455,324.6797,459,320.6797" style="stroke:#181818;stroke-width:1.0;"/><line style="stroke:#181818;stroke-width:1.0;" x1="350" x2="461" y1="320.6797" y2="320.6797"/><text fill="#000000" font-family="sans-serif" font-size="13" lengthAdjust="spacing" textLength="98" x="357" y="315.8232">removeEntity(mt)</text><!--SRC=[RO_FQWGX3CRlUOgmf_7GFe27NagFmXny0TcnNS5_nEp2ldtLOMUqD22I_F8bNzYnjxXwyxI4Dcu5-KuHm5mv4Nwco9IyjmJP4BkhooOoNhBS5HSq1TUP1QbCxa3DWAMsTMhiJFyHiLJtSgEKWhwHDTi-G0ES5l3j0rVvlrVtC5pFWBKrATcehcmH0rNWKyhudMXXbCZTJ160DOnd91Et5A3dBLIRfIMMx1tlrXSM9py6wwDqB0Xzm_kFvVciiWXnTBVGtN3TGZQaX_sAxFXPvNFNUOE62MnsHAzglHvUVtj3LzMFcZ5PVm40]--></g></svg>