<?xml version="1.0" encoding="us-ascii" standalone="no"?><svg xmlns="http://www.w3.org/2000/svg" xmlns:xlink="http://www.w3.org/1999/xlink" contentStyleType="text/css" height="455px" preserveAspectRatio="none" style="width:713px;height:455px;background:#FFFFFF;" version="1.1" viewBox="0 0 713 455" width="713px" zoomAndPan="magnify"><defs/><g><!--class IOnTurn--><g id="elem_IOnTurn"><rect fill="#F1F1F1" height="48" id="IOnTurn" rx="2.5" ry="2.5" style="stroke:#181818;stroke-width:0.5;" width="84" x="194.5" y="7"/><ellipse cx="209.5" cy="23" fill="#ADD1B2" rx="11" ry="11" style="stroke:#181818;stroke-width:1.0;"/><path d="M212.2656,18.875 Q212.4219,18.6563 212.6094,18.5469 Q212.7969,18.4375 213.0156,18.4375 Q213.3906,18.4375 213.625,18.7031 Q213.8594,18.9531 213.8594,19.5625 L213.8594,21.0156 Q213.8594,21.625 213.625,21.8906 Q213.3906,22.1563 213.0156,22.1563 Q212.6719,22.1563 212.4688,21.9531 Q212.2656,21.7656 212.1563,21.25 Q212.1094,20.8906 211.9219,20.7031 Q211.5938,20.3281 210.9844,20.1094 Q210.375,19.8906 209.75,19.8906 Q208.9844,19.8906 208.3438,20.2188 Q207.7188,20.5469 207.2188,21.2969 Q206.7344,22.0469 206.7344,23.0781 L206.7344,24.1719 Q206.7344,25.4063 207.625,26.2344 Q208.5156,27.0469 210.1094,27.0469 Q211.0469,27.0469 211.7031,26.7969 Q212.0938,26.6406 212.5156,26.2031 Q212.7813,25.9375 212.9219,25.8594 Q213.0781,25.7813 213.2813,25.7813 Q213.6094,25.7813 213.8594,26.0469 Q214.125,26.2969 214.125,26.6406 Q214.125,26.9844 213.7813,27.3906 Q213.2813,27.9688 212.4844,28.2969 Q211.4063,28.75 210.1094,28.75 Q208.5938,28.75 207.3906,28.125 Q206.4063,27.625 205.7188,26.5625 Q205.0313,25.4844 205.0313,24.2031 L205.0313,23.0469 Q205.0313,21.7188 205.6406,20.5781 Q206.2656,19.4219 207.3594,18.8125 Q208.4531,18.1875 209.6875,18.1875 Q210.4219,18.1875 211.0625,18.3594 Q211.7188,18.5156 212.2656,18.875 Z " fill="#000000"/><text fill="#000000" font-family="sans-serif" font-size="14" lengthAdjust="spacing" textLength="52" x="223.5" y="28.7285">IOnTurn</text><line style="stroke:#181818;stroke-width:0.5;" x1="195.5" x2="277.5" y1="39" y2="39"/><line style="stroke:#181818;stroke-width:0.5;" x1="195.5" x2="277.5" y1="47" y2="47"/></g><!--class Tecton--><g id="elem_Tecton"><rect codeLine="5" fill="#F1F1F1" height="206.4844" id="Tecton" rx="2.5" ry="2.5" style="stroke:#181818;stroke-width:0.5;" width="193" x="202" y="116"/><ellipse cx="272.25" cy="132" fill="#ADD1B2" rx="11" ry="11" style="stroke:#181818;stroke-width:1.0;"/><path d="M275.0156,127.875 Q275.1719,127.6563 275.3594,127.5469 Q275.5469,127.4375 275.7656,127.4375 Q276.1406,127.4375 276.375,127.7031 Q276.6094,127.9531 276.6094,128.5625 L276.6094,130.0156 Q276.6094,130.625 276.375,130.8906 Q276.1406,131.1563 275.7656,131.1563 Q275.4219,131.1563 275.2188,130.9531 Q275.0156,130.7656 274.9063,130.25 Q274.8594,129.8906 274.6719,129.7031 Q274.3438,129.3281 273.7344,129.1094 Q273.125,128.8906 272.5,128.8906 Q271.7344,128.8906 271.0938,129.2188 Q270.4688,129.5469 269.9688,130.2969 Q269.4844,131.0469 269.4844,132.0781 L269.4844,133.1719 Q269.4844,134.4063 270.375,135.2344 Q271.2656,136.0469 272.8594,136.0469 Q273.7969,136.0469 274.4531,135.7969 Q274.8438,135.6406 275.2656,135.2031 Q275.5313,134.9375 275.6719,134.8594 Q275.8281,134.7813 276.0313,134.7813 Q276.3594,134.7813 276.6094,135.0469 Q276.875,135.2969 276.875,135.6406 Q276.875,135.9844 276.5313,136.3906 Q276.0313,136.9688 275.2344,137.2969 Q274.1563,137.75 272.8594,137.75 Q271.3438,137.75 270.1406,137.125 Q269.1563,136.625 268.4688,135.5625 Q267.7813,134.4844 267.7813,133.2031 L267.7813,132.0469 Q267.7813,130.7188 268.3906,129.5781 Q269.0156,128.4219 270.1094,127.8125 Q271.2031,127.1875 272.4375,127.1875 Q273.1719,127.1875 273.8125,127.3594 Q274.4688,127.5156 275.0156,127.875 Z " fill="#000000"/><text fill="#000000" font-family="sans-serif" font-size="14" lengthAdjust="spacing" textLength="44" x="292.75" y="137.7285">Tecton</text><line style="stroke:#181818;stroke-width:0.5;" x1="203" x2="394" y1="148" y2="148"/><text fill="#000000" font-family="sans-serif" font-size="14" lengthAdjust="spacing" text-decoration="underline" textLength="134" x="208" y="166.5332">maxThreads : Integer</text><text fill="#000000" font-family="sans-serif" font-size="14" lengthAdjust="spacing" text-decoration="underline" textLength="116" x="208" y="184.1426">maxStems: Integer</text><text fill="#000000" font-family="sans-serif" font-size="14" lengthAdjust="spacing" textLength="150" x="208" y="201.752">minNeighbours : Integer</text><text fill="#000000" font-family="sans-serif" font-size="14" lengthAdjust="spacing" textLength="153" x="208" y="219.3613">maxNeighbours : Integer</text><text fill="#000000" font-family="sans-serif" font-size="14" lengthAdjust="spacing" textLength="127" x="208" y="236.9707">neighbours : Tecton</text><text fill="#000000" font-family="sans-serif" font-size="14" lengthAdjust="spacing" textLength="130" x="208" y="254.5801">entities : List&lt;Entity&gt;</text><line style="stroke:#181818;stroke-width:0.5;" x1="203" x2="394" y1="261.6563" y2="261.6563"/><text fill="#000000" font-family="sans-serif" font-size="14" lengthAdjust="spacing" textLength="181" x="208" y="280.1895">addNeighbour(Tecton) : void</text><text fill="#000000" font-family="sans-serif" font-size="14" lengthAdjust="spacing" textLength="142" x="208" y="297.7988">addEntity(Entity) : void</text><text fill="#000000" font-family="sans-serif" font-size="14" lengthAdjust="spacing" textLength="165" x="208" y="315.4082">removeEntity(Entity) : void</text></g><!--class IOnRound--><g id="elem_IOnRound"><rect fill="#F1F1F1" height="48" id="IOnRound" rx="2.5" ry="2.5" style="stroke:#181818;stroke-width:0.5;" width="96" x="313.5" y="7"/><ellipse cx="328.5" cy="23" fill="#ADD1B2" rx="11" ry="11" style="stroke:#181818;stroke-width:1.0;"/><path d="M331.2656,18.875 Q331.4219,18.6563 331.6094,18.5469 Q331.7969,18.4375 332.0156,18.4375 Q332.3906,18.4375 332.625,18.7031 Q332.8594,18.9531 332.8594,19.5625 L332.8594,21.0156 Q332.8594,21.625 332.625,21.8906 Q332.3906,22.1563 332.0156,22.1563 Q331.6719,22.1563 331.4688,21.9531 Q331.2656,21.7656 331.1563,21.25 Q331.1094,20.8906 330.9219,20.7031 Q330.5938,20.3281 329.9844,20.1094 Q329.375,19.8906 328.75,19.8906 Q327.9844,19.8906 327.3438,20.2188 Q326.7188,20.5469 326.2188,21.2969 Q325.7344,22.0469 325.7344,23.0781 L325.7344,24.1719 Q325.7344,25.4063 326.625,26.2344 Q327.5156,27.0469 329.1094,27.0469 Q330.0469,27.0469 330.7031,26.7969 Q331.0938,26.6406 331.5156,26.2031 Q331.7813,25.9375 331.9219,25.8594 Q332.0781,25.7813 332.2813,25.7813 Q332.6094,25.7813 332.8594,26.0469 Q333.125,26.2969 333.125,26.6406 Q333.125,26.9844 332.7813,27.3906 Q332.2813,27.9688 331.4844,28.2969 Q330.4063,28.75 329.1094,28.75 Q327.5938,28.75 326.3906,28.125 Q325.4063,27.625 324.7188,26.5625 Q324.0313,25.4844 324.0313,24.2031 L324.0313,23.0469 Q324.0313,21.7188 324.6406,20.5781 Q325.2656,19.4219 326.3594,18.8125 Q327.4531,18.1875 328.6875,18.1875 Q329.4219,18.1875 330.0625,18.3594 Q330.7188,18.5156 331.2656,18.875 Z " fill="#000000"/><text fill="#000000" font-family="sans-serif" font-size="14" lengthAdjust="spacing" textLength="64" x="342.5" y="28.7285">IOnRound</text><line style="stroke:#181818;stroke-width:0.5;" x1="314.5" x2="408.5" y1="39" y2="39"/><line style="stroke:#181818;stroke-width:0.5;" x1="314.5" x2="408.5" y1="47" y2="47"/></g><!--class Entity--><g id="elem_Entity"><rect fill="#F1F1F1" height="48" id="Entity" rx="2.5" ry="2.5" style="stroke:#181818;stroke-width:0.5;" width="67" x="7" y="392"/><ellipse cx="22" cy="408" fill="#ADD1B2" rx="11" ry="11" style="stroke:#181818;stroke-width:1.0;"/><path d="M24.7656,403.875 Q24.9219,403.6563 25.1094,403.5469 Q25.2969,403.4375 25.5156,403.4375 Q25.8906,403.4375 26.125,403.7031 Q26.3594,403.9531 26.3594,404.5625 L26.3594,406.0156 Q26.3594,406.625 26.125,406.8906 Q25.8906,407.1563 25.5156,407.1563 Q25.1719,407.1563 24.9688,406.9531 Q24.7656,406.7656 24.6563,406.25 Q24.6094,405.8906 24.4219,405.7031 Q24.0938,405.3281 23.4844,405.1094 Q22.875,404.8906 22.25,404.8906 Q21.4844,404.8906 20.8438,405.2188 Q20.2188,405.5469 19.7188,406.2969 Q19.2344,407.0469 19.2344,408.0781 L19.2344,409.1719 Q19.2344,410.4063 20.125,411.2344 Q21.0156,412.0469 22.6094,412.0469 Q23.5469,412.0469 24.2031,411.7969 Q24.5938,411.6406 25.0156,411.2031 Q25.2813,410.9375 25.4219,410.8594 Q25.5781,410.7813 25.7813,410.7813 Q26.1094,410.7813 26.3594,411.0469 Q26.625,411.2969 26.625,411.6406 Q26.625,411.9844 26.2813,412.3906 Q25.7813,412.9688 24.9844,413.2969 Q23.9063,413.75 22.6094,413.75 Q21.0938,413.75 19.8906,413.125 Q18.9063,412.625 18.2188,411.5625 Q17.5313,410.4844 17.5313,409.2031 L17.5313,408.0469 Q17.5313,406.7188 18.1406,405.5781 Q18.7656,404.4219 19.8594,403.8125 Q20.9531,403.1875 22.1875,403.1875 Q22.9219,403.1875 23.5625,403.3594 Q24.2188,403.5156 24.7656,403.875 Z " fill="#000000"/><text fill="#000000" font-family="sans-serif" font-size="14" lengthAdjust="spacing" textLength="35" x="36" y="413.7285">Entity</text><line style="stroke:#181818;stroke-width:0.5;" x1="8" x2="73" y1="424" y2="424"/><line style="stroke:#181818;stroke-width:0.5;" x1="8" x2="73" y1="432" y2="432"/></g><!--class SingleThreadedTecton--><g id="elem_SingleThreadedTecton"><rect codeLine="24" fill="#F1F1F1" height="65.6094" id="SingleThreadedTecton" rx="2.5" ry="2.5" style="stroke:#181818;stroke-width:0.5;" width="177" x="109" y="383"/><ellipse cx="124" cy="399" fill="#ADD1B2" rx="11" ry="11" style="stroke:#181818;stroke-width:1.0;"/><path d="M126.7656,394.875 Q126.9219,394.6563 127.1094,394.5469 Q127.2969,394.4375 127.5156,394.4375 Q127.8906,394.4375 128.125,394.7031 Q128.3594,394.9531 128.3594,395.5625 L128.3594,397.0156 Q128.3594,397.625 128.125,397.8906 Q127.8906,398.1563 127.5156,398.1563 Q127.1719,398.1563 126.9688,397.9531 Q126.7656,397.7656 126.6563,397.25 Q126.6094,396.8906 126.4219,396.7031 Q126.0938,396.3281 125.4844,396.1094 Q124.875,395.8906 124.25,395.8906 Q123.4844,395.8906 122.8438,396.2188 Q122.2188,396.5469 121.7188,397.2969 Q121.2344,398.0469 121.2344,399.0781 L121.2344,400.1719 Q121.2344,401.4063 122.125,402.2344 Q123.0156,403.0469 124.6094,403.0469 Q125.5469,403.0469 126.2031,402.7969 Q126.5938,402.6406 127.0156,402.2031 Q127.2813,401.9375 127.4219,401.8594 Q127.5781,401.7813 127.7813,401.7813 Q128.1094,401.7813 128.3594,402.0469 Q128.625,402.2969 128.625,402.6406 Q128.625,402.9844 128.2813,403.3906 Q127.7813,403.9688 126.9844,404.2969 Q125.9063,404.75 124.6094,404.75 Q123.0938,404.75 121.8906,404.125 Q120.9063,403.625 120.2188,402.5625 Q119.5313,401.4844 119.5313,400.2031 L119.5313,399.0469 Q119.5313,397.7188 120.1406,396.5781 Q120.7656,395.4219 121.8594,394.8125 Q122.9531,394.1875 124.1875,394.1875 Q124.9219,394.1875 125.5625,394.3594 Q126.2188,394.5156 126.7656,394.875 Z " fill="#000000"/><text fill="#000000" font-family="sans-serif" font-size="14" lengthAdjust="spacing" textLength="145" x="138" y="404.7285">SingleThreadedTecton</text><line style="stroke:#181818;stroke-width:0.5;" x1="110" x2="285" y1="415" y2="415"/><text fill="#000000" font-family="sans-serif" font-size="14" lengthAdjust="spacing" text-decoration="underline" textLength="158" x="115" y="433.5332">maxThreads = 1 : Integer</text><line style="stroke:#181818;stroke-width:0.5;" x1="110" x2="285" y1="440.6094" y2="440.6094"/></g><!--class StemlessTecton--><g id="elem_StemlessTecton"><rect codeLine="31" fill="#F1F1F1" height="65.6094" id="StemlessTecton" rx="2.5" ry="2.5" style="stroke:#181818;stroke-width:0.5;" width="156" x="321.5" y="383"/><ellipse cx="346.85" cy="399" fill="#ADD1B2" rx="11" ry="11" style="stroke:#181818;stroke-width:1.0;"/><path d="M349.6156,394.875 Q349.7719,394.6563 349.9594,394.5469 Q350.1469,394.4375 350.3656,394.4375 Q350.7406,394.4375 350.975,394.7031 Q351.2094,394.9531 351.2094,395.5625 L351.2094,397.0156 Q351.2094,397.625 350.975,397.8906 Q350.7406,398.1563 350.3656,398.1563 Q350.0219,398.1563 349.8188,397.9531 Q349.6156,397.7656 349.5063,397.25 Q349.4594,396.8906 349.2719,396.7031 Q348.9438,396.3281 348.3344,396.1094 Q347.725,395.8906 347.1,395.8906 Q346.3344,395.8906 345.6938,396.2188 Q345.0688,396.5469 344.5688,397.2969 Q344.0844,398.0469 344.0844,399.0781 L344.0844,400.1719 Q344.0844,401.4063 344.975,402.2344 Q345.8656,403.0469 347.4594,403.0469 Q348.3969,403.0469 349.0531,402.7969 Q349.4438,402.6406 349.8656,402.2031 Q350.1313,401.9375 350.2719,401.8594 Q350.4281,401.7813 350.6313,401.7813 Q350.9594,401.7813 351.2094,402.0469 Q351.475,402.2969 351.475,402.6406 Q351.475,402.9844 351.1313,403.3906 Q350.6313,403.9688 349.8344,404.2969 Q348.7563,404.75 347.4594,404.75 Q345.9438,404.75 344.7406,404.125 Q343.7563,403.625 343.0688,402.5625 Q342.3813,401.4844 342.3813,400.2031 L342.3813,399.0469 Q342.3813,397.7188 342.9906,396.5781 Q343.6156,395.4219 344.7094,394.8125 Q345.8031,394.1875 347.0375,394.1875 Q347.7719,394.1875 348.4125,394.3594 Q349.0688,394.5156 349.6156,394.875 Z " fill="#000000"/><text fill="#000000" font-family="sans-serif" font-size="14" lengthAdjust="spacing" textLength="101" x="363.15" y="404.7285">StemlessTecton</text><line style="stroke:#181818;stroke-width:0.5;" x1="322.5" x2="476.5" y1="415" y2="415"/><text fill="#000000" font-family="sans-serif" font-size="14" lengthAdjust="spacing" text-decoration="underline" textLength="144" x="327.5" y="433.5332">maxStems = 0 : Integer</text><line style="stroke:#181818;stroke-width:0.5;" x1="322.5" x2="476.5" y1="440.6094" y2="440.6094"/></g><!--class ThreadConsumingTecton--><g id="elem_ThreadConsumingTecton"><rect codeLine="38" fill="#F1F1F1" height="48" id="ThreadConsumingTecton" rx="2.5" ry="2.5" style="stroke:#181818;stroke-width:0.5;" width="193" x="513" y="392"/><ellipse cx="528" cy="408" fill="#ADD1B2" rx="11" ry="11" style="stroke:#181818;stroke-width:1.0;"/><path d="M530.7656,403.875 Q530.9219,403.6563 531.1094,403.5469 Q531.2969,403.4375 531.5156,403.4375 Q531.8906,403.4375 532.125,403.7031 Q532.3594,403.9531 532.3594,404.5625 L532.3594,406.0156 Q532.3594,406.625 532.125,406.8906 Q531.8906,407.1563 531.5156,407.1563 Q531.1719,407.1563 530.9688,406.9531 Q530.7656,406.7656 530.6563,406.25 Q530.6094,405.8906 530.4219,405.7031 Q530.0938,405.3281 529.4844,405.1094 Q528.875,404.8906 528.25,404.8906 Q527.4844,404.8906 526.8438,405.2188 Q526.2188,405.5469 525.7188,406.2969 Q525.2344,407.0469 525.2344,408.0781 L525.2344,409.1719 Q525.2344,410.4063 526.125,411.2344 Q527.0156,412.0469 528.6094,412.0469 Q529.5469,412.0469 530.2031,411.7969 Q530.5938,411.6406 531.0156,411.2031 Q531.2813,410.9375 531.4219,410.8594 Q531.5781,410.7813 531.7813,410.7813 Q532.1094,410.7813 532.3594,411.0469 Q532.625,411.2969 532.625,411.6406 Q532.625,411.9844 532.2813,412.3906 Q531.7813,412.9688 530.9844,413.2969 Q529.9063,413.75 528.6094,413.75 Q527.0938,413.75 525.8906,413.125 Q524.9063,412.625 524.2188,411.5625 Q523.5313,410.4844 523.5313,409.2031 L523.5313,408.0469 Q523.5313,406.7188 524.1406,405.5781 Q524.7656,404.4219 525.8594,403.8125 Q526.9531,403.1875 528.1875,403.1875 Q528.9219,403.1875 529.5625,403.3594 Q530.2188,403.5156 530.7656,403.875 Z " fill="#000000"/><text fill="#000000" font-family="sans-serif" font-size="14" lengthAdjust="spacing" textLength="161" x="542" y="413.7285">ThreadConsumingTecton</text><line style="stroke:#181818;stroke-width:0.5;" x1="514" x2="705" y1="424" y2="424"/><line style="stroke:#181818;stroke-width:0.5;" x1="514" x2="705" y1="432" y2="432"/></g><!--reverse link IOnTurn to Tecton--><g id="link_IOnTurn_Tecton"><path codeLine="1" d="M249.9221,72.2563 C255.1821,88.0363 256.85,93.05 264.46,115.88 " fill="none" id="IOnTurn-backto-Tecton" style="stroke:#181818;stroke-width:1.0;stroke-dasharray:7.0,7.0;"/><polygon fill="none" points="244.23,55.18,244.23,74.1537,255.6142,70.3589,244.23,55.18" style="stroke:#181818;stroke-width:1.0;"/></g><!--reverse link IOnRound to Tecton--><g id="link_IOnRound_Tecton"><path codeLine="2" d="M347.8705,72.2269 C342.5205,88.0069 340.82,93.05 333.09,115.88 " fill="none" id="IOnRound-backto-Tecton" style="stroke:#181818;stroke-width:1.0;stroke-dasharray:7.0,7.0;"/><polygon fill="none" points="353.65,55.18,342.1882,70.3004,353.5528,74.1534,353.65,55.18" style="stroke:#181818;stroke-width:1.0;"/></g><!--link Tecton to Tecton--><g id="link_Tecton_Tecton"><path codeLine="3" d="M395.12,195.08 C415.39,197.56 430,205.53 430,219 C430,232.47 415.39,240.44 395.12,242.92 " fill="none" id="Tecton-Tecton" style="stroke:#181818;stroke-width:1.0;"/><text fill="#000000" font-family="sans-serif" font-size="13" lengthAdjust="spacing" textLength="56" x="436" y="224.4951">neighbour</text><text fill="#000000" font-family="sans-serif" font-size="13" lengthAdjust="spacing" textLength="29" x="402.9331" y="190.3261">2..12</text></g><!--reverse link Tecton to Entity--><g id="link_Tecton_Entity"><path codeLine="4" d="M192.1261,300.4047 C145.7961,335.4147 103.12,367.67 71,391.95 " fill="none" id="Tecton-backto-Entity" style="stroke:#181818;stroke-width:1.0;"/><polygon fill="#181818" points="201.7,293.17,194.5015,293.596,192.1261,300.4047,199.3246,299.9786,201.7,293.17" style="stroke:#181818;stroke-width:1.0;"/><text fill="#000000" font-family="sans-serif" font-size="13" lengthAdjust="spacing" textLength="20" x="56.2531" y="381.2773">0..*</text></g><!--reverse link Tecton to SingleThreadedTecton--><g id="link_Tecton_SingleThreadedTecton"><path codeLine="23" d="M237.3525,338.0538 C225.9025,360.1638 222.89,365.99 214.12,382.91 " fill="none" id="Tecton-backto-SingleThreadedTecton" style="stroke:#181818;stroke-width:1.0;"/><polygon fill="none" points="245.63,322.07,232.0246,335.2947,242.6805,340.813,245.63,322.07" style="stroke:#181818;stroke-width:1.0;"/></g><!--reverse link Tecton to StemlessTecton--><g id="link_Tecton_StemlessTecton"><path codeLine="30" d="M359.6475,338.0538 C371.0975,360.1638 374.11,365.99 382.88,382.91 " fill="none" id="Tecton-backto-StemlessTecton" style="stroke:#181818;stroke-width:1.0;"/><polygon fill="none" points="351.37,322.07,354.3195,340.813,364.9754,335.2947,351.37,322.07" style="stroke:#181818;stroke-width:1.0;"/></g><!--reverse link Tecton to ThreadConsumingTecton--><g id="link_Tecton_ThreadConsumingTecton"><path codeLine="37" d="M410.4498,290.1926 C470.5398,327.8726 529.12,364.6 572.57,391.84 " fill="none" id="Tecton-backto-ThreadConsumingTecton" style="stroke:#181818;stroke-width:1.0;"/><polygon fill="none" points="395.2,280.63,407.2623,295.2758,413.6374,285.1093,395.2,280.63" style="stroke:#181818;stroke-width:1.0;"/></g><!--SRC=[bLFBReCm4BpdArQ-D4KA2ZbMj8TMFKJgGshu0Hglm1BO4ZPHeuH_xne7ADGqwWbhPdPsTcq0jkyogIi9yJaC8S6zKH8MOE4FLKi-nIydjWd3QCDWjUgGEv0eilnJrTKW2uXdwp0C63nB8yoHg7sHQjq9JWG0dBH9ZTWtKAPVILvXoZNvRQN13AjVYft1Ke_fKiYthlkqb2fcEVcJS95Q76rOWHPz4Th4Blp3eYLJpdl3fIkw9U512TxnJhzqdn5POQaEECStjiFDP7aHWzTQvvLIfHqTF99WaBZzaSRATa9c1Je8-T- -itf6z-ofwHjTPF6PD3w3_iwzxlClu1wYqNNHScp6HyMF1MhjIHTSIqTZ3gL3hX7iITI-ECgpdkQXEE0wFIcfQtg6sVKb-ml-CuVNOVYrlFvsgkOR]--></g></svg>