<?xml version="1.0" encoding="us-ascii" standalone="no"?><svg xmlns="http://www.w3.org/2000/svg" xmlns:xlink="http://www.w3.org/1999/xlink" contentStyleType="text/css" height="313px" preserveAspectRatio="none" style="width:659px;height:313px;background:#FFFFFF;" version="1.1" viewBox="0 0 659 313" width="659px" zoomAndPan="magnify"><defs/><g><!--class Entity--><g id="elem_Entity"><rect fill="#F1F1F1" height="48" id="Entity" rx="2.5" ry="2.5" style="stroke:#181818;stroke-width:0.5;" width="67" x="274.5" y="7"/><ellipse cx="289.5" cy="23" fill="#ADD1B2" rx="11" ry="11" style="stroke:#181818;stroke-width:1.0;"/><path d="M292.2656,18.875 Q292.4219,18.6563 292.6094,18.5469 Q292.7969,18.4375 293.0156,18.4375 Q293.3906,18.4375 293.625,18.7031 Q293.8594,18.9531 293.8594,19.5625 L293.8594,21.0156 Q293.8594,21.625 293.625,21.8906 Q293.3906,22.1563 293.0156,22.1563 Q292.6719,22.1563 292.4688,21.9531 Q292.2656,21.7656 292.1563,21.25 Q292.1094,20.8906 291.9219,20.7031 Q291.5938,20.3281 290.9844,20.1094 Q290.375,19.8906 289.75,19.8906 Q288.9844,19.8906 288.3438,20.2188 Q287.7188,20.5469 287.2188,21.2969 Q286.7344,22.0469 286.7344,23.0781 L286.7344,24.1719 Q286.7344,25.4063 287.625,26.2344 Q288.5156,27.0469 290.1094,27.0469 Q291.0469,27.0469 291.7031,26.7969 Q292.0938,26.6406 292.5156,26.2031 Q292.7813,25.9375 292.9219,25.8594 Q293.0781,25.7813 293.2813,25.7813 Q293.6094,25.7813 293.8594,26.0469 Q294.125,26.2969 294.125,26.6406 Q294.125,26.9844 293.7813,27.3906 Q293.2813,27.9688 292.4844,28.2969 Q291.4063,28.75 290.1094,28.75 Q288.5938,28.75 287.3906,28.125 Q286.4063,27.625 285.7188,26.5625 Q285.0313,25.4844 285.0313,24.2031 L285.0313,23.0469 Q285.0313,21.7188 285.6406,20.5781 Q286.2656,19.4219 287.3594,18.8125 Q288.4531,18.1875 289.6875,18.1875 Q290.4219,18.1875 291.0625,18.3594 Q291.7188,18.5156 292.2656,18.875 Z " fill="#000000"/><text fill="#000000" font-family="sans-serif" font-size="14" lengthAdjust="spacing" textLength="35" x="303.5" y="28.7285">Entity</text><line style="stroke:#181818;stroke-width:0.5;" x1="275.5" x2="340.5" y1="39" y2="39"/><line style="stroke:#181818;stroke-width:0.5;" x1="275.5" x2="340.5" y1="47" y2="47"/></g><!--class Spore--><g id="elem_Spore"><rect codeLine="4" fill="#F1F1F1" height="83.2188" id="Spore" rx="2.5" ry="2.5" style="stroke:#181818;stroke-width:0.5;" width="119" x="248.5" y="115"/><ellipse cx="285.55" cy="131" fill="#A9DCDF" rx="11" ry="11" style="stroke:#181818;stroke-width:1.0;"/><path d="M287.7375,132.7656 L283.5969,132.7656 L283.175,133.7969 L283.5969,133.7969 Q284.2063,133.7969 284.4719,134.0313 Q284.7375,134.2656 284.7375,134.6563 Q284.7375,135.0313 284.4719,135.2656 Q284.2063,135.5 283.5969,135.5 L281.3,135.5 Q280.6906,135.5 280.4406,135.2656 Q280.175,135.0313 280.175,134.6406 Q280.175,134.2656 280.4563,134.0313 Q280.7219,133.7813 281.3469,133.7969 L284.0188,127.1406 L282.9094,127.1406 Q282.3,127.1406 282.0344,126.9063 Q281.7688,126.6719 281.7688,126.2813 Q281.7688,125.9063 282.0344,125.6719 Q282.3,125.4375 282.9094,125.4375 L286.5813,125.4375 L289.9719,133.7969 Q290.5656,133.7969 290.7531,133.9375 Q291.1438,134.2031 291.1438,134.6563 Q291.1438,135.0313 290.8781,135.2656 Q290.6281,135.5 290.0188,135.5 L287.7219,135.5 Q287.1125,135.5 286.8469,135.2656 Q286.5813,135.0313 286.5813,134.6406 Q286.5813,134.2656 286.8469,134.0313 Q287.1125,133.7969 287.7219,133.7969 L288.1438,133.7969 L287.7375,132.7656 Z M287.0188,131.0625 L285.6594,127.6875 L284.2844,131.0625 L287.0188,131.0625 Z " fill="#000000"/><text fill="#000000" font-family="sans-serif" font-size="14" font-style="italic" lengthAdjust="spacing" textLength="38" x="304.45" y="136.7285">Spore</text><line style="stroke:#181818;stroke-width:0.5;" x1="249.5" x2="366.5" y1="147" y2="147"/><text fill="#000000" font-family="sans-serif" font-size="14" lengthAdjust="spacing" textLength="107" x="254.5" y="165.5332">nutrition : Integer</text><text fill="#000000" font-family="sans-serif" font-size="14" lengthAdjust="spacing" textLength="83" x="254.5" y="183.1426">effect : Effect</text><line style="stroke:#181818;stroke-width:0.5;" x1="249.5" x2="366.5" y1="190.2188" y2="190.2188"/></g><!--class SlowingSpore--><g id="elem_SlowingSpore"><rect codeLine="10" fill="#F1F1F1" height="48" id="SlowingSpore" rx="2.5" ry="2.5" style="stroke:#181818;stroke-width:0.5;" width="118" x="7" y="258"/><ellipse cx="22" cy="274" fill="#ADD1B2" rx="11" ry="11" style="stroke:#181818;stroke-width:1.0;"/><path d="M24.7656,269.875 Q24.9219,269.6563 25.1094,269.5469 Q25.2969,269.4375 25.5156,269.4375 Q25.8906,269.4375 26.125,269.7031 Q26.3594,269.9531 26.3594,270.5625 L26.3594,272.0156 Q26.3594,272.625 26.125,272.8906 Q25.8906,273.1563 25.5156,273.1563 Q25.1719,273.1563 24.9688,272.9531 Q24.7656,272.7656 24.6563,272.25 Q24.6094,271.8906 24.4219,271.7031 Q24.0938,271.3281 23.4844,271.1094 Q22.875,270.8906 22.25,270.8906 Q21.4844,270.8906 20.8438,271.2188 Q20.2188,271.5469 19.7188,272.2969 Q19.2344,273.0469 19.2344,274.0781 L19.2344,275.1719 Q19.2344,276.4063 20.125,277.2344 Q21.0156,278.0469 22.6094,278.0469 Q23.5469,278.0469 24.2031,277.7969 Q24.5938,277.6406 25.0156,277.2031 Q25.2813,276.9375 25.4219,276.8594 Q25.5781,276.7813 25.7813,276.7813 Q26.1094,276.7813 26.3594,277.0469 Q26.625,277.2969 26.625,277.6406 Q26.625,277.9844 26.2813,278.3906 Q25.7813,278.9688 24.9844,279.2969 Q23.9063,279.75 22.6094,279.75 Q21.0938,279.75 19.8906,279.125 Q18.9063,278.625 18.2188,277.5625 Q17.5313,276.4844 17.5313,275.2031 L17.5313,274.0469 Q17.5313,272.7188 18.1406,271.5781 Q18.7656,270.4219 19.8594,269.8125 Q20.9531,269.1875 22.1875,269.1875 Q22.9219,269.1875 23.5625,269.3594 Q24.2188,269.5156 24.7656,269.875 Z " fill="#000000"/><text fill="#000000" font-family="sans-serif" font-size="14" lengthAdjust="spacing" textLength="86" x="36" y="279.7285">SlowingSpore</text><line style="stroke:#181818;stroke-width:0.5;" x1="8" x2="124" y1="290" y2="290"/><line style="stroke:#181818;stroke-width:0.5;" x1="8" x2="124" y1="298" y2="298"/></g><!--class SpeedingSpore--><g id="elem_SpeedingSpore"><rect codeLine="14" fill="#F1F1F1" height="48" id="SpeedingSpore" rx="2.5" ry="2.5" style="stroke:#181818;stroke-width:0.5;" width="130" x="160" y="258"/><ellipse cx="175" cy="274" fill="#ADD1B2" rx="11" ry="11" style="stroke:#181818;stroke-width:1.0;"/><path d="M177.7656,269.875 Q177.9219,269.6563 178.1094,269.5469 Q178.2969,269.4375 178.5156,269.4375 Q178.8906,269.4375 179.125,269.7031 Q179.3594,269.9531 179.3594,270.5625 L179.3594,272.0156 Q179.3594,272.625 179.125,272.8906 Q178.8906,273.1563 178.5156,273.1563 Q178.1719,273.1563 177.9688,272.9531 Q177.7656,272.7656 177.6563,272.25 Q177.6094,271.8906 177.4219,271.7031 Q177.0938,271.3281 176.4844,271.1094 Q175.875,270.8906 175.25,270.8906 Q174.4844,270.8906 173.8438,271.2188 Q173.2188,271.5469 172.7188,272.2969 Q172.2344,273.0469 172.2344,274.0781 L172.2344,275.1719 Q172.2344,276.4063 173.125,277.2344 Q174.0156,278.0469 175.6094,278.0469 Q176.5469,278.0469 177.2031,277.7969 Q177.5938,277.6406 178.0156,277.2031 Q178.2813,276.9375 178.4219,276.8594 Q178.5781,276.7813 178.7813,276.7813 Q179.1094,276.7813 179.3594,277.0469 Q179.625,277.2969 179.625,277.6406 Q179.625,277.9844 179.2813,278.3906 Q178.7813,278.9688 177.9844,279.2969 Q176.9063,279.75 175.6094,279.75 Q174.0938,279.75 172.8906,279.125 Q171.9063,278.625 171.2188,277.5625 Q170.5313,276.4844 170.5313,275.2031 L170.5313,274.0469 Q170.5313,272.7188 171.1406,271.5781 Q171.7656,270.4219 172.8594,269.8125 Q173.9531,269.1875 175.1875,269.1875 Q175.9219,269.1875 176.5625,269.3594 Q177.2188,269.5156 177.7656,269.875 Z " fill="#000000"/><text fill="#000000" font-family="sans-serif" font-size="14" lengthAdjust="spacing" textLength="98" x="189" y="279.7285">SpeedingSpore</text><line style="stroke:#181818;stroke-width:0.5;" x1="161" x2="289" y1="290" y2="290"/><line style="stroke:#181818;stroke-width:0.5;" x1="161" x2="289" y1="298" y2="298"/></g><!--class ParalizingSpore--><g id="elem_ParalizingSpore"><rect codeLine="18" fill="#F1F1F1" height="48" id="ParalizingSpore" rx="2.5" ry="2.5" style="stroke:#181818;stroke-width:0.5;" width="131" x="325.5" y="258"/><ellipse cx="340.5" cy="274" fill="#ADD1B2" rx="11" ry="11" style="stroke:#181818;stroke-width:1.0;"/><path d="M343.2656,269.875 Q343.4219,269.6563 343.6094,269.5469 Q343.7969,269.4375 344.0156,269.4375 Q344.3906,269.4375 344.625,269.7031 Q344.8594,269.9531 344.8594,270.5625 L344.8594,272.0156 Q344.8594,272.625 344.625,272.8906 Q344.3906,273.1563 344.0156,273.1563 Q343.6719,273.1563 343.4688,272.9531 Q343.2656,272.7656 343.1563,272.25 Q343.1094,271.8906 342.9219,271.7031 Q342.5938,271.3281 341.9844,271.1094 Q341.375,270.8906 340.75,270.8906 Q339.9844,270.8906 339.3438,271.2188 Q338.7188,271.5469 338.2188,272.2969 Q337.7344,273.0469 337.7344,274.0781 L337.7344,275.1719 Q337.7344,276.4063 338.625,277.2344 Q339.5156,278.0469 341.1094,278.0469 Q342.0469,278.0469 342.7031,277.7969 Q343.0938,277.6406 343.5156,277.2031 Q343.7813,276.9375 343.9219,276.8594 Q344.0781,276.7813 344.2813,276.7813 Q344.6094,276.7813 344.8594,277.0469 Q345.125,277.2969 345.125,277.6406 Q345.125,277.9844 344.7813,278.3906 Q344.2813,278.9688 343.4844,279.2969 Q342.4063,279.75 341.1094,279.75 Q339.5938,279.75 338.3906,279.125 Q337.4063,278.625 336.7188,277.5625 Q336.0313,276.4844 336.0313,275.2031 L336.0313,274.0469 Q336.0313,272.7188 336.6406,271.5781 Q337.2656,270.4219 338.3594,269.8125 Q339.4531,269.1875 340.6875,269.1875 Q341.4219,269.1875 342.0625,269.3594 Q342.7188,269.5156 343.2656,269.875 Z " fill="#000000"/><text fill="#000000" font-family="sans-serif" font-size="14" lengthAdjust="spacing" textLength="99" x="354.5" y="279.7285">ParalizingSpore</text><line style="stroke:#181818;stroke-width:0.5;" x1="326.5" x2="455.5" y1="290" y2="290"/><line style="stroke:#181818;stroke-width:0.5;" x1="326.5" x2="455.5" y1="298" y2="298"/></g><!--class ClawParalizingSpore--><g id="elem_ClawParalizingSpore"><rect codeLine="22" fill="#F1F1F1" height="48" id="ClawParalizingSpore" rx="2.5" ry="2.5" style="stroke:#181818;stroke-width:0.5;" width="161" x="491.5" y="258"/><ellipse cx="506.5" cy="274" fill="#ADD1B2" rx="11" ry="11" style="stroke:#181818;stroke-width:1.0;"/><path d="M509.2656,269.875 Q509.4219,269.6563 509.6094,269.5469 Q509.7969,269.4375 510.0156,269.4375 Q510.3906,269.4375 510.625,269.7031 Q510.8594,269.9531 510.8594,270.5625 L510.8594,272.0156 Q510.8594,272.625 510.625,272.8906 Q510.3906,273.1563 510.0156,273.1563 Q509.6719,273.1563 509.4688,272.9531 Q509.2656,272.7656 509.1563,272.25 Q509.1094,271.8906 508.9219,271.7031 Q508.5938,271.3281 507.9844,271.1094 Q507.375,270.8906 506.75,270.8906 Q505.9844,270.8906 505.3438,271.2188 Q504.7188,271.5469 504.2188,272.2969 Q503.7344,273.0469 503.7344,274.0781 L503.7344,275.1719 Q503.7344,276.4063 504.625,277.2344 Q505.5156,278.0469 507.1094,278.0469 Q508.0469,278.0469 508.7031,277.7969 Q509.0938,277.6406 509.5156,277.2031 Q509.7813,276.9375 509.9219,276.8594 Q510.0781,276.7813 510.2813,276.7813 Q510.6094,276.7813 510.8594,277.0469 Q511.125,277.2969 511.125,277.6406 Q511.125,277.9844 510.7813,278.3906 Q510.2813,278.9688 509.4844,279.2969 Q508.4063,279.75 507.1094,279.75 Q505.5938,279.75 504.3906,279.125 Q503.4063,278.625 502.7188,277.5625 Q502.0313,276.4844 502.0313,275.2031 L502.0313,274.0469 Q502.0313,272.7188 502.6406,271.5781 Q503.2656,270.4219 504.3594,269.8125 Q505.4531,269.1875 506.6875,269.1875 Q507.4219,269.1875 508.0625,269.3594 Q508.7188,269.5156 509.2656,269.875 Z " fill="#000000"/><text fill="#000000" font-family="sans-serif" font-size="14" lengthAdjust="spacing" textLength="129" x="520.5" y="279.7285">ClawParalizingSpore</text><line style="stroke:#181818;stroke-width:0.5;" x1="492.5" x2="651.5" y1="290" y2="290"/><line style="stroke:#181818;stroke-width:0.5;" x1="492.5" x2="651.5" y1="298" y2="298"/></g><!--reverse link Entity to Spore--><g id="link_Entity_Spore"><path codeLine="2" d="M308,73.23 C308,90 308,95.08 308,114.87 " fill="none" id="Entity-backto-Spore" style="stroke:#181818;stroke-width:1.0;"/><polygon fill="none" points="308,55.23,302,73.23,314,73.23,308,55.23" style="stroke:#181818;stroke-width:1.0;"/></g><!--reverse link Spore to SlowingSpore--><g id="link_Spore_SlowingSpore"><path codeLine="9" d="M232.4574,196.0527 C190.0574,217.6927 149.96,238.15 111.2,257.93 " fill="none" id="Spore-backto-SlowingSpore" style="stroke:#181818;stroke-width:1.0;"/><polygon fill="none" points="248.49,187.87,229.7299,190.7085,235.185,201.3969,248.49,187.87" style="stroke:#181818;stroke-width:1.0;"/></g><!--reverse link Spore to SpeedingSpore--><g id="link_Spore_SpeedingSpore"><path codeLine="13" d="M270.5515,213.2208 C257.2415,233.0308 251.76,241.18 240.52,257.91 " fill="none" id="Spore-backto-SpeedingSpore" style="stroke:#181818;stroke-width:1.0;"/><polygon fill="none" points="280.59,198.28,265.5712,209.8747,275.5318,216.567,280.59,198.28" style="stroke:#181818;stroke-width:1.0;"/></g><!--reverse link Spore to ParalizingSpore--><g id="link_Spore_ParalizingSpore"><path codeLine="17" d="M345.4485,213.2208 C358.7585,233.0308 364.24,241.18 375.48,257.91 " fill="none" id="Spore-backto-ParalizingSpore" style="stroke:#181818;stroke-width:1.0;"/><polygon fill="none" points="335.41,198.28,340.4682,216.567,350.4288,209.8747,335.41,198.28" style="stroke:#181818;stroke-width:1.0;"/></g><!--reverse link Spore to ClawParalizingSpore--><g id="link_Spore_ClawParalizingSpore"><path codeLine="21" d="M383.8844,192.9966 C430.7244,214.9066 478.88,237.44 522.81,257.99 " fill="none" id="Spore-backto-ClawParalizingSpore" style="stroke:#181818;stroke-width:1.0;"/><polygon fill="none" points="367.58,185.37,381.3422,198.4314,386.4266,187.5618,367.58,185.37" style="stroke:#181818;stroke-width:1.0;"/></g><!--SRC=[ROmn2iCm34LtdK8No0L2jvAXMo4dK5Cb28mSR9NGfhbxZTCXY7WoJ-_zJatiZPTlqs0_nyG0zCYMQ30S0kMyqnMmF7rP4fEesE9DZITEbVCuSl5RxEe7De1QrTa-n4LqsiV_amUqEdjcVdhzo9n_fqH1Fgvmr3NNGCjvTt8fxGy0]--></g></svg>