<?xml version="1.0" encoding="us-ascii" standalone="no"?><svg xmlns="http://www.w3.org/2000/svg" xmlns:xlink="http://www.w3.org/1999/xlink" contentStyleType="text/css" height="1005px" preserveAspectRatio="none" style="width:1554px;height:1005px;background:#FFFFFF;" version="1.1" viewBox="0 0 1554 1005" width="1554px" zoomAndPan="magnify"><defs/><g><!--cluster fungorium--><g id="cluster_fungorium"><path d="M8.5,6 L81.5,6 A3.75,3.75 0 0 1 84,8.5 L91,29.6094 L1438.5,29.6094 A2.5,2.5 0 0 1 1441,32.1094 L1441,995.5 A2.5,2.5 0 0 1 1438.5,998 L8.5,998 A2.5,2.5 0 0 1 6,995.5 L6,8.5 A2.5,2.5 0 0 1 8.5,6 " fill="none" style="stroke:#000000;stroke-width:1.5;"/><line style="stroke:#000000;stroke-width:1.5;" x1="6" x2="91" y1="29.6094" y2="29.6094"/><text fill="#000000" font-family="sans-serif" font-size="14" font-weight="bold" lengthAdjust="spacing" textLength="72" x="10" y="22.5332">fungorium</text></g><!--class ITurn--><g id="elem_ITurn"><rect codeLine="2" fill="#F1F1F1" height="65.6094" id="ITurn" rx="2.5" ry="2.5" style="stroke:#181818;stroke-width:0.5;" width="113" x="1064.5" y="42"/><ellipse cx="1100.65" cy="58" fill="#B4A7E5" rx="11" ry="11" style="stroke:#181818;stroke-width:1.0;"/><path d="M1101.6031,54.6406 L1101.6031,61.2969 L1103.3219,61.2969 Q1103.9313,61.2969 1104.1969,61.5313 Q1104.4625,61.7656 1104.4625,62.1563 Q1104.4625,62.5313 1104.1969,62.7656 Q1103.9313,63 1103.3219,63 L1098.1813,63 Q1097.5719,63 1097.3063,62.7656 Q1097.0406,62.5313 1097.0406,62.1406 Q1097.0406,61.7656 1097.3063,61.5313 Q1097.5719,61.2969 1098.1813,61.2969 L1099.9,61.2969 L1099.9,54.6406 L1098.1813,54.6406 Q1097.5719,54.6406 1097.3063,54.4063 Q1097.0406,54.1719 1097.0406,53.7813 Q1097.0406,53.4063 1097.3063,53.1719 Q1097.5719,52.9375 1098.1813,52.9375 L1103.3219,52.9375 Q1103.9313,52.9375 1104.1969,53.1719 Q1104.4625,53.4063 1104.4625,53.7813 Q1104.4625,54.1719 1104.1969,54.4063 Q1103.9313,54.6406 1103.3219,54.6406 L1101.6031,54.6406 Z " fill="#000000"/><text fill="#000000" font-family="sans-serif" font-size="14" font-style="italic" lengthAdjust="spacing" textLength="34" x="1119.35" y="63.7285">ITurn</text><line style="stroke:#181818;stroke-width:0.5;" x1="1065.5" x2="1176.5" y1="74" y2="74"/><line style="stroke:#181818;stroke-width:0.5;" x1="1065.5" x2="1176.5" y1="82" y2="82"/><text fill="#000000" font-family="sans-serif" font-size="14" font-style="italic" lengthAdjust="spacing" textLength="101" x="1070.5" y="100.5332">endTurn() : void</text></g><!--class IRound--><g id="elem_IRound"><rect codeLine="6" fill="#F1F1F1" height="65.6094" id="IRound" rx="2.5" ry="2.5" style="stroke:#181818;stroke-width:0.5;" width="125" x="45.5" y="185.5"/><ellipse cx="81.65" cy="201.5" fill="#B4A7E5" rx="11" ry="11" style="stroke:#181818;stroke-width:1.0;"/><path d="M82.6031,198.1406 L82.6031,204.7969 L84.3219,204.7969 Q84.9313,204.7969 85.1969,205.0313 Q85.4625,205.2656 85.4625,205.6563 Q85.4625,206.0313 85.1969,206.2656 Q84.9313,206.5 84.3219,206.5 L79.1813,206.5 Q78.5719,206.5 78.3063,206.2656 Q78.0406,206.0313 78.0406,205.6406 Q78.0406,205.2656 78.3063,205.0313 Q78.5719,204.7969 79.1813,204.7969 L80.9,204.7969 L80.9,198.1406 L79.1813,198.1406 Q78.5719,198.1406 78.3063,197.9063 Q78.0406,197.6719 78.0406,197.2813 Q78.0406,196.9063 78.3063,196.6719 Q78.5719,196.4375 79.1813,196.4375 L84.3219,196.4375 Q84.9313,196.4375 85.1969,196.6719 Q85.4625,196.9063 85.4625,197.2813 Q85.4625,197.6719 85.1969,197.9063 Q84.9313,198.1406 84.3219,198.1406 L82.6031,198.1406 Z " fill="#000000"/><text fill="#000000" font-family="sans-serif" font-size="14" font-style="italic" lengthAdjust="spacing" textLength="46" x="100.35" y="207.2285">IRound</text><line style="stroke:#181818;stroke-width:0.5;" x1="46.5" x2="169.5" y1="217.5" y2="217.5"/><line style="stroke:#181818;stroke-width:0.5;" x1="46.5" x2="169.5" y1="225.5" y2="225.5"/><text fill="#000000" font-family="sans-serif" font-size="14" font-style="italic" lengthAdjust="spacing" textLength="113" x="51.5" y="244.0332">endRound() : void</text></g><!--class Entity--><g id="elem_Entity"><rect codeLine="10" fill="#F1F1F1" height="83.2188" id="Entity" rx="2.5" ry="2.5" style="stroke:#181818;stroke-width:0.5;" width="117" x="992.5" y="390.5"/><ellipse cx="1030" cy="406.5" fill="#A9DCDF" rx="11" ry="11" style="stroke:#181818;stroke-width:1.0;"/><path d="M1032.1875,408.2656 L1028.0469,408.2656 L1027.625,409.2969 L1028.0469,409.2969 Q1028.6563,409.2969 1028.9219,409.5313 Q1029.1875,409.7656 1029.1875,410.1563 Q1029.1875,410.5313 1028.9219,410.7656 Q1028.6563,411 1028.0469,411 L1025.75,411 Q1025.1406,411 1024.8906,410.7656 Q1024.625,410.5313 1024.625,410.1406 Q1024.625,409.7656 1024.9063,409.5313 Q1025.1719,409.2813 1025.7969,409.2969 L1028.4688,402.6406 L1027.3594,402.6406 Q1026.75,402.6406 1026.4844,402.4063 Q1026.2188,402.1719 1026.2188,401.7813 Q1026.2188,401.4063 1026.4844,401.1719 Q1026.75,400.9375 1027.3594,400.9375 L1031.0313,400.9375 L1034.4219,409.2969 Q1035.0156,409.2969 1035.2031,409.4375 Q1035.5938,409.7031 1035.5938,410.1563 Q1035.5938,410.5313 1035.3281,410.7656 Q1035.0781,411 1034.4688,411 L1032.1719,411 Q1031.5625,411 1031.2969,410.7656 Q1031.0313,410.5313 1031.0313,410.1406 Q1031.0313,409.7656 1031.2969,409.5313 Q1031.5625,409.2969 1032.1719,409.2969 L1032.5938,409.2969 L1032.1875,408.2656 Z M1031.4688,406.5625 L1030.1094,403.1875 L1028.7344,406.5625 L1031.4688,406.5625 Z " fill="#000000"/><text fill="#000000" font-family="sans-serif" font-size="14" font-style="italic" lengthAdjust="spacing" textLength="35" x="1049" y="412.2285">Entity</text><line style="stroke:#181818;stroke-width:0.5;" x1="993.5" x2="1108.5" y1="422.5" y2="422.5"/><text fill="#000000" font-family="sans-serif" font-size="14" font-style="italic" lengthAdjust="spacing" textLength="105" x="998.5" y="441.0332">location : Tecton</text><text fill="#000000" font-family="sans-serif" font-size="14" font-style="italic" lengthAdjust="spacing" textLength="90" x="998.5" y="458.6426">owner : Player</text><line style="stroke:#181818;stroke-width:0.5;" x1="993.5" x2="1108.5" y1="465.7188" y2="465.7188"/></g><!--class Effect--><g id="elem_Effect"><rect codeLine="2" fill="#F1F1F1" height="100.8281" id="Effect" rx="2.5" ry="2.5" style="stroke:#181818;stroke-width:0.5;" width="158" x="1190" y="773"/><ellipse cx="1246.75" cy="789" fill="#A9DCDF" rx="11" ry="11" style="stroke:#181818;stroke-width:1.0;"/><path d="M1248.9375,790.7656 L1244.7969,790.7656 L1244.375,791.7969 L1244.7969,791.7969 Q1245.4063,791.7969 1245.6719,792.0313 Q1245.9375,792.2656 1245.9375,792.6563 Q1245.9375,793.0313 1245.6719,793.2656 Q1245.4063,793.5 1244.7969,793.5 L1242.5,793.5 Q1241.8906,793.5 1241.6406,793.2656 Q1241.375,793.0313 1241.375,792.6406 Q1241.375,792.2656 1241.6563,792.0313 Q1241.9219,791.7813 1242.5469,791.7969 L1245.2188,785.1406 L1244.1094,785.1406 Q1243.5,785.1406 1243.2344,784.9063 Q1242.9688,784.6719 1242.9688,784.2813 Q1242.9688,783.9063 1243.2344,783.6719 Q1243.5,783.4375 1244.1094,783.4375 L1247.7813,783.4375 L1251.1719,791.7969 Q1251.7656,791.7969 1251.9531,791.9375 Q1252.3438,792.2031 1252.3438,792.6563 Q1252.3438,793.0313 1252.0781,793.2656 Q1251.8281,793.5 1251.2188,793.5 L1248.9219,793.5 Q1248.3125,793.5 1248.0469,793.2656 Q1247.7813,793.0313 1247.7813,792.6406 Q1247.7813,792.2656 1248.0469,792.0313 Q1248.3125,791.7969 1248.9219,791.7969 L1249.3438,791.7969 L1248.9375,790.7656 Z M1248.2188,789.0625 L1246.8594,785.6875 L1245.4844,789.0625 L1248.2188,789.0625 Z " fill="#000000"/><text fill="#000000" font-family="sans-serif" font-size="14" font-style="italic" lengthAdjust="spacing" textLength="36" x="1267.25" y="794.7285">Effect</text><line style="stroke:#181818;stroke-width:0.5;" x1="1191" x2="1347" y1="805" y2="805"/><text fill="#000000" font-family="sans-serif" font-size="14" font-style="italic" lengthAdjust="spacing" textLength="109" x="1196" y="823.5332">duration : Integer</text><line style="stroke:#181818;stroke-width:0.5;" x1="1191" x2="1347" y1="830.6094" y2="830.6094"/><text fill="#000000" font-family="sans-serif" font-size="14" font-style="italic" lengthAdjust="spacing" textLength="134" x="1196" y="849.1426">apply(i : Insect) : void</text><text fill="#000000" font-family="sans-serif" font-size="14" font-style="italic" lengthAdjust="spacing" textLength="146" x="1196" y="866.752">remove(i : Insect) : void</text></g><!--class Fast--><g id="elem_Fast"><rect codeLine="8" fill="#F1F1F1" height="48" id="Fast" rx="2.5" ry="2.5" style="stroke:#181818;stroke-width:0.5;" width="60" x="996" y="934"/><ellipse cx="1011" cy="950" fill="#ADD1B2" rx="11" ry="11" style="stroke:#181818;stroke-width:1.0;"/><path d="M1013.7656,945.875 Q1013.9219,945.6563 1014.1094,945.5469 Q1014.2969,945.4375 1014.5156,945.4375 Q1014.8906,945.4375 1015.125,945.7031 Q1015.3594,945.9531 1015.3594,946.5625 L1015.3594,948.0156 Q1015.3594,948.625 1015.125,948.8906 Q1014.8906,949.1563 1014.5156,949.1563 Q1014.1719,949.1563 1013.9688,948.9531 Q1013.7656,948.7656 1013.6563,948.25 Q1013.6094,947.8906 1013.4219,947.7031 Q1013.0938,947.3281 1012.4844,947.1094 Q1011.875,946.8906 1011.25,946.8906 Q1010.4844,946.8906 1009.8438,947.2188 Q1009.2188,947.5469 1008.7188,948.2969 Q1008.2344,949.0469 1008.2344,950.0781 L1008.2344,951.1719 Q1008.2344,952.4063 1009.125,953.2344 Q1010.0156,954.0469 1011.6094,954.0469 Q1012.5469,954.0469 1013.2031,953.7969 Q1013.5938,953.6406 1014.0156,953.2031 Q1014.2813,952.9375 1014.4219,952.8594 Q1014.5781,952.7813 1014.7813,952.7813 Q1015.1094,952.7813 1015.3594,953.0469 Q1015.625,953.2969 1015.625,953.6406 Q1015.625,953.9844 1015.2813,954.3906 Q1014.7813,954.9688 1013.9844,955.2969 Q1012.9063,955.75 1011.6094,955.75 Q1010.0938,955.75 1008.8906,955.125 Q1007.9063,954.625 1007.2188,953.5625 Q1006.5313,952.4844 1006.5313,951.2031 L1006.5313,950.0469 Q1006.5313,948.7188 1007.1406,947.5781 Q1007.7656,946.4219 1008.8594,945.8125 Q1009.9531,945.1875 1011.1875,945.1875 Q1011.9219,945.1875 1012.5625,945.3594 Q1013.2188,945.5156 1013.7656,945.875 Z " fill="#000000"/><text fill="#000000" font-family="sans-serif" font-size="14" lengthAdjust="spacing" textLength="28" x="1025" y="955.7285">Fast</text><line style="stroke:#181818;stroke-width:0.5;" x1="997" x2="1055" y1="966" y2="966"/><line style="stroke:#181818;stroke-width:0.5;" x1="997" x2="1055" y1="974" y2="974"/></g><!--class Slow--><g id="elem_Slow"><rect codeLine="9" fill="#F1F1F1" height="48" id="Slow" rx="2.5" ry="2.5" style="stroke:#181818;stroke-width:0.5;" width="61" x="1091.5" y="934"/><ellipse cx="1106.5" cy="950" fill="#ADD1B2" rx="11" ry="11" style="stroke:#181818;stroke-width:1.0;"/><path d="M1109.2656,945.875 Q1109.4219,945.6563 1109.6094,945.5469 Q1109.7969,945.4375 1110.0156,945.4375 Q1110.3906,945.4375 1110.625,945.7031 Q1110.8594,945.9531 1110.8594,946.5625 L1110.8594,948.0156 Q1110.8594,948.625 1110.625,948.8906 Q1110.3906,949.1563 1110.0156,949.1563 Q1109.6719,949.1563 1109.4688,948.9531 Q1109.2656,948.7656 1109.1563,948.25 Q1109.1094,947.8906 1108.9219,947.7031 Q1108.5938,947.3281 1107.9844,947.1094 Q1107.375,946.8906 1106.75,946.8906 Q1105.9844,946.8906 1105.3438,947.2188 Q1104.7188,947.5469 1104.2188,948.2969 Q1103.7344,949.0469 1103.7344,950.0781 L1103.7344,951.1719 Q1103.7344,952.4063 1104.625,953.2344 Q1105.5156,954.0469 1107.1094,954.0469 Q1108.0469,954.0469 1108.7031,953.7969 Q1109.0938,953.6406 1109.5156,953.2031 Q1109.7813,952.9375 1109.9219,952.8594 Q1110.0781,952.7813 1110.2813,952.7813 Q1110.6094,952.7813 1110.8594,953.0469 Q1111.125,953.2969 1111.125,953.6406 Q1111.125,953.9844 1110.7813,954.3906 Q1110.2813,954.9688 1109.4844,955.2969 Q1108.4063,955.75 1107.1094,955.75 Q1105.5938,955.75 1104.3906,955.125 Q1103.4063,954.625 1102.7188,953.5625 Q1102.0313,952.4844 1102.0313,951.2031 L1102.0313,950.0469 Q1102.0313,948.7188 1102.6406,947.5781 Q1103.2656,946.4219 1104.3594,945.8125 Q1105.4531,945.1875 1106.6875,945.1875 Q1107.4219,945.1875 1108.0625,945.3594 Q1108.7188,945.5156 1109.2656,945.875 Z " fill="#000000"/><text fill="#000000" font-family="sans-serif" font-size="14" lengthAdjust="spacing" textLength="29" x="1120.5" y="955.7285">Slow</text><line style="stroke:#181818;stroke-width:0.5;" x1="1092.5" x2="1151.5" y1="966" y2="966"/><line style="stroke:#181818;stroke-width:0.5;" x1="1092.5" x2="1151.5" y1="974" y2="974"/></g><!--class Paralyze--><g id="elem_Paralyze"><rect codeLine="10" fill="#F1F1F1" height="48" id="Paralyze" rx="2.5" ry="2.5" style="stroke:#181818;stroke-width:0.5;" width="86" x="1188" y="934"/><ellipse cx="1203" cy="950" fill="#ADD1B2" rx="11" ry="11" style="stroke:#181818;stroke-width:1.0;"/><path d="M1205.7656,945.875 Q1205.9219,945.6563 1206.1094,945.5469 Q1206.2969,945.4375 1206.5156,945.4375 Q1206.8906,945.4375 1207.125,945.7031 Q1207.3594,945.9531 1207.3594,946.5625 L1207.3594,948.0156 Q1207.3594,948.625 1207.125,948.8906 Q1206.8906,949.1563 1206.5156,949.1563 Q1206.1719,949.1563 1205.9688,948.9531 Q1205.7656,948.7656 1205.6563,948.25 Q1205.6094,947.8906 1205.4219,947.7031 Q1205.0938,947.3281 1204.4844,947.1094 Q1203.875,946.8906 1203.25,946.8906 Q1202.4844,946.8906 1201.8438,947.2188 Q1201.2188,947.5469 1200.7188,948.2969 Q1200.2344,949.0469 1200.2344,950.0781 L1200.2344,951.1719 Q1200.2344,952.4063 1201.125,953.2344 Q1202.0156,954.0469 1203.6094,954.0469 Q1204.5469,954.0469 1205.2031,953.7969 Q1205.5938,953.6406 1206.0156,953.2031 Q1206.2813,952.9375 1206.4219,952.8594 Q1206.5781,952.7813 1206.7813,952.7813 Q1207.1094,952.7813 1207.3594,953.0469 Q1207.625,953.2969 1207.625,953.6406 Q1207.625,953.9844 1207.2813,954.3906 Q1206.7813,954.9688 1205.9844,955.2969 Q1204.9063,955.75 1203.6094,955.75 Q1202.0938,955.75 1200.8906,955.125 Q1199.9063,954.625 1199.2188,953.5625 Q1198.5313,952.4844 1198.5313,951.2031 L1198.5313,950.0469 Q1198.5313,948.7188 1199.1406,947.5781 Q1199.7656,946.4219 1200.8594,945.8125 Q1201.9531,945.1875 1203.1875,945.1875 Q1203.9219,945.1875 1204.5625,945.3594 Q1205.2188,945.5156 1205.7656,945.875 Z " fill="#000000"/><text fill="#000000" font-family="sans-serif" font-size="14" lengthAdjust="spacing" textLength="54" x="1217" y="955.7285">Paralyze</text><line style="stroke:#181818;stroke-width:0.5;" x1="1189" x2="1273" y1="966" y2="966"/><line style="stroke:#181818;stroke-width:0.5;" x1="1189" x2="1273" y1="974" y2="974"/></g><!--class ClawParalyze--><g id="elem_ClawParalyze"><rect codeLine="11" fill="#F1F1F1" height="48" id="ClawParalyze" rx="2.5" ry="2.5" style="stroke:#181818;stroke-width:0.5;" width="116" x="1309" y="934"/><ellipse cx="1324" cy="950" fill="#ADD1B2" rx="11" ry="11" style="stroke:#181818;stroke-width:1.0;"/><path d="M1326.7656,945.875 Q1326.9219,945.6563 1327.1094,945.5469 Q1327.2969,945.4375 1327.5156,945.4375 Q1327.8906,945.4375 1328.125,945.7031 Q1328.3594,945.9531 1328.3594,946.5625 L1328.3594,948.0156 Q1328.3594,948.625 1328.125,948.8906 Q1327.8906,949.1563 1327.5156,949.1563 Q1327.1719,949.1563 1326.9688,948.9531 Q1326.7656,948.7656 1326.6563,948.25 Q1326.6094,947.8906 1326.4219,947.7031 Q1326.0938,947.3281 1325.4844,947.1094 Q1324.875,946.8906 1324.25,946.8906 Q1323.4844,946.8906 1322.8438,947.2188 Q1322.2188,947.5469 1321.7188,948.2969 Q1321.2344,949.0469 1321.2344,950.0781 L1321.2344,951.1719 Q1321.2344,952.4063 1322.125,953.2344 Q1323.0156,954.0469 1324.6094,954.0469 Q1325.5469,954.0469 1326.2031,953.7969 Q1326.5938,953.6406 1327.0156,953.2031 Q1327.2813,952.9375 1327.4219,952.8594 Q1327.5781,952.7813 1327.7813,952.7813 Q1328.1094,952.7813 1328.3594,953.0469 Q1328.625,953.2969 1328.625,953.6406 Q1328.625,953.9844 1328.2813,954.3906 Q1327.7813,954.9688 1326.9844,955.2969 Q1325.9063,955.75 1324.6094,955.75 Q1323.0938,955.75 1321.8906,955.125 Q1320.9063,954.625 1320.2188,953.5625 Q1319.5313,952.4844 1319.5313,951.2031 L1319.5313,950.0469 Q1319.5313,948.7188 1320.1406,947.5781 Q1320.7656,946.4219 1321.8594,945.8125 Q1322.9531,945.1875 1324.1875,945.1875 Q1324.9219,945.1875 1325.5625,945.3594 Q1326.2188,945.5156 1326.7656,945.875 Z " fill="#000000"/><text fill="#000000" font-family="sans-serif" font-size="14" lengthAdjust="spacing" textLength="84" x="1338" y="955.7285">ClawParalyze</text><line style="stroke:#181818;stroke-width:0.5;" x1="1310" x2="1424" y1="966" y2="966"/><line style="stroke:#181818;stroke-width:0.5;" x1="1310" x2="1424" y1="974" y2="974"/></g><!--class IInsect--><g id="elem_IInsect"><rect codeLine="2" fill="#F1F1F1" height="100.8281" id="IInsect" rx="2.5" ry="2.5" style="stroke:#181818;stroke-width:0.5;" width="179" x="1208.5" y="168"/><ellipse cx="1272.75" cy="184" fill="#B4A7E5" rx="11" ry="11" style="stroke:#181818;stroke-width:1.0;"/><path d="M1273.7031,180.6406 L1273.7031,187.2969 L1275.4219,187.2969 Q1276.0313,187.2969 1276.2969,187.5313 Q1276.5625,187.7656 1276.5625,188.1563 Q1276.5625,188.5313 1276.2969,188.7656 Q1276.0313,189 1275.4219,189 L1270.2813,189 Q1269.6719,189 1269.4063,188.7656 Q1269.1406,188.5313 1269.1406,188.1406 Q1269.1406,187.7656 1269.4063,187.5313 Q1269.6719,187.2969 1270.2813,187.2969 L1272,187.2969 L1272,180.6406 L1270.2813,180.6406 Q1269.6719,180.6406 1269.4063,180.4063 Q1269.1406,180.1719 1269.1406,179.7813 Q1269.1406,179.4063 1269.4063,179.1719 Q1269.6719,178.9375 1270.2813,178.9375 L1275.4219,178.9375 Q1276.0313,178.9375 1276.2969,179.1719 Q1276.5625,179.4063 1276.5625,179.7813 Q1276.5625,180.1719 1276.2969,180.4063 Q1276.0313,180.6406 1275.4219,180.6406 L1273.7031,180.6406 Z " fill="#000000"/><text fill="#000000" font-family="sans-serif" font-size="14" font-style="italic" lengthAdjust="spacing" textLength="42" x="1293.25" y="189.7285">IInsect</text><line style="stroke:#181818;stroke-width:0.5;" x1="1209.5" x2="1386.5" y1="200" y2="200"/><line style="stroke:#181818;stroke-width:0.5;" x1="1209.5" x2="1386.5" y1="208" y2="208"/><text fill="#000000" font-family="sans-serif" font-size="14" font-style="italic" lengthAdjust="spacing" textLength="159" x="1214.5" y="226.5332">eat(sp : Spore) : Boolean</text><text fill="#000000" font-family="sans-serif" font-size="14" font-style="italic" lengthAdjust="spacing" textLength="167" x="1214.5" y="244.1426">move(t : Tecton) : Boolean</text><text fill="#000000" font-family="sans-serif" font-size="14" font-style="italic" lengthAdjust="spacing" textLength="163" x="1214.5" y="261.752">cut(th : Thread) : Boolean</text></g><!--class Insect--><g id="elem_Insect"><rect codeLine="9" fill="#F1F1F1" height="118.4375" id="Insect" rx="2.5" ry="2.5" style="stroke:#181818;stroke-width:0.5;" width="161" x="1226.5" y="595"/><ellipse cx="1284.25" cy="611" fill="#ADD1B2" rx="11" ry="11" style="stroke:#181818;stroke-width:1.0;"/><path d="M1287.0156,606.875 Q1287.1719,606.6563 1287.3594,606.5469 Q1287.5469,606.4375 1287.7656,606.4375 Q1288.1406,606.4375 1288.375,606.7031 Q1288.6094,606.9531 1288.6094,607.5625 L1288.6094,609.0156 Q1288.6094,609.625 1288.375,609.8906 Q1288.1406,610.1563 1287.7656,610.1563 Q1287.4219,610.1563 1287.2188,609.9531 Q1287.0156,609.7656 1286.9063,609.25 Q1286.8594,608.8906 1286.6719,608.7031 Q1286.3438,608.3281 1285.7344,608.1094 Q1285.125,607.8906 1284.5,607.8906 Q1283.7344,607.8906 1283.0938,608.2188 Q1282.4688,608.5469 1281.9688,609.2969 Q1281.4844,610.0469 1281.4844,611.0781 L1281.4844,612.1719 Q1281.4844,613.4063 1282.375,614.2344 Q1283.2656,615.0469 1284.8594,615.0469 Q1285.7969,615.0469 1286.4531,614.7969 Q1286.8438,614.6406 1287.2656,614.2031 Q1287.5313,613.9375 1287.6719,613.8594 Q1287.8281,613.7813 1288.0313,613.7813 Q1288.3594,613.7813 1288.6094,614.0469 Q1288.875,614.2969 1288.875,614.6406 Q1288.875,614.9844 1288.5313,615.3906 Q1288.0313,615.9688 1287.2344,616.2969 Q1286.1563,616.75 1284.8594,616.75 Q1283.3438,616.75 1282.1406,616.125 Q1281.1563,615.625 1280.4688,614.5625 Q1279.7813,613.4844 1279.7813,612.2031 L1279.7813,611.0469 Q1279.7813,609.7188 1280.3906,608.5781 Q1281.0156,607.4219 1282.1094,606.8125 Q1283.2031,606.1875 1284.4375,606.1875 Q1285.1719,606.1875 1285.8125,606.3594 Q1286.4688,606.5156 1287.0156,606.875 Z " fill="#000000"/><text fill="#000000" font-family="sans-serif" font-size="14" lengthAdjust="spacing" textLength="37" x="1304.75" y="616.7285">Insect</text><line style="stroke:#181818;stroke-width:0.5;" x1="1227.5" x2="1386.5" y1="627" y2="627"/><text fill="#000000" font-family="sans-serif" font-size="14" lengthAdjust="spacing" textLength="128" x="1232.5" y="645.5332">effects : List&lt;Effect&gt;</text><text fill="#000000" font-family="sans-serif" font-size="14" lengthAdjust="spacing" textLength="149" x="1232.5" y="663.1426">clawParalized : Boolean</text><text fill="#000000" font-family="sans-serif" font-size="14" lengthAdjust="spacing" textLength="128" x="1232.5" y="680.752">baseSpeed : Integer</text><text fill="#000000" font-family="sans-serif" font-size="14" lengthAdjust="spacing" textLength="145" x="1232.5" y="698.3613">speedModifier : Integer</text><line style="stroke:#181818;stroke-width:0.5;" x1="1227.5" x2="1386.5" y1="705.4375" y2="705.4375"/></g><!--class ISpore--><g id="elem_ISpore"><rect codeLine="2" fill="#F1F1F1" height="83.2188" id="ISpore" rx="2.5" ry="2.5" style="stroke:#181818;stroke-width:0.5;" width="197" x="799.5" y="177"/><ellipse cx="872.75" cy="193" fill="#B4A7E5" rx="11" ry="11" style="stroke:#181818;stroke-width:1.0;"/><path d="M873.7031,189.6406 L873.7031,196.2969 L875.4219,196.2969 Q876.0313,196.2969 876.2969,196.5313 Q876.5625,196.7656 876.5625,197.1563 Q876.5625,197.5313 876.2969,197.7656 Q876.0313,198 875.4219,198 L870.2813,198 Q869.6719,198 869.4063,197.7656 Q869.1406,197.5313 869.1406,197.1406 Q869.1406,196.7656 869.4063,196.5313 Q869.6719,196.2969 870.2813,196.2969 L872,196.2969 L872,189.6406 L870.2813,189.6406 Q869.6719,189.6406 869.4063,189.4063 Q869.1406,189.1719 869.1406,188.7813 Q869.1406,188.4063 869.4063,188.1719 Q869.6719,187.9375 870.2813,187.9375 L875.4219,187.9375 Q876.0313,187.9375 876.2969,188.1719 Q876.5625,188.4063 876.5625,188.7813 Q876.5625,189.1719 876.2969,189.4063 Q876.0313,189.6406 875.4219,189.6406 L873.7031,189.6406 Z " fill="#000000"/><text fill="#000000" font-family="sans-serif" font-size="14" font-style="italic" lengthAdjust="spacing" textLength="42" x="893.25" y="198.7285">ISpore</text><line style="stroke:#181818;stroke-width:0.5;" x1="800.5" x2="995.5" y1="209" y2="209"/><line style="stroke:#181818;stroke-width:0.5;" x1="800.5" x2="995.5" y1="217" y2="217"/><text fill="#000000" font-family="sans-serif" font-size="14" font-style="italic" lengthAdjust="spacing" textLength="163" x="805.5" y="235.5332">add(sp : Spore) : Boolean</text><text fill="#000000" font-family="sans-serif" font-size="14" font-style="italic" lengthAdjust="spacing" textLength="185" x="805.5" y="253.1426">remove(sp : Spore) : Boolean</text></g><!--class Spore--><g id="elem_Spore"><rect codeLine="7" fill="#F1F1F1" height="100.8281" id="Spore" rx="2.5" ry="2.5" style="stroke:#181818;stroke-width:0.5;" width="126" x="612" y="773"/><ellipse cx="652.2" cy="789" fill="#A9DCDF" rx="11" ry="11" style="stroke:#181818;stroke-width:1.0;"/><path d="M654.3875,790.7656 L650.2469,790.7656 L649.825,791.7969 L650.2469,791.7969 Q650.8563,791.7969 651.1219,792.0313 Q651.3875,792.2656 651.3875,792.6563 Q651.3875,793.0313 651.1219,793.2656 Q650.8563,793.5 650.2469,793.5 L647.95,793.5 Q647.3406,793.5 647.0906,793.2656 Q646.825,793.0313 646.825,792.6406 Q646.825,792.2656 647.1063,792.0313 Q647.3719,791.7813 647.9969,791.7969 L650.6688,785.1406 L649.5594,785.1406 Q648.95,785.1406 648.6844,784.9063 Q648.4188,784.6719 648.4188,784.2813 Q648.4188,783.9063 648.6844,783.6719 Q648.95,783.4375 649.5594,783.4375 L653.2313,783.4375 L656.6219,791.7969 Q657.2156,791.7969 657.4031,791.9375 Q657.7938,792.2031 657.7938,792.6563 Q657.7938,793.0313 657.5281,793.2656 Q657.2781,793.5 656.6688,793.5 L654.3719,793.5 Q653.7625,793.5 653.4969,793.2656 Q653.2313,793.0313 653.2313,792.6406 Q653.2313,792.2656 653.4969,792.0313 Q653.7625,791.7969 654.3719,791.7969 L654.7938,791.7969 L654.3875,790.7656 Z M653.6688,789.0625 L652.3094,785.6875 L650.9344,789.0625 L653.6688,789.0625 Z " fill="#000000"/><text fill="#000000" font-family="sans-serif" font-size="14" font-style="italic" lengthAdjust="spacing" textLength="38" x="671.8" y="794.7285">Spore</text><line style="stroke:#181818;stroke-width:0.5;" x1="613" x2="737" y1="805" y2="805"/><text fill="#000000" font-family="sans-serif" font-size="14" font-style="italic" lengthAdjust="spacing" textLength="108" x="618" y="823.5332">nutrition : Integer</text><text fill="#000000" font-family="sans-serif" font-size="14" font-style="italic" lengthAdjust="spacing" textLength="83" x="618" y="841.1426">effect : Effect</text><line style="stroke:#181818;stroke-width:0.5;" x1="613" x2="737" y1="848.2188" y2="848.2188"/><text fill="#000000" font-family="sans-serif" font-size="14" font-style="italic" lengthAdjust="spacing" textLength="114" x="618" y="866.752">getEffect() : Effect</text></g><!--class SpeedingSpore--><g id="elem_SpeedingSpore"><rect codeLine="13" fill="#F1F1F1" height="48" id="SpeedingSpore" rx="2.5" ry="2.5" style="stroke:#181818;stroke-width:0.5;" width="130" x="301" y="934"/><ellipse cx="316" cy="950" fill="#ADD1B2" rx="11" ry="11" style="stroke:#181818;stroke-width:1.0;"/><path d="M318.7656,945.875 Q318.9219,945.6563 319.1094,945.5469 Q319.2969,945.4375 319.5156,945.4375 Q319.8906,945.4375 320.125,945.7031 Q320.3594,945.9531 320.3594,946.5625 L320.3594,948.0156 Q320.3594,948.625 320.125,948.8906 Q319.8906,949.1563 319.5156,949.1563 Q319.1719,949.1563 318.9688,948.9531 Q318.7656,948.7656 318.6563,948.25 Q318.6094,947.8906 318.4219,947.7031 Q318.0938,947.3281 317.4844,947.1094 Q316.875,946.8906 316.25,946.8906 Q315.4844,946.8906 314.8438,947.2188 Q314.2188,947.5469 313.7188,948.2969 Q313.2344,949.0469 313.2344,950.0781 L313.2344,951.1719 Q313.2344,952.4063 314.125,953.2344 Q315.0156,954.0469 316.6094,954.0469 Q317.5469,954.0469 318.2031,953.7969 Q318.5938,953.6406 319.0156,953.2031 Q319.2813,952.9375 319.4219,952.8594 Q319.5781,952.7813 319.7813,952.7813 Q320.1094,952.7813 320.3594,953.0469 Q320.625,953.2969 320.625,953.6406 Q320.625,953.9844 320.2813,954.3906 Q319.7813,954.9688 318.9844,955.2969 Q317.9063,955.75 316.6094,955.75 Q315.0938,955.75 313.8906,955.125 Q312.9063,954.625 312.2188,953.5625 Q311.5313,952.4844 311.5313,951.2031 L311.5313,950.0469 Q311.5313,948.7188 312.1406,947.5781 Q312.7656,946.4219 313.8594,945.8125 Q314.9531,945.1875 316.1875,945.1875 Q316.9219,945.1875 317.5625,945.3594 Q318.2188,945.5156 318.7656,945.875 Z " fill="#000000"/><text fill="#000000" font-family="sans-serif" font-size="14" lengthAdjust="spacing" textLength="98" x="330" y="955.7285">SpeedingSpore</text><line style="stroke:#181818;stroke-width:0.5;" x1="302" x2="430" y1="966" y2="966"/><line style="stroke:#181818;stroke-width:0.5;" x1="302" x2="430" y1="974" y2="974"/></g><!--class SlowingSpore--><g id="elem_SlowingSpore"><rect codeLine="14" fill="#F1F1F1" height="48" id="SlowingSpore" rx="2.5" ry="2.5" style="stroke:#181818;stroke-width:0.5;" width="118" x="466" y="934"/><ellipse cx="481" cy="950" fill="#ADD1B2" rx="11" ry="11" style="stroke:#181818;stroke-width:1.0;"/><path d="M483.7656,945.875 Q483.9219,945.6563 484.1094,945.5469 Q484.2969,945.4375 484.5156,945.4375 Q484.8906,945.4375 485.125,945.7031 Q485.3594,945.9531 485.3594,946.5625 L485.3594,948.0156 Q485.3594,948.625 485.125,948.8906 Q484.8906,949.1563 484.5156,949.1563 Q484.1719,949.1563 483.9688,948.9531 Q483.7656,948.7656 483.6563,948.25 Q483.6094,947.8906 483.4219,947.7031 Q483.0938,947.3281 482.4844,947.1094 Q481.875,946.8906 481.25,946.8906 Q480.4844,946.8906 479.8438,947.2188 Q479.2188,947.5469 478.7188,948.2969 Q478.2344,949.0469 478.2344,950.0781 L478.2344,951.1719 Q478.2344,952.4063 479.125,953.2344 Q480.0156,954.0469 481.6094,954.0469 Q482.5469,954.0469 483.2031,953.7969 Q483.5938,953.6406 484.0156,953.2031 Q484.2813,952.9375 484.4219,952.8594 Q484.5781,952.7813 484.7813,952.7813 Q485.1094,952.7813 485.3594,953.0469 Q485.625,953.2969 485.625,953.6406 Q485.625,953.9844 485.2813,954.3906 Q484.7813,954.9688 483.9844,955.2969 Q482.9063,955.75 481.6094,955.75 Q480.0938,955.75 478.8906,955.125 Q477.9063,954.625 477.2188,953.5625 Q476.5313,952.4844 476.5313,951.2031 L476.5313,950.0469 Q476.5313,948.7188 477.1406,947.5781 Q477.7656,946.4219 478.8594,945.8125 Q479.9531,945.1875 481.1875,945.1875 Q481.9219,945.1875 482.5625,945.3594 Q483.2188,945.5156 483.7656,945.875 Z " fill="#000000"/><text fill="#000000" font-family="sans-serif" font-size="14" lengthAdjust="spacing" textLength="86" x="495" y="955.7285">SlowingSpore</text><line style="stroke:#181818;stroke-width:0.5;" x1="467" x2="583" y1="966" y2="966"/><line style="stroke:#181818;stroke-width:0.5;" x1="467" x2="583" y1="974" y2="974"/></g><!--class ParalyzingSpore--><g id="elem_ParalyzingSpore"><rect codeLine="15" fill="#F1F1F1" height="48" id="ParalyzingSpore" rx="2.5" ry="2.5" style="stroke:#181818;stroke-width:0.5;" width="135" x="619.5" y="934"/><ellipse cx="634.5" cy="950" fill="#ADD1B2" rx="11" ry="11" style="stroke:#181818;stroke-width:1.0;"/><path d="M637.2656,945.875 Q637.4219,945.6563 637.6094,945.5469 Q637.7969,945.4375 638.0156,945.4375 Q638.3906,945.4375 638.625,945.7031 Q638.8594,945.9531 638.8594,946.5625 L638.8594,948.0156 Q638.8594,948.625 638.625,948.8906 Q638.3906,949.1563 638.0156,949.1563 Q637.6719,949.1563 637.4688,948.9531 Q637.2656,948.7656 637.1563,948.25 Q637.1094,947.8906 636.9219,947.7031 Q636.5938,947.3281 635.9844,947.1094 Q635.375,946.8906 634.75,946.8906 Q633.9844,946.8906 633.3438,947.2188 Q632.7188,947.5469 632.2188,948.2969 Q631.7344,949.0469 631.7344,950.0781 L631.7344,951.1719 Q631.7344,952.4063 632.625,953.2344 Q633.5156,954.0469 635.1094,954.0469 Q636.0469,954.0469 636.7031,953.7969 Q637.0938,953.6406 637.5156,953.2031 Q637.7813,952.9375 637.9219,952.8594 Q638.0781,952.7813 638.2813,952.7813 Q638.6094,952.7813 638.8594,953.0469 Q639.125,953.2969 639.125,953.6406 Q639.125,953.9844 638.7813,954.3906 Q638.2813,954.9688 637.4844,955.2969 Q636.4063,955.75 635.1094,955.75 Q633.5938,955.75 632.3906,955.125 Q631.4063,954.625 630.7188,953.5625 Q630.0313,952.4844 630.0313,951.2031 L630.0313,950.0469 Q630.0313,948.7188 630.6406,947.5781 Q631.2656,946.4219 632.3594,945.8125 Q633.4531,945.1875 634.6875,945.1875 Q635.4219,945.1875 636.0625,945.3594 Q636.7188,945.5156 637.2656,945.875 Z " fill="#000000"/><text fill="#000000" font-family="sans-serif" font-size="14" lengthAdjust="spacing" textLength="103" x="648.5" y="955.7285">ParalyzingSpore</text><line style="stroke:#181818;stroke-width:0.5;" x1="620.5" x2="753.5" y1="966" y2="966"/><line style="stroke:#181818;stroke-width:0.5;" x1="620.5" x2="753.5" y1="974" y2="974"/></g><!--class ClawParalyzingSpore--><g id="elem_ClawParalyzingSpore"><rect codeLine="16" fill="#F1F1F1" height="48" id="ClawParalyzingSpore" rx="2.5" ry="2.5" style="stroke:#181818;stroke-width:0.5;" width="165" x="789.5" y="934"/><ellipse cx="804.5" cy="950" fill="#ADD1B2" rx="11" ry="11" style="stroke:#181818;stroke-width:1.0;"/><path d="M807.2656,945.875 Q807.4219,945.6563 807.6094,945.5469 Q807.7969,945.4375 808.0156,945.4375 Q808.3906,945.4375 808.625,945.7031 Q808.8594,945.9531 808.8594,946.5625 L808.8594,948.0156 Q808.8594,948.625 808.625,948.8906 Q808.3906,949.1563 808.0156,949.1563 Q807.6719,949.1563 807.4688,948.9531 Q807.2656,948.7656 807.1563,948.25 Q807.1094,947.8906 806.9219,947.7031 Q806.5938,947.3281 805.9844,947.1094 Q805.375,946.8906 804.75,946.8906 Q803.9844,946.8906 803.3438,947.2188 Q802.7188,947.5469 802.2188,948.2969 Q801.7344,949.0469 801.7344,950.0781 L801.7344,951.1719 Q801.7344,952.4063 802.625,953.2344 Q803.5156,954.0469 805.1094,954.0469 Q806.0469,954.0469 806.7031,953.7969 Q807.0938,953.6406 807.5156,953.2031 Q807.7813,952.9375 807.9219,952.8594 Q808.0781,952.7813 808.2813,952.7813 Q808.6094,952.7813 808.8594,953.0469 Q809.125,953.2969 809.125,953.6406 Q809.125,953.9844 808.7813,954.3906 Q808.2813,954.9688 807.4844,955.2969 Q806.4063,955.75 805.1094,955.75 Q803.5938,955.75 802.3906,955.125 Q801.4063,954.625 800.7188,953.5625 Q800.0313,952.4844 800.0313,951.2031 L800.0313,950.0469 Q800.0313,948.7188 800.6406,947.5781 Q801.2656,946.4219 802.3594,945.8125 Q803.4531,945.1875 804.6875,945.1875 Q805.4219,945.1875 806.0625,945.3594 Q806.7188,945.5156 807.2656,945.875 Z " fill="#000000"/><text fill="#000000" font-family="sans-serif" font-size="14" lengthAdjust="spacing" textLength="133" x="818.5" y="955.7285">ClawParalyzingSpore</text><line style="stroke:#181818;stroke-width:0.5;" x1="790.5" x2="953.5" y1="966" y2="966"/><line style="stroke:#181818;stroke-width:0.5;" x1="790.5" x2="953.5" y1="974" y2="974"/></g><!--class IStem--><g id="elem_IStem"><rect codeLine="2" fill="#F1F1F1" height="100.8281" id="IStem" rx="2.5" ry="2.5" style="stroke:#181818;stroke-width:0.5;" width="259" x="205.5" y="168"/><ellipse cx="312.75" cy="184" fill="#B4A7E5" rx="11" ry="11" style="stroke:#181818;stroke-width:1.0;"/><path d="M313.7031,180.6406 L313.7031,187.2969 L315.4219,187.2969 Q316.0313,187.2969 316.2969,187.5313 Q316.5625,187.7656 316.5625,188.1563 Q316.5625,188.5313 316.2969,188.7656 Q316.0313,189 315.4219,189 L310.2813,189 Q309.6719,189 309.4063,188.7656 Q309.1406,188.5313 309.1406,188.1406 Q309.1406,187.7656 309.4063,187.5313 Q309.6719,187.2969 310.2813,187.2969 L312,187.2969 L312,180.6406 L310.2813,180.6406 Q309.6719,180.6406 309.4063,180.4063 Q309.1406,180.1719 309.1406,179.7813 Q309.1406,179.4063 309.4063,179.1719 Q309.6719,178.9375 310.2813,178.9375 L315.4219,178.9375 Q316.0313,178.9375 316.2969,179.1719 Q316.5625,179.4063 316.5625,179.7813 Q316.5625,180.1719 316.2969,180.4063 Q316.0313,180.6406 315.4219,180.6406 L313.7031,180.6406 Z " fill="#000000"/><text fill="#000000" font-family="sans-serif" font-size="14" font-style="italic" lengthAdjust="spacing" textLength="36" x="333.25" y="189.7285">IStem</text><line style="stroke:#181818;stroke-width:0.5;" x1="206.5" x2="463.5" y1="200" y2="200"/><line style="stroke:#181818;stroke-width:0.5;" x1="206.5" x2="463.5" y1="208" y2="208"/><text fill="#000000" font-family="sans-serif" font-size="14" font-style="italic" lengthAdjust="spacing" textLength="221" x="211.5" y="226.5332">add(ms: Mushroomstem) : Boolean</text><text fill="#000000" font-family="sans-serif" font-size="14" font-style="italic" lengthAdjust="spacing" textLength="247" x="211.5" y="244.1426">remove(ms : Mushroomstem) : Boolean</text><text fill="#000000" font-family="sans-serif" font-size="14" font-style="italic" lengthAdjust="spacing" textLength="120" x="211.5" y="261.752">levelUp() : Boolean</text></g><!--class MushroomStem--><g id="elem_MushroomStem"><rect codeLine="9" fill="#F1F1F1" height="118.4375" id="MushroomStem" rx="2.5" ry="2.5" style="stroke:#181818;stroke-width:0.5;" width="206" x="948" y="595"/><ellipse cx="997.75" cy="611" fill="#ADD1B2" rx="11" ry="11" style="stroke:#181818;stroke-width:1.0;"/><path d="M1000.5156,606.875 Q1000.6719,606.6563 1000.8594,606.5469 Q1001.0469,606.4375 1001.2656,606.4375 Q1001.6406,606.4375 1001.875,606.7031 Q1002.1094,606.9531 1002.1094,607.5625 L1002.1094,609.0156 Q1002.1094,609.625 1001.875,609.8906 Q1001.6406,610.1563 1001.2656,610.1563 Q1000.9219,610.1563 1000.7188,609.9531 Q1000.5156,609.7656 1000.4063,609.25 Q1000.3594,608.8906 1000.1719,608.7031 Q999.8438,608.3281 999.2344,608.1094 Q998.625,607.8906 998,607.8906 Q997.2344,607.8906 996.5938,608.2188 Q995.9688,608.5469 995.4688,609.2969 Q994.9844,610.0469 994.9844,611.0781 L994.9844,612.1719 Q994.9844,613.4063 995.875,614.2344 Q996.7656,615.0469 998.3594,615.0469 Q999.2969,615.0469 999.9531,614.7969 Q1000.3438,614.6406 1000.7656,614.2031 Q1001.0313,613.9375 1001.1719,613.8594 Q1001.3281,613.7813 1001.5313,613.7813 Q1001.8594,613.7813 1002.1094,614.0469 Q1002.375,614.2969 1002.375,614.6406 Q1002.375,614.9844 1002.0313,615.3906 Q1001.5313,615.9688 1000.7344,616.2969 Q999.6563,616.75 998.3594,616.75 Q996.8438,616.75 995.6406,616.125 Q994.6563,615.625 993.9688,614.5625 Q993.2813,613.4844 993.2813,612.2031 L993.2813,611.0469 Q993.2813,609.7188 993.8906,608.5781 Q994.5156,607.4219 995.6094,606.8125 Q996.7031,606.1875 997.9375,606.1875 Q998.6719,606.1875 999.3125,606.3594 Q999.9688,606.5156 1000.5156,606.875 Z " fill="#000000"/><text fill="#000000" font-family="sans-serif" font-size="14" lengthAdjust="spacing" textLength="98" x="1018.25" y="616.7285">MushroomStem</text><line style="stroke:#181818;stroke-width:0.5;" x1="949" x2="1153" y1="627" y2="627"/><text fill="#000000" font-family="sans-serif" font-size="14" lengthAdjust="spacing" textLength="165" x="954" y="645.5332">maxSporeThrows : Integer</text><text fill="#000000" font-family="sans-serif" font-size="14" lengthAdjust="spacing" textLength="175" x="954" y="663.1426">numThrownSpores : Integer</text><text fill="#000000" font-family="sans-serif" font-size="14" lengthAdjust="spacing" textLength="194" x="954" y="680.752">throwableSpores : List&lt;Spore&gt;</text><text fill="#000000" font-family="sans-serif" font-size="14" lengthAdjust="spacing" textLength="85" x="954" y="698.3613">level : Integer</text><line style="stroke:#181818;stroke-width:0.5;" x1="949" x2="1153" y1="705.4375" y2="705.4375"/></g><!--class IThread--><g id="elem_IThread"><rect codeLine="2" fill="#F1F1F1" height="83.2188" id="IThread" rx="2.5" ry="2.5" style="stroke:#181818;stroke-width:0.5;" width="264" x="500" y="177"/><ellipse cx="602.75" cy="193" fill="#B4A7E5" rx="11" ry="11" style="stroke:#181818;stroke-width:1.0;"/><path d="M603.7031,189.6406 L603.7031,196.2969 L605.4219,196.2969 Q606.0313,196.2969 606.2969,196.5313 Q606.5625,196.7656 606.5625,197.1563 Q606.5625,197.5313 606.2969,197.7656 Q606.0313,198 605.4219,198 L600.2813,198 Q599.6719,198 599.4063,197.7656 Q599.1406,197.5313 599.1406,197.1406 Q599.1406,196.7656 599.4063,196.5313 Q599.6719,196.2969 600.2813,196.2969 L602,196.2969 L602,189.6406 L600.2813,189.6406 Q599.6719,189.6406 599.4063,189.4063 Q599.1406,189.1719 599.1406,188.7813 Q599.1406,188.4063 599.4063,188.1719 Q599.6719,187.9375 600.2813,187.9375 L605.4219,187.9375 Q606.0313,187.9375 606.2969,188.1719 Q606.5625,188.4063 606.5625,188.7813 Q606.5625,189.1719 606.2969,189.4063 Q606.0313,189.6406 605.4219,189.6406 L603.7031,189.6406 Z " fill="#000000"/><text fill="#000000" font-family="sans-serif" font-size="14" font-style="italic" lengthAdjust="spacing" textLength="50" x="623.25" y="198.7285">IThread</text><line style="stroke:#181818;stroke-width:0.5;" x1="501" x2="763" y1="209" y2="209"/><line style="stroke:#181818;stroke-width:0.5;" x1="501" x2="763" y1="217" y2="217"/><text fill="#000000" font-family="sans-serif" font-size="14" font-style="italic" lengthAdjust="spacing" textLength="230" x="506" y="235.5332">add(th : Mushroomthread) : Boolean</text><text fill="#000000" font-family="sans-serif" font-size="14" font-style="italic" lengthAdjust="spacing" textLength="252" x="506" y="253.1426">remove(th : Mushroomthread) : Boolean</text></g><!--class MushroomThread--><g id="elem_MushroomThread"><rect codeLine="7" fill="#F1F1F1" height="65.6094" id="MushroomThread" rx="2.5" ry="2.5" style="stroke:#181818;stroke-width:0.5;" width="207" x="705.5" y="621"/><ellipse cx="748.85" cy="637" fill="#ADD1B2" rx="11" ry="11" style="stroke:#181818;stroke-width:1.0;"/><path d="M751.6156,632.875 Q751.7719,632.6563 751.9594,632.5469 Q752.1469,632.4375 752.3656,632.4375 Q752.7406,632.4375 752.975,632.7031 Q753.2094,632.9531 753.2094,633.5625 L753.2094,635.0156 Q753.2094,635.625 752.975,635.8906 Q752.7406,636.1563 752.3656,636.1563 Q752.0219,636.1563 751.8188,635.9531 Q751.6156,635.7656 751.5063,635.25 Q751.4594,634.8906 751.2719,634.7031 Q750.9438,634.3281 750.3344,634.1094 Q749.725,633.8906 749.1,633.8906 Q748.3344,633.8906 747.6938,634.2188 Q747.0688,634.5469 746.5688,635.2969 Q746.0844,636.0469 746.0844,637.0781 L746.0844,638.1719 Q746.0844,639.4063 746.975,640.2344 Q747.8656,641.0469 749.4594,641.0469 Q750.3969,641.0469 751.0531,640.7969 Q751.4438,640.6406 751.8656,640.2031 Q752.1313,639.9375 752.2719,639.8594 Q752.4281,639.7813 752.6313,639.7813 Q752.9594,639.7813 753.2094,640.0469 Q753.475,640.2969 753.475,640.6406 Q753.475,640.9844 753.1313,641.3906 Q752.6313,641.9688 751.8344,642.2969 Q750.7563,642.75 749.4594,642.75 Q747.9438,642.75 746.7406,642.125 Q745.7563,641.625 745.0688,640.5625 Q744.3813,639.4844 744.3813,638.2031 L744.3813,637.0469 Q744.3813,635.7188 744.9906,634.5781 Q745.6156,633.4219 746.7094,632.8125 Q747.8031,632.1875 749.0375,632.1875 Q749.7719,632.1875 750.4125,632.3594 Q751.0688,632.5156 751.6156,632.875 Z " fill="#000000"/><text fill="#000000" font-family="sans-serif" font-size="14" lengthAdjust="spacing" textLength="112" x="769.15" y="642.7285">MushroomThread</text><line style="stroke:#181818;stroke-width:0.5;" x1="706.5" x2="911.5" y1="653" y2="653"/><line style="stroke:#181818;stroke-width:0.5;" x1="706.5" x2="911.5" y1="661" y2="661"/><text fill="#000000" font-family="sans-serif" font-size="14" lengthAdjust="spacing" textLength="195" x="711.5" y="679.5332">getConnected() : List&lt;Thread&gt;</text></g><!--class Tecton--><g id="elem_Tecton"><rect codeLine="7" fill="#F1F1F1" height="206.4844" id="Tecton" rx="2.5" ry="2.5" style="stroke:#181818;stroke-width:0.5;" width="234" x="411" y="329"/><ellipse cx="501.75" cy="345" fill="#ADD1B2" rx="11" ry="11" style="stroke:#181818;stroke-width:1.0;"/><path d="M504.5156,340.875 Q504.6719,340.6563 504.8594,340.5469 Q505.0469,340.4375 505.2656,340.4375 Q505.6406,340.4375 505.875,340.7031 Q506.1094,340.9531 506.1094,341.5625 L506.1094,343.0156 Q506.1094,343.625 505.875,343.8906 Q505.6406,344.1563 505.2656,344.1563 Q504.9219,344.1563 504.7188,343.9531 Q504.5156,343.7656 504.4063,343.25 Q504.3594,342.8906 504.1719,342.7031 Q503.8438,342.3281 503.2344,342.1094 Q502.625,341.8906 502,341.8906 Q501.2344,341.8906 500.5938,342.2188 Q499.9688,342.5469 499.4688,343.2969 Q498.9844,344.0469 498.9844,345.0781 L498.9844,346.1719 Q498.9844,347.4063 499.875,348.2344 Q500.7656,349.0469 502.3594,349.0469 Q503.2969,349.0469 503.9531,348.7969 Q504.3438,348.6406 504.7656,348.2031 Q505.0313,347.9375 505.1719,347.8594 Q505.3281,347.7813 505.5313,347.7813 Q505.8594,347.7813 506.1094,348.0469 Q506.375,348.2969 506.375,348.6406 Q506.375,348.9844 506.0313,349.3906 Q505.5313,349.9688 504.7344,350.2969 Q503.6563,350.75 502.3594,350.75 Q500.8438,350.75 499.6406,350.125 Q498.6563,349.625 497.9688,348.5625 Q497.2813,347.4844 497.2813,346.2031 L497.2813,345.0469 Q497.2813,343.7188 497.8906,342.5781 Q498.5156,341.4219 499.6094,340.8125 Q500.7031,340.1875 501.9375,340.1875 Q502.6719,340.1875 503.3125,340.3594 Q503.9688,340.5156 504.5156,340.875 Z " fill="#000000"/><text fill="#000000" font-family="sans-serif" font-size="14" lengthAdjust="spacing" textLength="44" x="522.25" y="350.7285">Tecton</text><line style="stroke:#181818;stroke-width:0.5;" x1="412" x2="644" y1="361" y2="361"/><text fill="#000000" font-family="sans-serif" font-size="14" lengthAdjust="spacing" textLength="131" x="417" y="379.5332">spores : List&lt;Spore&gt;</text><text fill="#000000" font-family="sans-serif" font-size="14" lengthAdjust="spacing" textLength="185" x="417" y="397.1426">stems : List&lt;MushroomStem&gt;</text><text fill="#000000" font-family="sans-serif" font-size="14" lengthAdjust="spacing" textLength="210" x="417" y="414.752">threads : List&lt;MushroomThread&gt;</text><text fill="#000000" font-family="sans-serif" font-size="14" lengthAdjust="spacing" textLength="165" x="417" y="432.3613">neighbours : List&lt;Tecton&gt;</text><text fill="#000000" font-family="sans-serif" font-size="14" lengthAdjust="spacing" textLength="131" x="417" y="449.9707">insects : List&lt;Insect&gt;</text><line style="stroke:#181818;stroke-width:0.5;" x1="412" x2="644" y1="457.0469" y2="457.0469"/><text fill="#000000" font-family="sans-serif" font-size="14" lengthAdjust="spacing" textLength="222" x="417" y="475.5801">getSporeCount(p : Player) : Integer</text><text fill="#000000" font-family="sans-serif" font-size="14" lengthAdjust="spacing" textLength="129" x="417" y="493.1895">hasStem() : Boolean</text><text fill="#000000" font-family="sans-serif" font-size="14" lengthAdjust="spacing" textLength="197" x="417" y="510.7988">addNeighbour(t : Tecton) : void</text><text fill="#000000" font-family="sans-serif" font-size="14" lengthAdjust="spacing" textLength="161" x="417" y="528.4082">addInsect(i : Insect) : void</text></g><!--class StemlessTecton--><g id="elem_StemlessTecton"><rect codeLine="19" fill="#F1F1F1" height="48" id="StemlessTecton" rx="2.5" ry="2.5" style="stroke:#181818;stroke-width:0.5;" width="133" x="499.5" y="630"/><ellipse cx="514.5" cy="646" fill="#ADD1B2" rx="11" ry="11" style="stroke:#181818;stroke-width:1.0;"/><path d="M517.2656,641.875 Q517.4219,641.6563 517.6094,641.5469 Q517.7969,641.4375 518.0156,641.4375 Q518.3906,641.4375 518.625,641.7031 Q518.8594,641.9531 518.8594,642.5625 L518.8594,644.0156 Q518.8594,644.625 518.625,644.8906 Q518.3906,645.1563 518.0156,645.1563 Q517.6719,645.1563 517.4688,644.9531 Q517.2656,644.7656 517.1563,644.25 Q517.1094,643.8906 516.9219,643.7031 Q516.5938,643.3281 515.9844,643.1094 Q515.375,642.8906 514.75,642.8906 Q513.9844,642.8906 513.3438,643.2188 Q512.7188,643.5469 512.2188,644.2969 Q511.7344,645.0469 511.7344,646.0781 L511.7344,647.1719 Q511.7344,648.4063 512.625,649.2344 Q513.5156,650.0469 515.1094,650.0469 Q516.0469,650.0469 516.7031,649.7969 Q517.0938,649.6406 517.5156,649.2031 Q517.7813,648.9375 517.9219,648.8594 Q518.0781,648.7813 518.2813,648.7813 Q518.6094,648.7813 518.8594,649.0469 Q519.125,649.2969 519.125,649.6406 Q519.125,649.9844 518.7813,650.3906 Q518.2813,650.9688 517.4844,651.2969 Q516.4063,651.75 515.1094,651.75 Q513.5938,651.75 512.3906,651.125 Q511.4063,650.625 510.7188,649.5625 Q510.0313,648.4844 510.0313,647.2031 L510.0313,646.0469 Q510.0313,644.7188 510.6406,643.5781 Q511.2656,642.4219 512.3594,641.8125 Q513.4531,641.1875 514.6875,641.1875 Q515.4219,641.1875 516.0625,641.3594 Q516.7188,641.5156 517.2656,641.875 Z " fill="#000000"/><text fill="#000000" font-family="sans-serif" font-size="14" lengthAdjust="spacing" textLength="101" x="528.5" y="651.7285">StemlessTecton</text><line style="stroke:#181818;stroke-width:0.5;" x1="500.5" x2="631.5" y1="662" y2="662"/><line style="stroke:#181818;stroke-width:0.5;" x1="500.5" x2="631.5" y1="670" y2="670"/></g><!--class ThreadConsumingTecton--><g id="elem_ThreadConsumingTecton"><rect codeLine="20" fill="#F1F1F1" height="48" id="ThreadConsumingTecton" rx="2.5" ry="2.5" style="stroke:#181818;stroke-width:0.5;" width="193" x="59.5" y="630"/><ellipse cx="74.5" cy="646" fill="#ADD1B2" rx="11" ry="11" style="stroke:#181818;stroke-width:1.0;"/><path d="M77.2656,641.875 Q77.4219,641.6563 77.6094,641.5469 Q77.7969,641.4375 78.0156,641.4375 Q78.3906,641.4375 78.625,641.7031 Q78.8594,641.9531 78.8594,642.5625 L78.8594,644.0156 Q78.8594,644.625 78.625,644.8906 Q78.3906,645.1563 78.0156,645.1563 Q77.6719,645.1563 77.4688,644.9531 Q77.2656,644.7656 77.1563,644.25 Q77.1094,643.8906 76.9219,643.7031 Q76.5938,643.3281 75.9844,643.1094 Q75.375,642.8906 74.75,642.8906 Q73.9844,642.8906 73.3438,643.2188 Q72.7188,643.5469 72.2188,644.2969 Q71.7344,645.0469 71.7344,646.0781 L71.7344,647.1719 Q71.7344,648.4063 72.625,649.2344 Q73.5156,650.0469 75.1094,650.0469 Q76.0469,650.0469 76.7031,649.7969 Q77.0938,649.6406 77.5156,649.2031 Q77.7813,648.9375 77.9219,648.8594 Q78.0781,648.7813 78.2813,648.7813 Q78.6094,648.7813 78.8594,649.0469 Q79.125,649.2969 79.125,649.6406 Q79.125,649.9844 78.7813,650.3906 Q78.2813,650.9688 77.4844,651.2969 Q76.4063,651.75 75.1094,651.75 Q73.5938,651.75 72.3906,651.125 Q71.4063,650.625 70.7188,649.5625 Q70.0313,648.4844 70.0313,647.2031 L70.0313,646.0469 Q70.0313,644.7188 70.6406,643.5781 Q71.2656,642.4219 72.3594,641.8125 Q73.4531,641.1875 74.6875,641.1875 Q75.4219,641.1875 76.0625,641.3594 Q76.7188,641.5156 77.2656,641.875 Z " fill="#000000"/><text fill="#000000" font-family="sans-serif" font-size="14" lengthAdjust="spacing" textLength="161" x="88.5" y="651.7285">ThreadConsumingTecton</text><line style="stroke:#181818;stroke-width:0.5;" x1="60.5" x2="251.5" y1="662" y2="662"/><line style="stroke:#181818;stroke-width:0.5;" x1="60.5" x2="251.5" y1="670" y2="670"/></g><!--class SingleThreadedTecton--><g id="elem_SingleThreadedTecton"><rect codeLine="21" fill="#F1F1F1" height="48" id="SingleThreadedTecton" rx="2.5" ry="2.5" style="stroke:#181818;stroke-width:0.5;" width="177" x="287.5" y="630"/><ellipse cx="302.5" cy="646" fill="#ADD1B2" rx="11" ry="11" style="stroke:#181818;stroke-width:1.0;"/><path d="M305.2656,641.875 Q305.4219,641.6563 305.6094,641.5469 Q305.7969,641.4375 306.0156,641.4375 Q306.3906,641.4375 306.625,641.7031 Q306.8594,641.9531 306.8594,642.5625 L306.8594,644.0156 Q306.8594,644.625 306.625,644.8906 Q306.3906,645.1563 306.0156,645.1563 Q305.6719,645.1563 305.4688,644.9531 Q305.2656,644.7656 305.1563,644.25 Q305.1094,643.8906 304.9219,643.7031 Q304.5938,643.3281 303.9844,643.1094 Q303.375,642.8906 302.75,642.8906 Q301.9844,642.8906 301.3438,643.2188 Q300.7188,643.5469 300.2188,644.2969 Q299.7344,645.0469 299.7344,646.0781 L299.7344,647.1719 Q299.7344,648.4063 300.625,649.2344 Q301.5156,650.0469 303.1094,650.0469 Q304.0469,650.0469 304.7031,649.7969 Q305.0938,649.6406 305.5156,649.2031 Q305.7813,648.9375 305.9219,648.8594 Q306.0781,648.7813 306.2813,648.7813 Q306.6094,648.7813 306.8594,649.0469 Q307.125,649.2969 307.125,649.6406 Q307.125,649.9844 306.7813,650.3906 Q306.2813,650.9688 305.4844,651.2969 Q304.4063,651.75 303.1094,651.75 Q301.5938,651.75 300.3906,651.125 Q299.4063,650.625 298.7188,649.5625 Q298.0313,648.4844 298.0313,647.2031 L298.0313,646.0469 Q298.0313,644.7188 298.6406,643.5781 Q299.2656,642.4219 300.3594,641.8125 Q301.4531,641.1875 302.6875,641.1875 Q303.4219,641.1875 304.0625,641.3594 Q304.7188,641.5156 305.2656,641.875 Z " fill="#000000"/><text fill="#000000" font-family="sans-serif" font-size="14" lengthAdjust="spacing" textLength="145" x="316.5" y="651.7285">SingleThreadedTecton</text><line style="stroke:#181818;stroke-width:0.5;" x1="288.5" x2="463.5" y1="662" y2="662"/><line style="stroke:#181818;stroke-width:0.5;" x1="288.5" x2="463.5" y1="670" y2="670"/></g><!--class Player--><g id="elem_Player"><rect codeLine="2" fill="#F1F1F1" height="83.2188" id="Player" rx="2.5" ry="2.5" style="stroke:#181818;stroke-width:0.5;" width="104" x="1069" y="177"/><ellipse cx="1098.4" cy="193" fill="#A9DCDF" rx="11" ry="11" style="stroke:#181818;stroke-width:1.0;"/><path d="M1100.5875,194.7656 L1096.4469,194.7656 L1096.025,195.7969 L1096.4469,195.7969 Q1097.0563,195.7969 1097.3219,196.0313 Q1097.5875,196.2656 1097.5875,196.6563 Q1097.5875,197.0313 1097.3219,197.2656 Q1097.0563,197.5 1096.4469,197.5 L1094.15,197.5 Q1093.5406,197.5 1093.2906,197.2656 Q1093.025,197.0313 1093.025,196.6406 Q1093.025,196.2656 1093.3063,196.0313 Q1093.5719,195.7813 1094.1969,195.7969 L1096.8688,189.1406 L1095.7594,189.1406 Q1095.15,189.1406 1094.8844,188.9063 Q1094.6188,188.6719 1094.6188,188.2813 Q1094.6188,187.9063 1094.8844,187.6719 Q1095.15,187.4375 1095.7594,187.4375 L1099.4313,187.4375 L1102.8219,195.7969 Q1103.4156,195.7969 1103.6031,195.9375 Q1103.9938,196.2031 1103.9938,196.6563 Q1103.9938,197.0313 1103.7281,197.2656 Q1103.4781,197.5 1102.8688,197.5 L1100.5719,197.5 Q1099.9625,197.5 1099.6969,197.2656 Q1099.4313,197.0313 1099.4313,196.6406 Q1099.4313,196.2656 1099.6969,196.0313 Q1099.9625,195.7969 1100.5719,195.7969 L1100.9938,195.7969 L1100.5875,194.7656 Z M1099.8688,193.0625 L1098.5094,189.6875 L1097.1344,193.0625 L1099.8688,193.0625 Z " fill="#000000"/><text fill="#000000" font-family="sans-serif" font-size="14" font-style="italic" lengthAdjust="spacing" textLength="40" x="1115.6" y="198.7285">Player</text><line style="stroke:#181818;stroke-width:0.5;" x1="1070" x2="1172" y1="209" y2="209"/><text fill="#000000" font-family="sans-serif" font-size="14" font-style="italic" lengthAdjust="spacing" textLength="68" x="1075" y="227.5332">id : Integer</text><text fill="#000000" font-family="sans-serif" font-size="14" font-style="italic" lengthAdjust="spacing" textLength="92" x="1075" y="245.1426">score : Integer</text><line style="stroke:#181818;stroke-width:0.5;" x1="1070" x2="1172" y1="252.2188" y2="252.2188"/></g><!--class Mushroomer--><g id="elem_Mushroomer"><rect codeLine="5" fill="#F1F1F1" height="100.8281" id="Mushroomer" rx="2.5" ry="2.5" style="stroke:#181818;stroke-width:0.5;" width="222" x="698" y="381.5"/><ellipse cx="765.25" cy="397.5" fill="#ADD1B2" rx="11" ry="11" style="stroke:#181818;stroke-width:1.0;"/><path d="M768.0156,393.375 Q768.1719,393.1563 768.3594,393.0469 Q768.5469,392.9375 768.7656,392.9375 Q769.1406,392.9375 769.375,393.2031 Q769.6094,393.4531 769.6094,394.0625 L769.6094,395.5156 Q769.6094,396.125 769.375,396.3906 Q769.1406,396.6563 768.7656,396.6563 Q768.4219,396.6563 768.2188,396.4531 Q768.0156,396.2656 767.9063,395.75 Q767.8594,395.3906 767.6719,395.2031 Q767.3438,394.8281 766.7344,394.6094 Q766.125,394.3906 765.5,394.3906 Q764.7344,394.3906 764.0938,394.7188 Q763.4688,395.0469 762.9688,395.7969 Q762.4844,396.5469 762.4844,397.5781 L762.4844,398.6719 Q762.4844,399.9063 763.375,400.7344 Q764.2656,401.5469 765.8594,401.5469 Q766.7969,401.5469 767.4531,401.2969 Q767.8438,401.1406 768.2656,400.7031 Q768.5313,400.4375 768.6719,400.3594 Q768.8281,400.2813 769.0313,400.2813 Q769.3594,400.2813 769.6094,400.5469 Q769.875,400.7969 769.875,401.1406 Q769.875,401.4844 769.5313,401.8906 Q769.0313,402.4688 768.2344,402.7969 Q767.1563,403.25 765.8594,403.25 Q764.3438,403.25 763.1406,402.625 Q762.1563,402.125 761.4688,401.0625 Q760.7813,399.9844 760.7813,398.7031 L760.7813,397.5469 Q760.7813,396.2188 761.3906,395.0781 Q762.0156,393.9219 763.1094,393.3125 Q764.2031,392.6875 765.4375,392.6875 Q766.1719,392.6875 766.8125,392.8594 Q767.4688,393.0156 768.0156,393.375 Z " fill="#000000"/><text fill="#000000" font-family="sans-serif" font-size="14" lengthAdjust="spacing" textLength="79" x="785.75" y="403.2285">Mushroomer</text><line style="stroke:#181818;stroke-width:0.5;" x1="699" x2="919" y1="413.5" y2="413.5"/><text fill="#000000" font-family="sans-serif" font-size="14" lengthAdjust="spacing" textLength="131" x="704" y="432.0332">spores : List&lt;Spore&gt;</text><text fill="#000000" font-family="sans-serif" font-size="14" lengthAdjust="spacing" textLength="185" x="704" y="449.6426">stems : List&lt;MushroomStem&gt;</text><text fill="#000000" font-family="sans-serif" font-size="14" lengthAdjust="spacing" textLength="210" x="704" y="467.252">threads : List&lt;MushroomThread&gt;</text><line style="stroke:#181818;stroke-width:0.5;" x1="699" x2="919" y1="474.3281" y2="474.3281"/></g><!--class Insecter--><g id="elem_Insecter"><rect codeLine="3" fill="#F1F1F1" height="65.6094" id="Insecter" rx="2.5" ry="2.5" style="stroke:#181818;stroke-width:0.5;" width="98" x="1173" y="399"/><ellipse cx="1195.2" cy="415" fill="#ADD1B2" rx="11" ry="11" style="stroke:#181818;stroke-width:1.0;"/><path d="M1197.9656,410.875 Q1198.1219,410.6563 1198.3094,410.5469 Q1198.4969,410.4375 1198.7156,410.4375 Q1199.0906,410.4375 1199.325,410.7031 Q1199.5594,410.9531 1199.5594,411.5625 L1199.5594,413.0156 Q1199.5594,413.625 1199.325,413.8906 Q1199.0906,414.1563 1198.7156,414.1563 Q1198.3719,414.1563 1198.1688,413.9531 Q1197.9656,413.7656 1197.8563,413.25 Q1197.8094,412.8906 1197.6219,412.7031 Q1197.2938,412.3281 1196.6844,412.1094 Q1196.075,411.8906 1195.45,411.8906 Q1194.6844,411.8906 1194.0438,412.2188 Q1193.4188,412.5469 1192.9188,413.2969 Q1192.4344,414.0469 1192.4344,415.0781 L1192.4344,416.1719 Q1192.4344,417.4063 1193.325,418.2344 Q1194.2156,419.0469 1195.8094,419.0469 Q1196.7469,419.0469 1197.4031,418.7969 Q1197.7938,418.6406 1198.2156,418.2031 Q1198.4813,417.9375 1198.6219,417.8594 Q1198.7781,417.7813 1198.9813,417.7813 Q1199.3094,417.7813 1199.5594,418.0469 Q1199.825,418.2969 1199.825,418.6406 Q1199.825,418.9844 1199.4813,419.3906 Q1198.9813,419.9688 1198.1844,420.2969 Q1197.1063,420.75 1195.8094,420.75 Q1194.2938,420.75 1193.0906,420.125 Q1192.1063,419.625 1191.4188,418.5625 Q1190.7313,417.4844 1190.7313,416.2031 L1190.7313,415.0469 Q1190.7313,413.7188 1191.3406,412.5781 Q1191.9656,411.4219 1193.0594,410.8125 Q1194.1531,410.1875 1195.3875,410.1875 Q1196.1219,410.1875 1196.7625,410.3594 Q1197.4188,410.5156 1197.9656,410.875 Z " fill="#000000"/><text fill="#000000" font-family="sans-serif" font-size="14" lengthAdjust="spacing" textLength="50" x="1210.8" y="420.7285">Insecter</text><line style="stroke:#181818;stroke-width:0.5;" x1="1174" x2="1270" y1="431" y2="431"/><text fill="#000000" font-family="sans-serif" font-size="14" lengthAdjust="spacing" textLength="86" x="1179" y="449.5332">insect : Insect</text><line style="stroke:#181818;stroke-width:0.5;" x1="1174" x2="1270" y1="456.6094" y2="456.6094"/></g><!--reverse link ITurn to Entity--><g id="link_ITurn_Entity"><path d="M1076.8713,121.9584 C1062.7213,138.3584 1059.43,145.85 1052,168 C1026.81,243.11 1035.3,337.21 1043.39,390.06 " fill="none" id="ITurn-backto-Entity" style="stroke:#181818;stroke-width:1.0;stroke-dasharray:7.0,7.0;"/><polygon fill="none" points="1088.63,108.33,1072.3285,118.0389,1081.4141,125.878,1088.63,108.33" style="stroke:#181818;stroke-width:1.0;"/></g><!--reverse link ITurn to Effect--><g id="link_ITurn_Effect"><path d="M1195.7558,76.9631 C1262.6058,80.4331 1353.1,96.64 1405,168 C1547.46,363.9 1509.59,494.52 1405,713 C1392.63,738.84 1370.86,760.52 1348.32,777.6 " fill="none" id="ITurn-backto-Effect" style="stroke:#181818;stroke-width:1.0;stroke-dasharray:7.0,7.0;"/><polygon fill="none" points="1177.78,76.03,1195.4448,82.955,1196.0668,70.9711,1177.78,76.03" style="stroke:#181818;stroke-width:1.0;"/></g><!--reverse link Effect to Fast--><g id="link_Effect_Fast"><path d="M1173.966,876.3159 C1128.256,901.2359 1089.24,922.52 1056.04,940.62 " fill="none" id="Effect-backto-Fast" style="stroke:#181818;stroke-width:1.0;"/><polygon fill="none" points="1189.77,867.7,1171.094,871.048,1176.838,881.5839,1189.77,867.7" style="stroke:#181818;stroke-width:1.0;"/></g><!--reverse link Effect to Slow--><g id="link_Effect_Slow"><path d="M1200.4707,886.2725 C1177.8307,906.6825 1166.07,917.28 1147.82,933.72 " fill="none" id="Effect-backto-Slow" style="stroke:#181818;stroke-width:1.0;"/><polygon fill="none" points="1213.84,874.22,1196.4532,881.816,1204.4882,890.7289,1213.84,874.22" style="stroke:#181818;stroke-width:1.0;"/></g><!--reverse link Effect to Paralyze--><g id="link_Effect_Paralyze"><path d="M1249.7805,891.5233 C1243.9305,911.9333 1242.39,917.28 1237.68,933.72 " fill="none" id="Effect-backto-Paralyze" style="stroke:#181818;stroke-width:1.0;"/><polygon fill="none" points="1254.74,874.22,1244.0127,889.8701,1255.5482,893.1764,1254.74,874.22" style="stroke:#181818;stroke-width:1.0;"/></g><!--reverse link Effect to ClawParalyze--><g id="link_Effect_ClawParalyze"><path d="M1316.4756,888.6903 C1331.5756,909.1003 1337.62,917.28 1349.78,933.72 " fill="none" id="Effect-backto-ClawParalyze" style="stroke:#181818;stroke-width:1.0;"/><polygon fill="none" points="1305.77,874.22,1311.6522,892.2588,1321.2991,885.1218,1305.77,874.22" style="stroke:#181818;stroke-width:1.0;"/></g><!--reverse link Insect to Effect--><g id="link_Insect_Effect"><path codeLine="8" d="M1291.1634,724.8122 C1286.7434,744.2822 1284.52,754.09 1280.27,772.84 " fill="none" id="Insect-backto-Effect" style="stroke:#181818;stroke-width:1.0;"/><polygon fill="#181818" points="1293.82,713.11,1288.591,718.0756,1291.1634,724.8122,1296.3925,719.8467,1293.82,713.11" style="stroke:#181818;stroke-width:1.0;"/><text fill="#000000" font-family="sans-serif" font-size="13" lengthAdjust="spacing" textLength="20" x="1260.4486" y="762.1229">0..*</text></g><!--reverse link Entity to Insect--><g id="link_Entity_Insect"><path d="M1103.6944,486.4613 C1122.9044,505.5613 1133.78,515.62 1156,535 C1179.2,555.23 1205.34,576.24 1229.28,594.83 " fill="none" id="Entity-backto-Insect" style="stroke:#181818;stroke-width:1.0;"/><polygon fill="none" points="1090.93,473.77,1099.464,490.7161,1107.9249,482.2065,1090.93,473.77" style="stroke:#181818;stroke-width:1.0;"/></g><!--reverse link IInsect to Insect--><g id="link_IInsect_Insect"><path d="M1299.4045,287.2261 C1301.0845,367.9561 1304.01,509.12 1305.79,594.92 " fill="none" id="IInsect-backto-Insect" style="stroke:#181818;stroke-width:1.0;stroke-dasharray:7.0,7.0;"/><polygon fill="none" points="1299.03,269.23,1293.4058,287.3509,1305.4032,287.1013,1299.03,269.23" style="stroke:#181818;stroke-width:1.0;"/></g><!--reverse link Entity to Spore--><g id="link_Entity_Spore"><path d="M1105.7826,486.7356 C1160.9726,544.6956 1231.38,639.11 1172,713 C1118.24,779.89 859.91,808.31 738.42,818.14 " fill="none" id="Entity-backto-Spore" style="stroke:#181818;stroke-width:1.0;"/><polygon fill="none" points="1093.37,473.7,1101.4374,490.8731,1110.1278,482.5981,1093.37,473.7" style="stroke:#181818;stroke-width:1.0;"/></g><!--reverse link Spore to SpeedingSpore--><g id="link_Spore_SpeedingSpore"><path d="M595.1771,858.7244 C538.6771,882.9544 473.36,910.96 419.91,933.88 " fill="none" id="Spore-backto-SpeedingSpore" style="stroke:#181818;stroke-width:1.0;"/><polygon fill="none" points="611.72,851.63,592.8122,853.2101,597.5419,864.2387,611.72,851.63" style="stroke:#181818;stroke-width:1.0;"/></g><!--reverse link Spore to SlowingSpore--><g id="link_Spore_SlowingSpore"><path d="M605.2284,886.1354 C582.1184,906.5454 569.96,917.28 551.35,933.72 " fill="none" id="Spore-backto-SlowingSpore" style="stroke:#181818;stroke-width:1.0;"/><polygon fill="none" points="618.72,874.22,601.2566,881.6382,609.2002,890.6326,618.72,874.22" style="stroke:#181818;stroke-width:1.0;"/></g><!--reverse link Spore to ParalyzingSpore--><g id="link_Spore_ParalyzingSpore"><path d="M681.1249,892.1465 C682.9749,912.5565 683.4,917.28 684.89,933.72 " fill="none" id="Spore-backto-ParalyzingSpore" style="stroke:#181818;stroke-width:1.0;"/><polygon fill="none" points="679.5,874.22,675.1494,892.6881,687.1004,891.6049,679.5,874.22" style="stroke:#181818;stroke-width:1.0;"/></g><!--reverse link Spore to ClawParalyzingSpore--><g id="link_Spore_ClawParalyzingSpore"><path d="M753.0764,877.0151 C786.0564,899.1951 810.19,915.43 837.58,933.85 " fill="none" id="Spore-backto-ClawParalyzingSpore" style="stroke:#181818;stroke-width:1.0;"/><polygon fill="none" points="738.14,866.97,749.728,881.9939,756.4248,872.0363,738.14,866.97" style="stroke:#181818;stroke-width:1.0;"/></g><!--reverse link MushroomStem to Spore--><g id="link_MushroomStem_Spore"><path codeLine="8" d="M936.9493,709.8608 C930.9293,712.6608 935.83,710.35 930,713 C865.08,742.48 789.99,774.48 738.19,796.22 " fill="none" id="MushroomStem-backto-Spore" style="stroke:#181818;stroke-width:1.0;"/><polygon fill="#181818" points="947.83,704.8,940.7028,703.7035,936.9493,709.8608,944.0766,710.9573,947.83,704.8" style="stroke:#181818;stroke-width:1.0;"/></g><!--reverse link Entity to MushroomStem--><g id="link_Entity_MushroomStem"><path d="M1051,491.61 C1051,525.63 1051,556.61 1051,594.8 " fill="none" id="Entity-backto-MushroomStem" style="stroke:#181818;stroke-width:1.0;"/><polygon fill="none" points="1051,473.61,1045,491.61,1057,491.61,1051,473.61" style="stroke:#181818;stroke-width:1.0;"/></g><!--reverse link ISpore to MushroomStem--><g id="link_ISpore_MushroomStem"><path d="M921.2217,276.8209 C929.1417,297.2309 931.72,305.75 938,329 C962.27,418.8 940.93,448.44 975,535 C983.12,555.63 995.07,576.51 1007.1,594.85 " fill="none" id="ISpore-backto-MushroomStem" style="stroke:#181818;stroke-width:1.0;stroke-dasharray:7.0,7.0;"/><polygon fill="none" points="914.71,260.04,915.6281,278.9914,926.8154,274.6503,914.71,260.04" style="stroke:#181818;stroke-width:1.0;"/></g><!--reverse link Entity to MushroomThread--><g id="link_Entity_MushroomThread"><path d="M993.0106,485.7175 C946.3006,528.1775 887.27,581.85 844.37,620.85 " fill="none" id="Entity-backto-MushroomThread" style="stroke:#181818;stroke-width:1.0;"/><polygon fill="none" points="1006.33,473.61,988.9747,481.2777,997.0464,490.1574,1006.33,473.61" style="stroke:#181818;stroke-width:1.0;"/></g><!--reverse link Tecton to Spore--><g id="link_Tecton_Spore"><path codeLine="2" d="M398.9798,436.3967 C283.8698,445.7967 125.6,479.02 42,595 C11.34,637.55 8.22,672.88 42,713 C114.5,799.12 466.29,817.51 611.8,821.43 " fill="none" id="Tecton-backto-Spore" style="stroke:#181818;stroke-width:1.0;"/><polygon fill="#181818" points="410.94,435.42,404.6343,431.9216,398.9798,436.3967,405.2855,439.8951,410.94,435.42" style="stroke:#181818;stroke-width:1.0;"/><text fill="#000000" font-family="sans-serif" font-size="13" lengthAdjust="spacing" textLength="20" x="583.7937" y="817.8523">0..*</text></g><!--reverse link Tecton to MushroomStem--><g id="link_Tecton_MushroomStem"><path codeLine="3" d="M655.5533,522.8008 C667.3733,529.4908 669.01,529.76 681,535 C785.3,580.61 822.75,556.85 930,595 C935.93,597.11 941.95,599.42 947.98,601.86 " fill="none" id="Tecton-backto-MushroomStem" style="stroke:#181818;stroke-width:1.0;"/><polygon fill="#181818" points="645.11,516.89,648.3614,523.3265,655.5533,522.8008,652.3019,516.3643,645.11,516.89" style="stroke:#181818;stroke-width:1.0;"/><text fill="#000000" font-family="sans-serif" font-size="13" lengthAdjust="spacing" textLength="20" x="920.0333" y="595.1235">0..*</text></g><!--reverse link Tecton to MushroomThread--><g id="link_Tecton_MushroomThread"><path codeLine="4" d="M654.5795,532.1065 C698.2595,566.2965 735.58,595.52 767.93,620.84 " fill="none" id="Tecton-backto-MushroomThread" style="stroke:#181818;stroke-width:1.0;"/><polygon fill="#181818" points="645.13,524.71,647.3892,531.5581,654.5795,532.1065,652.3202,525.2584,645.13,524.71" style="stroke:#181818;stroke-width:1.0;"/><text fill="#000000" font-family="sans-serif" font-size="13" lengthAdjust="spacing" textLength="20" x="737.3968" y="609.9224">0..*</text></g><!--reverse link Tecton to Insect--><g id="link_Tecton_Insect"><path codeLine="5" d="M655.991,524.453 C667.661,530.643 669.03,530.56 681,535 C887.15,611.37 959.75,537.7 1172,595 C1189.98,599.85 1208.68,606.66 1226.23,613.9 " fill="none" id="Tecton-backto-Insect" style="stroke:#181818;stroke-width:1.0;"/><polygon fill="#181818" points="645.39,518.83,648.8162,525.1752,655.991,524.453,652.5648,518.1078,645.39,518.83" style="stroke:#181818;stroke-width:1.0;"/><text fill="#000000" font-family="sans-serif" font-size="13" lengthAdjust="spacing" textLength="20" x="1198.4295" y="607.2578">0..*</text></g><!--link Tecton to Tecton--><g id="link_Tecton_Tecton"><path codeLine="6" d="M645.27,394.73 C665.75,399.7 680,412.12 680,432 C680,451.88 665.75,464.3 645.27,469.27 " fill="none" id="Tecton-Tecton" style="stroke:#181818;stroke-width:1.0;"/><text fill="#000000" font-family="sans-serif" font-size="13" lengthAdjust="spacing" textLength="20" x="653.0255" y="468.5447">0..*</text></g><!--reverse link IRound to Tecton--><g id="link_IRound_Tecton"><path d="M173.2341,260.8715 C183.1041,266.8815 178.11,263.6 188,269 C260.61,308.61 344.48,348.63 410.76,378.98 " fill="none" id="IRound-backto-Tecton" style="stroke:#181818;stroke-width:1.0;stroke-dasharray:7.0,7.0;"/><polygon fill="none" points="157.86,251.51,170.1136,265.9962,176.3546,255.7468,157.86,251.51" style="stroke:#181818;stroke-width:1.0;"/></g><!--reverse link ISpore to Tecton--><g id="link_ISpore_Tecton"><path d="M795.5372,267.9719 C755.2172,287.6719 723.11,304.46 681,329 C669.28,335.83 657.23,343.21 645.29,350.76 " fill="none" id="ISpore-backto-Tecton" style="stroke:#181818;stroke-width:1.0;stroke-dasharray:7.0,7.0;"/><polygon fill="none" points="811.71,260.07,792.9032,262.581,798.1711,273.3628,811.71,260.07" style="stroke:#181818;stroke-width:1.0;"/></g><!--reverse link IStem to Tecton--><g id="link_IStem_Tecton"><path d="M392.3832,282.3861 C408.7632,300.3361 415.78,308.02 434.77,328.83 " fill="none" id="IStem-backto-Tecton" style="stroke:#181818;stroke-width:1.0;stroke-dasharray:7.0,7.0;"/><polygon fill="none" points="380.25,269.09,387.9511,286.4305,396.8152,278.3417,380.25,269.09" style="stroke:#181818;stroke-width:1.0;"/></g><!--reverse link IThread to Tecton--><g id="link_IThread_Tecton"><path d="M604.0086,276.4335 C594.3286,296.1235 590.18,304.56 578.21,328.89 " fill="none" id="IThread-backto-Tecton" style="stroke:#181818;stroke-width:1.0;stroke-dasharray:7.0,7.0;"/><polygon fill="none" points="611.95,260.28,598.6241,273.7863,609.3931,279.0806,611.95,260.28" style="stroke:#181818;stroke-width:1.0;"/></g><!--reverse link Tecton to StemlessTecton--><g id="link_Tecton_StemlessTecton"><path d="M548.7303,553.0079 C554.8103,588.2479 558.02,606.8 561.96,629.61 " fill="none" id="Tecton-backto-StemlessTecton" style="stroke:#181818;stroke-width:1.0;"/><polygon fill="none" points="545.67,535.27,542.8177,554.028,554.643,551.9878,545.67,535.27" style="stroke:#181818;stroke-width:1.0;"/></g><!--reverse link Tecton to ThreadConsumingTecton--><g id="link_Tecton_ThreadConsumingTecton"><path d="M395.3162,511.4721 C321.4162,555.1721 246.14,599.69 195.31,629.75 " fill="none" id="Tecton-backto-ThreadConsumingTecton" style="stroke:#181818;stroke-width:1.0;"/><polygon fill="none" points="410.81,502.31,392.2622,506.3075,398.3703,516.6367,410.81,502.31" style="stroke:#181818;stroke-width:1.0;"/></g><!--reverse link Tecton to SingleThreadedTecton--><g id="link_Tecton_SingleThreadedTecton"><path d="M447.1104,550.0806 C422.7704,585.3206 407.92,606.8 392.16,629.61 " fill="none" id="Tecton-backto-SingleThreadedTecton" style="stroke:#181818;stroke-width:1.0;"/><polygon fill="none" points="457.34,535.27,442.1735,546.6708,452.0473,553.4905,457.34,535.27" style="stroke:#181818;stroke-width:1.0;"/></g><!--reverse link ITurn to Player--><g id="link_ITurn_Player"><path d="M1121,126.11 C1121,146.49 1121,155.05 1121,176.9 " fill="none" id="ITurn-backto-Player" style="stroke:#181818;stroke-width:1.0;stroke-dasharray:7.0,7.0;"/><polygon fill="none" points="1121,108.11,1115,126.11,1127,126.11,1121,108.11" style="stroke:#181818;stroke-width:1.0;"/></g><!--reverse link Mushroomer to Spore--><g id="link_Mushroomer_Spore"><path codeLine="2" d="M751.7909,491.6972 C725.4609,521.6072 703.32,552.94 688,595 C666.74,653.36 666.67,725.7 669.79,772.93 " fill="none" id="Mushroomer-backto-Spore" style="stroke:#181818;stroke-width:1.0;"/><polygon fill="none" points="759.72,482.69,752.7531,484.5506,751.7909,491.6972,758.7578,489.8366,759.72,482.69" style="stroke:#181818;stroke-width:1.0;"/><text fill="#000000" font-family="sans-serif" font-size="13" lengthAdjust="spacing" textLength="20" x="647.6511" y="762.2255">0..*</text></g><!--reverse link Mushroomer to MushroomStem--><g id="link_Mushroomer_MushroomStem"><path codeLine="3" d="M872.489,490.7224 C909.149,524.0524 948.72,560.01 987.16,594.97 " fill="none" id="Mushroomer-backto-MushroomStem" style="stroke:#181818;stroke-width:1.0;"/><polygon fill="none" points="863.61,482.65,865.3587,489.6459,872.489,490.7224,870.7403,483.7266,863.61,482.65" style="stroke:#181818;stroke-width:1.0;"/><text fill="#000000" font-family="sans-serif" font-size="13" lengthAdjust="spacing" textLength="20" x="958.1608" y="584.2906">1..*</text></g><!--reverse link Mushroomer to MushroomThread--><g id="link_Mushroomer_MushroomThread"><path codeLine="4" d="M809,494.65 C809,536.98 809,584.57 809,620.9 " fill="none" id="Mushroomer-backto-MushroomThread" style="stroke:#181818;stroke-width:1.0;"/><polygon fill="none" points="809,482.65,805,488.65,809,494.65,813,488.65,809,482.65" style="stroke:#181818;stroke-width:1.0;"/><text fill="#000000" font-family="sans-serif" font-size="13" lengthAdjust="spacing" textLength="20" x="786.9375" y="609.9948">1..*</text></g><!--reverse link Player to Mushroomer--><g id="link_Player_Mushroomer"><path d="M1053.8803,264.9994 C1002.7903,299.6294 939.43,342.59 882.15,381.41 " fill="none" id="Player-backto-Mushroomer" style="stroke:#181818;stroke-width:1.0;"/><polygon fill="none" points="1068.78,254.9,1050.5138,260.0328,1057.2467,269.966,1068.78,254.9" style="stroke:#181818;stroke-width:1.0;"/></g><!--reverse link ISpore to Mushroomer--><g id="link_ISpore_Mushroomer"><path d="M873.8573,276.8704 C859.3073,311.4404 845.38,344.55 829.87,381.41 " fill="none" id="ISpore-backto-Mushroomer" style="stroke:#181818;stroke-width:1.0;stroke-dasharray:7.0,7.0;"/><polygon fill="none" points="880.84,260.28,868.3272,274.5429,879.3875,279.198,880.84,260.28" style="stroke:#181818;stroke-width:1.0;"/></g><!--reverse link IStem to Mushroomer--><g id="link_IStem_Mushroomer"><path d="M481.9978,268.7361 C488.1178,270.7261 477.06,267.11 483,269 C570.61,296.92 599.59,286.25 681,329 C707.67,343 734.2,362.9 756.13,381.4 " fill="none" id="IStem-backto-Mushroomer" style="stroke:#181818;stroke-width:1.0;stroke-dasharray:7.0,7.0;"/><polygon fill="none" points="464.88,263.17,480.1424,274.442,483.8532,263.0301,464.88,263.17" style="stroke:#181818;stroke-width:1.0;"/></g><!--reverse link IThread to Mushroomer--><g id="link_IThread_Mushroomer"><path d="M677.682,274.0841 C706.612,308.6541 736.65,344.55 767.5,381.41 " fill="none" id="IThread-backto-Mushroomer" style="stroke:#181818;stroke-width:1.0;stroke-dasharray:7.0,7.0;"/><polygon fill="none" points="666.13,260.28,673.0806,277.9347,682.2833,270.2334,666.13,260.28" style="stroke:#181818;stroke-width:1.0;"/></g><!--reverse link Insecter to Insect--><g id="link_Insecter_Insect"><path codeLine="2" d="M1238.8656,476.6533 C1251.9856,510.6033 1268.52,553.4 1284.49,594.75 " fill="none" id="Insecter-backto-Insect" style="stroke:#181818;stroke-width:1.0;"/><polygon fill="none" points="1234.54,465.46,1232.9717,472.4985,1238.8656,476.6533,1240.4339,469.6147,1234.54,465.46" style="stroke:#181818;stroke-width:1.0;"/></g><!--reverse link Player to Insecter--><g id="link_Player_Insecter"><path d="M1148.2278,276.5224 C1167.5478,316.9724 1189,361.89 1206.71,398.98 " fill="none" id="Player-backto-Insecter" style="stroke:#181818;stroke-width:1.0;"/><polygon fill="none" points="1140.47,260.28,1142.8137,279.1084,1153.642,273.9365,1140.47,260.28" style="stroke:#181818;stroke-width:1.0;"/></g><!--reverse link IInsect to Insecter--><g id="link_IInsect_Insecter"><path d="M1274.0922,286.0293 C1259.7022,326.0693 1245.96,364.32 1233.57,398.81 " fill="none" id="IInsect-backto-Insecter" style="stroke:#181818;stroke-width:1.0;stroke-dasharray:7.0,7.0;"/><polygon fill="none" points="1280.18,269.09,1268.4458,284,1279.7386,288.0585,1280.18,269.09" style="stroke:#181818;stroke-width:1.0;"/></g><!--SRC=[lLTRJzj857xthvZjarEH45Ywgg8LMa6XfS8hr0JU9_Oa6QqzOyqbD23-Uy_SND_3q_A0iRzlPixbE-SC9Kx_mrk2DffjkQ2wU8qG_Fn1MPhhZA2K2t9gVirANUHDZ399KdLADXju3EFkqOCNMku4vyMfBFiFg0ZXZwKYnNjugvqWEEjXMdSKcCDP3rhc-434gNiCu-6KCOvpEZ3Uedy8owAex4OxeWne6vmITBVIWhdul-ArL0AdwWt1GlCzdg05sdEQmMRrDJ-uPbdV8WiqLWKOfJcM4jqmHTK1qQBCIK6OaWC6v3p5Yd86EwrivDe4_io80FJ1kcvEwXnb9NByg4oBSDGTkBY5tLeCN9Rv8QQMO29S-TVY2LBmFUaZWddEg5ii5I8_5SIgil3rpOFBd3yFWWzOuFpmGWO9rpb-7Y4r4kZCwsOGgrYMOFJI58Un_ehpdE1EzAsVgahE23FLAbOxmxJbKMU2JSuEz74wHH_cizd73zvWxvA7AsUwugaxudg2X1FkgLH_kvqkBPI6sD0NahMCNMD9bYMnt-i2aEPRmZEweLPf0Mk5qeOATKA9i-nzeVIYwUTs2yWTrun8vt2cbQ3ZcdR10jm7l0LlYNA0BMRFgLHimqNPjccCZqHTpSSuNg_7Q3Lf3rERMO6ctPkJGYvGudkf1DBnp1H6KUzSafCzoH_Bk9N3f3PAhDYjqTwv1ZWYTRl6-LJWd_ODQee_orQIcIxiTsOfRLGP2AzpKg6sMEoRgnNhmx3UNHttnjRMUN17TUgzFxn75bMQInfZjhS2GBJNd34p0zqGigwv1PVM3zUkwlt6PQBxlPwL4TXjtaDmZIa0qz-07sVEAG_Nqsn7w8bFzubJyaapx78eTKQTrVUw1vSXzx17Xn02PCL3w7QtvbfKB6UYGzq5euASZvSXzjQGQp1VnMKrcISj_UsmD0R5RM60VluDPxScIpLgWUEE71snPlkSIEbZ6uJYNwkUuhm6lKXTG5Cvmbu29ITk3Sa6oUrkxM9m_0v2i-5EBStziLMFINKRHBojvJPsrjNpECLhkbbsG0tkzZZr_ulLHE7EttUj4xxWwXU7SPlhLmSdx4fKPlTmVOQLJ3qczsXFX3GZzMnsFZ-_cFqPhtOQtP8rElk4pkUBY_bY_WbTtwoGWITH_FNXVd-E9EWPscO6FWYwrcOeJwBlU8_H3oWKMf05Cc_nAfcWvKtu26rjJmLdnjJe-rFYIEWRDqMcBFclY-aLLMX911Y6dfBe2zbWdIjOcd8pd1VeSNKx_HpTOxRLy0_00krqPCjJ71Res-Cl]--></g></svg>