<?xml version="1.0" encoding="us-ascii" standalone="no"?><svg xmlns="http://www.w3.org/2000/svg" xmlns:xlink="http://www.w3.org/1999/xlink" contentStyleType="text/css" height="372px" preserveAspectRatio="none" style="width:681px;height:372px;background:#FFFFFF;" version="1.1" viewBox="0 0 681 372" width="681px" zoomAndPan="magnify"><defs/><g><text fill="#000000" font-family="sans-serif" font-size="14" font-weight="bold" lengthAdjust="spacing" textLength="287" x="196" y="29.5332">Mushroomer eats an insect with a thread</text><rect fill="#FFFFFF" height="88.7031" style="stroke:#181818;stroke-width:1.0;" width="10" x="315" y="183.9219"/><rect fill="#FFFFFF" height="14" style="stroke:#181818;stroke-width:1.0;" width="10" x="632" y="244.625"/><line style="stroke:#181818;stroke-width:0.5;stroke-dasharray:5.0,5.0;" x1="28" x2="28" y1="121.2188" y2="290.625"/><line style="stroke:#181818;stroke-width:0.5;stroke-dasharray:5.0,5.0;" x1="167.5" x2="167.5" y1="121.2188" y2="290.625"/><line style="stroke:#181818;stroke-width:0.5;stroke-dasharray:5.0,5.0;" x1="320" x2="320" y1="121.2188" y2="290.625"/><line style="stroke:#181818;stroke-width:0.5;stroke-dasharray:5.0,5.0;" x1="637" x2="637" y1="121.2188" y2="290.625"/><text fill="#000000" font-family="sans-serif" font-size="14" lengthAdjust="spacing" textLength="40" x="5" y="118.1426">Player</text><ellipse cx="28" cy="52.1094" fill="#E2E2F0" rx="8" ry="8" style="stroke:#181818;stroke-width:0.5;"/><path d="M28,60.1094 L28,87.1094 M15,68.1094 L41,68.1094 M28,87.1094 L15,102.1094 M28,87.1094 L41,102.1094 " fill="none" style="stroke:#181818;stroke-width:0.5;"/><text fill="#000000" font-family="sans-serif" font-size="14" lengthAdjust="spacing" textLength="40" x="5" y="304.1582">Player</text><ellipse cx="28" cy="315.7344" fill="#E2E2F0" rx="8" ry="8" style="stroke:#181818;stroke-width:0.5;"/><path d="M28,323.7344 L28,350.7344 M15,331.7344 L41,331.7344 M28,350.7344 L15,365.7344 M28,350.7344 L41,365.7344 " fill="none" style="stroke:#181818;stroke-width:0.5;"/><rect fill="#E2E2F0" height="31.6094" rx="2.5" ry="2.5" style="stroke:#181818;stroke-width:0.5;" width="149" x="93.5" y="88.6094"/><text fill="#000000" font-family="sans-serif" font-size="14" lengthAdjust="spacing" textLength="135" x="100.5" y="110.1426">mp : MushroomerPop</text><rect fill="#E2E2F0" height="31.6094" rx="2.5" ry="2.5" style="stroke:#181818;stroke-width:0.5;" width="149" x="93.5" y="289.625"/><text fill="#000000" font-family="sans-serif" font-size="14" lengthAdjust="spacing" textLength="135" x="100.5" y="311.1582">mp : MushroomerPop</text><rect fill="#E2E2F0" height="31.6094" rx="2.5" ry="2.5" style="stroke:#181818;stroke-width:0.5;" width="116" x="262" y="88.6094"/><text fill="#000000" font-family="sans-serif" font-size="14" lengthAdjust="spacing" textLength="102" x="269" y="110.1426">gp : GamePanel</text><rect fill="#E2E2F0" height="31.6094" rx="2.5" ry="2.5" style="stroke:#181818;stroke-width:0.5;" width="116" x="262" y="289.625"/><text fill="#000000" font-family="sans-serif" font-size="14" lengthAdjust="spacing" textLength="102" x="269" y="311.1582">gp : GamePanel</text><rect fill="#E2E2F0" height="31.6094" rx="2.5" ry="2.5" style="stroke:#181818;stroke-width:0.5;" width="76" x="599" y="88.6094"/><text fill="#000000" font-family="sans-serif" font-size="14" lengthAdjust="spacing" textLength="62" x="606" y="110.1426">p : Parser</text><rect fill="#E2E2F0" height="31.6094" rx="2.5" ry="2.5" style="stroke:#181818;stroke-width:0.5;" width="76" x="599" y="289.625"/><text fill="#000000" font-family="sans-serif" font-size="14" lengthAdjust="spacing" textLength="62" x="606" y="311.1582">p : Parser</text><rect fill="#FFFFFF" height="88.7031" style="stroke:#181818;stroke-width:1.0;" width="10" x="315" y="183.9219"/><rect fill="#FFFFFF" height="14" style="stroke:#181818;stroke-width:1.0;" width="10" x="632" y="244.625"/><polygon fill="#181818" points="156,149.5703,166,153.5703,156,157.5703,160,153.5703" style="stroke:#181818;stroke-width:1.0;"/><line style="stroke:#181818;stroke-width:1.0;" x1="28" x2="162" y1="153.5703" y2="153.5703"/><text fill="#000000" font-family="sans-serif" font-size="13" lengthAdjust="spacing" textLength="116" x="35" y="148.7139">Clicks on eat button</text><polygon fill="#181818" points="303,179.9219,313,183.9219,303,187.9219,307,183.9219" style="stroke:#181818;stroke-width:1.0;"/><line style="stroke:#181818;stroke-width:1.0;" x1="168" x2="309" y1="183.9219" y2="183.9219"/><text fill="#000000" font-family="sans-serif" font-size="13" lengthAdjust="spacing" textLength="128" x="175" y="179.0654">mushroomThreadEat()</text><polygon fill="#181818" points="303,210.2734,313,214.2734,303,218.2734,307,214.2734" style="stroke:#181818;stroke-width:1.0;"/><line style="stroke:#181818;stroke-width:1.0;" x1="28" x2="309" y1="214.2734" y2="214.2734"/><text fill="#000000" font-family="sans-serif" font-size="13" lengthAdjust="spacing" textLength="216" x="35" y="209.417">Chooses mushroomthread to eat with</text><polygon fill="#181818" points="620,240.625,630,244.625,620,248.625,624,244.625" style="stroke:#181818;stroke-width:1.0;"/><line style="stroke:#181818;stroke-width:1.0;" x1="325" x2="626" y1="244.625" y2="244.625"/><text fill="#000000" font-family="sans-serif" font-size="13" lengthAdjust="spacing" textLength="288" x="332" y="239.7686">commandParser("!eat [MUSHROOMTHREADID]")</text><polygon fill="#181818" points="336,254.625,326,258.625,336,262.625,332,258.625" style="stroke:#181818;stroke-width:1.0;"/><line style="stroke:#181818;stroke-width:1.0;" x1="330" x2="636" y1="258.625" y2="258.625"/><polygon fill="#181818" points="39,268.625,29,272.625,39,276.625,35,272.625" style="stroke:#181818;stroke-width:1.0;"/><line style="stroke:#181818;stroke-width:1.0;" x1="33" x2="319" y1="272.625" y2="272.625"/><!--SRC=[NP2_JiCm4CPtFyMHXJBm0XsGK5gb356jKYR4S3YdniBsHVOLnDjZnrK9hFv-_lwSM744_JcDaTbJ1499W05iI6G4lgoCW21Z91oKGYCSGJlyfgWcZ6ADdJ08D7w2zS97yzG09kZrN-nKi0uzQGpaPgJxXnH2OqmKPrahTPjZxISAGSj18ZkNqsi9k7_86MjedJKV2JYK0V1-5k6WLA-BtcNTNveTvo5RbDMTkhhc1hzkXMv7vaJf-glE1-7PlTn4TRDrPWrxZs6eZLVDJI5U-vVdtM6_xu-xm_PnyxHvQnPnEQq6gO4MZnV7Ujk5ahaV]--></g></svg>