<?xml version="1.0" encoding="us-ascii" standalone="no"?><svg xmlns="http://www.w3.org/2000/svg" xmlns:xlink="http://www.w3.org/1999/xlink" contentStyleType="text/css" height="342px" preserveAspectRatio="none" style="width:527px;height:342px;background:#FFFFFF;" version="1.1" viewBox="0 0 527 342" width="527px" zoomAndPan="magnify"><defs/><g><text fill="#000000" font-family="sans-serif" font-size="14" font-weight="bold" lengthAdjust="spacing" textLength="127" x="199" y="29.5332">Insect cuts thread</text><rect fill="#FFFFFF" height="120.0547" style="stroke:#181818;stroke-width:1.0;" width="10" x="34" y="131.2188"/><rect fill="#FFFFFF" height="97.7031" style="stroke:#181818;stroke-width:1.0;" width="10" x="177" y="153.5703"/><rect fill="#FFFFFF" height="58.3516" style="stroke:#181818;stroke-width:1.0;" width="10" x="320" y="183.9219"/><rect fill="#FFFFFF" height="14" style="stroke:#181818;stroke-width:1.0;" width="10" x="439.5" y="214.2734"/><line style="stroke:#181818;stroke-width:0.5;stroke-dasharray:5.0,5.0;" x1="39" x2="39" y1="121.2188" y2="260.2734"/><line style="stroke:#181818;stroke-width:0.5;stroke-dasharray:5.0,5.0;" x1="182" x2="182" y1="121.2188" y2="260.2734"/><line style="stroke:#181818;stroke-width:0.5;stroke-dasharray:5.0,5.0;" x1="325" x2="325" y1="121.2188" y2="260.2734"/><line style="stroke:#181818;stroke-width:0.5;stroke-dasharray:5.0,5.0;" x1="444" x2="444" y1="121.2188" y2="260.2734"/><text fill="#000000" font-family="sans-serif" font-size="14" lengthAdjust="spacing" textLength="62" x="5" y="118.1426">Controller</text><ellipse cx="39" cy="52.1094" fill="#E2E2F0" rx="8" ry="8" style="stroke:#181818;stroke-width:0.5;"/><path d="M39,60.1094 L39,87.1094 M26,68.1094 L52,68.1094 M39,87.1094 L26,102.1094 M39,87.1094 L52,102.1094 " fill="none" style="stroke:#181818;stroke-width:0.5;"/><text fill="#000000" font-family="sans-serif" font-size="14" lengthAdjust="spacing" textLength="62" x="5" y="273.8066">Controller</text><ellipse cx="39" cy="285.3828" fill="#E2E2F0" rx="8" ry="8" style="stroke:#181818;stroke-width:0.5;"/><path d="M39,293.3828 L39,320.3828 M26,301.3828 L52,301.3828 M39,320.3828 L26,335.3828 M39,320.3828 L52,335.3828 " fill="none" style="stroke:#181818;stroke-width:0.5;"/><rect fill="#E2E2F0" height="31.6094" rx="2.5" ry="2.5" style="stroke:#181818;stroke-width:0.5;" width="84" x="140" y="88.6094"/><text fill="#000000" font-family="sans-serif" font-size="14" lengthAdjust="spacing" textLength="70" x="147" y="110.1426">ir : Insecter</text><rect fill="#E2E2F0" height="31.6094" rx="2.5" ry="2.5" style="stroke:#181818;stroke-width:0.5;" width="84" x="140" y="259.2734"/><text fill="#000000" font-family="sans-serif" font-size="14" lengthAdjust="spacing" textLength="70" x="147" y="280.8066">ir : Insecter</text><rect fill="#E2E2F0" height="31.6094" rx="2.5" ry="2.5" style="stroke:#181818;stroke-width:0.5;" width="66" x="292" y="88.6094"/><text fill="#000000" font-family="sans-serif" font-size="14" lengthAdjust="spacing" textLength="52" x="299" y="110.1426">i : Insect</text><rect fill="#E2E2F0" height="31.6094" rx="2.5" ry="2.5" style="stroke:#181818;stroke-width:0.5;" width="66" x="292" y="259.2734"/><text fill="#000000" font-family="sans-serif" font-size="14" lengthAdjust="spacing" textLength="52" x="299" y="280.8066">i : Insect</text><rect fill="#E2E2F0" height="31.6094" rx="2.5" ry="2.5" style="stroke:#181818;stroke-width:0.5;" width="153" x="368" y="88.6094"/><text fill="#000000" font-family="sans-serif" font-size="14" lengthAdjust="spacing" textLength="139" x="375" y="110.1426">mt : MushroomThread</text><rect fill="#E2E2F0" height="31.6094" rx="2.5" ry="2.5" style="stroke:#181818;stroke-width:0.5;" width="153" x="368" y="259.2734"/><text fill="#000000" font-family="sans-serif" font-size="14" lengthAdjust="spacing" textLength="139" x="375" y="280.8066">mt : MushroomThread</text><rect fill="#FFFFFF" height="120.0547" style="stroke:#181818;stroke-width:1.0;" width="10" x="34" y="131.2188"/><rect fill="#FFFFFF" height="97.7031" style="stroke:#181818;stroke-width:1.0;" width="10" x="177" y="153.5703"/><rect fill="#FFFFFF" height="58.3516" style="stroke:#181818;stroke-width:1.0;" width="10" x="320" y="183.9219"/><rect fill="#FFFFFF" height="14" style="stroke:#181818;stroke-width:1.0;" width="10" x="439.5" y="214.2734"/><polygon fill="#181818" points="165,149.5703,175,153.5703,165,157.5703,169,153.5703" style="stroke:#181818;stroke-width:1.0;"/><line style="stroke:#181818;stroke-width:1.0;" x1="44" x2="171" y1="153.5703" y2="153.5703"/><text fill="#000000" font-family="sans-serif" font-size="13" lengthAdjust="spacing" textLength="114" x="51" y="148.7139">cutThread(mt) : void</text><polygon fill="#181818" points="308,179.9219,318,183.9219,308,187.9219,312,183.9219" style="stroke:#181818;stroke-width:1.0;"/><line style="stroke:#181818;stroke-width:1.0;" x1="187" x2="314" y1="183.9219" y2="183.9219"/><text fill="#000000" font-family="sans-serif" font-size="13" lengthAdjust="spacing" textLength="114" x="194" y="179.0654">cutThread(mt) : void</text><polygon fill="#181818" points="427.5,210.2734,437.5,214.2734,427.5,218.2734,431.5,214.2734" style="stroke:#181818;stroke-width:1.0;"/><line style="stroke:#181818;stroke-width:1.0;" x1="330" x2="433.5" y1="214.2734" y2="214.2734"/><text fill="#000000" font-family="sans-serif" font-size="13" lengthAdjust="spacing" textLength="75" x="337" y="209.417">cut(mt) : void</text><polygon fill="#181818" points="341,224.2734,331,228.2734,341,232.2734,337,228.2734" style="stroke:#181818;stroke-width:1.0;"/><line style="stroke:#181818;stroke-width:1.0;stroke-dasharray:2.0,2.0;" x1="335" x2="443.5" y1="228.2734" y2="228.2734"/><polygon fill="#181818" points="198,238.2734,188,242.2734,198,246.2734,194,242.2734" style="stroke:#181818;stroke-width:1.0;"/><line style="stroke:#181818;stroke-width:1.0;stroke-dasharray:2.0,2.0;" x1="192" x2="324" y1="242.2734" y2="242.2734"/><!--SRC=[TOuz3eCm38Ltdy9YQWSkmD2bKuOig1U84aj40e8Sm_bhGbM2r6xMy_T-9Cf8QEPCNj2lab469XS0d9V4-4opS1f7ObWSI_HnSRDW4ncxZusuGPVHz1T2aIzn_Ay1a-ZRhddWbAPNwIoOBSrnSq9r-NbY-z2kRXzxs6wJt3LhIp5KNfrZ-iB-GKyIpCxPmlqaBDXsJm88L8b6HQsfD0Dl]--></g></svg>