<?xml version="1.0" encoding="us-ascii" standalone="no"?><svg xmlns="http://www.w3.org/2000/svg" xmlns:xlink="http://www.w3.org/1999/xlink" contentStyleType="text/css" height="423px" preserveAspectRatio="none" style="width:496px;height:423px;background:#FFFFFF;" version="1.1" viewBox="0 0 496 423" width="496px" zoomAndPan="magnify"><defs/><g><text fill="#000000" font-family="sans-serif" font-size="14" font-weight="bold" lengthAdjust="spacing" textLength="127" x="183.5" y="29.5332">Insect cuts thread</text><rect fill="#FFFFFF" height="201.1094" style="stroke:#181818;stroke-width:1.0;" width="10" x="34" y="131.2188"/><rect fill="#FFFFFF" height="178.7578" style="stroke:#181818;stroke-width:1.0;" width="10" x="120" y="153.5703"/><rect fill="#FFFFFF" height="147.4063" style="stroke:#181818;stroke-width:1.0;" width="10" x="205" y="183.9219"/><rect fill="#FFFFFF" height="14" style="stroke:#181818;stroke-width:1.0;" width="10" x="324.5" y="271.9766"/><rect fill="none" height="125.4063" style="stroke:#000000;stroke-width:1.5;" width="343" x="73" y="198.9219"/><line style="stroke:#181818;stroke-width:0.5;stroke-dasharray:5.0,5.0;" x1="39" x2="39" y1="121.2188" y2="341.3281"/><line style="stroke:#181818;stroke-width:0.5;stroke-dasharray:5.0,5.0;" x1="125" x2="125" y1="121.2188" y2="341.3281"/><line style="stroke:#181818;stroke-width:0.5;stroke-dasharray:5.0,5.0;" x1="210" x2="210" y1="121.2188" y2="341.3281"/><line style="stroke:#181818;stroke-width:0.5;stroke-dasharray:5.0,5.0;" x1="329" x2="329" y1="121.2188" y2="341.3281"/><line style="stroke:#181818;stroke-width:0.5;stroke-dasharray:5.0,5.0;" x1="453" x2="453" y1="121.2188" y2="341.3281"/><text fill="#000000" font-family="sans-serif" font-size="14" lengthAdjust="spacing" textLength="62" x="5" y="118.1426">Controller</text><ellipse cx="39" cy="52.1094" fill="#E2E2F0" rx="8" ry="8" style="stroke:#181818;stroke-width:0.5;"/><path d="M39,60.1094 L39,87.1094 M26,68.1094 L52,68.1094 M39,87.1094 L26,102.1094 M39,87.1094 L52,102.1094 " fill="none" style="stroke:#181818;stroke-width:0.5;"/><text fill="#000000" font-family="sans-serif" font-size="14" lengthAdjust="spacing" textLength="62" x="5" y="354.8613">Controller</text><ellipse cx="39" cy="366.4375" fill="#E2E2F0" rx="8" ry="8" style="stroke:#181818;stroke-width:0.5;"/><path d="M39,374.4375 L39,401.4375 M26,382.4375 L52,382.4375 M39,401.4375 L26,416.4375 M39,401.4375 L52,416.4375 " fill="none" style="stroke:#181818;stroke-width:0.5;"/><rect fill="#E2E2F0" height="31.6094" rx="2.5" ry="2.5" style="stroke:#181818;stroke-width:0.5;" width="84" x="83" y="88.6094"/><text fill="#000000" font-family="sans-serif" font-size="14" lengthAdjust="spacing" textLength="70" x="90" y="110.1426">ir : Insecter</text><rect fill="#E2E2F0" height="31.6094" rx="2.5" ry="2.5" style="stroke:#181818;stroke-width:0.5;" width="84" x="83" y="340.3281"/><text fill="#000000" font-family="sans-serif" font-size="14" lengthAdjust="spacing" textLength="70" x="90" y="361.8613">ir : Insecter</text><rect fill="#E2E2F0" height="31.6094" rx="2.5" ry="2.5" style="stroke:#181818;stroke-width:0.5;" width="66" x="177" y="88.6094"/><text fill="#000000" font-family="sans-serif" font-size="14" lengthAdjust="spacing" textLength="52" x="184" y="110.1426">i : Insect</text><rect fill="#E2E2F0" height="31.6094" rx="2.5" ry="2.5" style="stroke:#181818;stroke-width:0.5;" width="66" x="177" y="340.3281"/><text fill="#000000" font-family="sans-serif" font-size="14" lengthAdjust="spacing" textLength="52" x="184" y="361.8613">i : Insect</text><rect fill="#E2E2F0" height="31.6094" rx="2.5" ry="2.5" style="stroke:#181818;stroke-width:0.5;" width="153" x="253" y="88.6094"/><text fill="#000000" font-family="sans-serif" font-size="14" lengthAdjust="spacing" textLength="139" x="260" y="110.1426">mt : MushroomThread</text><rect fill="#E2E2F0" height="31.6094" rx="2.5" ry="2.5" style="stroke:#181818;stroke-width:0.5;" width="153" x="253" y="340.3281"/><text fill="#000000" font-family="sans-serif" font-size="14" lengthAdjust="spacing" textLength="139" x="260" y="361.8613">mt : MushroomThread</text><rect fill="#E2E2F0" height="31.6094" rx="2.5" ry="2.5" style="stroke:#181818;stroke-width:0.5;" width="74" x="416" y="88.6094"/><text fill="#000000" font-family="sans-serif" font-size="14" lengthAdjust="spacing" textLength="60" x="423" y="110.1426">t : Tecton</text><rect fill="#E2E2F0" height="31.6094" rx="2.5" ry="2.5" style="stroke:#181818;stroke-width:0.5;" width="74" x="416" y="340.3281"/><text fill="#000000" font-family="sans-serif" font-size="14" lengthAdjust="spacing" textLength="60" x="423" y="361.8613">t : Tecton</text><rect fill="#FFFFFF" height="201.1094" style="stroke:#181818;stroke-width:1.0;" width="10" x="34" y="131.2188"/><rect fill="#FFFFFF" height="178.7578" style="stroke:#181818;stroke-width:1.0;" width="10" x="120" y="153.5703"/><rect fill="#FFFFFF" height="147.4063" style="stroke:#181818;stroke-width:1.0;" width="10" x="205" y="183.9219"/><rect fill="#FFFFFF" height="14" style="stroke:#181818;stroke-width:1.0;" width="10" x="324.5" y="271.9766"/><polygon fill="#181818" points="108,149.5703,118,153.5703,108,157.5703,112,153.5703" style="stroke:#181818;stroke-width:1.0;"/><line style="stroke:#181818;stroke-width:1.0;" x1="44" x2="114" y1="153.5703" y2="153.5703"/><text fill="#000000" font-family="sans-serif" font-size="13" lengthAdjust="spacing" textLength="41" x="51" y="148.7139">cut(mt)</text><polygon fill="#181818" points="193,179.9219,203,183.9219,193,187.9219,197,183.9219" style="stroke:#181818;stroke-width:1.0;"/><line style="stroke:#181818;stroke-width:1.0;" x1="130" x2="199" y1="183.9219" y2="183.9219"/><text fill="#000000" font-family="sans-serif" font-size="13" lengthAdjust="spacing" textLength="41" x="137" y="179.0654">cut(mt)</text><path d="M73,198.9219 L134,198.9219 L134,207.2734 L124,217.2734 L73,217.2734 L73,198.9219 " fill="#EEEEEE" style="stroke:#000000;stroke-width:1.5;"/><rect fill="none" height="125.4063" style="stroke:#000000;stroke-width:1.5;" width="343" x="73" y="198.9219"/><text fill="#000000" font-family="sans-serif" font-size="13" font-weight="bold" lengthAdjust="spacing" textLength="16" x="88" y="213.417">alt</text><text fill="#000000" font-family="sans-serif" font-size="11" font-weight="bold" lengthAdjust="spacing" textLength="83" x="149" y="212.3408">[clawParalized]</text><polygon fill="#181818" points="141,235.625,131,239.625,141,243.625,137,239.625" style="stroke:#181818;stroke-width:1.0;"/><line style="stroke:#181818;stroke-width:1.0;stroke-dasharray:2.0,2.0;" x1="135" x2="204" y1="239.625" y2="239.625"/><text fill="#000000" font-family="sans-serif" font-size="13" lengthAdjust="spacing" textLength="27" x="147" y="234.7686">false</text><line style="stroke:#000000;stroke-width:1.0;stroke-dasharray:2.0,2.0;" x1="73" x2="416" y1="248.625" y2="248.625"/><polygon fill="#181818" points="312.5,267.9766,322.5,271.9766,312.5,275.9766,316.5,271.9766" style="stroke:#181818;stroke-width:1.0;"/><line style="stroke:#181818;stroke-width:1.0;" x1="215" x2="318.5" y1="271.9766" y2="271.9766"/><text fill="#000000" font-family="sans-serif" font-size="13" lengthAdjust="spacing" textLength="46" x="222" y="267.1201">gotCut()</text><polygon fill="#181818" points="226,281.9766,216,285.9766,226,289.9766,222,285.9766" style="stroke:#181818;stroke-width:1.0;"/><line style="stroke:#181818;stroke-width:1.0;stroke-dasharray:2.0,2.0;" x1="220" x2="328.5" y1="285.9766" y2="285.9766"/><polygon fill="#181818" points="141,312.3281,131,316.3281,141,320.3281,137,316.3281" style="stroke:#181818;stroke-width:1.0;"/><line style="stroke:#181818;stroke-width:1.0;stroke-dasharray:2.0,2.0;" x1="135" x2="204" y1="316.3281" y2="316.3281"/><text fill="#000000" font-family="sans-serif" font-size="13" lengthAdjust="spacing" textLength="22" x="147" y="311.4717">true</text><!--SRC=[NP11Zi8m34NtFeN52XQzG8NOiCgYqWZr0bPh85AQ8CTbf3azJa2qdIoYnF_v-oVgDJ2wc7bG76RDg7TX6W5eq2HuJb4bXS023nBrWtzGLDnvmVRJnh93okWk6yAGB_7MjmQJcjpD-IufJNsTMR5kYnMgDuiKgzhNNFv9okjeon6RaoLforFsanvMkELpboelwY8Q6Em30lt-a53mVpm2shAMOzEWinXN2fa1kEnLAcPTYxUaP_CxrEBNiQlN3rWiteMHLyJ_2Iep0ySHLfI35m00]--></g></svg>