<?xml version="1.0" encoding="us-ascii" standalone="no"?><svg xmlns="http://www.w3.org/2000/svg" xmlns:xlink="http://www.w3.org/1999/xlink" contentStyleType="text/css" height="356px" preserveAspectRatio="none" style="width:538px;height:356px;background:#FFFFFF;" version="1.1" viewBox="0 0 538 356" width="538px" zoomAndPan="magnify"><defs/><g><text fill="#000000" font-family="sans-serif" font-size="14" font-weight="bold" lengthAdjust="spacing" textLength="195" x="170.5" y="29.5332">Player starts the application</text><rect fill="#FFFFFF" height="102.7031" style="stroke:#181818;stroke-width:1.0;" width="10" x="236" y="153.5703"/><rect fill="#FFFFFF" height="14" style="stroke:#181818;stroke-width:1.0;" width="10" x="344.5" y="183.9219"/><rect fill="#FFFFFF" height="14" style="stroke:#181818;stroke-width:1.0;" width="10" x="469" y="228.2734"/><line style="stroke:#181818;stroke-width:0.5;stroke-dasharray:5.0,5.0;" x1="28" x2="28" y1="121.2188" y2="274.2734"/><line style="stroke:#181818;stroke-width:0.5;stroke-dasharray:5.0,5.0;" x1="241" x2="241" y1="121.2188" y2="274.2734"/><line style="stroke:#181818;stroke-width:0.5;stroke-dasharray:5.0,5.0;" x1="349" x2="349" y1="121.2188" y2="274.2734"/><line style="stroke:#181818;stroke-width:0.5;stroke-dasharray:5.0,5.0;" x1="474" x2="474" y1="121.2188" y2="274.2734"/><text fill="#000000" font-family="sans-serif" font-size="14" lengthAdjust="spacing" textLength="40" x="5" y="118.1426">Player</text><ellipse cx="28" cy="52.1094" fill="#E2E2F0" rx="8" ry="8" style="stroke:#181818;stroke-width:0.5;"/><path d="M28,60.1094 L28,87.1094 M15,68.1094 L41,68.1094 M28,87.1094 L15,102.1094 M28,87.1094 L41,102.1094 " fill="none" style="stroke:#181818;stroke-width:0.5;"/><text fill="#000000" font-family="sans-serif" font-size="14" lengthAdjust="spacing" textLength="40" x="5" y="287.8066">Player</text><ellipse cx="28" cy="299.3828" fill="#E2E2F0" rx="8" ry="8" style="stroke:#181818;stroke-width:0.5;"/><path d="M28,307.3828 L28,334.3828 M15,315.3828 L41,315.3828 M28,334.3828 L15,349.3828 M28,334.3828 L41,349.3828 " fill="none" style="stroke:#181818;stroke-width:0.5;"/><rect fill="#E2E2F0" height="31.6094" rx="2.5" ry="2.5" style="stroke:#181818;stroke-width:0.5;" width="84" x="199" y="88.6094"/><text fill="#000000" font-family="sans-serif" font-size="14" lengthAdjust="spacing" textLength="70" x="206" y="110.1426">w : Window</text><rect fill="#E2E2F0" height="31.6094" rx="2.5" ry="2.5" style="stroke:#181818;stroke-width:0.5;" width="84" x="199" y="273.2734"/><text fill="#000000" font-family="sans-serif" font-size="14" lengthAdjust="spacing" textLength="70" x="206" y="294.8066">w : Window</text><rect fill="#E2E2F0" height="31.6094" rx="2.5" ry="2.5" style="stroke:#181818;stroke-width:0.5;" width="113" x="293" y="88.6094"/><text fill="#000000" font-family="sans-serif" font-size="14" lengthAdjust="spacing" textLength="99" x="300" y="110.1426">mm : MainMenu</text><rect fill="#E2E2F0" height="31.6094" rx="2.5" ry="2.5" style="stroke:#181818;stroke-width:0.5;" width="113" x="293" y="273.2734"/><text fill="#000000" font-family="sans-serif" font-size="14" lengthAdjust="spacing" textLength="99" x="300" y="294.8066">mm : MainMenu</text><rect fill="#E2E2F0" height="31.6094" rx="2.5" ry="2.5" style="stroke:#181818;stroke-width:0.5;" width="116" x="416" y="88.6094"/><text fill="#000000" font-family="sans-serif" font-size="14" lengthAdjust="spacing" textLength="102" x="423" y="110.1426">gp : GamePanel</text><rect fill="#E2E2F0" height="31.6094" rx="2.5" ry="2.5" style="stroke:#181818;stroke-width:0.5;" width="116" x="416" y="273.2734"/><text fill="#000000" font-family="sans-serif" font-size="14" lengthAdjust="spacing" textLength="102" x="423" y="294.8066">gp : GamePanel</text><rect fill="#FFFFFF" height="102.7031" style="stroke:#181818;stroke-width:1.0;" width="10" x="236" y="153.5703"/><rect fill="#FFFFFF" height="14" style="stroke:#181818;stroke-width:1.0;" width="10" x="344.5" y="183.9219"/><rect fill="#FFFFFF" height="14" style="stroke:#181818;stroke-width:1.0;" width="10" x="469" y="228.2734"/><polygon fill="#181818" points="224,149.5703,234,153.5703,224,157.5703,228,153.5703" style="stroke:#181818;stroke-width:1.0;"/><line style="stroke:#181818;stroke-width:1.0;" x1="28" x2="230" y1="153.5703" y2="153.5703"/><text fill="#000000" font-family="sans-serif" font-size="13" lengthAdjust="spacing" textLength="189" x="35" y="148.7139">Starts the application (Window())</text><polygon fill="#181818" points="332.5,179.9219,342.5,183.9219,332.5,187.9219,336.5,183.9219" style="stroke:#181818;stroke-width:1.0;"/><line style="stroke:#181818;stroke-width:1.0;" x1="246" x2="338.5" y1="183.9219" y2="183.9219"/><text fill="#000000" font-family="sans-serif" font-size="13" lengthAdjust="spacing" textLength="68" x="253" y="179.0654">MainMenu()</text><polygon fill="#181818" points="257,193.9219,247,197.9219,257,201.9219,253,197.9219" style="stroke:#181818;stroke-width:1.0;"/><line style="stroke:#181818;stroke-width:1.0;" x1="251" x2="348.5" y1="197.9219" y2="197.9219"/><polygon fill="#181818" points="457,224.2734,467,228.2734,457,232.2734,461,228.2734" style="stroke:#181818;stroke-width:1.0;"/><line style="stroke:#181818;stroke-width:1.0;" x1="246" x2="463" y1="228.2734" y2="228.2734"/><text fill="#000000" font-family="sans-serif" font-size="13" lengthAdjust="spacing" textLength="76" x="253" y="223.417">GamePanel()</text><polygon fill="#181818" points="257,238.2734,247,242.2734,257,246.2734,253,242.2734" style="stroke:#181818;stroke-width:1.0;"/><line style="stroke:#181818;stroke-width:1.0;" x1="251" x2="473" y1="242.2734" y2="242.2734"/><polygon fill="#181818" points="39,252.2734,29,256.2734,39,260.2734,35,256.2734" style="stroke:#181818;stroke-width:1.0;"/><line style="stroke:#181818;stroke-width:1.0;" x1="33" x2="240" y1="256.2734" y2="256.2734"/><!--SRC=[RP0n2iCm34Ltdq9aQJBq0XcwTF1aC7JmB1BJ6XpRE6f3Rr_L2SIXNVNVbnuYHzw2zlYs6MR2J3FGmmAcvDs0v68G0WUAUOD4OiODBc4WQ1RemRWmngK1dC4SqsdYMA4BoePd0PGw4lV4XCJ9QWpM5qHg8KvyqRsGB5nZe1ozvyERvFa2feVRNrLeLvcswuhrkiC8ysqfjSkqtHwpar9bhHXjFIqjgIl1kiQUKl_KU5fgsxEgn8WF]--></g></svg>