<?xml version="1.0" encoding="us-ascii" standalone="no"?><svg xmlns="http://www.w3.org/2000/svg" xmlns:xlink="http://www.w3.org/1999/xlink" contentStyleType="text/css" height="418px" preserveAspectRatio="none" style="width:599px;height:418px;background:#FFFFFF;" version="1.1" viewBox="0 0 599 418" width="599px" zoomAndPan="magnify"><defs/><g><text fill="#000000" font-family="sans-serif" font-size="14" font-weight="bold" lengthAdjust="spacing" textLength="398" x="99.5" y="29.5332">Mushroomer throws speeding spore from stem to tecton</text><rect fill="#FFFFFF" height="196.1094" style="stroke:#181818;stroke-width:1.0;" width="10" x="34" y="131.2188"/><rect fill="#FFFFFF" height="164.7578" style="stroke:#181818;stroke-width:1.0;" width="10" x="138.5" y="153.5703"/><rect fill="#FFFFFF" height="134.4063" style="stroke:#181818;stroke-width:1.0;" width="10" x="280" y="183.9219"/><rect fill="#FFFFFF" height="30.3516" style="stroke:#181818;stroke-width:1.0;" width="10" x="398" y="214.2734"/><line style="stroke:#181818;stroke-width:0.5;stroke-dasharray:5.0,5.0;" x1="39" x2="39" y1="121.2188" y2="336.3281"/><line style="stroke:#181818;stroke-width:0.5;stroke-dasharray:5.0,5.0;" x1="143" x2="143" y1="121.2188" y2="336.3281"/><line style="stroke:#181818;stroke-width:0.5;stroke-dasharray:5.0,5.0;" x1="285" x2="285" y1="121.2188" y2="336.3281"/><line style="stroke:#181818;stroke-width:0.5;stroke-dasharray:5.0,5.0;" x1="403" x2="403" y1="121.2188" y2="336.3281"/><line style="stroke:#181818;stroke-width:0.5;stroke-dasharray:5.0,5.0;" x1="521" x2="521" y1="121.2188" y2="336.3281"/><text fill="#000000" font-family="sans-serif" font-size="14" lengthAdjust="spacing" textLength="62" x="5" y="118.1426">Controller</text><ellipse cx="39" cy="52.1094" fill="#E2E2F0" rx="8" ry="8" style="stroke:#181818;stroke-width:0.5;"/><path d="M39,60.1094 L39,87.1094 M26,68.1094 L52,68.1094 M39,87.1094 L26,102.1094 M39,87.1094 L52,102.1094 " fill="none" style="stroke:#181818;stroke-width:0.5;"/><text fill="#000000" font-family="sans-serif" font-size="14" lengthAdjust="spacing" textLength="62" x="5" y="349.8613">Controller</text><ellipse cx="39" cy="361.4375" fill="#E2E2F0" rx="8" ry="8" style="stroke:#181818;stroke-width:0.5;"/><path d="M39,369.4375 L39,396.4375 M26,377.4375 L52,377.4375 M39,396.4375 L26,411.4375 M39,396.4375 L52,411.4375 " fill="none" style="stroke:#181818;stroke-width:0.5;"/><rect fill="#E2E2F0" height="31.6094" rx="2.5" ry="2.5" style="stroke:#181818;stroke-width:0.5;" width="121" x="83" y="88.6094"/><text fill="#000000" font-family="sans-serif" font-size="14" lengthAdjust="spacing" textLength="107" x="90" y="110.1426">mr : Mushroomer</text><rect fill="#E2E2F0" height="31.6094" rx="2.5" ry="2.5" style="stroke:#181818;stroke-width:0.5;" width="121" x="83" y="335.3281"/><text fill="#000000" font-family="sans-serif" font-size="14" lengthAdjust="spacing" textLength="107" x="90" y="356.8613">mr : Mushroomer</text><rect fill="#E2E2F0" height="31.6094" rx="2.5" ry="2.5" style="stroke:#181818;stroke-width:0.5;" width="142" x="214" y="88.6094"/><text fill="#000000" font-family="sans-serif" font-size="14" lengthAdjust="spacing" textLength="128" x="221" y="110.1426">ms : MushroomStem</text><rect fill="#E2E2F0" height="31.6094" rx="2.5" ry="2.5" style="stroke:#181818;stroke-width:0.5;" width="142" x="214" y="335.3281"/><text fill="#000000" font-family="sans-serif" font-size="14" lengthAdjust="spacing" textLength="128" x="221" y="356.8613">ms : MushroomStem</text><rect fill="#E2E2F0" height="31.6094" rx="2.5" ry="2.5" style="stroke:#181818;stroke-width:0.5;" width="74" x="366" y="88.6094"/><text fill="#000000" font-family="sans-serif" font-size="14" lengthAdjust="spacing" textLength="60" x="373" y="110.1426">t : Tecton</text><rect fill="#E2E2F0" height="31.6094" rx="2.5" ry="2.5" style="stroke:#181818;stroke-width:0.5;" width="74" x="366" y="335.3281"/><text fill="#000000" font-family="sans-serif" font-size="14" lengthAdjust="spacing" textLength="60" x="373" y="356.8613">t : Tecton</text><rect fill="#E2E2F0" height="31.6094" rx="2.5" ry="2.5" style="stroke:#181818;stroke-width:0.5;" width="143" x="450" y="88.6094"/><text fill="#000000" font-family="sans-serif" font-size="14" lengthAdjust="spacing" textLength="129" x="457" y="110.1426">sp : Speeding Spore</text><rect fill="#E2E2F0" height="31.6094" rx="2.5" ry="2.5" style="stroke:#181818;stroke-width:0.5;" width="143" x="450" y="335.3281"/><text fill="#000000" font-family="sans-serif" font-size="14" lengthAdjust="spacing" textLength="129" x="457" y="356.8613">sp : Speeding Spore</text><rect fill="#FFFFFF" height="196.1094" style="stroke:#181818;stroke-width:1.0;" width="10" x="34" y="131.2188"/><rect fill="#FFFFFF" height="164.7578" style="stroke:#181818;stroke-width:1.0;" width="10" x="138.5" y="153.5703"/><rect fill="#FFFFFF" height="134.4063" style="stroke:#181818;stroke-width:1.0;" width="10" x="280" y="183.9219"/><rect fill="#FFFFFF" height="30.3516" style="stroke:#181818;stroke-width:1.0;" width="10" x="398" y="214.2734"/><polygon fill="#181818" points="126.5,149.5703,136.5,153.5703,126.5,157.5703,130.5,153.5703" style="stroke:#181818;stroke-width:1.0;"/><line style="stroke:#181818;stroke-width:1.0;" x1="44" x2="132.5" y1="153.5703" y2="153.5703"/><text fill="#000000" font-family="sans-serif" font-size="13" lengthAdjust="spacing" textLength="55" x="51" y="148.7139">add(t, sp)</text><polygon fill="#181818" points="268,179.9219,278,183.9219,268,187.9219,272,183.9219" style="stroke:#181818;stroke-width:1.0;"/><line style="stroke:#181818;stroke-width:1.0;" x1="148.5" x2="274" y1="183.9219" y2="183.9219"/><text fill="#000000" font-family="sans-serif" font-size="13" lengthAdjust="spacing" textLength="55" x="155.5" y="179.0654">add(t, sp)</text><polygon fill="#181818" points="386,210.2734,396,214.2734,386,218.2734,390,214.2734" style="stroke:#181818;stroke-width:1.0;"/><line style="stroke:#181818;stroke-width:1.0;" x1="290" x2="392" y1="214.2734" y2="214.2734"/><text fill="#000000" font-family="sans-serif" font-size="13" lengthAdjust="spacing" textLength="43" x="297" y="209.417">add(sp)</text><polygon fill="#181818" points="301,240.625,291,244.625,301,248.625,297,244.625" style="stroke:#181818;stroke-width:1.0;"/><line style="stroke:#181818;stroke-width:1.0;stroke-dasharray:2.0,2.0;" x1="295" x2="402" y1="244.625" y2="244.625"/><text fill="#000000" font-family="sans-serif" font-size="13" lengthAdjust="spacing" textLength="22" x="307" y="239.7686">true</text><line style="stroke:#181818;stroke-width:1.0;" x1="290" x2="332" y1="274.9766" y2="274.9766"/><line style="stroke:#181818;stroke-width:1.0;" x1="332" x2="332" y1="274.9766" y2="287.9766"/><line style="stroke:#181818;stroke-width:1.0;" x1="291" x2="332" y1="287.9766" y2="287.9766"/><polygon fill="#181818" points="301,283.9766,291,287.9766,301,291.9766,297,287.9766" style="stroke:#181818;stroke-width:1.0;"/><text fill="#000000" font-family="sans-serif" font-size="13" lengthAdjust="spacing" textLength="63" x="297" y="270.1201">remove(sp)</text><polygon fill="#181818" points="154.5,314.3281,144.5,318.3281,154.5,322.3281,150.5,318.3281" style="stroke:#181818;stroke-width:1.0;"/><line style="stroke:#181818;stroke-width:1.0;stroke-dasharray:2.0,2.0;" x1="148.5" x2="284" y1="318.3281" y2="318.3281"/><text fill="#000000" font-family="sans-serif" font-size="13" lengthAdjust="spacing" textLength="22" x="160.5" y="313.4717">true</text><!--SRC=[TOzD2i9034RtSuhWIi5UGCIDwu8uSu71HXteD2MJrkkR6PN-WAkcVUzBlagG5g4UqfE98ZA83gy4gKTiGlVGWHZXpXGX2KOG0i6RK6UCrmV3cJfXQbjaqtkMS0kzxmGsaU4mMxm1dw2-hfmqSwok_rXsQObAhjmis2rfwXNRNrsRwnRDNah3C7h1USbfXEgaZJJjcsOhU_tLtPJGgaPXLkm_nQfYi-A-nWAxGezLLR3mWAR15VsjPumqOidhqPmfdzUXV77-Udq3]--></g></svg>