<?xml version="1.0" encoding="us-ascii" standalone="no"?><svg xmlns="http://www.w3.org/2000/svg" xmlns:xlink="http://www.w3.org/1999/xlink" contentStyleType="text/css" height="421px" preserveAspectRatio="none" style="width:756px;height:421px;background:#FFFFFF;" version="1.1" viewBox="0 0 756 421" width="756px" zoomAndPan="magnify"><defs/><g><!--class Entity--><g id="elem_Entity"><rect fill="#F1F1F1" height="48" id="Entity" rx="2.5" ry="2.5" style="stroke:#181818;stroke-width:0.5;" width="67" x="278.5" y="7"/><ellipse cx="293.5" cy="23" fill="#ADD1B2" rx="11" ry="11" style="stroke:#181818;stroke-width:1.0;"/><path d="M296.2656,18.875 Q296.4219,18.6563 296.6094,18.5469 Q296.7969,18.4375 297.0156,18.4375 Q297.3906,18.4375 297.625,18.7031 Q297.8594,18.9531 297.8594,19.5625 L297.8594,21.0156 Q297.8594,21.625 297.625,21.8906 Q297.3906,22.1563 297.0156,22.1563 Q296.6719,22.1563 296.4688,21.9531 Q296.2656,21.7656 296.1563,21.25 Q296.1094,20.8906 295.9219,20.7031 Q295.5938,20.3281 294.9844,20.1094 Q294.375,19.8906 293.75,19.8906 Q292.9844,19.8906 292.3438,20.2188 Q291.7188,20.5469 291.2188,21.2969 Q290.7344,22.0469 290.7344,23.0781 L290.7344,24.1719 Q290.7344,25.4063 291.625,26.2344 Q292.5156,27.0469 294.1094,27.0469 Q295.0469,27.0469 295.7031,26.7969 Q296.0938,26.6406 296.5156,26.2031 Q296.7813,25.9375 296.9219,25.8594 Q297.0781,25.7813 297.2813,25.7813 Q297.6094,25.7813 297.8594,26.0469 Q298.125,26.2969 298.125,26.6406 Q298.125,26.9844 297.7813,27.3906 Q297.2813,27.9688 296.4844,28.2969 Q295.4063,28.75 294.1094,28.75 Q292.5938,28.75 291.3906,28.125 Q290.4063,27.625 289.7188,26.5625 Q289.0313,25.4844 289.0313,24.2031 L289.0313,23.0469 Q289.0313,21.7188 289.6406,20.5781 Q290.2656,19.4219 291.3594,18.8125 Q292.4531,18.1875 293.6875,18.1875 Q294.4219,18.1875 295.0625,18.3594 Q295.7188,18.5156 296.2656,18.875 Z " fill="#000000"/><text fill="#000000" font-family="sans-serif" font-size="14" lengthAdjust="spacing" textLength="35" x="307.5" y="28.7285">Entity</text><line style="stroke:#181818;stroke-width:0.5;" x1="279.5" x2="344.5" y1="39" y2="39"/><line style="stroke:#181818;stroke-width:0.5;" x1="279.5" x2="344.5" y1="47" y2="47"/></g><!--class Spore--><g id="elem_Spore"><rect codeLine="5" fill="#F1F1F1" height="83.2188" id="Spore" rx="2.5" ry="2.5" style="stroke:#181818;stroke-width:0.5;" width="119" x="252.5" y="115"/><ellipse cx="289.55" cy="131" fill="#A9DCDF" rx="11" ry="11" style="stroke:#181818;stroke-width:1.0;"/><path d="M291.7375,132.7656 L287.5969,132.7656 L287.175,133.7969 L287.5969,133.7969 Q288.2063,133.7969 288.4719,134.0313 Q288.7375,134.2656 288.7375,134.6563 Q288.7375,135.0313 288.4719,135.2656 Q288.2063,135.5 287.5969,135.5 L285.3,135.5 Q284.6906,135.5 284.4406,135.2656 Q284.175,135.0313 284.175,134.6406 Q284.175,134.2656 284.4563,134.0313 Q284.7219,133.7813 285.3469,133.7969 L288.0188,127.1406 L286.9094,127.1406 Q286.3,127.1406 286.0344,126.9063 Q285.7688,126.6719 285.7688,126.2813 Q285.7688,125.9063 286.0344,125.6719 Q286.3,125.4375 286.9094,125.4375 L290.5813,125.4375 L293.9719,133.7969 Q294.5656,133.7969 294.7531,133.9375 Q295.1438,134.2031 295.1438,134.6563 Q295.1438,135.0313 294.8781,135.2656 Q294.6281,135.5 294.0188,135.5 L291.7219,135.5 Q291.1125,135.5 290.8469,135.2656 Q290.5813,135.0313 290.5813,134.6406 Q290.5813,134.2656 290.8469,134.0313 Q291.1125,133.7969 291.7219,133.7969 L292.1438,133.7969 L291.7375,132.7656 Z M291.0188,131.0625 L289.6594,127.6875 L288.2844,131.0625 L291.0188,131.0625 Z " fill="#000000"/><text fill="#000000" font-family="sans-serif" font-size="14" font-style="italic" lengthAdjust="spacing" textLength="38" x="308.45" y="136.7285">Spore</text><line style="stroke:#181818;stroke-width:0.5;" x1="253.5" x2="370.5" y1="147" y2="147"/><text fill="#000000" font-family="sans-serif" font-size="14" lengthAdjust="spacing" textLength="107" x="258.5" y="165.5332">nutrition : Integer</text><text fill="#000000" font-family="sans-serif" font-size="14" lengthAdjust="spacing" text-decoration="underline" textLength="83" x="258.5" y="183.1426">effect : Effect</text><line style="stroke:#181818;stroke-width:0.5;" x1="253.5" x2="370.5" y1="190.2188" y2="190.2188"/></g><!--class Effect--><g id="elem_Effect"><rect fill="#F1F1F1" height="48" id="Effect" rx="2.5" ry="2.5" style="stroke:#181818;stroke-width:0.5;" width="68" x="7" y="366"/><ellipse cx="22" cy="382" fill="#ADD1B2" rx="11" ry="11" style="stroke:#181818;stroke-width:1.0;"/><path d="M24.7656,377.875 Q24.9219,377.6563 25.1094,377.5469 Q25.2969,377.4375 25.5156,377.4375 Q25.8906,377.4375 26.125,377.7031 Q26.3594,377.9531 26.3594,378.5625 L26.3594,380.0156 Q26.3594,380.625 26.125,380.8906 Q25.8906,381.1563 25.5156,381.1563 Q25.1719,381.1563 24.9688,380.9531 Q24.7656,380.7656 24.6563,380.25 Q24.6094,379.8906 24.4219,379.7031 Q24.0938,379.3281 23.4844,379.1094 Q22.875,378.8906 22.25,378.8906 Q21.4844,378.8906 20.8438,379.2188 Q20.2188,379.5469 19.7188,380.2969 Q19.2344,381.0469 19.2344,382.0781 L19.2344,383.1719 Q19.2344,384.4063 20.125,385.2344 Q21.0156,386.0469 22.6094,386.0469 Q23.5469,386.0469 24.2031,385.7969 Q24.5938,385.6406 25.0156,385.2031 Q25.2813,384.9375 25.4219,384.8594 Q25.5781,384.7813 25.7813,384.7813 Q26.1094,384.7813 26.3594,385.0469 Q26.625,385.2969 26.625,385.6406 Q26.625,385.9844 26.2813,386.3906 Q25.7813,386.9688 24.9844,387.2969 Q23.9063,387.75 22.6094,387.75 Q21.0938,387.75 19.8906,387.125 Q18.9063,386.625 18.2188,385.5625 Q17.5313,384.4844 17.5313,383.2031 L17.5313,382.0469 Q17.5313,380.7188 18.1406,379.5781 Q18.7656,378.4219 19.8594,377.8125 Q20.9531,377.1875 22.1875,377.1875 Q22.9219,377.1875 23.5625,377.3594 Q24.2188,377.5156 24.7656,377.875 Z " fill="#000000"/><text fill="#000000" font-family="sans-serif" font-size="14" lengthAdjust="spacing" textLength="36" x="36" y="387.7285">Effect</text><line style="stroke:#181818;stroke-width:0.5;" x1="8" x2="74" y1="398" y2="398"/><line style="stroke:#181818;stroke-width:0.5;" x1="8" x2="74" y1="406" y2="406"/></g><!--class SlowingSpore--><g id="elem_SlowingSpore"><rect codeLine="11" fill="#F1F1F1" height="48" id="SlowingSpore" rx="2.5" ry="2.5" style="stroke:#181818;stroke-width:0.5;" width="118" x="94" y="258"/><ellipse cx="109" cy="274" fill="#ADD1B2" rx="11" ry="11" style="stroke:#181818;stroke-width:1.0;"/><path d="M111.7656,269.875 Q111.9219,269.6563 112.1094,269.5469 Q112.2969,269.4375 112.5156,269.4375 Q112.8906,269.4375 113.125,269.7031 Q113.3594,269.9531 113.3594,270.5625 L113.3594,272.0156 Q113.3594,272.625 113.125,272.8906 Q112.8906,273.1563 112.5156,273.1563 Q112.1719,273.1563 111.9688,272.9531 Q111.7656,272.7656 111.6563,272.25 Q111.6094,271.8906 111.4219,271.7031 Q111.0938,271.3281 110.4844,271.1094 Q109.875,270.8906 109.25,270.8906 Q108.4844,270.8906 107.8438,271.2188 Q107.2188,271.5469 106.7188,272.2969 Q106.2344,273.0469 106.2344,274.0781 L106.2344,275.1719 Q106.2344,276.4063 107.125,277.2344 Q108.0156,278.0469 109.6094,278.0469 Q110.5469,278.0469 111.2031,277.7969 Q111.5938,277.6406 112.0156,277.2031 Q112.2813,276.9375 112.4219,276.8594 Q112.5781,276.7813 112.7813,276.7813 Q113.1094,276.7813 113.3594,277.0469 Q113.625,277.2969 113.625,277.6406 Q113.625,277.9844 113.2813,278.3906 Q112.7813,278.9688 111.9844,279.2969 Q110.9063,279.75 109.6094,279.75 Q108.0938,279.75 106.8906,279.125 Q105.9063,278.625 105.2188,277.5625 Q104.5313,276.4844 104.5313,275.2031 L104.5313,274.0469 Q104.5313,272.7188 105.1406,271.5781 Q105.7656,270.4219 106.8594,269.8125 Q107.9531,269.1875 109.1875,269.1875 Q109.9219,269.1875 110.5625,269.3594 Q111.2188,269.5156 111.7656,269.875 Z " fill="#000000"/><text fill="#000000" font-family="sans-serif" font-size="14" lengthAdjust="spacing" textLength="86" x="123" y="279.7285">SlowingSpore</text><line style="stroke:#181818;stroke-width:0.5;" x1="95" x2="211" y1="290" y2="290"/><line style="stroke:#181818;stroke-width:0.5;" x1="95" x2="211" y1="298" y2="298"/></g><!--class SpeedingSpore--><g id="elem_SpeedingSpore"><rect codeLine="15" fill="#F1F1F1" height="48" id="SpeedingSpore" rx="2.5" ry="2.5" style="stroke:#181818;stroke-width:0.5;" width="130" x="247" y="258"/><ellipse cx="262" cy="274" fill="#ADD1B2" rx="11" ry="11" style="stroke:#181818;stroke-width:1.0;"/><path d="M264.7656,269.875 Q264.9219,269.6563 265.1094,269.5469 Q265.2969,269.4375 265.5156,269.4375 Q265.8906,269.4375 266.125,269.7031 Q266.3594,269.9531 266.3594,270.5625 L266.3594,272.0156 Q266.3594,272.625 266.125,272.8906 Q265.8906,273.1563 265.5156,273.1563 Q265.1719,273.1563 264.9688,272.9531 Q264.7656,272.7656 264.6563,272.25 Q264.6094,271.8906 264.4219,271.7031 Q264.0938,271.3281 263.4844,271.1094 Q262.875,270.8906 262.25,270.8906 Q261.4844,270.8906 260.8438,271.2188 Q260.2188,271.5469 259.7188,272.2969 Q259.2344,273.0469 259.2344,274.0781 L259.2344,275.1719 Q259.2344,276.4063 260.125,277.2344 Q261.0156,278.0469 262.6094,278.0469 Q263.5469,278.0469 264.2031,277.7969 Q264.5938,277.6406 265.0156,277.2031 Q265.2813,276.9375 265.4219,276.8594 Q265.5781,276.7813 265.7813,276.7813 Q266.1094,276.7813 266.3594,277.0469 Q266.625,277.2969 266.625,277.6406 Q266.625,277.9844 266.2813,278.3906 Q265.7813,278.9688 264.9844,279.2969 Q263.9063,279.75 262.6094,279.75 Q261.0938,279.75 259.8906,279.125 Q258.9063,278.625 258.2188,277.5625 Q257.5313,276.4844 257.5313,275.2031 L257.5313,274.0469 Q257.5313,272.7188 258.1406,271.5781 Q258.7656,270.4219 259.8594,269.8125 Q260.9531,269.1875 262.1875,269.1875 Q262.9219,269.1875 263.5625,269.3594 Q264.2188,269.5156 264.7656,269.875 Z " fill="#000000"/><text fill="#000000" font-family="sans-serif" font-size="14" lengthAdjust="spacing" textLength="98" x="276" y="279.7285">SpeedingSpore</text><line style="stroke:#181818;stroke-width:0.5;" x1="248" x2="376" y1="290" y2="290"/><line style="stroke:#181818;stroke-width:0.5;" x1="248" x2="376" y1="298" y2="298"/></g><!--class ParalysingSpore--><g id="elem_ParalysingSpore"><rect codeLine="19" fill="#F1F1F1" height="48" id="ParalysingSpore" rx="2.5" ry="2.5" style="stroke:#181818;stroke-width:0.5;" width="136" x="412" y="258"/><ellipse cx="427" cy="274" fill="#ADD1B2" rx="11" ry="11" style="stroke:#181818;stroke-width:1.0;"/><path d="M429.7656,269.875 Q429.9219,269.6563 430.1094,269.5469 Q430.2969,269.4375 430.5156,269.4375 Q430.8906,269.4375 431.125,269.7031 Q431.3594,269.9531 431.3594,270.5625 L431.3594,272.0156 Q431.3594,272.625 431.125,272.8906 Q430.8906,273.1563 430.5156,273.1563 Q430.1719,273.1563 429.9688,272.9531 Q429.7656,272.7656 429.6563,272.25 Q429.6094,271.8906 429.4219,271.7031 Q429.0938,271.3281 428.4844,271.1094 Q427.875,270.8906 427.25,270.8906 Q426.4844,270.8906 425.8438,271.2188 Q425.2188,271.5469 424.7188,272.2969 Q424.2344,273.0469 424.2344,274.0781 L424.2344,275.1719 Q424.2344,276.4063 425.125,277.2344 Q426.0156,278.0469 427.6094,278.0469 Q428.5469,278.0469 429.2031,277.7969 Q429.5938,277.6406 430.0156,277.2031 Q430.2813,276.9375 430.4219,276.8594 Q430.5781,276.7813 430.7813,276.7813 Q431.1094,276.7813 431.3594,277.0469 Q431.625,277.2969 431.625,277.6406 Q431.625,277.9844 431.2813,278.3906 Q430.7813,278.9688 429.9844,279.2969 Q428.9063,279.75 427.6094,279.75 Q426.0938,279.75 424.8906,279.125 Q423.9063,278.625 423.2188,277.5625 Q422.5313,276.4844 422.5313,275.2031 L422.5313,274.0469 Q422.5313,272.7188 423.1406,271.5781 Q423.7656,270.4219 424.8594,269.8125 Q425.9531,269.1875 427.1875,269.1875 Q427.9219,269.1875 428.5625,269.3594 Q429.2188,269.5156 429.7656,269.875 Z " fill="#000000"/><text fill="#000000" font-family="sans-serif" font-size="14" lengthAdjust="spacing" textLength="104" x="441" y="279.7285">ParalysingSpore</text><line style="stroke:#181818;stroke-width:0.5;" x1="413" x2="547" y1="290" y2="290"/><line style="stroke:#181818;stroke-width:0.5;" x1="413" x2="547" y1="298" y2="298"/></g><!--class ClawParalysingSpore--><g id="elem_ClawParalysingSpore"><rect codeLine="23" fill="#F1F1F1" height="48" id="ClawParalysingSpore" rx="2.5" ry="2.5" style="stroke:#181818;stroke-width:0.5;" width="166" x="583" y="258"/><ellipse cx="598" cy="274" fill="#ADD1B2" rx="11" ry="11" style="stroke:#181818;stroke-width:1.0;"/><path d="M600.7656,269.875 Q600.9219,269.6563 601.1094,269.5469 Q601.2969,269.4375 601.5156,269.4375 Q601.8906,269.4375 602.125,269.7031 Q602.3594,269.9531 602.3594,270.5625 L602.3594,272.0156 Q602.3594,272.625 602.125,272.8906 Q601.8906,273.1563 601.5156,273.1563 Q601.1719,273.1563 600.9688,272.9531 Q600.7656,272.7656 600.6563,272.25 Q600.6094,271.8906 600.4219,271.7031 Q600.0938,271.3281 599.4844,271.1094 Q598.875,270.8906 598.25,270.8906 Q597.4844,270.8906 596.8438,271.2188 Q596.2188,271.5469 595.7188,272.2969 Q595.2344,273.0469 595.2344,274.0781 L595.2344,275.1719 Q595.2344,276.4063 596.125,277.2344 Q597.0156,278.0469 598.6094,278.0469 Q599.5469,278.0469 600.2031,277.7969 Q600.5938,277.6406 601.0156,277.2031 Q601.2813,276.9375 601.4219,276.8594 Q601.5781,276.7813 601.7813,276.7813 Q602.1094,276.7813 602.3594,277.0469 Q602.625,277.2969 602.625,277.6406 Q602.625,277.9844 602.2813,278.3906 Q601.7813,278.9688 600.9844,279.2969 Q599.9063,279.75 598.6094,279.75 Q597.0938,279.75 595.8906,279.125 Q594.9063,278.625 594.2188,277.5625 Q593.5313,276.4844 593.5313,275.2031 L593.5313,274.0469 Q593.5313,272.7188 594.1406,271.5781 Q594.7656,270.4219 595.8594,269.8125 Q596.9531,269.1875 598.1875,269.1875 Q598.9219,269.1875 599.5625,269.3594 Q600.2188,269.5156 600.7656,269.875 Z " fill="#000000"/><text fill="#000000" font-family="sans-serif" font-size="14" lengthAdjust="spacing" textLength="134" x="612" y="279.7285">ClawParalysingSpore</text><line style="stroke:#181818;stroke-width:0.5;" x1="584" x2="748" y1="290" y2="290"/><line style="stroke:#181818;stroke-width:0.5;" x1="584" x2="748" y1="298" y2="298"/></g><!--reverse link Entity to Spore--><g id="link_Entity_Spore"><path codeLine="2" d="M312,73.23 C312,90 312,95.08 312,114.87 " fill="none" id="Entity-backto-Spore" style="stroke:#181818;stroke-width:1.0;"/><polygon fill="none" points="312,55.23,306,73.23,318,73.23,312,55.23" style="stroke:#181818;stroke-width:1.0;"/></g><!--link Spore to Effect--><g id="link_Spore_Effect"><path codeLine="3" d="M252.5,167.83 C199.08,180.18 122.29,206.09 77,258 C50.33,288.57 43.25,337.2 41.47,365.82 " fill="none" id="Spore-Effect" style="stroke:#181818;stroke-width:1.0;"/></g><!--reverse link Spore to SlowingSpore--><g id="link_Spore_SlowingSpore"><path codeLine="10" d="M245.2833,209.3201 C219.7733,229.1301 204.27,241.18 182.72,257.91 " fill="none" id="Spore-backto-SlowingSpore" style="stroke:#181818;stroke-width:1.0;"/><polygon fill="none" points="259.5,198.28,241.6032,204.5812,248.9633,214.059,259.5,198.28" style="stroke:#181818;stroke-width:1.0;"/></g><!--reverse link Spore to SpeedingSpore--><g id="link_Spore_SpeedingSpore"><path codeLine="14" d="M312,216.28 C312,236.09 312,241.18 312,257.91 " fill="none" id="Spore-backto-SpeedingSpore" style="stroke:#181818;stroke-width:1.0;"/><polygon fill="none" points="312,198.28,306,216.28,318,216.28,312,198.28" style="stroke:#181818;stroke-width:1.0;"/></g><!--reverse link Spore to ParalysingSpore--><g id="link_Spore_ParalysingSpore"><path codeLine="18" d="M381.9833,208.9409 C408.9333,228.7509 425.83,241.18 448.6,257.91 " fill="none" id="Spore-backto-ParalysingSpore" style="stroke:#181818;stroke-width:1.0;"/><polygon fill="none" points="367.48,198.28,378.4297,213.7753,385.5369,204.1064,367.48,198.28" style="stroke:#181818;stroke-width:1.0;"/></g><!--reverse link Spore to ClawParalysingSpore--><g id="link_Spore_ClawParalysingSpore"><path codeLine="22" d="M388.6455,184.2389 C451.7955,206.2689 534.23,235.03 599.77,257.9 " fill="none" id="Spore-backto-ClawParalysingSpore" style="stroke:#181818;stroke-width:1.0;"/><polygon fill="none" points="371.65,178.31,386.6692,189.9041,390.6218,178.5737,371.65,178.31" style="stroke:#181818;stroke-width:1.0;"/></g><!--SRC=[ROqn2iCm34Ltdq8Ny0L2jvAXMo0dK5qb68mTR9KGtDmzhkCXY6WGwEl_ztlFbZTu_BI6SGcHLDsWozrF4nbM2j-98ne6up2bqvOLbF5VZfPjyD31opFD5AkU4oDRimDLHFasrguQ_ryukh1QFv-rZNsHid0lH1zflsh2Fs14joMH4Ah8F1skzxcRJyaU]--></g></svg>