<?xml version="1.0" encoding="us-ascii" standalone="no"?><svg xmlns="http://www.w3.org/2000/svg" xmlns:xlink="http://www.w3.org/1999/xlink" contentStyleType="text/css" height="403px" preserveAspectRatio="none" style="width:668px;height:403px;background:#FFFFFF;" version="1.1" viewBox="0 0 668 403" width="668px" zoomAndPan="magnify"><defs/><g><text fill="#000000" font-family="sans-serif" font-size="14" font-weight="bold" lengthAdjust="spacing" textLength="303" x="181.5" y="29.5332">Insecter moves an insect to another tecton</text><rect fill="#FFFFFF" height="119.0547" style="stroke:#181818;stroke-width:1.0;" width="10" x="299" y="183.9219"/><rect fill="#FFFFFF" height="14" style="stroke:#181818;stroke-width:1.0;" width="10" x="619" y="274.9766"/><line style="stroke:#181818;stroke-width:0.5;stroke-dasharray:5.0,5.0;" x1="28" x2="28" y1="121.2188" y2="320.9766"/><line style="stroke:#181818;stroke-width:0.5;stroke-dasharray:5.0,5.0;" x1="180" x2="180" y1="121.2188" y2="320.9766"/><line style="stroke:#181818;stroke-width:0.5;stroke-dasharray:5.0,5.0;" x1="304" x2="304" y1="121.2188" y2="320.9766"/><line style="stroke:#181818;stroke-width:0.5;stroke-dasharray:5.0,5.0;" x1="624" x2="624" y1="121.2188" y2="320.9766"/><text fill="#000000" font-family="sans-serif" font-size="14" lengthAdjust="spacing" textLength="40" x="5" y="118.1426">Player</text><ellipse cx="28" cy="52.1094" fill="#E2E2F0" rx="8" ry="8" style="stroke:#181818;stroke-width:0.5;"/><path d="M28,60.1094 L28,87.1094 M15,68.1094 L41,68.1094 M28,87.1094 L15,102.1094 M28,87.1094 L41,102.1094 " fill="none" style="stroke:#181818;stroke-width:0.5;"/><text fill="#000000" font-family="sans-serif" font-size="14" lengthAdjust="spacing" textLength="40" x="5" y="334.5098">Player</text><ellipse cx="28" cy="346.0859" fill="#E2E2F0" rx="8" ry="8" style="stroke:#181818;stroke-width:0.5;"/><path d="M28,354.0859 L28,381.0859 M15,362.0859 L41,362.0859 M28,381.0859 L15,396.0859 M28,381.0859 L41,396.0859 " fill="none" style="stroke:#181818;stroke-width:0.5;"/><rect fill="#E2E2F0" height="31.6094" rx="2.5" ry="2.5" style="stroke:#181818;stroke-width:0.5;" width="112" x="124" y="88.6094"/><text fill="#000000" font-family="sans-serif" font-size="14" lengthAdjust="spacing" textLength="98" x="131" y="110.1426">ip : InsecterPop</text><rect fill="#E2E2F0" height="31.6094" rx="2.5" ry="2.5" style="stroke:#181818;stroke-width:0.5;" width="112" x="124" y="319.9766"/><text fill="#000000" font-family="sans-serif" font-size="14" lengthAdjust="spacing" textLength="98" x="131" y="341.5098">ip : InsecterPop</text><rect fill="#E2E2F0" height="31.6094" rx="2.5" ry="2.5" style="stroke:#181818;stroke-width:0.5;" width="116" x="246" y="88.6094"/><text fill="#000000" font-family="sans-serif" font-size="14" lengthAdjust="spacing" textLength="102" x="253" y="110.1426">gp : GamePanel</text><rect fill="#E2E2F0" height="31.6094" rx="2.5" ry="2.5" style="stroke:#181818;stroke-width:0.5;" width="116" x="246" y="319.9766"/><text fill="#000000" font-family="sans-serif" font-size="14" lengthAdjust="spacing" textLength="102" x="253" y="341.5098">gp : GamePanel</text><rect fill="#E2E2F0" height="31.6094" rx="2.5" ry="2.5" style="stroke:#181818;stroke-width:0.5;" width="76" x="586" y="88.6094"/><text fill="#000000" font-family="sans-serif" font-size="14" lengthAdjust="spacing" textLength="62" x="593" y="110.1426">p : Parser</text><rect fill="#E2E2F0" height="31.6094" rx="2.5" ry="2.5" style="stroke:#181818;stroke-width:0.5;" width="76" x="586" y="319.9766"/><text fill="#000000" font-family="sans-serif" font-size="14" lengthAdjust="spacing" textLength="62" x="593" y="341.5098">p : Parser</text><rect fill="#FFFFFF" height="119.0547" style="stroke:#181818;stroke-width:1.0;" width="10" x="299" y="183.9219"/><rect fill="#FFFFFF" height="14" style="stroke:#181818;stroke-width:1.0;" width="10" x="619" y="274.9766"/><polygon fill="#181818" points="168,149.5703,178,153.5703,168,157.5703,172,153.5703" style="stroke:#181818;stroke-width:1.0;"/><line style="stroke:#181818;stroke-width:1.0;" x1="28" x2="174" y1="153.5703" y2="153.5703"/><text fill="#000000" font-family="sans-serif" font-size="13" lengthAdjust="spacing" textLength="128" x="35" y="148.7139">Clicks on move button</text><polygon fill="#181818" points="287,179.9219,297,183.9219,287,187.9219,291,183.9219" style="stroke:#181818;stroke-width:1.0;"/><line style="stroke:#181818;stroke-width:1.0;" x1="180" x2="293" y1="183.9219" y2="183.9219"/><text fill="#000000" font-family="sans-serif" font-size="13" lengthAdjust="spacing" textLength="73" x="187" y="179.0654">moveInsect()</text><polygon fill="#181818" points="287,210.2734,297,214.2734,287,218.2734,291,214.2734" style="stroke:#181818;stroke-width:1.0;"/><line style="stroke:#181818;stroke-width:1.0;" x1="28" x2="293" y1="214.2734" y2="214.2734"/><text fill="#000000" font-family="sans-serif" font-size="13" lengthAdjust="spacing" textLength="139" x="35" y="209.417">Chooses insect to move</text><polygon fill="#181818" points="287,240.625,297,244.625,287,248.625,291,244.625" style="stroke:#181818;stroke-width:1.0;"/><line style="stroke:#181818;stroke-width:1.0;" x1="28" x2="293" y1="244.625" y2="244.625"/><text fill="#000000" font-family="sans-serif" font-size="13" lengthAdjust="spacing" textLength="155" x="35" y="239.7686">Chooses tecton to move to</text><polygon fill="#181818" points="607,270.9766,617,274.9766,607,278.9766,611,274.9766" style="stroke:#181818;stroke-width:1.0;"/><line style="stroke:#181818;stroke-width:1.0;" x1="309" x2="613" y1="274.9766" y2="274.9766"/><text fill="#000000" font-family="sans-serif" font-size="13" lengthAdjust="spacing" textLength="291" x="316" y="270.1201">commandParser("!move [INSECTID] [TECTONID]")</text><polygon fill="#181818" points="320,284.9766,310,288.9766,320,292.9766,316,288.9766" style="stroke:#181818;stroke-width:1.0;"/><line style="stroke:#181818;stroke-width:1.0;" x1="314" x2="623" y1="288.9766" y2="288.9766"/><polygon fill="#181818" points="39,298.9766,29,302.9766,39,306.9766,35,302.9766" style="stroke:#181818;stroke-width:1.0;"/><line style="stroke:#181818;stroke-width:1.0;" x1="33" x2="303" y1="302.9766" y2="302.9766"/><!--SRC=[TP2_JWCn3CRtF8MvXJBm0XrO3dJAqaQYMyLWhXQDoCMdnAtKjyT9e3sGcE8_l_ZxRF4I26pCD0ebcFXC6J22hnKGreJbg2tHdACng4y25_12oSoOn8z-nYZG-HdMrr6EvmumWtM_eOy23JYHmqYX8iCVf10EKwPKsywOUnNrPnI2dgCa3a6rcmLuV5ADDVJ1ZvyPEDOTuFqarQrr1HWKAELcRlLWhlDK-pQdOFsHEUiDRWSe7_-1sar-87tDKFKK6NcQC1xQ7glkhW9xktbzwNVs-GtsEmss6msxXHrrqpJCWHR5xwdjvekESby0]--></g></svg>