<?xml version="1.0" encoding="us-ascii" standalone="no"?><svg xmlns="http://www.w3.org/2000/svg" xmlns:xlink="http://www.w3.org/1999/xlink" contentStyleType="text/css" height="1576px" preserveAspectRatio="none" style="width:2598px;height:1576px;background:#FFFFFF;" version="1.1" viewBox="0 0 2598 1576" width="2598px" zoomAndPan="magnify"><defs/><g><!--cluster fungorium--><g id="cluster_fungorium"><path d="M8.5,6 L81.5,6 A3.75,3.75 0 0 1 84,8.5 L91,29.6094 L2588.5,29.6094 A2.5,2.5 0 0 1 2591,32.1094 L2591,1566.5 A2.5,2.5 0 0 1 2588.5,1569 L8.5,1569 A2.5,2.5 0 0 1 6,1566.5 L6,8.5 A2.5,2.5 0 0 1 8.5,6 " fill="none" style="stroke:#000000;stroke-width:1.5;"/><line style="stroke:#000000;stroke-width:1.5;" x1="6" x2="91" y1="29.6094" y2="29.6094"/><text fill="#000000" font-family="sans-serif" font-size="14" font-weight="bold" lengthAdjust="spacing" textLength="72" x="10" y="22.5332">fungorium</text></g><!--class IOnTurn--><g id="elem_IOnTurn"><rect codeLine="6" fill="#F1F1F1" height="65.6094" id="IOnTurn" rx="2.5" ry="2.5" style="stroke:#181818;stroke-width:0.5;" width="106" x="1645" y="77"/><ellipse cx="1669.45" cy="93" fill="#B4A7E5" rx="11" ry="11" style="stroke:#181818;stroke-width:1.0;"/><path d="M1670.4031,89.6406 L1670.4031,96.2969 L1672.1219,96.2969 Q1672.7313,96.2969 1672.9969,96.5313 Q1673.2625,96.7656 1673.2625,97.1563 Q1673.2625,97.5313 1672.9969,97.7656 Q1672.7313,98 1672.1219,98 L1666.9813,98 Q1666.3719,98 1666.1063,97.7656 Q1665.8406,97.5313 1665.8406,97.1406 Q1665.8406,96.7656 1666.1063,96.5313 Q1666.3719,96.2969 1666.9813,96.2969 L1668.7,96.2969 L1668.7,89.6406 L1666.9813,89.6406 Q1666.3719,89.6406 1666.1063,89.4063 Q1665.8406,89.1719 1665.8406,88.7813 Q1665.8406,88.4063 1666.1063,88.1719 Q1666.3719,87.9375 1666.9813,87.9375 L1672.1219,87.9375 Q1672.7313,87.9375 1672.9969,88.1719 Q1673.2625,88.4063 1673.2625,88.7813 Q1673.2625,89.1719 1672.9969,89.4063 Q1672.7313,89.6406 1672.1219,89.6406 L1670.4031,89.6406 Z " fill="#000000"/><text fill="#000000" font-family="sans-serif" font-size="14" font-style="italic" lengthAdjust="spacing" textLength="53" x="1685.55" y="98.7285">IOnTurn</text><line style="stroke:#181818;stroke-width:0.5;" x1="1646" x2="1750" y1="109" y2="109"/><line style="stroke:#181818;stroke-width:0.5;" x1="1646" x2="1750" y1="117" y2="117"/><text fill="#000000" font-family="sans-serif" font-size="14" lengthAdjust="spacing" textLength="94" x="1651" y="135.5332">onTurn() : void</text></g><!--class Player--><g id="elem_Player"><rect codeLine="2" fill="#F1F1F1" height="100.8281" id="Player" rx="2.5" ry="2.5" style="stroke:#181818;stroke-width:0.5;" width="161" x="1617.5" y="239"/><ellipse cx="1673.75" cy="255" fill="#A9DCDF" rx="11" ry="11" style="stroke:#181818;stroke-width:1.0;"/><path d="M1675.9375,256.7656 L1671.7969,256.7656 L1671.375,257.7969 L1671.7969,257.7969 Q1672.4063,257.7969 1672.6719,258.0313 Q1672.9375,258.2656 1672.9375,258.6563 Q1672.9375,259.0313 1672.6719,259.2656 Q1672.4063,259.5 1671.7969,259.5 L1669.5,259.5 Q1668.8906,259.5 1668.6406,259.2656 Q1668.375,259.0313 1668.375,258.6406 Q1668.375,258.2656 1668.6563,258.0313 Q1668.9219,257.7813 1669.5469,257.7969 L1672.2188,251.1406 L1671.1094,251.1406 Q1670.5,251.1406 1670.2344,250.9063 Q1669.9688,250.6719 1669.9688,250.2813 Q1669.9688,249.9063 1670.2344,249.6719 Q1670.5,249.4375 1671.1094,249.4375 L1674.7813,249.4375 L1678.1719,257.7969 Q1678.7656,257.7969 1678.9531,257.9375 Q1679.3438,258.2031 1679.3438,258.6563 Q1679.3438,259.0313 1679.0781,259.2656 Q1678.8281,259.5 1678.2188,259.5 L1675.9219,259.5 Q1675.3125,259.5 1675.0469,259.2656 Q1674.7813,259.0313 1674.7813,258.6406 Q1674.7813,258.2656 1675.0469,258.0313 Q1675.3125,257.7969 1675.9219,257.7969 L1676.3438,257.7969 L1675.9375,256.7656 Z M1675.2188,255.0625 L1673.8594,251.6875 L1672.4844,255.0625 L1675.2188,255.0625 Z " fill="#000000"/><text fill="#000000" font-family="sans-serif" font-size="14" font-style="italic" lengthAdjust="spacing" textLength="40" x="1694.25" y="260.7285">Player</text><line style="stroke:#181818;stroke-width:0.5;" x1="1618.5" x2="1777.5" y1="271" y2="271"/><text fill="#000000" font-family="sans-serif" font-size="14" lengthAdjust="spacing" textLength="91" x="1623.5" y="289.5332">score : Integer</text><text fill="#000000" font-family="sans-serif" font-size="14" lengthAdjust="spacing" textLength="67" x="1623.5" y="307.1426">id : Integer</text><line style="stroke:#181818;stroke-width:0.5;" x1="1618.5" x2="1777.5" y1="314.2188" y2="314.2188"/><text fill="#000000" font-family="sans-serif" font-size="14" lengthAdjust="spacing" textLength="149" x="1623.5" y="332.752">onTurn() : abstract void</text></g><!--class Mushroomer--><g id="elem_Mushroomer"><rect codeLine="12" fill="#F1F1F1" height="153.6563" id="Mushroomer" rx="2.5" ry="2.5" style="stroke:#181818;stroke-width:0.5;" width="328" x="1931" y="401"/><ellipse cx="2051.25" cy="417" fill="#ADD1B2" rx="11" ry="11" style="stroke:#181818;stroke-width:1.0;"/><path d="M2054.0156,412.875 Q2054.1719,412.6563 2054.3594,412.5469 Q2054.5469,412.4375 2054.7656,412.4375 Q2055.1406,412.4375 2055.375,412.7031 Q2055.6094,412.9531 2055.6094,413.5625 L2055.6094,415.0156 Q2055.6094,415.625 2055.375,415.8906 Q2055.1406,416.1563 2054.7656,416.1563 Q2054.4219,416.1563 2054.2188,415.9531 Q2054.0156,415.7656 2053.9063,415.25 Q2053.8594,414.8906 2053.6719,414.7031 Q2053.3438,414.3281 2052.7344,414.1094 Q2052.125,413.8906 2051.5,413.8906 Q2050.7344,413.8906 2050.0938,414.2188 Q2049.4688,414.5469 2048.9688,415.2969 Q2048.4844,416.0469 2048.4844,417.0781 L2048.4844,418.1719 Q2048.4844,419.4063 2049.375,420.2344 Q2050.2656,421.0469 2051.8594,421.0469 Q2052.7969,421.0469 2053.4531,420.7969 Q2053.8438,420.6406 2054.2656,420.2031 Q2054.5313,419.9375 2054.6719,419.8594 Q2054.8281,419.7813 2055.0313,419.7813 Q2055.3594,419.7813 2055.6094,420.0469 Q2055.875,420.2969 2055.875,420.6406 Q2055.875,420.9844 2055.5313,421.3906 Q2055.0313,421.9688 2054.2344,422.2969 Q2053.1563,422.75 2051.8594,422.75 Q2050.3438,422.75 2049.1406,422.125 Q2048.1563,421.625 2047.4688,420.5625 Q2046.7813,419.4844 2046.7813,418.2031 L2046.7813,417.0469 Q2046.7813,415.7188 2047.3906,414.5781 Q2048.0156,413.4219 2049.1094,412.8125 Q2050.2031,412.1875 2051.4375,412.1875 Q2052.1719,412.1875 2052.8125,412.3594 Q2053.4688,412.5156 2054.0156,412.875 Z " fill="#000000"/><text fill="#000000" font-family="sans-serif" font-size="14" lengthAdjust="spacing" textLength="79" x="2071.75" y="422.7285">Mushroomer</text><line style="stroke:#181818;stroke-width:0.5;" x1="1932" x2="2258" y1="433" y2="433"/><text fill="#000000" font-family="sans-serif" font-size="14" lengthAdjust="spacing" textLength="253" x="1937" y="451.5332">mushroomStems : List&lt;MushroomStem&gt;</text><text fill="#000000" font-family="sans-serif" font-size="14" lengthAdjust="spacing" textLength="281" x="1937" y="469.1426">mushroomThreads : List&lt;MushroomThread&gt;</text><line style="stroke:#181818;stroke-width:0.5;" x1="1932" x2="2258" y1="476.2188" y2="476.2188"/><text fill="#000000" font-family="sans-serif" font-size="14" lengthAdjust="spacing" textLength="179" x="1937" y="494.752">getColonies() : List&lt;Colony&gt;</text><text fill="#000000" font-family="sans-serif" font-size="14" lengthAdjust="spacing" textLength="155" x="1937" y="512.3613">plantStem(Tecton) : void</text><text fill="#000000" font-family="sans-serif" font-size="14" lengthAdjust="spacing" textLength="316" x="1937" y="529.9707">throwSpore(MushroomStem, Tecton, Spore) : void</text><text fill="#000000" font-family="sans-serif" font-size="14" lengthAdjust="spacing" textLength="94" x="1937" y="547.5801">onTurn() : void</text></g><!--class MushroomStem--><g id="elem_MushroomStem"><rect codeLine="5" fill="#F1F1F1" height="206.4844" id="MushroomStem" rx="2.5" ry="2.5" style="stroke:#181818;stroke-width:0.5;" width="248" x="2327" y="1115"/><ellipse cx="2397.75" cy="1131" fill="#ADD1B2" rx="11" ry="11" style="stroke:#181818;stroke-width:1.0;"/><path d="M2400.5156,1126.875 Q2400.6719,1126.6563 2400.8594,1126.5469 Q2401.0469,1126.4375 2401.2656,1126.4375 Q2401.6406,1126.4375 2401.875,1126.7031 Q2402.1094,1126.9531 2402.1094,1127.5625 L2402.1094,1129.0156 Q2402.1094,1129.625 2401.875,1129.8906 Q2401.6406,1130.1563 2401.2656,1130.1563 Q2400.9219,1130.1563 2400.7188,1129.9531 Q2400.5156,1129.7656 2400.4063,1129.25 Q2400.3594,1128.8906 2400.1719,1128.7031 Q2399.8438,1128.3281 2399.2344,1128.1094 Q2398.625,1127.8906 2398,1127.8906 Q2397.2344,1127.8906 2396.5938,1128.2188 Q2395.9688,1128.5469 2395.4688,1129.2969 Q2394.9844,1130.0469 2394.9844,1131.0781 L2394.9844,1132.1719 Q2394.9844,1133.4063 2395.875,1134.2344 Q2396.7656,1135.0469 2398.3594,1135.0469 Q2399.2969,1135.0469 2399.9531,1134.7969 Q2400.3438,1134.6406 2400.7656,1134.2031 Q2401.0313,1133.9375 2401.1719,1133.8594 Q2401.3281,1133.7813 2401.5313,1133.7813 Q2401.8594,1133.7813 2402.1094,1134.0469 Q2402.375,1134.2969 2402.375,1134.6406 Q2402.375,1134.9844 2402.0313,1135.3906 Q2401.5313,1135.9688 2400.7344,1136.2969 Q2399.6563,1136.75 2398.3594,1136.75 Q2396.8438,1136.75 2395.6406,1136.125 Q2394.6563,1135.625 2393.9688,1134.5625 Q2393.2813,1133.4844 2393.2813,1132.2031 L2393.2813,1131.0469 Q2393.2813,1129.7188 2393.8906,1128.5781 Q2394.5156,1127.4219 2395.6094,1126.8125 Q2396.7031,1126.1875 2397.9375,1126.1875 Q2398.6719,1126.1875 2399.3125,1126.3594 Q2399.9688,1126.5156 2400.5156,1126.875 Z " fill="#000000"/><text fill="#000000" font-family="sans-serif" font-size="14" lengthAdjust="spacing" textLength="98" x="2418.25" y="1136.7285">MushroomStem</text><line style="stroke:#181818;stroke-width:0.5;" x1="2328" x2="2574" y1="1147" y2="1147"/><text fill="#000000" font-family="sans-serif" font-size="14" lengthAdjust="spacing" text-decoration="underline" textLength="165" x="2333" y="1165.5332">maxSporeThrows : Integer</text><text fill="#000000" font-family="sans-serif" font-size="14" lengthAdjust="spacing" textLength="139" x="2333" y="1183.1426">thrownSpores: Integer</text><text fill="#000000" font-family="sans-serif" font-size="14" lengthAdjust="spacing" textLength="138" x="2333" y="1200.752">spores : List&lt;Spores&gt;</text><text fill="#000000" font-family="sans-serif" font-size="14" lengthAdjust="spacing" textLength="81" x="2333" y="1218.3613">level: Integer</text><line style="stroke:#181818;stroke-width:0.5;" x1="2328" x2="2574" y1="1225.4375" y2="1225.4375"/><text fill="#000000" font-family="sans-serif" font-size="14" lengthAdjust="spacing" textLength="236" x="2333" y="1243.9707">throwSpore(Spore, Tecton) : Boolean</text><text fill="#000000" font-family="sans-serif" font-size="14" lengthAdjust="spacing" textLength="90" x="2333" y="1261.5801">onTurn(): void</text><text fill="#000000" font-family="sans-serif" font-size="14" lengthAdjust="spacing" textLength="130" x="2333" y="1279.1895">getColony() : Colony</text><text fill="#000000" font-family="sans-serif" font-size="14" lengthAdjust="spacing" textLength="4" x="2333" y="1296.7988">&#160;</text><text fill="#000000" font-family="sans-serif" font-size="14" lengthAdjust="spacing" textLength="158" x="2333" y="1314.4082">deleteFromGame() : void</text></g><!--class MushroomThread--><g id="elem_MushroomThread"><rect codeLine="3" fill="#F1F1F1" height="83.2188" id="MushroomThread" rx="2.5" ry="2.5" style="stroke:#181818;stroke-width:0.5;" width="273" x="2018.5" y="1176.5"/><ellipse cx="2094.75" cy="1192.5" fill="#ADD1B2" rx="11" ry="11" style="stroke:#181818;stroke-width:1.0;"/><path d="M2097.5156,1188.375 Q2097.6719,1188.1563 2097.8594,1188.0469 Q2098.0469,1187.9375 2098.2656,1187.9375 Q2098.6406,1187.9375 2098.875,1188.2031 Q2099.1094,1188.4531 2099.1094,1189.0625 L2099.1094,1190.5156 Q2099.1094,1191.125 2098.875,1191.3906 Q2098.6406,1191.6563 2098.2656,1191.6563 Q2097.9219,1191.6563 2097.7188,1191.4531 Q2097.5156,1191.2656 2097.4063,1190.75 Q2097.3594,1190.3906 2097.1719,1190.2031 Q2096.8438,1189.8281 2096.2344,1189.6094 Q2095.625,1189.3906 2095,1189.3906 Q2094.2344,1189.3906 2093.5938,1189.7188 Q2092.9688,1190.0469 2092.4688,1190.7969 Q2091.9844,1191.5469 2091.9844,1192.5781 L2091.9844,1193.6719 Q2091.9844,1194.9063 2092.875,1195.7344 Q2093.7656,1196.5469 2095.3594,1196.5469 Q2096.2969,1196.5469 2096.9531,1196.2969 Q2097.3438,1196.1406 2097.7656,1195.7031 Q2098.0313,1195.4375 2098.1719,1195.3594 Q2098.3281,1195.2813 2098.5313,1195.2813 Q2098.8594,1195.2813 2099.1094,1195.5469 Q2099.375,1195.7969 2099.375,1196.1406 Q2099.375,1196.4844 2099.0313,1196.8906 Q2098.5313,1197.4688 2097.7344,1197.7969 Q2096.6563,1198.25 2095.3594,1198.25 Q2093.8438,1198.25 2092.6406,1197.625 Q2091.6563,1197.125 2090.9688,1196.0625 Q2090.2813,1194.9844 2090.2813,1193.7031 L2090.2813,1192.5469 Q2090.2813,1191.2188 2090.8906,1190.0781 Q2091.5156,1188.9219 2092.6094,1188.3125 Q2093.7031,1187.6875 2094.9375,1187.6875 Q2095.6719,1187.6875 2096.3125,1187.8594 Q2096.9688,1188.0156 2097.5156,1188.375 Z " fill="#000000"/><text fill="#000000" font-family="sans-serif" font-size="14" lengthAdjust="spacing" textLength="112" x="2115.25" y="1198.2285">MushroomThread</text><line style="stroke:#181818;stroke-width:0.5;" x1="2019.5" x2="2290.5" y1="1208.5" y2="1208.5"/><line style="stroke:#181818;stroke-width:0.5;" x1="2019.5" x2="2290.5" y1="1216.5" y2="1216.5"/><text fill="#000000" font-family="sans-serif" font-size="14" lengthAdjust="spacing" textLength="261" x="2024.5" y="1235.0332">getConnected() : List&lt;MushroomThread&gt;</text><text fill="#000000" font-family="sans-serif" font-size="14" lengthAdjust="spacing" textLength="158" x="2024.5" y="1252.6426">deleteFromGame() : void</text></g><!--class Colony--><g id="elem_Colony"><rect codeLine="5" fill="#F1F1F1" height="118.4375" id="Colony" rx="2.5" ry="2.5" style="stroke:#181818;stroke-width:0.5;" width="293" x="2085.5" y="865.5"/><ellipse cx="2205.75" cy="881.5" fill="#ADD1B2" rx="11" ry="11" style="stroke:#181818;stroke-width:1.0;"/><path d="M2208.5156,877.375 Q2208.6719,877.1563 2208.8594,877.0469 Q2209.0469,876.9375 2209.2656,876.9375 Q2209.6406,876.9375 2209.875,877.2031 Q2210.1094,877.4531 2210.1094,878.0625 L2210.1094,879.5156 Q2210.1094,880.125 2209.875,880.3906 Q2209.6406,880.6563 2209.2656,880.6563 Q2208.9219,880.6563 2208.7188,880.4531 Q2208.5156,880.2656 2208.4063,879.75 Q2208.3594,879.3906 2208.1719,879.2031 Q2207.8438,878.8281 2207.2344,878.6094 Q2206.625,878.3906 2206,878.3906 Q2205.2344,878.3906 2204.5938,878.7188 Q2203.9688,879.0469 2203.4688,879.7969 Q2202.9844,880.5469 2202.9844,881.5781 L2202.9844,882.6719 Q2202.9844,883.9063 2203.875,884.7344 Q2204.7656,885.5469 2206.3594,885.5469 Q2207.2969,885.5469 2207.9531,885.2969 Q2208.3438,885.1406 2208.7656,884.7031 Q2209.0313,884.4375 2209.1719,884.3594 Q2209.3281,884.2813 2209.5313,884.2813 Q2209.8594,884.2813 2210.1094,884.5469 Q2210.375,884.7969 2210.375,885.1406 Q2210.375,885.4844 2210.0313,885.8906 Q2209.5313,886.4688 2208.7344,886.7969 Q2207.6563,887.25 2206.3594,887.25 Q2204.8438,887.25 2203.6406,886.625 Q2202.6563,886.125 2201.9688,885.0625 Q2201.2813,883.9844 2201.2813,882.7031 L2201.2813,881.5469 Q2201.2813,880.2188 2201.8906,879.0781 Q2202.5156,877.9219 2203.6094,877.3125 Q2204.7031,876.6875 2205.9375,876.6875 Q2206.6719,876.6875 2207.3125,876.8594 Q2207.9688,877.0156 2208.5156,877.375 Z " fill="#000000"/><text fill="#000000" font-family="sans-serif" font-size="14" lengthAdjust="spacing" textLength="44" x="2226.25" y="887.2285">Colony</text><line style="stroke:#181818;stroke-width:0.5;" x1="2086.5" x2="2377.5" y1="897.5" y2="897.5"/><text fill="#000000" font-family="sans-serif" font-size="14" lengthAdjust="spacing" textLength="253" x="2091.5" y="916.0332">mushroomStems : List&lt;MushroomStem&gt;</text><text fill="#000000" font-family="sans-serif" font-size="14" lengthAdjust="spacing" textLength="281" x="2091.5" y="933.6426">mushroomThreads : List&lt;MushroomThread&gt;</text><line style="stroke:#181818;stroke-width:0.5;" x1="2086.5" x2="2377.5" y1="940.7188" y2="940.7188"/><text fill="#000000" font-family="sans-serif" font-size="14" lengthAdjust="spacing" textLength="95" x="2091.5" y="959.252">destroy() : void</text><text fill="#000000" font-family="sans-serif" font-size="14" lengthAdjust="spacing" textLength="156" x="2091.5" y="976.8613">getStemCount() : Integer</text></g><!--class Insecter--><g id="elem_Insecter"><rect codeLine="23" fill="#F1F1F1" height="136.0469" id="Insecter" rx="2.5" ry="2.5" style="stroke:#181818;stroke-width:0.5;" width="237" x="1067.5" y="42"/><ellipse cx="1156.75" cy="58" fill="#ADD1B2" rx="11" ry="11" style="stroke:#181818;stroke-width:1.0;"/><path d="M1159.5156,53.875 Q1159.6719,53.6563 1159.8594,53.5469 Q1160.0469,53.4375 1160.2656,53.4375 Q1160.6406,53.4375 1160.875,53.7031 Q1161.1094,53.9531 1161.1094,54.5625 L1161.1094,56.0156 Q1161.1094,56.625 1160.875,56.8906 Q1160.6406,57.1563 1160.2656,57.1563 Q1159.9219,57.1563 1159.7188,56.9531 Q1159.5156,56.7656 1159.4063,56.25 Q1159.3594,55.8906 1159.1719,55.7031 Q1158.8438,55.3281 1158.2344,55.1094 Q1157.625,54.8906 1157,54.8906 Q1156.2344,54.8906 1155.5938,55.2188 Q1154.9688,55.5469 1154.4688,56.2969 Q1153.9844,57.0469 1153.9844,58.0781 L1153.9844,59.1719 Q1153.9844,60.4063 1154.875,61.2344 Q1155.7656,62.0469 1157.3594,62.0469 Q1158.2969,62.0469 1158.9531,61.7969 Q1159.3438,61.6406 1159.7656,61.2031 Q1160.0313,60.9375 1160.1719,60.8594 Q1160.3281,60.7813 1160.5313,60.7813 Q1160.8594,60.7813 1161.1094,61.0469 Q1161.375,61.2969 1161.375,61.6406 Q1161.375,61.9844 1161.0313,62.3906 Q1160.5313,62.9688 1159.7344,63.2969 Q1158.6563,63.75 1157.3594,63.75 Q1155.8438,63.75 1154.6406,63.125 Q1153.6563,62.625 1152.9688,61.5625 Q1152.2813,60.4844 1152.2813,59.2031 L1152.2813,58.0469 Q1152.2813,56.7188 1152.8906,55.5781 Q1153.5156,54.4219 1154.6094,53.8125 Q1155.7031,53.1875 1156.9375,53.1875 Q1157.6719,53.1875 1158.3125,53.3594 Q1158.9688,53.5156 1159.5156,53.875 Z " fill="#000000"/><text fill="#000000" font-family="sans-serif" font-size="14" lengthAdjust="spacing" textLength="50" x="1177.25" y="63.7285">Insecter</text><line style="stroke:#181818;stroke-width:0.5;" x1="1068.5" x2="1303.5" y1="74" y2="74"/><text fill="#000000" font-family="sans-serif" font-size="14" lengthAdjust="spacing" textLength="86" x="1073.5" y="92.5332">insect : Insect</text><line style="stroke:#181818;stroke-width:0.5;" x1="1068.5" x2="1303.5" y1="99.6094" y2="99.6094"/><text fill="#000000" font-family="sans-serif" font-size="14" lengthAdjust="spacing" textLength="106" x="1073.5" y="118.1426">eat(Spore) : void</text><text fill="#000000" font-family="sans-serif" font-size="14" lengthAdjust="spacing" textLength="163" x="1073.5" y="135.752">moveInsect(Tecton) : void</text><text fill="#000000" font-family="sans-serif" font-size="14" lengthAdjust="spacing" textLength="225" x="1073.5" y="153.3613">cutThread(MushroomThread) : void</text><text fill="#000000" font-family="sans-serif" font-size="14" lengthAdjust="spacing" textLength="94" x="1073.5" y="170.9707">onTurn() : void</text></g><!--class Insect--><g id="elem_Insect"><rect codeLine="6" fill="#F1F1F1" height="206.4844" id="Insect" rx="2.5" ry="2.5" style="stroke:#181818;stroke-width:0.5;" width="217" x="918.5" y="1115"/><ellipse cx="1004.25" cy="1131" fill="#ADD1B2" rx="11" ry="11" style="stroke:#181818;stroke-width:1.0;"/><path d="M1007.0156,1126.875 Q1007.1719,1126.6563 1007.3594,1126.5469 Q1007.5469,1126.4375 1007.7656,1126.4375 Q1008.1406,1126.4375 1008.375,1126.7031 Q1008.6094,1126.9531 1008.6094,1127.5625 L1008.6094,1129.0156 Q1008.6094,1129.625 1008.375,1129.8906 Q1008.1406,1130.1563 1007.7656,1130.1563 Q1007.4219,1130.1563 1007.2188,1129.9531 Q1007.0156,1129.7656 1006.9063,1129.25 Q1006.8594,1128.8906 1006.6719,1128.7031 Q1006.3438,1128.3281 1005.7344,1128.1094 Q1005.125,1127.8906 1004.5,1127.8906 Q1003.7344,1127.8906 1003.0938,1128.2188 Q1002.4688,1128.5469 1001.9688,1129.2969 Q1001.4844,1130.0469 1001.4844,1131.0781 L1001.4844,1132.1719 Q1001.4844,1133.4063 1002.375,1134.2344 Q1003.2656,1135.0469 1004.8594,1135.0469 Q1005.7969,1135.0469 1006.4531,1134.7969 Q1006.8438,1134.6406 1007.2656,1134.2031 Q1007.5313,1133.9375 1007.6719,1133.8594 Q1007.8281,1133.7813 1008.0313,1133.7813 Q1008.3594,1133.7813 1008.6094,1134.0469 Q1008.875,1134.2969 1008.875,1134.6406 Q1008.875,1134.9844 1008.5313,1135.3906 Q1008.0313,1135.9688 1007.2344,1136.2969 Q1006.1563,1136.75 1004.8594,1136.75 Q1003.3438,1136.75 1002.1406,1136.125 Q1001.1563,1135.625 1000.4688,1134.5625 Q999.7813,1133.4844 999.7813,1132.2031 L999.7813,1131.0469 Q999.7813,1129.7188 1000.3906,1128.5781 Q1001.0156,1127.4219 1002.1094,1126.8125 Q1003.2031,1126.1875 1004.4375,1126.1875 Q1005.1719,1126.1875 1005.8125,1126.3594 Q1006.4688,1126.5156 1007.0156,1126.875 Z " fill="#000000"/><text fill="#000000" font-family="sans-serif" font-size="14" lengthAdjust="spacing" textLength="37" x="1024.75" y="1136.7285">Insect</text><line style="stroke:#181818;stroke-width:0.5;" x1="919.5" x2="1134.5" y1="1147" y2="1147"/><text fill="#000000" font-family="sans-serif" font-size="14" lengthAdjust="spacing" textLength="128" x="924.5" y="1165.5332">effects : List&lt;Effect&gt;</text><line style="stroke:#181818;stroke-width:0.5;" x1="919.5" x2="1134.5" y1="1172.6094" y2="1172.6094"/><text fill="#000000" font-family="sans-serif" font-size="14" lengthAdjust="spacing" textLength="132" x="924.5" y="1191.1426">eat(Spore) : Boolean</text><text fill="#000000" font-family="sans-serif" font-size="14" lengthAdjust="spacing" textLength="152" x="924.5" y="1208.752">move(Tecton) : Boolean</text><text fill="#000000" font-family="sans-serif" font-size="14" lengthAdjust="spacing" textLength="205" x="924.5" y="1226.3613">cut(MushroomThread) : Boolean</text><text fill="#000000" font-family="sans-serif" font-size="14" lengthAdjust="spacing" textLength="4" x="924.5" y="1243.9707">&#160;</text><text fill="#000000" font-family="sans-serif" font-size="14" lengthAdjust="spacing" textLength="137" x="924.5" y="1261.5801">isStunned() : Boolean</text><text fill="#000000" font-family="sans-serif" font-size="14" lengthAdjust="spacing" textLength="127" x="924.5" y="1279.1895">getSpeed() : Integer</text><text fill="#000000" font-family="sans-serif" font-size="14" lengthAdjust="spacing" textLength="4" x="924.5" y="1296.7988">&#160;</text><text fill="#000000" font-family="sans-serif" font-size="14" lengthAdjust="spacing" textLength="94" x="924.5" y="1314.4082">onTurn() : void</text></g><!--class IOnRound--><g id="elem_IOnRound"><rect codeLine="10" fill="#F1F1F1" height="65.6094" id="IOnRound" rx="2.5" ry="2.5" style="stroke:#181818;stroke-width:0.5;" width="118" x="1641" y="445"/><ellipse cx="1665.45" cy="461" fill="#B4A7E5" rx="11" ry="11" style="stroke:#181818;stroke-width:1.0;"/><path d="M1666.4031,457.6406 L1666.4031,464.2969 L1668.1219,464.2969 Q1668.7313,464.2969 1668.9969,464.5313 Q1669.2625,464.7656 1669.2625,465.1563 Q1669.2625,465.5313 1668.9969,465.7656 Q1668.7313,466 1668.1219,466 L1662.9813,466 Q1662.3719,466 1662.1063,465.7656 Q1661.8406,465.5313 1661.8406,465.1406 Q1661.8406,464.7656 1662.1063,464.5313 Q1662.3719,464.2969 1662.9813,464.2969 L1664.7,464.2969 L1664.7,457.6406 L1662.9813,457.6406 Q1662.3719,457.6406 1662.1063,457.4063 Q1661.8406,457.1719 1661.8406,456.7813 Q1661.8406,456.4063 1662.1063,456.1719 Q1662.3719,455.9375 1662.9813,455.9375 L1668.1219,455.9375 Q1668.7313,455.9375 1668.9969,456.1719 Q1669.2625,456.4063 1669.2625,456.7813 Q1669.2625,457.1719 1668.9969,457.4063 Q1668.7313,457.6406 1668.1219,457.6406 L1666.4031,457.6406 Z " fill="#000000"/><text fill="#000000" font-family="sans-serif" font-size="14" font-style="italic" lengthAdjust="spacing" textLength="65" x="1681.55" y="466.7285">IOnRound</text><line style="stroke:#181818;stroke-width:0.5;" x1="1642" x2="1758" y1="477" y2="477"/><line style="stroke:#181818;stroke-width:0.5;" x1="1642" x2="1758" y1="485" y2="485"/><text fill="#000000" font-family="sans-serif" font-size="14" lengthAdjust="spacing" textLength="106" x="1647" y="503.5332">onRound() : void</text></g><!--class Map--><g id="elem_Map"><rect codeLine="4" fill="#F1F1F1" height="118.4375" id="Map" rx="2.5" ry="2.5" style="stroke:#181818;stroke-width:0.5;" width="173" x="1523.5" y="616"/><ellipse cx="1592.25" cy="632" fill="#ADD1B2" rx="11" ry="11" style="stroke:#181818;stroke-width:1.0;"/><path d="M1595.0156,627.875 Q1595.1719,627.6563 1595.3594,627.5469 Q1595.5469,627.4375 1595.7656,627.4375 Q1596.1406,627.4375 1596.375,627.7031 Q1596.6094,627.9531 1596.6094,628.5625 L1596.6094,630.0156 Q1596.6094,630.625 1596.375,630.8906 Q1596.1406,631.1563 1595.7656,631.1563 Q1595.4219,631.1563 1595.2188,630.9531 Q1595.0156,630.7656 1594.9063,630.25 Q1594.8594,629.8906 1594.6719,629.7031 Q1594.3438,629.3281 1593.7344,629.1094 Q1593.125,628.8906 1592.5,628.8906 Q1591.7344,628.8906 1591.0938,629.2188 Q1590.4688,629.5469 1589.9688,630.2969 Q1589.4844,631.0469 1589.4844,632.0781 L1589.4844,633.1719 Q1589.4844,634.4063 1590.375,635.2344 Q1591.2656,636.0469 1592.8594,636.0469 Q1593.7969,636.0469 1594.4531,635.7969 Q1594.8438,635.6406 1595.2656,635.2031 Q1595.5313,634.9375 1595.6719,634.8594 Q1595.8281,634.7813 1596.0313,634.7813 Q1596.3594,634.7813 1596.6094,635.0469 Q1596.875,635.2969 1596.875,635.6406 Q1596.875,635.9844 1596.5313,636.3906 Q1596.0313,636.9688 1595.2344,637.2969 Q1594.1563,637.75 1592.8594,637.75 Q1591.3438,637.75 1590.1406,637.125 Q1589.1563,636.625 1588.4688,635.5625 Q1587.7813,634.4844 1587.7813,633.2031 L1587.7813,632.0469 Q1587.7813,630.7188 1588.3906,629.5781 Q1589.0156,628.4219 1590.1094,627.8125 Q1591.2031,627.1875 1592.4375,627.1875 Q1593.1719,627.1875 1593.8125,627.3594 Q1594.4688,627.5156 1595.0156,627.875 Z " fill="#000000"/><text fill="#000000" font-family="sans-serif" font-size="14" lengthAdjust="spacing" textLength="27" x="1612.75" y="637.7285">Map</text><line style="stroke:#181818;stroke-width:0.5;" x1="1524.5" x2="1695.5" y1="648" y2="648"/><text fill="#000000" font-family="sans-serif" font-size="14" lengthAdjust="spacing" textLength="140" x="1529.5" y="666.5332">tectons : List&lt;Tecton&gt;</text><line style="stroke:#181818;stroke-width:0.5;" x1="1524.5" x2="1695.5" y1="673.6094" y2="673.6094"/><text fill="#000000" font-family="sans-serif" font-size="14" lengthAdjust="spacing" textLength="105" x="1529.5" y="692.1426">generate() : void</text><text fill="#000000" font-family="sans-serif" font-size="14" lengthAdjust="spacing" textLength="161" x="1529.5" y="709.752">splitTecton(Tecton) : void</text><text fill="#000000" font-family="sans-serif" font-size="14" lengthAdjust="spacing" textLength="106" x="1529.5" y="727.3613">onRound() : void</text></g><!--class Tecton--><g id="elem_Tecton"><rect codeLine="4" fill="#F1F1F1" height="259.3125" id="Tecton" rx="2.5" ry="2.5" style="stroke:#181818;stroke-width:0.5;" width="222" x="1566" y="795"/><ellipse cx="1650.75" cy="811" fill="#ADD1B2" rx="11" ry="11" style="stroke:#181818;stroke-width:1.0;"/><path d="M1653.5156,806.875 Q1653.6719,806.6563 1653.8594,806.5469 Q1654.0469,806.4375 1654.2656,806.4375 Q1654.6406,806.4375 1654.875,806.7031 Q1655.1094,806.9531 1655.1094,807.5625 L1655.1094,809.0156 Q1655.1094,809.625 1654.875,809.8906 Q1654.6406,810.1563 1654.2656,810.1563 Q1653.9219,810.1563 1653.7188,809.9531 Q1653.5156,809.7656 1653.4063,809.25 Q1653.3594,808.8906 1653.1719,808.7031 Q1652.8438,808.3281 1652.2344,808.1094 Q1651.625,807.8906 1651,807.8906 Q1650.2344,807.8906 1649.5938,808.2188 Q1648.9688,808.5469 1648.4688,809.2969 Q1647.9844,810.0469 1647.9844,811.0781 L1647.9844,812.1719 Q1647.9844,813.4063 1648.875,814.2344 Q1649.7656,815.0469 1651.3594,815.0469 Q1652.2969,815.0469 1652.9531,814.7969 Q1653.3438,814.6406 1653.7656,814.2031 Q1654.0313,813.9375 1654.1719,813.8594 Q1654.3281,813.7813 1654.5313,813.7813 Q1654.8594,813.7813 1655.1094,814.0469 Q1655.375,814.2969 1655.375,814.6406 Q1655.375,814.9844 1655.0313,815.3906 Q1654.5313,815.9688 1653.7344,816.2969 Q1652.6563,816.75 1651.3594,816.75 Q1649.8438,816.75 1648.6406,816.125 Q1647.6563,815.625 1646.9688,814.5625 Q1646.2813,813.4844 1646.2813,812.2031 L1646.2813,811.0469 Q1646.2813,809.7188 1646.8906,808.5781 Q1647.5156,807.4219 1648.6094,806.8125 Q1649.7031,806.1875 1650.9375,806.1875 Q1651.6719,806.1875 1652.3125,806.3594 Q1652.9688,806.5156 1653.5156,806.875 Z " fill="#000000"/><text fill="#000000" font-family="sans-serif" font-size="14" lengthAdjust="spacing" textLength="44" x="1671.25" y="816.7285">Tecton</text><line style="stroke:#181818;stroke-width:0.5;" x1="1567" x2="1787" y1="827" y2="827"/><text fill="#000000" font-family="sans-serif" font-size="14" lengthAdjust="spacing" text-decoration="underline" textLength="134" x="1572" y="845.5332">maxThreads : Integer</text><text fill="#000000" font-family="sans-serif" font-size="14" lengthAdjust="spacing" text-decoration="underline" textLength="120" x="1572" y="863.1426">maxStems : Integer</text><text fill="#000000" font-family="sans-serif" font-size="14" lengthAdjust="spacing" textLength="4" x="1572" y="880.752">&#160;</text><text fill="#000000" font-family="sans-serif" font-size="14" lengthAdjust="spacing" textLength="165" x="1572" y="898.3613">neighbours : List&lt;Tecton&gt;</text><text fill="#000000" font-family="sans-serif" font-size="14" lengthAdjust="spacing" textLength="4" x="1572" y="915.9707">&#160;</text><text fill="#000000" font-family="sans-serif" font-size="14" lengthAdjust="spacing" textLength="140" x="1572" y="933.5801">stem : MushroomStem</text><text fill="#000000" font-family="sans-serif" font-size="14" lengthAdjust="spacing" textLength="210" x="1572" y="951.1895">threads : List&lt;MushroomThread&gt;</text><text fill="#000000" font-family="sans-serif" font-size="14" lengthAdjust="spacing" textLength="131" x="1572" y="968.7988">spores : List&lt;Spore&gt;</text><text fill="#000000" font-family="sans-serif" font-size="14" lengthAdjust="spacing" textLength="131" x="1572" y="986.4082">insects : List&lt;Insect&gt;</text><line style="stroke:#181818;stroke-width:0.5;" x1="1567" x2="1787" y1="993.4844" y2="993.4844"/><text fill="#000000" font-family="sans-serif" font-size="14" lengthAdjust="spacing" textLength="91" x="1572" y="1012.0176">split() : Tecton</text><text fill="#000000" font-family="sans-serif" font-size="14" lengthAdjust="spacing" textLength="4" x="1572" y="1029.627">&#160;</text><text fill="#000000" font-family="sans-serif" font-size="14" lengthAdjust="spacing" textLength="106" x="1572" y="1047.2363">onRound() : void</text></g><!--class Spore--><g id="elem_Spore"><rect codeLine="4" fill="#F1F1F1" height="83.2188" id="Spore" rx="2.5" ry="2.5" style="stroke:#181818;stroke-width:0.5;" width="181" x="1802.5" y="1176.5"/><ellipse cx="1869.75" cy="1192.5" fill="#A9DCDF" rx="11" ry="11" style="stroke:#181818;stroke-width:1.0;"/><path d="M1871.9375,1194.2656 L1867.7969,1194.2656 L1867.375,1195.2969 L1867.7969,1195.2969 Q1868.4063,1195.2969 1868.6719,1195.5313 Q1868.9375,1195.7656 1868.9375,1196.1563 Q1868.9375,1196.5313 1868.6719,1196.7656 Q1868.4063,1197 1867.7969,1197 L1865.5,1197 Q1864.8906,1197 1864.6406,1196.7656 Q1864.375,1196.5313 1864.375,1196.1406 Q1864.375,1195.7656 1864.6563,1195.5313 Q1864.9219,1195.2813 1865.5469,1195.2969 L1868.2188,1188.6406 L1867.1094,1188.6406 Q1866.5,1188.6406 1866.2344,1188.4063 Q1865.9688,1188.1719 1865.9688,1187.7813 Q1865.9688,1187.4063 1866.2344,1187.1719 Q1866.5,1186.9375 1867.1094,1186.9375 L1870.7813,1186.9375 L1874.1719,1195.2969 Q1874.7656,1195.2969 1874.9531,1195.4375 Q1875.3438,1195.7031 1875.3438,1196.1563 Q1875.3438,1196.5313 1875.0781,1196.7656 Q1874.8281,1197 1874.2188,1197 L1871.9219,1197 Q1871.3125,1197 1871.0469,1196.7656 Q1870.7813,1196.5313 1870.7813,1196.1406 Q1870.7813,1195.7656 1871.0469,1195.5313 Q1871.3125,1195.2969 1871.9219,1195.2969 L1872.3438,1195.2969 L1871.9375,1194.2656 Z M1871.2188,1192.5625 L1869.8594,1189.1875 L1868.4844,1192.5625 L1871.2188,1192.5625 Z " fill="#000000"/><text fill="#000000" font-family="sans-serif" font-size="14" font-style="italic" lengthAdjust="spacing" textLength="38" x="1890.25" y="1198.2285">Spore</text><line style="stroke:#181818;stroke-width:0.5;" x1="1803.5" x2="1982.5" y1="1208.5" y2="1208.5"/><text fill="#000000" font-family="sans-serif" font-size="14" lengthAdjust="spacing" textLength="107" x="1808.5" y="1227.0332">nutrition : Integer</text><line style="stroke:#181818;stroke-width:0.5;" x1="1803.5" x2="1982.5" y1="1234.1094" y2="1234.1094"/><text fill="#000000" font-family="sans-serif" font-size="14" lengthAdjust="spacing" textLength="169" x="1808.5" y="1252.6426">getEffect() : abstract Effect</text></g><!--class SingleThreadedTecton--><g id="elem_SingleThreadedTecton"><rect codeLine="38" fill="#F1F1F1" height="65.6094" id="SingleThreadedTecton" rx="2.5" ry="2.5" style="stroke:#181818;stroke-width:0.5;" width="177" x="1590.5" y="1185"/><ellipse cx="1605.5" cy="1201" fill="#ADD1B2" rx="11" ry="11" style="stroke:#181818;stroke-width:1.0;"/><path d="M1608.2656,1196.875 Q1608.4219,1196.6563 1608.6094,1196.5469 Q1608.7969,1196.4375 1609.0156,1196.4375 Q1609.3906,1196.4375 1609.625,1196.7031 Q1609.8594,1196.9531 1609.8594,1197.5625 L1609.8594,1199.0156 Q1609.8594,1199.625 1609.625,1199.8906 Q1609.3906,1200.1563 1609.0156,1200.1563 Q1608.6719,1200.1563 1608.4688,1199.9531 Q1608.2656,1199.7656 1608.1563,1199.25 Q1608.1094,1198.8906 1607.9219,1198.7031 Q1607.5938,1198.3281 1606.9844,1198.1094 Q1606.375,1197.8906 1605.75,1197.8906 Q1604.9844,1197.8906 1604.3438,1198.2188 Q1603.7188,1198.5469 1603.2188,1199.2969 Q1602.7344,1200.0469 1602.7344,1201.0781 L1602.7344,1202.1719 Q1602.7344,1203.4063 1603.625,1204.2344 Q1604.5156,1205.0469 1606.1094,1205.0469 Q1607.0469,1205.0469 1607.7031,1204.7969 Q1608.0938,1204.6406 1608.5156,1204.2031 Q1608.7813,1203.9375 1608.9219,1203.8594 Q1609.0781,1203.7813 1609.2813,1203.7813 Q1609.6094,1203.7813 1609.8594,1204.0469 Q1610.125,1204.2969 1610.125,1204.6406 Q1610.125,1204.9844 1609.7813,1205.3906 Q1609.2813,1205.9688 1608.4844,1206.2969 Q1607.4063,1206.75 1606.1094,1206.75 Q1604.5938,1206.75 1603.3906,1206.125 Q1602.4063,1205.625 1601.7188,1204.5625 Q1601.0313,1203.4844 1601.0313,1202.2031 L1601.0313,1201.0469 Q1601.0313,1199.7188 1601.6406,1198.5781 Q1602.2656,1197.4219 1603.3594,1196.8125 Q1604.4531,1196.1875 1605.6875,1196.1875 Q1606.4219,1196.1875 1607.0625,1196.3594 Q1607.7188,1196.5156 1608.2656,1196.875 Z " fill="#000000"/><text fill="#000000" font-family="sans-serif" font-size="14" lengthAdjust="spacing" textLength="145" x="1619.5" y="1206.7285">SingleThreadedTecton</text><line style="stroke:#181818;stroke-width:0.5;" x1="1591.5" x2="1766.5" y1="1217" y2="1217"/><text fill="#000000" font-family="sans-serif" font-size="14" lengthAdjust="spacing" text-decoration="underline" textLength="158" x="1596.5" y="1235.5332">maxThreads = 1 : Integer</text><line style="stroke:#181818;stroke-width:0.5;" x1="1591.5" x2="1766.5" y1="1242.6094" y2="1242.6094"/></g><!--class StemlessTecton--><g id="elem_StemlessTecton"><rect codeLine="45" fill="#F1F1F1" height="65.6094" id="StemlessTecton" rx="2.5" ry="2.5" style="stroke:#181818;stroke-width:0.5;" width="156" x="1171" y="1185"/><ellipse cx="1196.35" cy="1201" fill="#ADD1B2" rx="11" ry="11" style="stroke:#181818;stroke-width:1.0;"/><path d="M1199.1156,1196.875 Q1199.2719,1196.6563 1199.4594,1196.5469 Q1199.6469,1196.4375 1199.8656,1196.4375 Q1200.2406,1196.4375 1200.475,1196.7031 Q1200.7094,1196.9531 1200.7094,1197.5625 L1200.7094,1199.0156 Q1200.7094,1199.625 1200.475,1199.8906 Q1200.2406,1200.1563 1199.8656,1200.1563 Q1199.5219,1200.1563 1199.3188,1199.9531 Q1199.1156,1199.7656 1199.0063,1199.25 Q1198.9594,1198.8906 1198.7719,1198.7031 Q1198.4438,1198.3281 1197.8344,1198.1094 Q1197.225,1197.8906 1196.6,1197.8906 Q1195.8344,1197.8906 1195.1938,1198.2188 Q1194.5688,1198.5469 1194.0688,1199.2969 Q1193.5844,1200.0469 1193.5844,1201.0781 L1193.5844,1202.1719 Q1193.5844,1203.4063 1194.475,1204.2344 Q1195.3656,1205.0469 1196.9594,1205.0469 Q1197.8969,1205.0469 1198.5531,1204.7969 Q1198.9438,1204.6406 1199.3656,1204.2031 Q1199.6313,1203.9375 1199.7719,1203.8594 Q1199.9281,1203.7813 1200.1313,1203.7813 Q1200.4594,1203.7813 1200.7094,1204.0469 Q1200.975,1204.2969 1200.975,1204.6406 Q1200.975,1204.9844 1200.6313,1205.3906 Q1200.1313,1205.9688 1199.3344,1206.2969 Q1198.2563,1206.75 1196.9594,1206.75 Q1195.4438,1206.75 1194.2406,1206.125 Q1193.2563,1205.625 1192.5688,1204.5625 Q1191.8813,1203.4844 1191.8813,1202.2031 L1191.8813,1201.0469 Q1191.8813,1199.7188 1192.4906,1198.5781 Q1193.1156,1197.4219 1194.2094,1196.8125 Q1195.3031,1196.1875 1196.5375,1196.1875 Q1197.2719,1196.1875 1197.9125,1196.3594 Q1198.5688,1196.5156 1199.1156,1196.875 Z " fill="#000000"/><text fill="#000000" font-family="sans-serif" font-size="14" lengthAdjust="spacing" textLength="101" x="1212.65" y="1206.7285">StemlessTecton</text><line style="stroke:#181818;stroke-width:0.5;" x1="1172" x2="1326" y1="1217" y2="1217"/><text fill="#000000" font-family="sans-serif" font-size="14" lengthAdjust="spacing" text-decoration="underline" textLength="144" x="1177" y="1235.5332">maxStems = 0 : Integer</text><line style="stroke:#181818;stroke-width:0.5;" x1="1172" x2="1326" y1="1242.6094" y2="1242.6094"/></g><!--class ThreadConsumingTecton--><g id="elem_ThreadConsumingTecton"><rect codeLine="52" fill="#F1F1F1" height="48" id="ThreadConsumingTecton" rx="2.5" ry="2.5" style="stroke:#181818;stroke-width:0.5;" width="193" x="1362.5" y="1194"/><ellipse cx="1377.5" cy="1210" fill="#ADD1B2" rx="11" ry="11" style="stroke:#181818;stroke-width:1.0;"/><path d="M1380.2656,1205.875 Q1380.4219,1205.6563 1380.6094,1205.5469 Q1380.7969,1205.4375 1381.0156,1205.4375 Q1381.3906,1205.4375 1381.625,1205.7031 Q1381.8594,1205.9531 1381.8594,1206.5625 L1381.8594,1208.0156 Q1381.8594,1208.625 1381.625,1208.8906 Q1381.3906,1209.1563 1381.0156,1209.1563 Q1380.6719,1209.1563 1380.4688,1208.9531 Q1380.2656,1208.7656 1380.1563,1208.25 Q1380.1094,1207.8906 1379.9219,1207.7031 Q1379.5938,1207.3281 1378.9844,1207.1094 Q1378.375,1206.8906 1377.75,1206.8906 Q1376.9844,1206.8906 1376.3438,1207.2188 Q1375.7188,1207.5469 1375.2188,1208.2969 Q1374.7344,1209.0469 1374.7344,1210.0781 L1374.7344,1211.1719 Q1374.7344,1212.4063 1375.625,1213.2344 Q1376.5156,1214.0469 1378.1094,1214.0469 Q1379.0469,1214.0469 1379.7031,1213.7969 Q1380.0938,1213.6406 1380.5156,1213.2031 Q1380.7813,1212.9375 1380.9219,1212.8594 Q1381.0781,1212.7813 1381.2813,1212.7813 Q1381.6094,1212.7813 1381.8594,1213.0469 Q1382.125,1213.2969 1382.125,1213.6406 Q1382.125,1213.9844 1381.7813,1214.3906 Q1381.2813,1214.9688 1380.4844,1215.2969 Q1379.4063,1215.75 1378.1094,1215.75 Q1376.5938,1215.75 1375.3906,1215.125 Q1374.4063,1214.625 1373.7188,1213.5625 Q1373.0313,1212.4844 1373.0313,1211.2031 L1373.0313,1210.0469 Q1373.0313,1208.7188 1373.6406,1207.5781 Q1374.2656,1206.4219 1375.3594,1205.8125 Q1376.4531,1205.1875 1377.6875,1205.1875 Q1378.4219,1205.1875 1379.0625,1205.3594 Q1379.7188,1205.5156 1380.2656,1205.875 Z " fill="#000000"/><text fill="#000000" font-family="sans-serif" font-size="14" lengthAdjust="spacing" textLength="161" x="1391.5" y="1215.7285">ThreadConsumingTecton</text><line style="stroke:#181818;stroke-width:0.5;" x1="1363.5" x2="1554.5" y1="1226" y2="1226"/><line style="stroke:#181818;stroke-width:0.5;" x1="1363.5" x2="1554.5" y1="1234" y2="1234"/></g><!--class Entity--><g id="elem_Entity"><rect codeLine="1" fill="#F1F1F1" height="83.2188" id="Entity" rx="2.5" ry="2.5" style="stroke:#181818;stroke-width:0.5;" width="103" x="1909.5" y="883"/><ellipse cx="1940.7" cy="899" fill="#A9DCDF" rx="11" ry="11" style="stroke:#181818;stroke-width:1.0;"/><path d="M1942.8875,900.7656 L1938.7469,900.7656 L1938.325,901.7969 L1938.7469,901.7969 Q1939.3563,901.7969 1939.6219,902.0313 Q1939.8875,902.2656 1939.8875,902.6563 Q1939.8875,903.0313 1939.6219,903.2656 Q1939.3563,903.5 1938.7469,903.5 L1936.45,903.5 Q1935.8406,903.5 1935.5906,903.2656 Q1935.325,903.0313 1935.325,902.6406 Q1935.325,902.2656 1935.6063,902.0313 Q1935.8719,901.7813 1936.4969,901.7969 L1939.1688,895.1406 L1938.0594,895.1406 Q1937.45,895.1406 1937.1844,894.9063 Q1936.9188,894.6719 1936.9188,894.2813 Q1936.9188,893.9063 1937.1844,893.6719 Q1937.45,893.4375 1938.0594,893.4375 L1941.7313,893.4375 L1945.1219,901.7969 Q1945.7156,901.7969 1945.9031,901.9375 Q1946.2938,902.2031 1946.2938,902.6563 Q1946.2938,903.0313 1946.0281,903.2656 Q1945.7781,903.5 1945.1688,903.5 L1942.8719,903.5 Q1942.2625,903.5 1941.9969,903.2656 Q1941.7313,903.0313 1941.7313,902.6406 Q1941.7313,902.2656 1941.9969,902.0313 Q1942.2625,901.7969 1942.8719,901.7969 L1943.2938,901.7969 L1942.8875,900.7656 Z M1942.1688,899.0625 L1940.8094,895.6875 L1939.4344,899.0625 L1942.1688,899.0625 Z " fill="#000000"/><text fill="#000000" font-family="sans-serif" font-size="14" font-style="italic" lengthAdjust="spacing" textLength="35" x="1958.3" y="904.7285">Entity</text><line style="stroke:#181818;stroke-width:0.5;" x1="1910.5" x2="2011.5" y1="915" y2="915"/><text fill="#000000" font-family="sans-serif" font-size="14" lengthAdjust="spacing" textLength="90" x="1915.5" y="933.5332">owner : Player</text><text fill="#000000" font-family="sans-serif" font-size="14" lengthAdjust="spacing" textLength="91" x="1915.5" y="951.1426">tecton: Tecton</text><line style="stroke:#181818;stroke-width:0.5;" x1="1910.5" x2="2011.5" y1="958.2188" y2="958.2188"/></g><!--class SlowingSpore--><g id="elem_SlowingSpore"><rect codeLine="11" fill="#F1F1F1" height="65.6094" id="SlowingSpore" rx="2.5" ry="2.5" style="stroke:#181818;stroke-width:0.5;" width="126" x="1942" y="1434.5"/><ellipse cx="1960.6" cy="1450.5" fill="#ADD1B2" rx="11" ry="11" style="stroke:#181818;stroke-width:1.0;"/><path d="M1963.3656,1446.375 Q1963.5219,1446.1563 1963.7094,1446.0469 Q1963.8969,1445.9375 1964.1156,1445.9375 Q1964.4906,1445.9375 1964.725,1446.2031 Q1964.9594,1446.4531 1964.9594,1447.0625 L1964.9594,1448.5156 Q1964.9594,1449.125 1964.725,1449.3906 Q1964.4906,1449.6563 1964.1156,1449.6563 Q1963.7719,1449.6563 1963.5688,1449.4531 Q1963.3656,1449.2656 1963.2563,1448.75 Q1963.2094,1448.3906 1963.0219,1448.2031 Q1962.6938,1447.8281 1962.0844,1447.6094 Q1961.475,1447.3906 1960.85,1447.3906 Q1960.0844,1447.3906 1959.4438,1447.7188 Q1958.8188,1448.0469 1958.3188,1448.7969 Q1957.8344,1449.5469 1957.8344,1450.5781 L1957.8344,1451.6719 Q1957.8344,1452.9063 1958.725,1453.7344 Q1959.6156,1454.5469 1961.2094,1454.5469 Q1962.1469,1454.5469 1962.8031,1454.2969 Q1963.1938,1454.1406 1963.6156,1453.7031 Q1963.8813,1453.4375 1964.0219,1453.3594 Q1964.1781,1453.2813 1964.3813,1453.2813 Q1964.7094,1453.2813 1964.9594,1453.5469 Q1965.225,1453.7969 1965.225,1454.1406 Q1965.225,1454.4844 1964.8813,1454.8906 Q1964.3813,1455.4688 1963.5844,1455.7969 Q1962.5063,1456.25 1961.2094,1456.25 Q1959.6938,1456.25 1958.4906,1455.625 Q1957.5063,1455.125 1956.8188,1454.0625 Q1956.1313,1452.9844 1956.1313,1451.7031 L1956.1313,1450.5469 Q1956.1313,1449.2188 1956.7406,1448.0781 Q1957.3656,1446.9219 1958.4594,1446.3125 Q1959.5531,1445.6875 1960.7875,1445.6875 Q1961.5219,1445.6875 1962.1625,1445.8594 Q1962.8188,1446.0156 1963.3656,1446.375 Z " fill="#000000"/><text fill="#000000" font-family="sans-serif" font-size="14" lengthAdjust="spacing" textLength="86" x="1975.4" y="1456.2285">SlowingSpore</text><line style="stroke:#181818;stroke-width:0.5;" x1="1943" x2="2067" y1="1466.5" y2="1466.5"/><line style="stroke:#181818;stroke-width:0.5;" x1="1943" x2="2067" y1="1474.5" y2="1474.5"/><text fill="#000000" font-family="sans-serif" font-size="14" lengthAdjust="spacing" textLength="114" x="1948" y="1493.0332">getEffect() : Effect</text></g><!--class SpeedingSpore--><g id="elem_SpeedingSpore"><rect codeLine="16" fill="#F1F1F1" height="65.6094" id="SpeedingSpore" rx="2.5" ry="2.5" style="stroke:#181818;stroke-width:0.5;" width="130" x="2103" y="1434.5"/><ellipse cx="2118" cy="1450.5" fill="#ADD1B2" rx="11" ry="11" style="stroke:#181818;stroke-width:1.0;"/><path d="M2120.7656,1446.375 Q2120.9219,1446.1563 2121.1094,1446.0469 Q2121.2969,1445.9375 2121.5156,1445.9375 Q2121.8906,1445.9375 2122.125,1446.2031 Q2122.3594,1446.4531 2122.3594,1447.0625 L2122.3594,1448.5156 Q2122.3594,1449.125 2122.125,1449.3906 Q2121.8906,1449.6563 2121.5156,1449.6563 Q2121.1719,1449.6563 2120.9688,1449.4531 Q2120.7656,1449.2656 2120.6563,1448.75 Q2120.6094,1448.3906 2120.4219,1448.2031 Q2120.0938,1447.8281 2119.4844,1447.6094 Q2118.875,1447.3906 2118.25,1447.3906 Q2117.4844,1447.3906 2116.8438,1447.7188 Q2116.2188,1448.0469 2115.7188,1448.7969 Q2115.2344,1449.5469 2115.2344,1450.5781 L2115.2344,1451.6719 Q2115.2344,1452.9063 2116.125,1453.7344 Q2117.0156,1454.5469 2118.6094,1454.5469 Q2119.5469,1454.5469 2120.2031,1454.2969 Q2120.5938,1454.1406 2121.0156,1453.7031 Q2121.2813,1453.4375 2121.4219,1453.3594 Q2121.5781,1453.2813 2121.7813,1453.2813 Q2122.1094,1453.2813 2122.3594,1453.5469 Q2122.625,1453.7969 2122.625,1454.1406 Q2122.625,1454.4844 2122.2813,1454.8906 Q2121.7813,1455.4688 2120.9844,1455.7969 Q2119.9063,1456.25 2118.6094,1456.25 Q2117.0938,1456.25 2115.8906,1455.625 Q2114.9063,1455.125 2114.2188,1454.0625 Q2113.5313,1452.9844 2113.5313,1451.7031 L2113.5313,1450.5469 Q2113.5313,1449.2188 2114.1406,1448.0781 Q2114.7656,1446.9219 2115.8594,1446.3125 Q2116.9531,1445.6875 2118.1875,1445.6875 Q2118.9219,1445.6875 2119.5625,1445.8594 Q2120.2188,1446.0156 2120.7656,1446.375 Z " fill="#000000"/><text fill="#000000" font-family="sans-serif" font-size="14" lengthAdjust="spacing" textLength="98" x="2132" y="1456.2285">SpeedingSpore</text><line style="stroke:#181818;stroke-width:0.5;" x1="2104" x2="2232" y1="1466.5" y2="1466.5"/><line style="stroke:#181818;stroke-width:0.5;" x1="2104" x2="2232" y1="1474.5" y2="1474.5"/><text fill="#000000" font-family="sans-serif" font-size="14" lengthAdjust="spacing" textLength="114" x="2109" y="1493.0332">getEffect() : Effect</text></g><!--class ParalyzingSpore--><g id="elem_ParalyzingSpore"><rect codeLine="21" fill="#F1F1F1" height="65.6094" id="ParalyzingSpore" rx="2.5" ry="2.5" style="stroke:#181818;stroke-width:0.5;" width="135" x="1571.5" y="1434.5"/><ellipse cx="1586.5" cy="1450.5" fill="#ADD1B2" rx="11" ry="11" style="stroke:#181818;stroke-width:1.0;"/><path d="M1589.2656,1446.375 Q1589.4219,1446.1563 1589.6094,1446.0469 Q1589.7969,1445.9375 1590.0156,1445.9375 Q1590.3906,1445.9375 1590.625,1446.2031 Q1590.8594,1446.4531 1590.8594,1447.0625 L1590.8594,1448.5156 Q1590.8594,1449.125 1590.625,1449.3906 Q1590.3906,1449.6563 1590.0156,1449.6563 Q1589.6719,1449.6563 1589.4688,1449.4531 Q1589.2656,1449.2656 1589.1563,1448.75 Q1589.1094,1448.3906 1588.9219,1448.2031 Q1588.5938,1447.8281 1587.9844,1447.6094 Q1587.375,1447.3906 1586.75,1447.3906 Q1585.9844,1447.3906 1585.3438,1447.7188 Q1584.7188,1448.0469 1584.2188,1448.7969 Q1583.7344,1449.5469 1583.7344,1450.5781 L1583.7344,1451.6719 Q1583.7344,1452.9063 1584.625,1453.7344 Q1585.5156,1454.5469 1587.1094,1454.5469 Q1588.0469,1454.5469 1588.7031,1454.2969 Q1589.0938,1454.1406 1589.5156,1453.7031 Q1589.7813,1453.4375 1589.9219,1453.3594 Q1590.0781,1453.2813 1590.2813,1453.2813 Q1590.6094,1453.2813 1590.8594,1453.5469 Q1591.125,1453.7969 1591.125,1454.1406 Q1591.125,1454.4844 1590.7813,1454.8906 Q1590.2813,1455.4688 1589.4844,1455.7969 Q1588.4063,1456.25 1587.1094,1456.25 Q1585.5938,1456.25 1584.3906,1455.625 Q1583.4063,1455.125 1582.7188,1454.0625 Q1582.0313,1452.9844 1582.0313,1451.7031 L1582.0313,1450.5469 Q1582.0313,1449.2188 1582.6406,1448.0781 Q1583.2656,1446.9219 1584.3594,1446.3125 Q1585.4531,1445.6875 1586.6875,1445.6875 Q1587.4219,1445.6875 1588.0625,1445.8594 Q1588.7188,1446.0156 1589.2656,1446.375 Z " fill="#000000"/><text fill="#000000" font-family="sans-serif" font-size="14" lengthAdjust="spacing" textLength="103" x="1600.5" y="1456.2285">ParalyzingSpore</text><line style="stroke:#181818;stroke-width:0.5;" x1="1572.5" x2="1705.5" y1="1466.5" y2="1466.5"/><line style="stroke:#181818;stroke-width:0.5;" x1="1572.5" x2="1705.5" y1="1474.5" y2="1474.5"/><text fill="#000000" font-family="sans-serif" font-size="14" lengthAdjust="spacing" textLength="114" x="1577.5" y="1493.0332">getEffect() : Effect</text></g><!--class ClawParalyzingSpore--><g id="elem_ClawParalyzingSpore"><rect codeLine="26" fill="#F1F1F1" height="65.6094" id="ClawParalyzingSpore" rx="2.5" ry="2.5" style="stroke:#181818;stroke-width:0.5;" width="165" x="1741.5" y="1434.5"/><ellipse cx="1756.5" cy="1450.5" fill="#ADD1B2" rx="11" ry="11" style="stroke:#181818;stroke-width:1.0;"/><path d="M1759.2656,1446.375 Q1759.4219,1446.1563 1759.6094,1446.0469 Q1759.7969,1445.9375 1760.0156,1445.9375 Q1760.3906,1445.9375 1760.625,1446.2031 Q1760.8594,1446.4531 1760.8594,1447.0625 L1760.8594,1448.5156 Q1760.8594,1449.125 1760.625,1449.3906 Q1760.3906,1449.6563 1760.0156,1449.6563 Q1759.6719,1449.6563 1759.4688,1449.4531 Q1759.2656,1449.2656 1759.1563,1448.75 Q1759.1094,1448.3906 1758.9219,1448.2031 Q1758.5938,1447.8281 1757.9844,1447.6094 Q1757.375,1447.3906 1756.75,1447.3906 Q1755.9844,1447.3906 1755.3438,1447.7188 Q1754.7188,1448.0469 1754.2188,1448.7969 Q1753.7344,1449.5469 1753.7344,1450.5781 L1753.7344,1451.6719 Q1753.7344,1452.9063 1754.625,1453.7344 Q1755.5156,1454.5469 1757.1094,1454.5469 Q1758.0469,1454.5469 1758.7031,1454.2969 Q1759.0938,1454.1406 1759.5156,1453.7031 Q1759.7813,1453.4375 1759.9219,1453.3594 Q1760.0781,1453.2813 1760.2813,1453.2813 Q1760.6094,1453.2813 1760.8594,1453.5469 Q1761.125,1453.7969 1761.125,1454.1406 Q1761.125,1454.4844 1760.7813,1454.8906 Q1760.2813,1455.4688 1759.4844,1455.7969 Q1758.4063,1456.25 1757.1094,1456.25 Q1755.5938,1456.25 1754.3906,1455.625 Q1753.4063,1455.125 1752.7188,1454.0625 Q1752.0313,1452.9844 1752.0313,1451.7031 L1752.0313,1450.5469 Q1752.0313,1449.2188 1752.6406,1448.0781 Q1753.2656,1446.9219 1754.3594,1446.3125 Q1755.4531,1445.6875 1756.6875,1445.6875 Q1757.4219,1445.6875 1758.0625,1445.8594 Q1758.7188,1446.0156 1759.2656,1446.375 Z " fill="#000000"/><text fill="#000000" font-family="sans-serif" font-size="14" lengthAdjust="spacing" textLength="133" x="1770.5" y="1456.2285">ClawParalyzingSpore</text><line style="stroke:#181818;stroke-width:0.5;" x1="1742.5" x2="1905.5" y1="1466.5" y2="1466.5"/><line style="stroke:#181818;stroke-width:0.5;" x1="1742.5" x2="1905.5" y1="1474.5" y2="1474.5"/><text fill="#000000" font-family="sans-serif" font-size="14" lengthAdjust="spacing" textLength="114" x="1747.5" y="1493.0332">getEffect() : Effect</text></g><!--class Effect--><g id="elem_Effect"><rect codeLine="2" fill="#F1F1F1" height="171.2656" id="Effect" rx="2.5" ry="2.5" style="stroke:#181818;stroke-width:0.5;" width="189" x="470.5" y="1382"/><ellipse cx="542.75" cy="1398" fill="#A9DCDF" rx="11" ry="11" style="stroke:#181818;stroke-width:1.0;"/><path d="M544.9375,1399.7656 L540.7969,1399.7656 L540.375,1400.7969 L540.7969,1400.7969 Q541.4063,1400.7969 541.6719,1401.0313 Q541.9375,1401.2656 541.9375,1401.6563 Q541.9375,1402.0313 541.6719,1402.2656 Q541.4063,1402.5 540.7969,1402.5 L538.5,1402.5 Q537.8906,1402.5 537.6406,1402.2656 Q537.375,1402.0313 537.375,1401.6406 Q537.375,1401.2656 537.6563,1401.0313 Q537.9219,1400.7813 538.5469,1400.7969 L541.2188,1394.1406 L540.1094,1394.1406 Q539.5,1394.1406 539.2344,1393.9063 Q538.9688,1393.6719 538.9688,1393.2813 Q538.9688,1392.9063 539.2344,1392.6719 Q539.5,1392.4375 540.1094,1392.4375 L543.7813,1392.4375 L547.1719,1400.7969 Q547.7656,1400.7969 547.9531,1400.9375 Q548.3438,1401.2031 548.3438,1401.6563 Q548.3438,1402.0313 548.0781,1402.2656 Q547.8281,1402.5 547.2188,1402.5 L544.9219,1402.5 Q544.3125,1402.5 544.0469,1402.2656 Q543.7813,1402.0313 543.7813,1401.6406 Q543.7813,1401.2656 544.0469,1401.0313 Q544.3125,1400.7969 544.9219,1400.7969 L545.3438,1400.7969 L544.9375,1399.7656 Z M544.2188,1398.0625 L542.8594,1394.6875 L541.4844,1398.0625 L544.2188,1398.0625 Z " fill="#000000"/><text fill="#000000" font-family="sans-serif" font-size="14" font-style="italic" lengthAdjust="spacing" textLength="36" x="563.25" y="1403.7285">Effect</text><line style="stroke:#181818;stroke-width:0.5;" x1="471.5" x2="658.5" y1="1414" y2="1414"/><text fill="#000000" font-family="sans-serif" font-size="14" lengthAdjust="spacing" text-decoration="underline" textLength="108" x="476.5" y="1432.5332">duration : Integer</text><text fill="#000000" font-family="sans-serif" font-size="14" lengthAdjust="spacing" textLength="175" x="476.5" y="1450.1426">durationRemaining : Integer</text><text fill="#000000" font-family="sans-serif" font-size="14" lengthAdjust="spacing" textLength="4" x="476.5" y="1467.752">&#160;</text><text fill="#000000" font-family="sans-serif" font-size="14" lengthAdjust="spacing" text-decoration="underline" textLength="124" x="476.5" y="1485.3613">doesStun : Boolean</text><text fill="#000000" font-family="sans-serif" font-size="14" lengthAdjust="spacing" text-decoration="underline" textLength="145" x="476.5" y="1502.9707">speedModifier : Integer</text><line style="stroke:#181818;stroke-width:0.5;" x1="471.5" x2="658.5" y1="1510.0469" y2="1510.0469"/><text fill="#000000" font-family="sans-serif" font-size="14" lengthAdjust="spacing" textLength="134" x="476.5" y="1528.5801">doesStun() : Boolean</text><text fill="#000000" font-family="sans-serif" font-size="14" lengthAdjust="spacing" textLength="177" x="476.5" y="1546.1895">getSpeedModifier() : Integer</text></g><!--class Slow--><g id="elem_Slow"><rect codeLine="14" fill="#F1F1F1" height="83.2188" id="Slow" rx="2.5" ry="2.5" style="stroke:#181818;stroke-width:0.5;" width="189" x="694.5" y="1176.5"/><ellipse cx="770.25" cy="1192.5" fill="#ADD1B2" rx="11" ry="11" style="stroke:#181818;stroke-width:1.0;"/><path d="M773.0156,1188.375 Q773.1719,1188.1563 773.3594,1188.0469 Q773.5469,1187.9375 773.7656,1187.9375 Q774.1406,1187.9375 774.375,1188.2031 Q774.6094,1188.4531 774.6094,1189.0625 L774.6094,1190.5156 Q774.6094,1191.125 774.375,1191.3906 Q774.1406,1191.6563 773.7656,1191.6563 Q773.4219,1191.6563 773.2188,1191.4531 Q773.0156,1191.2656 772.9063,1190.75 Q772.8594,1190.3906 772.6719,1190.2031 Q772.3438,1189.8281 771.7344,1189.6094 Q771.125,1189.3906 770.5,1189.3906 Q769.7344,1189.3906 769.0938,1189.7188 Q768.4688,1190.0469 767.9688,1190.7969 Q767.4844,1191.5469 767.4844,1192.5781 L767.4844,1193.6719 Q767.4844,1194.9063 768.375,1195.7344 Q769.2656,1196.5469 770.8594,1196.5469 Q771.7969,1196.5469 772.4531,1196.2969 Q772.8438,1196.1406 773.2656,1195.7031 Q773.5313,1195.4375 773.6719,1195.3594 Q773.8281,1195.2813 774.0313,1195.2813 Q774.3594,1195.2813 774.6094,1195.5469 Q774.875,1195.7969 774.875,1196.1406 Q774.875,1196.4844 774.5313,1196.8906 Q774.0313,1197.4688 773.2344,1197.7969 Q772.1563,1198.25 770.8594,1198.25 Q769.3438,1198.25 768.1406,1197.625 Q767.1563,1197.125 766.4688,1196.0625 Q765.7813,1194.9844 765.7813,1193.7031 L765.7813,1192.5469 Q765.7813,1191.2188 766.3906,1190.0781 Q767.0156,1188.9219 768.1094,1188.3125 Q769.2031,1187.6875 770.4375,1187.6875 Q771.1719,1187.6875 771.8125,1187.8594 Q772.4688,1188.0156 773.0156,1188.375 Z " fill="#000000"/><text fill="#000000" font-family="sans-serif" font-size="14" lengthAdjust="spacing" textLength="29" x="790.75" y="1198.2285">Slow</text><line style="stroke:#181818;stroke-width:0.5;" x1="695.5" x2="882.5" y1="1208.5" y2="1208.5"/><line style="stroke:#181818;stroke-width:0.5;" x1="695.5" x2="882.5" y1="1216.5" y2="1216.5"/><text fill="#000000" font-family="sans-serif" font-size="14" lengthAdjust="spacing" textLength="134" x="700.5" y="1235.0332">doesStun() : Boolean</text><text fill="#000000" font-family="sans-serif" font-size="14" lengthAdjust="spacing" textLength="177" x="700.5" y="1252.6426">getSpeedModifier() : Integer</text></g><!--class Fast--><g id="elem_Fast"><rect codeLine="20" fill="#F1F1F1" height="83.2188" id="Fast" rx="2.5" ry="2.5" style="stroke:#181818;stroke-width:0.5;" width="189" x="470.5" y="1176.5"/><ellipse cx="546.75" cy="1192.5" fill="#ADD1B2" rx="11" ry="11" style="stroke:#181818;stroke-width:1.0;"/><path d="M549.5156,1188.375 Q549.6719,1188.1563 549.8594,1188.0469 Q550.0469,1187.9375 550.2656,1187.9375 Q550.6406,1187.9375 550.875,1188.2031 Q551.1094,1188.4531 551.1094,1189.0625 L551.1094,1190.5156 Q551.1094,1191.125 550.875,1191.3906 Q550.6406,1191.6563 550.2656,1191.6563 Q549.9219,1191.6563 549.7188,1191.4531 Q549.5156,1191.2656 549.4063,1190.75 Q549.3594,1190.3906 549.1719,1190.2031 Q548.8438,1189.8281 548.2344,1189.6094 Q547.625,1189.3906 547,1189.3906 Q546.2344,1189.3906 545.5938,1189.7188 Q544.9688,1190.0469 544.4688,1190.7969 Q543.9844,1191.5469 543.9844,1192.5781 L543.9844,1193.6719 Q543.9844,1194.9063 544.875,1195.7344 Q545.7656,1196.5469 547.3594,1196.5469 Q548.2969,1196.5469 548.9531,1196.2969 Q549.3438,1196.1406 549.7656,1195.7031 Q550.0313,1195.4375 550.1719,1195.3594 Q550.3281,1195.2813 550.5313,1195.2813 Q550.8594,1195.2813 551.1094,1195.5469 Q551.375,1195.7969 551.375,1196.1406 Q551.375,1196.4844 551.0313,1196.8906 Q550.5313,1197.4688 549.7344,1197.7969 Q548.6563,1198.25 547.3594,1198.25 Q545.8438,1198.25 544.6406,1197.625 Q543.6563,1197.125 542.9688,1196.0625 Q542.2813,1194.9844 542.2813,1193.7031 L542.2813,1192.5469 Q542.2813,1191.2188 542.8906,1190.0781 Q543.5156,1188.9219 544.6094,1188.3125 Q545.7031,1187.6875 546.9375,1187.6875 Q547.6719,1187.6875 548.3125,1187.8594 Q548.9688,1188.0156 549.5156,1188.375 Z " fill="#000000"/><text fill="#000000" font-family="sans-serif" font-size="14" lengthAdjust="spacing" textLength="28" x="567.25" y="1198.2285">Fast</text><line style="stroke:#181818;stroke-width:0.5;" x1="471.5" x2="658.5" y1="1208.5" y2="1208.5"/><line style="stroke:#181818;stroke-width:0.5;" x1="471.5" x2="658.5" y1="1216.5" y2="1216.5"/><text fill="#000000" font-family="sans-serif" font-size="14" lengthAdjust="spacing" textLength="134" x="476.5" y="1235.0332">doesStun() : Boolean</text><text fill="#000000" font-family="sans-serif" font-size="14" lengthAdjust="spacing" textLength="177" x="476.5" y="1252.6426">getSpeedModifier() : Integer</text></g><!--class Paralyze--><g id="elem_Paralyze"><rect codeLine="26" fill="#F1F1F1" height="83.2188" id="Paralyze" rx="2.5" ry="2.5" style="stroke:#181818;stroke-width:0.5;" width="189" x="246.5" y="1176.5"/><ellipse cx="309.75" cy="1192.5" fill="#ADD1B2" rx="11" ry="11" style="stroke:#181818;stroke-width:1.0;"/><path d="M312.5156,1188.375 Q312.6719,1188.1563 312.8594,1188.0469 Q313.0469,1187.9375 313.2656,1187.9375 Q313.6406,1187.9375 313.875,1188.2031 Q314.1094,1188.4531 314.1094,1189.0625 L314.1094,1190.5156 Q314.1094,1191.125 313.875,1191.3906 Q313.6406,1191.6563 313.2656,1191.6563 Q312.9219,1191.6563 312.7188,1191.4531 Q312.5156,1191.2656 312.4063,1190.75 Q312.3594,1190.3906 312.1719,1190.2031 Q311.8438,1189.8281 311.2344,1189.6094 Q310.625,1189.3906 310,1189.3906 Q309.2344,1189.3906 308.5938,1189.7188 Q307.9688,1190.0469 307.4688,1190.7969 Q306.9844,1191.5469 306.9844,1192.5781 L306.9844,1193.6719 Q306.9844,1194.9063 307.875,1195.7344 Q308.7656,1196.5469 310.3594,1196.5469 Q311.2969,1196.5469 311.9531,1196.2969 Q312.3438,1196.1406 312.7656,1195.7031 Q313.0313,1195.4375 313.1719,1195.3594 Q313.3281,1195.2813 313.5313,1195.2813 Q313.8594,1195.2813 314.1094,1195.5469 Q314.375,1195.7969 314.375,1196.1406 Q314.375,1196.4844 314.0313,1196.8906 Q313.5313,1197.4688 312.7344,1197.7969 Q311.6563,1198.25 310.3594,1198.25 Q308.8438,1198.25 307.6406,1197.625 Q306.6563,1197.125 305.9688,1196.0625 Q305.2813,1194.9844 305.2813,1193.7031 L305.2813,1192.5469 Q305.2813,1191.2188 305.8906,1190.0781 Q306.5156,1188.9219 307.6094,1188.3125 Q308.7031,1187.6875 309.9375,1187.6875 Q310.6719,1187.6875 311.3125,1187.8594 Q311.9688,1188.0156 312.5156,1188.375 Z " fill="#000000"/><text fill="#000000" font-family="sans-serif" font-size="14" lengthAdjust="spacing" textLength="54" x="330.25" y="1198.2285">Paralyze</text><line style="stroke:#181818;stroke-width:0.5;" x1="247.5" x2="434.5" y1="1208.5" y2="1208.5"/><line style="stroke:#181818;stroke-width:0.5;" x1="247.5" x2="434.5" y1="1216.5" y2="1216.5"/><text fill="#000000" font-family="sans-serif" font-size="14" lengthAdjust="spacing" textLength="134" x="252.5" y="1235.0332">doesStun() : Boolean</text><text fill="#000000" font-family="sans-serif" font-size="14" lengthAdjust="spacing" textLength="177" x="252.5" y="1252.6426">getSpeedModifier() : Integer</text></g><!--class ClawParalyze--><g id="elem_ClawParalyze"><rect codeLine="32" fill="#F1F1F1" height="83.2188" id="ClawParalyze" rx="2.5" ry="2.5" style="stroke:#181818;stroke-width:0.5;" width="189" x="22.5" y="1176.5"/><ellipse cx="70.75" cy="1192.5" fill="#ADD1B2" rx="11" ry="11" style="stroke:#181818;stroke-width:1.0;"/><path d="M73.5156,1188.375 Q73.6719,1188.1563 73.8594,1188.0469 Q74.0469,1187.9375 74.2656,1187.9375 Q74.6406,1187.9375 74.875,1188.2031 Q75.1094,1188.4531 75.1094,1189.0625 L75.1094,1190.5156 Q75.1094,1191.125 74.875,1191.3906 Q74.6406,1191.6563 74.2656,1191.6563 Q73.9219,1191.6563 73.7188,1191.4531 Q73.5156,1191.2656 73.4063,1190.75 Q73.3594,1190.3906 73.1719,1190.2031 Q72.8438,1189.8281 72.2344,1189.6094 Q71.625,1189.3906 71,1189.3906 Q70.2344,1189.3906 69.5938,1189.7188 Q68.9688,1190.0469 68.4688,1190.7969 Q67.9844,1191.5469 67.9844,1192.5781 L67.9844,1193.6719 Q67.9844,1194.9063 68.875,1195.7344 Q69.7656,1196.5469 71.3594,1196.5469 Q72.2969,1196.5469 72.9531,1196.2969 Q73.3438,1196.1406 73.7656,1195.7031 Q74.0313,1195.4375 74.1719,1195.3594 Q74.3281,1195.2813 74.5313,1195.2813 Q74.8594,1195.2813 75.1094,1195.5469 Q75.375,1195.7969 75.375,1196.1406 Q75.375,1196.4844 75.0313,1196.8906 Q74.5313,1197.4688 73.7344,1197.7969 Q72.6563,1198.25 71.3594,1198.25 Q69.8438,1198.25 68.6406,1197.625 Q67.6563,1197.125 66.9688,1196.0625 Q66.2813,1194.9844 66.2813,1193.7031 L66.2813,1192.5469 Q66.2813,1191.2188 66.8906,1190.0781 Q67.5156,1188.9219 68.6094,1188.3125 Q69.7031,1187.6875 70.9375,1187.6875 Q71.6719,1187.6875 72.3125,1187.8594 Q72.9688,1188.0156 73.5156,1188.375 Z " fill="#000000"/><text fill="#000000" font-family="sans-serif" font-size="14" lengthAdjust="spacing" textLength="84" x="91.25" y="1198.2285">ClawParalyze</text><line style="stroke:#181818;stroke-width:0.5;" x1="23.5" x2="210.5" y1="1208.5" y2="1208.5"/><line style="stroke:#181818;stroke-width:0.5;" x1="23.5" x2="210.5" y1="1216.5" y2="1216.5"/><text fill="#000000" font-family="sans-serif" font-size="14" lengthAdjust="spacing" textLength="134" x="28.5" y="1235.0332">doesStun() : Boolean</text><text fill="#000000" font-family="sans-serif" font-size="14" lengthAdjust="spacing" textLength="177" x="28.5" y="1252.6426">getSpeedModifier() : Integer</text></g><!--reverse link IOnTurn to Player--><g id="link_IOnTurn_Player"><path codeLine="1" d="M1698,161.14 C1698,187.82 1698,208.2 1698,238.83 " fill="none" id="IOnTurn-backto-Player" style="stroke:#181818;stroke-width:1.0;stroke-dasharray:7.0,7.0;"/><polygon fill="none" points="1698,143.14,1692,161.14,1704,161.14,1698,143.14" style="stroke:#181818;stroke-width:1.0;"/></g><!--reverse link Player to Mushroomer--><g id="link_Player_Mushroomer"><path codeLine="8" d="M1795.1121,336.1229 C1839.5421,356.9929 1880,376 1933.13,400.96 " fill="none" id="Player-backto-Mushroomer" style="stroke:#181818;stroke-width:1.0;"/><polygon fill="none" points="1778.82,328.47,1792.5612,341.5536,1797.6631,330.6922,1778.82,328.47" style="stroke:#181818;stroke-width:1.0;"/></g><!--reverse link Mushroomer to MushroomStem--><g id="link_Mushroomer_MushroomStem"><path codeLine="9" d="M2204.6833,563.0081 C2273.1233,620.8781 2350.14,698.93 2396,795 C2422.18,849.84 2437.42,1008.45 2444.98,1114.82 " fill="none" id="Mushroomer-backto-MushroomStem" style="stroke:#181818;stroke-width:1.0;"/><polygon fill="none" points="2195.52,555.26,2197.519,562.1885,2204.6833,563.0081,2202.6844,556.0796,2195.52,555.26" style="stroke:#181818;stroke-width:1.0;"/><text fill="#000000" font-family="sans-serif" font-size="13" lengthAdjust="spacing" textLength="20" x="2423.8035" y="1104.1455">1..*</text></g><!--reverse link Mushroomer to MushroomThread--><g id="link_Mushroomer_MushroomThread"><path codeLine="10" d="M2075.2854,567.0367 C2052.9854,678.4767 2024.4,879.73 2068,1054 C2079.21,1098.81 2105.34,1144.78 2126.05,1176.43 " fill="none" id="Mushroomer-backto-MushroomThread" style="stroke:#181818;stroke-width:1.0;"/><polygon fill="none" points="2077.64,555.27,2072.5405,560.3685,2075.2854,567.0367,2080.3849,561.9382,2077.64,555.27" style="stroke:#181818;stroke-width:1.0;"/><text fill="#000000" font-family="sans-serif" font-size="13" lengthAdjust="spacing" textLength="20" x="2099.5989" y="1165.7261">0..*</text></g><!--link Mushroomer to Colony--><g id="link_Mushroomer_Colony"><path codeLine="11" d="M2118.47,555.16 C2145.58,643.11 2189.57,785.85 2214.08,865.35 " fill="none" id="Mushroomer-Colony" style="stroke:#181818;stroke-width:1.0;"/><text fill="#000000" font-family="sans-serif" font-size="13" lengthAdjust="spacing" textLength="20" x="2190.6772" y="854.656">1..*</text></g><!--link Insecter to Player--><g id="link_Insecter_Player"><path codeLine="21" d="M1304.75,152.17 C1400.76,185.45 1516.3233,225.5131 1600.3633,254.6531 " fill="none" id="Insecter-to-Player" style="stroke:#181818;stroke-width:1.0;"/><polygon fill="none" points="1617.37,260.55,1602.329,248.9842,1598.3977,260.322,1617.37,260.55" style="stroke:#181818;stroke-width:1.0;"/></g><!--reverse link Insecter to Insect--><g id="link_Insecter_Insect"><path codeLine="22" d="M1162.2498,189.7941 C1153.8098,222.7141 1149,251.51 1149,288.5 C1149,288.5 1149,288.5 1149,925.5 C1149,991.88 1121.74,1060.63 1093,1114.69 " fill="none" id="Insecter-backto-Insect" style="stroke:#181818;stroke-width:1.0;"/><polygon fill="none" points="1165.23,178.17,1159.8652,182.9886,1162.2498,189.7941,1167.6146,184.9754,1165.23,178.17" style="stroke:#181818;stroke-width:1.0;"/></g><!--reverse link IOnRound to Map--><g id="link_IOnRound_Map"><path codeLine="2" d="M1677.597,527.5433 C1664.517,555.8833 1652.69,581.51 1636.89,615.73 " fill="none" id="IOnRound-backto-Map" style="stroke:#181818;stroke-width:1.0;stroke-dasharray:7.0,7.0;"/><polygon fill="none" points="1685.14,511.2,1672.1492,525.0289,1683.0447,530.0576,1685.14,511.2" style="stroke:#181818;stroke-width:1.0;"/></g><!--reverse link Map to Tecton--><g id="link_Map_Tecton"><path codeLine="3" d="M1628.8461,745.6129 C1633.8361,764.0429 1636.43,773.63 1642.21,794.99 " fill="none" id="Map-backto-Tecton" style="stroke:#181818;stroke-width:1.0;"/><polygon fill="#181818" points="1625.71,734.03,1623.4171,740.8669,1628.8461,745.6129,1631.139,738.7761,1625.71,734.03" style="stroke:#181818;stroke-width:1.0;"/><text fill="#000000" font-family="sans-serif" font-size="13" lengthAdjust="spacing" textLength="7" x="1620.2744" y="756.1078">1</text><text fill="#000000" font-family="sans-serif" font-size="13" lengthAdjust="spacing" textLength="20" x="1619.4806" y="784.1068">0..*</text></g><!--reverse link IOnRound to Tecton--><g id="link_IOnRound_Tecton"><path codeLine="1" d="M1706.4077,528.9053 C1709.8177,556.6253 1712.16,579.94 1714,616 C1716.67,668.38 1719.05,681.8 1714,734 C1712.09,753.77 1709.08,774.54 1705.58,794.78 " fill="none" id="IOnRound-backto-Tecton" style="stroke:#181818;stroke-width:1.0;stroke-dasharray:7.0,7.0;"/><polygon fill="none" points="1704.21,511.04,1700.4526,529.6379,1712.3628,528.1728,1704.21,511.04" style="stroke:#181818;stroke-width:1.0;"/></g><!--reverse link Tecton to Tecton--><g id="link_Tecton_Tecton"><path codeLine="2" d="M1799.914,898.1376 C1820.414,901.6876 1823,909.11 1823,924.5 C1823,939.89 1808.59,949.36 1788.09,952.91 " fill="none" id="Tecton-backto-Tecton" style="stroke:#181818;stroke-width:1.0;"/><polygon fill="none" points="1788.09,896.09,1793.3195,901.0551,1799.914,898.1376,1794.6845,893.1724,1788.09,896.09" style="stroke:#181818;stroke-width:1.0;"/><text fill="#000000" font-family="sans-serif" font-size="13" lengthAdjust="spacing" textLength="56" x="1829" y="929.9951">neighbour</text></g><!--reverse link Tecton to MushroomStem--><g id="link_Tecton_MushroomStem"><path codeLine="30" d="M1798.3465,1009.3196 C1830.6065,1028.6996 1856.46,1041.35 1892,1054 C1980.23,1085.41 2222.17,1079.91 2309,1115 C2314.91,1117.39 2320.81,1120.07 2326.65,1122.98 " fill="none" id="Tecton-backto-MushroomStem" style="stroke:#181818;stroke-width:1.0;"/><polygon fill="#181818" points="1788.06,1003.14,1791.1434,1009.6586,1798.3465,1009.3196,1795.2631,1002.8009,1788.06,1003.14" style="stroke:#181818;stroke-width:1.0;"/><text fill="#000000" font-family="sans-serif" font-size="13" lengthAdjust="spacing" textLength="22" x="2296.8251" y="1114.5154">0..1</text></g><!--reverse link Tecton to MushroomThread--><g id="link_Tecton_MushroomThread"><path codeLine="31" d="M1798.5276,998.9612 C1831.7876,1018.8612 1858.12,1034.4 1892,1054 C1940.05,1081.8 1953.6,1086.1 2001,1115 C2032.9,1134.45 2067.66,1157.32 2096.07,1176.47 " fill="none" id="Tecton-backto-MushroomThread" style="stroke:#181818;stroke-width:1.0;"/><polygon fill="#181818" points="1788.23,992.8,1791.325,999.3131,1798.5276,998.9612,1795.4325,992.4481,1788.23,992.8" style="stroke:#181818;stroke-width:1.0;"/><text fill="#000000" font-family="sans-serif" font-size="13" lengthAdjust="spacing" textLength="20" x="2064.6535" y="1165.7727">0..*</text></g><!--reverse link Tecton to Spore--><g id="link_Tecton_Spore"><path codeLine="33" d="M1779.5139,1063.8418 C1812.1739,1107.9218 1839.25,1144.47 1862.87,1176.34 " fill="none" id="Tecton-backto-Spore" style="stroke:#181818;stroke-width:1.0;"/><polygon fill="#181818" points="1772.37,1054.2,1772.728,1061.4022,1779.5139,1063.8418,1779.1559,1056.6396,1772.37,1054.2" style="stroke:#181818;stroke-width:1.0;"/><text fill="#000000" font-family="sans-serif" font-size="13" lengthAdjust="spacing" textLength="20" x="1836.2235" y="1165.6212">0..*</text></g><!--reverse link Tecton to Insect--><g id="link_Tecton_Insect"><path codeLine="34" d="M1556.3012,1043.313 C1531.1712,1062.713 1512.84,1073.12 1484,1085 C1347.82,1141.08 1290.57,1059.87 1154,1115 C1147.84,1117.49 1141.74,1120.38 1135.74,1123.58 " fill="none" id="Tecton-backto-Insect" style="stroke:#181818;stroke-width:1.0;"/><polygon fill="#181818" points="1565.8,1035.98,1558.6063,1036.4802,1556.3012,1043.313,1563.4949,1042.8128,1565.8,1035.98" style="stroke:#181818;stroke-width:1.0;"/><text fill="#000000" font-family="sans-serif" font-size="13" lengthAdjust="spacing" textLength="20" x="1143.3468" y="1114.5096">0..*</text></g><!--reverse link Tecton to SingleThreadedTecton--><g id="link_Tecton_SingleThreadedTecton"><path codeLine="37" d="M1678.0032,1072.1996 C1678.3332,1120.3996 1678.56,1153.12 1678.78,1184.88 " fill="none" id="Tecton-backto-SingleThreadedTecton" style="stroke:#181818;stroke-width:1.0;"/><polygon fill="none" points="1677.88,1054.2,1672.0034,1072.2407,1684.0031,1072.1585,1677.88,1054.2" style="stroke:#181818;stroke-width:1.0;"/></g><!--reverse link Tecton to StemlessTecton--><g id="link_Tecton_StemlessTecton"><path codeLine="44" d="M1579.65,1066.8847 C1567.6,1078.7047 1567.25,1076.71 1553,1085 C1472.25,1131.94 1427.87,1071.91 1345,1115 C1313.93,1131.15 1287.44,1161.41 1270.21,1184.79 " fill="none" id="Tecton-backto-StemlessTecton" style="stroke:#181818;stroke-width:1.0;"/><polygon fill="none" points="1592.5,1054.28,1575.4485,1062.6014,1583.8516,1071.168,1592.5,1054.28" style="stroke:#181818;stroke-width:1.0;"/></g><!--reverse link Tecton to ThreadConsumingTecton--><g id="link_Tecton_ThreadConsumingTecton"><path codeLine="51" d="M1599.5688,1069.2548 C1592.7488,1079.9448 1595.3,1075.22 1588,1085 C1556.75,1126.85 1513,1168.92 1485.33,1193.96 " fill="none" id="Tecton-backto-ThreadConsumingTecton" style="stroke:#181818;stroke-width:1.0;"/><polygon fill="none" points="1609.25,1054.08,1594.5105,1066.0277,1604.6271,1072.4819,1609.25,1054.08" style="stroke:#181818;stroke-width:1.0;"/></g><!--reverse link Entity to Spore--><g id="link_Entity_Spore"><path codeLine="2" d="M1947.4527,983.5598 C1934.5027,1039.0998 1915.45,1120.74 1902.48,1176.34 " fill="none" id="Entity-backto-Spore" style="stroke:#181818;stroke-width:1.0;"/><polygon fill="none" points="1951.54,966.03,1941.6094,982.1973,1953.2959,984.9222,1951.54,966.03" style="stroke:#181818;stroke-width:1.0;"/></g><!--reverse link Spore to SlowingSpore--><g id="link_Spore_SlowingSpore"><path codeLine="10" d="M1918.7903,1275.9893 C1940.8803,1324.8093 1970.1,1389.37 1990.37,1434.18 " fill="none" id="Spore-backto-SlowingSpore" style="stroke:#181818;stroke-width:1.0;"/><polygon fill="none" points="1911.37,1259.59,1913.3239,1278.4628,1924.2568,1273.5159,1911.37,1259.59" style="stroke:#181818;stroke-width:1.0;"/></g><!--reverse link Spore to SpeedingSpore--><g id="link_Spore_SpeedingSpore"><path codeLine="15" d="M1946.2526,1272.1309 C1966.0626,1291.4009 1977.72,1301.8 2001,1321 C2036.87,1350.59 2050.78,1351.64 2086,1382 C2104.73,1398.15 2124.08,1417.91 2139.27,1434.26 " fill="none" id="Spore-backto-SpeedingSpore" style="stroke:#181818;stroke-width:1.0;"/><polygon fill="none" points="1933.35,1259.58,1942.0689,1276.4317,1950.4362,1267.83,1933.35,1259.58" style="stroke:#181818;stroke-width:1.0;"/></g><!--reverse link Spore to ParalyzingSpore--><g id="link_Spore_ParalyzingSpore"><path codeLine="20" d="M1837.4658,1272.1459 C1803.1858,1305.0059 1766.81,1340.08 1724,1382 C1706.46,1399.18 1687.03,1418.47 1671.18,1434.28 " fill="none" id="Spore-backto-ParalyzingSpore" style="stroke:#181818;stroke-width:1.0;"/><polygon fill="none" points="1850.46,1259.69,1833.3138,1267.8145,1841.6178,1276.4773,1850.46,1259.69" style="stroke:#181818;stroke-width:1.0;"/></g><!--reverse link Spore to ClawParalyzingSpore--><g id="link_Spore_ClawParalyzingSpore"><path codeLine="25" d="M1876.8463,1276.9288 C1863.2363,1325.7488 1845.5,1389.37 1833.01,1434.18 " fill="none" id="Spore-backto-ClawParalyzingSpore" style="stroke:#181818;stroke-width:1.0;"/><polygon fill="none" points="1881.68,1259.59,1871.0667,1275.3176,1882.6259,1278.5401,1881.68,1259.59" style="stroke:#181818;stroke-width:1.0;"/></g><!--reverse link Entity to MushroomThread--><g id="link_Entity_MushroomThread"><path codeLine="2" d="M1984.7849,982.5726 C1999.1949,1015.7826 2014.53,1046.83 2040,1085 C2061.93,1117.87 2091.24,1151.4 2114.78,1176.43 " fill="none" id="Entity-backto-MushroomThread" style="stroke:#181818;stroke-width:1.0;"/><polygon fill="none" points="1977.62,966.06,1979.2807,984.9608,1990.2891,980.1843,1977.62,966.06" style="stroke:#181818;stroke-width:1.0;"/></g><!--reverse link IOnTurn to MushroomStem--><g id="link_IOnTurn_MushroomStem"><path codeLine="2" d="M1769.0123,112.6352 C1940.6423,117.6452 2452,144.27 2452,288.5 C2452,288.5 2452,288.5 2452,925.5 C2452,988.38 2451.76,1058.89 2451.52,1114.81 " fill="none" id="IOnTurn-backto-MushroomStem" style="stroke:#181818;stroke-width:1.0;stroke-dasharray:7.0,7.0;"/><polygon fill="none" points="1751.02,112.11,1768.8373,118.6327,1769.1874,106.6378,1751.02,112.11" style="stroke:#181818;stroke-width:1.0;"/></g><!--reverse link Entity to MushroomStem--><g id="link_Entity_MushroomStem"><path codeLine="4" d="M1994.9439,981.1906 C2013.9439,1009.9006 2033.12,1032.03 2068,1054 C2161.48,1112.89 2208.82,1068.4 2309,1115 C2314.92,1117.75 2320.84,1120.76 2326.73,1123.97 " fill="none" id="Entity-backto-MushroomStem" style="stroke:#181818;stroke-width:1.0;"/><polygon fill="none" points="1985.01,966.18,1989.9403,984.5019,1999.9474,977.8793,1985.01,966.18" style="stroke:#181818;stroke-width:1.0;"/></g><!--reverse link Entity to Insect--><g id="link_Entity_Insect"><path codeLine="2" d="M1944.7181,983.353 C1934.7881,1012.913 1922.5,1034.01 1892,1054 C1754.37,1144.22 1306.85,1054.03 1154,1115 C1147.83,1117.46 1141.72,1120.33 1135.71,1123.51 " fill="none" id="Entity-backto-Insect" style="stroke:#181818;stroke-width:1.0;"/><polygon fill="none" points="1950.45,966.29,1939.0304,981.4423,1950.4057,985.2636,1950.45,966.29" style="stroke:#181818;stroke-width:1.0;"/></g><!--reverse link Insect to Effect--><g id="link_Insect_Effect"><path codeLine="3" d="M908.408,1316.5799 C902.638,1320.4799 906.78,1317.5 901,1321 C823.79,1367.76 728.86,1407.42 659.62,1433.46 " fill="none" id="Insect-backto-Effect" style="stroke:#181818;stroke-width:1.0;"/><polygon fill="#181818" points="918.35,1309.86,911.139,1309.9059,908.408,1316.5799,915.619,1316.5339,918.35,1309.86" style="stroke:#181818;stroke-width:1.0;"/></g><!--reverse link IOnTurn to Insect--><g id="link_IOnTurn_Insect"><path codeLine="5" d="M1627.9336,133.2557 C1561.9736,156.9957 1475,202.03 1475,288.5 C1475,288.5 1475,288.5 1475,925.5 C1475,1091.17 1290.27,1020.78 1154,1115 C1147.95,1119.18 1141.82,1123.57 1135.69,1128.07 " fill="none" id="IOnTurn-backto-Insect" style="stroke:#181818;stroke-width:1.0;stroke-dasharray:7.0,7.0;"/><polygon fill="none" points="1644.87,127.16,1625.9017,127.6102,1629.9655,138.9012,1644.87,127.16" style="stroke:#181818;stroke-width:1.0;"/></g><!--reverse link Colony to MushroomStem--><g id="link_Colony_MushroomStem"><path codeLine="3" d="M2282.999,993.3832 C2311.149,1030.8432 2341.28,1070.96 2374.25,1114.85 " fill="none" id="Colony-backto-MushroomStem" style="stroke:#181818;stroke-width:1.0;"/><polygon fill="none" points="2275.79,983.79,2276.1968,990.9896,2282.999,993.3832,2282.5923,986.1836,2275.79,983.79" style="stroke:#181818;stroke-width:1.0;"/><text fill="#000000" font-family="sans-serif" font-size="13" lengthAdjust="spacing" textLength="20" x="2347.8793" y="1104.1777">1..*</text></g><!--reverse link Colony to MushroomThread--><g id="link_Colony_MushroomThread"><path codeLine="4" d="M2213.5361,995.3923 C2198.4861,1052.3823 2179.02,1126.07 2165.78,1176.17 " fill="none" id="Colony-backto-MushroomThread" style="stroke:#181818;stroke-width:1.0;"/><polygon fill="none" points="2216.6,983.79,2211.2006,988.5698,2213.5361,995.3923,2218.9354,990.6124,2216.6,983.79" style="stroke:#181818;stroke-width:1.0;"/><text fill="#000000" font-family="sans-serif" font-size="13" lengthAdjust="spacing" textLength="20" x="2145.9043" y="1165.734">0..*</text></g><!--link Slow to Effect--><g id="link_Slow_Effect"><path codeLine="13" d="M752.26,1259.59 C722.29,1292.71 691.0084,1327.2741 653.5584,1368.6541 " fill="none" id="Slow-to-Effect" style="stroke:#181818;stroke-width:1.0;"/><polygon fill="none" points="641.48,1382,658.007,1372.6802,649.1098,1364.628,641.48,1382" style="stroke:#181818;stroke-width:1.0;"/></g><!--link Fast to Effect--><g id="link_Fast_Effect"><path codeLine="19" d="M565,1259.59 C565,1292.71 565,1322.62 565,1364 " fill="none" id="Fast-to-Effect" style="stroke:#181818;stroke-width:1.0;"/><polygon fill="none" points="565,1382,571,1364,559,1364,565,1382" style="stroke:#181818;stroke-width:1.0;"/></g><!--link Paralyze to Effect--><g id="link_Paralyze_Effect"><path codeLine="25" d="M377.74,1259.59 C407.71,1292.71 438.9916,1327.2741 476.4416,1368.6541 " fill="none" id="Paralyze-to-Effect" style="stroke:#181818;stroke-width:1.0;"/><polygon fill="none" points="488.52,1382,480.8902,1364.628,471.993,1372.6802,488.52,1382" style="stroke:#181818;stroke-width:1.0;"/></g><!--link ClawParalyze to Effect--><g id="link_ClawParalyze_Effect"><path codeLine="31" d="M155.04,1259.52 C175.57,1279.8 202.16,1303.66 229,1321 C305.08,1370.16 383.6551,1403.5249 453.3751,1428.8949 " fill="none" id="ClawParalyze-to-Effect" style="stroke:#181818;stroke-width:1.0;"/><polygon fill="none" points="470.29,1435.05,455.4268,1423.2566,451.3234,1434.5332,470.29,1435.05" style="stroke:#181818;stroke-width:1.0;"/></g><!--SRC=[VSxD3SCm20NWUwTm5-WowGB8mObLyoCCXoZgxisfKYLKZdmFz1Jg2pOiBNWJwq7dhLnpxrn7h5Xqm87sqA3n2mIQR1sh2oU0xDsF1AQAOVO_vcuYzDmDOVqJM1mfuSxpwf90bI6SDS7MlXVl3m00]--></g></svg>