<?xml version="1.0" encoding="us-ascii" standalone="no"?><svg xmlns="http://www.w3.org/2000/svg" xmlns:xlink="http://www.w3.org/1999/xlink" contentStyleType="text/css" height="558px" preserveAspectRatio="none" style="width:786px;height:558px;background:#FFFFFF;" version="1.1" viewBox="0 0 786 558" width="786px" zoomAndPan="magnify"><defs/><g><text fill="#000000" font-family="sans-serif" font-size="14" font-weight="bold" lengthAdjust="spacing" textLength="120" x="332" y="29.5332">New round starts</text><rect fill="#FFFFFF" height="336.1641" style="stroke:#181818;stroke-width:1.0;" width="10" x="34" y="131.2188"/><rect fill="#FFFFFF" height="312.8125" style="stroke:#181818;stroke-width:1.0;" width="10" x="122" y="153.5703"/><rect fill="#FFFFFF" height="242.1094" style="stroke:#181818;stroke-width:1.0;" width="10" x="210" y="209.2734"/><rect fill="#FFFFFF" height="14" style="stroke:#181818;stroke-width:1.0;" width="10" x="317.5" y="366.0313"/><rect fill="none" height="290.8125" style="stroke:#000000;stroke-width:1.5;" width="357" x="85" y="168.5703"/><rect fill="none" height="61.7031" style="stroke:#000000;stroke-width:1.5;" width="132" x="168" y="224.2734"/><rect fill="none" height="138.4063" style="stroke:#000000;stroke-width:1.5;" width="274" x="158" y="299.9766"/><rect fill="none" height="106.0547" style="stroke:#000000;stroke-width:1.5;" width="254" x="168" y="325.3281"/><line style="stroke:#181818;stroke-width:0.5;stroke-dasharray:5.0,5.0;" x1="39" x2="39" y1="121.2188" y2="476.3828"/><line style="stroke:#181818;stroke-width:0.5;stroke-dasharray:5.0,5.0;" x1="127" x2="127" y1="121.2188" y2="476.3828"/><line style="stroke:#181818;stroke-width:0.5;stroke-dasharray:5.0,5.0;" x1="215" x2="215" y1="121.2188" y2="476.3828"/><line style="stroke:#181818;stroke-width:0.5;stroke-dasharray:5.0,5.0;" x1="322" x2="322" y1="121.2188" y2="476.3828"/><line style="stroke:#181818;stroke-width:0.5;stroke-dasharray:5.0,5.0;" x1="467" x2="467" y1="121.2188" y2="476.3828"/><line style="stroke:#181818;stroke-width:0.5;stroke-dasharray:5.0,5.0;" x1="621" x2="621" y1="121.2188" y2="476.3828"/><line style="stroke:#181818;stroke-width:0.5;stroke-dasharray:5.0,5.0;" x1="740" x2="740" y1="121.2188" y2="476.3828"/><text fill="#000000" font-family="sans-serif" font-size="14" lengthAdjust="spacing" textLength="62" x="5" y="118.1426">Controller</text><ellipse cx="39" cy="52.1094" fill="#E2E2F0" rx="8" ry="8" style="stroke:#181818;stroke-width:0.5;"/><path d="M39,60.1094 L39,87.1094 M26,68.1094 L52,68.1094 M39,87.1094 L26,102.1094 M39,87.1094 L52,102.1094 " fill="none" style="stroke:#181818;stroke-width:0.5;"/><text fill="#000000" font-family="sans-serif" font-size="14" lengthAdjust="spacing" textLength="62" x="5" y="489.916">Controller</text><ellipse cx="39" cy="501.4922" fill="#E2E2F0" rx="8" ry="8" style="stroke:#181818;stroke-width:0.5;"/><path d="M39,509.4922 L39,536.4922 M26,517.4922 L52,517.4922 M39,536.4922 L26,551.4922 M39,536.4922 L52,551.4922 " fill="none" style="stroke:#181818;stroke-width:0.5;"/><rect fill="#E2E2F0" height="31.6094" rx="2.5" ry="2.5" style="stroke:#181818;stroke-width:0.5;" width="64" x="95" y="88.6094"/><text fill="#000000" font-family="sans-serif" font-size="14" lengthAdjust="spacing" textLength="50" x="102" y="110.1426">m : Map</text><rect fill="#E2E2F0" height="31.6094" rx="2.5" ry="2.5" style="stroke:#181818;stroke-width:0.5;" width="64" x="95" y="475.3828"/><text fill="#000000" font-family="sans-serif" font-size="14" lengthAdjust="spacing" textLength="50" x="102" y="496.916">m : Map</text><rect fill="#E2E2F0" height="31.6094" rx="2.5" ry="2.5" style="stroke:#181818;stroke-width:0.5;" width="74" x="178" y="88.6094"/><text fill="#000000" font-family="sans-serif" font-size="14" lengthAdjust="spacing" textLength="60" x="185" y="110.1426">t : Tecton</text><rect fill="#E2E2F0" height="31.6094" rx="2.5" ry="2.5" style="stroke:#181818;stroke-width:0.5;" width="74" x="178" y="475.3828"/><text fill="#000000" font-family="sans-serif" font-size="14" lengthAdjust="spacing" textLength="60" x="185" y="496.916">t : Tecton</text><rect fill="#E2E2F0" height="31.6094" rx="2.5" ry="2.5" style="stroke:#181818;stroke-width:0.5;" width="121" x="262" y="88.6094"/><text fill="#000000" font-family="sans-serif" font-size="14" lengthAdjust="spacing" textLength="107" x="269" y="110.1426">mr : Mushroomer</text><rect fill="#E2E2F0" height="31.6094" rx="2.5" ry="2.5" style="stroke:#181818;stroke-width:0.5;" width="121" x="262" y="475.3828"/><text fill="#000000" font-family="sans-serif" font-size="14" lengthAdjust="spacing" textLength="107" x="269" y="496.916">mr : Mushroomer</text><rect fill="#E2E2F0" height="31.6094" rx="2.5" ry="2.5" style="stroke:#181818;stroke-width:0.5;" width="148" x="393" y="88.6094"/><text fill="#000000" font-family="sans-serif" font-size="14" lengthAdjust="spacing" textLength="134" x="400" y="110.1426">mt : Mushroomthread</text><rect fill="#E2E2F0" height="31.6094" rx="2.5" ry="2.5" style="stroke:#181818;stroke-width:0.5;" width="148" x="393" y="475.3828"/><text fill="#000000" font-family="sans-serif" font-size="14" lengthAdjust="spacing" textLength="134" x="400" y="496.916">mt : Mushroomthread</text><rect fill="#E2E2F0" height="31.6094" rx="2.5" ry="2.5" style="stroke:#181818;stroke-width:0.5;" width="140" x="551" y="88.6094"/><text fill="#000000" font-family="sans-serif" font-size="14" lengthAdjust="spacing" textLength="126" x="558" y="110.1426">ms : Mushroomstem</text><rect fill="#E2E2F0" height="31.6094" rx="2.5" ry="2.5" style="stroke:#181818;stroke-width:0.5;" width="140" x="551" y="475.3828"/><text fill="#000000" font-family="sans-serif" font-size="14" lengthAdjust="spacing" textLength="126" x="558" y="496.916">ms : Mushroomstem</text><rect fill="#E2E2F0" height="31.6094" rx="2.5" ry="2.5" style="stroke:#181818;stroke-width:0.5;" width="79" x="701" y="88.6094"/><text fill="#000000" font-family="sans-serif" font-size="14" lengthAdjust="spacing" textLength="65" x="708" y="110.1426">sp : Spore</text><rect fill="#E2E2F0" height="31.6094" rx="2.5" ry="2.5" style="stroke:#181818;stroke-width:0.5;" width="79" x="701" y="475.3828"/><text fill="#000000" font-family="sans-serif" font-size="14" lengthAdjust="spacing" textLength="65" x="708" y="496.916">sp : Spore</text><rect fill="#FFFFFF" height="336.1641" style="stroke:#181818;stroke-width:1.0;" width="10" x="34" y="131.2188"/><rect fill="#FFFFFF" height="312.8125" style="stroke:#181818;stroke-width:1.0;" width="10" x="122" y="153.5703"/><rect fill="#FFFFFF" height="242.1094" style="stroke:#181818;stroke-width:1.0;" width="10" x="210" y="209.2734"/><rect fill="#FFFFFF" height="14" style="stroke:#181818;stroke-width:1.0;" width="10" x="317.5" y="366.0313"/><polygon fill="#181818" points="110,149.5703,120,153.5703,110,157.5703,114,153.5703" style="stroke:#181818;stroke-width:1.0;"/><line style="stroke:#181818;stroke-width:1.0;" x1="44" x2="116" y1="153.5703" y2="153.5703"/><text fill="#000000" font-family="sans-serif" font-size="13" lengthAdjust="spacing" textLength="59" x="51" y="148.7139">onRound()</text><path d="M85,168.5703 L158,168.5703 L158,176.9219 L148,186.9219 L85,186.9219 L85,168.5703 " fill="#EEEEEE" style="stroke:#000000;stroke-width:1.5;"/><rect fill="none" height="290.8125" style="stroke:#000000;stroke-width:1.5;" width="357" x="85" y="168.5703"/><text fill="#000000" font-family="sans-serif" font-size="13" font-weight="bold" lengthAdjust="spacing" textLength="28" x="100" y="183.0654">loop</text><text fill="#000000" font-family="sans-serif" font-size="11" font-weight="bold" lengthAdjust="spacing" textLength="87" x="173" y="181.9893">[for(t : tectons)]</text><polygon fill="#181818" points="198,205.2734,208,209.2734,198,213.2734,202,209.2734" style="stroke:#181818;stroke-width:1.0;"/><line style="stroke:#181818;stroke-width:1.0;" x1="132" x2="204" y1="209.2734" y2="209.2734"/><text fill="#000000" font-family="sans-serif" font-size="13" lengthAdjust="spacing" textLength="59" x="139" y="204.417">onRound()</text><path d="M168,224.2734 L229,224.2734 L229,232.625 L219,242.625 L168,242.625 L168,224.2734 " fill="#EEEEEE" style="stroke:#000000;stroke-width:1.5;"/><rect fill="none" height="61.7031" style="stroke:#000000;stroke-width:1.5;" width="132" x="168" y="224.2734"/><text fill="#000000" font-family="sans-serif" font-size="13" font-weight="bold" lengthAdjust="spacing" textLength="16" x="183" y="238.7686">alt</text><text fill="#000000" font-family="sans-serif" font-size="11" font-weight="bold" lengthAdjust="spacing" textLength="51" x="244" y="237.6924">[random]</text><line style="stroke:#181818;stroke-width:1.0;" x1="220" x2="262" y1="264.9766" y2="264.9766"/><line style="stroke:#181818;stroke-width:1.0;" x1="262" x2="262" y1="264.9766" y2="277.9766"/><line style="stroke:#181818;stroke-width:1.0;" x1="221" x2="262" y1="277.9766" y2="277.9766"/><polygon fill="#181818" points="231,273.9766,221,277.9766,231,281.9766,227,277.9766" style="stroke:#181818;stroke-width:1.0;"/><text fill="#000000" font-family="sans-serif" font-size="13" lengthAdjust="spacing" textLength="32" x="227" y="260.1201">split()</text><path d="M158,299.9766 L219,299.9766 L219,308.3281 L209,318.3281 L158,318.3281 L158,299.9766 " fill="#EEEEEE" style="stroke:#000000;stroke-width:1.5;"/><rect fill="none" height="138.4063" style="stroke:#000000;stroke-width:1.5;" width="274" x="158" y="299.9766"/><text fill="#000000" font-family="sans-serif" font-size="13" font-weight="bold" lengthAdjust="spacing" textLength="16" x="173" y="314.4717">alt</text><text fill="#000000" font-family="sans-serif" font-size="11" font-weight="bold" lengthAdjust="spacing" textLength="126" x="234" y="313.3955">[t is threadconsuming]</text><path d="M168,325.3281 L241,325.3281 L241,333.6797 L231,343.6797 L168,343.6797 L168,325.3281 " fill="#EEEEEE" style="stroke:#000000;stroke-width:1.5;"/><rect fill="none" height="106.0547" style="stroke:#000000;stroke-width:1.5;" width="254" x="168" y="325.3281"/><text fill="#000000" font-family="sans-serif" font-size="13" font-weight="bold" lengthAdjust="spacing" textLength="28" x="183" y="339.8232">loop</text><text fill="#000000" font-family="sans-serif" font-size="11" font-weight="bold" lengthAdjust="spacing" textLength="161" x="256" y="338.7471">[for(mt : mushroomthreads)]</text><polygon fill="#181818" points="305.5,362.0313,315.5,366.0313,305.5,370.0313,309.5,366.0313" style="stroke:#181818;stroke-width:1.0;"/><line style="stroke:#181818;stroke-width:1.0;" x1="220" x2="311.5" y1="366.0313" y2="366.0313"/><text fill="#000000" font-family="sans-serif" font-size="13" lengthAdjust="spacing" textLength="76" x="227" y="361.1748">remove(t, mt)</text><polygon fill="#181818" points="231,376.0313,221,380.0313,231,384.0313,227,380.0313" style="stroke:#181818;stroke-width:1.0;"/><line style="stroke:#181818;stroke-width:1.0;stroke-dasharray:2.0,2.0;" x1="225" x2="321.5" y1="380.0313" y2="380.0313"/><line style="stroke:#181818;stroke-width:1.0;" x1="220" x2="262" y1="410.3828" y2="410.3828"/><line style="stroke:#181818;stroke-width:1.0;" x1="262" x2="262" y1="410.3828" y2="423.3828"/><line style="stroke:#181818;stroke-width:1.0;" x1="221" x2="262" y1="423.3828" y2="423.3828"/><polygon fill="#181818" points="231,419.3828,221,423.3828,231,427.3828,227,423.3828" style="stroke:#181818;stroke-width:1.0;"/><text fill="#000000" font-family="sans-serif" font-size="13" lengthAdjust="spacing" textLength="76" x="227" y="405.5264">remove(t, mt)</text><polygon fill="#181818" points="143,447.3828,133,451.3828,143,455.3828,139,451.3828" style="stroke:#181818;stroke-width:1.0;"/><line style="stroke:#181818;stroke-width:1.0;stroke-dasharray:2.0,2.0;" x1="137" x2="214" y1="451.3828" y2="451.3828"/><!--SRC=[TP1BJiGm38RtEOKr6peIlG12R5W7eJONY5h3H6hYo767wvEaq1V2gyJ-_jyFSJ8XlE4NCCrXX2IM9Ibb1o66Lmh2D4t8AkQy6roqGU3YuGcqZHUm2VIn9BbaCAj3hPgJa8joJZScyiYBGNTYPCV8ZT6E2tVsIZik2Vg5wezKYfdg8p7MSlzUTtDtAxXVRtj2-m8wQoXqvIBDTUErKXDHX0_YfWmfTSzqLP135w4v24jw5Hkr_2S1jc4aNxybpAyonSd9Zwx40uvEu8QCDOLXt3m4N8BbEaEUOVOkVAx2TSfwIt-uPThyr-QwonYZfpisyWXUZinsWEwaVMxRStB4FVwtb_ctLTdliAUk_aQTR8qgnBwF-WO0]--></g></svg>