<?xml version="1.0" encoding="us-ascii" standalone="no"?><svg xmlns="http://www.w3.org/2000/svg" xmlns:xlink="http://www.w3.org/1999/xlink" contentStyleType="text/css" height="585px" preserveAspectRatio="none" style="width:580px;height:585px;background:#FFFFFF;" version="1.1" viewBox="0 0 580 585" width="580px" zoomAndPan="magnify"><defs/><g><text fill="#000000" font-family="sans-serif" font-size="14" font-weight="bold" lengthAdjust="spacing" textLength="237" x="173.25" y="29.5332">Insecter makes insect eat a spore</text><rect fill="#FFFFFF" height="332.1641" style="stroke:#181818;stroke-width:1.0;" width="10" x="170" y="153.5703"/><rect fill="#FFFFFF" height="287.8125" style="stroke:#181818;stroke-width:1.0;" width="10" x="255" y="183.9219"/><rect fill="#FFFFFF" height="30.3516" style="stroke:#181818;stroke-width:1.0;" width="10" x="375" y="332.6797"/><rect fill="#FFFFFF" height="14" style="stroke:#181818;stroke-width:1.0;" width="10" x="524" y="436.7344"/><rect fill="none" height="79.0547" style="stroke:#000000;stroke-width:1.5;" width="276.5" x="217" y="198.9219"/><rect fill="none" height="166.7578" style="stroke:#000000;stroke-width:1.5;" width="357.5" x="217" y="291.9766"/><line style="stroke:#181818;stroke-width:0.5;stroke-dasharray:5.0,5.0;" x1="39" x2="39" y1="121.2188" y2="503.7344"/><line style="stroke:#181818;stroke-width:0.5;stroke-dasharray:5.0,5.0;" x1="175" x2="175" y1="121.2188" y2="503.7344"/><line style="stroke:#181818;stroke-width:0.5;stroke-dasharray:5.0,5.0;" x1="260" x2="260" y1="121.2188" y2="503.7344"/><line style="stroke:#181818;stroke-width:0.5;stroke-dasharray:5.0,5.0;" x1="379.5" x2="379.5" y1="121.2188" y2="503.7344"/><line style="stroke:#181818;stroke-width:0.5;stroke-dasharray:5.0,5.0;" x1="452.5" x2="452.5" y1="121.2188" y2="503.7344"/><line style="stroke:#181818;stroke-width:0.5;stroke-dasharray:5.0,5.0;" x1="528.5" x2="528.5" y1="121.2188" y2="503.7344"/><text fill="#000000" font-family="sans-serif" font-size="14" lengthAdjust="spacing" textLength="62" x="5" y="118.1426">Controller</text><ellipse cx="39" cy="52.1094" fill="#E2E2F0" rx="8" ry="8" style="stroke:#181818;stroke-width:0.5;"/><path d="M39,60.1094 L39,87.1094 M26,68.1094 L52,68.1094 M39,87.1094 L26,102.1094 M39,87.1094 L52,102.1094 " fill="none" style="stroke:#181818;stroke-width:0.5;"/><text fill="#000000" font-family="sans-serif" font-size="14" lengthAdjust="spacing" textLength="62" x="5" y="517.2676">Controller</text><ellipse cx="39" cy="528.8438" fill="#E2E2F0" rx="8" ry="8" style="stroke:#181818;stroke-width:0.5;"/><path d="M39,536.8438 L39,563.8438 M26,544.8438 L52,544.8438 M39,563.8438 L26,578.8438 M39,563.8438 L52,578.8438 " fill="none" style="stroke:#181818;stroke-width:0.5;"/><rect fill="#E2E2F0" height="31.6094" rx="2.5" ry="2.5" style="stroke:#181818;stroke-width:0.5;" width="84" x="133" y="88.6094"/><text fill="#000000" font-family="sans-serif" font-size="14" lengthAdjust="spacing" textLength="70" x="140" y="110.1426">ir : Insecter</text><rect fill="#E2E2F0" height="31.6094" rx="2.5" ry="2.5" style="stroke:#181818;stroke-width:0.5;" width="84" x="133" y="502.7344"/><text fill="#000000" font-family="sans-serif" font-size="14" lengthAdjust="spacing" textLength="70" x="140" y="524.2676">ir : Insecter</text><rect fill="#E2E2F0" height="31.6094" rx="2.5" ry="2.5" style="stroke:#181818;stroke-width:0.5;" width="66" x="227" y="88.6094"/><text fill="#000000" font-family="sans-serif" font-size="14" lengthAdjust="spacing" textLength="52" x="234" y="110.1426">i : Insect</text><rect fill="#E2E2F0" height="31.6094" rx="2.5" ry="2.5" style="stroke:#181818;stroke-width:0.5;" width="66" x="227" y="502.7344"/><text fill="#000000" font-family="sans-serif" font-size="14" lengthAdjust="spacing" textLength="52" x="234" y="524.2676">i : Insect</text><rect fill="#E2E2F0" height="31.6094" rx="2.5" ry="2.5" style="stroke:#181818;stroke-width:0.5;" width="63" x="348.5" y="88.6094"/><text fill="#000000" font-family="sans-serif" font-size="14" lengthAdjust="spacing" textLength="49" x="355.5" y="110.1426">s:Spore</text><rect fill="#E2E2F0" height="31.6094" rx="2.5" ry="2.5" style="stroke:#181818;stroke-width:0.5;" width="63" x="348.5" y="502.7344"/><text fill="#000000" font-family="sans-serif" font-size="14" lengthAdjust="spacing" textLength="49" x="355.5" y="524.2676">s:Spore</text><rect fill="#E2E2F0" height="31.6094" rx="2.5" ry="2.5" style="stroke:#181818;stroke-width:0.5;" width="62" x="421.5" y="88.6094"/><text fill="#000000" font-family="sans-serif" font-size="14" lengthAdjust="spacing" textLength="48" x="428.5" y="110.1426">e:Effect</text><rect fill="#E2E2F0" height="31.6094" rx="2.5" ry="2.5" style="stroke:#181818;stroke-width:0.5;" width="62" x="421.5" y="502.7344"/><text fill="#000000" font-family="sans-serif" font-size="14" lengthAdjust="spacing" textLength="48" x="428.5" y="524.2676">e:Effect</text><rect fill="#E2E2F0" height="31.6094" rx="2.5" ry="2.5" style="stroke:#181818;stroke-width:0.5;" width="71" x="493.5" y="88.6094"/><text fill="#000000" font-family="sans-serif" font-size="14" lengthAdjust="spacing" textLength="57" x="500.5" y="110.1426">T:Tecton</text><rect fill="#E2E2F0" height="31.6094" rx="2.5" ry="2.5" style="stroke:#181818;stroke-width:0.5;" width="71" x="493.5" y="502.7344"/><text fill="#000000" font-family="sans-serif" font-size="14" lengthAdjust="spacing" textLength="57" x="500.5" y="524.2676">T:Tecton</text><rect fill="#FFFFFF" height="332.1641" style="stroke:#181818;stroke-width:1.0;" width="10" x="170" y="153.5703"/><rect fill="#FFFFFF" height="287.8125" style="stroke:#181818;stroke-width:1.0;" width="10" x="255" y="183.9219"/><rect fill="#FFFFFF" height="30.3516" style="stroke:#181818;stroke-width:1.0;" width="10" x="375" y="332.6797"/><rect fill="#FFFFFF" height="14" style="stroke:#181818;stroke-width:1.0;" width="10" x="524" y="436.7344"/><polygon fill="#181818" points="158,149.5703,168,153.5703,158,157.5703,162,153.5703" style="stroke:#181818;stroke-width:1.0;"/><line style="stroke:#181818;stroke-width:1.0;" x1="39" x2="164" y1="153.5703" y2="153.5703"/><text fill="#000000" font-family="sans-serif" font-size="13" lengthAdjust="spacing" textLength="112" x="46" y="148.7139">moveInsect(Tecton)</text><polygon fill="#181818" points="243,179.9219,253,183.9219,243,187.9219,247,183.9219" style="stroke:#181818;stroke-width:1.0;"/><line style="stroke:#181818;stroke-width:1.0;" x1="180" x2="249" y1="183.9219" y2="183.9219"/><text fill="#000000" font-family="sans-serif" font-size="13" lengthAdjust="spacing" textLength="52" x="187" y="179.0654">move(T2)</text><path d="M217,198.9219 L290,198.9219 L290,207.2734 L280,217.2734 L217,217.2734 L217,198.9219 " fill="#EEEEEE" style="stroke:#000000;stroke-width:1.5;"/><rect fill="none" height="79.0547" style="stroke:#000000;stroke-width:1.5;" width="276.5" x="217" y="198.9219"/><text fill="#000000" font-family="sans-serif" font-size="13" font-weight="bold" lengthAdjust="spacing" textLength="28" x="232" y="213.417">loop</text><text fill="#000000" font-family="sans-serif" font-size="11" font-weight="bold" lengthAdjust="spacing" textLength="94" x="305" y="212.3408">[for(e in effects)]</text><polygon fill="#181818" points="440.5,235.625,450.5,239.625,440.5,243.625,444.5,239.625" style="stroke:#181818;stroke-width:1.0;"/><line style="stroke:#181818;stroke-width:1.0;" x1="265" x2="446.5" y1="239.625" y2="239.625"/><text fill="#000000" font-family="sans-serif" font-size="13" lengthAdjust="spacing" textLength="63" x="272" y="234.7686">doesStun()</text><polygon fill="#181818" points="276,265.9766,266,269.9766,276,273.9766,272,269.9766" style="stroke:#181818;stroke-width:1.0;"/><line style="stroke:#181818;stroke-width:1.0;stroke-dasharray:2.0,2.0;" x1="270" x2="451.5" y1="269.9766" y2="269.9766"/><text fill="#000000" font-family="sans-serif" font-size="13" lengthAdjust="spacing" textLength="55" x="282" y="265.1201">doesStun</text><path d="M217,291.9766 L278,291.9766 L278,300.3281 L268,310.3281 L217,310.3281 L217,291.9766 " fill="#EEEEEE" style="stroke:#000000;stroke-width:1.5;"/><rect fill="none" height="166.7578" style="stroke:#000000;stroke-width:1.5;" width="357.5" x="217" y="291.9766"/><text fill="#000000" font-family="sans-serif" font-size="13" font-weight="bold" lengthAdjust="spacing" textLength="16" x="232" y="306.4717">alt</text><text fill="#000000" font-family="sans-serif" font-size="11" font-weight="bold" lengthAdjust="spacing" textLength="160" x="293" y="305.3955">[does any effect stun = false]</text><polygon fill="#181818" points="363,328.6797,373,332.6797,363,336.6797,367,332.6797" style="stroke:#181818;stroke-width:1.0;"/><line style="stroke:#181818;stroke-width:1.0;" x1="265" x2="369" y1="332.6797" y2="332.6797"/><text fill="#000000" font-family="sans-serif" font-size="13" lengthAdjust="spacing" textLength="59" x="272" y="327.8232">getEffect()</text><polygon fill="#181818" points="276,359.0313,266,363.0313,276,367.0313,272,363.0313" style="stroke:#181818;stroke-width:1.0;"/><line style="stroke:#181818;stroke-width:1.0;stroke-dasharray:2.0,2.0;" x1="270" x2="379" y1="363.0313" y2="363.0313"/><text fill="#000000" font-family="sans-serif" font-size="13" lengthAdjust="spacing" textLength="51" x="282" y="358.1748">Effect e2</text><line style="stroke:#181818;stroke-width:1.0;" x1="265" x2="307" y1="393.3828" y2="393.3828"/><line style="stroke:#181818;stroke-width:1.0;" x1="307" x2="307" y1="393.3828" y2="406.3828"/><line style="stroke:#181818;stroke-width:1.0;" x1="266" x2="307" y1="406.3828" y2="406.3828"/><polygon fill="#181818" points="276,402.3828,266,406.3828,276,410.3828,272,406.3828" style="stroke:#181818;stroke-width:1.0;"/><text fill="#000000" font-family="sans-serif" font-size="13" lengthAdjust="spacing" textLength="96" x="272" y="388.5264">add e2 to effects</text><polygon fill="#181818" points="512,432.7344,522,436.7344,512,440.7344,516,436.7344" style="stroke:#181818;stroke-width:1.0;"/><line style="stroke:#181818;stroke-width:1.0;" x1="265" x2="518" y1="436.7344" y2="436.7344"/><text fill="#000000" font-family="sans-serif" font-size="13" lengthAdjust="spacing" textLength="90" x="272" y="431.8779">removeSpore(s)</text><polygon fill="#181818" points="276,446.7344,266,450.7344,276,454.7344,272,450.7344" style="stroke:#181818;stroke-width:1.0;"/><line style="stroke:#181818;stroke-width:1.0;stroke-dasharray:2.0,2.0;" x1="270" x2="528" y1="450.7344" y2="450.7344"/><polygon fill="#181818" points="191,467.7344,181,471.7344,191,475.7344,187,471.7344" style="stroke:#181818;stroke-width:1.0;"/><line style="stroke:#181818;stroke-width:1.0;stroke-dasharray:2.0,2.0;" x1="185" x2="259" y1="471.7344" y2="471.7344"/><polygon fill="#181818" points="50,481.7344,40,485.7344,50,489.7344,46,485.7344" style="stroke:#181818;stroke-width:1.0;"/><line style="stroke:#181818;stroke-width:1.0;stroke-dasharray:2.0,2.0;" x1="44" x2="174" y1="485.7344" y2="485.7344"/><!--SRC=[NP6zRiCm38HtFSKXapruI4QXxL9uqEhe1GIRBemwaY6n0VhsrK-Sok4Y2D_foADuuPMWRA2HoUDclYbWoLUGOHY4pNaImepiF3wTPU_MbRpOZETbN3PZ6QV5GpvTJZ01QdXHF0K57scGrzGc8tq-CfBzFE_l-YFJKaVYR7aenFzyw3xY318tTwVIjodIDaLPxeOfpQY6B2owHbzQL5W8n5gTsp0xtr1S32ZF4jgCKgbaqCTqawDmvH_RrEojwmum8x9JFitA6S3OtuSnGXJX7RDPGzowoExwBF55NDRGL07YglGPNKbGCEWY9geLnKF58SmqHGnsUuhTNy9JMa3-X2RK7OH- -1zSHOgW2Xb4ZTJX4rByAAZvo-qF]--></g></svg>