<?xml version="1.0" encoding="us-ascii" standalone="no"?><svg xmlns="http://www.w3.org/2000/svg" xmlns:xlink="http://www.w3.org/1999/xlink" contentStyleType="text/css" height="429px" preserveAspectRatio="none" style="width:370px;height:429px;background:#FFFFFF;" version="1.1" viewBox="0 0 370 429" width="370px" zoomAndPan="magnify"><defs/><g><text fill="#000000" font-family="sans-serif" font-size="14" font-weight="bold" lengthAdjust="spacing" textLength="135" x="124" y="29.5332">Insecter starts turn</text><rect fill="#FFFFFF" height="207.1094" style="stroke:#181818;stroke-width:1.0;" width="10" x="34" y="131.2188"/><rect fill="#FFFFFF" height="184.7578" style="stroke:#181818;stroke-width:1.0;" width="10" x="120" y="153.5703"/><rect fill="#FFFFFF" height="153.4063" style="stroke:#181818;stroke-width:1.0;" width="10" x="205" y="183.9219"/><rect fill="#FFFFFF" height="82.7031" style="stroke:#181818;stroke-width:1.0;" width="10" x="283" y="239.625"/><rect fill="none" height="75.7031" style="stroke:#000000;stroke-width:1.5;" width="197" x="167" y="254.625"/><line style="stroke:#181818;stroke-width:0.5;stroke-dasharray:5.0,5.0;" x1="39" x2="39" y1="121.2188" y2="347.3281"/><line style="stroke:#181818;stroke-width:0.5;stroke-dasharray:5.0,5.0;" x1="125" x2="125" y1="121.2188" y2="347.3281"/><line style="stroke:#181818;stroke-width:0.5;stroke-dasharray:5.0,5.0;" x1="210" x2="210" y1="121.2188" y2="347.3281"/><line style="stroke:#181818;stroke-width:0.5;stroke-dasharray:5.0,5.0;" x1="288" x2="288" y1="121.2188" y2="347.3281"/><text fill="#000000" font-family="sans-serif" font-size="14" lengthAdjust="spacing" textLength="62" x="5" y="118.1426">Controller</text><ellipse cx="39" cy="52.1094" fill="#E2E2F0" rx="8" ry="8" style="stroke:#181818;stroke-width:0.5;"/><path d="M39,60.1094 L39,87.1094 M26,68.1094 L52,68.1094 M39,87.1094 L26,102.1094 M39,87.1094 L52,102.1094 " fill="none" style="stroke:#181818;stroke-width:0.5;"/><text fill="#000000" font-family="sans-serif" font-size="14" lengthAdjust="spacing" textLength="62" x="5" y="360.8613">Controller</text><ellipse cx="39" cy="372.4375" fill="#E2E2F0" rx="8" ry="8" style="stroke:#181818;stroke-width:0.5;"/><path d="M39,380.4375 L39,407.4375 M26,388.4375 L52,388.4375 M39,407.4375 L26,422.4375 M39,407.4375 L52,422.4375 " fill="none" style="stroke:#181818;stroke-width:0.5;"/><rect fill="#E2E2F0" height="31.6094" rx="2.5" ry="2.5" style="stroke:#181818;stroke-width:0.5;" width="84" x="83" y="88.6094"/><text fill="#000000" font-family="sans-serif" font-size="14" lengthAdjust="spacing" textLength="70" x="90" y="110.1426">ir : Insecter</text><rect fill="#E2E2F0" height="31.6094" rx="2.5" ry="2.5" style="stroke:#181818;stroke-width:0.5;" width="84" x="83" y="346.3281"/><text fill="#000000" font-family="sans-serif" font-size="14" lengthAdjust="spacing" textLength="70" x="90" y="367.8613">ir : Insecter</text><rect fill="#E2E2F0" height="31.6094" rx="2.5" ry="2.5" style="stroke:#181818;stroke-width:0.5;" width="66" x="177" y="88.6094"/><text fill="#000000" font-family="sans-serif" font-size="14" lengthAdjust="spacing" textLength="52" x="184" y="110.1426">i : Insect</text><rect fill="#E2E2F0" height="31.6094" rx="2.5" ry="2.5" style="stroke:#181818;stroke-width:0.5;" width="66" x="177" y="346.3281"/><text fill="#000000" font-family="sans-serif" font-size="14" lengthAdjust="spacing" textLength="52" x="184" y="367.8613">i : Insect</text><rect fill="#E2E2F0" height="31.6094" rx="2.5" ry="2.5" style="stroke:#181818;stroke-width:0.5;" width="70" x="253" y="88.6094"/><text fill="#000000" font-family="sans-serif" font-size="14" lengthAdjust="spacing" textLength="56" x="260" y="110.1426">e : Effect</text><rect fill="#E2E2F0" height="31.6094" rx="2.5" ry="2.5" style="stroke:#181818;stroke-width:0.5;" width="70" x="253" y="346.3281"/><text fill="#000000" font-family="sans-serif" font-size="14" lengthAdjust="spacing" textLength="56" x="260" y="367.8613">e : Effect</text><rect fill="#FFFFFF" height="207.1094" style="stroke:#181818;stroke-width:1.0;" width="10" x="34" y="131.2188"/><rect fill="#FFFFFF" height="184.7578" style="stroke:#181818;stroke-width:1.0;" width="10" x="120" y="153.5703"/><rect fill="#FFFFFF" height="153.4063" style="stroke:#181818;stroke-width:1.0;" width="10" x="205" y="183.9219"/><rect fill="#FFFFFF" height="82.7031" style="stroke:#181818;stroke-width:1.0;" width="10" x="283" y="239.625"/><polygon fill="#181818" points="108,149.5703,118,153.5703,108,157.5703,112,153.5703" style="stroke:#181818;stroke-width:1.0;"/><line style="stroke:#181818;stroke-width:1.0;" x1="44" x2="114" y1="153.5703" y2="153.5703"/><text fill="#000000" font-family="sans-serif" font-size="13" lengthAdjust="spacing" textLength="47" x="51" y="148.7139">onTurn()</text><polygon fill="#181818" points="193,179.9219,203,183.9219,193,187.9219,197,183.9219" style="stroke:#181818;stroke-width:1.0;"/><line style="stroke:#181818;stroke-width:1.0;" x1="130" x2="199" y1="183.9219" y2="183.9219"/><text fill="#000000" font-family="sans-serif" font-size="13" lengthAdjust="spacing" textLength="47" x="137" y="179.0654">onTurn()</text><polygon fill="#181818" points="271,235.625,281,239.625,271,243.625,275,239.625" style="stroke:#181818;stroke-width:1.0;"/><line style="stroke:#181818;stroke-width:1.0;" x1="215" x2="277" y1="239.625" y2="239.625"/><text fill="#000000" font-family="sans-serif" font-size="13" lengthAdjust="spacing" textLength="47" x="222" y="234.7686">onTurn()</text><path d="M167,254.625 L228,254.625 L228,262.9766 L218,272.9766 L167,272.9766 L167,254.625 " fill="#EEEEEE" style="stroke:#000000;stroke-width:1.5;"/><rect fill="none" height="75.7031" style="stroke:#000000;stroke-width:1.5;" width="197" x="167" y="254.625"/><text fill="#000000" font-family="sans-serif" font-size="13" font-weight="bold" lengthAdjust="spacing" textLength="16" x="182" y="269.1201">alt</text><text fill="#000000" font-family="sans-serif" font-size="11" font-weight="bold" lengthAdjust="spacing" textLength="78" x="243" y="268.0439">[duration == 0]</text><line style="stroke:#181818;stroke-width:1.0;" x1="293" x2="335" y1="295.3281" y2="295.3281"/><line style="stroke:#181818;stroke-width:1.0;" x1="335" x2="335" y1="295.3281" y2="308.3281"/><line style="stroke:#181818;stroke-width:1.0;" x1="294" x2="335" y1="308.3281" y2="308.3281"/><polygon fill="#181818" points="304,304.3281,294,308.3281,304,312.3281,300,308.3281" style="stroke:#181818;stroke-width:1.0;"/><text fill="#000000" font-family="sans-serif" font-size="13" lengthAdjust="spacing" textLength="52" x="300" y="290.4717">remove(i)</text><polygon fill="#181818" points="226,318.3281,216,322.3281,226,326.3281,222,322.3281" style="stroke:#181818;stroke-width:1.0;"/><line style="stroke:#181818;stroke-width:1.0;stroke-dasharray:2.0,2.0;" x1="220" x2="287" y1="322.3281" y2="322.3281"/><!--SRC=[ROwn3i8m34HtVuN5GZjKOaR0WZ9qHVn0rBfIf11NZiltumOe1P79yRlpdGQDX6tAr2a9PlMY6NMI1E0xPS4p9nMEaGH6Ww4Beq-Aco2uNumRz1dRouzY4JpnDoMZRXZUr9MySFTAwyZFYCt94ip4wMhrglgZjs0mD0l-Su38FEB0KisnL69p3MYldNrkxPktYzTwbNzKx2Vn6ZZXyOYxidLlhz2DxrI56but3qtZojZJwXIb7c1hLGrRgnLhuG40]--></g></svg>