<?xml version="1.0" encoding="us-ascii" standalone="no"?><svg xmlns="http://www.w3.org/2000/svg" xmlns:xlink="http://www.w3.org/1999/xlink" contentStyleType="text/css" height="403px" preserveAspectRatio="none" style="width:749px;height:403px;background:#FFFFFF;" version="1.1" viewBox="0 0 749 403" width="749px" zoomAndPan="magnify"><defs/><g><text fill="#000000" font-family="sans-serif" font-size="14" font-weight="bold" lengthAdjust="spacing" textLength="187" x="280" y="29.5332">Mushroomer throws spore</text><rect fill="#FFFFFF" height="119.0547" style="stroke:#181818;stroke-width:1.0;" width="10" x="312" y="183.9219"/><rect fill="#FFFFFF" height="14" style="stroke:#181818;stroke-width:1.0;" width="10" x="700" y="274.9766"/><line style="stroke:#181818;stroke-width:0.5;stroke-dasharray:5.0,5.0;" x1="28" x2="28" y1="121.2188" y2="320.9766"/><line style="stroke:#181818;stroke-width:0.5;stroke-dasharray:5.0,5.0;" x1="181" x2="181" y1="121.2188" y2="320.9766"/><line style="stroke:#181818;stroke-width:0.5;stroke-dasharray:5.0,5.0;" x1="317" x2="317" y1="121.2188" y2="320.9766"/><line style="stroke:#181818;stroke-width:0.5;stroke-dasharray:5.0,5.0;" x1="705" x2="705" y1="121.2188" y2="320.9766"/><text fill="#000000" font-family="sans-serif" font-size="14" lengthAdjust="spacing" textLength="40" x="5" y="118.1426">Player</text><ellipse cx="28" cy="52.1094" fill="#E2E2F0" rx="8" ry="8" style="stroke:#181818;stroke-width:0.5;"/><path d="M28,60.1094 L28,87.1094 M15,68.1094 L41,68.1094 M28,87.1094 L15,102.1094 M28,87.1094 L41,102.1094 " fill="none" style="stroke:#181818;stroke-width:0.5;"/><text fill="#000000" font-family="sans-serif" font-size="14" lengthAdjust="spacing" textLength="40" x="5" y="334.5098">Player</text><ellipse cx="28" cy="346.0859" fill="#E2E2F0" rx="8" ry="8" style="stroke:#181818;stroke-width:0.5;"/><path d="M28,354.0859 L28,381.0859 M15,362.0859 L41,362.0859 M28,381.0859 L15,396.0859 M28,381.0859 L41,396.0859 " fill="none" style="stroke:#181818;stroke-width:0.5;"/><rect fill="#E2E2F0" height="31.6094" rx="2.5" ry="2.5" style="stroke:#181818;stroke-width:0.5;" width="120" x="121" y="88.6094"/><text fill="#000000" font-family="sans-serif" font-size="14" lengthAdjust="spacing" textLength="106" x="128" y="110.1426">mp : InsecterPop</text><rect fill="#E2E2F0" height="31.6094" rx="2.5" ry="2.5" style="stroke:#181818;stroke-width:0.5;" width="120" x="121" y="319.9766"/><text fill="#000000" font-family="sans-serif" font-size="14" lengthAdjust="spacing" textLength="106" x="128" y="341.5098">mp : InsecterPop</text><rect fill="#E2E2F0" height="31.6094" rx="2.5" ry="2.5" style="stroke:#181818;stroke-width:0.5;" width="116" x="259" y="88.6094"/><text fill="#000000" font-family="sans-serif" font-size="14" lengthAdjust="spacing" textLength="102" x="266" y="110.1426">gp : GamePanel</text><rect fill="#E2E2F0" height="31.6094" rx="2.5" ry="2.5" style="stroke:#181818;stroke-width:0.5;" width="116" x="259" y="319.9766"/><text fill="#000000" font-family="sans-serif" font-size="14" lengthAdjust="spacing" textLength="102" x="266" y="341.5098">gp : GamePanel</text><rect fill="#E2E2F0" height="31.6094" rx="2.5" ry="2.5" style="stroke:#181818;stroke-width:0.5;" width="76" x="667" y="88.6094"/><text fill="#000000" font-family="sans-serif" font-size="14" lengthAdjust="spacing" textLength="62" x="674" y="110.1426">p : Parser</text><rect fill="#E2E2F0" height="31.6094" rx="2.5" ry="2.5" style="stroke:#181818;stroke-width:0.5;" width="76" x="667" y="319.9766"/><text fill="#000000" font-family="sans-serif" font-size="14" lengthAdjust="spacing" textLength="62" x="674" y="341.5098">p : Parser</text><rect fill="#FFFFFF" height="119.0547" style="stroke:#181818;stroke-width:1.0;" width="10" x="312" y="183.9219"/><rect fill="#FFFFFF" height="14" style="stroke:#181818;stroke-width:1.0;" width="10" x="700" y="274.9766"/><polygon fill="#181818" points="169,149.5703,179,153.5703,169,157.5703,173,153.5703" style="stroke:#181818;stroke-width:1.0;"/><line style="stroke:#181818;stroke-width:1.0;" x1="28" x2="175" y1="153.5703" y2="153.5703"/><text fill="#000000" font-family="sans-serif" font-size="13" lengthAdjust="spacing" textLength="129" x="35" y="148.7139">Clicks on throw button</text><polygon fill="#181818" points="300,179.9219,310,183.9219,300,187.9219,304,183.9219" style="stroke:#181818;stroke-width:1.0;"/><line style="stroke:#181818;stroke-width:1.0;" x1="181" x2="306" y1="183.9219" y2="183.9219"/><text fill="#000000" font-family="sans-serif" font-size="13" lengthAdjust="spacing" textLength="73" x="188" y="179.0654">throwSpore()</text><polygon fill="#181818" points="300,210.2734,310,214.2734,300,218.2734,304,214.2734" style="stroke:#181818;stroke-width:1.0;"/><line style="stroke:#181818;stroke-width:1.0;" x1="28" x2="306" y1="214.2734" y2="214.2734"/><text fill="#000000" font-family="sans-serif" font-size="13" lengthAdjust="spacing" textLength="260" x="35" y="209.417">Chooses mushroomstem to throw spore from</text><polygon fill="#181818" points="300,240.625,310,244.625,300,248.625,304,244.625" style="stroke:#181818;stroke-width:1.0;"/><line style="stroke:#181818;stroke-width:1.0;" x1="28" x2="306" y1="244.625" y2="244.625"/><text fill="#000000" font-family="sans-serif" font-size="13" lengthAdjust="spacing" textLength="192" x="35" y="239.7686">Chooses tecton to throw spore to</text><polygon fill="#181818" points="688,270.9766,698,274.9766,688,278.9766,692,274.9766" style="stroke:#181818;stroke-width:1.0;"/><line style="stroke:#181818;stroke-width:1.0;" x1="322" x2="694" y1="274.9766" y2="274.9766"/><text fill="#000000" font-family="sans-serif" font-size="13" lengthAdjust="spacing" textLength="359" x="329" y="270.1201">commandParser("!move [MUSHROOMSTEMID] [TECTONID]")</text><polygon fill="#181818" points="333,284.9766,323,288.9766,333,292.9766,329,288.9766" style="stroke:#181818;stroke-width:1.0;"/><line style="stroke:#181818;stroke-width:1.0;" x1="327" x2="704" y1="288.9766" y2="288.9766"/><polygon fill="#181818" points="39,298.9766,29,302.9766,39,306.9766,35,302.9766" style="stroke:#181818;stroke-width:1.0;"/><line style="stroke:#181818;stroke-width:1.0;" x1="33" x2="316" y1="302.9766" y2="302.9766"/><!--SRC=[TP71JiCm38RlUGhJ2-F02-p0fKnbXwpHMauJXz0PLf74LU8DyVOuRGKT4ZVB_lB_lntksI7eSpf58eyHM8hF16cWY4hPZYc2SVOBenfivBxh1niO2Z_06hOXOSSO3Gq5s0JQN4Fl6QgiHsC3kX6f_Y2PC3OcZEFOA7Khflt5Ca99WICv9zvJ1BX_48yrbAxlFX9GcEB2wvcPWbBQPA8IOkmtUOdLdVeH5FDVeOoL9wA42VnyWCJeWMcM7Oy0Rv7yFyzOjiyXhXymgMeC8cH7tjjmd3PS5JUUBWW7_TmyxUjQD-r6RnzVuD1kohRUILaiqahOoL0TST6SjQS_MKo4-mO0]--></g></svg>