<?xml version="1.0" encoding="us-ascii" standalone="no"?><svg xmlns="http://www.w3.org/2000/svg" xmlns:xlink="http://www.w3.org/1999/xlink" contentStyleType="text/css" height="515px" preserveAspectRatio="none" style="width:345px;height:515px;background:#FFFFFF;" version="1.1" viewBox="0 0 345 515" width="345px" zoomAndPan="magnify"><defs/><g><!--entity Mushroomer--><g id="elem_Mushroomer"><ellipse cx="97.23" cy="362" fill="#F1F1F1" rx="8" ry="8" style="stroke:#181818;stroke-width:0.5;"/><path d="M97.23,370 L97.23,397 M84.23,378 L110.23,378 M97.23,397 L84.23,412 M97.23,397 L110.23,412 " fill="none" style="stroke:#181818;stroke-width:0.5;"/><text fill="#000000" font-family="sans-serif" font-size="14" lengthAdjust="spacing" textLength="79" x="57.73" y="428.0332">Mushroomer</text></g><!--entity User--><g id="elem_User"><ellipse cx="97.23" cy="63" fill="#F1F1F1" rx="8" ry="8" style="stroke:#181818;stroke-width:0.5;"/><path d="M97.23,71 L97.23,98 M84.23,79 L110.23,79 M97.23,98 L84.23,113 M97.23,98 L110.23,113 " fill="none" style="stroke:#181818;stroke-width:0.5;"/><text fill="#000000" font-family="sans-serif" font-size="14" lengthAdjust="spacing" textLength="29" x="82.73" y="129.0332">User</text></g><!--entity Insecter--><g id="elem_Insecter"><ellipse cx="97.23" cy="187" fill="#F1F1F1" rx="8" ry="8" style="stroke:#181818;stroke-width:0.5;"/><path d="M97.23,195 L97.23,222 M84.23,203 L110.23,203 M97.23,222 L84.23,237 M97.23,222 L110.23,237 " fill="none" style="stroke:#181818;stroke-width:0.5;"/><text fill="#000000" font-family="sans-serif" font-size="14" lengthAdjust="spacing" textLength="50" x="72.23" y="253.0332">Insecter</text></g><g id="elem_Ends turn"><ellipse cx="267.7268" cy="21.5429" fill="#F1F1F1" rx="54.9968" ry="15.5429" style="stroke:#181818;stroke-width:0.5;"/><text fill="#000000" font-family="sans-serif" font-size="14" lengthAdjust="spacing" textLength="61" x="234.2268" y="26.0595">Ends turn</text></g><g id="elem_Starts game"><ellipse cx="267.81" cy="87.6227" fill="#F1F1F1" rx="66.08" ry="15.6227" style="stroke:#181818;stroke-width:0.5;"/><text fill="#000000" font-family="sans-serif" font-size="14" lengthAdjust="spacing" textLength="76" x="226.81" y="92.1393">Starts game</text></g><g id="elem_Plants stem"><ellipse cx="267.5931" cy="493.609" fill="#F1F1F1" rx="63.8631" ry="15.609" style="stroke:#181818;stroke-width:0.5;"/><text fill="#000000" font-family="sans-serif" font-size="14" lengthAdjust="spacing" textLength="73" x="228.0931" y="498.1256">Plants stem</text></g><g id="elem_Throws spore"><ellipse cx="267.687" cy="358.2914" fill="#F1F1F1" rx="69.457" ry="16.2914" style="stroke:#181818;stroke-width:0.5;"/><text fill="#000000" font-family="sans-serif" font-size="14" lengthAdjust="spacing" textLength="86" x="221.687" y="362.808">Throws spore</text></g><g id="elem_Grows thread"><ellipse cx="267.8419" cy="426.7224" fill="#F1F1F1" rx="69.1119" ry="16.2224" style="stroke:#181818;stroke-width:0.5;"/><text fill="#000000" font-family="sans-serif" font-size="14" lengthAdjust="spacing" textLength="85" x="222.3419" y="431.239">Grows thread</text></g><g id="elem_Moves insect"><ellipse cx="267.8187" cy="290.5177" fill="#F1F1F1" rx="68.0887" ry="16.0177" style="stroke:#181818;stroke-width:0.5;"/><text fill="#000000" font-family="sans-serif" font-size="14" lengthAdjust="spacing" textLength="82" x="223.8187" y="295.0343">Moves insect</text></g><g id="elem_Eat with insect"><ellipse cx="267.5867" cy="154.5713" fill="#F1F1F1" rx="70.8567" ry="16.5713" style="stroke:#181818;stroke-width:0.5;"/><text fill="#000000" font-family="sans-serif" font-size="14" lengthAdjust="spacing" textLength="90" x="219.5867" y="159.0879">Eat with insect</text></g><g id="elem_Cut with insect"><ellipse cx="267.9413" cy="222.6423" fill="#F1F1F1" rx="71.2113" ry="16.6423" style="stroke:#181818;stroke-width:0.5;"/><text fill="#000000" font-family="sans-serif" font-size="14" lengthAdjust="spacing" textLength="91" x="219.4413" y="227.1589">Cut with insect</text></g><!--reverse link User to Mushroomer--><g id="link_User_Mushroomer"><path d="M69.1374,117.2902 C52.1774,132.1902 38.63,147.6 27.73,178 C6,238.62 40.9,309.9 68.61,353.11 " fill="none" id="User-backto-Mushroomer" style="stroke:#181818;stroke-width:1.0;"/><polygon fill="none" points="82.66,105.41,65.1773,112.7826,73.0974,121.7977,82.66,105.41" style="stroke:#181818;stroke-width:1.0;"/></g><!--reverse link User to Insecter--><g id="link_User_Insecter"><path d="M97.23,150.57 C97.23,165.8 97.23,163.03 97.23,178.27 " fill="none" id="User-backto-Insecter" style="stroke:#181818;stroke-width:1.0;"/><polygon fill="none" points="97.23,132.57,91.23,150.57,103.23,150.57,97.23,132.57" style="stroke:#181818;stroke-width:1.0;"/></g><!--link User to Ends turn--><g id="link_User_Ends turn"><path d="M111.73,87.73 C138.68,76.22 194.1726,52.5076 231.1026,36.7276 " fill="none" id="User-to-Ends turn" style="stroke:#181818;stroke-width:1.0;"/><polygon fill="#181818" points="236.62,34.37,226.7722,34.2281,232.0222,36.3346,229.9156,41.5846,236.62,34.37" style="stroke:#181818;stroke-width:1.0;"/></g><!--link User to Starts game--><g id="link_User_Starts game"><path d="M111.73,93.02 C131.34,92.32 162.9738,91.1927 196.2438,90.0127 " fill="none" id="User-to-Starts game" style="stroke:#181818;stroke-width:1.0;"/><polygon fill="#181818" points="202.24,89.8,193.1039,86.1215,197.2431,89.9772,193.3874,94.1165,202.24,89.8" style="stroke:#181818;stroke-width:1.0;"/></g><!--link Mushroomer to Plants stem--><g id="link_Mushroomer_Plants stem"><path d="M137.05,421.48 C154.8,434.16 176.38,448.78 196.73,460.5 C209.07,467.61 217.7436,471.9845 230.0536,477.6145 " fill="none" id="Mushroomer-to-Plants stem" style="stroke:#181818;stroke-width:1.0;"/><polygon fill="#181818" points="235.51,480.11,228.989,472.7291,230.963,478.0304,225.6617,480.0044,235.51,480.11" style="stroke:#181818;stroke-width:1.0;"/></g><!--link Mushroomer to Throws spore--><g id="link_Mushroomer_Throws spore"><path d="M136.89,384.7 C159.82,380.07 183.3182,375.3253 208.3282,370.2853 " fill="none" id="Mushroomer-to-Throws spore" style="stroke:#181818;stroke-width:1.0;"/><polygon fill="#181818" points="214.21,369.1,204.5972,366.9568,209.3085,370.0877,206.1776,374.7991,214.21,369.1" style="stroke:#181818;stroke-width:1.0;"/></g><!--link Mushroomer to Grows thread--><g id="link_Mushroomer_Grows thread"><path d="M136.89,400.3 C160.11,404.99 184.0581,409.8252 209.2781,414.9052 " fill="none" id="Mushroomer-to-Grows thread" style="stroke:#181818;stroke-width:1.0;"/><polygon fill="#181818" points="215.16,416.09,207.1271,410.3916,210.2584,415.1027,205.5474,418.2341,215.16,416.09" style="stroke:#181818;stroke-width:1.0;"/></g><!--link Insecter to Moves insect--><g id="link_Insecter_Moves insect"><path d="M122.37,227.96 C151.76,240.69 196.0142,259.8654 228.7542,274.0454 " fill="none" id="Insecter-to-Moves insect" style="stroke:#181818;stroke-width:1.0;"/><polygon fill="#181818" points="234.26,276.43,227.5911,269.1826,229.6718,274.4428,224.4116,276.5236,234.26,276.43" style="stroke:#181818;stroke-width:1.0;"/></g><!--link Insecter to Eat with insect--><g id="link_Insecter_Eat with insect"><path d="M122.37,208.47 C150.31,198.03 191.0194,182.7998 223.6494,170.6098 " fill="none" id="Insecter-to-Eat with insect" style="stroke:#181818;stroke-width:1.0;"/><polygon fill="#181818" points="229.27,168.51,219.4393,167.9126,224.5862,170.2598,222.239,175.4067,229.27,168.51" style="stroke:#181818;stroke-width:1.0;"/></g><!--link Insecter to Cut with insect--><g id="link_Insecter_Cut with insect"><path d="M122.37,218.22 C141.94,218.8 164.5326,219.474 191.1126,220.254 " fill="none" id="Insecter-to-Cut with insect" style="stroke:#181818;stroke-width:1.0;"/><polygon fill="#181818" points="197.11,220.43,188.2312,216.1677,192.1122,220.2833,187.9965,224.1643,197.11,220.43" style="stroke:#181818;stroke-width:1.0;"/></g><!--SRC=[TS_12i8m30RWUvyYDzsXhx2B314S2Ee351VNmjQE9DqkFhpj41mLZ_c_FuIqaIs5C2A17l0f-bN3dP7KoJC-v2TMUG89GAwt0fsZr7B1gwoWTGtxndSC4ibNc_0gXeIXDoDMIhMRgralW_59MN2irAxKCyuuCCJfKoZzbgObRK-1y5UFAuebD5qw_VqhOnjcP71hLXNM6875YVt3XrZm6m00]--></g></svg>