<?xml version="1.0" encoding="us-ascii" standalone="no"?><svg xmlns="http://www.w3.org/2000/svg" xmlns:xlink="http://www.w3.org/1999/xlink" contentStyleType="text/css" height="1477px" preserveAspectRatio="none" style="width:573px;height:1477px;background:#FFFFFF;" version="1.1" viewBox="0 0 573 1477" width="573px" zoomAndPan="magnify"><defs/><g><!--entity Mushroomer--><g id="elem_Mushroomer"><ellipse cx="127.54" cy="1056" fill="#F1F1F1" rx="8" ry="8" style="stroke:#181818;stroke-width:0.5;"/><path d="M127.54,1064 L127.54,1091 M114.54,1072 L140.54,1072 M127.54,1091 L114.54,1106 M127.54,1091 L140.54,1106 " fill="none" style="stroke:#181818;stroke-width:0.5;"/><text fill="#000000" font-family="sans-serif" font-size="14" lengthAdjust="spacing" textLength="79" x="88.04" y="1122.0332">Mushroomer</text></g><!--entity User--><g id="elem_User"><ellipse cx="127.54" cy="152" fill="#F1F1F1" rx="8" ry="8" style="stroke:#181818;stroke-width:0.5;"/><path d="M127.54,160 L127.54,187 M114.54,168 L140.54,168 M127.54,187 L114.54,202 M127.54,187 L140.54,202 " fill="none" style="stroke:#181818;stroke-width:0.5;"/><text fill="#000000" font-family="sans-serif" font-size="14" lengthAdjust="spacing" textLength="29" x="113.04" y="218.0332">User</text></g><!--entity Insecter--><g id="elem_Insecter"><ellipse cx="127.54" cy="360" fill="#F1F1F1" rx="8" ry="8" style="stroke:#181818;stroke-width:0.5;"/><path d="M127.54,368 L127.54,395 M114.54,376 L140.54,376 M127.54,395 L114.54,410 M127.54,395 L140.54,410 " fill="none" style="stroke:#181818;stroke-width:0.5;"/><text fill="#000000" font-family="sans-serif" font-size="14" lengthAdjust="spacing" textLength="50" x="102.54" y="426.0332">Insecter</text></g><g id="elem_Ends turn"><ellipse cx="397.5368" cy="87.5429" fill="#F1F1F1" rx="54.9968" ry="15.5429" style="stroke:#181818;stroke-width:0.5;"/><text fill="#000000" font-family="sans-serif" font-size="14" lengthAdjust="spacing" textLength="61" x="364.0368" y="92.0595">Ends turn</text></g><g id="elem_Starts game"><ellipse cx="397.62" cy="21.6227" fill="#F1F1F1" rx="66.08" ry="15.6227" style="stroke:#181818;stroke-width:0.5;"/><text fill="#000000" font-family="sans-serif" font-size="14" lengthAdjust="spacing" textLength="76" x="356.62" y="26.1393">Starts game</text></g><g id="elem_Plants stem"><ellipse cx="397.4031" cy="967.609" fill="#F1F1F1" rx="63.8631" ry="15.609" style="stroke:#181818;stroke-width:0.5;"/><text fill="#000000" font-family="sans-serif" font-size="14" lengthAdjust="spacing" textLength="73" x="357.9031" y="972.1256">Plants stem</text></g><g id="elem_Plants stem on occupied tecton"><ellipse cx="397.4345" cy="1043.6789" fill="#F1F1F1" rx="116.3945" ry="25.6789" style="stroke:#181818;stroke-width:0.5;"/><text fill="#000000" font-family="sans-serif" font-size="14" lengthAdjust="spacing" textLength="197" x="298.9345" y="1047.4074">Plants stem on occupied tecton</text></g><g id="elem_Plants stem on stemless tecton"><ellipse cx="397.5136" cy="1129.4947" fill="#F1F1F1" rx="115.4736" ry="25.4947" style="stroke:#181818;stroke-width:0.5;"/><text fill="#000000" font-family="sans-serif" font-size="14" lengthAdjust="spacing" textLength="195" x="300.0136" y="1133.2232">Plants stem on stemless tecton</text></g><g id="elem_Throws claw paralyzing spore"><ellipse cx="397.4303" cy="1214.5781" fill="#F1F1F1" rx="110.8903" ry="24.5781" style="stroke:#181818;stroke-width:0.5;"/><text fill="#000000" font-family="sans-serif" font-size="14" lengthAdjust="spacing" textLength="185" x="304.9303" y="1218.3066">Throws claw paralyzing spore</text></g><g id="elem_Throws paralyzing spore"><ellipse cx="397.4925" cy="1296.2905" fill="#F1F1F1" rx="96.9525" ry="21.7905" style="stroke:#181818;stroke-width:0.5;"/><text fill="#000000" font-family="sans-serif" font-size="14" lengthAdjust="spacing" textLength="154" x="320.4925" y="1300.019">Throws paralyzing spore</text></g><g id="elem_Throws slowing spore"><ellipse cx="397.645" cy="1373.721" fill="#F1F1F1" rx="89.105" ry="20.221" style="stroke:#181818;stroke-width:0.5;"/><text fill="#000000" font-family="sans-serif" font-size="14" lengthAdjust="spacing" textLength="136" x="329.645" y="1377.4495">Throws slowing spore</text></g><g id="elem_Throws speeding spore"><ellipse cx="397.353" cy="1450.2626" fill="#F1F1F1" rx="94.313" ry="21.2626" style="stroke:#181818;stroke-width:0.5;"/><text fill="#000000" font-family="sans-serif" font-size="14" lengthAdjust="spacing" textLength="148" x="323.353" y="1453.9911">Throws speeding spore</text></g><g id="elem_Grows thread"><ellipse cx="397.6519" cy="792.7224" fill="#F1F1F1" rx="69.1119" ry="16.2224" style="stroke:#181818;stroke-width:0.5;"/><text fill="#000000" font-family="sans-serif" font-size="14" lengthAdjust="spacing" textLength="85" x="352.1519" y="797.239">Grows thread</text></g><g id="elem_Grows thread on occupied single threaded tecton"><ellipse cx="397.4327" cy="880.4785" fill="#F1F1F1" rx="170.3927" ry="36.4785" style="stroke:#181818;stroke-width:0.5;"/><text fill="#000000" font-family="sans-serif" font-size="14" lengthAdjust="spacing" textLength="311" x="241.9327" y="884.2071">Grows thread on occupied single threaded tecton</text></g><g id="elem_Moves insect"><ellipse cx="397.6287" cy="390.5177" fill="#F1F1F1" rx="68.0887" ry="16.0177" style="stroke:#181818;stroke-width:0.5;"/><text fill="#000000" font-family="sans-serif" font-size="14" lengthAdjust="spacing" textLength="82" x="353.6287" y="395.0343">Moves insect</text></g><g id="elem_Moves insect unsuccsessfully"><ellipse cx="397.4303" cy="466.5781" fill="#F1F1F1" rx="110.8903" ry="24.5781" style="stroke:#181818;stroke-width:0.5;"/><text fill="#000000" font-family="sans-serif" font-size="14" lengthAdjust="spacing" textLength="185" x="304.9303" y="470.3066">Moves insect unsuccsessfully</text></g><g id="elem_Insect eats claw paralyzing spore"><ellipse cx="397.5583" cy="552.6037" fill="#F1F1F1" rx="121.0183" ry="26.6037" style="stroke:#181818;stroke-width:0.5;"/><text fill="#000000" font-family="sans-serif" font-size="14" lengthAdjust="spacing" textLength="207" x="294.0583" y="556.3322">Insect eats claw paralyzing spore</text></g><g id="elem_Insect eats paralyzing spore"><ellipse cx="397.3382" cy="638.2596" fill="#F1F1F1" rx="106.7982" ry="23.7596" style="stroke:#181818;stroke-width:0.5;"/><text fill="#000000" font-family="sans-serif" font-size="14" lengthAdjust="spacing" textLength="176" x="309.3382" y="641.9882">Insect eats paralyzing spore</text></g><g id="elem_Insect eats slowing spore"><ellipse cx="397.7639" cy="719.6448" fill="#F1F1F1" rx="98.7239" ry="22.1448" style="stroke:#181818;stroke-width:0.5;"/><text fill="#000000" font-family="sans-serif" font-size="14" lengthAdjust="spacing" textLength="158" x="318.7639" y="723.3733">Insect eats slowing spore</text></g><g id="elem_Insect eats speeding spore"><ellipse cx="397.6294" cy="161.7179" fill="#F1F1F1" rx="104.0894" ry="23.2179" style="stroke:#181818;stroke-width:0.5;"/><text fill="#000000" font-family="sans-serif" font-size="14" lengthAdjust="spacing" textLength="170" x="312.6294" y="165.4464">Insect eats speeding spore</text></g><g id="elem_Cut with insect"><ellipse cx="397.7513" cy="236.6423" fill="#F1F1F1" rx="71.2113" ry="16.6423" style="stroke:#181818;stroke-width:0.5;"/><text fill="#000000" font-family="sans-serif" font-size="14" lengthAdjust="spacing" textLength="91" x="349.2513" y="241.1589">Cut with insect</text></g><g id="elem_Cut with insect unsuccsessfully"><ellipse cx="397.5537" cy="313.4027" fill="#F1F1F1" rx="115.0137" ry="25.4027" style="stroke:#181818;stroke-width:0.5;"/><text fill="#000000" font-family="sans-serif" font-size="14" lengthAdjust="spacing" textLength="194" x="300.5537" y="317.1313">Cut with insect unsuccsessfully</text></g><!--reverse link User to Mushroomer--><g id="link_User_Mushroomer"><path d="M104.546,224.5271 C87.446,256.8171 68.52,298.08 58.04,351 C6,613.64 85.04,937 115.99,1047.42 " fill="none" id="User-backto-Mushroomer" style="stroke:#181818;stroke-width:1.0;"/><polygon fill="none" points="112.97,208.62,99.2436,221.7191,109.8484,227.3351,112.97,208.62" style="stroke:#181818;stroke-width:1.0;"/></g><!--reverse link User to Insecter--><g id="link_User_Insecter"><path d="M127.54,239.68 C127.54,282.82 127.54,307.96 127.54,351.09 " fill="none" id="User-backto-Insecter" style="stroke:#181818;stroke-width:1.0;"/><polygon fill="none" points="127.54,221.68,121.54,239.68,133.54,239.68,127.54,221.68" style="stroke:#181818;stroke-width:1.0;"/></g><!--link User to Ends turn--><g id="link_User_Ends turn"><path d="M142.32,171.48 C160.59,157.43 194.35,133.44 227.04,120.5 C265.09,105.43 304.8018,97.8364 339.1418,93.2964 " fill="none" id="User-to-Ends turn" style="stroke:#181818;stroke-width:1.0;"/><polygon fill="#181818" points="345.09,92.51,335.6434,89.7241,340.1331,93.1653,336.6919,97.6551,345.09,92.51" style="stroke:#181818;stroke-width:1.0;"/></g><!--link User to Starts game--><g id="link_User_Starts game"><path d="M142.11,154.7 C158.14,124.97 187.68,78.82 227.04,54.5 C258.28,35.19 292.4627,27.4355 325.8527,23.9355 " fill="none" id="User-to-Starts game" style="stroke:#181818;stroke-width:1.0;"/><polygon fill="#181818" points="331.82,23.31,322.452,20.2701,326.8472,23.8313,323.286,28.2265,331.82,23.31" style="stroke:#181818;stroke-width:1.0;"/></g><!--link Mushroomer to Plants stem--><g id="link_Mushroomer_Plants stem"><path d="M163.92,1047.41 C181.33,1030.49 203.59,1011.97 227.04,1000.5 C260.83,983.96 296.2751,976.4441 329.6951,972.3241 " fill="none" id="Mushroomer-to-Plants stem" style="stroke:#181818;stroke-width:1.0;"/><polygon fill="#181818" points="335.65,971.59,326.2282,968.7212,330.6876,972.2018,327.207,976.6611,335.65,971.59" style="stroke:#181818;stroke-width:1.0;"/></g><!--link Mushroomer to Plants stem on occupied tecton--><g id="link_Mushroomer_Plants stem on occupied tecton"><path d="M167.22,1080.29 C202.66,1074.61 250.6257,1066.9103 297.2557,1059.4303 " fill="none" id="Mushroomer-to-Plants stem on occupied tecton" style="stroke:#181818;stroke-width:1.0;"/><polygon fill="#181818" points="303.18,1058.48,293.6601,1055.956,298.2431,1059.2719,294.9272,1063.855,303.18,1058.48" style="stroke:#181818;stroke-width:1.0;"/></g><!--link Mushroomer to Plants stem on stemless tecton--><g id="link_Mushroomer_Plants stem on stemless tecton"><path d="M167.22,1092.71 C202.81,1098.42 251.0657,1106.1598 297.8257,1113.6598 " fill="none" id="Mushroomer-to-Plants stem on stemless tecton" style="stroke:#181818;stroke-width:1.0;"/><polygon fill="#181818" points="303.75,1114.61,295.4971,1109.2352,298.8131,1113.8182,294.2301,1117.1342,303.75,1114.61" style="stroke:#181818;stroke-width:1.0;"/></g><!--link Mushroomer to Throws claw paralyzing spore--><g id="link_Mushroomer_Throws claw paralyzing spore"><path d="M165.11,1125.93 C182.43,1142.5 204.29,1160.65 227.04,1172.5 C251.37,1185.18 273.8429,1192.7514 300.2829,1199.0414 " fill="none" id="Mushroomer-to-Throws claw paralyzing spore" style="stroke:#181818;stroke-width:1.0;"/><polygon fill="#181818" points="306.12,1200.43,298.2901,1194.4557,301.2558,1199.2728,296.4386,1202.2385,306.12,1200.43" style="stroke:#181818;stroke-width:1.0;"/></g><!--link Mushroomer to Throws paralyzing spore--><g id="link_Mushroomer_Throws paralyzing spore"><path d="M140.95,1125.83 C155.36,1164.96 182.95,1223.76 227.04,1256.5 C249.86,1273.44 272.8965,1282.1144 300.3565,1287.8444 " fill="none" id="Mushroomer-to-Throws paralyzing spore" style="stroke:#181818;stroke-width:1.0;"/><polygon fill="#181818" points="306.23,1289.07,298.2368,1283.3159,301.3354,1288.0487,296.6027,1291.1473,306.23,1289.07" style="stroke:#181818;stroke-width:1.0;"/></g><!--link Mushroomer to Throws slowing spore--><g id="link_Mushroomer_Throws slowing spore"><path d="M132.59,1125.59 C140.5,1181.15 163.27,1282.22 227.04,1336.5 C249.75,1355.83 274.3243,1364.7377 303.1843,1369.6277 " fill="none" id="Mushroomer-to-Throws slowing spore" style="stroke:#181818;stroke-width:1.0;"/><polygon fill="#181818" points="309.1,1370.63,300.8947,1365.1827,304.1703,1369.7947,299.5582,1373.0703,309.1,1370.63" style="stroke:#181818;stroke-width:1.0;"/></g><!--link Mushroomer to Throws speeding spore--><g id="link_Mushroomer_Throws speeding spore"><path d="M128.51,1125.73 C130.69,1194.17 145.5,1335.33 227.04,1411.5 C247.89,1430.98 270.5603,1440.2448 298.2803,1445.6348 " fill="none" id="Mushroomer-to-Throws speeding spore" style="stroke:#181818;stroke-width:1.0;"/><polygon fill="#181818" points="304.17,1446.78,296.0989,1441.1357,299.2619,1445.8257,294.572,1448.9886,304.17,1446.78" style="stroke:#181818;stroke-width:1.0;"/></g><!--link Mushroomer to Grows thread--><g id="link_Mushroomer_Grows thread"><path d="M131.79,1047.18 C138.75,989.58 160.4,883 227.04,826.5 C254.85,802.92 288.4603,794.5535 322.3903,791.7535 " fill="none" id="Mushroomer-to-Grows thread" style="stroke:#181818;stroke-width:1.0;"/><polygon fill="#181818" points="328.37,791.26,319.0715,788.0137,323.3869,791.6712,319.7295,795.9866,328.37,791.26" style="stroke:#181818;stroke-width:1.0;"/></g><!--link Mushroomer to Grows thread on occupied single threaded tecton--><g id="link_Mushroomer_Grows thread on occupied single threaded tecton"><path d="M144.66,1047.33 C160.72,1012.92 188.55,963.89 227.04,934.5 C242.13,922.97 254.184,916.0856 272.254,908.9056 " fill="none" id="Mushroomer-to-Grows thread on occupied single threaded tecton" style="stroke:#181818;stroke-width:1.0;"/><polygon fill="#181818" points="277.83,906.69,267.989,906.2961,273.1834,908.5363,270.9431,913.7307,277.83,906.69" style="stroke:#181818;stroke-width:1.0;"/></g><!--link Insecter to Moves insect--><g id="link_Insecter_Moves insect"><path d="M152.79,390.5 C192.29,390.5 265.84,390.5 323.35,390.5 " fill="none" id="Insecter-to-Moves insect" style="stroke:#181818;stroke-width:1.0;"/><polygon fill="#181818" points="329.35,390.5,320.35,386.5,324.35,390.5,320.35,394.5,329.35,390.5" style="stroke:#181818;stroke-width:1.0;"/></g><!--link Insecter to Moves insect unsuccsessfully--><g id="link_Insecter_Moves insect unsuccsessfully"><path d="M152.63,399.49 C172.45,406.73 201.36,416.9 227.04,424.5 C256.98,433.36 284.4379,440.4806 313.5279,447.5106 " fill="none" id="Insecter-to-Moves insect unsuccsessfully" style="stroke:#181818;stroke-width:1.0;"/><polygon fill="#181818" points="319.36,448.92,311.5514,442.9178,314.4999,447.7455,309.6722,450.694,319.36,448.92" style="stroke:#181818;stroke-width:1.0;"/></g><!--link Insecter to Insect eats claw paralyzing spore--><g id="link_Insecter_Insect eats claw paralyzing spore"><path d="M152.01,429.76 C169.55,455.81 195.82,488.72 227.04,508.5 C248.1,521.84 267.2648,529.5958 291.4648,536.0858 " fill="none" id="Insecter-to-Insect eats claw paralyzing spore" style="stroke:#181818;stroke-width:1.0;"/><polygon fill="#181818" points="297.26,537.64,289.6033,531.4453,292.4307,536.3449,287.5311,539.1722,297.26,537.64" style="stroke:#181818;stroke-width:1.0;"/></g><!--link Insecter to Insect eats paralyzing spore--><g id="link_Insecter_Insect eats paralyzing spore"><path d="M136.63,429.8 C148.35,476.6 174.65,553.8 227.04,596.5 C247.25,612.97 267.183,621.6897 292.483,627.8997 " fill="none" id="Insecter-to-Insect eats paralyzing spore" style="stroke:#181818;stroke-width:1.0;"/><polygon fill="#181818" points="298.31,629.33,290.523,623.2999,293.4541,628.1381,288.6159,631.0693,298.31,629.33" style="stroke:#181818;stroke-width:1.0;"/></g><!--link Insecter to Insect eats slowing spore--><g id="link_Insecter_Insect eats slowing spore"><path d="M130.2,429.58 C135.06,492.14 153.95,614.46 227.04,680.5 C247.32,698.82 268.5684,707.8256 295.1584,713.4156 " fill="none" id="Insecter-to-Insect eats slowing spore" style="stroke:#181818;stroke-width:1.0;"/><polygon fill="#181818" points="301.03,714.65,293.0455,708.884,296.137,713.6213,291.3996,716.7128,301.03,714.65" style="stroke:#181818;stroke-width:1.0;"/></g><!--link Insecter to Insect eats speeding spore--><g id="link_Insecter_Insect eats speeding spore"><path d="M138.5,351.47 C151.56,308.42 178.68,240.25 227.04,202.5 C248.04,186.11 268.7863,177.5004 294.6463,171.4804 " fill="none" id="Insecter-to-Insect eats speeding spore" style="stroke:#181818;stroke-width:1.0;"/><polygon fill="#181818" points="300.49,170.12,290.8175,168.2647,295.6202,171.2536,292.6313,176.0564,300.49,170.12" style="stroke:#181818;stroke-width:1.0;"/></g><!--link Insecter to Cut with insect--><g id="link_Insecter_Cut with insect"><path d="M150.59,351.45 C167.88,324.48 194.46,290.06 227.04,270.5 C257.14,252.42 289.1868,244.5183 321.5668,240.4483 " fill="none" id="Insecter-to-Cut with insect" style="stroke:#181818;stroke-width:1.0;"/><polygon fill="#181818" points="327.52,239.7,318.0914,236.8537,322.559,240.3236,319.0891,244.7912,327.52,239.7" style="stroke:#181818;stroke-width:1.0;"/></g><!--link Insecter to Cut with insect unsuccsessfully--><g id="link_Insecter_Cut with insect unsuccsessfully"><path d="M152.64,381.55 C172.47,374.33 201.39,364.17 227.04,356.5 C256.56,347.68 283.4969,340.5362 312.2869,333.3862 " fill="none" id="Insecter-to-Cut with insect unsuccsessfully" style="stroke:#181818;stroke-width:1.0;"/><polygon fill="#181818" points="318.11,331.94,308.4112,330.2272,313.2574,333.1451,310.3395,337.9913,318.11,331.94" style="stroke:#181818;stroke-width:1.0;"/></g><!--SRC=[dPB1IiGm48RlUOgvhJdq5VOY8e85GNs0cCwsWJGfcScM5H_UT1L9MrAhfp3pVtyo4_uwKXUyxp50PV74rSSHNWc3U724cbTjCLN07e9fEuR6X4GPxyIaGbKTuUREDGGSWvDPyvbLO89MzIY5gBDN9_N9AfTKOkpbbWZUWTSw3WORuFIoTx_oqscHw8S_B0sFU4PB48V202-f6WcqLICCAYXxUJUk1Hfym2Az6oJhnntKWDXas7gBhIdXBJ9evGuiYyR_U6QpxpBCriWTgyNlhmRk0gf6RggpL52wtUAtagKa2_Jah_qP2Sor9pSqY8wYrfG2T8hMNbONVLM0Yei9AHl-mYvoiW4kep97RzEVZuQxml8BURt_9m00]--></g></svg>