<?xml version="1.0" encoding="us-ascii" standalone="no"?><svg xmlns="http://www.w3.org/2000/svg" xmlns:xlink="http://www.w3.org/1999/xlink" contentStyleType="text/css" height="1787px" preserveAspectRatio="none" style="width:577px;height:1787px;background:#FFFFFF;" version="1.1" viewBox="0 0 577 1787" width="577px" zoomAndPan="magnify"><defs/><g><!--entity Mushroomer--><g id="elem_Mushroomer"><ellipse cx="131.45" cy="1175" fill="#F1F1F1" rx="8" ry="8" style="stroke:#181818;stroke-width:0.5;"/><path d="M131.45,1183 L131.45,1210 M118.45,1191 L144.45,1191 M131.45,1210 L118.45,1225 M131.45,1210 L144.45,1225 " fill="none" style="stroke:#181818;stroke-width:0.5;"/><text fill="#000000" font-family="sans-serif" font-size="14" lengthAdjust="spacing" textLength="79" x="91.95" y="1241.0332">Mushroomer</text></g><!--entity User--><g id="elem_User"><ellipse cx="131.45" cy="125" fill="#F1F1F1" rx="8" ry="8" style="stroke:#181818;stroke-width:0.5;"/><path d="M131.45,133 L131.45,160 M118.45,141 L144.45,141 M131.45,160 L118.45,175 M131.45,160 L144.45,175 " fill="none" style="stroke:#181818;stroke-width:0.5;"/><text fill="#000000" font-family="sans-serif" font-size="14" lengthAdjust="spacing" textLength="29" x="116.95" y="191.0332">User</text></g><!--entity Insecter--><g id="elem_Insecter"><ellipse cx="131.45" cy="353" fill="#F1F1F1" rx="8" ry="8" style="stroke:#181818;stroke-width:0.5;"/><path d="M131.45,361 L131.45,388 M118.45,369 L144.45,369 M131.45,388 L118.45,403 M131.45,388 L144.45,403 " fill="none" style="stroke:#181818;stroke-width:0.5;"/><text fill="#000000" font-family="sans-serif" font-size="14" lengthAdjust="spacing" textLength="50" x="106.45" y="419.0332">Insecter</text></g><g id="elem_Ends turn"><ellipse cx="401.4468" cy="21.5429" fill="#F1F1F1" rx="54.9968" ry="15.5429" style="stroke:#181818;stroke-width:0.5;"/><text fill="#000000" font-family="sans-serif" font-size="14" lengthAdjust="spacing" textLength="61" x="367.9468" y="26.0595">Ends turn</text></g><g id="elem_Starts game"><ellipse cx="401.53" cy="87.6227" fill="#F1F1F1" rx="66.08" ry="15.6227" style="stroke:#181818;stroke-width:0.5;"/><text fill="#000000" font-family="sans-serif" font-size="14" lengthAdjust="spacing" textLength="76" x="360.53" y="92.1393">Starts game</text></g><g id="elem_Plants stem"><ellipse cx="401.3131" cy="917.609" fill="#F1F1F1" rx="63.8631" ry="15.609" style="stroke:#181818;stroke-width:0.5;"/><text fill="#000000" font-family="sans-serif" font-size="14" lengthAdjust="spacing" textLength="73" x="361.8131" y="922.1256">Plants stem</text></g><g id="elem_Plants stem on stemless tecton"><ellipse cx="401.4236" cy="993.4947" fill="#F1F1F1" rx="115.4736" ry="25.4947" style="stroke:#181818;stroke-width:0.5;"/><text fill="#000000" font-family="sans-serif" font-size="14" lengthAdjust="spacing" textLength="195" x="303.9236" y="997.2232">Plants stem on stemless tecton</text></g><g id="elem_Plants stem on occupied tecton"><ellipse cx="401.3445" cy="1079.6789" fill="#F1F1F1" rx="116.3945" ry="25.6789" style="stroke:#181818;stroke-width:0.5;"/><text fill="#000000" font-family="sans-serif" font-size="14" lengthAdjust="spacing" textLength="197" x="302.8445" y="1083.4074">Plants stem on occupied tecton</text></g><g id="elem_Throws claw paralyzing spore"><ellipse cx="401.3403" cy="1164.5781" fill="#F1F1F1" rx="110.8903" ry="24.5781" style="stroke:#181818;stroke-width:0.5;"/><text fill="#000000" font-family="sans-serif" font-size="14" lengthAdjust="spacing" textLength="185" x="308.8403" y="1168.3066">Throws claw paralyzing spore</text></g><g id="elem_Throws paralyzing spore"><ellipse cx="401.4025" cy="1246.2905" fill="#F1F1F1" rx="96.9525" ry="21.7905" style="stroke:#181818;stroke-width:0.5;"/><text fill="#000000" font-family="sans-serif" font-size="14" lengthAdjust="spacing" textLength="154" x="324.4025" y="1250.019">Throws paralyzing spore</text></g><g id="elem_Throws slowing spore"><ellipse cx="401.555" cy="1323.721" fill="#F1F1F1" rx="89.105" ry="20.221" style="stroke:#181818;stroke-width:0.5;"/><text fill="#000000" font-family="sans-serif" font-size="14" lengthAdjust="spacing" textLength="136" x="333.555" y="1327.4495">Throws slowing spore</text></g><g id="elem_Throws speeding spore"><ellipse cx="401.263" cy="1400.2626" fill="#F1F1F1" rx="94.313" ry="21.2626" style="stroke:#181818;stroke-width:0.5;"/><text fill="#000000" font-family="sans-serif" font-size="14" lengthAdjust="spacing" textLength="148" x="327.263" y="1403.9911">Throws speeding spore</text></g><g id="elem_Throws claw paralyzing spore but can't"><ellipse cx="401.3363" cy="1487.4773" fill="#F1F1F1" rx="137.8863" ry="29.9773" style="stroke:#181818;stroke-width:0.5;"/><text fill="#000000" font-family="sans-serif" font-size="14" lengthAdjust="spacing" textLength="243" x="279.8363" y="1491.2058">Throws claw paralyzing spore but can't</text></g><g id="elem_Throws paralyzing spore but can't"><ellipse cx="401.2914" cy="1579.5683" fill="#F1F1F1" rx="123.3414" ry="27.0683" style="stroke:#181818;stroke-width:0.5;"/><text fill="#000000" font-family="sans-serif" font-size="14" lengthAdjust="spacing" textLength="212" x="295.2914" y="1583.2968">Throws paralyzing spore but can't</text></g><g id="elem_Throws slowing spore but can't"><ellipse cx="401.4637" cy="1667.4027" fill="#F1F1F1" rx="115.0137" ry="25.4027" style="stroke:#181818;stroke-width:0.5;"/><text fill="#000000" font-family="sans-serif" font-size="14" lengthAdjust="spacing" textLength="194" x="304.4637" y="1671.1313">Throws slowing spore but can't</text></g><g id="elem_Throws speeding spore but can't"><ellipse cx="401.5045" cy="1754.5109" fill="#F1F1F1" rx="120.5545" ry="26.5109" style="stroke:#181818;stroke-width:0.5;"/><text fill="#000000" font-family="sans-serif" font-size="14" lengthAdjust="spacing" textLength="206" x="298.5045" y="1758.2394">Throws speeding spore but can't</text></g><g id="elem_Grows thread"><ellipse cx="401.5619" cy="742.7224" fill="#F1F1F1" rx="69.1119" ry="16.2224" style="stroke:#181818;stroke-width:0.5;"/><text fill="#000000" font-family="sans-serif" font-size="14" lengthAdjust="spacing" textLength="85" x="356.0619" y="747.239">Grows thread</text></g><g id="elem_Grows thread on occupied single threaded tecton"><ellipse cx="401.3427" cy="830.4785" fill="#F1F1F1" rx="170.3927" ry="36.4785" style="stroke:#181818;stroke-width:0.5;"/><text fill="#000000" font-family="sans-serif" font-size="14" lengthAdjust="spacing" textLength="311" x="245.8427" y="834.2071">Grows thread on occupied single threaded tecton</text></g><g id="elem_Moves insect"><ellipse cx="401.5387" cy="255.5177" fill="#F1F1F1" rx="68.0887" ry="16.0177" style="stroke:#181818;stroke-width:0.5;"/><text fill="#000000" font-family="sans-serif" font-size="14" lengthAdjust="spacing" textLength="82" x="357.5387" y="260.0343">Moves insect</text></g><g id="elem_Moves insect but can't becasuse slow"><ellipse cx="401.5329" cy="336.3166" fill="#F1F1F1" rx="134.5829" ry="29.3166" style="stroke:#181818;stroke-width:0.5;"/><text fill="#000000" font-family="sans-serif" font-size="14" lengthAdjust="spacing" textLength="236" x="283.5329" y="340.0451">Moves insect but can't becasuse slow</text></g><g id="elem_Moves insect but can't becasuse stun"><ellipse cx="401.5329" cy="430.3166" fill="#F1F1F1" rx="134.5829" ry="29.3166" style="stroke:#181818;stroke-width:0.5;"/><text fill="#000000" font-family="sans-serif" font-size="14" lengthAdjust="spacing" textLength="236" x="283.5329" y="434.0451">Moves insect but can't becasuse stun</text></g><g id="elem_Eat with insect"><ellipse cx="401.3067" cy="511.5713" fill="#F1F1F1" rx="70.8567" ry="16.5713" style="stroke:#181818;stroke-width:0.5;"/><text fill="#000000" font-family="sans-serif" font-size="14" lengthAdjust="spacing" textLength="90" x="353.3067" y="516.0879">Eat with insect</text></g><g id="elem_Cut with insect"><ellipse cx="401.6613" cy="579.6423" fill="#F1F1F1" rx="71.2113" ry="16.6423" style="stroke:#181818;stroke-width:0.5;"/><text fill="#000000" font-family="sans-serif" font-size="14" lengthAdjust="spacing" textLength="91" x="353.1613" y="584.1589">Cut with insect</text></g><g id="elem_Cut with insect but can't becasuse stun"><ellipse cx="401.2819" cy="661.6664" fill="#F1F1F1" rx="138.8319" ry="30.1664" style="stroke:#181818;stroke-width:0.5;"/><text fill="#000000" font-family="sans-serif" font-size="14" lengthAdjust="spacing" textLength="245" x="278.7819" y="665.3949">Cut with insect but can't becasuse stun</text></g><g id="elem_Cut with insect but can't becasuse claw stun"><ellipse cx="401.5291" cy="171.6158" fill="#F1F1F1" rx="153.5791" ry="33.1158" style="stroke:#181818;stroke-width:0.5;"/><text fill="#000000" font-family="sans-serif" font-size="14" lengthAdjust="spacing" textLength="276" x="263.5291" y="175.3443">Cut with insect but can't becasuse claw stun</text></g><!--reverse link User to Mushroomer--><g id="link_User_Mushroomer"><path d="M109.2024,201.2252 C92.0924,237.5652 72.4,285.46 61.95,344 C6,657.53 90.6,1043.37 121.16,1166.09 " fill="none" id="User-backto-Mushroomer" style="stroke:#181818;stroke-width:1.0;"/><polygon fill="none" points="116.87,184.94,103.774,198.6694,114.6308,203.7811,116.87,184.94" style="stroke:#181818;stroke-width:1.0;"/></g><!--reverse link User to Insecter--><g id="link_User_Insecter"><path d="M131.45,212.59 C131.45,262.5 131.45,294.41 131.45,344.31 " fill="none" id="User-backto-Insecter" style="stroke:#181818;stroke-width:1.0;"/><polygon fill="none" points="131.45,194.59,125.45,212.59,137.45,212.59,131.45,194.59" style="stroke:#181818;stroke-width:1.0;"/></g><!--link User to Ends turn--><g id="link_User_Ends turn"><path d="M146.23,135.25 C163.27,111.88 194.53,74.17 230.95,54.5 C266.7,35.2 306.1179,27.6682 340.9279,24.2982 " fill="none" id="User-to-Ends turn" style="stroke:#181818;stroke-width:1.0;"/><polygon fill="#181818" points="346.9,23.72,337.5564,20.6059,341.9233,24.2018,338.3273,28.5686,346.9,23.72" style="stroke:#181818;stroke-width:1.0;"/></g><!--link User to Starts game--><g id="link_User_Starts game"><path d="M146.27,149.85 C165.14,142.31 200.14,128.92 230.95,120.5 C268.84,110.14 306.4164,102.7648 339.8664,97.0248 " fill="none" id="User-to-Starts game" style="stroke:#181818;stroke-width:1.0;"/><polygon fill="#181818" points="345.78,96.01,336.2331,93.5898,340.852,96.8556,337.5862,101.4745,345.78,96.01" style="stroke:#181818;stroke-width:1.0;"/></g><!--link Mushroomer to Plants stem--><g id="link_Mushroomer_Plants stem"><path d="M135.97,1166.4 C143.25,1109.71 165.28,1005.5 230.95,950.5 C260.37,925.86 296.7607,917.9674 331.7807,915.8774 " fill="none" id="Mushroomer-to-Plants stem" style="stroke:#181818;stroke-width:1.0;"/><polygon fill="#181818" points="337.77,915.52,328.5477,912.0633,332.7789,915.8179,329.0243,920.0491,337.77,915.52" style="stroke:#181818;stroke-width:1.0;"/></g><!--link Mushroomer to Plants stem on stemless tecton--><g id="link_Mushroomer_Plants stem on stemless tecton"><path d="M145.18,1166.19 C159.76,1127.4 187.42,1069.3 230.95,1036.5 C250.71,1021.61 269.2721,1013.3842 293.3021,1006.9842 " fill="none" id="Mushroomer-to-Plants stem on stemless tecton" style="stroke:#181818;stroke-width:1.0;"/><polygon fill="#181818" points="299.1,1005.44,289.3737,1003.891,294.2684,1006.7268,291.4326,1011.6215,299.1,1005.44" style="stroke:#181818;stroke-width:1.0;"/></g><!--link Mushroomer to Plants stem on occupied tecton--><g id="link_Mushroomer_Plants stem on occupied tecton"><path d="M170.67,1166.27 C187.81,1150.64 209.07,1133.74 230.95,1122.5 C254.86,1110.23 276.6659,1102.742 302.5959,1096.322 " fill="none" id="Mushroomer-to-Plants stem on occupied tecton" style="stroke:#181818;stroke-width:1.0;"/><polygon fill="#181818" points="308.42,1094.88,298.7225,1093.1602,303.5665,1096.0817,300.6451,1100.9258,308.42,1094.88" style="stroke:#181818;stroke-width:1.0;"/></g><!--link Mushroomer to Throws claw paralyzing spore--><g id="link_Mushroomer_Throws claw paralyzing spore"><path d="M171.14,1199.58 C207.23,1194.06 256.519,1186.5171 303.729,1179.2971 " fill="none" id="Mushroomer-to-Throws claw paralyzing spore" style="stroke:#181818;stroke-width:1.0;"/><polygon fill="#181818" points="309.66,1178.39,300.1587,1175.7966,304.7175,1179.1459,301.3681,1183.7046,309.66,1178.39" style="stroke:#181818;stroke-width:1.0;"/></g><!--link Mushroomer to Throws paralyzing spore--><g id="link_Mushroomer_Throws paralyzing spore"><path d="M171.14,1211.42 C210.06,1217.37 265.2889,1225.8232 314.6689,1233.3732 " fill="none" id="Mushroomer-to-Throws paralyzing spore" style="stroke:#181818;stroke-width:1.0;"/><polygon fill="#181818" points="320.6,1234.28,312.3079,1228.9657,315.6574,1233.5243,311.0988,1236.8738,320.6,1234.28" style="stroke:#181818;stroke-width:1.0;"/></g><!--link Mushroomer to Throws slowing spore--><g id="link_Mushroomer_Throws slowing spore"><path d="M171.11,1244.53 C188.16,1259.72 209.24,1275.97 230.95,1286.5 C259.14,1300.17 286.5002,1307.7483 316.0602,1313.2183 " fill="none" id="Mushroomer-to-Throws slowing spore" style="stroke:#181818;stroke-width:1.0;"/><polygon fill="#181818" points="321.96,1314.31,313.8381,1308.7392,317.0435,1313.4002,312.3824,1316.6056,321.96,1314.31" style="stroke:#181818;stroke-width:1.0;"/></g><!--link Mushroomer to Throws speeding spore--><g id="link_Mushroomer_Throws speeding spore"><path d="M147,1244.74 C162.36,1280.66 190.07,1332.5 230.95,1361.5 C254.48,1378.18 278.1559,1386.6762 305.9759,1392.2262 " fill="none" id="Mushroomer-to-Throws speeding spore" style="stroke:#181818;stroke-width:1.0;"/><polygon fill="#181818" points="311.86,1393.4,303.8165,1387.7165,306.9566,1392.4218,302.2514,1395.5619,311.86,1393.4" style="stroke:#181818;stroke-width:1.0;"/></g><!--link Mushroomer to Throws claw paralyzing spore but can't--><g id="link_Mushroomer_Throws claw paralyzing spore but can't"><path d="M138.28,1244.72 C148.08,1296.78 172.84,1388.1 230.95,1439.5 C246.88,1453.58 260.9806,1461.5959 281.3306,1468.6459 " fill="none" id="Mushroomer-to-Throws claw paralyzing spore but can't" style="stroke:#181818;stroke-width:1.0;"/><polygon fill="#181818" points="287,1470.61,279.8053,1463.8842,282.2755,1468.9733,277.1865,1471.4435,287,1470.61" style="stroke:#181818;stroke-width:1.0;"/></g><!--link Mushroomer to Throws paralyzing spore but can't--><g id="link_Mushroomer_Throws paralyzing spore but can't"><path d="M132.42,1244.54 C134.58,1313.44 149.3,1456.74 230.95,1535.5 C247.04,1551.01 262.1315,1559.4657 283.6415,1566.1657 " fill="none" id="Mushroomer-to-Throws paralyzing spore but can't" style="stroke:#181818;stroke-width:1.0;"/><polygon fill="#181818" points="289.37,1567.95,281.9668,1561.4545,284.5962,1566.463,279.5876,1569.0925,289.37,1567.95" style="stroke:#181818;stroke-width:1.0;"/></g><!--link Mushroomer to Throws slowing spore but can't--><g id="link_Mushroomer_Throws slowing spore but can't"><path d="M136.5,1244.64 C146.93,1338.06 177.73,1570.33 230.95,1624.5 C247.66,1641.5 264.2789,1650.4786 287.3089,1657.0286 " fill="none" id="Mushroomer-to-Throws slowing spore but can't" style="stroke:#181818;stroke-width:1.0;"/><polygon fill="#181818" points="293.08,1658.67,285.5176,1652.3605,288.2707,1657.3022,283.3291,1660.0554,293.08,1658.67" style="stroke:#181818;stroke-width:1.0;"/></g><!--link Mushroomer to Throws speeding spore but can't--><g id="link_Mushroomer_Throws speeding spore but can't"><path d="M134.81,1244.58 C142,1351.04 167.23,1642.75 230.95,1710.5 C246.57,1727.11 261.8574,1735.9887 283.7674,1742.7587 " fill="none" id="Mushroomer-to-Throws speeding spore but can't" style="stroke:#181818;stroke-width:1.0;"/><polygon fill="#181818" points="289.5,1744.53,282.082,1738.0513,284.7229,1743.0539,279.7203,1745.6947,289.5,1744.53" style="stroke:#181818;stroke-width:1.0;"/></g><!--link Mushroomer to Grows thread--><g id="link_Mushroomer_Grows thread"><path d="M136.08,1166.32 C145.71,1071 175.08,830.85 230.95,776.5 C257.74,750.45 292.5711,742.0541 327.4411,739.9341 " fill="none" id="Mushroomer-to-Grows thread" style="stroke:#181818;stroke-width:1.0;"/><polygon fill="#181818" points="333.43,739.57,324.2038,736.1235,328.4392,739.8734,324.6893,744.1088,333.43,739.57" style="stroke:#181818;stroke-width:1.0;"/></g><!--link Mushroomer to Grows thread on occupied single threaded tecton--><g id="link_Mushroomer_Grows thread on occupied single threaded tecton"><path d="M133.28,1166.34 C136.84,1099.37 153.77,962.51 230.95,884.5 C243.34,871.99 253.1477,864.8526 269.4077,857.4626 " fill="none" id="Mushroomer-to-Grows thread on occupied single threaded tecton" style="stroke:#181818;stroke-width:1.0;"/><polygon fill="#181818" points="274.87,854.98,265.0215,855.0623,270.3181,857.0488,268.3316,862.3454,274.87,854.98" style="stroke:#181818;stroke-width:1.0;"/></g><!--link Insecter to Moves insect--><g id="link_Insecter_Moves insect"><path d="M156.72,352.5 C174.89,331.46 201.6,304.78 230.95,289.5 C263.17,272.73 296.8412,265.0025 329.6812,260.6825 " fill="none" id="Insecter-to-Moves insect" style="stroke:#181818;stroke-width:1.0;"/><polygon fill="#181818" points="335.63,259.9,326.1852,257.108,330.6727,260.5521,327.2286,265.0396,335.63,259.9" style="stroke:#181818;stroke-width:1.0;"/></g><!--link Insecter to Moves insect but can't becasuse slow--><g id="link_Insecter_Moves insect but can't becasuse slow"><path d="M156.71,379.25 C188.15,373.73 239.0703,364.8072 289.9503,355.8772 " fill="none" id="Insecter-to-Moves insect but can't becasuse slow" style="stroke:#181818;stroke-width:1.0;"/><polygon fill="#181818" points="295.86,354.84,286.304,352.456,290.9353,355.7043,287.687,360.3356,295.86,354.84" style="stroke:#181818;stroke-width:1.0;"/></g><!--link Insecter to Moves insect but can't becasuse stun--><g id="link_Insecter_Moves insect but can't becasuse stun"><path d="M156.71,387.75 C188.15,393.27 239.0703,402.1928 289.9503,411.1228 " fill="none" id="Insecter-to-Moves insect but can't becasuse stun" style="stroke:#181818;stroke-width:1.0;"/><polygon fill="#181818" points="295.86,412.16,287.687,406.6644,290.9353,411.2957,286.304,414.544,295.86,412.16" style="stroke:#181818;stroke-width:1.0;"/></g><!--link Insecter to Eat with insect--><g id="link_Insecter_Eat with insect"><path d="M156.72,414.5 C174.89,435.54 201.6,462.22 230.95,477.5 C262.37,493.85 294.885,501.5496 327.235,505.9596 " fill="none" id="Insecter-to-Eat with insect" style="stroke:#181818;stroke-width:1.0;"/><polygon fill="#181818" points="333.18,506.77,324.8028,501.591,328.2258,506.0946,323.7222,509.5177,333.18,506.77" style="stroke:#181818;stroke-width:1.0;"/></g><!--link Insecter to Cut with insect--><g id="link_Insecter_Cut with insect"><path d="M145.7,422.71 C160.48,460.25 188.09,515.47 230.95,545.5 C259.83,565.74 291.9463,573.9008 324.6963,577.5208 " fill="none" id="Insecter-to-Cut with insect" style="stroke:#181818;stroke-width:1.0;"/><polygon fill="#181818" points="330.66,578.18,322.1539,573.2154,325.6903,577.6307,321.275,581.167,330.66,578.18" style="stroke:#181818;stroke-width:1.0;"/></g><!--link Insecter to Cut with insect but can't becasuse stun--><g id="link_Insecter_Cut with insect but can't becasuse stun"><path d="M138.65,422.93 C148.79,474.26 173.86,563.31 230.95,613.5 C246.8,627.43 260.7539,635.3663 280.9639,642.4063 " fill="none" id="Insecter-to-Cut with insect but can't becasuse stun" style="stroke:#181818;stroke-width:1.0;"/><polygon fill="#181818" points="286.63,644.38,279.4467,637.642,281.9083,642.7352,276.8151,645.1968,286.63,644.38" style="stroke:#181818;stroke-width:1.0;"/></g><!--link Insecter to Cut with insect but can't becasuse claw stun--><g id="link_Insecter_Cut with insect but can't becasuse claw stun"><path d="M146.58,344.4 C161.87,307.49 189.73,253.21 230.95,221.5 C246.76,209.34 259.8332,202.1859 278.9432,195.2159 " fill="none" id="Insecter-to-Cut with insect but can't becasuse claw stun" style="stroke:#181818;stroke-width:1.0;"/><polygon fill="#181818" points="284.58,193.16,274.7542,192.486,279.8827,194.8733,277.4954,200.0017,284.58,193.16" style="stroke:#181818;stroke-width:1.0;"/></g><!--SRC=[bP91QiCm44NtFiNi4YzyXMnAA8KQ2aqFe4XJMo1BHZEAQSdXAxkbbHFioYiny__JVA6f0xNUkGuzL0RVkReUu8tG5q-MKF9TknWhO0TUDos3qZwwjBF5g49L7M1_j8g0WxTbqdnbuPcW4HsMHL4dKqVrnGWRLMBioZKHd9rEWnH7nCdE_kjtKePUe_hrxsw1PxoW8GZzGe1Jh0O2QSG0lV32V7ngsm3rpkEYEzj8nWqPhXvH9RPD8U4S6AImEywEcu7CWkVuPqz8WJlYSGAuzIXKkQhEVfZYxGP_bEJ7asKU-TfTa41FlN95-ui8PvI20k7qwCqC1tlB70N3eBbTYF4GjiYvGpEmQN- -sIy0]--></g></svg>