<?xml version="1.0" encoding="us-ascii" standalone="no"?><svg xmlns="http://www.w3.org/2000/svg" xmlns:xlink="http://www.w3.org/1999/xlink" contentStyleType="text/css" height="356px" preserveAspectRatio="none" style="width:510px;height:356px;background:#FFFFFF;" version="1.1" viewBox="0 0 510 356" width="510px" zoomAndPan="magnify"><defs/><g><text fill="#000000" font-family="sans-serif" font-size="14" font-weight="bold" lengthAdjust="spacing" textLength="156" x="176" y="29.5332">Player starts the game</text><rect fill="#FFFFFF" height="102.7031" style="stroke:#181818;stroke-width:1.0;" width="10" x="112.5" y="153.5703"/><rect fill="#FFFFFF" height="58.3516" style="stroke:#181818;stroke-width:1.0;" width="10" x="293" y="183.9219"/><rect fill="#FFFFFF" height="14" style="stroke:#181818;stroke-width:1.0;" width="10" x="461" y="214.2734"/><line style="stroke:#181818;stroke-width:0.5;stroke-dasharray:5.0,5.0;" x1="28" x2="28" y1="121.2188" y2="274.2734"/><line style="stroke:#181818;stroke-width:0.5;stroke-dasharray:5.0,5.0;" x1="117" x2="117" y1="121.2188" y2="274.2734"/><line style="stroke:#181818;stroke-width:0.5;stroke-dasharray:5.0,5.0;" x1="298" x2="298" y1="121.2188" y2="274.2734"/><line style="stroke:#181818;stroke-width:0.5;stroke-dasharray:5.0,5.0;" x1="466" x2="466" y1="121.2188" y2="274.2734"/><text fill="#000000" font-family="sans-serif" font-size="14" lengthAdjust="spacing" textLength="40" x="5" y="118.1426">Player</text><ellipse cx="28" cy="52.1094" fill="#E2E2F0" rx="8" ry="8" style="stroke:#181818;stroke-width:0.5;"/><path d="M28,60.1094 L28,87.1094 M15,68.1094 L41,68.1094 M28,87.1094 L15,102.1094 M28,87.1094 L41,102.1094 " fill="none" style="stroke:#181818;stroke-width:0.5;"/><text fill="#000000" font-family="sans-serif" font-size="14" lengthAdjust="spacing" textLength="40" x="5" y="287.8066">Player</text><ellipse cx="28" cy="299.3828" fill="#E2E2F0" rx="8" ry="8" style="stroke:#181818;stroke-width:0.5;"/><path d="M28,307.3828 L28,334.3828 M15,315.3828 L41,315.3828 M28,334.3828 L15,349.3828 M28,334.3828 L41,349.3828 " fill="none" style="stroke:#181818;stroke-width:0.5;"/><rect fill="#E2E2F0" height="31.6094" rx="2.5" ry="2.5" style="stroke:#181818;stroke-width:0.5;" width="113" x="61" y="88.6094"/><text fill="#000000" font-family="sans-serif" font-size="14" lengthAdjust="spacing" textLength="99" x="68" y="110.1426">mm : MainMenu</text><rect fill="#E2E2F0" height="31.6094" rx="2.5" ry="2.5" style="stroke:#181818;stroke-width:0.5;" width="113" x="61" y="273.2734"/><text fill="#000000" font-family="sans-serif" font-size="14" lengthAdjust="spacing" textLength="99" x="68" y="294.8066">mm : MainMenu</text><rect fill="#E2E2F0" height="31.6094" rx="2.5" ry="2.5" style="stroke:#181818;stroke-width:0.5;" width="84" x="256" y="88.6094"/><text fill="#000000" font-family="sans-serif" font-size="14" lengthAdjust="spacing" textLength="70" x="263" y="110.1426">w : Window</text><rect fill="#E2E2F0" height="31.6094" rx="2.5" ry="2.5" style="stroke:#181818;stroke-width:0.5;" width="84" x="256" y="273.2734"/><text fill="#000000" font-family="sans-serif" font-size="14" lengthAdjust="spacing" textLength="70" x="263" y="294.8066">w : Window</text><rect fill="#E2E2F0" height="31.6094" rx="2.5" ry="2.5" style="stroke:#181818;stroke-width:0.5;" width="76" x="428" y="88.6094"/><text fill="#000000" font-family="sans-serif" font-size="14" lengthAdjust="spacing" textLength="62" x="435" y="110.1426">p : Parser</text><rect fill="#E2E2F0" height="31.6094" rx="2.5" ry="2.5" style="stroke:#181818;stroke-width:0.5;" width="76" x="428" y="273.2734"/><text fill="#000000" font-family="sans-serif" font-size="14" lengthAdjust="spacing" textLength="62" x="435" y="294.8066">p : Parser</text><rect fill="#FFFFFF" height="102.7031" style="stroke:#181818;stroke-width:1.0;" width="10" x="112.5" y="153.5703"/><rect fill="#FFFFFF" height="58.3516" style="stroke:#181818;stroke-width:1.0;" width="10" x="293" y="183.9219"/><rect fill="#FFFFFF" height="14" style="stroke:#181818;stroke-width:1.0;" width="10" x="461" y="214.2734"/><polygon fill="#181818" points="286,149.5703,296,153.5703,286,157.5703,290,153.5703" style="stroke:#181818;stroke-width:1.0;"/><line style="stroke:#181818;stroke-width:1.0;" x1="28" x2="292" y1="153.5703" y2="153.5703"/><text fill="#000000" font-family="sans-serif" font-size="13" lengthAdjust="spacing" textLength="246" x="35" y="148.7139">Clicks on GameStart Button (StartGame())</text><polygon fill="#181818" points="281,179.9219,291,183.9219,281,187.9219,285,183.9219" style="stroke:#181818;stroke-width:1.0;"/><line style="stroke:#181818;stroke-width:1.0;" x1="122.5" x2="287" y1="183.9219" y2="183.9219"/><text fill="#000000" font-family="sans-serif" font-size="13" lengthAdjust="spacing" textLength="71" x="129.5" y="179.0654">StartGame()</text><polygon fill="#181818" points="449,210.2734,459,214.2734,449,218.2734,453,214.2734" style="stroke:#181818;stroke-width:1.0;"/><line style="stroke:#181818;stroke-width:1.0;" x1="303" x2="455" y1="214.2734" y2="214.2734"/><text fill="#000000" font-family="sans-serif" font-size="13" lengthAdjust="spacing" textLength="139" x="310" y="209.417">parseCommand("/start")</text><polygon fill="#181818" points="314,224.2734,304,228.2734,314,232.2734,310,228.2734" style="stroke:#181818;stroke-width:1.0;"/><line style="stroke:#181818;stroke-width:1.0;" x1="308" x2="465" y1="228.2734" y2="228.2734"/><polygon fill="#181818" points="133.5,238.2734,123.5,242.2734,133.5,246.2734,129.5,242.2734" style="stroke:#181818;stroke-width:1.0;"/><line style="stroke:#181818;stroke-width:1.0;" x1="127.5" x2="297" y1="242.2734" y2="242.2734"/><polygon fill="#181818" points="39,252.2734,29,256.2734,39,260.2734,35,256.2734" style="stroke:#181818;stroke-width:1.0;"/><line style="stroke:#181818;stroke-width:1.0;" x1="33" x2="116.5" y1="256.2734" y2="256.2734"/><!--SRC=[LP2z3i8m38JtF8NLXJ8WzWuCT62A58aXizL6496VAd51l3rkY4GOVT_PTp9PSWQKmxT9a0aJPQ2xWHjw8mHE55EbOc5e9xjW8EYyXm4asY1DM3l035B-Erviq3RCyLMm_gSBKuKfcrIe4cB7OVQ9P62CWL9qZZDhiSC9z02ZizCZGmnmuNRNhIoSLo8M-Z9jSh_VbzxVKrnAohhUM7u6BVI6rG3BrcQCtcEO- -vOVj4rJYLKEIHcqsXbcrCQKTV8-hQ6iEy3]--></g></svg>