<?xml version="1.0" encoding="us-ascii" standalone="no"?><svg xmlns="http://www.w3.org/2000/svg" xmlns:xlink="http://www.w3.org/1999/xlink" contentStyleType="text/css" height="240px" preserveAspectRatio="none" style="width:277px;height:240px;background:#FFFFFF;" version="1.1" viewBox="0 0 277 240" width="277px" zoomAndPan="magnify"><defs/><g><!--class Colony--><g id="elem_Colony"><rect codeLine="3" fill="#F1F1F1" height="118.4375" id="Colony" rx="2.5" ry="2.5" style="stroke:#181818;stroke-width:0.5;" width="263" x="7" y="7"/><ellipse cx="112.25" cy="23" fill="#ADD1B2" rx="11" ry="11" style="stroke:#181818;stroke-width:1.0;"/><path d="M115.0156,18.875 Q115.1719,18.6563 115.3594,18.5469 Q115.5469,18.4375 115.7656,18.4375 Q116.1406,18.4375 116.375,18.7031 Q116.6094,18.9531 116.6094,19.5625 L116.6094,21.0156 Q116.6094,21.625 116.375,21.8906 Q116.1406,22.1563 115.7656,22.1563 Q115.4219,22.1563 115.2188,21.9531 Q115.0156,21.7656 114.9063,21.25 Q114.8594,20.8906 114.6719,20.7031 Q114.3438,20.3281 113.7344,20.1094 Q113.125,19.8906 112.5,19.8906 Q111.7344,19.8906 111.0938,20.2188 Q110.4688,20.5469 109.9688,21.2969 Q109.4844,22.0469 109.4844,23.0781 L109.4844,24.1719 Q109.4844,25.4063 110.375,26.2344 Q111.2656,27.0469 112.8594,27.0469 Q113.7969,27.0469 114.4531,26.7969 Q114.8438,26.6406 115.2656,26.2031 Q115.5313,25.9375 115.6719,25.8594 Q115.8281,25.7813 116.0313,25.7813 Q116.3594,25.7813 116.6094,26.0469 Q116.875,26.2969 116.875,26.6406 Q116.875,26.9844 116.5313,27.3906 Q116.0313,27.9688 115.2344,28.2969 Q114.1563,28.75 112.8594,28.75 Q111.3438,28.75 110.1406,28.125 Q109.1563,27.625 108.4688,26.5625 Q107.7813,25.4844 107.7813,24.2031 L107.7813,23.0469 Q107.7813,21.7188 108.3906,20.5781 Q109.0156,19.4219 110.1094,18.8125 Q111.2031,18.1875 112.4375,18.1875 Q113.1719,18.1875 113.8125,18.3594 Q114.4688,18.5156 115.0156,18.875 Z " fill="#000000"/><text fill="#000000" font-family="sans-serif" font-size="14" lengthAdjust="spacing" textLength="44" x="132.75" y="28.7285">Colony</text><line style="stroke:#181818;stroke-width:0.5;" x1="8" x2="269" y1="39" y2="39"/><text fill="#000000" font-family="sans-serif" font-size="14" lengthAdjust="spacing" textLength="223" x="13" y="57.5332">mushroomStems : MushroomStem[]</text><text fill="#000000" font-family="sans-serif" font-size="14" lengthAdjust="spacing" textLength="251" x="13" y="75.1426">mushroomThreads : mushroomThread[]</text><text fill="#000000" font-family="sans-serif" font-size="14" lengthAdjust="spacing" textLength="159" x="13" y="92.752">mushroomStemCount: int</text><line style="stroke:#181818;stroke-width:0.5;" x1="8" x2="269" y1="99.8281" y2="99.8281"/><text fill="#000000" font-family="sans-serif" font-size="14" lengthAdjust="spacing" textLength="189" x="13" y="118.3613">getMushroomStemCount(): int</text></g><!--class Entity--><g id="elem_Entity"><rect fill="#F1F1F1" height="48" id="Entity" rx="2.5" ry="2.5" style="stroke:#181818;stroke-width:0.5;" width="67" x="105" y="185"/><ellipse cx="120" cy="201" fill="#ADD1B2" rx="11" ry="11" style="stroke:#181818;stroke-width:1.0;"/><path d="M122.7656,196.875 Q122.9219,196.6563 123.1094,196.5469 Q123.2969,196.4375 123.5156,196.4375 Q123.8906,196.4375 124.125,196.7031 Q124.3594,196.9531 124.3594,197.5625 L124.3594,199.0156 Q124.3594,199.625 124.125,199.8906 Q123.8906,200.1563 123.5156,200.1563 Q123.1719,200.1563 122.9688,199.9531 Q122.7656,199.7656 122.6563,199.25 Q122.6094,198.8906 122.4219,198.7031 Q122.0938,198.3281 121.4844,198.1094 Q120.875,197.8906 120.25,197.8906 Q119.4844,197.8906 118.8438,198.2188 Q118.2188,198.5469 117.7188,199.2969 Q117.2344,200.0469 117.2344,201.0781 L117.2344,202.1719 Q117.2344,203.4063 118.125,204.2344 Q119.0156,205.0469 120.6094,205.0469 Q121.5469,205.0469 122.2031,204.7969 Q122.5938,204.6406 123.0156,204.2031 Q123.2813,203.9375 123.4219,203.8594 Q123.5781,203.7813 123.7813,203.7813 Q124.1094,203.7813 124.3594,204.0469 Q124.625,204.2969 124.625,204.6406 Q124.625,204.9844 124.2813,205.3906 Q123.7813,205.9688 122.9844,206.2969 Q121.9063,206.75 120.6094,206.75 Q119.0938,206.75 117.8906,206.125 Q116.9063,205.625 116.2188,204.5625 Q115.5313,203.4844 115.5313,202.2031 L115.5313,201.0469 Q115.5313,199.7188 116.1406,198.5781 Q116.7656,197.4219 117.8594,196.8125 Q118.9531,196.1875 120.1875,196.1875 Q120.9219,196.1875 121.5625,196.3594 Q122.2188,196.5156 122.7656,196.875 Z " fill="#000000"/><text fill="#000000" font-family="sans-serif" font-size="14" lengthAdjust="spacing" textLength="35" x="134" y="206.7285">Entity</text><line style="stroke:#181818;stroke-width:0.5;" x1="106" x2="171" y1="217" y2="217"/><line style="stroke:#181818;stroke-width:0.5;" x1="106" x2="171" y1="225" y2="225"/></g><!--reverse link Colony to Entity--><g id="link_Colony_Entity"><path codeLine="2" d="M138.5,143.16 C138.5,164.1 138.5,168.54 138.5,184.77 " fill="none" id="Colony-backto-Entity" style="stroke:#181818;stroke-width:1.0;"/><polygon fill="none" points="138.5,125.16,132.5,143.16,144.5,143.16,138.5,125.16" style="stroke:#181818;stroke-width:1.0;"/></g><!--SRC=[SyxFoS-hLB2fqTLLSCqhoIofv4hEIImkLd06IrHpAG11RcbnHb5-VcvmIMfkiOALWYyIFpeMHKb8Hb5gOWf84Qe8cZAGJkVyqhmIAuNCl1AmL7fgYI-wh8OcHBuM0000]--></g></svg>