<?xml version="1.0" encoding="us-ascii" standalone="no"?><svg xmlns="http://www.w3.org/2000/svg" xmlns:xlink="http://www.w3.org/1999/xlink" contentStyleType="text/css" height="450px" preserveAspectRatio="none" style="width:622px;height:450px;background:#FFFFFF;" version="1.1" viewBox="0 0 622 450" width="622px" zoomAndPan="magnify"><defs/><g><text fill="#000000" font-family="sans-serif" font-size="14" font-weight="bold" lengthAdjust="spacing" textLength="218" x="201" y="29.5332">Insecter moves stunned Insect</text><rect fill="#FFFFFF" height="197.1094" style="stroke:#181818;stroke-width:1.0;" width="10" x="170" y="153.5703"/><rect fill="#FFFFFF" height="166.7578" style="stroke:#181818;stroke-width:1.0;" width="10" x="255" y="183.9219"/><rect fill="none" height="79.0547" style="stroke:#000000;stroke-width:1.5;" width="225" x="217" y="242.2734"/><line style="stroke:#181818;stroke-width:0.5;stroke-dasharray:5.0,5.0;" x1="39" x2="39" y1="121.2188" y2="368.6797"/><line style="stroke:#181818;stroke-width:0.5;stroke-dasharray:5.0,5.0;" x1="175" x2="175" y1="121.2188" y2="368.6797"/><line style="stroke:#181818;stroke-width:0.5;stroke-dasharray:5.0,5.0;" x1="260" x2="260" y1="121.2188" y2="368.6797"/><line style="stroke:#181818;stroke-width:0.5;stroke-dasharray:5.0,5.0;" x1="397" x2="397" y1="121.2188" y2="368.6797"/><line style="stroke:#181818;stroke-width:0.5;stroke-dasharray:5.0,5.0;" x1="483" x2="483" y1="121.2188" y2="368.6797"/><line style="stroke:#181818;stroke-width:0.5;stroke-dasharray:5.0,5.0;" x1="575" x2="575" y1="121.2188" y2="368.6797"/><text fill="#000000" font-family="sans-serif" font-size="14" lengthAdjust="spacing" textLength="62" x="5" y="118.1426">Controller</text><ellipse cx="39" cy="52.1094" fill="#E2E2F0" rx="8" ry="8" style="stroke:#181818;stroke-width:0.5;"/><path d="M39,60.1094 L39,87.1094 M26,68.1094 L52,68.1094 M39,87.1094 L26,102.1094 M39,87.1094 L52,102.1094 " fill="none" style="stroke:#181818;stroke-width:0.5;"/><text fill="#000000" font-family="sans-serif" font-size="14" lengthAdjust="spacing" textLength="62" x="5" y="382.2129">Controller</text><ellipse cx="39" cy="393.7891" fill="#E2E2F0" rx="8" ry="8" style="stroke:#181818;stroke-width:0.5;"/><path d="M39,401.7891 L39,428.7891 M26,409.7891 L52,409.7891 M39,428.7891 L26,443.7891 M39,428.7891 L52,443.7891 " fill="none" style="stroke:#181818;stroke-width:0.5;"/><rect fill="#E2E2F0" height="31.6094" rx="2.5" ry="2.5" style="stroke:#181818;stroke-width:0.5;" width="84" x="133" y="88.6094"/><text fill="#000000" font-family="sans-serif" font-size="14" lengthAdjust="spacing" textLength="70" x="140" y="110.1426">ir : Insecter</text><rect fill="#E2E2F0" height="31.6094" rx="2.5" ry="2.5" style="stroke:#181818;stroke-width:0.5;" width="84" x="133" y="367.6797"/><text fill="#000000" font-family="sans-serif" font-size="14" lengthAdjust="spacing" textLength="70" x="140" y="389.2129">ir : Insecter</text><rect fill="#E2E2F0" height="31.6094" rx="2.5" ry="2.5" style="stroke:#181818;stroke-width:0.5;" width="66" x="227" y="88.6094"/><text fill="#000000" font-family="sans-serif" font-size="14" lengthAdjust="spacing" textLength="52" x="234" y="110.1426">i : Insect</text><rect fill="#E2E2F0" height="31.6094" rx="2.5" ry="2.5" style="stroke:#181818;stroke-width:0.5;" width="66" x="227" y="367.6797"/><text fill="#000000" font-family="sans-serif" font-size="14" lengthAdjust="spacing" textLength="52" x="234" y="389.2129">i : Insect</text><rect fill="#E2E2F0" height="31.6094" rx="2.5" ry="2.5" style="stroke:#181818;stroke-width:0.5;" width="70" x="362" y="88.6094"/><text fill="#000000" font-family="sans-serif" font-size="14" lengthAdjust="spacing" textLength="56" x="369" y="110.1426">e : Effect</text><rect fill="#E2E2F0" height="31.6094" rx="2.5" ry="2.5" style="stroke:#181818;stroke-width:0.5;" width="70" x="362" y="367.6797"/><text fill="#000000" font-family="sans-serif" font-size="14" lengthAdjust="spacing" textLength="56" x="369" y="389.2129">e : Effect</text><rect fill="#E2E2F0" height="31.6094" rx="2.5" ry="2.5" style="stroke:#181818;stroke-width:0.5;" width="82" x="442" y="88.6094"/><text fill="#000000" font-family="sans-serif" font-size="14" lengthAdjust="spacing" textLength="68" x="449" y="110.1426">t1 : Tecton</text><rect fill="#E2E2F0" height="31.6094" rx="2.5" ry="2.5" style="stroke:#181818;stroke-width:0.5;" width="82" x="442" y="367.6797"/><text fill="#000000" font-family="sans-serif" font-size="14" lengthAdjust="spacing" textLength="68" x="449" y="389.2129">t1 : Tecton</text><rect fill="#E2E2F0" height="31.6094" rx="2.5" ry="2.5" style="stroke:#181818;stroke-width:0.5;" width="82" x="534" y="88.6094"/><text fill="#000000" font-family="sans-serif" font-size="14" lengthAdjust="spacing" textLength="68" x="541" y="110.1426">t2 : Tecton</text><rect fill="#E2E2F0" height="31.6094" rx="2.5" ry="2.5" style="stroke:#181818;stroke-width:0.5;" width="82" x="534" y="367.6797"/><text fill="#000000" font-family="sans-serif" font-size="14" lengthAdjust="spacing" textLength="68" x="541" y="389.2129">t2 : Tecton</text><rect fill="#FFFFFF" height="197.1094" style="stroke:#181818;stroke-width:1.0;" width="10" x="170" y="153.5703"/><rect fill="#FFFFFF" height="166.7578" style="stroke:#181818;stroke-width:1.0;" width="10" x="255" y="183.9219"/><polygon fill="#181818" points="158,149.5703,168,153.5703,158,157.5703,162,153.5703" style="stroke:#181818;stroke-width:1.0;"/><line style="stroke:#181818;stroke-width:1.0;" x1="39" x2="164" y1="153.5703" y2="153.5703"/><text fill="#000000" font-family="sans-serif" font-size="13" lengthAdjust="spacing" textLength="112" x="46" y="148.7139">moveInsect(Tecton)</text><polygon fill="#181818" points="243,179.9219,253,183.9219,243,187.9219,247,183.9219" style="stroke:#181818;stroke-width:1.0;"/><line style="stroke:#181818;stroke-width:1.0;" x1="180" x2="249" y1="183.9219" y2="183.9219"/><text fill="#000000" font-family="sans-serif" font-size="13" lengthAdjust="spacing" textLength="52" x="187" y="179.0654">move(T2)</text><line style="stroke:#181818;stroke-width:1.0;" x1="265" x2="307" y1="214.2734" y2="214.2734"/><line style="stroke:#181818;stroke-width:1.0;" x1="307" x2="307" y1="214.2734" y2="227.2734"/><line style="stroke:#181818;stroke-width:1.0;" x1="266" x2="307" y1="227.2734" y2="227.2734"/><polygon fill="#181818" points="276,223.2734,266,227.2734,276,231.2734,272,227.2734" style="stroke:#181818;stroke-width:1.0;"/><text fill="#000000" font-family="sans-serif" font-size="13" lengthAdjust="spacing" textLength="63" x="272" y="209.417">getSpeed()</text><path d="M217,242.2734 L290,242.2734 L290,250.625 L280,260.625 L217,260.625 L217,242.2734 " fill="#EEEEEE" style="stroke:#000000;stroke-width:1.5;"/><rect fill="none" height="79.0547" style="stroke:#000000;stroke-width:1.5;" width="225" x="217" y="242.2734"/><text fill="#000000" font-family="sans-serif" font-size="13" font-weight="bold" lengthAdjust="spacing" textLength="28" x="232" y="256.7686">loop</text><text fill="#000000" font-family="sans-serif" font-size="11" font-weight="bold" lengthAdjust="spacing" textLength="94" x="305" y="255.6924">[for(e in effects)]</text><polygon fill="#181818" points="385,278.9766,395,282.9766,385,286.9766,389,282.9766" style="stroke:#181818;stroke-width:1.0;"/><line style="stroke:#181818;stroke-width:1.0;" x1="265" x2="391" y1="282.9766" y2="282.9766"/><text fill="#000000" font-family="sans-serif" font-size="13" lengthAdjust="spacing" textLength="108" x="272" y="278.1201">getSpeedModifier()</text><polygon fill="#181818" points="276,309.3281,266,313.3281,276,317.3281,272,313.3281" style="stroke:#181818;stroke-width:1.0;"/><line style="stroke:#181818;stroke-width:1.0;stroke-dasharray:2.0,2.0;" x1="270" x2="396" y1="313.3281" y2="313.3281"/><text fill="#000000" font-family="sans-serif" font-size="13" lengthAdjust="spacing" textLength="80" x="282" y="308.4717">speedModifier</text><polygon fill="#181818" points="186,346.6797,176,350.6797,186,354.6797,182,350.6797" style="stroke:#181818;stroke-width:1.0;"/><line style="stroke:#181818;stroke-width:1.0;stroke-dasharray:2.0,2.0;" x1="180" x2="259" y1="350.6797" y2="350.6797"/><text fill="#000000" font-family="sans-serif" font-size="13" lengthAdjust="spacing" textLength="27" x="192" y="345.8232">false</text><!--SRC=[NO-nZiCW341tVuNLfMJ8q8pLwPOgGuOkRNu01ND2eZW2jzzVGjeU3Hky9_CiJZpX419DGX5l_A24IUuXa7az0-X9EEA9WqJsdYBCEegRtAo3uCv5F7ucx50d72uRuoEi-9jIfhsrRzf_KpbaF6R8eU3niE7TXdS0_wNO_kQQOzbhBL2hsonBkOSMMcg7In5NJurTJG660lCtVoJNcSYe1i0ppsWvAa8Na4f_QW3pANvV-MSspZgAwir_shO8gQP0mIn_lPAjzea03DKf-sgrPKXkhuNDxGa0]--></g></svg>