<?xml version="1.0" encoding="us-ascii" standalone="no"?><svg xmlns="http://www.w3.org/2000/svg" xmlns:xlink="http://www.w3.org/1999/xlink" contentStyleType="text/css" height="1511px" preserveAspectRatio="none" style="width:712px;height:1511px;background:#FFFFFF;" version="1.1" viewBox="0 0 712 1511" width="712px" zoomAndPan="magnify"><defs/><g><text fill="#000000" font-family="sans-serif" font-size="14" font-weight="bold" lengthAdjust="spacing" textLength="120" x="297.5" y="29.5332">New round starts</text><rect fill="#FFFFFF" height="1289.4688" style="stroke:#181818;stroke-width:1.0;" width="10" x="34" y="131.2188"/><rect fill="#FFFFFF" height="1266.1172" style="stroke:#181818;stroke-width:1.0;" width="10" x="122" y="153.5703"/><rect fill="#FFFFFF" height="1195.4141" style="stroke:#181818;stroke-width:1.0;" width="10" x="235" y="209.2734"/><rect fill="#FFFFFF" height="14" style="stroke:#181818;stroke-width:1.0;" width="10" x="342.5" y="479.6016"/><rect fill="#FFFFFF" height="14" style="stroke:#181818;stroke-width:1.0;" width="10" x="342.5" y="599.6563"/><rect fill="#FFFFFF" height="14" style="stroke:#181818;stroke-width:1.0;" width="10" x="342.5" y="828.7656"/><rect fill="#FFFFFF" height="14" style="stroke:#181818;stroke-width:1.0;" width="10" x="342.5" y="1057.875"/><rect fill="#FFFFFF" height="14" style="stroke:#181818;stroke-width:1.0;" width="10" x="342.5" y="1319.3359"/><rect fill="none" height="1244.1172" style="stroke:#000000;stroke-width:1.5;" width="631" x="75" y="168.5703"/><rect fill="none" height="1015.0078" style="stroke:#000000;stroke-width:1.5;" width="611" x="85" y="224.2734"/><rect fill="none" height="106.0547" style="stroke:#000000;stroke-width:1.5;" width="225" x="193" y="438.8984"/><rect fill="none" height="215.1094" style="stroke:#000000;stroke-width:1.5;" width="245" x="183" y="558.9531"/><rect fill="none" height="81.0547" style="stroke:#000000;stroke-width:1.5;" width="225" x="193" y="672.0078"/><rect fill="none" height="215.1094" style="stroke:#000000;stroke-width:1.5;" width="245" x="183" y="788.0625"/><rect fill="none" height="81.0547" style="stroke:#000000;stroke-width:1.5;" width="225" x="193" y="901.1172"/><rect fill="none" height="215.1094" style="stroke:#000000;stroke-width:1.5;" width="245" x="183" y="1017.1719"/><rect fill="none" height="81.0547" style="stroke:#000000;stroke-width:1.5;" width="225" x="193" y="1130.2266"/><rect fill="none" height="138.4063" style="stroke:#000000;stroke-width:1.5;" width="274" x="183" y="1253.2813"/><rect fill="none" height="106.0547" style="stroke:#000000;stroke-width:1.5;" width="254" x="193" y="1278.6328"/><line style="stroke:#181818;stroke-width:0.5;stroke-dasharray:5.0,5.0;" x1="39" x2="39" y1="121.2188" y2="1429.6875"/><line style="stroke:#181818;stroke-width:0.5;stroke-dasharray:5.0,5.0;" x1="127" x2="127" y1="121.2188" y2="1429.6875"/><line style="stroke:#181818;stroke-width:0.5;stroke-dasharray:5.0,5.0;" x1="240" x2="240" y1="121.2188" y2="1429.6875"/><line style="stroke:#181818;stroke-width:0.5;stroke-dasharray:5.0,5.0;" x1="347" x2="347" y1="121.2188" y2="1429.6875"/><line style="stroke:#181818;stroke-width:0.5;stroke-dasharray:5.0,5.0;" x1="460" x2="460" y1="121.2188" y2="1429.6875"/><line style="stroke:#181818;stroke-width:0.5;stroke-dasharray:5.0,5.0;" x1="553" x2="553" y1="317.2813" y2="1429.6875"/><line style="stroke:#181818;stroke-width:0.5;stroke-dasharray:5.0,5.0;" x1="645" x2="645" y1="359.8906" y2="1429.6875"/><text fill="#000000" font-family="sans-serif" font-size="14" lengthAdjust="spacing" textLength="62" x="5" y="118.1426">Controller</text><ellipse cx="39" cy="52.1094" fill="#E2E2F0" rx="8" ry="8" style="stroke:#181818;stroke-width:0.5;"/><path d="M39,60.1094 L39,87.1094 M26,68.1094 L52,68.1094 M39,87.1094 L26,102.1094 M39,87.1094 L52,102.1094 " fill="none" style="stroke:#181818;stroke-width:0.5;"/><text fill="#000000" font-family="sans-serif" font-size="14" lengthAdjust="spacing" textLength="62" x="5" y="1443.2207">Controller</text><ellipse cx="39" cy="1454.7969" fill="#E2E2F0" rx="8" ry="8" style="stroke:#181818;stroke-width:0.5;"/><path d="M39,1462.7969 L39,1489.7969 M26,1470.7969 L52,1470.7969 M39,1489.7969 L26,1504.7969 M39,1489.7969 L52,1504.7969 " fill="none" style="stroke:#181818;stroke-width:0.5;"/><rect fill="#E2E2F0" height="31.6094" rx="2.5" ry="2.5" style="stroke:#181818;stroke-width:0.5;" width="64" x="95" y="88.6094"/><text fill="#000000" font-family="sans-serif" font-size="14" lengthAdjust="spacing" textLength="50" x="102" y="110.1426">m : Map</text><rect fill="#E2E2F0" height="31.6094" rx="2.5" ry="2.5" style="stroke:#181818;stroke-width:0.5;" width="64" x="95" y="1428.6875"/><text fill="#000000" font-family="sans-serif" font-size="14" lengthAdjust="spacing" textLength="50" x="102" y="1450.2207">m : Map</text><rect fill="#E2E2F0" height="31.6094" rx="2.5" ry="2.5" style="stroke:#181818;stroke-width:0.5;" width="74" x="203" y="88.6094"/><text fill="#000000" font-family="sans-serif" font-size="14" lengthAdjust="spacing" textLength="60" x="210" y="110.1426">t : Tecton</text><rect fill="#E2E2F0" height="31.6094" rx="2.5" ry="2.5" style="stroke:#181818;stroke-width:0.5;" width="74" x="203" y="1428.6875"/><text fill="#000000" font-family="sans-serif" font-size="14" lengthAdjust="spacing" textLength="60" x="210" y="1450.2207">t : Tecton</text><rect fill="#E2E2F0" height="31.6094" rx="2.5" ry="2.5" style="stroke:#181818;stroke-width:0.5;" width="121" x="287" y="88.6094"/><text fill="#000000" font-family="sans-serif" font-size="14" lengthAdjust="spacing" textLength="107" x="294" y="110.1426">mr : Mushroomer</text><rect fill="#E2E2F0" height="31.6094" rx="2.5" ry="2.5" style="stroke:#181818;stroke-width:0.5;" width="121" x="287" y="1428.6875"/><text fill="#000000" font-family="sans-serif" font-size="14" lengthAdjust="spacing" textLength="107" x="294" y="1450.2207">mr : Mushroomer</text><rect fill="#E2E2F0" height="31.6094" rx="2.5" ry="2.5" style="stroke:#181818;stroke-width:0.5;" width="84" x="418" y="88.6094"/><text fill="#000000" font-family="sans-serif" font-size="14" lengthAdjust="spacing" textLength="70" x="425" y="110.1426">ir : Insecter</text><rect fill="#E2E2F0" height="31.6094" rx="2.5" ry="2.5" style="stroke:#181818;stroke-width:0.5;" width="84" x="418" y="1428.6875"/><text fill="#000000" font-family="sans-serif" font-size="14" lengthAdjust="spacing" textLength="70" x="425" y="1450.2207">ir : Insecter</text><rect fill="#E2E2F0" height="31.6094" rx="2.5" ry="2.5" style="stroke:#181818;stroke-width:0.5;" width="82" x="512" y="1428.6875"/><text fill="#000000" font-family="sans-serif" font-size="14" lengthAdjust="spacing" textLength="68" x="519" y="1450.2207">t1 : Tecton</text><rect fill="#E2E2F0" height="31.6094" rx="2.5" ry="2.5" style="stroke:#181818;stroke-width:0.5;" width="82" x="604" y="1428.6875"/><text fill="#000000" font-family="sans-serif" font-size="14" lengthAdjust="spacing" textLength="68" x="611" y="1450.2207">t2 : Tecton</text><rect fill="#FFFFFF" height="1289.4688" style="stroke:#181818;stroke-width:1.0;" width="10" x="34" y="131.2188"/><rect fill="#FFFFFF" height="1266.1172" style="stroke:#181818;stroke-width:1.0;" width="10" x="122" y="153.5703"/><rect fill="#FFFFFF" height="1195.4141" style="stroke:#181818;stroke-width:1.0;" width="10" x="235" y="209.2734"/><rect fill="#FFFFFF" height="14" style="stroke:#181818;stroke-width:1.0;" width="10" x="342.5" y="479.6016"/><rect fill="#FFFFFF" height="14" style="stroke:#181818;stroke-width:1.0;" width="10" x="342.5" y="599.6563"/><rect fill="#FFFFFF" height="14" style="stroke:#181818;stroke-width:1.0;" width="10" x="342.5" y="828.7656"/><rect fill="#FFFFFF" height="14" style="stroke:#181818;stroke-width:1.0;" width="10" x="342.5" y="1057.875"/><rect fill="#FFFFFF" height="14" style="stroke:#181818;stroke-width:1.0;" width="10" x="342.5" y="1319.3359"/><polygon fill="#181818" points="110,149.5703,120,153.5703,110,157.5703,114,153.5703" style="stroke:#181818;stroke-width:1.0;"/><line style="stroke:#181818;stroke-width:1.0;" x1="44" x2="116" y1="153.5703" y2="153.5703"/><text fill="#000000" font-family="sans-serif" font-size="13" lengthAdjust="spacing" textLength="59" x="51" y="148.7139">onRound()</text><path d="M75,168.5703 L148,168.5703 L148,176.9219 L138,186.9219 L75,186.9219 L75,168.5703 " fill="#EEEEEE" style="stroke:#000000;stroke-width:1.5;"/><rect fill="none" height="1244.1172" style="stroke:#000000;stroke-width:1.5;" width="631" x="75" y="168.5703"/><text fill="#000000" font-family="sans-serif" font-size="13" font-weight="bold" lengthAdjust="spacing" textLength="28" x="90" y="183.0654">loop</text><text fill="#000000" font-family="sans-serif" font-size="11" font-weight="bold" lengthAdjust="spacing" textLength="87" x="163" y="181.9893">[for(t : tectons)]</text><polygon fill="#181818" points="223,205.2734,233,209.2734,223,213.2734,227,209.2734" style="stroke:#181818;stroke-width:1.0;"/><line style="stroke:#181818;stroke-width:1.0;" x1="132" x2="229" y1="209.2734" y2="209.2734"/><text fill="#000000" font-family="sans-serif" font-size="13" lengthAdjust="spacing" textLength="59" x="139" y="204.417">onRound()</text><path d="M85,224.2734 L146,224.2734 L146,232.625 L136,242.625 L85,242.625 L85,224.2734 " fill="#EEEEEE" style="stroke:#000000;stroke-width:1.5;"/><rect fill="none" height="1015.0078" style="stroke:#000000;stroke-width:1.5;" width="611" x="85" y="224.2734"/><text fill="#000000" font-family="sans-serif" font-size="13" font-weight="bold" lengthAdjust="spacing" textLength="16" x="100" y="238.7686">alt</text><text fill="#000000" font-family="sans-serif" font-size="11" font-weight="bold" lengthAdjust="spacing" textLength="51" x="161" y="237.6924">[random]</text><line style="stroke:#181818;stroke-width:1.0;" x1="245" x2="287" y1="264.9766" y2="264.9766"/><line style="stroke:#181818;stroke-width:1.0;" x1="287" x2="287" y1="264.9766" y2="277.9766"/><line style="stroke:#181818;stroke-width:1.0;" x1="246" x2="287" y1="277.9766" y2="277.9766"/><polygon fill="#181818" points="256,273.9766,246,277.9766,256,281.9766,252,277.9766" style="stroke:#181818;stroke-width:1.0;"/><text fill="#000000" font-family="sans-serif" font-size="13" lengthAdjust="spacing" textLength="32" x="252" y="260.1201">split()</text><polygon fill="#181818" points="500,304.3281,510,308.3281,500,312.3281,504,308.3281" style="stroke:#181818;stroke-width:1.0;"/><line style="stroke:#181818;stroke-width:1.0;" x1="245" x2="506" y1="308.3281" y2="308.3281"/><text fill="#000000" font-family="sans-serif" font-size="13" lengthAdjust="spacing" textLength="23" x="252" y="303.4717">new</text><rect fill="#E2E2F0" height="31.6094" rx="2.5" ry="2.5" style="stroke:#181818;stroke-width:0.5;" width="82" x="512" y="285.9766"/><text fill="#000000" font-family="sans-serif" font-size="14" lengthAdjust="spacing" textLength="68" x="519" y="307.5098">t1 : Tecton</text><polygon fill="#181818" points="592,346.9375,602,350.9375,592,354.9375,596,350.9375" style="stroke:#181818;stroke-width:1.0;"/><line style="stroke:#181818;stroke-width:1.0;" x1="245" x2="598" y1="350.9375" y2="350.9375"/><text fill="#000000" font-family="sans-serif" font-size="13" lengthAdjust="spacing" textLength="23" x="252" y="346.0811">new</text><rect fill="#E2E2F0" height="31.6094" rx="2.5" ry="2.5" style="stroke:#181818;stroke-width:0.5;" width="82" x="604" y="328.5859"/><text fill="#000000" font-family="sans-serif" font-size="14" lengthAdjust="spacing" textLength="68" x="611" y="350.1191">t2 : Tecton</text><polygon fill="#181818" points="143,389.5469,133,393.5469,143,397.5469,139,393.5469" style="stroke:#181818;stroke-width:1.0;"/><line style="stroke:#181818;stroke-width:1.0;" x1="137" x2="234" y1="393.5469" y2="393.5469"/><text fill="#000000" font-family="sans-serif" font-size="13" lengthAdjust="spacing" textLength="79" x="149" y="388.6904">addTecton(t1)</text><polygon fill="#181818" points="143,419.8984,133,423.8984,143,427.8984,139,423.8984" style="stroke:#181818;stroke-width:1.0;"/><line style="stroke:#181818;stroke-width:1.0;" x1="137" x2="234" y1="423.8984" y2="423.8984"/><text fill="#000000" font-family="sans-serif" font-size="13" lengthAdjust="spacing" textLength="79" x="149" y="419.042">addTecton(t2)</text><path d="M193,438.8984 L266,438.8984 L266,447.25 L256,457.25 L193,457.25 L193,438.8984 " fill="#EEEEEE" style="stroke:#000000;stroke-width:1.5;"/><rect fill="none" height="106.0547" style="stroke:#000000;stroke-width:1.5;" width="225" x="193" y="438.8984"/><text fill="#000000" font-family="sans-serif" font-size="13" font-weight="bold" lengthAdjust="spacing" textLength="28" x="208" y="453.3936">loop</text><text fill="#000000" font-family="sans-serif" font-size="11" font-weight="bold" lengthAdjust="spacing" textLength="109" x="281" y="452.3174">[for (mt in threads)]</text><polygon fill="#181818" points="330.5,475.6016,340.5,479.6016,330.5,483.6016,334.5,479.6016" style="stroke:#181818;stroke-width:1.0;"/><line style="stroke:#181818;stroke-width:1.0;" x1="245" x2="336.5" y1="479.6016" y2="479.6016"/><text fill="#000000" font-family="sans-serif" font-size="13" lengthAdjust="spacing" textLength="72" x="252" y="474.7451">remove(t mt)</text><polygon fill="#181818" points="256,489.6016,246,493.6016,256,497.6016,252,493.6016" style="stroke:#181818;stroke-width:1.0;"/><line style="stroke:#181818;stroke-width:1.0;stroke-dasharray:2.0,2.0;" x1="250" x2="346.5" y1="493.6016" y2="493.6016"/><line style="stroke:#181818;stroke-width:1.0;" x1="245" x2="287" y1="523.9531" y2="523.9531"/><line style="stroke:#181818;stroke-width:1.0;" x1="287" x2="287" y1="523.9531" y2="536.9531"/><line style="stroke:#181818;stroke-width:1.0;" x1="246" x2="287" y1="536.9531" y2="536.9531"/><polygon fill="#181818" points="256,532.9531,246,536.9531,256,540.9531,252,536.9531" style="stroke:#181818;stroke-width:1.0;"/><text fill="#000000" font-family="sans-serif" font-size="13" lengthAdjust="spacing" textLength="72" x="252" y="519.0967">remove(t mt)</text><path d="M183,558.9531 L256,558.9531 L256,567.3047 L246,577.3047 L183,577.3047 L183,558.9531 " fill="#EEEEEE" style="stroke:#000000;stroke-width:1.5;"/><rect fill="none" height="215.1094" style="stroke:#000000;stroke-width:1.5;" width="245" x="183" y="558.9531"/><text fill="#000000" font-family="sans-serif" font-size="13" font-weight="bold" lengthAdjust="spacing" textLength="28" x="198" y="573.4482">loop</text><text fill="#000000" font-family="sans-serif" font-size="11" font-weight="bold" lengthAdjust="spacing" textLength="105" x="271" y="572.3721">[for (ms in stems)]</text><polygon fill="#181818" points="330.5,595.6563,340.5,599.6563,330.5,603.6563,334.5,599.6563" style="stroke:#181818;stroke-width:1.0;"/><line style="stroke:#181818;stroke-width:1.0;" x1="245" x2="336.5" y1="599.6563" y2="599.6563"/><text fill="#000000" font-family="sans-serif" font-size="13" lengthAdjust="spacing" textLength="75" x="252" y="594.7998">remove(t ms)</text><polygon fill="#181818" points="256,609.6563,246,613.6563,256,617.6563,252,613.6563" style="stroke:#181818;stroke-width:1.0;"/><line style="stroke:#181818;stroke-width:1.0;stroke-dasharray:2.0,2.0;" x1="250" x2="346.5" y1="613.6563" y2="613.6563"/><line style="stroke:#181818;stroke-width:1.0;" x1="245" x2="287" y1="644.0078" y2="644.0078"/><line style="stroke:#181818;stroke-width:1.0;" x1="287" x2="287" y1="644.0078" y2="657.0078"/><line style="stroke:#181818;stroke-width:1.0;" x1="246" x2="287" y1="657.0078" y2="657.0078"/><polygon fill="#181818" points="256,653.0078,246,657.0078,256,661.0078,252,657.0078" style="stroke:#181818;stroke-width:1.0;"/><text fill="#000000" font-family="sans-serif" font-size="13" lengthAdjust="spacing" textLength="75" x="252" y="639.1514">remove(t ms)</text><path d="M193,672.0078 L254,672.0078 L254,680.3594 L244,690.3594 L193,690.3594 L193,672.0078 " fill="#EEEEEE" style="stroke:#000000;stroke-width:1.5;"/><rect fill="none" height="81.0547" style="stroke:#000000;stroke-width:1.5;" width="225" x="193" y="672.0078"/><text fill="#000000" font-family="sans-serif" font-size="13" font-weight="bold" lengthAdjust="spacing" textLength="16" x="208" y="686.5029">alt</text><text fill="#000000" font-family="sans-serif" font-size="11" font-weight="bold" lengthAdjust="spacing" textLength="90" x="269" y="685.4268">[random choice]</text><polygon fill="#181818" points="335.5,708.7109,345.5,712.7109,335.5,716.7109,339.5,712.7109" style="stroke:#181818;stroke-width:1.0;"/><line style="stroke:#181818;stroke-width:1.0;" x1="245" x2="341.5" y1="712.7109" y2="712.7109"/><text fill="#000000" font-family="sans-serif" font-size="13" lengthAdjust="spacing" textLength="66" x="252" y="707.8545">add(t1, ms)</text><line style="stroke:#000000;stroke-width:1.0;stroke-dasharray:2.0,2.0;" x1="193" x2="418" y1="721.7109" y2="721.7109"/><polygon fill="#181818" points="335.5,741.0625,345.5,745.0625,335.5,749.0625,339.5,745.0625" style="stroke:#181818;stroke-width:1.0;"/><line style="stroke:#181818;stroke-width:1.0;" x1="245" x2="341.5" y1="745.0625" y2="745.0625"/><text fill="#000000" font-family="sans-serif" font-size="13" lengthAdjust="spacing" textLength="66" x="252" y="740.2061">add(t2, ms)</text><polygon fill="#181818" points="256,762.0625,246,766.0625,256,770.0625,252,766.0625" style="stroke:#181818;stroke-width:1.0;"/><line style="stroke:#181818;stroke-width:1.0;stroke-dasharray:2.0,2.0;" x1="250" x2="346.5" y1="766.0625" y2="766.0625"/><path d="M183,788.0625 L256,788.0625 L256,796.4141 L246,806.4141 L183,806.4141 L183,788.0625 " fill="#EEEEEE" style="stroke:#000000;stroke-width:1.5;"/><rect fill="none" height="215.1094" style="stroke:#000000;stroke-width:1.5;" width="245" x="183" y="788.0625"/><text fill="#000000" font-family="sans-serif" font-size="13" font-weight="bold" lengthAdjust="spacing" textLength="28" x="198" y="802.5576">loop</text><text fill="#000000" font-family="sans-serif" font-size="11" font-weight="bold" lengthAdjust="spacing" textLength="95" x="271" y="801.4814">[for (i in insects)]</text><polygon fill="#181818" points="330.5,824.7656,340.5,828.7656,330.5,832.7656,334.5,828.7656" style="stroke:#181818;stroke-width:1.0;"/><line style="stroke:#181818;stroke-width:1.0;" x1="245" x2="336.5" y1="828.7656" y2="828.7656"/><text fill="#000000" font-family="sans-serif" font-size="13" lengthAdjust="spacing" textLength="64" x="252" y="823.9092">remove(t, i)</text><polygon fill="#181818" points="256,838.7656,246,842.7656,256,846.7656,252,842.7656" style="stroke:#181818;stroke-width:1.0;"/><line style="stroke:#181818;stroke-width:1.0;stroke-dasharray:2.0,2.0;" x1="250" x2="346.5" y1="842.7656" y2="842.7656"/><line style="stroke:#181818;stroke-width:1.0;" x1="245" x2="287" y1="873.1172" y2="873.1172"/><line style="stroke:#181818;stroke-width:1.0;" x1="287" x2="287" y1="873.1172" y2="886.1172"/><line style="stroke:#181818;stroke-width:1.0;" x1="246" x2="287" y1="886.1172" y2="886.1172"/><polygon fill="#181818" points="256,882.1172,246,886.1172,256,890.1172,252,886.1172" style="stroke:#181818;stroke-width:1.0;"/><text fill="#000000" font-family="sans-serif" font-size="13" lengthAdjust="spacing" textLength="64" x="252" y="868.2607">remove(t, i)</text><path d="M193,901.1172 L254,901.1172 L254,909.4688 L244,919.4688 L193,919.4688 L193,901.1172 " fill="#EEEEEE" style="stroke:#000000;stroke-width:1.5;"/><rect fill="none" height="81.0547" style="stroke:#000000;stroke-width:1.5;" width="225" x="193" y="901.1172"/><text fill="#000000" font-family="sans-serif" font-size="13" font-weight="bold" lengthAdjust="spacing" textLength="16" x="208" y="915.6123">alt</text><text fill="#000000" font-family="sans-serif" font-size="11" font-weight="bold" lengthAdjust="spacing" textLength="51" x="269" y="914.5361">[random]</text><polygon fill="#181818" points="335.5,937.8203,345.5,941.8203,335.5,945.8203,339.5,941.8203" style="stroke:#181818;stroke-width:1.0;"/><line style="stroke:#181818;stroke-width:1.0;" x1="245" x2="341.5" y1="941.8203" y2="941.8203"/><text fill="#000000" font-family="sans-serif" font-size="13" lengthAdjust="spacing" textLength="51" x="252" y="936.9639">add(t1, i)</text><line style="stroke:#000000;stroke-width:1.0;stroke-dasharray:2.0,2.0;" x1="193" x2="418" y1="950.8203" y2="950.8203"/><polygon fill="#181818" points="335.5,970.1719,345.5,974.1719,335.5,978.1719,339.5,974.1719" style="stroke:#181818;stroke-width:1.0;"/><line style="stroke:#181818;stroke-width:1.0;" x1="245" x2="341.5" y1="974.1719" y2="974.1719"/><text fill="#000000" font-family="sans-serif" font-size="13" lengthAdjust="spacing" textLength="51" x="252" y="969.3154">add(t2, i)</text><polygon fill="#181818" points="256,991.1719,246,995.1719,256,999.1719,252,995.1719" style="stroke:#181818;stroke-width:1.0;"/><line style="stroke:#181818;stroke-width:1.0;stroke-dasharray:2.0,2.0;" x1="250" x2="346.5" y1="995.1719" y2="995.1719"/><path d="M183,1017.1719 L256,1017.1719 L256,1025.5234 L246,1035.5234 L183,1035.5234 L183,1017.1719 " fill="#EEEEEE" style="stroke:#000000;stroke-width:1.5;"/><rect fill="none" height="215.1094" style="stroke:#000000;stroke-width:1.5;" width="245" x="183" y="1017.1719"/><text fill="#000000" font-family="sans-serif" font-size="13" font-weight="bold" lengthAdjust="spacing" textLength="28" x="198" y="1031.667">loop</text><text fill="#000000" font-family="sans-serif" font-size="11" font-weight="bold" lengthAdjust="spacing" textLength="105" x="271" y="1030.5908">[for (sp in spores)]</text><polygon fill="#181818" points="330.5,1053.875,340.5,1057.875,330.5,1061.875,334.5,1057.875" style="stroke:#181818;stroke-width:1.0;"/><line style="stroke:#181818;stroke-width:1.0;" x1="245" x2="336.5" y1="1057.875" y2="1057.875"/><text fill="#000000" font-family="sans-serif" font-size="13" lengthAdjust="spacing" textLength="71" x="252" y="1053.0186">remove(t sp)</text><polygon fill="#181818" points="256,1067.875,246,1071.875,256,1075.875,252,1071.875" style="stroke:#181818;stroke-width:1.0;"/><line style="stroke:#181818;stroke-width:1.0;stroke-dasharray:2.0,2.0;" x1="250" x2="346.5" y1="1071.875" y2="1071.875"/><line style="stroke:#181818;stroke-width:1.0;" x1="245" x2="287" y1="1102.2266" y2="1102.2266"/><line style="stroke:#181818;stroke-width:1.0;" x1="287" x2="287" y1="1102.2266" y2="1115.2266"/><line style="stroke:#181818;stroke-width:1.0;" x1="246" x2="287" y1="1115.2266" y2="1115.2266"/><polygon fill="#181818" points="256,1111.2266,246,1115.2266,256,1119.2266,252,1115.2266" style="stroke:#181818;stroke-width:1.0;"/><text fill="#000000" font-family="sans-serif" font-size="13" lengthAdjust="spacing" textLength="71" x="252" y="1097.3701">remove(t sp)</text><path d="M193,1130.2266 L254,1130.2266 L254,1138.5781 L244,1148.5781 L193,1148.5781 L193,1130.2266 " fill="#EEEEEE" style="stroke:#000000;stroke-width:1.5;"/><rect fill="none" height="81.0547" style="stroke:#000000;stroke-width:1.5;" width="225" x="193" y="1130.2266"/><text fill="#000000" font-family="sans-serif" font-size="13" font-weight="bold" lengthAdjust="spacing" textLength="16" x="208" y="1144.7217">alt</text><text fill="#000000" font-family="sans-serif" font-size="11" font-weight="bold" lengthAdjust="spacing" textLength="51" x="269" y="1143.6455">[random]</text><polygon fill="#181818" points="335.5,1166.9297,345.5,1170.9297,335.5,1174.9297,339.5,1170.9297" style="stroke:#181818;stroke-width:1.0;"/><line style="stroke:#181818;stroke-width:1.0;" x1="245" x2="341.5" y1="1170.9297" y2="1170.9297"/><text fill="#000000" font-family="sans-serif" font-size="13" lengthAdjust="spacing" textLength="62" x="252" y="1166.0732">add(t1, sp)</text><line style="stroke:#000000;stroke-width:1.0;stroke-dasharray:2.0,2.0;" x1="193" x2="418" y1="1179.9297" y2="1179.9297"/><polygon fill="#181818" points="335.5,1199.2813,345.5,1203.2813,335.5,1207.2813,339.5,1203.2813" style="stroke:#181818;stroke-width:1.0;"/><line style="stroke:#181818;stroke-width:1.0;" x1="245" x2="341.5" y1="1203.2813" y2="1203.2813"/><text fill="#000000" font-family="sans-serif" font-size="13" lengthAdjust="spacing" textLength="62" x="252" y="1198.4248">add(t2, sp)</text><polygon fill="#181818" points="256,1220.2813,246,1224.2813,256,1228.2813,252,1224.2813" style="stroke:#181818;stroke-width:1.0;"/><line style="stroke:#181818;stroke-width:1.0;stroke-dasharray:2.0,2.0;" x1="250" x2="346.5" y1="1224.2813" y2="1224.2813"/><path d="M183,1253.2813 L244,1253.2813 L244,1261.6328 L234,1271.6328 L183,1271.6328 L183,1253.2813 " fill="#EEEEEE" style="stroke:#000000;stroke-width:1.5;"/><rect fill="none" height="138.4063" style="stroke:#000000;stroke-width:1.5;" width="274" x="183" y="1253.2813"/><text fill="#000000" font-family="sans-serif" font-size="13" font-weight="bold" lengthAdjust="spacing" textLength="16" x="198" y="1267.7764">alt</text><text fill="#000000" font-family="sans-serif" font-size="11" font-weight="bold" lengthAdjust="spacing" textLength="126" x="259" y="1266.7002">[t is threadconsuming]</text><path d="M193,1278.6328 L266,1278.6328 L266,1286.9844 L256,1296.9844 L193,1296.9844 L193,1278.6328 " fill="#EEEEEE" style="stroke:#000000;stroke-width:1.5;"/><rect fill="none" height="106.0547" style="stroke:#000000;stroke-width:1.5;" width="254" x="193" y="1278.6328"/><text fill="#000000" font-family="sans-serif" font-size="13" font-weight="bold" lengthAdjust="spacing" textLength="28" x="208" y="1293.1279">loop</text><text fill="#000000" font-family="sans-serif" font-size="11" font-weight="bold" lengthAdjust="spacing" textLength="161" x="281" y="1292.0518">[for(mt : mushroomthreads)]</text><polygon fill="#181818" points="330.5,1315.3359,340.5,1319.3359,330.5,1323.3359,334.5,1319.3359" style="stroke:#181818;stroke-width:1.0;"/><line style="stroke:#181818;stroke-width:1.0;" x1="245" x2="336.5" y1="1319.3359" y2="1319.3359"/><text fill="#000000" font-family="sans-serif" font-size="13" lengthAdjust="spacing" textLength="72" x="252" y="1314.4795">remove(t mt)</text><polygon fill="#181818" points="256,1329.3359,246,1333.3359,256,1337.3359,252,1333.3359" style="stroke:#181818;stroke-width:1.0;"/><line style="stroke:#181818;stroke-width:1.0;stroke-dasharray:2.0,2.0;" x1="250" x2="346.5" y1="1333.3359" y2="1333.3359"/><line style="stroke:#181818;stroke-width:1.0;" x1="245" x2="287" y1="1363.6875" y2="1363.6875"/><line style="stroke:#181818;stroke-width:1.0;" x1="287" x2="287" y1="1363.6875" y2="1376.6875"/><line style="stroke:#181818;stroke-width:1.0;" x1="246" x2="287" y1="1376.6875" y2="1376.6875"/><polygon fill="#181818" points="256,1372.6875,246,1376.6875,256,1380.6875,252,1376.6875" style="stroke:#181818;stroke-width:1.0;"/><text fill="#000000" font-family="sans-serif" font-size="13" lengthAdjust="spacing" textLength="72" x="252" y="1358.8311">remove(t mt)</text><polygon fill="#181818" points="143,1400.6875,133,1404.6875,143,1408.6875,139,1404.6875" style="stroke:#181818;stroke-width:1.0;"/><line style="stroke:#181818;stroke-width:1.0;stroke-dasharray:2.0,2.0;" x1="137" x2="239" y1="1404.6875" y2="1404.6875"/><!--SRC=[rLKzRyCW4Dtv5QTCJfGCzXXLNJfbS0UBFu1isY2P3y4b-Vi5nx5Zo9UgDbLP3DnxTzmz7w30biCxFu3LEzM0GsRH4S9gr1RUj4AhsvPROlo-g8LX2c4cOGqbCpDW3igf2Rs9SizMdPL6H1kOExUrMajkZmwgAKO4p4OvxwH7R284vb6GFB8NaRte4X9xXlmyft4AgrSeFKchAfGXcu_uaf1MQmCVscOXEUpykZa1Fyf0f1DYs1x8b1pNBO9bgj6oMuP1JqndMe4zBupQyewPHz0S5eirA7v8a4M4B18aFUN7ckPObmpp-KrpCPg7oQaEa4a4eG2t_WID6v6ZiyfxirpgFVT5apY5ZBMj8khBQXLlDlmwl2_XnK1SDJSpS243Xrm-S7xthFF7WOR_1kgj5ZMVMAUdzTfvKPU93zwwkxJY0ksiV3-Kynr5H114T7r_Lv8bYET8aWPAM_cw5k9RKeY_LiAPhZUCjln-SpZpfEP80etDyO0KCVj1BHBQxuaHliDhuUzNrz-ljNzjTbAepqIfS0slGVRFwR-uZOSaoyux9P5JIWBYF0hv0W00]--></g></svg>