<?xml version="1.0" encoding="us-ascii" standalone="no"?><svg xmlns="http://www.w3.org/2000/svg" xmlns:xlink="http://www.w3.org/1999/xlink" contentStyleType="text/css" height="1386px" preserveAspectRatio="none" style="width:2287px;height:1386px;background:#FFFFFF;" version="1.1" viewBox="0 0 2287 1386" width="2287px" zoomAndPan="magnify"><defs/><g><!--cluster view--><g id="cluster_view"><path d="M13.5,11 L50.5,11 A3.75,3.75 0 0 1 53,13.5 L60,34.0146 L2277.5,34.0146 A2.5,2.5 0 0 1 2280,36.5146 L2280,1376.5 A2.5,2.5 0 0 1 2277.5,1379 L13.5,1379 A2.5,2.5 0 0 1 11,1376.5 L11,13.5 A2.5,2.5 0 0 1 13.5,11 " fill="#FFFFFF" style="stroke:#000000;stroke-width:1.0;"/><line style="stroke:#000000;stroke-width:1.0;" x1="11" x2="60" y1="34.0146" y2="34.0146"/><text fill="#000000" font-family="Verdana" font-size="14" font-weight="bold" lengthAdjust="spacing" textLength="36" x="15" y="27.0752">view</text></g><!--cluster game--><g id="cluster_game"><path d="M291,862 L334,862 A3.75,3.75 0 0 1 336.5,864.5 L343.5,885.0146 L1511.5,885.0146 A2.5,2.5 0 0 1 1514,887.5146 L1514,1352.5 A2.5,2.5 0 0 1 1511.5,1355 L291,1355 A2.5,2.5 0 0 1 288.5,1352.5 L288.5,864.5 A2.5,2.5 0 0 1 291,862 " fill="#FFFFFF" style="stroke:#000000;stroke-width:1.0;"/><line style="stroke:#000000;stroke-width:1.0;" x1="288.5" x2="343.5" y1="885.0146" y2="885.0146"/><text fill="#000000" font-family="Verdana" font-size="14" font-weight="bold" lengthAdjust="spacing" textLength="42" x="292.5" y="878.0752">game</text></g><!--cluster sidebar--><g id="cluster_sidebar"><path d="M494.5,906 L552.5,906 A3.75,3.75 0 0 1 555,908.5 L562,929.0146 L1487.5,929.0146 A2.5,2.5 0 0 1 1490,931.5146 L1490,1089.5 A2.5,2.5 0 0 1 1487.5,1092 L494.5,1092 A2.5,2.5 0 0 1 492,1089.5 L492,908.5 A2.5,2.5 0 0 1 494.5,906 " fill="#FFFFFF" style="stroke:#000000;stroke-width:1.0;"/><line style="stroke:#000000;stroke-width:1.0;" x1="492" x2="562" y1="929.0146" y2="929.0146"/><text fill="#000000" font-family="Verdana" font-size="14" font-weight="bold" lengthAdjust="spacing" textLength="57" x="496" y="922.0752">sidebar</text></g><!--cluster mainMenu--><g id="cluster_mainMenu"><path d="M264.5,669 L344.5,669 A3.75,3.75 0 0 1 347,671.5 L354,692.0146 L461.5,692.0146 A2.5,2.5 0 0 1 464,694.5146 L464,835.5 A2.5,2.5 0 0 1 461.5,838 L264.5,838 A2.5,2.5 0 0 1 262,835.5 L262,671.5 A2.5,2.5 0 0 1 264.5,669 " fill="#FFFFFF" style="stroke:#000000;stroke-width:1.0;"/><line style="stroke:#000000;stroke-width:1.0;" x1="262" x2="354" y1="692.0146" y2="692.0146"/><text fill="#000000" font-family="Verdana" font-size="14" font-weight="bold" lengthAdjust="spacing" textLength="79" x="266" y="685.0752">mainMenu</text></g><!--cluster vitem--><g id="cluster_vitem"><path d="M1154.5,55 L1197.5,55 A3.75,3.75 0 0 1 1200,57.5 L1207,78.0146 L2253.5,78.0146 A2.5,2.5 0 0 1 2256,80.5146 L2256,835.5 A2.5,2.5 0 0 1 2253.5,838 L1154.5,838 A2.5,2.5 0 0 1 1152,835.5 L1152,57.5 A2.5,2.5 0 0 1 1154.5,55 " fill="#FFFFFF" style="stroke:#000000;stroke-width:1.0;"/><line style="stroke:#000000;stroke-width:1.0;" x1="1152" x2="1207" y1="78.0146" y2="78.0146"/><text fill="#000000" font-family="Verdana" font-size="14" font-weight="bold" lengthAdjust="spacing" textLength="42" x="1156" y="71.0752">vitem</text></g><!--class Window--><g id="elem_Window"><rect codeLine="128" fill="#FFFFFF" height="87.0439" id="Window" rx="2.5" ry="2.5" style="stroke:#000000;stroke-width:1.0;" width="191" x="27" y="827.5"/><ellipse cx="90.75" cy="841.5" fill="#FFFFFF" rx="9" ry="9" style="stroke:#000000;stroke-width:1.0;"/><path d="M93.5156,843.0313 L95.9063,843.7813 Q95.3594,845.7656 94.0781,846.7344 Q92.8125,847.7031 90.8438,847.7031 Q88.4219,847.7031 86.8594,846.0469 Q85.3125,844.3906 85.3125,841.5156 Q85.3125,838.4844 86.875,836.8125 Q88.4375,835.125 91,835.125 Q93.2344,835.125 94.625,836.4375 Q95.4531,837.2188 95.875,838.6875 L93.4375,839.2656 Q93.2188,838.3125 92.5313,837.7656 Q91.8594,837.2188 90.875,837.2188 Q89.5156,837.2188 88.6719,838.2031 Q87.8438,839.1719 87.8438,841.3438 Q87.8438,843.6406 88.6719,844.625 Q89.5,845.6094 90.8281,845.6094 Q91.8125,845.6094 92.5156,844.9844 Q93.2188,844.3594 93.5156,843.0313 Z " fill="#000000"/><text fill="#000000" font-family="Verdana" font-size="14" lengthAdjust="spacing" textLength="56" x="108.25" y="847.0679">Window</text><line style="stroke:#000000;stroke-width:1.0;" x1="28" x2="217" y1="855.5" y2="855.5"/><text fill="#000000" font-family="Verdana" font-size="14" lengthAdjust="spacing" textLength="85" x="33" y="873.5752">+Window():</text><text fill="#000000" font-family="Verdana" font-size="14" lengthAdjust="spacing" textLength="151" x="33" y="890.5898">+main(String[]): void</text><text fill="#000000" font-family="Verdana" font-size="14" lengthAdjust="spacing" textLength="179" x="33" y="907.6045">+showPanel(String): void</text></g><!--class GamePanel--><g id="elem_GamePanel"><rect codeLine="12" fill="#FFFFFF" height="53.0146" id="GamePanel" rx="2.5" ry="2.5" style="stroke:#000000;stroke-width:1.0;" width="117" x="304.5" y="982.5"/><ellipse cx="323.35" cy="996.5" fill="#FFFFFF" rx="9" ry="9" style="stroke:#000000;stroke-width:1.0;"/><path d="M326.1156,998.0313 L328.5063,998.7813 Q327.9594,1000.7656 326.6781,1001.7344 Q325.4125,1002.7031 323.4438,1002.7031 Q321.0219,1002.7031 319.4594,1001.0469 Q317.9125,999.3906 317.9125,996.5156 Q317.9125,993.4844 319.475,991.8125 Q321.0375,990.125 323.6,990.125 Q325.8344,990.125 327.225,991.4375 Q328.0531,992.2188 328.475,993.6875 L326.0375,994.2656 Q325.8188,993.3125 325.1313,992.7656 Q324.4594,992.2188 323.475,992.2188 Q322.1156,992.2188 321.2719,993.2031 Q320.4438,994.1719 320.4438,996.3438 Q320.4438,998.6406 321.2719,999.625 Q322.1,1000.6094 323.4281,1000.6094 Q324.4125,1000.6094 325.1156,999.9844 Q325.8188,999.3594 326.1156,998.0313 Z " fill="#000000"/><text fill="#000000" font-family="Verdana" font-size="14" lengthAdjust="spacing" textLength="76" x="336.65" y="1002.0679">GamePanel</text><line style="stroke:#000000;stroke-width:1.0;" x1="305.5" x2="420.5" y1="1010.5" y2="1010.5"/><text fill="#000000" font-family="Verdana" font-size="14" lengthAdjust="spacing" textLength="105" x="310.5" y="1028.5752">+GamePanel():</text></g><!--class InsecterPop--><g id="elem_InsecterPop"><rect codeLine="15" fill="#FFFFFF" height="53.0146" id="InsecterPop" rx="2.5" ry="2.5" style="stroke:#000000;stroke-width:1.0;" width="124" x="1319" y="1277.5"/><ellipse cx="1337.85" cy="1291.5" fill="#FFFFFF" rx="9" ry="9" style="stroke:#000000;stroke-width:1.0;"/><path d="M1340.6156,1293.0313 L1343.0063,1293.7813 Q1342.4594,1295.7656 1341.1781,1296.7344 Q1339.9125,1297.7031 1337.9438,1297.7031 Q1335.5219,1297.7031 1333.9594,1296.0469 Q1332.4125,1294.3906 1332.4125,1291.5156 Q1332.4125,1288.4844 1333.975,1286.8125 Q1335.5375,1285.125 1338.1,1285.125 Q1340.3344,1285.125 1341.725,1286.4375 Q1342.5531,1287.2188 1342.975,1288.6875 L1340.5375,1289.2656 Q1340.3188,1288.3125 1339.6313,1287.7656 Q1338.9594,1287.2188 1337.975,1287.2188 Q1336.6156,1287.2188 1335.7719,1288.2031 Q1334.9438,1289.1719 1334.9438,1291.3438 Q1334.9438,1293.6406 1335.7719,1294.625 Q1336.6,1295.6094 1337.9281,1295.6094 Q1338.9125,1295.6094 1339.6156,1294.9844 Q1340.3188,1294.3594 1340.6156,1293.0313 Z " fill="#000000"/><text fill="#000000" font-family="Verdana" font-size="14" lengthAdjust="spacing" textLength="83" x="1351.15" y="1297.0679">InsecterPop</text><line style="stroke:#000000;stroke-width:1.0;" x1="1320" x2="1442" y1="1305.5" y2="1305.5"/><text fill="#000000" font-family="Verdana" font-size="14" lengthAdjust="spacing" textLength="112" x="1325" y="1323.5752">+InsecterPop():</text></g><!--class MapPanel--><g id="elem_MapPanel"><rect codeLine="18" fill="#FFFFFF" height="87.0439" id="MapPanel" rx="2.5" ry="2.5" style="stroke:#000000;stroke-width:1.0;" width="278" x="830" y="1251.5"/><ellipse cx="933.25" cy="1265.5" fill="#FFFFFF" rx="9" ry="9" style="stroke:#000000;stroke-width:1.0;"/><path d="M936.0156,1267.0313 L938.4063,1267.7813 Q937.8594,1269.7656 936.5781,1270.7344 Q935.3125,1271.7031 933.3438,1271.7031 Q930.9219,1271.7031 929.3594,1270.0469 Q927.8125,1268.3906 927.8125,1265.5156 Q927.8125,1262.4844 929.375,1260.8125 Q930.9375,1259.125 933.5,1259.125 Q935.7344,1259.125 937.125,1260.4375 Q937.9531,1261.2188 938.375,1262.6875 L935.9375,1263.2656 Q935.7188,1262.3125 935.0313,1261.7656 Q934.3594,1261.2188 933.375,1261.2188 Q932.0156,1261.2188 931.1719,1262.2031 Q930.3438,1263.1719 930.3438,1265.3438 Q930.3438,1267.6406 931.1719,1268.625 Q932,1269.6094 933.3281,1269.6094 Q934.3125,1269.6094 935.0156,1268.9844 Q935.7188,1268.3594 936.0156,1267.0313 Z " fill="#000000"/><text fill="#000000" font-family="Verdana" font-size="14" lengthAdjust="spacing" textLength="64" x="950.75" y="1271.0679">MapPanel</text><line style="stroke:#000000;stroke-width:1.0;" x1="831" x2="1107" y1="1279.5" y2="1279.5"/><text fill="#000000" font-family="Verdana" font-size="14" lengthAdjust="spacing" textLength="93" x="836" y="1297.5752">+MapPanel():</text><text fill="#000000" font-family="Verdana" font-size="14" lengthAdjust="spacing" textLength="266" x="836" y="1314.5898">+addTectonAtRandomPosition(): void</text><text fill="#000000" font-family="Verdana" font-size="14" lengthAdjust="spacing" textLength="241" x="836" y="1331.6045">#paintComponent(Graphics): void</text></g><!--class MushroomerPop--><g id="elem_MushroomerPop"><rect codeLine="23" fill="#FFFFFF" height="53.0146" id="MushroomerPop" rx="2.5" ry="2.5" style="stroke:#000000;stroke-width:1.0;" width="155" x="1303.5" y="1214.5"/><ellipse cx="1322.35" cy="1228.5" fill="#FFFFFF" rx="9" ry="9" style="stroke:#000000;stroke-width:1.0;"/><path d="M1325.1156,1230.0313 L1327.5063,1230.7813 Q1326.9594,1232.7656 1325.6781,1233.7344 Q1324.4125,1234.7031 1322.4438,1234.7031 Q1320.0219,1234.7031 1318.4594,1233.0469 Q1316.9125,1231.3906 1316.9125,1228.5156 Q1316.9125,1225.4844 1318.475,1223.8125 Q1320.0375,1222.125 1322.6,1222.125 Q1324.8344,1222.125 1326.225,1223.4375 Q1327.0531,1224.2188 1327.475,1225.6875 L1325.0375,1226.2656 Q1324.8188,1225.3125 1324.1313,1224.7656 Q1323.4594,1224.2188 1322.475,1224.2188 Q1321.1156,1224.2188 1320.2719,1225.2031 Q1319.4438,1226.1719 1319.4438,1228.3438 Q1319.4438,1230.6406 1320.2719,1231.625 Q1321.1,1232.6094 1322.4281,1232.6094 Q1323.4125,1232.6094 1324.1156,1231.9844 Q1324.8188,1231.3594 1325.1156,1230.0313 Z " fill="#000000"/><text fill="#000000" font-family="Verdana" font-size="14" lengthAdjust="spacing" textLength="114" x="1335.65" y="1234.0679">MushroomerPop</text><line style="stroke:#000000;stroke-width:1.0;" x1="1304.5" x2="1457.5" y1="1242.5" y2="1242.5"/><text fill="#000000" font-family="Verdana" font-size="14" lengthAdjust="spacing" textLength="143" x="1309.5" y="1260.5752">+MushroomerPop():</text></g><!--class TurnOrderPanel--><g id="elem_TurnOrderPanel"><rect codeLine="26" fill="#FFFFFF" height="53.0146" id="TurnOrderPanel" rx="2.5" ry="2.5" style="stroke:#000000;stroke-width:1.0;" width="150" x="894" y="1188.5"/><ellipse cx="912.85" cy="1202.5" fill="#FFFFFF" rx="9" ry="9" style="stroke:#000000;stroke-width:1.0;"/><path d="M915.6156,1204.0313 L918.0063,1204.7813 Q917.4594,1206.7656 916.1781,1207.7344 Q914.9125,1208.7031 912.9438,1208.7031 Q910.5219,1208.7031 908.9594,1207.0469 Q907.4125,1205.3906 907.4125,1202.5156 Q907.4125,1199.4844 908.975,1197.8125 Q910.5375,1196.125 913.1,1196.125 Q915.3344,1196.125 916.725,1197.4375 Q917.5531,1198.2188 917.975,1199.6875 L915.5375,1200.2656 Q915.3188,1199.3125 914.6313,1198.7656 Q913.9594,1198.2188 912.975,1198.2188 Q911.6156,1198.2188 910.7719,1199.2031 Q909.9438,1200.1719 909.9438,1202.3438 Q909.9438,1204.6406 910.7719,1205.625 Q911.6,1206.6094 912.9281,1206.6094 Q913.9125,1206.6094 914.6156,1205.9844 Q915.3188,1205.3594 915.6156,1204.0313 Z " fill="#000000"/><text fill="#000000" font-family="Verdana" font-size="14" lengthAdjust="spacing" textLength="109" x="926.15" y="1208.0679">TurnOrderPanel</text><line style="stroke:#000000;stroke-width:1.0;" x1="895" x2="1043" y1="1216.5" y2="1216.5"/><text fill="#000000" font-family="Verdana" font-size="14" lengthAdjust="spacing" textLength="138" x="900" y="1234.5752">+TurnOrderPanel():</text></g><!--class TectonContentPanel--><g id="elem_TectonContentPanel"><rect codeLine="29" fill="#FFFFFF" height="70.0293" id="TectonContentPanel" rx="2.5" ry="2.5" style="stroke:#000000;stroke-width:1.0;" width="262" x="838" y="1108"/><ellipse cx="894.75" cy="1122" fill="#FFFFFF" rx="9" ry="9" style="stroke:#000000;stroke-width:1.0;"/><path d="M897.5156,1123.5313 L899.9063,1124.2813 Q899.3594,1126.2656 898.0781,1127.2344 Q896.8125,1128.2031 894.8438,1128.2031 Q892.4219,1128.2031 890.8594,1126.5469 Q889.3125,1124.8906 889.3125,1122.0156 Q889.3125,1118.9844 890.875,1117.3125 Q892.4375,1115.625 895,1115.625 Q897.2344,1115.625 898.625,1116.9375 Q899.4531,1117.7188 899.875,1119.1875 L897.4375,1119.7656 Q897.2188,1118.8125 896.5313,1118.2656 Q895.8594,1117.7188 894.875,1117.7188 Q893.5156,1117.7188 892.6719,1118.7031 Q891.8438,1119.6719 891.8438,1121.8438 Q891.8438,1124.1406 892.6719,1125.125 Q893.5,1126.1094 894.8281,1126.1094 Q895.8125,1126.1094 896.5156,1125.4844 Q897.2188,1124.8594 897.5156,1123.5313 Z " fill="#000000"/><text fill="#000000" font-family="Verdana" font-size="14" lengthAdjust="spacing" textLength="141" x="912.25" y="1127.5679">TectonContentPanel</text><line style="stroke:#000000;stroke-width:1.0;" x1="839" x2="1099" y1="1136" y2="1136"/><text fill="#000000" font-family="Verdana" font-size="14" lengthAdjust="spacing" textLength="170" x="844" y="1154.0752">+TectonContentPanel():</text><text fill="#000000" font-family="Verdana" font-size="14" lengthAdjust="spacing" textLength="250" x="844" y="1171.0898">-createTitledBorder(String): Border</text></g><!--class MiddlePanel--><g id="elem_MiddlePanel"><rect codeLine="34" fill="#FFFFFF" height="70.0293" id="MiddlePanel" rx="2.5" ry="2.5" style="stroke:#000000;stroke-width:1.0;" width="262" x="508" y="1144"/><ellipse cx="595.75" cy="1158" fill="#FFFFFF" rx="9" ry="9" style="stroke:#000000;stroke-width:1.0;"/><path d="M598.5156,1159.5313 L600.9063,1160.2813 Q600.3594,1162.2656 599.0781,1163.2344 Q597.8125,1164.2031 595.8438,1164.2031 Q593.4219,1164.2031 591.8594,1162.5469 Q590.3125,1160.8906 590.3125,1158.0156 Q590.3125,1154.9844 591.875,1153.3125 Q593.4375,1151.625 596,1151.625 Q598.2344,1151.625 599.625,1152.9375 Q600.4531,1153.7188 600.875,1155.1875 L598.4375,1155.7656 Q598.2188,1154.8125 597.5313,1154.2656 Q596.8594,1153.7188 595.875,1153.7188 Q594.5156,1153.7188 593.6719,1154.7031 Q592.8438,1155.6719 592.8438,1157.8438 Q592.8438,1160.1406 593.6719,1161.125 Q594.5,1162.1094 595.8281,1162.1094 Q596.8125,1162.1094 597.5156,1161.4844 Q598.2188,1160.8594 598.5156,1159.5313 Z " fill="#000000"/><text fill="#000000" font-family="Verdana" font-size="14" lengthAdjust="spacing" textLength="79" x="613.25" y="1163.5679">MiddlePanel</text><line style="stroke:#000000;stroke-width:1.0;" x1="509" x2="769" y1="1172" y2="1172"/><text fill="#000000" font-family="Verdana" font-size="14" lengthAdjust="spacing" textLength="108" x="514" y="1190.0752">+MiddlePanel():</text><text fill="#000000" font-family="Verdana" font-size="14" lengthAdjust="spacing" textLength="250" x="514" y="1207.0898">-createTitledBorder(String): Border</text></g><!--class ButtonsPanel--><g id="elem_ButtonsPanel"><rect codeLine="40" fill="#FFFFFF" height="53.0146" id="ButtonsPanel" rx="2.5" ry="2.5" style="stroke:#000000;stroke-width:1.0;" width="134" x="902" y="1022.5"/><ellipse cx="920.85" cy="1036.5" fill="#FFFFFF" rx="9" ry="9" style="stroke:#000000;stroke-width:1.0;"/><path d="M923.6156,1038.0313 L926.0063,1038.7813 Q925.4594,1040.7656 924.1781,1041.7344 Q922.9125,1042.7031 920.9438,1042.7031 Q918.5219,1042.7031 916.9594,1041.0469 Q915.4125,1039.3906 915.4125,1036.5156 Q915.4125,1033.4844 916.975,1031.8125 Q918.5375,1030.125 921.1,1030.125 Q923.3344,1030.125 924.725,1031.4375 Q925.5531,1032.2188 925.975,1033.6875 L923.5375,1034.2656 Q923.3188,1033.3125 922.6313,1032.7656 Q921.9594,1032.2188 920.975,1032.2188 Q919.6156,1032.2188 918.7719,1033.2031 Q917.9438,1034.1719 917.9438,1036.3438 Q917.9438,1038.6406 918.7719,1039.625 Q919.6,1040.6094 920.9281,1040.6094 Q921.9125,1040.6094 922.6156,1039.9844 Q923.3188,1039.3594 923.6156,1038.0313 Z " fill="#000000"/><text fill="#000000" font-family="Verdana" font-size="14" lengthAdjust="spacing" textLength="93" x="934.15" y="1042.0679">ButtonsPanel</text><line style="stroke:#000000;stroke-width:1.0;" x1="903" x2="1035" y1="1050.5" y2="1050.5"/><text fill="#000000" font-family="Verdana" font-size="14" lengthAdjust="spacing" textLength="122" x="908" y="1068.5752">+ButtonsPanel():</text></g><!--class ChatLogPanel--><g id="elem_ChatLogPanel"><rect codeLine="43" fill="#FFFFFF" height="70.0293" id="ChatLogPanel" rx="2.5" ry="2.5" style="stroke:#000000;stroke-width:1.0;" width="262" x="838" y="942"/><ellipse cx="917.75" cy="956" fill="#FFFFFF" rx="9" ry="9" style="stroke:#000000;stroke-width:1.0;"/><path d="M920.5156,957.5313 L922.9063,958.2813 Q922.3594,960.2656 921.0781,961.2344 Q919.8125,962.2031 917.8438,962.2031 Q915.4219,962.2031 913.8594,960.5469 Q912.3125,958.8906 912.3125,956.0156 Q912.3125,952.9844 913.875,951.3125 Q915.4375,949.625 918,949.625 Q920.2344,949.625 921.625,950.9375 Q922.4531,951.7188 922.875,953.1875 L920.4375,953.7656 Q920.2188,952.8125 919.5313,952.2656 Q918.8594,951.7188 917.875,951.7188 Q916.5156,951.7188 915.6719,952.7031 Q914.8438,953.6719 914.8438,955.8438 Q914.8438,958.1406 915.6719,959.125 Q916.5,960.1094 917.8281,960.1094 Q918.8125,960.1094 919.5156,959.4844 Q920.2188,958.8594 920.5156,957.5313 Z " fill="#000000"/><text fill="#000000" font-family="Verdana" font-size="14" lengthAdjust="spacing" textLength="95" x="935.25" y="961.5679">ChatLogPanel</text><line style="stroke:#000000;stroke-width:1.0;" x1="839" x2="1099" y1="970" y2="970"/><text fill="#000000" font-family="Verdana" font-size="14" lengthAdjust="spacing" textLength="124" x="844" y="988.0752">+ChatLogPanel():</text><text fill="#000000" font-family="Verdana" font-size="14" lengthAdjust="spacing" textLength="250" x="844" y="1005.0898">-createTitledBorder(String): Border</text></g><!--class SidebarPanel--><g id="elem_SidebarPanel"><rect codeLine="47" fill="#FFFFFF" height="70.0293" id="SidebarPanel" rx="2.5" ry="2.5" style="stroke:#000000;stroke-width:1.0;" width="262" x="508" y="974"/><ellipse cx="590.75" cy="988" fill="#FFFFFF" rx="9" ry="9" style="stroke:#000000;stroke-width:1.0;"/><path d="M593.5156,989.5313 L595.9063,990.2813 Q595.3594,992.2656 594.0781,993.2344 Q592.8125,994.2031 590.8438,994.2031 Q588.4219,994.2031 586.8594,992.5469 Q585.3125,990.8906 585.3125,988.0156 Q585.3125,984.9844 586.875,983.3125 Q588.4375,981.625 591,981.625 Q593.2344,981.625 594.625,982.9375 Q595.4531,983.7188 595.875,985.1875 L593.4375,985.7656 Q593.2188,984.8125 592.5313,984.2656 Q591.8594,983.7188 590.875,983.7188 Q589.5156,983.7188 588.6719,984.7031 Q587.8438,985.6719 587.8438,987.8438 Q587.8438,990.1406 588.6719,991.125 Q589.5,992.1094 590.8281,992.1094 Q591.8125,992.1094 592.5156,991.4844 Q593.2188,990.8594 593.5156,989.5313 Z " fill="#000000"/><text fill="#000000" font-family="Verdana" font-size="14" lengthAdjust="spacing" textLength="89" x="608.25" y="993.5679">SidebarPanel</text><line style="stroke:#000000;stroke-width:1.0;" x1="509" x2="769" y1="1002" y2="1002"/><text fill="#000000" font-family="Verdana" font-size="14" lengthAdjust="spacing" textLength="118" x="514" y="1020.0752">+SidebarPanel():</text><text fill="#000000" font-family="Verdana" font-size="14" lengthAdjust="spacing" textLength="250" x="514" y="1037.0898">-createTitledBorder(String): Border</text></g><!--class SidebarButton--><g id="elem_SidebarButton"><rect codeLine="51" fill="#FFFFFF" height="53.0146" id="SidebarButton" rx="2.5" ry="2.5" style="stroke:#000000;stroke-width:1.0;" width="186" x="1288" y="1022.5"/><ellipse cx="1326.25" cy="1036.5" fill="#FFFFFF" rx="9" ry="9" style="stroke:#000000;stroke-width:1.0;"/><path d="M1329.0156,1038.0313 L1331.4063,1038.7813 Q1330.8594,1040.7656 1329.5781,1041.7344 Q1328.3125,1042.7031 1326.3438,1042.7031 Q1323.9219,1042.7031 1322.3594,1041.0469 Q1320.8125,1039.3906 1320.8125,1036.5156 Q1320.8125,1033.4844 1322.375,1031.8125 Q1323.9375,1030.125 1326.5,1030.125 Q1328.7344,1030.125 1330.125,1031.4375 Q1330.9531,1032.2188 1331.375,1033.6875 L1328.9375,1034.2656 Q1328.7188,1033.3125 1328.0313,1032.7656 Q1327.3594,1032.2188 1326.375,1032.2188 Q1325.0156,1032.2188 1324.1719,1033.2031 Q1323.3438,1034.1719 1323.3438,1036.3438 Q1323.3438,1038.6406 1324.1719,1039.625 Q1325,1040.6094 1326.3281,1040.6094 Q1327.3125,1040.6094 1328.0156,1039.9844 Q1328.7188,1039.3594 1329.0156,1038.0313 Z " fill="#000000"/><text fill="#000000" font-family="Verdana" font-size="14" lengthAdjust="spacing" textLength="102" x="1343.75" y="1042.0679">SidebarButton</text><line style="stroke:#000000;stroke-width:1.0;" x1="1289" x2="1473" y1="1050.5" y2="1050.5"/><text fill="#000000" font-family="Verdana" font-size="14" lengthAdjust="spacing" textLength="174" x="1294" y="1068.5752">+SidebarButton(String):</text></g><!--class MainMenu--><g id="elem_MainMenu"><rect codeLine="59" fill="#FFFFFF" height="53.0146" id="MainMenu" rx="2.5" ry="2.5" style="stroke:#000000;stroke-width:1.0;" width="109" x="308.5" y="705.5"/><ellipse cx="327.35" cy="719.5" fill="#FFFFFF" rx="9" ry="9" style="stroke:#000000;stroke-width:1.0;"/><path d="M330.1156,721.0313 L332.5063,721.7813 Q331.9594,723.7656 330.6781,724.7344 Q329.4125,725.7031 327.4438,725.7031 Q325.0219,725.7031 323.4594,724.0469 Q321.9125,722.3906 321.9125,719.5156 Q321.9125,716.4844 323.475,714.8125 Q325.0375,713.125 327.6,713.125 Q329.8344,713.125 331.225,714.4375 Q332.0531,715.2188 332.475,716.6875 L330.0375,717.2656 Q329.8188,716.3125 329.1313,715.7656 Q328.4594,715.2188 327.475,715.2188 Q326.1156,715.2188 325.2719,716.2031 Q324.4438,717.1719 324.4438,719.3438 Q324.4438,721.6406 325.2719,722.625 Q326.1,723.6094 327.4281,723.6094 Q328.4125,723.6094 329.1156,722.9844 Q329.8188,722.3594 330.1156,721.0313 Z " fill="#000000"/><text fill="#000000" font-family="Verdana" font-size="14" lengthAdjust="spacing" textLength="68" x="340.65" y="725.0679">MainMenu</text><line style="stroke:#000000;stroke-width:1.0;" x1="309.5" x2="416.5" y1="733.5" y2="733.5"/><text fill="#000000" font-family="Verdana" font-size="14" lengthAdjust="spacing" textLength="97" x="314.5" y="751.5752">+MainMenu():</text></g><!--class MenuButton--><g id="elem_MenuButton"><rect codeLine="62" fill="#FFFFFF" height="53.0146" id="MenuButton" rx="2.5" ry="2.5" style="stroke:#000000;stroke-width:1.0;" width="170" x="278" y="768.5"/><ellipse cx="316.25" cy="782.5" fill="#FFFFFF" rx="9" ry="9" style="stroke:#000000;stroke-width:1.0;"/><path d="M319.0156,784.0313 L321.4063,784.7813 Q320.8594,786.7656 319.5781,787.7344 Q318.3125,788.7031 316.3438,788.7031 Q313.9219,788.7031 312.3594,787.0469 Q310.8125,785.3906 310.8125,782.5156 Q310.8125,779.4844 312.375,777.8125 Q313.9375,776.125 316.5,776.125 Q318.7344,776.125 320.125,777.4375 Q320.9531,778.2188 321.375,779.6875 L318.9375,780.2656 Q318.7188,779.3125 318.0313,778.7656 Q317.3594,778.2188 316.375,778.2188 Q315.0156,778.2188 314.1719,779.2031 Q313.3438,780.1719 313.3438,782.3438 Q313.3438,784.6406 314.1719,785.625 Q315,786.6094 316.3281,786.6094 Q317.3125,786.6094 318.0156,785.9844 Q318.7188,785.3594 319.0156,784.0313 Z " fill="#000000"/><text fill="#000000" font-family="Verdana" font-size="14" lengthAdjust="spacing" textLength="86" x="333.75" y="788.0679">MenuButton</text><line style="stroke:#000000;stroke-width:1.0;" x1="279" x2="447" y1="796.5" y2="796.5"/><text fill="#000000" font-family="Verdana" font-size="14" lengthAdjust="spacing" textLength="158" x="284" y="814.5752">+MenuButton(String):</text></g><!--class VItem--><g id="elem_VItem"><rect codeLine="69" fill="#FFFFFF" height="87.0439" id="VItem" rx="2.5" ry="2.5" style="stroke:#000000;stroke-width:1.0;" width="253" x="1987" y="200.5"/><ellipse cx="2088.75" cy="214.5" fill="#FFFFFF" rx="9" ry="9" style="stroke:#000000;stroke-width:1.0;"/><path d="M2091.5156,216.0313 L2093.9063,216.7813 Q2093.3594,218.7656 2092.0781,219.7344 Q2090.8125,220.7031 2088.8438,220.7031 Q2086.4219,220.7031 2084.8594,219.0469 Q2083.3125,217.3906 2083.3125,214.5156 Q2083.3125,211.4844 2084.875,209.8125 Q2086.4375,208.125 2089,208.125 Q2091.2344,208.125 2092.625,209.4375 Q2093.4531,210.2188 2093.875,211.6875 L2091.4375,212.2656 Q2091.2188,211.3125 2090.5313,210.7656 Q2089.8594,210.2188 2088.875,210.2188 Q2087.5156,210.2188 2086.6719,211.2031 Q2085.8438,212.1719 2085.8438,214.3438 Q2085.8438,216.6406 2086.6719,217.625 Q2087.5,218.6094 2088.8281,218.6094 Q2089.8125,218.6094 2090.5156,217.9844 Q2091.2188,217.3594 2091.5156,216.0313 Z " fill="#000000"/><text fill="#000000" font-family="Verdana" font-size="14" lengthAdjust="spacing" textLength="42" x="2106.25" y="220.0679">VItem</text><line style="stroke:#000000;stroke-width:1.0;" x1="1988" x2="2239" y1="228.5" y2="228.5"/><text fill="#000000" font-family="Verdana" font-size="14" lengthAdjust="spacing" textLength="170" x="1993" y="246.5752">#VItem(int, int, String):</text><text fill="#000000" font-family="Verdana" font-size="14" lengthAdjust="spacing" textLength="178" x="1993" y="263.5898">#loadImage(String): void</text><text fill="#000000" font-family="Verdana" font-size="14" lengthAdjust="spacing" textLength="241" x="1993" y="280.6045">+paintComponent(Graphics): void</text></g><!--class VInsect--><g id="elem_VInsect"><rect codeLine="74" fill="#FFFFFF" height="53.0146" id="VInsect" rx="2.5" ry="2.5" style="stroke:#000000;stroke-width:1.0;" width="193" x="1694" y="91.5"/><ellipse cx="1760.25" cy="105.5" fill="#FFFFFF" rx="9" ry="9" style="stroke:#000000;stroke-width:1.0;"/><path d="M1763.0156,107.0313 L1765.4063,107.7813 Q1764.8594,109.7656 1763.5781,110.7344 Q1762.3125,111.7031 1760.3438,111.7031 Q1757.9219,111.7031 1756.3594,110.0469 Q1754.8125,108.3906 1754.8125,105.5156 Q1754.8125,102.4844 1756.375,100.8125 Q1757.9375,99.125 1760.5,99.125 Q1762.7344,99.125 1764.125,100.4375 Q1764.9531,101.2188 1765.375,102.6875 L1762.9375,103.2656 Q1762.7188,102.3125 1762.0313,101.7656 Q1761.3594,101.2188 1760.375,101.2188 Q1759.0156,101.2188 1758.1719,102.2031 Q1757.3438,103.1719 1757.3438,105.3438 Q1757.3438,107.6406 1758.1719,108.625 Q1759,109.6094 1760.3281,109.6094 Q1761.3125,109.6094 1762.0156,108.9844 Q1762.7188,108.3594 1763.0156,107.0313 Z " fill="#000000"/><text fill="#000000" font-family="Verdana" font-size="14" lengthAdjust="spacing" textLength="53" x="1777.75" y="111.0679">VInsect</text><line style="stroke:#000000;stroke-width:1.0;" x1="1695" x2="1886" y1="119.5" y2="119.5"/><text fill="#000000" font-family="Verdana" font-size="14" lengthAdjust="spacing" textLength="181" x="1700" y="137.5752">+VInsect(int, int, String):</text></g><!--class VMushroomStem--><g id="elem_VMushroomStem"><rect codeLine="77" fill="#FFFFFF" height="53.0146" id="VMushroomStem" rx="2.5" ry="2.5" style="stroke:#000000;stroke-width:1.0;" width="261" x="1660" y="154.5"/><ellipse cx="1726.25" cy="168.5" fill="#FFFFFF" rx="9" ry="9" style="stroke:#000000;stroke-width:1.0;"/><path d="M1729.0156,170.0313 L1731.4063,170.7813 Q1730.8594,172.7656 1729.5781,173.7344 Q1728.3125,174.7031 1726.3438,174.7031 Q1723.9219,174.7031 1722.3594,173.0469 Q1720.8125,171.3906 1720.8125,168.5156 Q1720.8125,165.4844 1722.375,163.8125 Q1723.9375,162.125 1726.5,162.125 Q1728.7344,162.125 1730.125,163.4375 Q1730.9531,164.2188 1731.375,165.6875 L1728.9375,166.2656 Q1728.7188,165.3125 1728.0313,164.7656 Q1727.3594,164.2188 1726.375,164.2188 Q1725.0156,164.2188 1724.1719,165.2031 Q1723.3438,166.1719 1723.3438,168.3438 Q1723.3438,170.6406 1724.1719,171.625 Q1725,172.6094 1726.3281,172.6094 Q1727.3125,172.6094 1728.0156,171.9844 Q1728.7188,171.3594 1729.0156,170.0313 Z " fill="#000000"/><text fill="#000000" font-family="Verdana" font-size="14" lengthAdjust="spacing" textLength="121" x="1743.75" y="174.0679">VMushroomStem</text><line style="stroke:#000000;stroke-width:1.0;" x1="1661" x2="1920" y1="182.5" y2="182.5"/><text fill="#000000" font-family="Verdana" font-size="14" lengthAdjust="spacing" textLength="249" x="1666" y="200.5752">+VMushroomStem(int, int, String):</text></g><!--class VMushroomThread--><g id="elem_VMushroomThread"><rect codeLine="80" fill="#FFFFFF" height="53.0146" id="VMushroomThread" rx="2.5" ry="2.5" style="stroke:#000000;stroke-width:1.0;" width="273" x="1654" y="217.5"/><ellipse cx="1720.25" cy="231.5" fill="#FFFFFF" rx="9" ry="9" style="stroke:#000000;stroke-width:1.0;"/><path d="M1723.0156,233.0313 L1725.4063,233.7813 Q1724.8594,235.7656 1723.5781,236.7344 Q1722.3125,237.7031 1720.3438,237.7031 Q1717.9219,237.7031 1716.3594,236.0469 Q1714.8125,234.3906 1714.8125,231.5156 Q1714.8125,228.4844 1716.375,226.8125 Q1717.9375,225.125 1720.5,225.125 Q1722.7344,225.125 1724.125,226.4375 Q1724.9531,227.2188 1725.375,228.6875 L1722.9375,229.2656 Q1722.7188,228.3125 1722.0313,227.7656 Q1721.3594,227.2188 1720.375,227.2188 Q1719.0156,227.2188 1718.1719,228.2031 Q1717.3438,229.1719 1717.3438,231.3438 Q1717.3438,233.6406 1718.1719,234.625 Q1719,235.6094 1720.3281,235.6094 Q1721.3125,235.6094 1722.0156,234.9844 Q1722.7188,234.3594 1723.0156,233.0313 Z " fill="#000000"/><text fill="#000000" font-family="Verdana" font-size="14" lengthAdjust="spacing" textLength="133" x="1737.75" y="237.0679">VMushroomThread</text><line style="stroke:#000000;stroke-width:1.0;" x1="1655" x2="1926" y1="245.5" y2="245.5"/><text fill="#000000" font-family="Verdana" font-size="14" lengthAdjust="spacing" textLength="261" x="1660" y="263.5752">#VMushroomThread(int, int, String):</text></g><!--class VSpore--><g id="elem_VSpore"><rect codeLine="83" fill="#FFFFFF" height="53.0146" id="VSpore" rx="2.5" ry="2.5" style="stroke:#000000;stroke-width:1.0;" width="192" x="1694.5" y="280.5"/><ellipse cx="1760.75" cy="294.5" fill="#FFFFFF" rx="9" ry="9" style="stroke:#000000;stroke-width:1.0;"/><path d="M1763.5156,296.0313 L1765.9063,296.7813 Q1765.3594,298.7656 1764.0781,299.7344 Q1762.8125,300.7031 1760.8438,300.7031 Q1758.4219,300.7031 1756.8594,299.0469 Q1755.3125,297.3906 1755.3125,294.5156 Q1755.3125,291.4844 1756.875,289.8125 Q1758.4375,288.125 1761,288.125 Q1763.2344,288.125 1764.625,289.4375 Q1765.4531,290.2188 1765.875,291.6875 L1763.4375,292.2656 Q1763.2188,291.3125 1762.5313,290.7656 Q1761.8594,290.2188 1760.875,290.2188 Q1759.5156,290.2188 1758.6719,291.2031 Q1757.8438,292.1719 1757.8438,294.3438 Q1757.8438,296.6406 1758.6719,297.625 Q1759.5,298.6094 1760.8281,298.6094 Q1761.8125,298.6094 1762.5156,297.9844 Q1763.2188,297.3594 1763.5156,296.0313 Z " fill="#000000"/><text fill="#000000" font-family="Verdana" font-size="14" lengthAdjust="spacing" textLength="52" x="1778.25" y="300.0679">VSpore</text><line style="stroke:#000000;stroke-width:1.0;" x1="1695.5" x2="1885.5" y1="308.5" y2="308.5"/><text fill="#000000" font-family="Verdana" font-size="14" lengthAdjust="spacing" textLength="180" x="1700.5" y="326.5752">#VSpore(int, int, String):</text></g><!--class VClawParalyzingSpore--><g id="elem_VClawParalyzingSpore"><rect codeLine="86" fill="#FFFFFF" height="53.0146" id="VClawParalyzingSpore" rx="2.5" ry="2.5" style="stroke:#000000;stroke-width:1.0;" width="294" x="1234" y="280.5"/><ellipse cx="1300.25" cy="294.5" fill="#FFFFFF" rx="9" ry="9" style="stroke:#000000;stroke-width:1.0;"/><path d="M1303.0156,296.0313 L1305.4063,296.7813 Q1304.8594,298.7656 1303.5781,299.7344 Q1302.3125,300.7031 1300.3438,300.7031 Q1297.9219,300.7031 1296.3594,299.0469 Q1294.8125,297.3906 1294.8125,294.5156 Q1294.8125,291.4844 1296.375,289.8125 Q1297.9375,288.125 1300.5,288.125 Q1302.7344,288.125 1304.125,289.4375 Q1304.9531,290.2188 1305.375,291.6875 L1302.9375,292.2656 Q1302.7188,291.3125 1302.0313,290.7656 Q1301.3594,290.2188 1300.375,290.2188 Q1299.0156,290.2188 1298.1719,291.2031 Q1297.3438,292.1719 1297.3438,294.3438 Q1297.3438,296.6406 1298.1719,297.625 Q1299,298.6094 1300.3281,298.6094 Q1301.3125,298.6094 1302.0156,297.9844 Q1302.7188,297.3594 1303.0156,296.0313 Z " fill="#000000"/><text fill="#000000" font-family="Verdana" font-size="14" lengthAdjust="spacing" textLength="154" x="1317.75" y="300.0679">VClawParalyzingSpore</text><line style="stroke:#000000;stroke-width:1.0;" x1="1235" x2="1527" y1="308.5" y2="308.5"/><text fill="#000000" font-family="Verdana" font-size="14" lengthAdjust="spacing" textLength="282" x="1240" y="326.5752">+VClawParalyzingSpore(int, int, String):</text></g><!--class VParalyzingSpore--><g id="elem_VParalyzingSpore"><rect codeLine="89" fill="#FFFFFF" height="53.0146" id="VParalyzingSpore" rx="2.5" ry="2.5" style="stroke:#000000;stroke-width:1.0;" width="262" x="1250" y="343.5"/><ellipse cx="1316.25" cy="357.5" fill="#FFFFFF" rx="9" ry="9" style="stroke:#000000;stroke-width:1.0;"/><path d="M1319.0156,359.0313 L1321.4063,359.7813 Q1320.8594,361.7656 1319.5781,362.7344 Q1318.3125,363.7031 1316.3438,363.7031 Q1313.9219,363.7031 1312.3594,362.0469 Q1310.8125,360.3906 1310.8125,357.5156 Q1310.8125,354.4844 1312.375,352.8125 Q1313.9375,351.125 1316.5,351.125 Q1318.7344,351.125 1320.125,352.4375 Q1320.9531,353.2188 1321.375,354.6875 L1318.9375,355.2656 Q1318.7188,354.3125 1318.0313,353.7656 Q1317.3594,353.2188 1316.375,353.2188 Q1315.0156,353.2188 1314.1719,354.2031 Q1313.3438,355.1719 1313.3438,357.3438 Q1313.3438,359.6406 1314.1719,360.625 Q1315,361.6094 1316.3281,361.6094 Q1317.3125,361.6094 1318.0156,360.9844 Q1318.7188,360.3594 1319.0156,359.0313 Z " fill="#000000"/><text fill="#000000" font-family="Verdana" font-size="14" lengthAdjust="spacing" textLength="122" x="1333.75" y="363.0679">VParalyzingSpore</text><line style="stroke:#000000;stroke-width:1.0;" x1="1251" x2="1511" y1="371.5" y2="371.5"/><text fill="#000000" font-family="Verdana" font-size="14" lengthAdjust="spacing" textLength="250" x="1256" y="389.5752">+VParalyzingSpore(int, int, String):</text></g><!--class VSlowingSpore--><g id="elem_VSlowingSpore"><rect codeLine="92" fill="#FFFFFF" height="53.0146" id="VSlowingSpore" rx="2.5" ry="2.5" style="stroke:#000000;stroke-width:1.0;" width="246" x="1258" y="91.5"/><ellipse cx="1324.25" cy="105.5" fill="#FFFFFF" rx="9" ry="9" style="stroke:#000000;stroke-width:1.0;"/><path d="M1327.0156,107.0313 L1329.4063,107.7813 Q1328.8594,109.7656 1327.5781,110.7344 Q1326.3125,111.7031 1324.3438,111.7031 Q1321.9219,111.7031 1320.3594,110.0469 Q1318.8125,108.3906 1318.8125,105.5156 Q1318.8125,102.4844 1320.375,100.8125 Q1321.9375,99.125 1324.5,99.125 Q1326.7344,99.125 1328.125,100.4375 Q1328.9531,101.2188 1329.375,102.6875 L1326.9375,103.2656 Q1326.7188,102.3125 1326.0313,101.7656 Q1325.3594,101.2188 1324.375,101.2188 Q1323.0156,101.2188 1322.1719,102.2031 Q1321.3438,103.1719 1321.3438,105.3438 Q1321.3438,107.6406 1322.1719,108.625 Q1323,109.6094 1324.3281,109.6094 Q1325.3125,109.6094 1326.0156,108.9844 Q1326.7188,108.3594 1327.0156,107.0313 Z " fill="#000000"/><text fill="#000000" font-family="Verdana" font-size="14" lengthAdjust="spacing" textLength="106" x="1341.75" y="111.0679">VSlowingSpore</text><line style="stroke:#000000;stroke-width:1.0;" x1="1259" x2="1503" y1="119.5" y2="119.5"/><text fill="#000000" font-family="Verdana" font-size="14" lengthAdjust="spacing" textLength="234" x="1264" y="137.5752">+VSlowingSpore(int, int, String):</text></g><!--class VSpeedingSpore--><g id="elem_VSpeedingSpore"><rect codeLine="95" fill="#FFFFFF" height="53.0146" id="VSpeedingSpore" rx="2.5" ry="2.5" style="stroke:#000000;stroke-width:1.0;" width="257" x="1252.5" y="154.5"/><ellipse cx="1318.75" cy="168.5" fill="#FFFFFF" rx="9" ry="9" style="stroke:#000000;stroke-width:1.0;"/><path d="M1321.5156,170.0313 L1323.9063,170.7813 Q1323.3594,172.7656 1322.0781,173.7344 Q1320.8125,174.7031 1318.8438,174.7031 Q1316.4219,174.7031 1314.8594,173.0469 Q1313.3125,171.3906 1313.3125,168.5156 Q1313.3125,165.4844 1314.875,163.8125 Q1316.4375,162.125 1319,162.125 Q1321.2344,162.125 1322.625,163.4375 Q1323.4531,164.2188 1323.875,165.6875 L1321.4375,166.2656 Q1321.2188,165.3125 1320.5313,164.7656 Q1319.8594,164.2188 1318.875,164.2188 Q1317.5156,164.2188 1316.6719,165.2031 Q1315.8438,166.1719 1315.8438,168.3438 Q1315.8438,170.6406 1316.6719,171.625 Q1317.5,172.6094 1318.8281,172.6094 Q1319.8125,172.6094 1320.5156,171.9844 Q1321.2188,171.3594 1321.5156,170.0313 Z " fill="#000000"/><text fill="#000000" font-family="Verdana" font-size="14" lengthAdjust="spacing" textLength="117" x="1336.25" y="174.0679">VSpeedingSpore</text><line style="stroke:#000000;stroke-width:1.0;" x1="1253.5" x2="1508.5" y1="182.5" y2="182.5"/><text fill="#000000" font-family="Verdana" font-size="14" lengthAdjust="spacing" textLength="245" x="1258.5" y="200.5752">+VSpeedingSpore(int, int, String):</text></g><!--class VSplitterSpore--><g id="elem_VSplitterSpore"><rect codeLine="98" fill="#FFFFFF" height="53.0146" id="VSplitterSpore" rx="2.5" ry="2.5" style="stroke:#000000;stroke-width:1.0;" width="243" x="1259.5" y="217.5"/><ellipse cx="1325.75" cy="231.5" fill="#FFFFFF" rx="9" ry="9" style="stroke:#000000;stroke-width:1.0;"/><path d="M1328.5156,233.0313 L1330.9063,233.7813 Q1330.3594,235.7656 1329.0781,236.7344 Q1327.8125,237.7031 1325.8438,237.7031 Q1323.4219,237.7031 1321.8594,236.0469 Q1320.3125,234.3906 1320.3125,231.5156 Q1320.3125,228.4844 1321.875,226.8125 Q1323.4375,225.125 1326,225.125 Q1328.2344,225.125 1329.625,226.4375 Q1330.4531,227.2188 1330.875,228.6875 L1328.4375,229.2656 Q1328.2188,228.3125 1327.5313,227.7656 Q1326.8594,227.2188 1325.875,227.2188 Q1324.5156,227.2188 1323.6719,228.2031 Q1322.8438,229.1719 1322.8438,231.3438 Q1322.8438,233.6406 1323.6719,234.625 Q1324.5,235.6094 1325.8281,235.6094 Q1326.8125,235.6094 1327.5156,234.9844 Q1328.2188,234.3594 1328.5156,233.0313 Z " fill="#000000"/><text fill="#000000" font-family="Verdana" font-size="14" lengthAdjust="spacing" textLength="103" x="1343.25" y="237.0679">VSplitterSpore</text><line style="stroke:#000000;stroke-width:1.0;" x1="1260.5" x2="1501.5" y1="245.5" y2="245.5"/><text fill="#000000" font-family="Verdana" font-size="14" lengthAdjust="spacing" textLength="231" x="1265.5" y="263.5752">+VSplitterSpore(int, int, String):</text></g><!--class VTecton--><g id="elem_VTecton"><rect codeLine="101" fill="#FFFFFF" height="70.0293" id="VTecton" rx="2.5" ry="2.5" style="stroke:#000000;stroke-width:1.0;" width="198" x="1691.5" y="579"/><ellipse cx="1757.75" cy="593" fill="#FFFFFF" rx="9" ry="9" style="stroke:#000000;stroke-width:1.0;"/><path d="M1760.5156,594.5313 L1762.9063,595.2813 Q1762.3594,597.2656 1761.0781,598.2344 Q1759.8125,599.2031 1757.8438,599.2031 Q1755.4219,599.2031 1753.8594,597.5469 Q1752.3125,595.8906 1752.3125,593.0156 Q1752.3125,589.9844 1753.875,588.3125 Q1755.4375,586.625 1758,586.625 Q1760.2344,586.625 1761.625,587.9375 Q1762.4531,588.7188 1762.875,590.1875 L1760.4375,590.7656 Q1760.2188,589.8125 1759.5313,589.2656 Q1758.8594,588.7188 1757.875,588.7188 Q1756.5156,588.7188 1755.6719,589.7031 Q1754.8438,590.6719 1754.8438,592.8438 Q1754.8438,595.1406 1755.6719,596.125 Q1756.5,597.1094 1757.8281,597.1094 Q1758.8125,597.1094 1759.5156,596.4844 Q1760.2188,595.8594 1760.5156,594.5313 Z " fill="#000000"/><text fill="#000000" font-family="Verdana" font-size="14" lengthAdjust="spacing" textLength="58" x="1775.25" y="598.5679">VTecton</text><line style="stroke:#000000;stroke-width:1.0;" x1="1692.5" x2="1888.5" y1="607" y2="607"/><text fill="#000000" font-family="Verdana" font-size="14" lengthAdjust="spacing" textLength="186" x="1697.5" y="625.0752">+VTecton(int, int, String):</text><text fill="#000000" font-family="Verdana" font-size="14" lengthAdjust="spacing" textLength="154" x="1697.5" y="642.0898">+drawContent(): void</text></g><!--class VSingleThreadedTecton--><g id="elem_VSingleThreadedTecton"><rect codeLine="105" fill="#FFFFFF" height="53.0146" id="VSingleThreadedTecton" rx="2.5" ry="2.5" style="stroke:#000000;stroke-width:1.0;" width="306" x="1228" y="705.5"/><ellipse cx="1294.25" cy="719.5" fill="#FFFFFF" rx="9" ry="9" style="stroke:#000000;stroke-width:1.0;"/><path d="M1297.0156,721.0313 L1299.4063,721.7813 Q1298.8594,723.7656 1297.5781,724.7344 Q1296.3125,725.7031 1294.3438,725.7031 Q1291.9219,725.7031 1290.3594,724.0469 Q1288.8125,722.3906 1288.8125,719.5156 Q1288.8125,716.4844 1290.375,714.8125 Q1291.9375,713.125 1294.5,713.125 Q1296.7344,713.125 1298.125,714.4375 Q1298.9531,715.2188 1299.375,716.6875 L1296.9375,717.2656 Q1296.7188,716.3125 1296.0313,715.7656 Q1295.3594,715.2188 1294.375,715.2188 Q1293.0156,715.2188 1292.1719,716.2031 Q1291.3438,717.1719 1291.3438,719.3438 Q1291.3438,721.6406 1292.1719,722.625 Q1293,723.6094 1294.3281,723.6094 Q1295.3125,723.6094 1296.0156,722.9844 Q1296.7188,722.3594 1297.0156,721.0313 Z " fill="#000000"/><text fill="#000000" font-family="Verdana" font-size="14" lengthAdjust="spacing" textLength="166" x="1311.75" y="725.0679">VSingleThreadedTecton</text><line style="stroke:#000000;stroke-width:1.0;" x1="1229" x2="1533" y1="733.5" y2="733.5"/><text fill="#000000" font-family="Verdana" font-size="14" lengthAdjust="spacing" textLength="294" x="1234" y="751.5752">+VSingleThreadedTecton(int, int, String):</text></g><!--class VStemlessTecton--><g id="elem_VStemlessTecton"><rect codeLine="108" fill="#FFFFFF" height="53.0146" id="VStemlessTecton" rx="2.5" ry="2.5" style="stroke:#000000;stroke-width:1.0;" width="262" x="1250" y="768.5"/><ellipse cx="1316.25" cy="782.5" fill="#FFFFFF" rx="9" ry="9" style="stroke:#000000;stroke-width:1.0;"/><path d="M1319.0156,784.0313 L1321.4063,784.7813 Q1320.8594,786.7656 1319.5781,787.7344 Q1318.3125,788.7031 1316.3438,788.7031 Q1313.9219,788.7031 1312.3594,787.0469 Q1310.8125,785.3906 1310.8125,782.5156 Q1310.8125,779.4844 1312.375,777.8125 Q1313.9375,776.125 1316.5,776.125 Q1318.7344,776.125 1320.125,777.4375 Q1320.9531,778.2188 1321.375,779.6875 L1318.9375,780.2656 Q1318.7188,779.3125 1318.0313,778.7656 Q1317.3594,778.2188 1316.375,778.2188 Q1315.0156,778.2188 1314.1719,779.2031 Q1313.3438,780.1719 1313.3438,782.3438 Q1313.3438,784.6406 1314.1719,785.625 Q1315,786.6094 1316.3281,786.6094 Q1317.3125,786.6094 1318.0156,785.9844 Q1318.7188,785.3594 1319.0156,784.0313 Z " fill="#000000"/><text fill="#000000" font-family="Verdana" font-size="14" lengthAdjust="spacing" textLength="122" x="1333.75" y="788.0679">VStemlessTecton</text><line style="stroke:#000000;stroke-width:1.0;" x1="1251" x2="1511" y1="796.5" y2="796.5"/><text fill="#000000" font-family="Verdana" font-size="14" lengthAdjust="spacing" textLength="250" x="1256" y="814.5752">+VStemlessTecton(int, int, String):</text></g><!--class VSupportTecton--><g id="elem_VSupportTecton"><rect codeLine="111" fill="#FFFFFF" height="53.0146" id="VSupportTecton" rx="2.5" ry="2.5" style="stroke:#000000;stroke-width:1.0;" width="256" x="1253" y="406.5"/><ellipse cx="1319.25" cy="420.5" fill="#FFFFFF" rx="9" ry="9" style="stroke:#000000;stroke-width:1.0;"/><path d="M1322.0156,422.0313 L1324.4063,422.7813 Q1323.8594,424.7656 1322.5781,425.7344 Q1321.3125,426.7031 1319.3438,426.7031 Q1316.9219,426.7031 1315.3594,425.0469 Q1313.8125,423.3906 1313.8125,420.5156 Q1313.8125,417.4844 1315.375,415.8125 Q1316.9375,414.125 1319.5,414.125 Q1321.7344,414.125 1323.125,415.4375 Q1323.9531,416.2188 1324.375,417.6875 L1321.9375,418.2656 Q1321.7188,417.3125 1321.0313,416.7656 Q1320.3594,416.2188 1319.375,416.2188 Q1318.0156,416.2188 1317.1719,417.2031 Q1316.3438,418.1719 1316.3438,420.3438 Q1316.3438,422.6406 1317.1719,423.625 Q1318,424.6094 1319.3281,424.6094 Q1320.3125,424.6094 1321.0156,423.9844 Q1321.7188,423.3594 1322.0156,422.0313 Z " fill="#000000"/><text fill="#000000" font-family="Verdana" font-size="14" lengthAdjust="spacing" textLength="116" x="1336.75" y="426.0679">VSupportTecton</text><line style="stroke:#000000;stroke-width:1.0;" x1="1254" x2="1508" y1="434.5" y2="434.5"/><text fill="#000000" font-family="Verdana" font-size="14" lengthAdjust="spacing" textLength="244" x="1259" y="452.5752">+VSupportTecton(int, int, String):</text></g><!--class VThreadConsumingTecton--><g id="elem_VThreadConsumingTecton"><rect codeLine="114" fill="#FFFFFF" height="53.0146" id="VThreadConsumingTecton" rx="2.5" ry="2.5" style="stroke:#000000;stroke-width:1.0;" width="326" x="1218" y="469.5"/><ellipse cx="1284.25" cy="483.5" fill="#FFFFFF" rx="9" ry="9" style="stroke:#000000;stroke-width:1.0;"/><path d="M1287.0156,485.0313 L1289.4063,485.7813 Q1288.8594,487.7656 1287.5781,488.7344 Q1286.3125,489.7031 1284.3438,489.7031 Q1281.9219,489.7031 1280.3594,488.0469 Q1278.8125,486.3906 1278.8125,483.5156 Q1278.8125,480.4844 1280.375,478.8125 Q1281.9375,477.125 1284.5,477.125 Q1286.7344,477.125 1288.125,478.4375 Q1288.9531,479.2188 1289.375,480.6875 L1286.9375,481.2656 Q1286.7188,480.3125 1286.0313,479.7656 Q1285.3594,479.2188 1284.375,479.2188 Q1283.0156,479.2188 1282.1719,480.2031 Q1281.3438,481.1719 1281.3438,483.3438 Q1281.3438,485.6406 1282.1719,486.625 Q1283,487.6094 1284.3281,487.6094 Q1285.3125,487.6094 1286.0156,486.9844 Q1286.7188,486.3594 1287.0156,485.0313 Z " fill="#000000"/><text fill="#000000" font-family="Verdana" font-size="14" lengthAdjust="spacing" textLength="186" x="1301.75" y="489.0679">VThreadConsumingTecton</text><line style="stroke:#000000;stroke-width:1.0;" x1="1219" x2="1543" y1="497.5" y2="497.5"/><text fill="#000000" font-family="Verdana" font-size="14" lengthAdjust="spacing" textLength="314" x="1224" y="515.5752">+VThreadConsumingTecton(int, int, String):</text></g><!--class VMushroomThreadConnection--><g id="elem_VMushroomThreadConnection"><rect codeLine="117" fill="#FFFFFF" height="163.1025" id="VMushroomThreadConnection" rx="2.5" ry="2.5" style="stroke:#000000;stroke-width:1.0;" width="426" x="1168" y="532.5"/><ellipse cx="1271.25" cy="546.5" fill="#FFFFFF" rx="9" ry="9" style="stroke:#000000;stroke-width:1.0;"/><path d="M1274.0156,548.0313 L1276.4063,548.7813 Q1275.8594,550.7656 1274.5781,551.7344 Q1273.3125,552.7031 1271.3438,552.7031 Q1268.9219,552.7031 1267.3594,551.0469 Q1265.8125,549.3906 1265.8125,546.5156 Q1265.8125,543.4844 1267.375,541.8125 Q1268.9375,540.125 1271.5,540.125 Q1273.7344,540.125 1275.125,541.4375 Q1275.9531,542.2188 1276.375,543.6875 L1273.9375,544.2656 Q1273.7188,543.3125 1273.0313,542.7656 Q1272.3594,542.2188 1271.375,542.2188 Q1270.0156,542.2188 1269.1719,543.2031 Q1268.3438,544.1719 1268.3438,546.3438 Q1268.3438,548.6406 1269.1719,549.625 Q1270,550.6094 1271.3281,550.6094 Q1272.3125,550.6094 1273.0156,549.9844 Q1273.7188,549.3594 1274.0156,548.0313 Z " fill="#000000"/><text fill="#000000" font-family="Verdana" font-size="14" lengthAdjust="spacing" textLength="212" x="1288.75" y="552.0679">VMushroomThreadConnection</text><line style="stroke:#000000;stroke-width:1.0;" x1="1169" x2="1593" y1="560.5" y2="560.5"/><text fill="#000000" font-family="Verdana" font-size="14" lengthAdjust="spacing" textLength="89" x="1174" y="578.5752">-color: Color</text><text fill="#000000" font-family="Verdana" font-size="14" lengthAdjust="spacing" textLength="102" x="1174" y="595.5898">-end: VTecton</text><text fill="#000000" font-family="Verdana" font-size="14" lengthAdjust="spacing" textLength="110" x="1174" y="612.6045">-start: VTecton</text><text fill="#000000" font-family="Verdana" font-size="14" lengthAdjust="spacing" textLength="102" x="1174" y="629.6191">-thickness: int</text><line style="stroke:#000000;stroke-width:1.0;" x1="1169" x2="1593" y1="636.5586" y2="636.5586"/><text fill="#000000" font-family="Verdana" font-size="14" lengthAdjust="spacing" textLength="414" x="1174" y="654.6338">+VMushroomThreadConnection(VTecton, VTecton, Color):</text><text fill="#000000" font-family="Verdana" font-size="14" lengthAdjust="spacing" textLength="178" x="1174" y="671.6484">+draw(Graphics2D): void</text><text fill="#000000" font-family="Verdana" font-size="14" lengthAdjust="spacing" textLength="111" x="1174" y="688.6631">-isEven(int): int</text></g><!--link ButtonsPanel to SidebarButton--><g id="link_ButtonsPanel_SidebarButton"><path codeLine="135" d="M1048.11,1049 C1116.52,1049 1205.17,1049 1281.76,1049 " fill="none" id="ButtonsPanel-SidebarButton" style="stroke:#595959;stroke-width:1.0;"/><polygon fill="#595959" points="1036.11,1049,1042.11,1053,1048.11,1049,1042.11,1045,1036.11,1049" style="stroke:#595959;stroke-width:1.0;"/><polygon fill="#595959" points="1287.76,1049,1278.76,1045,1282.76,1049,1278.76,1053,1287.76,1049" style="stroke:#595959;stroke-width:1.0;"/><text fill="#000000" font-family="Verdana" font-size="13" lengthAdjust="spacing" textLength="8" x="1043.8877" y="1062.933">1</text><text fill="#000000" font-family="Verdana" font-size="13" lengthAdjust="spacing" textLength="98" x="1181.9813" y="1062.9334">endTurnButton</text><text fill="#000000" font-family="Verdana" font-size="13" lengthAdjust="spacing" textLength="8" x="1226.9813" y="1078.7328">1</text></g><!--link GamePanel to MiddlePanel--><g id="link_GamePanel_MiddlePanel"><path codeLine="136" d="M363,1047.56 C363,1095.38 363,1179 363,1179 C363,1179 430.66,1179 501.87,1179 " fill="none" id="GamePanel-MiddlePanel" style="stroke:#595959;stroke-width:1.0;"/><polygon fill="#595959" points="363,1035.56,359,1041.56,363,1047.56,367,1041.56,363,1035.56" style="stroke:#595959;stroke-width:1.0;"/><polygon fill="#595959" points="507.87,1179,498.87,1175,502.87,1179,498.87,1183,507.87,1179" style="stroke:#595959;stroke-width:1.0;"/><text fill="#000000" font-family="Verdana" font-size="13" lengthAdjust="spacing" textLength="8" x="354.075" y="1056.5969">1</text><text fill="#000000" font-family="Verdana" font-size="13" lengthAdjust="spacing" textLength="76" x="424.2063" y="1192.7851">middlePanel</text><text fill="#000000" font-family="Verdana" font-size="13" lengthAdjust="spacing" textLength="8" x="458.2063" y="1208.5844">1</text></g><!--link GamePanel to SidebarPanel--><g id="link_GamePanel_SidebarPanel"><path codeLine="137" d="M433.53,1009 C458.85,1009 471.58,1009 501.87,1009 " fill="none" id="GamePanel-SidebarPanel" style="stroke:#595959;stroke-width:1.0;"/><polygon fill="#595959" points="421.53,1009,427.53,1013,433.53,1009,427.53,1005,421.53,1009" style="stroke:#595959;stroke-width:1.0;"/><polygon fill="#595959" points="507.87,1009,498.87,1005,502.87,1009,498.87,1013,507.87,1009" style="stroke:#595959;stroke-width:1.0;"/><text fill="#000000" font-family="Verdana" font-size="13" lengthAdjust="spacing" textLength="8" x="429.5417" y="1023.081">1</text><text fill="#000000" font-family="Verdana" font-size="13" lengthAdjust="spacing" textLength="82" x="417.7624" y="989.415">sidebarPanel</text><text fill="#000000" font-family="Verdana" font-size="13" lengthAdjust="spacing" textLength="8" x="454.7624" y="1005.2143">1</text></g><!--link MapPanel to InsecterPop--><g id="link_MapPanel_InsecterPop"><path codeLine="138" d="M1120.2,1304 C1191.66,1304 1257.14,1304 1312.76,1304 " fill="none" id="MapPanel-InsecterPop" style="stroke:#595959;stroke-width:1.0;"/><polygon fill="#595959" points="1108.2,1304,1114.2,1308,1120.2,1304,1114.2,1300,1108.2,1304" style="stroke:#595959;stroke-width:1.0;"/><polygon fill="#595959" points="1318.76,1304,1309.76,1300,1313.76,1304,1309.76,1308,1318.76,1304" style="stroke:#595959;stroke-width:1.0;"/><text fill="#000000" font-family="Verdana" font-size="13" lengthAdjust="spacing" textLength="8" x="1116.0313" y="1317.9928">1</text><text fill="#000000" font-family="Verdana" font-size="13" lengthAdjust="spacing" textLength="77" x="1234.0471" y="1318.2789">insecterPop</text><text fill="#000000" font-family="Verdana" font-size="13" lengthAdjust="spacing" textLength="8" x="1268.5471" y="1334.0782">1</text></g><!--link MapPanel to MushroomerPop--><g id="link_MapPanel_MushroomerPop"><path codeLine="139" d="M1120.2,1262.17 C1185.35,1262.17 1242.5,1262.17 1297.41,1262.17 " fill="none" id="MapPanel-MushroomerPop" style="stroke:#595959;stroke-width:1.0;"/><polygon fill="#595959" points="1108.2,1262.17,1114.2,1266.17,1120.2,1262.17,1114.2,1258.17,1108.2,1262.17" style="stroke:#595959;stroke-width:1.0;"/><polygon fill="#595959" points="1303.41,1262.17,1294.41,1258.17,1298.41,1262.17,1294.41,1266.17,1303.41,1262.17" style="stroke:#595959;stroke-width:1.0;"/><text fill="#000000" font-family="Verdana" font-size="13" lengthAdjust="spacing" textLength="8" x="1116.0313" y="1258.0549">1</text><text fill="#000000" font-family="Verdana" font-size="13" lengthAdjust="spacing" textLength="103" x="1192.5436" y="1277.4922">mushroomerPop</text><text fill="#000000" font-family="Verdana" font-size="13" lengthAdjust="spacing" textLength="8" x="1240.0436" y="1293.2915">1</text></g><!--link MapPanel to VMushroomThreadConnection--><g id="link_MapPanel_VMushroomThreadConnection"><path codeLine="140" d="M1120.15,1256.83 C1168.1,1256.83 1198,1256.83 1198,1256.83 C1198,1256.83 1198,874.88 1198,701.74 " fill="none" id="MapPanel-VMushroomThreadConnection" style="stroke:#595959;stroke-width:1.0;"/><polygon fill="#595959" points="1108.15,1256.83,1114.15,1260.83,1120.15,1256.83,1114.15,1252.83,1108.15,1256.83" style="stroke:#595959;stroke-width:1.0;"/><polygon fill="#595959" points="1198,695.74,1194,704.74,1198,700.74,1202,704.74,1198,695.74" style="stroke:#595959;stroke-width:1.0;"/><text fill="#000000" font-family="Verdana" font-size="13" lengthAdjust="spacing" textLength="8" x="1115.7767" y="1249.6629">1</text><text fill="#000000" font-family="Verdana" font-size="13" lengthAdjust="spacing" textLength="50" x="1131.425" y="716.5784">threads</text><text fill="#000000" font-family="Verdana" font-size="13" lengthAdjust="spacing" textLength="9" x="1151.925" y="732.3777">*</text></g><!--link MapPanel to VTecton--><g id="link_MapPanel_VTecton"><path codeLine="141" d="M1120.46,1272.5 C1366.52,1272.5 1840,1272.5 1840,1272.5 C1840,1272.5 1840,792.18 1840,655.4 " fill="none" id="MapPanel-VTecton" style="stroke:#595959;stroke-width:1.0;"/><polygon fill="#595959" points="1108.46,1272.5,1114.46,1276.5,1120.46,1272.5,1114.46,1268.5,1108.46,1272.5" style="stroke:#595959;stroke-width:1.0;"/><polygon fill="#595959" points="1840,649.4,1836,658.4,1840,654.4,1844,658.4,1840,649.4" style="stroke:#595959;stroke-width:1.0;"/><text fill="#000000" font-family="Verdana" font-size="13" lengthAdjust="spacing" textLength="8" x="1115.8572" y="1284.8159">1</text><text fill="#000000" font-family="Verdana" font-size="13" lengthAdjust="spacing" textLength="51" x="1792.525" y="669.9876">tectons</text><text fill="#000000" font-family="Verdana" font-size="13" lengthAdjust="spacing" textLength="9" x="1813.525" y="685.7869">*</text></g><!--link MiddlePanel to MapPanel--><g id="link_MiddlePanel_MapPanel"><path codeLine="142" d="M782.15,1205.5 C817.42,1205.5 834,1205.5 834,1205.5 C834,1205.5 834,1222.58 834,1245.3 " fill="none" id="MiddlePanel-MapPanel" style="stroke:#595959;stroke-width:1.0;"/><polygon fill="#595959" points="770.15,1205.5,776.15,1209.5,782.15,1205.5,776.15,1201.5,770.15,1205.5" style="stroke:#595959;stroke-width:1.0;"/><polygon fill="#595959" points="834,1251.3,838,1242.3,834,1246.3,830,1242.3,834,1251.3" style="stroke:#595959;stroke-width:1.0;"/><text fill="#000000" font-family="Verdana" font-size="13" lengthAdjust="spacing" textLength="8" x="777.9634" y="1220.5577">1</text><text fill="#000000" font-family="Verdana" font-size="13" lengthAdjust="spacing" textLength="62" x="777.3623" y="1235.1428">mapPanel</text><text fill="#000000" font-family="Verdana" font-size="13" lengthAdjust="spacing" textLength="8" x="804.3623" y="1250.9421">1</text></g><!--link MiddlePanel to TectonContentPanel--><g id="link_MiddlePanel_TectonContentPanel"><path codeLine="143" d="M782.37,1161 C804.57,1161 809.62,1161 831.81,1161 " fill="none" id="MiddlePanel-TectonContentPanel" style="stroke:#595959;stroke-width:1.0;"/><polygon fill="#595959" points="770.37,1161,776.37,1165,782.37,1161,776.37,1157,770.37,1161" style="stroke:#595959;stroke-width:1.0;"/><polygon fill="#595959" points="837.81,1161,828.81,1157,832.81,1161,828.81,1165,837.81,1161" style="stroke:#595959;stroke-width:1.0;"/><text fill="#000000" font-family="Verdana" font-size="13" lengthAdjust="spacing" textLength="8" x="778.1961" y="1173.4851">1</text><text fill="#000000" font-family="Verdana" font-size="13" lengthAdjust="spacing" textLength="132" x="777.8631" y="1122.0732">tectonContentPanel</text><text fill="#000000" font-family="Verdana" font-size="13" lengthAdjust="spacing" textLength="8" x="839.8631" y="1137.8725">1</text></g><!--link MiddlePanel to TurnOrderPanel--><g id="link_MiddlePanel_TurnOrderPanel"><path codeLine="144" d="M782.37,1197 C824.25,1197 851.15,1197 887.65,1197 " fill="none" id="MiddlePanel-TurnOrderPanel" style="stroke:#595959;stroke-width:1.0;"/><polygon fill="#595959" points="770.37,1197,776.37,1201,782.37,1197,776.37,1193,770.37,1197" style="stroke:#595959;stroke-width:1.0;"/><polygon fill="#595959" points="893.65,1197,884.65,1193,888.65,1197,884.65,1201,893.65,1197" style="stroke:#595959;stroke-width:1.0;"/><text fill="#000000" font-family="Verdana" font-size="13" lengthAdjust="spacing" textLength="8" x="778.1961" y="1195.6991">1</text><text fill="#000000" font-family="Verdana" font-size="13" lengthAdjust="spacing" textLength="98" x="788.0724" y="1209.9353">turnOrderPanel</text><text fill="#000000" font-family="Verdana" font-size="13" lengthAdjust="spacing" textLength="8" x="833.0724" y="1225.7346">1</text></g><!--link SidebarPanel to ButtonsPanel--><g id="link_SidebarPanel_ButtonsPanel"><path codeLine="145" d="M782.37,1033.25 C827.49,1033.25 858.1,1033.25 895.95,1033.25 " fill="none" id="SidebarPanel-ButtonsPanel" style="stroke:#595959;stroke-width:1.0;"/><polygon fill="#595959" points="770.37,1033.25,776.37,1037.25,782.37,1033.25,776.37,1029.25,770.37,1033.25" style="stroke:#595959;stroke-width:1.0;"/><polygon fill="#595959" points="901.95,1033.25,892.95,1029.25,896.95,1033.25,892.95,1037.25,901.95,1033.25" style="stroke:#595959;stroke-width:1.0;"/><text fill="#000000" font-family="Verdana" font-size="13" lengthAdjust="spacing" textLength="8" x="778.1961" y="1048.1776">1</text><text fill="#000000" font-family="Verdana" font-size="13" lengthAdjust="spacing" textLength="86" x="807.8682" y="1046.3229">buttonsPanel</text><text fill="#000000" font-family="Verdana" font-size="13" lengthAdjust="spacing" textLength="8" x="846.8682" y="1062.1222">1</text></g><!--link SidebarPanel to ChatLogPanel--><g id="link_SidebarPanel_ChatLogPanel"><path codeLine="146" d="M782.37,993 C804.57,993 809.62,993 831.81,993 " fill="none" id="SidebarPanel-ChatLogPanel" style="stroke:#595959;stroke-width:1.0;"/><polygon fill="#595959" points="770.37,993,776.37,997,782.37,993,776.37,989,770.37,993" style="stroke:#595959;stroke-width:1.0;"/><polygon fill="#595959" points="837.81,993,828.81,989,832.81,993,828.81,997,837.81,993" style="stroke:#595959;stroke-width:1.0;"/><text fill="#000000" font-family="Verdana" font-size="13" lengthAdjust="spacing" textLength="8" x="778.1961" y="1005.6007">1</text><text fill="#000000" font-family="Verdana" font-size="13" lengthAdjust="spacing" textLength="88" x="777.6717" y="967.5053">chatLogPanel</text><text fill="#000000" font-family="Verdana" font-size="13" lengthAdjust="spacing" textLength="8" x="817.6717" y="983.3046">1</text></g><!--link VClawParalyzingSpore to VSpore--><g id="link_VClawParalyzingSpore_VSpore"><path codeLine="147" d="M1528.26,322.9 C1583.52,322.9 1626.86,322.9 1676.31,322.9 " fill="none" id="VClawParalyzingSpore-to-VSpore" style="stroke:#000082;stroke-width:1.0;"/><polygon fill="none" points="1694.31,322.9,1676.31,316.9,1676.31,328.9,1694.31,322.9" style="stroke:#000082;stroke-width:1.0;"/></g><!--link VInsect to VItem--><g id="link_VInsect_VItem"><path codeLine="148" d="M1887.12,118 C1982.45,118 2114,118 2114,118 C2114,118 2114,145.89 2114,182.28 " fill="none" id="VInsect-to-VItem" style="stroke:#000082;stroke-width:1.0;"/><polygon fill="none" points="2114,200.28,2120,182.28,2108,182.28,2114,200.28" style="stroke:#000082;stroke-width:1.0;"/></g><!--link VMushroomStem to VItem--><g id="link_VMushroomStem_VItem"><path codeLine="149" d="M1921.41,204 C1943.01,204 1947.36,204 1968.85,204 " fill="none" id="VMushroomStem-to-VItem" style="stroke:#000082;stroke-width:1.0;"/><polygon fill="none" points="1986.85,204,1968.85,198,1968.85,210,1986.85,204" style="stroke:#000082;stroke-width:1.0;"/></g><!--link VMushroomThread to VItem--><g id="link_VMushroomThread_VItem"><path codeLine="150" d="M1927.01,244 C1946.9,244 1949.3,244 1968.98,244 " fill="none" id="VMushroomThread-to-VItem" style="stroke:#000082;stroke-width:1.0;"/><polygon fill="none" points="1986.98,244,1968.98,238,1968.98,250,1986.98,244" style="stroke:#000082;stroke-width:1.0;"/></g><!--link VMushroomThreadConnection to VTecton--><g id="link_VMushroomThreadConnection_VTecton"><path codeLine="151" d="M1606.15,614 C1640.16,614 1655.85,614 1685.48,614 " fill="none" id="VMushroomThreadConnection-VTecton" style="stroke:#595959;stroke-width:1.0;"/><polygon fill="#595959" points="1594.15,614,1600.15,618,1606.15,614,1600.15,610,1594.15,614" style="stroke:#595959;stroke-width:1.0;"/><polygon fill="#595959" points="1691.48,614,1682.48,610,1686.48,614,1682.48,618,1691.48,614" style="stroke:#595959;stroke-width:1.0;"/><text fill="#000000" font-family="Verdana" font-size="13" lengthAdjust="spacing" textLength="8" x="1601.9538" y="627.3519">1</text><text fill="#000000" font-family="Verdana" font-size="13" lengthAdjust="spacing" textLength="32" x="1651.3927" y="628.1797">start</text><text fill="#000000" font-family="Verdana" font-size="13" lengthAdjust="spacing" textLength="8" x="1663.3927" y="643.979">1</text></g><!--link VParalyzingSpore to VSpore--><g id="link_VParalyzingSpore_VSpore"><path codeLine="152" d="M1512.24,370 C1647.58,370 1839,370 1839,370 C1839,370 1839,368.89 1839,351.72 " fill="none" id="VParalyzingSpore-to-VSpore" style="stroke:#000082;stroke-width:1.0;"/><polygon fill="none" points="1839,333.72,1833,351.72,1845,351.72,1839,333.72" style="stroke:#000082;stroke-width:1.0;"/></g><!--link VSingleThreadedTecton to VTecton--><g id="link_VSingleThreadedTecton_VTecton"><path codeLine="153" d="M1534.19,732 C1632.18,732 1741,732 1741,732 C1741,732 1741,701.87 1741,667.08 " fill="none" id="VSingleThreadedTecton-to-VTecton" style="stroke:#000082;stroke-width:1.0;"/><polygon fill="none" points="1741,649.08,1735,667.08,1747,667.08,1741,649.08" style="stroke:#000082;stroke-width:1.0;"/></g><!--link VSlowingSpore to VSpore--><g id="link_VSlowingSpore_VSpore"><path codeLine="154" d="M1504.32,118 C1525.05,118 1540,118 1540,118 C1540,118 1540,291.1 1540,291.1 C1540,291.1 1605.72,291.1 1676.37,291.1 " fill="none" id="VSlowingSpore-to-VSpore" style="stroke:#000082;stroke-width:1.0;"/><polygon fill="none" points="1694.37,291.1,1676.37,285.1,1676.37,297.1,1694.37,291.1" style="stroke:#000082;stroke-width:1.0;"/></g><!--link VSpeedingSpore to VSpore--><g id="link_VSpeedingSpore_VSpore"><path codeLine="155" d="M1509.71,181 C1525.38,181 1536,181 1536,181 C1536,181 1536,301.7 1536,301.7 C1536,301.7 1604.21,301.7 1676.28,301.7 " fill="none" id="VSpeedingSpore-to-VSpore" style="stroke:#000082;stroke-width:1.0;"/><polygon fill="none" points="1694.28,301.7,1676.28,295.7,1676.28,307.7,1694.28,301.7" style="stroke:#000082;stroke-width:1.0;"/></g><!--link VSplitterSpore to VSpore--><g id="link_VSplitterSpore_VSpore"><path codeLine="156" d="M1502.53,244 C1519.89,244 1532,244 1532,244 C1532,244 1532,312.3 1532,312.3 C1532,312.3 1602.75,312.3 1676.24,312.3 " fill="none" id="VSplitterSpore-to-VSpore" style="stroke:#000082;stroke-width:1.0;"/><polygon fill="none" points="1694.24,312.3,1676.24,306.3,1676.24,318.3,1694.24,312.3" style="stroke:#000082;stroke-width:1.0;"/></g><!--link VSpore to VItem--><g id="link_VSpore_VItem"><path codeLine="157" d="M1886.54,284 C1917.96,284 1935.37,284 1968.71,284 " fill="none" id="VSpore-to-VItem" style="stroke:#000082;stroke-width:1.0;"/><polygon fill="none" points="1986.71,284,1968.71,278,1968.71,290,1986.71,284" style="stroke:#000082;stroke-width:1.0;"/></g><!--link VStemlessTecton to VTecton--><g id="link_VStemlessTecton_VTecton"><path codeLine="158" d="M1512.14,795 C1632.09,795 1791,795 1791,795 C1791,795 1791,720 1791,667.33 " fill="none" id="VStemlessTecton-to-VTecton" style="stroke:#000082;stroke-width:1.0;"/><polygon fill="none" points="1791,649.33,1785,667.33,1797,667.33,1791,649.33" style="stroke:#000082;stroke-width:1.0;"/></g><!--link VSupportTecton to VTecton--><g id="link_VSupportTecton_VTecton"><path codeLine="159" d="M1509.04,433 C1629.34,433 1791,433 1791,433 C1791,433 1791,508 1791,560.67 " fill="none" id="VSupportTecton-to-VTecton" style="stroke:#000082;stroke-width:1.0;"/><polygon fill="none" points="1791,578.67,1797,560.67,1785,560.67,1791,578.67" style="stroke:#000082;stroke-width:1.0;"/></g><!--link VTecton to VItem--><g id="link_VTecton_VItem"><path codeLine="160" d="M1889.76,614 C1984.85,614 2114,614 2114,614 C2114,614 2114,403.34 2114,305.53 " fill="none" id="VTecton-to-VItem" style="stroke:#000082;stroke-width:1.0;"/><polygon fill="none" points="2114,287.53,2108,305.53,2120,305.53,2114,287.53" style="stroke:#000082;stroke-width:1.0;"/></g><!--link VThreadConsumingTecton to VTecton--><g id="link_VThreadConsumingTecton_VTecton"><path codeLine="161" d="M1544.26,496 C1640.27,496 1743,496 1743,496 C1743,496 1743,526.13 1743,560.92 " fill="none" id="VThreadConsumingTecton-to-VTecton" style="stroke:#000082;stroke-width:1.0;"/><polygon fill="none" points="1743,578.92,1749,560.92,1737,560.92,1743,578.92" style="stroke:#000082;stroke-width:1.0;"/></g><!--link Window to GamePanel--><g id="link_Window_GamePanel"><path codeLine="162" d="M230.24,871 C297.31,871 363,871 363,871 C363,871 363,936.29 363,976.39 " fill="none" id="Window-GamePanel" style="stroke:#595959;stroke-width:1.0;"/><polygon fill="#595959" points="218.24,871,224.24,875,230.24,871,224.24,867,218.24,871" style="stroke:#595959;stroke-width:1.0;"/><polygon fill="#595959" points="363,982.39,367,973.39,363,977.39,359,973.39,363,982.39" style="stroke:#595959;stroke-width:1.0;"/><text fill="#000000" font-family="Verdana" font-size="13" lengthAdjust="spacing" textLength="8" x="225.8763" y="884.673">1</text><text fill="#000000" font-family="Verdana" font-size="13" lengthAdjust="spacing" textLength="70" x="285.7813" y="955.8349">gamePanel</text><text fill="#000000" font-family="Verdana" font-size="13" lengthAdjust="spacing" textLength="8" x="316.7813" y="971.6342">1</text></g><!--link Window to MainMenu--><g id="link_Window_MainMenu"><path codeLine="163" d="M123,815.4 C123,774.64 123,732 123,732 C123,732 231.41,732 302.24,732 " fill="none" id="Window-MainMenu" style="stroke:#595959;stroke-width:1.0;"/><polygon fill="#595959" points="123,827.4,127,821.4,123,815.4,119,821.4,123,827.4" style="stroke:#595959;stroke-width:1.0;"/><polygon fill="#595959" points="308.24,732,299.24,728,303.24,732,299.24,736,308.24,732" style="stroke:#595959;stroke-width:1.0;"/><text fill="#000000" font-family="Verdana" font-size="13" lengthAdjust="spacing" textLength="8" x="114.3984" y="816.7519">1</text><text fill="#000000" font-family="Verdana" font-size="13" lengthAdjust="spacing" textLength="65" x="226.1137" y="741.9677">mainMenu</text><text fill="#000000" font-family="Verdana" font-size="13" lengthAdjust="spacing" textLength="8" x="254.6137" y="757.767">1</text></g><!--SRC=[hLTTRzCm57tFhp3RIw6R14X8i0SaA0XDOgAYqtWO87crQQmbTcIxgmRQV-V6TfBhnALPH2Pjox7lkH-zlZvzOdDUSb8LLCYiuByiiOfeiSajOKBpjHLAPkPMo8fgMf92I6xlAqwKjhdASi4uuMLbxqd9onkk3TgxBgWnxwpLucPh-VbQoPNupSbpj4KgnWslo0iCQhg-fHk-f8m9kI6ligpo2BaJV4V-P8Gqm8P2x3L0l3Vo2O0bbRm8A27p3fizFNFW0p8ubmQIv7gfAcI2q9JH1QtwJXgesLvZaC0bq2ZvpdwbagbogOoe2mgRo9qIBEmyXdo4j0jLLafoQMUVDAroiJPuM-H_QtAjLDaFEy9JWLzkjVoY6QptmeyNagOkauMI5Y8Sc0yMkpgSahNcrF9BOGlEtglQosm5NI4ta9z_HzvmceAnOl1n8dII4_UdQI033Nn3TTH3xxSMaZ5zlnXE5MYHK_jPRVfc69vS5EzXvOFjUy3m__7WKnswy7ZBqfgxehfVJLrBQEWBBhTHOIzYq1yR3oLF6U23I3fmJnWeY3jXUHb5S7NU8VMvS-ypE7idnFsAAEiDXQBil0IohdJeuCuVUt2l_611-GHaNmoHSNEyLpY9UOm_YkWoXnPXk1xnoYYoLQKqnnmE66MwAEXk2JE_kFyDEsAYUN9v5Eq_AAVGhGgrIt5XV6IbE6T99hmmageG5Ywe11LQ64NbPpVcyCZ-Op4dJDDTcFQplRs-0fk2-qxYREWcjJukUUZpWXkJe8nMnf5jAoYLJN3XXN6LTAb0NSosX2s9mgOsJ3Ynm22zD4kDWVwUMVX0JqZxpq8LIkEhedu_yt0BSidE6fCMD9PgEuGjJBrR2PK_gpE9-gGTYYy_nDFpb0ZpyOwx0ZpjxDf9xbF_9a0vxKAUy_3QN1TpTz64sNpz0_FFYSdLpb-A_Tdza863w9gFdgCNH-JPwVNngpVrpudJnZzEtv8Zg4WjbBpbTmdReeinwzHd_zbBMNPgnX4YTJE5pY0jW0FqXArk7KyeEYNi-90oda9NOeNg4yR854hhsjryby-Ezf-1ISIknGDnw7SiISUc73pxRCFB528x4DcESgYz9v57Nm0ySGHbaVeSHtg3ZfYZn6Tk2k4QYMb7YDLrbjGJOTPS7p-7v_NBXkmd2K8bQpHPuabQrP8nYxNOOus2xffYX4R__Y5GpsXNdgPjhz9LELIPv0s-twfn5WccmxLfd4NgQBmL5aBZhGQX7VuWUhBZa55RZKXWZ3PBx3ySObg17F8LhbZoYDcuQQucrsRjHJM5glcg6EQZV_aB]--></g></svg>