<?xml version="1.0" encoding="us-ascii" standalone="no"?><svg xmlns="http://www.w3.org/2000/svg" xmlns:xlink="http://www.w3.org/1999/xlink" contentStyleType="text/css" height="435px" preserveAspectRatio="none" style="width:491px;height:435px;background:#FFFFFF;" version="1.1" viewBox="0 0 491 435" width="491px" zoomAndPan="magnify"><defs/><g><text fill="#000000" font-family="sans-serif" font-size="14" font-weight="bold" lengthAdjust="spacing" textLength="463" x="10" y="29.5332">Mushroomer grows thread on an occupied single threaded tecton</text><rect fill="#FFFFFF" height="213.4609" style="stroke:#181818;stroke-width:1.0;" width="10" x="80" y="131.2188"/><rect fill="#FFFFFF" height="91.0547" style="stroke:#181818;stroke-width:1.0;" width="10" x="184.5" y="153.5703"/><rect fill="#FFFFFF" height="60.7031" style="stroke:#181818;stroke-width:1.0;" width="10" x="184.5" y="274.9766"/><rect fill="#FFFFFF" height="30.3516" style="stroke:#181818;stroke-width:1.0;" width="10" x="341.5" y="183.9219"/><rect fill="#FFFFFF" height="30.3516" style="stroke:#181818;stroke-width:1.0;" width="10" x="341.5" y="305.3281"/><line style="stroke:#181818;stroke-width:0.5;stroke-dasharray:5.0,5.0;" x1="85" x2="85" y1="121.2188" y2="353.6797"/><line style="stroke:#181818;stroke-width:0.5;stroke-dasharray:5.0,5.0;" x1="189" x2="189" y1="121.2188" y2="353.6797"/><line style="stroke:#181818;stroke-width:0.5;stroke-dasharray:5.0,5.0;" x1="346" x2="346" y1="121.2188" y2="353.6797"/><text fill="#000000" font-family="sans-serif" font-size="14" lengthAdjust="spacing" textLength="62" x="51" y="118.1426">Controller</text><ellipse cx="85" cy="52.1094" fill="#E2E2F0" rx="8" ry="8" style="stroke:#181818;stroke-width:0.5;"/><path d="M85,60.1094 L85,87.1094 M72,68.1094 L98,68.1094 M85,87.1094 L72,102.1094 M85,87.1094 L98,102.1094 " fill="none" style="stroke:#181818;stroke-width:0.5;"/><text fill="#000000" font-family="sans-serif" font-size="14" lengthAdjust="spacing" textLength="62" x="51" y="367.2129">Controller</text><ellipse cx="85" cy="378.7891" fill="#E2E2F0" rx="8" ry="8" style="stroke:#181818;stroke-width:0.5;"/><path d="M85,386.7891 L85,413.7891 M72,394.7891 L98,394.7891 M85,413.7891 L72,428.7891 M85,413.7891 L98,428.7891 " fill="none" style="stroke:#181818;stroke-width:0.5;"/><rect fill="#E2E2F0" height="31.6094" rx="2.5" ry="2.5" style="stroke:#181818;stroke-width:0.5;" width="121" x="129" y="88.6094"/><text fill="#000000" font-family="sans-serif" font-size="14" lengthAdjust="spacing" textLength="107" x="136" y="110.1426">mr : Mushroomer</text><rect fill="#E2E2F0" height="31.6094" rx="2.5" ry="2.5" style="stroke:#181818;stroke-width:0.5;" width="121" x="129" y="352.6797"/><text fill="#000000" font-family="sans-serif" font-size="14" lengthAdjust="spacing" textLength="107" x="136" y="374.2129">mr : Mushroomer</text><rect fill="#E2E2F0" height="31.6094" rx="2.5" ry="2.5" style="stroke:#181818;stroke-width:0.5;" width="173" x="260" y="88.6094"/><text fill="#000000" font-family="sans-serif" font-size="14" lengthAdjust="spacing" textLength="159" x="267" y="110.1426">t : Single threaded tecton</text><rect fill="#E2E2F0" height="31.6094" rx="2.5" ry="2.5" style="stroke:#181818;stroke-width:0.5;" width="173" x="260" y="352.6797"/><text fill="#000000" font-family="sans-serif" font-size="14" lengthAdjust="spacing" textLength="159" x="267" y="374.2129">t : Single threaded tecton</text><rect fill="#FFFFFF" height="213.4609" style="stroke:#181818;stroke-width:1.0;" width="10" x="80" y="131.2188"/><rect fill="#FFFFFF" height="91.0547" style="stroke:#181818;stroke-width:1.0;" width="10" x="184.5" y="153.5703"/><rect fill="#FFFFFF" height="60.7031" style="stroke:#181818;stroke-width:1.0;" width="10" x="184.5" y="274.9766"/><rect fill="#FFFFFF" height="30.3516" style="stroke:#181818;stroke-width:1.0;" width="10" x="341.5" y="183.9219"/><rect fill="#FFFFFF" height="30.3516" style="stroke:#181818;stroke-width:1.0;" width="10" x="341.5" y="305.3281"/><polygon fill="#181818" points="172.5,149.5703,182.5,153.5703,172.5,157.5703,176.5,153.5703" style="stroke:#181818;stroke-width:1.0;"/><line style="stroke:#181818;stroke-width:1.0;" x1="90" x2="178.5" y1="153.5703" y2="153.5703"/><text fill="#000000" font-family="sans-serif" font-size="13" lengthAdjust="spacing" textLength="52" x="97" y="148.7139">add(t, th)</text><polygon fill="#181818" points="329.5,179.9219,339.5,183.9219,329.5,187.9219,333.5,183.9219" style="stroke:#181818;stroke-width:1.0;"/><line style="stroke:#181818;stroke-width:1.0;" x1="194.5" x2="335.5" y1="183.9219" y2="183.9219"/><text fill="#000000" font-family="sans-serif" font-size="13" lengthAdjust="spacing" textLength="40" x="201.5" y="179.0654">add(th)</text><polygon fill="#181818" points="205.5,210.2734,195.5,214.2734,205.5,218.2734,201.5,214.2734" style="stroke:#181818;stroke-width:1.0;"/><line style="stroke:#181818;stroke-width:1.0;stroke-dasharray:2.0,2.0;" x1="199.5" x2="345.5" y1="214.2734" y2="214.2734"/><text fill="#000000" font-family="sans-serif" font-size="13" lengthAdjust="spacing" textLength="22" x="211.5" y="209.417">true</text><polygon fill="#181818" points="101,240.625,91,244.625,101,248.625,97,244.625" style="stroke:#181818;stroke-width:1.0;"/><line style="stroke:#181818;stroke-width:1.0;stroke-dasharray:2.0,2.0;" x1="95" x2="188.5" y1="244.625" y2="244.625"/><text fill="#000000" font-family="sans-serif" font-size="13" lengthAdjust="spacing" textLength="22" x="107" y="239.7686">true</text><polygon fill="#181818" points="172.5,270.9766,182.5,274.9766,172.5,278.9766,176.5,274.9766" style="stroke:#181818;stroke-width:1.0;"/><line style="stroke:#181818;stroke-width:1.0;" x1="90" x2="178.5" y1="274.9766" y2="274.9766"/><text fill="#000000" font-family="sans-serif" font-size="13" lengthAdjust="spacing" textLength="52" x="97" y="270.1201">add(t, th)</text><polygon fill="#181818" points="329.5,301.3281,339.5,305.3281,329.5,309.3281,333.5,305.3281" style="stroke:#181818;stroke-width:1.0;"/><line style="stroke:#181818;stroke-width:1.0;" x1="194.5" x2="335.5" y1="305.3281" y2="305.3281"/><text fill="#000000" font-family="sans-serif" font-size="13" lengthAdjust="spacing" textLength="40" x="201.5" y="300.4717">add(th)</text><polygon fill="#181818" points="200.5,331.6797,190.5,335.6797,200.5,339.6797,196.5,335.6797" style="stroke:#181818;stroke-width:1.0;"/><line style="stroke:#181818;stroke-width:1.0;stroke-dasharray:2.0,2.0;" x1="194.5" x2="345.5" y1="335.6797" y2="335.6797"/><text fill="#000000" font-family="sans-serif" font-size="13" lengthAdjust="spacing" textLength="27" x="206.5" y="330.8232">false</text><!--SRC=[jOux3i8m44HxdsAL1f381H2YeKuJSe6LlGHBYHsjDt1zDa4evbFGKDdMFCyRyT8HL6EwS8mzCRGSRmdameGEOW0C4AqT1qyEaW-jqezGtq9MOZ06zM0unY0SkuxO3CZYhHym21Gzmoup5809glgL4KLENzjdl9aT_ef2kMQvGddGJYr1vzQorPBDyaDbHaD5cYUHnysSxijoZeL7CexoDDDCL5L_KfFY7slEsANtEQkVzjm1]--></g></svg>