<?xml version="1.0" encoding="us-ascii" standalone="no"?><svg xmlns="http://www.w3.org/2000/svg" xmlns:xlink="http://www.w3.org/1999/xlink" contentStyleType="text/css" height="336px" preserveAspectRatio="none" style="width:407px;height:336px;background:#FFFFFF;" version="1.1" viewBox="0 0 407 336" width="407px" zoomAndPan="magnify"><defs/><g><text fill="#000000" font-family="sans-serif" font-size="14" font-weight="bold" lengthAdjust="spacing" textLength="156" x="124.5" y="29.5332">Insecter moves Insect</text><rect fill="#FFFFFF" height="188.4063" style="stroke:#181818;stroke-width:1.0;" width="10" x="40.5" y="86.2188"/><rect fill="#FFFFFF" height="158.0547" style="stroke:#181818;stroke-width:1.0;" width="10" x="45.5" y="116.5703"/><rect fill="#FFFFFF" height="102.7031" style="stroke:#181818;stroke-width:1.0;" width="10" x="151.5" y="151.9219"/><rect fill="#FFFFFF" height="14" style="stroke:#181818;stroke-width:1.0;" width="10" x="267.5" y="182.2734"/><rect fill="#FFFFFF" height="14" style="stroke:#181818;stroke-width:1.0;" width="10" x="356.5" y="226.625"/><line style="stroke:#181818;stroke-width:0.5;stroke-dasharray:5.0,5.0;" x1="45" x2="45" y1="76.2188" y2="299.625"/><line style="stroke:#181818;stroke-width:0.5;stroke-dasharray:5.0,5.0;" x1="156.5" x2="156.5" y1="76.2188" y2="299.625"/><line style="stroke:#181818;stroke-width:0.5;stroke-dasharray:5.0,5.0;" x1="272" x2="272" y1="76.2188" y2="299.625"/><line style="stroke:#181818;stroke-width:0.5;stroke-dasharray:5.0,5.0;" x1="361" x2="361" y1="76.2188" y2="299.625"/><rect fill="#E2E2F0" height="31.6094" rx="2.5" ry="2.5" style="stroke:#181818;stroke-width:0.5;" width="81" x="5" y="43.6094"/><text fill="#000000" font-family="sans-serif" font-size="14" lengthAdjust="spacing" textLength="67" x="12" y="65.1426">IR:Insecter</text><rect fill="#E2E2F0" height="31.6094" rx="2.5" ry="2.5" style="stroke:#181818;stroke-width:0.5;" width="81" x="5" y="298.625"/><text fill="#000000" font-family="sans-serif" font-size="14" lengthAdjust="spacing" textLength="67" x="12" y="320.1582">IR:Insecter</text><rect fill="#E2E2F0" height="31.6094" rx="2.5" ry="2.5" style="stroke:#181818;stroke-width:0.5;" width="58" x="127.5" y="43.6094"/><text fill="#000000" font-family="sans-serif" font-size="14" lengthAdjust="spacing" textLength="44" x="134.5" y="65.1426">I:Insect</text><rect fill="#E2E2F0" height="31.6094" rx="2.5" ry="2.5" style="stroke:#181818;stroke-width:0.5;" width="58" x="127.5" y="298.625"/><text fill="#000000" font-family="sans-serif" font-size="14" lengthAdjust="spacing" textLength="44" x="134.5" y="320.1582">I:Insect</text><rect fill="#E2E2F0" height="31.6094" rx="2.5" ry="2.5" style="stroke:#181818;stroke-width:0.5;" width="79" x="233" y="43.6094"/><text fill="#000000" font-family="sans-serif" font-size="14" lengthAdjust="spacing" textLength="65" x="240" y="65.1426">T1:Tecton</text><rect fill="#E2E2F0" height="31.6094" rx="2.5" ry="2.5" style="stroke:#181818;stroke-width:0.5;" width="79" x="233" y="298.625"/><text fill="#000000" font-family="sans-serif" font-size="14" lengthAdjust="spacing" textLength="65" x="240" y="320.1582">T1:Tecton</text><rect fill="#E2E2F0" height="31.6094" rx="2.5" ry="2.5" style="stroke:#181818;stroke-width:0.5;" width="79" x="322" y="43.6094"/><text fill="#000000" font-family="sans-serif" font-size="14" lengthAdjust="spacing" textLength="65" x="329" y="65.1426">T2:Tecton</text><rect fill="#E2E2F0" height="31.6094" rx="2.5" ry="2.5" style="stroke:#181818;stroke-width:0.5;" width="79" x="322" y="298.625"/><text fill="#000000" font-family="sans-serif" font-size="14" lengthAdjust="spacing" textLength="65" x="329" y="320.1582">T2:Tecton</text><rect fill="#FFFFFF" height="188.4063" style="stroke:#181818;stroke-width:1.0;" width="10" x="40.5" y="86.2188"/><rect fill="#FFFFFF" height="158.0547" style="stroke:#181818;stroke-width:1.0;" width="10" x="45.5" y="116.5703"/><rect fill="#FFFFFF" height="102.7031" style="stroke:#181818;stroke-width:1.0;" width="10" x="151.5" y="151.9219"/><rect fill="#FFFFFF" height="14" style="stroke:#181818;stroke-width:1.0;" width="10" x="267.5" y="182.2734"/><rect fill="#FFFFFF" height="14" style="stroke:#181818;stroke-width:1.0;" width="10" x="356.5" y="226.625"/><line style="stroke:#181818;stroke-width:1.0;" x1="50.5" x2="97.5" y1="103.5703" y2="103.5703"/><line style="stroke:#181818;stroke-width:1.0;" x1="97.5" x2="97.5" y1="103.5703" y2="116.5703"/><line style="stroke:#181818;stroke-width:1.0;" x1="56.5" x2="97.5" y1="116.5703" y2="116.5703"/><polygon fill="#181818" points="66.5,112.5703,56.5,116.5703,66.5,120.5703,62.5,116.5703" style="stroke:#181818;stroke-width:1.0;"/><text fill="#000000" font-family="sans-serif" font-size="13" lengthAdjust="spacing" textLength="87" x="62.5" y="98.7139">moveInsect(T2)</text><polygon fill="#181818" points="139.5,147.9219,149.5,151.9219,139.5,155.9219,143.5,151.9219" style="stroke:#181818;stroke-width:1.0;"/><line style="stroke:#181818;stroke-width:1.0;" x1="55.5" x2="145.5" y1="151.9219" y2="151.9219"/><text fill="#000000" font-family="sans-serif" font-size="13" lengthAdjust="spacing" textLength="52" x="62.5" y="147.0654">move(T2)</text><polygon fill="#181818" points="255.5,178.2734,265.5,182.2734,255.5,186.2734,259.5,182.2734" style="stroke:#181818;stroke-width:1.0;"/><line style="stroke:#181818;stroke-width:1.0;" x1="161.5" x2="261.5" y1="182.2734" y2="182.2734"/><text fill="#000000" font-family="sans-serif" font-size="13" lengthAdjust="spacing" textLength="87" x="168.5" y="177.417">removeInsect(I)</text><polygon fill="#181818" points="172.5,192.2734,162.5,196.2734,172.5,200.2734,168.5,196.2734" style="stroke:#181818;stroke-width:1.0;"/><line style="stroke:#181818;stroke-width:1.0;stroke-dasharray:2.0,2.0;" x1="166.5" x2="271.5" y1="196.2734" y2="196.2734"/><polygon fill="#181818" points="344.5,222.625,354.5,226.625,344.5,230.625,348.5,226.625" style="stroke:#181818;stroke-width:1.0;"/><line style="stroke:#181818;stroke-width:1.0;" x1="161.5" x2="350.5" y1="226.625" y2="226.625"/><text fill="#000000" font-family="sans-serif" font-size="13" lengthAdjust="spacing" textLength="67" x="168.5" y="221.7686">addInsect(I)</text><polygon fill="#181818" points="172.5,236.625,162.5,240.625,172.5,244.625,168.5,240.625" style="stroke:#181818;stroke-width:1.0;"/><line style="stroke:#181818;stroke-width:1.0;stroke-dasharray:2.0,2.0;" x1="166.5" x2="360.5" y1="240.625" y2="240.625"/><polygon fill="#181818" points="66.5,250.625,56.5,254.625,66.5,258.625,62.5,254.625" style="stroke:#181818;stroke-width:1.0;"/><line style="stroke:#181818;stroke-width:1.0;stroke-dasharray:2.0,2.0;" x1="60.5" x2="155.5" y1="254.625" y2="254.625"/><line style="stroke:#181818;stroke-width:1.0;stroke-dasharray:2.0,2.0;" x1="55.5" x2="97.5" y1="273.625" y2="273.625"/><line style="stroke:#181818;stroke-width:1.0;stroke-dasharray:2.0,2.0;" x1="97.5" x2="97.5" y1="273.625" y2="286.625"/><line style="stroke:#181818;stroke-width:1.0;stroke-dasharray:2.0,2.0;" x1="50.5" x2="97.5" y1="286.625" y2="286.625"/><polygon fill="#181818" points="60.5,282.625,50.5,286.625,60.5,290.625,56.5,286.625" style="stroke:#181818;stroke-width:1.0;"/><!--SRC=[RO-z3iCW38HtFuMLgHqoX96XkrV42o3Y0QbDeiJAyvUVH8A83VkxEnyIvCj8oy5UUCVVUl9nZG2RsoNuiBb5S22ZRzc0BehCWr-um9RPITk8rYL3EpseQgW20ESbd4uuNI63uoS-T6vNZhoiUlT4HPCeLXWemLW2Twuog8g8dUo4Oyw0cUjzCIkDRfvxJWLMzPpn7rJs1cf0aDjsW6cdFm00]--></g></svg>